<svg width="207" height="316" viewBox="0 0 207 316" fill="none" xmlns="http://www.w3.org/2000/svg">
<g filter="url(#filter0_d_89_1506)">
<g clip-path="url(#clip0_89_1506)">
<rect x="8.5" y="6" width="190" height="300" rx="32" fill="#EBE3FF"/>
<path d="M30.374 238.292H33.3L39.35 254H36.402L34.928 249.842H28.658L27.184 254H24.346L30.374 238.292ZM29.406 247.752H34.202L31.848 240.998H31.782L29.406 247.752ZM51.0098 253.406C51.0098 255.122 50.5258 256.398 49.5578 257.234C48.6045 258.085 47.2258 258.51 45.4218 258.51C44.8498 258.51 44.2705 258.451 43.6838 258.334C43.1118 258.217 42.5838 258.019 42.0998 257.74C41.6305 257.461 41.2345 257.095 40.9118 256.64C40.5892 256.185 40.3985 255.628 40.3398 254.968H42.8478C42.9212 255.32 43.0458 255.606 43.2218 255.826C43.3978 256.046 43.6032 256.215 43.8378 256.332C44.0872 256.464 44.3585 256.545 44.6518 256.574C44.9452 256.618 45.2532 256.64 45.5758 256.64C46.5878 256.64 47.3285 256.391 47.7978 255.892C48.2672 255.393 48.5018 254.675 48.5018 253.736V251.998H48.4578C48.1058 252.629 47.6218 253.12 47.0058 253.472C46.4045 253.824 45.7518 254 45.0478 254C44.1385 254 43.3612 253.846 42.7158 253.538C42.0852 253.215 41.5572 252.783 41.1318 252.24C40.7212 251.683 40.4205 251.045 40.2298 250.326C40.0392 249.607 39.9438 248.837 39.9438 248.016C39.9438 247.253 40.0612 246.527 40.2958 245.838C40.5305 245.149 40.8678 244.547 41.3078 244.034C41.7478 243.506 42.2832 243.088 42.9138 242.78C43.5592 242.472 44.2852 242.318 45.0918 242.318C45.8105 242.318 46.4705 242.472 47.0718 242.78C47.6732 243.073 48.1352 243.543 48.4578 244.188H48.5018V242.626H51.0098V253.406ZM45.4438 252.02C46.0012 252.02 46.4705 251.91 46.8518 251.69C47.2478 251.455 47.5632 251.155 47.7978 250.788C48.0472 250.407 48.2232 249.981 48.3258 249.512C48.4432 249.028 48.5018 248.544 48.5018 248.06C48.5018 247.576 48.4432 247.107 48.3258 246.652C48.2085 246.197 48.0252 245.794 47.7758 245.442C47.5412 245.09 47.2258 244.811 46.8298 244.606C46.4485 244.401 45.9865 244.298 45.4438 244.298C44.8865 244.298 44.4172 244.415 44.0358 244.65C43.6545 244.885 43.3465 245.193 43.1118 245.574C42.8772 245.941 42.7085 246.366 42.6058 246.85C42.5032 247.319 42.4518 247.789 42.4518 248.258C42.4518 248.727 42.5105 249.189 42.6278 249.644C42.7452 250.084 42.9212 250.48 43.1558 250.832C43.4052 251.184 43.7132 251.47 44.0798 251.69C44.4612 251.91 44.9158 252.02 45.4438 252.02ZM61.3448 247.312C61.3155 246.916 61.2275 246.535 61.0808 246.168C60.9488 245.801 60.7582 245.486 60.5088 245.222C60.2742 244.943 59.9808 244.723 59.6288 244.562C59.2915 244.386 58.9102 244.298 58.4848 244.298C58.0448 244.298 57.6415 244.379 57.2748 244.54C56.9228 244.687 56.6148 244.899 56.3508 245.178C56.1015 245.442 55.8962 245.757 55.7348 246.124C55.5882 246.491 55.5075 246.887 55.4928 247.312H61.3448ZM55.4928 248.962C55.4928 249.402 55.5515 249.827 55.6688 250.238C55.8008 250.649 55.9915 251.008 56.2408 251.316C56.4902 251.624 56.8055 251.873 57.1868 252.064C57.5682 252.24 58.0228 252.328 58.5508 252.328C59.2842 252.328 59.8708 252.174 60.3108 251.866C60.7655 251.543 61.1028 251.067 61.3228 250.436H63.6988C63.5668 251.052 63.3395 251.602 63.0168 252.086C62.6942 252.57 62.3055 252.981 61.8508 253.318C61.3962 253.641 60.8828 253.883 60.3108 254.044C59.7535 254.22 59.1668 254.308 58.5508 254.308C57.6562 254.308 56.8642 254.161 56.1748 253.868C55.4855 253.575 54.8988 253.164 54.4148 252.636C53.9455 252.108 53.5862 251.477 53.3368 250.744C53.1022 250.011 52.9848 249.204 52.9848 248.324C52.9848 247.517 53.1095 246.755 53.3588 246.036C53.6228 245.303 53.9895 244.665 54.4588 244.122C54.9428 243.565 55.5222 243.125 56.1968 242.802C56.8715 242.479 57.6342 242.318 58.4848 242.318C59.3795 242.318 60.1788 242.509 60.8828 242.89C61.6015 243.257 62.1955 243.748 62.6648 244.364C63.1342 244.98 63.4715 245.691 63.6768 246.498C63.8968 247.29 63.9555 248.111 63.8528 248.962H55.4928ZM65.7595 242.626H68.1355V244.298L68.1795 244.342C68.5608 243.711 69.0595 243.22 69.6755 242.868C70.2915 242.501 70.9735 242.318 71.7215 242.318C72.9681 242.318 73.9508 242.641 74.6695 243.286C75.3881 243.931 75.7475 244.899 75.7475 246.19V254H73.2395V246.85C73.2101 245.955 73.0195 245.31 72.6675 244.914C72.3155 244.503 71.7655 244.298 71.0175 244.298C70.5921 244.298 70.2108 244.379 69.8735 244.54C69.5361 244.687 69.2501 244.899 69.0155 245.178C68.7808 245.442 68.5975 245.757 68.4655 246.124C68.3335 246.491 68.2675 246.879 68.2675 247.29V254H65.7595V242.626ZM86.0703 246.432C85.9676 245.728 85.6816 245.2 85.2123 244.848C84.7576 244.481 84.1783 244.298 83.4743 244.298C83.1516 244.298 82.8069 244.357 82.4403 244.474C82.0736 244.577 81.7363 244.782 81.4283 245.09C81.1203 245.383 80.8636 245.801 80.6583 246.344C80.4529 246.872 80.3503 247.569 80.3503 248.434C80.3503 248.903 80.4016 249.373 80.5043 249.842C80.6216 250.311 80.7976 250.729 81.0323 251.096C81.2816 251.463 81.5969 251.763 81.9783 251.998C82.3596 252.218 82.8216 252.328 83.3643 252.328C84.0976 252.328 84.6989 252.101 85.1683 251.646C85.6523 251.191 85.9529 250.553 86.0703 249.732H88.5783C88.3436 251.213 87.7789 252.35 86.8843 253.142C86.0043 253.919 84.8309 254.308 83.3643 254.308C82.4696 254.308 81.6776 254.161 80.9883 253.868C80.3136 253.56 79.7416 253.149 79.2723 252.636C78.8029 252.108 78.4436 251.485 78.1943 250.766C77.9596 250.047 77.8423 249.27 77.8423 248.434C77.8423 247.583 77.9596 246.784 78.1943 246.036C78.4289 245.288 78.7809 244.643 79.2503 244.1C79.7196 243.543 80.2989 243.11 80.9883 242.802C81.6923 242.479 82.5136 242.318 83.4523 242.318C84.1123 242.318 84.7356 242.406 85.3223 242.582C85.9236 242.743 86.4516 242.993 86.9063 243.33C87.3756 243.667 87.7569 244.093 88.0503 244.606C88.3436 245.119 88.5196 245.728 88.5783 246.432H86.0703ZM89.3629 242.626H92.1129L95.0829 251.118H95.1269L98.0089 242.626H100.627L96.2049 254.616C95.9995 255.129 95.7942 255.621 95.5889 256.09C95.3982 256.559 95.1562 256.97 94.8629 257.322C94.5842 257.689 94.2322 257.975 93.8069 258.18C93.3815 258.4 92.8389 258.51 92.1789 258.51C91.5922 258.51 91.0129 258.466 90.4409 258.378V256.266C90.6462 256.295 90.8442 256.325 91.0349 256.354C91.2255 256.398 91.4235 256.42 91.6289 256.42C91.9222 256.42 92.1642 256.383 92.3549 256.31C92.5455 256.237 92.6995 256.127 92.8169 255.98C92.9489 255.848 93.0589 255.687 93.1469 255.496C93.2349 255.305 93.3155 255.085 93.3889 254.836L93.6749 253.956L89.3629 242.626ZM108.5 238.292H115.43C116.545 238.292 117.454 238.453 118.158 238.776C118.862 239.099 119.405 239.502 119.786 239.986C120.167 240.47 120.424 240.998 120.556 241.57C120.703 242.142 120.776 242.67 120.776 243.154C120.776 243.638 120.703 244.166 120.556 244.738C120.424 245.295 120.167 245.816 119.786 246.3C119.405 246.784 118.862 247.187 118.158 247.51C117.454 247.818 116.545 247.972 115.43 247.972H111.25V254H108.5V238.292ZM111.25 245.728H115.276C115.584 245.728 115.899 245.684 116.222 245.596C116.545 245.508 116.838 245.369 117.102 245.178C117.381 244.973 117.601 244.709 117.762 244.386C117.938 244.049 118.026 243.631 118.026 243.132C118.026 242.619 117.953 242.193 117.806 241.856C117.659 241.519 117.461 241.255 117.212 241.064C116.963 240.859 116.677 240.719 116.354 240.646C116.031 240.573 115.687 240.536 115.32 240.536H111.25V245.728ZM128.036 254.308C127.127 254.308 126.313 254.161 125.594 253.868C124.89 253.56 124.289 253.142 123.79 252.614C123.306 252.086 122.932 251.455 122.668 250.722C122.419 249.989 122.294 249.182 122.294 248.302C122.294 247.437 122.419 246.637 122.668 245.904C122.932 245.171 123.306 244.54 123.79 244.012C124.289 243.484 124.89 243.073 125.594 242.78C126.313 242.472 127.127 242.318 128.036 242.318C128.945 242.318 129.752 242.472 130.456 242.78C131.175 243.073 131.776 243.484 132.26 244.012C132.759 244.54 133.133 245.171 133.382 245.904C133.646 246.637 133.778 247.437 133.778 248.302C133.778 249.182 133.646 249.989 133.382 250.722C133.133 251.455 132.759 252.086 132.26 252.614C131.776 253.142 131.175 253.56 130.456 253.868C129.752 254.161 128.945 254.308 128.036 254.308ZM128.036 252.328C128.593 252.328 129.077 252.211 129.488 251.976C129.899 251.741 130.236 251.433 130.5 251.052C130.764 250.671 130.955 250.245 131.072 249.776C131.204 249.292 131.27 248.801 131.27 248.302C131.27 247.818 131.204 247.334 131.072 246.85C130.955 246.366 130.764 245.941 130.5 245.574C130.236 245.193 129.899 244.885 129.488 244.65C129.077 244.415 128.593 244.298 128.036 244.298C127.479 244.298 126.995 244.415 126.584 244.65C126.173 244.885 125.836 245.193 125.572 245.574C125.308 245.941 125.11 246.366 124.978 246.85C124.861 247.334 124.802 247.818 124.802 248.302C124.802 248.801 124.861 249.292 124.978 249.776C125.11 250.245 125.308 250.671 125.572 251.052C125.836 251.433 126.173 251.741 126.584 251.976C126.995 252.211 127.479 252.328 128.036 252.328ZM135.863 242.626H138.217V244.826H138.261C138.334 244.518 138.474 244.217 138.679 243.924C138.899 243.631 139.156 243.367 139.449 243.132C139.757 242.883 140.094 242.685 140.461 242.538C140.828 242.391 141.202 242.318 141.583 242.318C141.876 242.318 142.074 242.325 142.177 242.34C142.294 242.355 142.412 242.369 142.529 242.384V244.804C142.353 244.775 142.17 244.753 141.979 244.738C141.803 244.709 141.627 244.694 141.451 244.694C141.026 244.694 140.622 244.782 140.241 244.958C139.874 245.119 139.552 245.369 139.273 245.706C138.994 246.029 138.774 246.432 138.613 246.916C138.452 247.4 138.371 247.957 138.371 248.588V254H135.863V242.626ZM142.453 242.626H144.345V239.216H146.853V242.626H149.119V244.496H146.853V250.568C146.853 250.832 146.861 251.059 146.875 251.25C146.905 251.441 146.956 251.602 147.029 251.734C147.117 251.866 147.242 251.969 147.403 252.042C147.565 252.101 147.785 252.13 148.063 252.13C148.239 252.13 148.415 252.13 148.591 252.13C148.767 252.115 148.943 252.086 149.119 252.042V253.978C148.841 254.007 148.569 254.037 148.305 254.066C148.041 254.095 147.77 254.11 147.491 254.11C146.831 254.11 146.296 254.051 145.885 253.934C145.489 253.802 145.174 253.619 144.939 253.384C144.719 253.135 144.565 252.827 144.477 252.46C144.404 252.093 144.36 251.675 144.345 251.206V244.496H142.453V242.626ZM160.45 251.47C160.45 251.778 160.486 251.998 160.56 252.13C160.648 252.262 160.809 252.328 161.044 252.328C161.117 252.328 161.205 252.328 161.308 252.328C161.41 252.328 161.528 252.313 161.66 252.284V254.022C161.572 254.051 161.454 254.081 161.308 254.11C161.176 254.154 161.036 254.191 160.89 254.22C160.743 254.249 160.596 254.271 160.45 254.286C160.303 254.301 160.178 254.308 160.076 254.308C159.562 254.308 159.137 254.205 158.8 254C158.462 253.795 158.242 253.435 158.14 252.922C157.641 253.406 157.025 253.758 156.292 253.978C155.573 254.198 154.876 254.308 154.202 254.308C153.688 254.308 153.197 254.235 152.728 254.088C152.258 253.956 151.84 253.758 151.474 253.494C151.122 253.215 150.836 252.871 150.616 252.46C150.41 252.035 150.308 251.543 150.308 250.986C150.308 250.282 150.432 249.71 150.682 249.27C150.946 248.83 151.283 248.485 151.694 248.236C152.119 247.987 152.588 247.811 153.102 247.708C153.63 247.591 154.158 247.503 154.686 247.444C155.14 247.356 155.573 247.297 155.984 247.268C156.394 247.224 156.754 247.158 157.062 247.07C157.384 246.982 157.634 246.85 157.81 246.674C158 246.483 158.096 246.205 158.096 245.838C158.096 245.515 158.015 245.251 157.854 245.046C157.707 244.841 157.516 244.687 157.282 244.584C157.062 244.467 156.812 244.393 156.534 244.364C156.255 244.32 155.991 244.298 155.742 244.298C155.038 244.298 154.458 244.445 154.004 244.738C153.549 245.031 153.292 245.486 153.234 246.102H150.726C150.77 245.369 150.946 244.76 151.254 244.276C151.562 243.792 151.95 243.403 152.42 243.11C152.904 242.817 153.446 242.611 154.048 242.494C154.649 242.377 155.265 242.318 155.896 242.318C156.453 242.318 157.003 242.377 157.546 242.494C158.088 242.611 158.572 242.802 158.998 243.066C159.438 243.33 159.79 243.675 160.054 244.1C160.318 244.511 160.45 245.017 160.45 245.618V251.47ZM157.942 248.302C157.56 248.551 157.091 248.705 156.534 248.764C155.976 248.808 155.419 248.881 154.862 248.984C154.598 249.028 154.341 249.094 154.092 249.182C153.842 249.255 153.622 249.365 153.432 249.512C153.241 249.644 153.087 249.827 152.97 250.062C152.867 250.282 152.816 250.553 152.816 250.876C152.816 251.155 152.896 251.389 153.058 251.58C153.219 251.771 153.41 251.925 153.63 252.042C153.864 252.145 154.114 252.218 154.378 252.262C154.656 252.306 154.906 252.328 155.126 252.328C155.404 252.328 155.705 252.291 156.028 252.218C156.35 252.145 156.651 252.02 156.93 251.844C157.223 251.668 157.465 251.448 157.656 251.184C157.846 250.905 157.942 250.568 157.942 250.172V248.302ZM163.214 238.292H165.722V254H163.214V238.292ZM26.172 265.292H28.922V281H26.172V265.292ZM31.943 269.626H34.319V271.298L34.363 271.342C34.7444 270.711 35.243 270.22 35.859 269.868C36.475 269.501 37.157 269.318 37.905 269.318C39.1517 269.318 40.1344 269.641 40.853 270.286C41.5717 270.931 41.931 271.899 41.931 273.19V281H39.423V273.85C39.3937 272.955 39.203 272.31 38.851 271.914C38.499 271.503 37.949 271.298 37.201 271.298C36.7757 271.298 36.3944 271.379 36.057 271.54C35.7197 271.687 35.4337 271.899 35.199 272.178C34.9644 272.442 34.781 272.757 34.649 273.124C34.517 273.491 34.451 273.879 34.451 274.29V281H31.943V269.626ZM43.4319 269.626H45.3239V266.216H47.8319V269.626H50.0979V271.496H47.8319V277.568C47.8319 277.832 47.8392 278.059 47.8539 278.25C47.8832 278.441 47.9345 278.602 48.0079 278.734C48.0959 278.866 48.2205 278.969 48.3819 279.042C48.5432 279.101 48.7632 279.13 49.0419 279.13C49.2179 279.13 49.3939 279.13 49.5699 279.13C49.7459 279.115 49.9219 279.086 50.0979 279.042V280.978C49.8192 281.007 49.5479 281.037 49.2839 281.066C49.0199 281.095 48.7485 281.11 48.4699 281.11C47.8099 281.11 47.2745 281.051 46.8639 280.934C46.4679 280.802 46.1525 280.619 45.9179 280.384C45.6979 280.135 45.5439 279.827 45.4559 279.46C45.3825 279.093 45.3385 278.675 45.3239 278.206V271.496H43.4319V269.626ZM59.712 274.312C59.6827 273.916 59.5947 273.535 59.448 273.168C59.316 272.801 59.1254 272.486 58.876 272.222C58.6414 271.943 58.348 271.723 57.996 271.562C57.6587 271.386 57.2774 271.298 56.852 271.298C56.412 271.298 56.0087 271.379 55.642 271.54C55.29 271.687 54.982 271.899 54.718 272.178C54.4687 272.442 54.2634 272.757 54.102 273.124C53.9554 273.491 53.8747 273.887 53.86 274.312H59.712ZM53.86 275.962C53.86 276.402 53.9187 276.827 54.036 277.238C54.168 277.649 54.3587 278.008 54.608 278.316C54.8574 278.624 55.1727 278.873 55.554 279.064C55.9354 279.24 56.39 279.328 56.918 279.328C57.6514 279.328 58.238 279.174 58.678 278.866C59.1327 278.543 59.47 278.067 59.69 277.436H62.066C61.934 278.052 61.7067 278.602 61.384 279.086C61.0614 279.57 60.6727 279.981 60.218 280.318C59.7634 280.641 59.25 280.883 58.678 281.044C58.1207 281.22 57.534 281.308 56.918 281.308C56.0234 281.308 55.2314 281.161 54.542 280.868C53.8527 280.575 53.266 280.164 52.782 279.636C52.3127 279.108 51.9534 278.477 51.704 277.744C51.4694 277.011 51.352 276.204 51.352 275.324C51.352 274.517 51.4767 273.755 51.726 273.036C51.99 272.303 52.3567 271.665 52.826 271.122C53.31 270.565 53.8894 270.125 54.564 269.802C55.2387 269.479 56.0014 269.318 56.852 269.318C57.7467 269.318 58.546 269.509 59.25 269.89C59.9687 270.257 60.5627 270.748 61.032 271.364C61.5014 271.98 61.8387 272.691 62.044 273.498C62.264 274.29 62.3227 275.111 62.22 275.962H53.86ZM74.6426 280.406C74.6426 282.122 74.1586 283.398 73.1906 284.234C72.2373 285.085 70.8586 285.51 69.0546 285.51C68.4826 285.51 67.9033 285.451 67.3166 285.334C66.7446 285.217 66.2166 285.019 65.7326 284.74C65.2633 284.461 64.8673 284.095 64.5446 283.64C64.222 283.185 64.0313 282.628 63.9726 281.968H66.4806C66.554 282.32 66.6786 282.606 66.8546 282.826C67.0306 283.046 67.236 283.215 67.4706 283.332C67.72 283.464 67.9913 283.545 68.2846 283.574C68.578 283.618 68.886 283.64 69.2086 283.64C70.2206 283.64 70.9613 283.391 71.4306 282.892C71.9 282.393 72.1346 281.675 72.1346 280.736V278.998H72.0906C71.7386 279.629 71.2546 280.12 70.6386 280.472C70.0373 280.824 69.3846 281 68.6806 281C67.7713 281 66.994 280.846 66.3486 280.538C65.718 280.215 65.19 279.783 64.7646 279.24C64.354 278.683 64.0533 278.045 63.8626 277.326C63.672 276.607 63.5766 275.837 63.5766 275.016C63.5766 274.253 63.694 273.527 63.9286 272.838C64.1633 272.149 64.5006 271.547 64.9406 271.034C65.3806 270.506 65.916 270.088 66.5466 269.78C67.192 269.472 67.918 269.318 68.7246 269.318C69.4433 269.318 70.1033 269.472 70.7046 269.78C71.306 270.073 71.768 270.543 72.0906 271.188H72.1346V269.626H74.6426V280.406ZM69.0766 279.02C69.634 279.02 70.1033 278.91 70.4846 278.69C70.8806 278.455 71.196 278.155 71.4306 277.788C71.68 277.407 71.856 276.981 71.9586 276.512C72.076 276.028 72.1346 275.544 72.1346 275.06C72.1346 274.576 72.076 274.107 71.9586 273.652C71.8413 273.197 71.658 272.794 71.4086 272.442C71.174 272.09 70.8586 271.811 70.4626 271.606C70.0813 271.401 69.6193 271.298 69.0766 271.298C68.5193 271.298 68.05 271.415 67.6686 271.65C67.2873 271.885 66.9793 272.193 66.7446 272.574C66.51 272.941 66.3413 273.366 66.2386 273.85C66.136 274.319 66.0846 274.789 66.0846 275.258C66.0846 275.727 66.1433 276.189 66.2606 276.644C66.378 277.084 66.554 277.48 66.7886 277.832C67.038 278.184 67.346 278.47 67.7126 278.69C68.094 278.91 68.5486 279.02 69.0766 279.02ZM77.1677 269.626H79.5217V271.826H79.5657C79.639 271.518 79.7783 271.217 79.9837 270.924C80.2037 270.631 80.4603 270.367 80.7537 270.132C81.0617 269.883 81.399 269.685 81.7657 269.538C82.1323 269.391 82.5063 269.318 82.8877 269.318C83.181 269.318 83.379 269.325 83.4817 269.34C83.599 269.355 83.7163 269.369 83.8337 269.384V271.804C83.6577 271.775 83.4743 271.753 83.2837 271.738C83.1077 271.709 82.9317 271.694 82.7557 271.694C82.3303 271.694 81.927 271.782 81.5457 271.958C81.179 272.119 80.8563 272.369 80.5777 272.706C80.299 273.029 80.079 273.432 79.9177 273.916C79.7563 274.4 79.6757 274.957 79.6757 275.588V281H77.1677V269.626ZM94.428 278.47C94.428 278.778 94.4647 278.998 94.538 279.13C94.626 279.262 94.7874 279.328 95.022 279.328C95.0954 279.328 95.1834 279.328 95.286 279.328C95.3887 279.328 95.506 279.313 95.638 279.284V281.022C95.55 281.051 95.4327 281.081 95.286 281.11C95.154 281.154 95.0147 281.191 94.868 281.22C94.7214 281.249 94.5747 281.271 94.428 281.286C94.2814 281.301 94.1567 281.308 94.054 281.308C93.5407 281.308 93.1154 281.205 92.778 281C92.4407 280.795 92.2207 280.435 92.118 279.922C91.6194 280.406 91.0034 280.758 90.27 280.978C89.5514 281.198 88.8547 281.308 88.18 281.308C87.6667 281.308 87.1754 281.235 86.706 281.088C86.2367 280.956 85.8187 280.758 85.452 280.494C85.1 280.215 84.814 279.871 84.594 279.46C84.3887 279.035 84.286 278.543 84.286 277.986C84.286 277.282 84.4107 276.71 84.66 276.27C84.924 275.83 85.2614 275.485 85.672 275.236C86.0974 274.987 86.5667 274.811 87.08 274.708C87.608 274.591 88.136 274.503 88.664 274.444C89.1187 274.356 89.5514 274.297 89.962 274.268C90.3727 274.224 90.732 274.158 91.04 274.07C91.3627 273.982 91.612 273.85 91.788 273.674C91.9787 273.483 92.074 273.205 92.074 272.838C92.074 272.515 91.9934 272.251 91.832 272.046C91.6854 271.841 91.4947 271.687 91.26 271.584C91.04 271.467 90.7907 271.393 90.512 271.364C90.2334 271.32 89.9694 271.298 89.72 271.298C89.016 271.298 88.4367 271.445 87.982 271.738C87.5274 272.031 87.2707 272.486 87.212 273.102H84.704C84.748 272.369 84.924 271.76 85.232 271.276C85.54 270.792 85.9287 270.403 86.398 270.11C86.882 269.817 87.4247 269.611 88.026 269.494C88.6274 269.377 89.2434 269.318 89.874 269.318C90.4314 269.318 90.9814 269.377 91.524 269.494C92.0667 269.611 92.5507 269.802 92.976 270.066C93.416 270.33 93.768 270.675 94.032 271.1C94.296 271.511 94.428 272.017 94.428 272.618V278.47ZM91.92 275.302C91.5387 275.551 91.0694 275.705 90.512 275.764C89.9547 275.808 89.3974 275.881 88.84 275.984C88.576 276.028 88.3194 276.094 88.07 276.182C87.8207 276.255 87.6007 276.365 87.41 276.512C87.2194 276.644 87.0654 276.827 86.948 277.062C86.8454 277.282 86.794 277.553 86.794 277.876C86.794 278.155 86.8747 278.389 87.036 278.58C87.1974 278.771 87.388 278.925 87.608 279.042C87.8427 279.145 88.092 279.218 88.356 279.262C88.6347 279.306 88.884 279.328 89.104 279.328C89.3827 279.328 89.6834 279.291 90.006 279.218C90.3287 279.145 90.6294 279.02 90.908 278.844C91.2014 278.668 91.4434 278.448 91.634 278.184C91.8247 277.905 91.92 277.568 91.92 277.172V275.302ZM95.9826 269.626H97.8746V266.216H100.383V269.626H102.649V271.496H100.383V277.568C100.383 277.832 100.39 278.059 100.405 278.25C100.434 278.441 100.485 278.602 100.559 278.734C100.647 278.866 100.771 278.969 100.933 279.042C101.094 279.101 101.314 279.13 101.593 279.13C101.769 279.13 101.945 279.13 102.121 279.13C102.297 279.115 102.473 279.086 102.649 279.042V280.978C102.37 281.007 102.099 281.037 101.835 281.066C101.571 281.095 101.299 281.11 101.021 281.11C100.361 281.11 99.8253 281.051 99.4146 280.934C99.0186 280.802 98.7033 280.619 98.4686 280.384C98.2486 280.135 98.0946 279.827 98.0066 279.46C97.9333 279.093 97.8893 278.675 97.8746 278.206V271.496H95.9826V269.626ZM104.519 265.292H107.027V267.668H104.519V265.292ZM104.519 269.626H107.027V281H104.519V269.626ZM114.973 281.308C114.064 281.308 113.25 281.161 112.531 280.868C111.827 280.56 111.226 280.142 110.727 279.614C110.243 279.086 109.869 278.455 109.605 277.722C109.356 276.989 109.231 276.182 109.231 275.302C109.231 274.437 109.356 273.637 109.605 272.904C109.869 272.171 110.243 271.54 110.727 271.012C111.226 270.484 111.827 270.073 112.531 269.78C113.25 269.472 114.064 269.318 114.973 269.318C115.883 269.318 116.689 269.472 117.393 269.78C118.112 270.073 118.713 270.484 119.197 271.012C119.696 271.54 120.07 272.171 120.319 272.904C120.583 273.637 120.715 274.437 120.715 275.302C120.715 276.182 120.583 276.989 120.319 277.722C120.07 278.455 119.696 279.086 119.197 279.614C118.713 280.142 118.112 280.56 117.393 280.868C116.689 281.161 115.883 281.308 114.973 281.308ZM114.973 279.328C115.531 279.328 116.015 279.211 116.425 278.976C116.836 278.741 117.173 278.433 117.437 278.052C117.701 277.671 117.892 277.245 118.009 276.776C118.141 276.292 118.207 275.801 118.207 275.302C118.207 274.818 118.141 274.334 118.009 273.85C117.892 273.366 117.701 272.941 117.437 272.574C117.173 272.193 116.836 271.885 116.425 271.65C116.015 271.415 115.531 271.298 114.973 271.298C114.416 271.298 113.932 271.415 113.521 271.65C113.111 271.885 112.773 272.193 112.509 272.574C112.245 272.941 112.047 273.366 111.915 273.85C111.798 274.334 111.739 274.818 111.739 275.302C111.739 275.801 111.798 276.292 111.915 276.776C112.047 277.245 112.245 277.671 112.509 278.052C112.773 278.433 113.111 278.741 113.521 278.976C113.932 279.211 114.416 279.328 114.973 279.328ZM122.8 269.626H125.176V271.298L125.22 271.342C125.602 270.711 126.1 270.22 126.716 269.868C127.332 269.501 128.014 269.318 128.762 269.318C130.009 269.318 130.992 269.641 131.71 270.286C132.429 270.931 132.788 271.899 132.788 273.19V281H130.28V273.85C130.251 272.955 130.06 272.31 129.708 271.914C129.356 271.503 128.806 271.298 128.058 271.298C127.633 271.298 127.252 271.379 126.914 271.54C126.577 271.687 126.291 271.899 126.056 272.178C125.822 272.442 125.638 272.757 125.506 273.124C125.374 273.491 125.308 273.879 125.308 274.29V281H122.8V269.626Z" fill="#19225F"/>
<path d="M25.892 220H24.724L28.932 208.544H30.356L34.612 220H33.412L32.292 216.96H27.012L25.892 220ZM29.492 210.16L27.364 215.952H31.924L29.78 210.16C29.7587 210.075 29.732 209.989 29.7 209.904C29.668 209.819 29.6467 209.749 29.636 209.696C29.6253 209.749 29.604 209.824 29.572 209.92C29.5507 210.005 29.524 210.085 29.492 210.16ZM35.374 215.904C35.374 215.2 35.518 214.56 35.806 213.984C36.094 213.397 36.51 212.928 37.054 212.576C37.598 212.224 38.2487 212.048 39.006 212.048C39.742 212.048 40.3713 212.229 40.894 212.592C41.4167 212.955 41.79 213.477 42.014 214.16L41.838 214.384L41.982 212.256H42.942V219.76C42.942 220.528 42.7873 221.195 42.478 221.76C42.1687 222.336 41.7313 222.779 41.166 223.088C40.6113 223.408 39.9553 223.568 39.198 223.568C38.206 223.568 37.3847 223.301 36.734 222.768C36.0833 222.235 35.678 221.504 35.518 220.576H36.622C36.7393 221.205 37.022 221.691 37.47 222.032C37.9287 222.384 38.51 222.56 39.214 222.56C40.014 222.56 40.654 222.315 41.134 221.824C41.614 221.333 41.854 220.683 41.854 219.872V217.44L42.014 217.648C41.79 218.299 41.4007 218.816 40.846 219.2C40.302 219.573 39.662 219.76 38.926 219.76C38.19 219.76 37.5553 219.584 37.022 219.232C36.4887 218.88 36.078 218.416 35.79 217.84C35.5127 217.253 35.374 216.608 35.374 215.904ZM36.478 215.888C36.478 216.421 36.5793 216.907 36.782 217.344C36.9953 217.781 37.294 218.128 37.678 218.384C38.0727 218.64 38.542 218.768 39.086 218.768C39.6407 218.768 40.1153 218.645 40.51 218.4C40.9153 218.144 41.2247 217.803 41.438 217.376C41.6513 216.939 41.758 216.443 41.758 215.888C41.758 215.333 41.6513 214.843 41.438 214.416C41.2353 213.989 40.9367 213.653 40.542 213.408C40.158 213.152 39.678 213.024 39.102 213.024C38.5473 213.024 38.0727 213.157 37.678 213.424C37.294 213.68 36.9953 214.027 36.782 214.464C36.5793 214.891 36.478 215.365 36.478 215.888ZM48.4938 220.192C47.7471 220.192 47.0858 220.021 46.5098 219.68C45.9444 219.339 45.5018 218.864 45.1818 218.256C44.8618 217.648 44.7018 216.939 44.7018 216.128C44.7018 215.328 44.8564 214.624 45.1658 214.016C45.4858 213.397 45.9231 212.917 46.4778 212.576C47.0324 212.224 47.6778 212.048 48.4138 212.048C49.1178 212.048 49.7311 212.203 50.2538 212.512C50.7871 212.821 51.1978 213.253 51.4858 213.808C51.7844 214.352 51.9338 214.992 51.9338 215.728V216.272H45.3098L45.3418 215.472H50.8298C50.8298 214.725 50.6058 214.128 50.1578 213.68C49.7204 213.221 49.1391 212.992 48.4138 212.992C47.8804 212.992 47.4111 213.115 47.0058 213.36C46.6111 213.605 46.3071 213.957 46.0938 214.416C45.8804 214.864 45.7738 215.397 45.7738 216.016C45.7738 217.04 46.0084 217.835 46.4778 218.4C46.9578 218.965 47.6351 219.248 48.5098 219.248C49.1391 219.248 49.6564 219.115 50.0618 218.848C50.4671 218.581 50.7391 218.192 50.8778 217.68H51.9338C51.7311 218.491 51.3364 219.115 50.7498 219.552C50.1631 219.979 49.4111 220.192 48.4938 220.192ZM54.8029 220H53.6989V212.256H54.6589L54.8189 213.6C55.0749 213.109 55.4375 212.731 55.9069 212.464C56.3869 212.187 56.9095 212.048 57.4749 212.048C58.5415 212.048 59.3095 212.341 59.7789 212.928C60.2482 213.515 60.4829 214.293 60.4829 215.264V220H59.3789V215.504C59.3789 214.597 59.1869 213.963 58.8029 213.6C58.4295 213.237 57.9229 213.056 57.2829 213.056C56.4935 213.056 55.8802 213.323 55.4429 213.856C55.0162 214.379 54.8029 215.077 54.8029 215.952V220ZM62.1393 216.144C62.1393 215.333 62.2939 214.624 62.6033 214.016C62.9233 213.397 63.3606 212.917 63.9153 212.576C64.4806 212.224 65.1366 212.048 65.8833 212.048C66.7793 212.048 67.5313 212.288 68.1393 212.768C68.7579 213.248 69.1419 213.888 69.2913 214.688H68.1873C68.0379 214.155 67.7553 213.744 67.3393 213.456C66.9233 213.168 66.4433 213.024 65.8993 213.024C65.3873 213.024 64.9286 213.152 64.5233 213.408C64.1179 213.664 63.7979 214.027 63.5633 214.496C63.3393 214.955 63.2273 215.499 63.2273 216.128C63.2273 216.747 63.3339 217.285 63.5473 217.744C63.7606 218.203 64.0593 218.56 64.4433 218.816C64.8379 219.072 65.2966 219.2 65.8193 219.2C66.4059 219.2 66.9126 219.056 67.3393 218.768C67.7659 218.469 68.0539 218.069 68.2033 217.568H69.3233C69.2059 218.091 68.9819 218.549 68.6513 218.944C68.3206 219.339 67.9099 219.648 67.4193 219.872C66.9393 220.085 66.4059 220.192 65.8193 220.192C65.0833 220.192 64.4379 220.027 63.8832 219.696C63.3393 219.355 62.9126 218.88 62.6033 218.272C62.2939 217.664 62.1393 216.955 62.1393 216.144ZM70.9995 212.256L73.9115 220.16L73.0955 220.8L69.8315 212.256H70.9995ZM70.0555 223.376V222.464H70.9035C71.1275 222.464 71.3462 222.443 71.5595 222.4C71.7835 222.368 71.9862 222.277 72.1675 222.128C72.3595 221.979 72.5142 221.728 72.6315 221.376L75.9435 212.256H77.0795L73.5275 221.776C73.3035 222.384 72.9995 222.821 72.6155 223.088C72.2422 223.355 71.7782 223.488 71.2235 223.488C70.9995 223.488 70.7915 223.477 70.5995 223.456C70.4075 223.445 70.2262 223.419 70.0555 223.376ZM82.3603 211.52C82.3603 210.88 82.5203 210.325 82.8403 209.856C83.1603 209.376 83.6083 209.003 84.1843 208.736C84.7603 208.469 85.4323 208.336 86.2003 208.336C86.8936 208.336 87.4963 208.459 88.0083 208.704C88.5309 208.949 88.9469 209.301 89.2563 209.76C89.5656 210.219 89.7469 210.768 89.8003 211.408H88.6323C88.5683 210.768 88.3229 210.272 87.8963 209.92C87.4696 209.557 86.8989 209.376 86.1843 209.376C85.3843 209.376 84.7389 209.568 84.2483 209.952C83.7576 210.336 83.5123 210.853 83.5123 211.504C83.5123 212.005 83.6616 212.421 83.9603 212.752C84.2589 213.072 84.7069 213.307 85.3043 213.456L87.2723 213.936C88.1683 214.149 88.8456 214.512 89.3043 215.024C89.7629 215.525 89.9923 216.165 89.9923 216.944C89.9923 217.595 89.8323 218.165 89.5123 218.656C89.1923 219.147 88.7389 219.525 88.1523 219.792C87.5656 220.059 86.8776 220.192 86.0883 220.192C85.3523 220.192 84.6963 220.069 84.1203 219.824C83.5549 219.579 83.1069 219.227 82.7763 218.768C82.4563 218.309 82.2696 217.771 82.2163 217.152H83.4003C83.4323 217.76 83.6936 218.245 84.1843 218.608C84.6749 218.96 85.3096 219.136 86.0883 219.136C86.9309 219.136 87.5976 218.944 88.0883 218.56C88.5896 218.176 88.8403 217.659 88.8403 217.008C88.8403 216.485 88.6909 216.064 88.3923 215.744C88.1043 215.413 87.6509 215.173 87.0323 215.024L85.0963 214.544C84.2003 214.331 83.5176 213.973 83.0483 213.472C82.5896 212.96 82.3603 212.309 82.3603 211.52ZM91.9839 212.256L94.8959 220.16L94.0799 220.8L90.8159 212.256H91.9839ZM91.0399 223.376V222.464H91.8879C92.1119 222.464 92.3305 222.443 92.5439 222.4C92.7679 222.368 92.9705 222.277 93.1519 222.128C93.3439 221.979 93.4985 221.728 93.6159 221.376L96.9279 212.256H98.0639L94.5119 221.776C94.2879 222.384 93.9839 222.821 93.5999 223.088C93.2265 223.355 92.7625 223.488 92.2079 223.488C91.9839 223.488 91.7759 223.477 91.5839 223.456C91.3919 223.445 91.2105 223.419 91.0399 223.376ZM100.459 220H99.3551V212.256H100.315L100.475 213.6C100.731 213.109 101.094 212.731 101.563 212.464C102.043 212.187 102.566 212.048 103.131 212.048C104.198 212.048 104.966 212.341 105.435 212.928C105.904 213.515 106.139 214.293 106.139 215.264V220H105.035V215.504C105.035 214.597 104.843 213.963 104.459 213.6C104.086 213.237 103.579 213.056 102.939 213.056C102.15 213.056 101.536 213.323 101.099 213.856C100.672 214.379 100.459 215.077 100.459 215.952V220ZM107.796 216.144C107.796 215.333 107.95 214.624 108.26 214.016C108.58 213.397 109.017 212.917 109.572 212.576C110.137 212.224 110.793 212.048 111.54 212.048C112.436 212.048 113.188 212.288 113.796 212.768C114.414 213.248 114.798 213.888 114.948 214.688H113.844C113.694 214.155 113.412 213.744 112.996 213.456C112.58 213.168 112.1 213.024 111.556 213.024C111.044 213.024 110.585 213.152 110.18 213.408C109.774 213.664 109.454 214.027 109.22 214.496C108.996 214.955 108.884 215.499 108.884 216.128C108.884 216.747 108.99 217.285 109.204 217.744C109.417 218.203 109.716 218.56 110.1 218.816C110.494 219.072 110.953 219.2 111.476 219.2C112.062 219.2 112.569 219.056 112.996 218.768C113.422 218.469 113.71 218.069 113.86 217.568H114.98C114.862 218.091 114.638 218.549 114.308 218.944C113.977 219.339 113.566 219.648 113.076 219.872C112.596 220.085 112.062 220.192 111.476 220.192C110.74 220.192 110.094 220.027 109.539 219.696C108.996 219.355 108.569 218.88 108.26 218.272C107.95 217.664 107.796 216.955 107.796 216.144Z" fill="#19225F"/>
<g filter="url(#filter1_d_89_1506)">
<rect x="61.0911" y="20" width="190.37" height="153.042" rx="7.46548" transform="rotate(7.35466 61.0911 20)" fill="white"/>
</g>
<path d="M74.8968 162.547L74.9396 162.215L76.3596 161.014C76.5262 160.873 76.6643 160.75 76.774 160.645C76.8838 160.538 76.9682 160.435 77.0271 160.337C77.0873 160.237 77.1249 160.13 77.1398 160.014C77.1569 159.882 77.1398 159.763 77.0885 159.658C77.0384 159.553 76.9622 159.467 76.8598 159.4C76.7574 159.333 76.6381 159.291 76.5019 159.273C76.3571 159.255 76.2269 159.269 76.1111 159.315C75.9968 159.36 75.9033 159.432 75.8306 159.531C75.7591 159.63 75.7141 159.752 75.6956 159.895L75.2613 159.839C75.2898 159.618 75.3657 159.431 75.4891 159.277C75.6125 159.124 75.7679 159.012 75.9554 158.941C76.1441 158.871 76.3483 158.849 76.5679 158.878C76.7888 158.906 76.9785 158.978 77.137 159.093C77.2955 159.209 77.413 159.352 77.4895 159.523C77.566 159.693 77.5918 159.876 77.5668 160.07C77.5489 160.208 77.5062 160.341 77.4388 160.467C77.3728 160.592 77.2679 160.727 77.1243 160.873C76.9821 161.018 76.7881 161.193 76.5422 161.397L75.5787 162.193L75.5749 162.223L77.327 162.449L77.2748 162.854L74.8968 162.547ZM79.2577 163.162C78.9804 163.126 78.7539 163.02 78.5783 162.844C78.4029 162.667 78.2822 162.427 78.2164 162.126C78.1507 161.823 78.1443 161.466 78.1972 161.057C78.2498 160.649 78.3462 160.308 78.4865 160.033C78.6281 159.757 78.8063 159.555 79.0211 159.428C79.2372 159.3 79.4827 159.254 79.7575 159.29C80.0324 159.325 80.2574 159.432 80.4327 159.611C80.6094 159.788 80.7306 160.028 80.7963 160.331C80.8634 160.633 80.8706 160.987 80.818 161.395C80.7651 161.805 80.6685 162.148 80.528 162.424C80.3877 162.699 80.2102 162.9 79.9955 163.027C79.7809 163.153 79.535 163.198 79.2577 163.162ZM79.31 162.757C79.5848 162.792 79.8154 162.688 80.0018 162.442C80.1881 162.197 80.313 161.829 80.3763 161.338C80.4184 161.011 80.4194 160.729 80.379 160.491C80.3399 160.252 80.2631 160.065 80.1486 159.928C80.0353 159.791 79.8878 159.71 79.7062 159.687C79.4338 159.652 79.2036 159.759 79.0155 160.008C78.8276 160.255 78.7021 160.624 78.6389 161.114C78.5968 161.44 78.5953 161.722 78.6346 161.959C78.6738 162.196 78.7502 162.382 78.8637 162.518C78.9784 162.654 79.1271 162.733 79.31 162.757ZM83.0858 159.771L82.5993 163.541L82.1429 163.482L82.5676 160.191L82.5456 160.188L81.5464 160.681L81.6063 160.217L82.6294 159.713L83.0858 159.771ZM85.3766 160.015C85.531 160.036 85.6818 160.085 85.829 160.163C85.9761 160.241 86.1049 160.355 86.2152 160.505C86.3257 160.654 86.4048 160.848 86.4525 161.087C86.5002 161.327 86.5017 161.619 86.457 161.966C86.4138 162.3 86.3435 162.594 86.2461 162.846C86.1501 163.097 86.0311 163.303 85.8891 163.466C85.7484 163.629 85.5874 163.745 85.4062 163.815C85.2262 163.886 85.0301 163.907 84.8178 163.88C84.6068 163.852 84.4238 163.786 84.269 163.681C84.1155 163.576 83.9956 163.441 83.9094 163.278C83.8246 163.113 83.7803 162.93 83.7765 162.727L84.2256 162.785C84.2438 162.963 84.3057 163.117 84.4113 163.245C84.5184 163.373 84.6713 163.449 84.8701 163.475C85.1609 163.512 85.4067 163.415 85.6076 163.183C85.8097 162.95 85.9407 162.602 86.0006 162.139L85.9711 162.135C85.8891 162.229 85.796 162.307 85.6919 162.37C85.5878 162.433 85.4754 162.477 85.3548 162.502C85.2343 162.528 85.109 162.532 84.9789 162.516C84.763 162.488 84.5717 162.409 84.4051 162.279C84.2399 162.148 84.1154 161.981 84.0317 161.78C83.9493 161.577 83.9238 161.354 83.9552 161.111C83.9849 160.881 84.0637 160.676 84.1915 160.498C84.3206 160.319 84.4865 160.184 84.6889 160.094C84.8926 160.005 85.1218 159.978 85.3766 160.015ZM85.3243 160.42C85.1697 160.4 85.0254 160.42 84.8915 160.482C84.759 160.542 84.6482 160.632 84.559 160.753C84.4712 160.873 84.4172 161.011 84.3969 161.168C84.3766 161.325 84.3925 161.473 84.4446 161.61C84.4981 161.747 84.58 161.861 84.6904 161.953C84.8023 162.043 84.9355 162.098 85.0901 162.118C85.2066 162.133 85.3181 162.125 85.4246 162.092C85.5313 162.059 85.6271 162.007 85.7123 161.937C85.7988 161.866 85.8701 161.782 85.9262 161.686C85.9825 161.588 86.0178 161.483 86.0322 161.372C86.0512 161.225 86.0334 161.082 85.9789 160.944C85.9256 160.806 85.8421 160.689 85.7285 160.593C85.6161 160.498 85.4813 160.44 85.3243 160.42Z" fill="#615E83"/>
<path d="M116.925 167.971L116.968 167.64L118.388 166.439C118.554 166.298 118.692 166.175 118.802 166.069C118.912 165.962 118.996 165.86 119.055 165.761C119.115 165.662 119.153 165.554 119.168 165.439C119.185 165.307 119.168 165.188 119.116 165.083C119.066 164.978 118.99 164.892 118.888 164.825C118.785 164.758 118.666 164.716 118.53 164.698C118.385 164.679 118.255 164.693 118.139 164.739C118.025 164.784 117.931 164.857 117.859 164.956C117.787 165.055 117.742 165.176 117.724 165.32L117.289 165.264C117.318 165.043 117.394 164.856 117.517 164.702C117.64 164.548 117.796 164.436 117.983 164.366C118.172 164.295 118.376 164.274 118.596 164.302C118.817 164.331 119.006 164.403 119.165 164.518C119.323 164.633 119.441 164.776 119.517 164.947C119.594 165.118 119.62 165.3 119.595 165.494C119.577 165.633 119.534 165.765 119.467 165.891C119.401 166.016 119.296 166.152 119.152 166.298C119.01 166.443 118.816 166.617 118.57 166.821L117.607 167.618L117.603 167.647L119.355 167.873L119.303 168.278L116.925 167.971ZM121.286 168.587C121.008 168.551 120.782 168.445 120.606 168.269C120.431 168.091 120.31 167.852 120.244 167.55C120.179 167.247 120.172 166.891 120.225 166.481C120.278 166.074 120.374 165.733 120.514 165.458C120.656 165.181 120.834 164.98 121.049 164.853C121.265 164.725 121.511 164.679 121.785 164.714C122.06 164.75 122.285 164.857 122.461 165.035C122.637 165.213 122.759 165.453 122.824 165.756C122.891 166.058 122.899 166.412 122.846 166.819C122.793 167.229 122.696 167.572 122.556 167.849C122.416 168.124 122.238 168.325 122.023 168.452C121.809 168.577 121.563 168.622 121.286 168.587ZM121.338 168.182C121.613 168.217 121.843 168.112 122.03 167.867C122.216 167.621 122.341 167.253 122.404 166.762C122.446 166.436 122.447 166.154 122.407 165.915C122.368 165.677 122.291 165.489 122.177 165.352C122.063 165.215 121.916 165.135 121.734 165.112C121.462 165.077 121.232 165.183 121.043 165.432C120.856 165.68 120.73 166.049 120.667 166.538C120.625 166.865 120.623 167.146 120.663 167.383C120.702 167.621 120.778 167.807 120.892 167.943C121.006 168.078 121.155 168.158 121.338 168.182ZM123.302 168.794L123.345 168.463L124.765 167.262C124.931 167.121 125.07 166.998 125.179 166.892C125.289 166.786 125.373 166.683 125.432 166.584C125.493 166.485 125.53 166.378 125.545 166.262C125.562 166.13 125.545 166.011 125.494 165.906C125.444 165.801 125.367 165.715 125.265 165.648C125.163 165.581 125.043 165.539 124.907 165.521C124.762 165.503 124.632 165.516 124.516 165.562C124.402 165.608 124.309 165.68 124.236 165.779C124.164 165.878 124.119 166 124.101 166.143L123.667 166.087C123.695 165.866 123.771 165.679 123.894 165.525C124.018 165.372 124.173 165.259 124.361 165.189C124.549 165.118 124.754 165.097 124.973 165.126C125.194 165.154 125.384 165.226 125.542 165.341C125.701 165.457 125.818 165.6 125.895 165.77C125.971 165.941 125.997 166.123 125.972 166.317C125.954 166.456 125.911 166.588 125.844 166.714C125.778 166.839 125.673 166.975 125.53 167.121C125.387 167.266 125.193 167.441 124.947 167.645L123.984 168.441L123.98 168.47L125.732 168.696L125.68 169.101L123.302 168.794ZM127.663 169.41C127.386 169.374 127.159 169.268 126.984 169.092C126.808 168.915 126.687 168.675 126.622 168.373C126.556 168.07 126.55 167.714 126.602 167.304C126.655 166.897 126.751 166.556 126.892 166.281C127.033 166.005 127.212 165.803 127.426 165.676C127.642 165.548 127.888 165.502 128.163 165.537C128.438 165.573 128.663 165.68 128.838 165.858C129.015 166.036 129.136 166.276 129.202 166.579C129.269 166.881 129.276 167.235 129.223 167.643C129.17 168.052 129.074 168.395 128.933 168.672C128.793 168.947 128.616 169.148 128.401 169.275C128.186 169.4 127.94 169.445 127.663 169.41ZM127.715 169.005C127.99 169.04 128.221 168.935 128.407 168.69C128.593 168.445 128.718 168.076 128.782 167.586C128.824 167.259 128.825 166.977 128.784 166.738C128.745 166.5 128.668 166.312 128.554 166.175C128.441 166.038 128.293 165.958 128.111 165.935C127.839 165.9 127.609 166.007 127.421 166.255C127.233 166.503 127.107 166.872 127.044 167.361C127.002 167.688 127.001 167.969 127.04 168.207C127.079 168.444 127.155 168.63 127.269 168.766C127.384 168.901 127.532 168.981 127.715 169.005Z" fill="#615E83"/>
<path d="M160.184 173.555L160.227 173.224L161.647 172.022C161.813 171.881 161.951 171.758 162.061 171.653C162.171 171.546 162.255 171.443 162.314 171.345C162.374 171.245 162.412 171.138 162.427 171.023C162.444 170.89 162.427 170.771 162.376 170.666C162.326 170.561 162.249 170.475 162.147 170.408C162.044 170.341 161.925 170.299 161.789 170.282C161.644 170.263 161.514 170.277 161.398 170.323C161.284 170.368 161.19 170.44 161.118 170.539C161.046 170.639 161.001 170.76 160.983 170.904L160.548 170.847C160.577 170.627 160.653 170.439 160.776 170.286C160.9 170.132 161.055 170.02 161.242 169.949C161.431 169.879 161.635 169.858 161.855 169.886C162.076 169.914 162.266 169.986 162.424 170.102C162.583 170.217 162.7 170.36 162.777 170.531C162.853 170.702 162.879 170.884 162.854 171.078C162.836 171.216 162.793 171.349 162.726 171.475C162.66 171.6 162.555 171.735 162.411 171.881C162.269 172.026 162.075 172.201 161.829 172.405L160.866 173.201L160.862 173.231L162.614 173.457L162.562 173.862L160.184 173.555ZM164.545 174.17C164.267 174.134 164.041 174.028 163.865 173.852C163.69 173.675 163.569 173.435 163.503 173.134C163.438 172.831 163.431 172.475 163.484 172.065C163.537 171.657 163.633 171.316 163.774 171.041C163.915 170.765 164.093 170.563 164.308 170.437C164.524 170.308 164.77 170.262 165.045 170.298C165.319 170.333 165.545 170.44 165.72 170.619C165.897 170.796 166.018 171.036 166.083 171.339C166.15 171.641 166.158 171.996 166.105 172.403C166.052 172.813 165.956 173.156 165.815 173.432C165.675 173.707 165.497 173.908 165.283 174.035C165.068 174.161 164.822 174.206 164.545 174.17ZM164.597 173.765C164.872 173.801 165.103 173.696 165.289 173.45C165.475 173.205 165.6 172.837 165.663 172.346C165.706 172.02 165.706 171.737 165.666 171.499C165.627 171.26 165.55 171.073 165.436 170.936C165.322 170.799 165.175 170.719 164.993 170.695C164.721 170.66 164.491 170.767 164.303 171.016C164.115 171.264 163.989 171.632 163.926 172.122C163.884 172.448 163.882 172.73 163.922 172.967C163.961 173.204 164.037 173.39 164.151 173.526C164.265 173.662 164.414 173.742 164.597 173.765ZM166.561 174.378L166.604 174.047L168.024 172.845C168.191 172.705 168.329 172.581 168.438 172.476C168.548 172.369 168.633 172.266 168.691 172.168C168.752 172.068 168.789 171.961 168.804 171.846C168.821 171.713 168.804 171.594 168.753 171.489C168.703 171.384 168.627 171.298 168.524 171.231C168.422 171.165 168.303 171.122 168.166 171.105C168.022 171.086 167.891 171.1 167.776 171.146C167.661 171.191 167.568 171.263 167.495 171.362C167.424 171.462 167.379 171.583 167.36 171.727L166.926 171.671C166.954 171.45 167.03 171.262 167.154 171.109C167.277 170.955 167.432 170.843 167.62 170.772C167.809 170.702 168.013 170.681 168.232 170.709C168.453 170.738 168.643 170.81 168.801 170.925C168.96 171.04 169.077 171.183 169.154 171.354C169.23 171.525 169.256 171.707 169.231 171.901C169.213 172.04 169.171 172.172 169.103 172.298C169.037 172.423 168.932 172.558 168.789 172.704C168.647 172.85 168.452 173.024 168.207 173.228L167.243 174.024L167.239 174.054L168.991 174.28L168.939 174.685L166.561 174.378ZM171.511 171.185L171.024 174.954L170.568 174.895L170.993 171.604L170.971 171.601L169.972 172.094L170.031 171.63L171.055 171.126L171.511 171.185Z" fill="#615E83"/>
<path d="M64.077 149.751C63.7997 149.716 63.5732 149.61 63.3976 149.434C63.2221 149.256 63.1015 149.017 63.0356 148.715C62.9699 148.412 62.9635 148.056 63.0164 147.646C63.069 147.239 63.1655 146.897 63.3057 146.622C63.4474 146.346 63.6256 146.145 63.8403 146.018C64.0565 145.89 64.3019 145.843 64.5768 145.879C64.8516 145.914 65.0767 146.021 65.252 146.2C65.4287 146.378 65.5499 146.618 65.6156 146.921C65.6826 147.222 65.6899 147.577 65.6373 147.984C65.5844 148.394 65.4877 148.737 65.3473 149.013C65.207 149.288 65.0295 149.489 64.8148 149.616C64.6002 149.742 64.3543 149.787 64.077 149.751ZM64.1292 149.346C64.4041 149.382 64.6347 149.277 64.821 149.032C65.0074 148.786 65.1322 148.418 65.1956 147.927C65.2377 147.601 65.2386 147.318 65.1983 147.08C65.1592 146.842 65.0824 146.654 64.9678 146.517C64.8545 146.38 64.7071 146.3 64.5255 146.277C64.2531 146.241 64.0229 146.348 63.8348 146.597C63.6469 146.845 63.5214 147.213 63.4582 147.703C63.416 148.029 63.4146 148.311 63.4539 148.548C63.4931 148.785 63.5695 148.972 63.6829 149.107C63.7976 149.243 63.9464 149.323 64.1292 149.346Z" fill="#615E83"/>
<path d="M63.4563 127.621L62.9698 131.391L62.5134 131.332L62.9381 128.041L62.916 128.038L61.9169 128.53L61.9768 128.067L62.9999 127.563L63.4563 127.621ZM64.6067 127.77L65.1514 127.84L66.0286 131.134L66.0727 131.14L67.7576 128.177L68.3024 128.247L67.8159 132.016L67.3889 131.961L67.7585 129.097L67.7217 129.093L66.1741 131.804L65.7619 131.751L64.9536 128.735L64.9168 128.731L64.5471 131.594L64.1201 131.539L64.6067 127.77Z" fill="#615E83"/>
<path d="M62.7171 111.338L62.7599 111.007L64.1798 109.806C64.3464 109.665 64.4846 109.542 64.5943 109.436C64.7041 109.329 64.7884 109.227 64.8473 109.128C64.9076 109.029 64.9451 108.921 64.96 108.806C64.9771 108.674 64.96 108.555 64.9087 108.45C64.8587 108.345 64.7824 108.259 64.68 108.192C64.5776 108.125 64.4583 108.083 64.3222 108.065C64.1774 108.046 64.0471 108.06 63.9314 108.106C63.817 108.151 63.7235 108.224 63.6508 108.323C63.5794 108.422 63.5344 108.544 63.5159 108.687L63.0815 108.631C63.11 108.41 63.186 108.223 63.3093 108.069C63.4327 107.915 63.5882 107.803 63.7757 107.733C63.9644 107.662 64.1686 107.641 64.3882 107.669C64.609 107.698 64.7987 107.77 64.9573 107.885C65.1158 108 65.2333 108.143 65.3098 108.314C65.3863 108.485 65.412 108.667 65.387 108.861C65.3691 109 65.3265 109.132 65.259 109.258C65.193 109.383 65.0882 109.519 64.9446 109.665C64.8024 109.81 64.6083 109.984 64.3624 110.188L63.3989 110.985L63.3951 111.014L65.1473 111.24L65.095 111.645L62.7171 111.338ZM66.4079 107.983L66.9527 108.053L67.8298 111.347L67.874 111.353L69.5589 108.389L70.1036 108.46L69.6171 112.229L69.1901 112.174L69.5598 109.31L69.523 109.305L67.9754 112.017L67.5631 111.964L66.7549 108.948L66.718 108.943L66.3484 111.807L65.9214 111.752L66.4079 107.983Z" fill="#615E83"/>
<path d="M65.9237 92.3348C65.6807 92.3035 65.4695 92.2338 65.2901 92.1258C65.1119 92.018 64.9766 91.8827 64.8841 91.7198C64.793 91.5558 64.7553 91.3744 64.771 91.1756L65.2348 91.2355C65.2289 91.3582 65.2571 91.4685 65.3193 91.5664C65.3817 91.663 65.4693 91.7429 65.5821 91.8061C65.695 91.8693 65.8238 91.9103 65.9686 91.929C66.1305 91.9499 66.2777 91.9402 66.4102 91.8999C66.5426 91.8596 66.6509 91.7938 66.7351 91.7023C66.8192 91.6109 66.8698 91.4989 66.8869 91.3664C66.9048 91.2278 66.8862 91.1012 66.8312 90.9869C66.7762 90.8712 66.6864 90.7748 66.5616 90.6976C66.4369 90.6204 66.2788 90.5694 66.0874 90.5447L65.7855 90.5057L65.8378 90.1008L66.1396 90.1398C66.2893 90.1591 66.4241 90.1491 66.544 90.1096C66.665 90.0704 66.7638 90.0058 66.8403 89.9159C66.918 89.8261 66.9654 89.715 66.9825 89.5824C66.999 89.4548 66.9851 89.3401 66.9408 89.2384C66.8966 89.1366 66.8263 89.0527 66.7301 88.9866C66.635 88.9207 66.5182 88.8788 66.3795 88.8609C66.2495 88.8441 66.1237 88.8522 66.0022 88.8852C65.882 88.9171 65.78 88.9732 65.6961 89.0534C65.6123 89.1324 65.5592 89.2341 65.5369 89.3584L65.0952 89.3014C65.1281 89.1048 65.2099 88.9395 65.3407 88.8054C65.4717 88.6702 65.6328 88.5724 65.8239 88.5123C66.0163 88.4523 66.221 88.4363 66.4382 88.4643C66.6713 88.4944 66.8652 88.5675 67.0199 88.6835C67.1748 88.7983 67.2871 88.9382 67.3568 89.1031C67.4266 89.268 67.45 89.4395 67.4271 89.6174C67.3997 89.8296 67.3205 90.0034 67.1895 90.1387C67.0597 90.2741 66.8961 90.3584 66.6984 90.3915L66.6946 90.421C66.9276 90.491 67.1004 90.6162 67.2131 90.7966C67.3259 90.9759 67.3669 91.1851 67.336 91.4244C67.3096 91.6293 67.23 91.8061 67.0973 91.9549C66.9659 92.1026 66.7985 92.2108 66.5951 92.2793C66.3917 92.3478 66.1678 92.3664 65.9237 92.3348ZM68.5095 88.7841L69.0543 88.8544L69.9314 92.1486L69.9756 92.1543L71.6604 89.1908L72.2052 89.2611L71.7187 93.0304L71.2917 92.9753L71.6613 90.1115L71.6245 90.1068L70.077 92.8185L69.6647 92.7653L68.8564 89.7495L68.8196 89.7447L68.45 92.6085L68.023 92.5534L68.5095 88.7841Z" fill="#615E83"/>
<path d="M68.2117 71.4925L68.2602 71.117L70.2549 68.7099L70.5273 68.7451L70.4523 69.3267L70.2682 69.3029L68.7611 71.1218L68.7573 71.1512L70.9879 71.4391L70.9357 71.844L68.2117 71.4925ZM69.8862 72.4945L70.0007 71.6073L70.0233 71.4325L70.3727 68.7251L70.8071 68.7812L70.3206 72.5505L69.8862 72.4945ZM72.0784 68.9453L72.6232 69.0156L73.5003 72.3098L73.5445 72.3155L75.2293 69.352L75.7741 69.4223L75.2876 73.1916L74.8606 73.1365L75.2303 70.2727L75.1934 70.268L73.6459 72.9797L73.2336 72.9265L72.4253 69.9107L72.3885 69.9059L72.0189 72.7697L71.5919 72.7146L72.0784 68.9453Z" fill="#615E83"/>
<line x1="71.5049" y1="150.763" x2="220.836" y2="170.038" stroke="#E5E5EF" stroke-width="0.559911" stroke-linecap="round"/>
<line x1="74.1182" y1="130.517" x2="223.449" y2="149.792" stroke="#E5E5EF" stroke-width="0.559911" stroke-linecap="round" stroke-dasharray="1.49 2.61"/>
<line x1="76.6597" y1="110.825" x2="225.991" y2="130.1" stroke="#E5E5EF" stroke-width="0.559911" stroke-linecap="round" stroke-dasharray="1.49 2.61"/>
<line x1="79.2014" y1="91.1332" x2="228.532" y2="110.408" stroke="#E5E5EF" stroke-width="0.559911" stroke-linecap="round" stroke-dasharray="1.49 2.61"/>
<line x1="81.709" y1="71.7076" x2="231.04" y2="90.9822" stroke="#E5E5EF" stroke-width="0.559911" stroke-linecap="round" stroke-dasharray="1.49 2.61"/>
<path d="M118.02 98.4647C118.363 95.8068 120.796 93.9302 123.454 94.2733L141.761 96.6363C144.419 96.9794 146.296 99.4122 145.953 102.07L138.634 158.768C138.608 158.973 138.421 159.117 138.216 159.091L110.654 155.533L118.02 98.4647Z" fill="#F2F1FF"/>
<rect x="166.985" y="82.3586" width="9.24017" height="79.793" rx="2.98619" transform="rotate(7.35466 166.985 82.3586)" fill="#4A3AFF"/>
<rect x="178.528" y="94.2725" width="9.24017" height="69.4544" rx="2.98619" transform="rotate(7.35466 178.528 94.2725)" fill="#C893FD"/>
<rect x="121.792" y="96.938" width="9.24017" height="59.5483" rx="2.98619" transform="rotate(7.35466 121.792 96.938)" fill="#4A3AFF"/>
<rect x="132.827" y="112.786" width="9.24017" height="45.2433" rx="2.98619" transform="rotate(7.35466 132.827 112.786)" fill="#C893FD"/>
<rect x="78.7871" y="94.5627" width="9.24017" height="56.3989" rx="2.98619" transform="rotate(7.35466 78.7871 94.5627)" fill="#4A3AFF"/>
<rect x="90.2136" y="107.375" width="9.24017" height="45.1554" rx="2.98619" transform="rotate(7.35466 90.2136 107.375)" fill="#C893FD"/>
<path d="M122.595 75.3439C122.938 72.6859 125.371 70.8094 128.029 71.1524L143.207 73.1115C145.865 73.4546 147.742 75.8874 147.398 78.5454L146.013 89.2812C145.67 91.9392 143.237 93.8158 140.579 93.4727L125.401 91.5136C122.743 91.1705 120.866 88.7377 121.209 86.0798L122.595 75.3439Z" fill="#1E1B39"/>
<rect x="126.156" y="82.7468" width="3.73274" height="3.73274" rx="1.86637" transform="rotate(7.35466 126.156 82.7468)" fill="#C893FD"/>
<path d="M131.257 86.6853L131.293 86.4013L132.51 85.3716C132.653 85.251 132.772 85.1455 132.866 85.055C132.96 84.9634 133.032 84.8754 133.083 84.7911C133.134 84.7058 133.166 84.6137 133.179 84.5148C133.194 84.4013 133.179 84.2994 133.135 84.2092C133.092 84.1192 133.027 84.0456 132.939 83.9883C132.851 83.931 132.749 83.8948 132.632 83.8797C132.508 83.8637 132.397 83.8755 132.298 83.9151C132.2 83.9537 132.119 84.0156 132.057 84.1006C131.996 84.1857 131.957 84.2898 131.941 84.4128L131.569 84.3648C131.594 84.1754 131.659 84.0149 131.764 83.8831C131.87 83.7514 132.003 83.6552 132.164 83.5947C132.326 83.5343 132.501 83.5163 132.689 83.5406C132.878 83.565 133.041 83.6266 133.177 83.7254C133.313 83.8242 133.413 83.9468 133.479 84.0932C133.545 84.2396 133.567 84.3959 133.545 84.5621C133.53 84.6809 133.493 84.7944 133.436 84.9024C133.379 85.0095 133.289 85.1257 133.166 85.2509C133.044 85.3752 132.878 85.5249 132.667 85.6997L131.841 86.3822L131.838 86.4075L133.34 86.6013L133.295 86.9484L131.257 86.6853ZM134.221 87.0936C134.143 87.0835 134.08 87.047 134.031 86.9841C133.983 86.9212 133.964 86.8508 133.974 86.7729C133.984 86.6951 134.02 86.6319 134.083 86.5834C134.146 86.5348 134.216 86.5156 134.294 86.5256C134.372 86.5357 134.435 86.5722 134.484 86.6351C134.532 86.698 134.552 86.7684 134.541 86.8462C134.535 86.8978 134.516 86.9434 134.484 86.9831C134.453 87.023 134.414 87.0533 134.368 87.074C134.322 87.0938 134.273 87.1003 134.221 87.0936ZM136.134 87.3598C135.926 87.3329 135.745 87.2732 135.591 87.1806C135.439 87.0882 135.323 86.9722 135.243 86.8326C135.165 86.6921 135.133 86.5366 135.146 86.3662L135.544 86.4175C135.539 86.5227 135.563 86.6172 135.616 86.7011C135.67 86.7839 135.745 86.8524 135.842 86.9066C135.938 86.9608 136.049 86.9959 136.173 87.0119C136.312 87.0298 136.438 87.0215 136.551 86.987C136.665 86.9525 136.758 86.896 136.83 86.8176C136.902 86.7393 136.945 86.6433 136.96 86.5297C136.975 86.4109 136.959 86.3024 136.912 86.2044C136.865 86.1053 136.788 86.0226 136.681 85.9564C136.574 85.8902 136.439 85.8465 136.275 85.8254L136.016 85.792L136.061 85.4449L136.319 85.4783C136.448 85.4949 136.563 85.4863 136.666 85.4525C136.77 85.4188 136.855 85.3635 136.92 85.2864C136.987 85.2094 137.027 85.1142 137.042 85.0006C137.056 84.8912 137.044 84.7929 137.006 84.7057C136.968 84.6185 136.908 84.5465 136.826 84.4899C136.744 84.4334 136.644 84.3975 136.525 84.3822C136.414 84.3678 136.306 84.3747 136.202 84.403C136.099 84.4303 136.011 84.4783 135.939 84.5471C135.867 84.6148 135.822 84.702 135.803 84.8086L135.424 84.7597C135.452 84.5912 135.523 84.4495 135.635 84.3346C135.747 84.2186 135.885 84.1349 136.049 84.0833C136.214 84.0319 136.389 84.0182 136.575 84.0422C136.775 84.068 136.941 84.1306 137.074 84.2301C137.207 84.3285 137.303 84.4483 137.363 84.5897C137.423 84.7311 137.443 84.878 137.423 85.0305C137.4 85.2125 137.332 85.3614 137.219 85.4774C137.108 85.5935 136.968 85.6657 136.798 85.6941L136.795 85.7193C136.995 85.7793 137.143 85.8867 137.24 86.0413C137.336 86.195 137.371 86.3743 137.345 86.5794C137.322 86.755 137.254 86.9066 137.14 87.0341C137.028 87.1607 136.884 87.2534 136.71 87.3122C136.536 87.3709 136.344 87.3868 136.134 87.3598ZM138.351 84.3163L138.818 84.3765L139.57 87.2001L139.607 87.205L141.052 84.6649L141.519 84.7251L141.102 87.956L140.736 87.9088L141.052 85.4541L141.021 85.45L139.694 87.7744L139.341 87.7288L138.648 85.1437L138.617 85.1397L138.3 87.5944L137.934 87.5471L138.351 84.3163Z" fill="white"/>
<rect x="127.017" y="76.0835" width="3.73274" height="3.73274" rx="1.86637" transform="rotate(7.35466 127.017 76.0835)" fill="#4A3AFF"/>
<path d="M133.198 80.2464C132.99 80.2195 132.809 80.1598 132.655 80.0672C132.503 79.9748 132.387 79.8588 132.307 79.7192C132.229 79.5786 132.197 79.4232 132.21 79.2528L132.608 79.3041C132.603 79.4093 132.627 79.5038 132.68 79.5877C132.734 79.6705 132.809 79.739 132.906 79.7932C133.002 79.8474 133.113 79.8825 133.237 79.8985C133.376 79.9164 133.502 79.9081 133.615 79.8736C133.729 79.839 133.822 79.7826 133.894 79.7042C133.966 79.6258 134.009 79.5299 134.024 79.4163C134.039 79.2974 134.023 79.189 133.976 79.0909C133.929 78.9918 133.852 78.9092 133.745 78.843C133.638 78.7768 133.503 78.7331 133.339 78.7119L133.08 78.6786L133.125 78.3315L133.384 78.3649C133.512 78.3814 133.627 78.3728 133.73 78.339C133.834 78.3054 133.919 78.25 133.984 78.1729C134.051 78.096 134.091 78.0007 134.106 77.8872C134.12 77.7778 134.108 77.6795 134.07 77.5923C134.032 77.505 133.972 77.4331 133.89 77.3765C133.808 77.32 133.708 77.2841 133.589 77.2687C133.478 77.2543 133.37 77.2613 133.266 77.2895C133.163 77.3169 133.075 77.3649 133.003 77.4337C132.931 77.5014 132.886 77.5886 132.867 77.6952L132.488 77.6463C132.516 77.4778 132.587 77.3361 132.699 77.2212C132.811 77.1052 132.949 77.0214 133.113 76.9699C133.278 76.9185 133.453 76.9048 133.639 76.9288C133.839 76.9546 134.005 77.0172 134.138 77.1166C134.271 77.215 134.367 77.3349 134.427 77.4763C134.487 77.6177 134.507 77.7646 134.487 77.9171C134.464 78.099 134.396 78.248 134.283 78.3639C134.172 78.48 134.032 78.5523 133.862 78.5807L133.859 78.6059C134.059 78.6659 134.207 78.7732 134.304 78.9279C134.4 79.0815 134.435 79.2609 134.409 79.466C134.386 79.6416 134.318 79.7932 134.204 79.9207C134.092 80.0473 133.948 80.14 133.774 80.1988C133.6 80.2575 133.408 80.2734 133.198 80.2464ZM135.116 80.4746C135.038 80.4645 134.975 80.428 134.926 80.3651C134.878 80.3022 134.858 80.2318 134.868 80.154C134.878 80.0761 134.915 80.0129 134.978 79.9644C135.041 79.9159 135.111 79.8966 135.189 79.9067C135.267 79.9167 135.33 79.9532 135.378 80.0161C135.427 80.0791 135.446 80.1494 135.436 80.2273C135.43 80.2788 135.41 80.3244 135.378 80.3642C135.348 80.404 135.309 80.4343 135.263 80.455C135.217 80.4749 135.168 80.4814 135.116 80.4746ZM137.231 77.4373L136.814 80.6682L136.423 80.6177L136.787 77.797L136.768 77.7945L135.912 78.2165L135.963 77.8189L136.84 77.3868L137.231 77.4373ZM138.217 77.5646L138.684 77.6249L139.436 80.4484L139.474 80.4533L140.918 77.9132L141.385 77.9735L140.968 81.2043L140.602 81.1571L140.919 78.7024L140.887 78.6983L139.561 81.0227L139.208 80.9771L138.515 78.3921L138.483 78.388L138.166 80.8427L137.8 80.7954L138.217 77.5646Z" fill="white"/>
<line x1="68.2998" y1="60.6374" x2="232.503" y2="81.8316" stroke="#E5E5EF" stroke-width="0.373274"/>
<path d="M71.9902 44.5278L72.8409 49.2128L72.8959 49.2199L74.9113 44.9048L76.2996 45.084L73.4931 50.7437L71.8793 50.5354L70.599 44.3482L71.9902 44.5278ZM76.2248 51.0963L76.7982 46.6538L78.0303 46.8129L77.4569 51.2553L76.2248 51.0963ZM77.4911 46.1611C77.3079 46.1374 77.1586 46.0564 77.0432 45.918C76.9299 45.7779 76.8843 45.6221 76.9065 45.4505C76.9284 45.2808 77.0118 45.1436 77.1566 45.0388C77.3037 44.9323 77.4688 44.8909 77.652 44.9145C77.8351 44.9382 77.9834 45.02 78.0966 45.1601C78.212 45.2985 78.2588 45.4525 78.2369 45.6222C78.2148 45.7938 78.1302 45.9329 77.9831 46.0393C77.8383 46.1441 77.6742 46.1847 77.4911 46.1611ZM80.4572 51.7308C80.0002 51.6718 79.6189 51.5285 79.313 51.3008C79.0094 51.0715 78.7909 50.7747 78.6576 50.4105C78.5245 50.0444 78.4882 49.6271 78.5486 49.1586C78.6076 48.7016 78.7481 48.312 78.97 47.9898C79.192 47.6675 79.4764 47.4308 79.8233 47.2795C80.1721 47.1285 80.5644 47.0811 81.0001 47.1374C81.2932 47.1752 81.5599 47.2577 81.8003 47.3847C82.0429 47.5101 82.2466 47.6786 82.4114 47.89C82.5781 48.1016 82.6962 48.356 82.7657 48.6532C82.8354 48.9484 82.8459 49.2849 82.7971 49.6628L82.7534 50.0012L79.0022 49.517L79.1008 48.7535L81.6922 49.088C81.7151 48.9106 81.6968 48.7485 81.6374 48.6016C81.5779 48.4548 81.4847 48.3339 81.3578 48.2391C81.233 48.1427 81.081 48.0829 80.9016 48.0597C80.7146 48.0356 80.5432 48.0576 80.3874 48.1257C80.2338 48.1921 80.1071 48.2924 80.0075 48.4265C79.9081 48.5588 79.8461 48.7125 79.8215 48.8877L79.7278 49.6136C79.6994 49.8334 79.7154 50.0286 79.7757 50.1991C79.838 50.3698 79.9387 50.5083 80.0779 50.6144C80.2171 50.7206 80.3899 50.787 80.5962 50.8137C80.7331 50.8313 80.8609 50.8282 80.9796 50.8043C81.0984 50.7805 81.2032 50.7352 81.2941 50.6685C81.3851 50.6018 81.459 50.5153 81.5158 50.409L82.6456 50.6312C82.5525 50.8976 82.403 51.1214 82.1973 51.3026C81.9938 51.4822 81.744 51.6107 81.4478 51.6881C81.1537 51.7638 80.8236 51.7781 80.4572 51.7308ZM84.156 52.12L83.5204 47.5215L84.767 47.6824L85.0701 50.756L85.1106 50.7612L86.2131 47.869L87.4365 48.0269L87.7823 51.0884L87.8199 51.0933L88.8797 48.2132L90.1234 48.3737L88.3439 52.6605L87.0395 52.4921L86.6366 49.5997L86.5816 49.5926L85.4575 52.288L84.156 52.12ZM94.3133 50.2025L93.1764 50.1263C93.1696 50.0274 93.1393 49.9353 93.0857 49.8499C93.0322 49.7627 92.9564 49.6892 92.8583 49.6295C92.7623 49.5681 92.643 49.5282 92.5003 49.5097C92.3094 49.4851 92.1432 49.5048 92.0016 49.5689C91.8603 49.631 91.7811 49.7286 91.7639 49.8616C91.7502 49.9677 91.7811 50.0628 91.8564 50.147C91.9318 50.2312 92.0698 50.3088 92.2704 50.3798L93.0535 50.6456C93.474 50.79 93.7776 50.9742 93.9643 51.1983C94.151 51.4223 94.2237 51.6944 94.1824 52.0145C94.1448 52.3056 94.026 52.55 93.826 52.7477C93.628 52.9456 93.3725 53.0871 93.0597 53.1722C92.749 53.2556 92.4008 53.2724 92.0152 53.2226C91.4271 53.1467 90.9744 52.9638 90.657 52.6739C90.3418 52.3823 90.1817 52.0205 90.1767 51.5886L91.3967 51.6814C91.4102 51.8654 91.4812 52.0138 91.6098 52.1264C91.7386 52.2371 91.9129 52.3067 92.1327 52.3351C92.3487 52.3629 92.5275 52.3439 92.6694 52.2779C92.8133 52.2102 92.8949 52.11 92.914 51.9772C92.9265 51.8651 92.8911 51.7674 92.8077 51.6841C92.7246 51.5989 92.5892 51.5246 92.4013 51.4611L91.6518 51.2086C91.2292 51.0658 90.9256 50.8737 90.7411 50.6323C90.5586 50.3912 90.4887 50.1048 90.5315 49.7731C90.5684 49.4878 90.6772 49.2519 90.8581 49.0655C91.0409 48.8793 91.2803 48.7485 91.5762 48.673C91.8741 48.5978 92.213 48.5846 92.5928 48.6337C93.1539 48.7061 93.5801 48.8817 93.8715 49.1604C94.1648 49.4394 94.3121 49.7867 94.3133 50.2025ZM101.381 49.8267L99.254 54.0687L97.8658 53.8895L96.8861 49.2466L98.1876 49.4146L98.6999 52.7122L98.7462 52.7182L100.076 49.6584L101.381 49.8267ZM105.544 51.652L104.407 51.5758C104.4 51.4769 104.37 51.3848 104.316 51.2995C104.263 51.2122 104.187 51.1387 104.089 51.079C103.993 51.0176 103.873 50.9777 103.731 50.9593C103.54 50.9346 103.374 50.9544 103.232 51.0184C103.091 51.0805 103.012 51.1781 102.994 51.3112C102.981 51.4172 103.012 51.5124 103.087 51.5966C103.162 51.6808 103.3 51.7584 103.501 51.8294L104.284 52.0951C104.704 52.2395 105.008 52.4238 105.195 52.6478C105.381 52.8719 105.454 53.1439 105.413 53.464C105.375 53.7552 105.256 53.9996 105.056 54.1972C104.858 54.3951 104.603 54.5366 104.29 54.6217C103.979 54.7051 103.631 54.7219 103.246 54.6721C102.658 54.5962 102.205 54.4133 101.887 54.1234C101.572 53.8318 101.412 53.47 101.407 53.0381L102.627 53.1309C102.641 53.315 102.712 53.4633 102.84 53.576C102.969 53.6867 103.143 53.7562 103.363 53.7846C103.579 53.8125 103.758 53.7934 103.9 53.7274C104.044 53.6598 104.125 53.5595 104.144 53.4267C104.157 53.3147 104.122 53.217 104.038 53.1337C103.955 53.0485 103.82 52.9741 103.632 52.9107L102.882 52.6581C102.46 52.5153 102.156 52.3233 101.972 52.0819C101.789 51.8407 101.719 51.5543 101.762 51.2227C101.799 50.9373 101.908 50.7014 102.089 50.515C102.271 50.3289 102.511 50.198 102.807 50.1226C103.105 50.0473 103.443 50.0342 103.823 50.0832C104.384 50.1556 104.811 50.3312 105.102 50.6099C105.395 50.8889 105.543 51.2363 105.544 51.652ZM111.677 51.3821C111.684 51.1459 111.608 50.9518 111.449 50.8C111.29 50.6481 111.061 50.5528 110.76 50.514C110.556 50.4876 110.379 50.4942 110.231 50.5339C110.083 50.5717 109.965 50.6358 109.877 50.7264C109.791 50.8172 109.739 50.9262 109.723 51.0535C109.705 51.159 109.716 51.2544 109.754 51.3397C109.794 51.4252 109.853 51.5025 109.932 51.5716C110.012 51.6387 110.106 51.7008 110.214 51.7579C110.323 51.8131 110.44 51.8634 110.565 51.909L111.081 52.105C111.332 52.1962 111.559 52.3039 111.763 52.4282C111.966 52.5525 112.138 52.6952 112.278 52.8564C112.418 53.0175 112.519 53.1991 112.581 53.4012C112.645 53.6036 112.662 53.8283 112.632 54.0753C112.583 54.4375 112.45 54.7399 112.233 54.9823C112.017 55.2231 111.729 55.3946 111.366 55.4968C111.006 55.5974 110.585 55.6166 110.103 55.5543C109.625 55.4926 109.218 55.3656 108.882 55.1733C108.548 54.9812 108.301 54.7287 108.139 54.4158C107.98 54.1012 107.923 53.7302 107.968 53.3028L109.18 53.4592C109.168 53.6596 109.203 53.8327 109.287 53.9787C109.372 54.123 109.495 54.2399 109.656 54.3292C109.819 54.4169 110.009 54.4747 110.225 54.5026C110.437 54.53 110.625 54.5229 110.789 54.4814C110.955 54.4401 111.088 54.3701 111.189 54.2714C111.29 54.1727 111.35 54.052 111.368 53.9093C111.386 53.7762 111.361 53.6593 111.293 53.5585C111.228 53.4579 111.124 53.3661 110.982 53.2831C110.842 53.2003 110.667 53.1189 110.458 53.039L109.833 52.7938C109.35 52.6078 108.98 52.367 108.724 52.0713C108.468 51.7756 108.37 51.409 108.428 50.9716C108.472 50.6127 108.608 50.3117 108.836 50.0686C109.065 49.8257 109.359 49.651 109.718 49.5444C110.076 49.4378 110.472 49.4124 110.904 49.4681C111.343 49.5249 111.717 49.6496 112.026 49.8423C112.336 50.0352 112.565 50.2775 112.714 50.5692C112.863 50.8608 112.917 51.1835 112.877 51.5371L111.677 51.3821ZM113.018 57.5389L113.806 51.4306L115.021 51.5873L114.925 52.3335L114.98 52.3406C115.049 52.2281 115.143 52.1167 115.261 52.0064C115.381 51.8946 115.53 51.8079 115.706 51.7464C115.885 51.6832 116.099 51.6676 116.347 51.6997C116.671 51.7415 116.959 51.865 117.211 52.07C117.463 52.2731 117.649 52.5549 117.769 52.9154C117.89 53.2739 117.917 53.7077 117.851 54.2168C117.787 54.7123 117.653 55.1204 117.449 55.441C117.247 55.7599 116.998 55.9895 116.702 56.1296C116.407 56.268 116.092 56.3155 115.754 56.2719C115.515 56.2411 115.317 56.1753 115.159 56.0746C115.004 55.9741 114.88 55.8573 114.79 55.7241C114.699 55.5889 114.634 55.456 114.594 55.3254L114.557 55.3205L114.25 57.6979L113.018 57.5389ZM114.726 53.8074C114.691 54.0716 114.698 54.3067 114.746 54.5129C114.794 54.719 114.88 54.886 115.005 55.0138C115.13 55.1397 115.292 55.2154 115.49 55.2411C115.691 55.267 115.868 55.2339 116.021 55.1419C116.174 55.048 116.299 54.9073 116.396 54.7199C116.494 54.5307 116.561 54.307 116.594 54.0486C116.627 53.7922 116.62 53.562 116.574 53.358C116.528 53.1541 116.443 52.9882 116.318 52.8603C116.193 52.7325 116.03 52.6555 115.827 52.6294C115.627 52.6035 115.45 52.6347 115.298 52.7228C115.147 52.8112 115.023 52.948 114.924 53.1333C114.826 53.3186 114.76 53.5433 114.726 53.8074ZM120.4 56.8863C119.943 56.8273 119.562 56.684 119.256 56.4563C118.952 56.227 118.734 55.9302 118.6 55.5661C118.467 55.2 118.431 54.7826 118.491 54.3141C118.55 53.8571 118.691 53.4675 118.913 53.1453C119.135 52.823 119.419 52.5863 119.766 52.435C120.115 52.284 120.507 52.2367 120.943 52.2929C121.236 52.3307 121.503 52.4132 121.743 52.5403C121.986 52.6657 122.189 52.8341 122.354 53.0455C122.521 53.2572 122.639 53.5116 122.709 53.8087C122.778 54.1039 122.789 54.4404 122.74 54.8184L122.696 55.1567L118.945 54.6726L119.044 53.909L121.635 54.2435C121.658 54.0661 121.64 53.904 121.58 53.7571C121.521 53.6103 121.428 53.4895 121.301 53.3947C121.176 53.2982 121.024 53.2384 120.845 53.2152C120.657 53.1911 120.486 53.2131 120.33 53.2812C120.177 53.3476 120.05 53.4479 119.95 53.5821C119.851 53.7143 119.789 53.868 119.764 54.0432L119.671 54.7692C119.642 54.989 119.658 55.1841 119.719 55.3546C119.781 55.5253 119.882 55.6638 120.021 55.77C120.16 55.8762 120.333 55.9426 120.539 55.9692C120.676 55.9869 120.804 55.9838 120.922 55.9599C121.041 55.936 121.146 55.8907 121.237 55.824C121.328 55.7574 121.402 55.6709 121.459 55.5645L122.589 55.7868C122.495 56.0531 122.346 56.2769 122.14 56.4581C121.937 56.6377 121.687 56.7662 121.391 56.8436C121.097 56.9194 120.766 56.9336 120.4 56.8863ZM124.818 54.7572L124.486 57.3255L123.254 57.1665L123.828 52.7241L125.002 52.8756L124.901 53.6594L124.953 53.6661C125.085 53.4205 125.276 53.2373 125.527 53.1168C125.778 52.9944 126.068 52.9544 126.398 52.997C126.706 53.0368 126.966 53.139 127.178 53.3036C127.39 53.4682 127.544 53.684 127.639 53.9511C127.734 54.2162 127.759 54.5214 127.715 54.8665L127.35 57.6951L126.118 57.5361L126.454 54.9273C126.491 54.6557 126.449 54.4346 126.328 54.2641C126.207 54.0917 126.024 53.9896 125.777 53.9577C125.611 53.9363 125.46 53.9531 125.323 54.008C125.189 54.0632 125.077 54.1546 124.988 54.2823C124.901 54.4083 124.844 54.5666 124.818 54.7572ZM129.948 58.104C129.611 58.0605 129.317 57.9343 129.065 57.7254C128.816 57.5148 128.633 57.2296 128.517 56.8695C128.403 56.5079 128.378 56.0793 128.442 55.5837C128.508 55.0747 128.644 54.662 128.852 54.3458C129.059 54.0276 129.31 53.8021 129.603 53.6695C129.899 53.5351 130.21 53.489 130.536 53.5311C130.784 53.5632 130.986 53.6323 131.141 53.7386C131.298 53.8431 131.42 53.9647 131.506 54.1032C131.594 54.24 131.657 54.3717 131.696 54.4982L131.733 54.5031L132.021 52.2761L133.25 52.4347L132.486 58.358L131.271 58.2012L131.363 57.4897L131.311 57.483C131.237 57.5989 131.139 57.7108 131.017 57.8186C130.898 57.9247 130.749 58.0064 130.571 58.0638C130.395 58.1215 130.187 58.1349 129.948 58.104ZM130.465 57.174C130.664 57.1996 130.839 57.1673 130.99 57.077C131.143 56.985 131.268 56.8454 131.367 56.6582C131.468 56.4712 131.535 56.2456 131.569 55.9815C131.603 55.7173 131.596 55.4831 131.548 55.2789C131.5 55.0747 131.413 54.9107 131.288 54.7867C131.163 54.6627 131.001 54.5879 130.802 54.5623C130.6 54.5362 130.422 54.5691 130.269 54.6611C130.116 54.7531 129.992 54.8918 129.895 55.0774C129.799 55.2629 129.734 55.4839 129.701 55.7403C129.667 55.9987 129.674 56.2318 129.719 56.4396C129.767 56.6457 129.852 56.8135 129.975 56.943C130.099 57.0709 130.263 57.1478 130.465 57.174Z" fill="#1E1B39"/>
<path d="M74.75 36.1612C74.7526 35.9178 74.6614 35.7168 74.4766 35.5582C74.2918 35.3996 74.0527 35.3014 73.7592 35.2635C73.5447 35.2358 73.3525 35.2463 73.1826 35.2949C73.0143 35.3438 72.8774 35.4231 72.7718 35.533C72.6677 35.6431 72.6057 35.7754 72.5858 35.93C72.5691 36.0594 72.5855 36.1746 72.635 36.2756C72.6863 36.3752 72.7569 36.4621 72.8468 36.5363C72.9368 36.6088 73.033 36.6718 73.1351 36.7251C73.2375 36.7768 73.3322 36.8203 73.419 36.8555L73.8941 37.0516C74.016 37.101 74.1505 37.1649 74.2976 37.2432C74.4463 37.3217 74.5851 37.4206 74.714 37.5399C74.8447 37.6578 74.9466 37.8009 75.0195 37.9691C75.0924 38.1373 75.1142 38.335 75.0849 38.5621C75.0511 38.824 74.9519 39.0518 74.7874 39.2455C74.6244 39.4393 74.404 39.5817 74.126 39.6725C73.8496 39.7635 73.5253 39.785 73.153 39.737C72.8059 39.6922 72.5126 39.5974 72.2731 39.4526C72.0351 39.308 71.8565 39.1262 71.7372 38.9071C71.6195 38.6882 71.5683 38.445 71.5836 38.1776L72.1894 38.2558C72.1815 38.4408 72.2235 38.6002 72.3153 38.7339C72.4089 38.8663 72.5347 38.9723 72.6928 39.0521C72.8527 39.1305 73.0289 39.1821 73.2214 39.2069C73.4454 39.2358 73.6512 39.2255 73.8388 39.176C74.0267 39.1248 74.1811 39.0405 74.3021 38.923C74.4234 38.8039 74.4954 38.656 74.5182 38.4794C74.5389 38.3184 74.5109 38.1817 74.434 38.0691C74.3571 37.9566 74.2494 37.8593 74.1108 37.7772C73.9722 37.6952 73.8208 37.6195 73.6565 37.5502L73.0822 37.3028C72.7177 37.1451 72.438 36.951 72.2432 36.7206C72.0484 36.4902 71.9721 36.2117 72.0142 35.8851C72.0492 35.6138 72.1531 35.3866 72.3259 35.2036C72.5005 35.0192 72.7196 34.8871 72.9833 34.8073C73.2488 34.7261 73.5362 34.7054 73.8454 34.7454C74.1577 34.7857 74.4281 34.8775 74.6566 35.0209C74.8853 35.1627 75.0582 35.339 75.1754 35.5497C75.2941 35.7607 75.3416 35.989 75.3179 36.2345L74.75 36.1612ZM77.8541 36.5619L77.793 37.0352L75.9094 36.792L75.9705 36.3188L77.8541 36.5619ZM76.6319 35.5188L77.1903 35.5909L76.7432 39.0552C76.7228 39.213 76.7304 39.3343 76.766 39.419C76.8033 39.5025 76.8566 39.5622 76.9257 39.5984C76.9965 39.6332 77.073 39.6559 77.155 39.6665C77.2166 39.6745 77.2675 39.6778 77.3077 39.6766C77.3482 39.6738 77.3805 39.6716 77.4048 39.6699L77.4536 40.1862C77.4139 40.1955 77.3593 40.2029 77.2896 40.2084C77.2197 40.2154 77.1327 40.2122 77.0286 40.1987C76.8709 40.1784 76.7206 40.1245 76.5779 40.0371C76.4368 39.9499 76.3255 39.8305 76.2441 39.6789C76.1642 39.5274 76.1379 39.346 76.1652 39.1346L76.6319 35.5188ZM79.2836 40.5283C79.0533 40.4986 78.8498 40.4282 78.6733 40.3172C78.497 40.2046 78.3643 40.0584 78.2752 39.8785C78.1864 39.697 78.1572 39.4879 78.1878 39.2513C78.2147 39.0431 78.2775 38.8796 78.3762 38.7608C78.4751 38.6404 78.598 38.5521 78.7448 38.4956C78.8916 38.4392 79.0502 38.4035 79.2205 38.3886C79.3927 38.3723 79.5645 38.3641 79.7362 38.3638C79.9607 38.3639 80.1425 38.3657 80.2816 38.3692C80.4225 38.3713 80.5268 38.3583 80.5946 38.3302C80.6639 38.3023 80.7044 38.2433 80.716 38.1534L80.7185 38.1345C80.7486 37.901 80.7081 37.7113 80.597 37.5655C80.4875 37.4198 80.3042 37.3304 80.0471 37.2972C79.7805 37.2628 79.5639 37.2942 79.3974 37.3914C79.2309 37.4886 79.1083 37.5995 79.0297 37.7241L78.524 37.4663C78.6472 37.2577 78.7956 37.102 78.9692 36.9993C79.1447 36.8953 79.3294 36.8309 79.5234 36.8062C79.7193 36.7802 79.9087 36.779 80.0917 36.8026C80.2084 36.8177 80.3407 36.8492 80.4884 36.8971C80.638 36.9437 80.7783 37.0187 80.9093 37.1222C81.0418 37.2259 81.1443 37.3699 81.2168 37.5541C81.2893 37.7382 81.3069 37.9747 81.2696 38.2634L80.9605 40.6581L80.402 40.586L80.4656 40.0938L80.4372 40.0902C80.3891 40.1642 80.3151 40.2404 80.2152 40.3189C80.1152 40.3974 79.9878 40.4588 79.833 40.503C79.6781 40.5471 79.495 40.5556 79.2836 40.5283ZM79.4335 40.0376C79.6544 40.0661 79.8461 40.0468 80.0088 39.9795C80.173 39.9125 80.3026 39.8154 80.3976 39.6881C80.4942 39.561 80.5523 39.4218 80.5719 39.2703L80.6378 38.7592C80.6105 38.7845 80.5551 38.8039 80.4716 38.8171C80.3898 38.829 80.2958 38.837 80.1894 38.8409C80.0849 38.8434 79.9829 38.8447 79.8834 38.8447C79.7858 38.8433 79.7064 38.8427 79.6455 38.8428C79.4979 38.843 79.3583 38.8563 79.2266 38.8826C79.0966 38.9075 78.9876 38.9568 78.8995 39.0304C78.8132 39.1027 78.7609 39.2098 78.7426 39.3518C78.7175 39.5458 78.7704 39.7018 78.9011 39.8197C79.0336 39.9363 79.2111 40.0089 79.4335 40.0376ZM84.0297 37.359L83.9686 37.8323L82.085 37.5891L82.1461 37.1159L84.0297 37.359ZM82.8074 36.3159L83.3659 36.388L82.9188 39.8523C82.8984 40.0101 82.906 40.1314 82.9416 40.2161C82.9789 40.2996 83.0321 40.3593 83.1012 40.3955C83.1721 40.4303 83.2486 40.453 83.3306 40.4636C83.3922 40.4716 83.443 40.4749 83.4833 40.4737C83.5238 40.4709 83.5561 40.4687 83.5804 40.467L83.6292 40.9833C83.5895 40.9926 83.5349 41 83.4652 41.0055C83.3953 41.0125 83.3083 41.0093 83.2042 40.9958C83.0464 40.9755 82.8962 40.9216 82.7535 40.8342C82.6124 40.747 82.5011 40.6276 82.4197 40.476C82.3398 40.3245 82.3135 40.1431 82.3407 39.9317L82.8074 36.3159ZM84.4006 41.1021L84.8697 37.4674L85.4282 37.5395L84.959 41.1742L84.4006 41.1021ZM85.2319 36.8983C85.123 36.8842 85.0339 36.835 84.9646 36.7507C84.8969 36.6666 84.8698 36.5725 84.8832 36.4684C84.8966 36.3642 84.9468 36.2801 85.0337 36.2159C85.1221 36.152 85.2208 36.127 85.3296 36.1411C85.4385 36.1551 85.5268 36.2042 85.5945 36.2883C85.6638 36.3726 85.6917 36.4669 85.6783 36.571C85.6649 36.6751 85.6139 36.7591 85.5255 36.8231C85.4386 36.8873 85.3407 36.9123 85.2319 36.8983ZM88.9206 38.8179L88.4006 38.8951C88.3798 38.8074 88.3438 38.7202 88.2924 38.6333C88.2429 38.5451 88.1694 38.4683 88.072 38.4028C87.9746 38.3373 87.8446 38.2941 87.6821 38.2731C87.4597 38.2444 87.2677 38.2717 87.1062 38.3551C86.9464 38.4371 86.8565 38.5563 86.8363 38.7124C86.8184 38.8513 86.8547 38.9674 86.9453 39.0609C87.0359 39.1544 87.185 39.2418 87.3926 39.3231L87.9151 39.5253C88.2299 39.6461 88.4564 39.798 88.5948 39.9811C88.7334 40.1626 88.7863 40.3803 88.7535 40.6343C88.7266 40.8425 88.6426 41.021 88.5015 41.1695C88.3621 41.3183 88.1797 41.4263 87.9545 41.4935C87.7293 41.5607 87.4755 41.576 87.1932 41.5396C86.8224 41.4917 86.526 41.3717 86.3038 41.1794C86.0816 40.9871 85.9582 40.7322 85.9334 40.4147L86.4806 40.3506C86.5058 40.5527 86.5823 40.7117 86.7101 40.8277C86.8394 40.9438 87.0185 41.0166 87.2472 41.0461C87.5075 41.0797 87.7213 41.0512 87.8886 40.9605C88.0576 40.8685 88.1523 40.7444 88.1724 40.5882C88.1887 40.462 88.1582 40.3506 88.0808 40.254C88.0037 40.1558 87.8764 40.0736 87.6989 40.0074L87.1114 39.7872C86.7887 39.6654 86.56 39.5116 86.4252 39.3258C86.2922 39.1386 86.2418 38.9196 86.2742 38.6687C86.3007 38.4637 86.3817 38.2897 86.5172 38.1468C86.6543 38.0041 86.8288 37.9007 87.0408 37.8367C87.2543 37.7728 87.4889 37.7574 87.7444 37.7903C88.1041 37.8368 88.3763 37.9521 88.5611 38.1363C88.7474 38.3208 88.8672 38.5479 88.9206 38.8179ZM91.5133 38.3249L91.4522 38.7982L89.5686 38.5551L89.6296 38.0818L91.5133 38.3249ZM90.291 37.2818L90.8495 37.3539L90.4023 40.8183C90.382 40.976 90.3896 41.0973 90.4252 41.1821C90.4625 41.2655 90.5157 41.3253 90.5848 41.3615C90.6557 41.3963 90.7322 41.419 90.8142 41.4296C90.8757 41.4375 90.9266 41.4409 90.9669 41.4396C91.0073 41.4368 91.0397 41.4346 91.064 41.4329L91.1128 41.9493C91.0731 41.9586 91.0184 41.9659 90.9488 41.9714C90.8789 41.9784 90.7919 41.9752 90.6878 41.9618C90.53 41.9414 90.3798 41.8875 90.2371 41.8001C90.096 41.713 89.9847 41.5935 89.9032 41.4419C89.8234 41.2904 89.7971 41.109 89.8243 40.8976L90.291 37.2818ZM91.8842 42.0681L92.3533 38.4333L92.9118 38.5054L92.4426 42.1401L91.8842 42.0681ZM92.7155 37.8642C92.6066 37.8502 92.5175 37.801 92.4482 37.7166C92.3805 37.6325 92.3534 37.5384 92.3668 37.4343C92.3802 37.3302 92.4304 37.246 92.5173 37.1818C92.6057 37.1179 92.7044 37.0929 92.8132 37.107C92.9221 37.121 93.0103 37.1701 93.0781 37.2542C93.1474 37.3386 93.1753 37.4328 93.1619 37.5369C93.1484 37.641 93.0975 37.7251 93.0091 37.789C92.9222 37.8532 92.8243 37.8783 92.7155 37.8642ZM94.9323 42.5385C94.5916 42.4945 94.3085 42.3762 94.0832 42.1835C93.8579 41.9908 93.6972 41.7447 93.6011 41.4452C93.505 41.1458 93.4804 40.8146 93.5272 40.4517C93.5749 40.0826 93.6848 39.7656 93.8569 39.5007C94.0308 39.2345 94.2503 39.0375 94.5154 38.9097C94.7822 38.7805 95.0797 38.7371 95.4079 38.7795C95.6634 38.8125 95.8877 38.8895 96.0805 39.0107C96.2734 39.1318 96.4243 39.286 96.5332 39.4733C96.6422 39.6605 96.6978 39.8698 96.7 40.101L96.1416 40.029C96.1203 39.8578 96.0446 39.6989 95.9144 39.5522C95.786 39.4041 95.5987 39.3141 95.3526 39.2824C95.1349 39.2543 94.9367 39.2864 94.7579 39.3788C94.581 39.4699 94.4335 39.612 94.3156 39.8053C94.1994 39.9972 94.1236 40.2304 94.0881 40.5049C94.0519 40.7857 94.0645 41.0359 94.126 41.2556C94.189 41.4754 94.2944 41.6534 94.442 41.7895C94.5912 41.9259 94.7762 42.0083 94.9971 42.0368C95.1422 42.0555 95.2772 42.0473 95.402 42.0121C95.5269 41.9769 95.6364 41.9172 95.7307 41.8332C95.8249 41.7491 95.8979 41.6431 95.9497 41.515L96.5082 41.5871C96.449 41.7976 96.3459 41.9808 96.1991 42.1366C96.0541 42.2911 95.8733 42.4057 95.6567 42.4804C95.442 42.5537 95.2005 42.5731 94.9323 42.5385ZM100.126 40.2642L99.6064 40.3415C99.5857 40.2538 99.5496 40.1665 99.4983 40.0797C99.4487 39.9915 99.3752 39.9147 99.2778 39.8492C99.1804 39.7837 99.0505 39.7404 98.888 39.7195C98.6656 39.6907 98.4736 39.7181 98.3121 39.8015C98.1523 39.8835 98.0624 40.0026 98.0422 40.1588C98.0243 40.2976 98.0606 40.4138 98.1512 40.5073C98.2418 40.6008 98.3909 40.6882 98.5985 40.7695L99.1209 40.9717C99.4357 41.0925 99.6623 41.2444 99.8007 41.4275C99.9392 41.609 99.9921 41.8267 99.9593 42.0807C99.9325 42.2889 99.8485 42.4673 99.7074 42.6159C99.5679 42.7647 99.3856 42.8727 99.1604 42.9399C98.9352 43.007 98.6814 43.0224 98.399 42.9859C98.0283 42.9381 97.7318 42.818 97.5097 42.6258C97.2875 42.4335 97.164 42.1786 97.1392 41.861L97.6864 41.7969C97.7116 41.9991 97.7882 42.1581 97.9159 42.274C98.0453 42.3902 98.2243 42.463 98.4531 42.4925C98.7134 42.5261 98.9272 42.4976 99.0945 42.4069C99.2635 42.3148 99.3581 42.1907 99.3783 42.0345C99.3946 41.9083 99.364 41.7969 99.2867 41.7003C99.2095 41.6022 99.0822 41.52 98.9047 41.4538L98.3173 41.2336C97.9946 41.1118 97.7658 40.9579 97.631 40.7721C97.498 40.585 97.4477 40.366 97.4801 40.1151C97.5065 39.91 97.5875 39.736 97.7231 39.5932C97.8602 39.4505 98.0347 39.3471 98.2467 39.283C98.4602 39.2192 98.6947 39.2037 98.9503 39.2367C99.31 39.2831 99.5822 39.3985 99.7669 39.5827C99.9532 39.7671 100.073 39.9943 100.126 40.2642Z" fill="#9291A5"/>
</g>
</g>
<defs>
<filter id="filter0_d_89_1506" x="0.5" y="0" width="206" height="316" filterUnits="userSpaceOnUse" color-interpolation-filters="sRGB">
<feFlood flood-opacity="0" result="BackgroundImageFix"/>
<feColorMatrix in="SourceAlpha" type="matrix" values="0 0 0 0 0 0 0 0 0 0 0 0 0 0 0 0 0 0 127 0" result="hardAlpha"/>
<feOffset dy="2"/>
<feGaussianBlur stdDeviation="4"/>
<feComposite in2="hardAlpha" operator="out"/>
<feColorMatrix type="matrix" values="0 0 0 0 0.792342 0 0 0 0 0.797855 0 0 0 0 0.888822 0 0 0 1 0"/>
<feBlend mode="normal" in2="BackgroundImageFix" result="effect1_dropShadow_89_1506"/>
<feBlend mode="normal" in="SourceGraphic" in2="effect1_dropShadow_89_1506" result="shape"/>
</filter>
<filter id="filter1_d_89_1506" x="40.1537" y="19.4002" width="211.087" height="178.845" filterUnits="userSpaceOnUse" color-interpolation-filters="sRGB">
<feFlood flood-opacity="0" result="BackgroundImageFix"/>
<feColorMatrix in="SourceAlpha" type="matrix" values="0 0 0 0 0 0 0 0 0 0 0 0 0 0 0 0 0 0 127 0" result="hardAlpha"/>
<feOffset dy="0.746548"/>
<feGaussianBlur stdDeviation="1.11982"/>
<feComposite in2="hardAlpha" operator="out"/>
<feColorMatrix type="matrix" values="0 0 0 0 0.0509804 0 0 0 0 0.0392157 0 0 0 0 0.172549 0 0 0 0.08 0"/>
<feBlend mode="normal" in2="BackgroundImageFix" result="effect1_dropShadow_89_1506"/>
<feBlend mode="normal" in="SourceGraphic" in2="effect1_dropShadow_89_1506" result="shape"/>
</filter>
<clipPath id="clip0_89_1506">
<rect x="8.5" y="6" width="190" height="300" rx="32" fill="white"/>
</clipPath>
</defs>
</svg>
