<svg width="207" height="316" viewBox="0 0 207 316" fill="none" xmlns="http://www.w3.org/2000/svg">
<g filter="url(#filter0_d_89_1508)">
<g clip-path="url(#clip0_89_1508)">
<rect x="8.5" y="6" width="190" height="300" rx="32" fill="#C6D0FC"/>
<path d="M26.172 238.292H33.674C35.4047 238.292 36.7027 238.666 37.568 239.414C38.4333 240.162 38.866 241.203 38.866 242.538C38.866 243.286 38.756 243.909 38.536 244.408C38.316 244.892 38.0593 245.288 37.766 245.596C37.4727 245.889 37.1793 246.102 36.886 246.234C36.6073 246.366 36.402 246.454 36.27 246.498V246.542C36.5047 246.571 36.754 246.645 37.018 246.762C37.2967 246.879 37.5533 247.07 37.788 247.334C38.0227 247.583 38.2133 247.913 38.36 248.324C38.5213 248.735 38.602 249.248 38.602 249.864C38.602 250.788 38.668 251.631 38.8 252.394C38.9467 253.142 39.1667 253.677 39.46 254H36.512C36.3067 253.663 36.182 253.289 36.138 252.878C36.1087 252.467 36.094 252.071 36.094 251.69C36.094 250.971 36.05 250.355 35.962 249.842C35.874 249.314 35.7127 248.881 35.478 248.544C35.2433 248.192 34.9207 247.935 34.51 247.774C34.114 247.613 33.6007 247.532 32.97 247.532H28.922V254H26.172V238.292ZM28.922 245.442H33.432C34.312 245.442 34.9793 245.237 35.434 244.826C35.8887 244.401 36.116 243.77 36.116 242.934C36.116 242.435 36.0427 242.032 35.896 241.724C35.7493 241.401 35.544 241.152 35.28 240.976C35.0307 240.8 34.7373 240.683 34.4 240.624C34.0773 240.565 33.74 240.536 33.388 240.536H28.922V245.442ZM49.1202 247.312C49.0909 246.916 49.0029 246.535 48.8562 246.168C48.7242 245.801 48.5336 245.486 48.2842 245.222C48.0496 244.943 47.7562 244.723 47.4042 244.562C47.0669 244.386 46.6856 244.298 46.2602 244.298C45.8202 244.298 45.4169 244.379 45.0502 244.54C44.6982 244.687 44.3902 244.899 44.1262 245.178C43.8769 245.442 43.6716 245.757 43.5102 246.124C43.3636 246.491 43.2829 246.887 43.2682 247.312H49.1202ZM43.2682 248.962C43.2682 249.402 43.3269 249.827 43.4442 250.238C43.5762 250.649 43.7669 251.008 44.0162 251.316C44.2656 251.624 44.5809 251.873 44.9622 252.064C45.3436 252.24 45.7982 252.328 46.3262 252.328C47.0596 252.328 47.6462 252.174 48.0862 251.866C48.5409 251.543 48.8782 251.067 49.0982 250.436H51.4742C51.3422 251.052 51.1149 251.602 50.7922 252.086C50.4696 252.57 50.0809 252.981 49.6262 253.318C49.1716 253.641 48.6582 253.883 48.0862 254.044C47.5289 254.22 46.9422 254.308 46.3262 254.308C45.4316 254.308 44.6396 254.161 43.9502 253.868C43.2609 253.575 42.6742 253.164 42.1902 252.636C41.7209 252.108 41.3616 251.477 41.1122 250.744C40.8776 250.011 40.7602 249.204 40.7602 248.324C40.7602 247.517 40.8849 246.755 41.1342 246.036C41.3982 245.303 41.7649 244.665 42.2342 244.122C42.7182 243.565 43.2976 243.125 43.9722 242.802C44.6469 242.479 45.4096 242.318 46.2602 242.318C47.1549 242.318 47.9542 242.509 48.6582 242.89C49.3769 243.257 49.9709 243.748 50.4402 244.364C50.9096 244.98 51.2469 245.691 51.4522 246.498C51.6722 247.29 51.7309 248.111 51.6282 248.962H43.2682ZM63.0608 251.47C63.0608 251.778 63.0975 251.998 63.1708 252.13C63.2588 252.262 63.4202 252.328 63.6548 252.328C63.7282 252.328 63.8162 252.328 63.9188 252.328C64.0215 252.328 64.1388 252.313 64.2708 252.284V254.022C64.1828 254.051 64.0655 254.081 63.9188 254.11C63.7868 254.154 63.6475 254.191 63.5008 254.22C63.3542 254.249 63.2075 254.271 63.0608 254.286C62.9142 254.301 62.7895 254.308 62.6868 254.308C62.1735 254.308 61.7482 254.205 61.4108 254C61.0735 253.795 60.8535 253.435 60.7508 252.922C60.2522 253.406 59.6362 253.758 58.9028 253.978C58.1842 254.198 57.4875 254.308 56.8128 254.308C56.2995 254.308 55.8082 254.235 55.3388 254.088C54.8695 253.956 54.4515 253.758 54.0848 253.494C53.7328 253.215 53.4468 252.871 53.2268 252.46C53.0215 252.035 52.9188 251.543 52.9188 250.986C52.9188 250.282 53.0435 249.71 53.2928 249.27C53.5568 248.83 53.8942 248.485 54.3048 248.236C54.7302 247.987 55.1995 247.811 55.7128 247.708C56.2408 247.591 56.7688 247.503 57.2968 247.444C57.7515 247.356 58.1842 247.297 58.5948 247.268C59.0055 247.224 59.3648 247.158 59.6728 247.07C59.9955 246.982 60.2448 246.85 60.4208 246.674C60.6115 246.483 60.7068 246.205 60.7068 245.838C60.7068 245.515 60.6262 245.251 60.4648 245.046C60.3182 244.841 60.1275 244.687 59.8928 244.584C59.6728 244.467 59.4235 244.393 59.1448 244.364C58.8662 244.32 58.6022 244.298 58.3528 244.298C57.6488 244.298 57.0695 244.445 56.6148 244.738C56.1602 245.031 55.9035 245.486 55.8448 246.102H53.3368C53.3808 245.369 53.5568 244.76 53.8648 244.276C54.1728 243.792 54.5615 243.403 55.0308 243.11C55.5148 242.817 56.0575 242.611 56.6588 242.494C57.2602 242.377 57.8762 242.318 58.5068 242.318C59.0642 242.318 59.6142 242.377 60.1568 242.494C60.6995 242.611 61.1835 242.802 61.6088 243.066C62.0488 243.33 62.4008 243.675 62.6648 244.1C62.9288 244.511 63.0608 245.017 63.0608 245.618V251.47ZM60.5528 248.302C60.1715 248.551 59.7022 248.705 59.1448 248.764C58.5875 248.808 58.0302 248.881 57.4728 248.984C57.2088 249.028 56.9522 249.094 56.7028 249.182C56.4535 249.255 56.2335 249.365 56.0428 249.512C55.8522 249.644 55.6982 249.827 55.5808 250.062C55.4782 250.282 55.4268 250.553 55.4268 250.876C55.4268 251.155 55.5075 251.389 55.6688 251.58C55.8302 251.771 56.0208 251.925 56.2408 252.042C56.4755 252.145 56.7248 252.218 56.9888 252.262C57.2675 252.306 57.5168 252.328 57.7368 252.328C58.0155 252.328 58.3162 252.291 58.6388 252.218C58.9615 252.145 59.2622 252.02 59.5408 251.844C59.8342 251.668 60.0762 251.448 60.2668 251.184C60.4575 250.905 60.5528 250.568 60.5528 250.172V248.302ZM65.8255 238.292H68.3335V254H65.8255V238.292ZM70.8241 246.828H77.2261V249.204H70.8241V246.828ZM78.4729 238.292H91.1889V240.668H86.1949V254H83.4449V240.668H78.4729V238.292ZM92.7239 238.292H95.2319V240.668H92.7239V238.292ZM92.7239 242.626H95.2319V254H92.7239V242.626ZM97.9645 242.626H100.341V244.21H100.407C100.597 243.931 100.803 243.675 101.023 243.44C101.243 243.205 101.485 243.007 101.749 242.846C102.027 242.685 102.343 242.56 102.695 242.472C103.047 242.369 103.45 242.318 103.905 242.318C104.594 242.318 105.232 242.472 105.819 242.78C106.42 243.088 106.845 243.565 107.095 244.21C107.52 243.623 108.011 243.161 108.569 242.824C109.126 242.487 109.823 242.318 110.659 242.318C111.861 242.318 112.793 242.611 113.453 243.198C114.127 243.785 114.465 244.767 114.465 246.146V254H111.957V247.356C111.957 246.901 111.942 246.491 111.913 246.124C111.883 245.743 111.795 245.42 111.649 245.156C111.517 244.877 111.311 244.665 111.033 244.518C110.754 244.371 110.373 244.298 109.889 244.298C109.038 244.298 108.422 244.562 108.041 245.09C107.659 245.618 107.469 246.366 107.469 247.334V254H104.961V246.696C104.961 245.904 104.814 245.31 104.521 244.914C104.242 244.503 103.721 244.298 102.959 244.298C102.636 244.298 102.321 244.364 102.013 244.496C101.719 244.628 101.455 244.819 101.221 245.068C101.001 245.317 100.817 245.625 100.671 245.992C100.539 246.359 100.473 246.777 100.473 247.246V254H97.9645V242.626ZM124.917 247.312C124.888 246.916 124.8 246.535 124.653 246.168C124.521 245.801 124.33 245.486 124.081 245.222C123.846 244.943 123.553 244.723 123.201 244.562C122.864 244.386 122.482 244.298 122.057 244.298C121.617 244.298 121.214 244.379 120.847 244.54C120.495 244.687 120.187 244.899 119.923 245.178C119.674 245.442 119.468 245.757 119.307 246.124C119.16 246.491 119.08 246.887 119.065 247.312H124.917ZM119.065 248.962C119.065 249.402 119.124 249.827 119.241 250.238C119.373 250.649 119.564 251.008 119.813 251.316C120.062 251.624 120.378 251.873 120.759 252.064C121.14 252.24 121.595 252.328 122.123 252.328C122.856 252.328 123.443 252.174 123.883 251.866C124.338 251.543 124.675 251.067 124.895 250.436H127.271C127.139 251.052 126.912 251.602 126.589 252.086C126.266 252.57 125.878 252.981 125.423 253.318C124.968 253.641 124.455 253.883 123.883 254.044C123.326 254.22 122.739 254.308 122.123 254.308C121.228 254.308 120.436 254.161 119.747 253.868C119.058 253.575 118.471 253.164 117.987 252.636C117.518 252.108 117.158 251.477 116.909 250.744C116.674 250.011 116.557 249.204 116.557 248.324C116.557 247.517 116.682 246.755 116.931 246.036C117.195 245.303 117.562 244.665 118.031 244.122C118.515 243.565 119.094 243.125 119.769 242.802C120.444 242.479 121.206 242.318 122.057 242.318C122.952 242.318 123.751 242.509 124.455 242.89C125.174 243.257 125.768 243.748 126.237 244.364C126.706 244.98 127.044 245.691 127.249 246.498C127.469 247.29 127.528 248.111 127.425 248.962H119.065ZM134.025 238.292H136.885L140.823 250.722H140.867L144.893 238.292H147.687L142.319 254H139.261L134.025 238.292ZM149.185 238.292H151.693V240.668H149.185V238.292ZM149.185 242.626H151.693V254H149.185V242.626ZM162.235 247.312C162.206 246.916 162.118 246.535 161.971 246.168C161.839 245.801 161.649 245.486 161.399 245.222C161.165 244.943 160.871 244.723 160.519 244.562C160.182 244.386 159.801 244.298 159.375 244.298C158.935 244.298 158.532 244.379 158.165 244.54C157.813 244.687 157.505 244.899 157.241 245.178C156.992 245.442 156.787 245.757 156.625 246.124C156.479 246.491 156.398 246.887 156.383 247.312H162.235ZM156.383 248.962C156.383 249.402 156.442 249.827 156.559 250.238C156.691 250.649 156.882 251.008 157.131 251.316C157.381 251.624 157.696 251.873 158.077 252.064C158.459 252.24 158.913 252.328 159.441 252.328C160.175 252.328 160.761 252.174 161.201 251.866C161.656 251.543 161.993 251.067 162.213 250.436H164.589C164.457 251.052 164.23 251.602 163.907 252.086C163.585 252.57 163.196 252.981 162.741 253.318C162.287 253.641 161.773 253.883 161.201 254.044C160.644 254.22 160.057 254.308 159.441 254.308C158.547 254.308 157.755 254.161 157.065 253.868C156.376 253.575 155.789 253.164 155.305 252.636C154.836 252.108 154.477 251.477 154.227 250.744C153.993 250.011 153.875 249.204 153.875 248.324C153.875 247.517 154 246.755 154.249 246.036C154.513 245.303 154.88 244.665 155.349 244.122C155.833 243.565 156.413 243.125 157.087 242.802C157.762 242.479 158.525 242.318 159.375 242.318C160.27 242.318 161.069 242.509 161.773 242.89C162.492 243.257 163.086 243.748 163.555 244.364C164.025 244.98 164.362 245.691 164.567 246.498C164.787 247.29 164.846 248.111 164.743 248.962H156.383ZM165.616 242.626H168.278L170.5 251.118H170.544L172.678 242.626H175.208L177.254 251.118H177.298L179.608 242.626H182.16L178.596 254H176.022L173.91 245.552H173.866L171.776 254H169.136L165.616 242.626ZM24.39 265.292H27.25L31.188 277.722H31.232L35.258 265.292H38.052L32.684 281H29.626L24.39 265.292ZM45.8761 274.312C45.8468 273.916 45.7588 273.535 45.6121 273.168C45.4801 272.801 45.2894 272.486 45.0401 272.222C44.8054 271.943 44.5121 271.723 44.1601 271.562C43.8228 271.386 43.4414 271.298 43.0161 271.298C42.5761 271.298 42.1728 271.379 41.8061 271.54C41.4541 271.687 41.1461 271.899 40.8821 272.178C40.6328 272.442 40.4274 272.757 40.2661 273.124C40.1194 273.491 40.0388 273.887 40.0241 274.312H45.8761ZM40.0241 275.962C40.0241 276.402 40.0828 276.827 40.2001 277.238C40.3321 277.649 40.5228 278.008 40.7721 278.316C41.0214 278.624 41.3368 278.873 41.7181 279.064C42.0994 279.24 42.5541 279.328 43.0821 279.328C43.8154 279.328 44.4021 279.174 44.8421 278.866C45.2968 278.543 45.6341 278.067 45.8541 277.436H48.2301C48.0981 278.052 47.8708 278.602 47.5481 279.086C47.2254 279.57 46.8368 279.981 46.3821 280.318C45.9274 280.641 45.4141 280.883 44.8421 281.044C44.2848 281.22 43.6981 281.308 43.0821 281.308C42.1874 281.308 41.3954 281.161 40.7061 280.868C40.0168 280.575 39.4301 280.164 38.9461 279.636C38.4768 279.108 38.1174 278.477 37.8681 277.744C37.6334 277.011 37.5161 276.204 37.5161 275.324C37.5161 274.517 37.6408 273.755 37.8901 273.036C38.1541 272.303 38.5208 271.665 38.9901 271.122C39.4741 270.565 40.0534 270.125 40.7281 269.802C41.4028 269.479 42.1654 269.318 43.0161 269.318C43.9108 269.318 44.7101 269.509 45.4141 269.89C46.1328 270.257 46.7268 270.748 47.1961 271.364C47.6654 271.98 48.0028 272.691 48.2081 273.498C48.4281 274.29 48.4868 275.111 48.3841 275.962H40.0241ZM50.2907 269.626H52.6447V271.826H52.6887C52.762 271.518 52.9014 271.217 53.1067 270.924C53.3267 270.631 53.5834 270.367 53.8767 270.132C54.1847 269.883 54.522 269.685 54.8887 269.538C55.2554 269.391 55.6294 269.318 56.0107 269.318C56.304 269.318 56.502 269.325 56.6047 269.34C56.722 269.355 56.8394 269.369 56.9567 269.384V271.804C56.7807 271.775 56.5974 271.753 56.4067 271.738C56.2307 271.709 56.0547 271.694 55.8787 271.694C55.4534 271.694 55.05 271.782 54.6687 271.958C54.302 272.119 53.9794 272.369 53.7007 272.706C53.422 273.029 53.202 273.432 53.0407 273.916C52.8794 274.4 52.7987 274.957 52.7987 275.588V281H50.2907V269.626ZM58.0911 265.292H60.5991V267.668H58.0911V265.292ZM58.0911 269.626H60.5991V281H58.0911V269.626ZM70.3277 265.292H72.8357V267.668H70.3277V265.292ZM62.2097 269.626H64.0797V268.68C64.0797 267.961 64.1677 267.382 64.3437 266.942C64.5197 266.487 64.7544 266.143 65.0477 265.908C65.3411 265.659 65.6711 265.497 66.0377 265.424C66.4191 265.336 66.8151 265.292 67.2257 265.292C68.0324 265.292 68.6191 265.343 68.9857 265.446V267.404C68.8244 267.36 68.6484 267.331 68.4577 267.316C68.2817 267.287 68.0691 267.272 67.8197 267.272C67.4824 267.272 67.1891 267.353 66.9397 267.514C66.7051 267.675 66.5877 267.991 66.5877 268.46V269.626H68.7217V271.496H66.5877V281H64.0797V271.496H62.2097V269.626ZM70.3277 269.626H72.8357V281H70.3277V269.626ZM83.2343 273.432C83.1317 272.728 82.8457 272.2 82.3763 271.848C81.9217 271.481 81.3423 271.298 80.6383 271.298C80.3157 271.298 79.971 271.357 79.6043 271.474C79.2377 271.577 78.9003 271.782 78.5923 272.09C78.2843 272.383 78.0277 272.801 77.8223 273.344C77.617 273.872 77.5143 274.569 77.5143 275.434C77.5143 275.903 77.5657 276.373 77.6683 276.842C77.7857 277.311 77.9617 277.729 78.1963 278.096C78.4457 278.463 78.761 278.763 79.1423 278.998C79.5237 279.218 79.9857 279.328 80.5283 279.328C81.2617 279.328 81.863 279.101 82.3323 278.646C82.8163 278.191 83.117 277.553 83.2343 276.732H85.7423C85.5077 278.213 84.943 279.35 84.0483 280.142C83.1683 280.919 81.995 281.308 80.5283 281.308C79.6337 281.308 78.8417 281.161 78.1523 280.868C77.4777 280.56 76.9057 280.149 76.4363 279.636C75.967 279.108 75.6077 278.485 75.3583 277.766C75.1237 277.047 75.0063 276.27 75.0063 275.434C75.0063 274.583 75.1237 273.784 75.3583 273.036C75.593 272.288 75.945 271.643 76.4143 271.1C76.8837 270.543 77.463 270.11 78.1523 269.802C78.8563 269.479 79.6777 269.318 80.6163 269.318C81.2763 269.318 81.8997 269.406 82.4863 269.582C83.0877 269.743 83.6157 269.993 84.0703 270.33C84.5397 270.667 84.921 271.093 85.2143 271.606C85.5077 272.119 85.6837 272.728 85.7423 273.432H83.2343ZM97.3069 278.47C97.3069 278.778 97.3436 278.998 97.4169 279.13C97.5049 279.262 97.6663 279.328 97.9009 279.328C97.9743 279.328 98.0623 279.328 98.1649 279.328C98.2676 279.328 98.3849 279.313 98.5169 279.284V281.022C98.4289 281.051 98.3116 281.081 98.1649 281.11C98.0329 281.154 97.8936 281.191 97.7469 281.22C97.6003 281.249 97.4536 281.271 97.3069 281.286C97.1603 281.301 97.0356 281.308 96.9329 281.308C96.4196 281.308 95.9943 281.205 95.6569 281C95.3196 280.795 95.0996 280.435 94.9969 279.922C94.4983 280.406 93.8823 280.758 93.1489 280.978C92.4303 281.198 91.7336 281.308 91.0589 281.308C90.5456 281.308 90.0543 281.235 89.5849 281.088C89.1156 280.956 88.6976 280.758 88.3309 280.494C87.9789 280.215 87.6929 279.871 87.4729 279.46C87.2676 279.035 87.1649 278.543 87.1649 277.986C87.1649 277.282 87.2896 276.71 87.5389 276.27C87.8029 275.83 88.1403 275.485 88.5509 275.236C88.9763 274.987 89.4456 274.811 89.9589 274.708C90.4869 274.591 91.0149 274.503 91.5429 274.444C91.9976 274.356 92.4303 274.297 92.8409 274.268C93.2516 274.224 93.6109 274.158 93.9189 274.07C94.2416 273.982 94.4909 273.85 94.6669 273.674C94.8576 273.483 94.9529 273.205 94.9529 272.838C94.9529 272.515 94.8723 272.251 94.7109 272.046C94.5643 271.841 94.3736 271.687 94.1389 271.584C93.9189 271.467 93.6696 271.393 93.3909 271.364C93.1123 271.32 92.8483 271.298 92.5989 271.298C91.8949 271.298 91.3156 271.445 90.8609 271.738C90.4063 272.031 90.1496 272.486 90.0909 273.102H87.5829C87.6269 272.369 87.8029 271.76 88.1109 271.276C88.4189 270.792 88.8076 270.403 89.2769 270.11C89.7609 269.817 90.3036 269.611 90.9049 269.494C91.5063 269.377 92.1223 269.318 92.7529 269.318C93.3103 269.318 93.8603 269.377 94.4029 269.494C94.9456 269.611 95.4296 269.802 95.8549 270.066C96.2949 270.33 96.6469 270.675 96.9109 271.1C97.1749 271.511 97.3069 272.017 97.3069 272.618V278.47ZM94.7989 275.302C94.4176 275.551 93.9483 275.705 93.3909 275.764C92.8336 275.808 92.2763 275.881 91.7189 275.984C91.4549 276.028 91.1983 276.094 90.9489 276.182C90.6996 276.255 90.4796 276.365 90.2889 276.512C90.0983 276.644 89.9443 276.827 89.8269 277.062C89.7243 277.282 89.6729 277.553 89.6729 277.876C89.6729 278.155 89.7536 278.389 89.9149 278.58C90.0763 278.771 90.2669 278.925 90.4869 279.042C90.7216 279.145 90.9709 279.218 91.2349 279.262C91.5136 279.306 91.7629 279.328 91.9829 279.328C92.2616 279.328 92.5623 279.291 92.8849 279.218C93.2076 279.145 93.5083 279.02 93.7869 278.844C94.0803 278.668 94.3223 278.448 94.5129 278.184C94.7036 277.905 94.7989 277.568 94.7989 277.172V275.302ZM98.8615 269.626H100.754V266.216H103.262V269.626H105.528V271.496H103.262V277.568C103.262 277.832 103.269 278.059 103.284 278.25C103.313 278.441 103.364 278.602 103.438 278.734C103.526 278.866 103.65 278.969 103.812 279.042C103.973 279.101 104.193 279.13 104.472 279.13C104.648 279.13 104.824 279.13 105 279.13C105.176 279.115 105.352 279.086 105.528 279.042V280.978C105.249 281.007 104.978 281.037 104.714 281.066C104.45 281.095 104.178 281.11 103.9 281.11C103.24 281.11 102.704 281.051 102.294 280.934C101.898 280.802 101.582 280.619 101.348 280.384C101.128 280.135 100.974 279.827 100.886 279.46C100.812 279.093 100.768 278.675 100.754 278.206V271.496H98.8615V269.626ZM107.398 265.292H109.906V267.668H107.398V265.292ZM107.398 269.626H109.906V281H107.398V269.626ZM117.852 281.308C116.943 281.308 116.129 281.161 115.41 280.868C114.706 280.56 114.105 280.142 113.606 279.614C113.122 279.086 112.748 278.455 112.484 277.722C112.235 276.989 112.11 276.182 112.11 275.302C112.11 274.437 112.235 273.637 112.484 272.904C112.748 272.171 113.122 271.54 113.606 271.012C114.105 270.484 114.706 270.073 115.41 269.78C116.129 269.472 116.943 269.318 117.852 269.318C118.762 269.318 119.568 269.472 120.272 269.78C120.991 270.073 121.592 270.484 122.076 271.012C122.575 271.54 122.949 272.171 123.198 272.904C123.462 273.637 123.594 274.437 123.594 275.302C123.594 276.182 123.462 276.989 123.198 277.722C122.949 278.455 122.575 279.086 122.076 279.614C121.592 280.142 120.991 280.56 120.272 280.868C119.568 281.161 118.762 281.308 117.852 281.308ZM117.852 279.328C118.41 279.328 118.894 279.211 119.304 278.976C119.715 278.741 120.052 278.433 120.316 278.052C120.58 277.671 120.771 277.245 120.888 276.776C121.02 276.292 121.086 275.801 121.086 275.302C121.086 274.818 121.02 274.334 120.888 273.85C120.771 273.366 120.58 272.941 120.316 272.574C120.052 272.193 119.715 271.885 119.304 271.65C118.894 271.415 118.41 271.298 117.852 271.298C117.295 271.298 116.811 271.415 116.4 271.65C115.99 271.885 115.652 272.193 115.388 272.574C115.124 272.941 114.926 273.366 114.794 273.85C114.677 274.334 114.618 274.818 114.618 275.302C114.618 275.801 114.677 276.292 114.794 276.776C114.926 277.245 115.124 277.671 115.388 278.052C115.652 278.433 115.99 278.741 116.4 278.976C116.811 279.211 117.295 279.328 117.852 279.328ZM125.679 269.626H128.055V271.298L128.099 271.342C128.481 270.711 128.979 270.22 129.595 269.868C130.211 269.501 130.893 269.318 131.641 269.318C132.888 269.318 133.871 269.641 134.589 270.286C135.308 270.931 135.667 271.899 135.667 273.19V281H133.159V273.85C133.13 272.955 132.939 272.31 132.587 271.914C132.235 271.503 131.685 271.298 130.937 271.298C130.512 271.298 130.131 271.379 129.793 271.54C129.456 271.687 129.17 271.899 128.935 272.178C128.701 272.442 128.517 272.757 128.385 273.124C128.253 273.491 128.187 273.879 128.187 274.29V281H125.679V269.626Z" fill="#19225F"/>
<path d="M27.044 208.544V220H25.892V208.544H27.044ZM26.084 220V218.944H32.308V220H26.084ZM33.7926 220V212.256H34.8966V220H33.7926ZM34.3366 210.128C34.1126 210.128 33.9206 210.048 33.7606 209.888C33.6006 209.728 33.5206 209.536 33.5206 209.312C33.5206 209.088 33.6006 208.896 33.7606 208.736C33.9206 208.565 34.1126 208.48 34.3366 208.48C34.5606 208.48 34.7526 208.565 34.9126 208.736C35.0833 208.896 35.1686 209.088 35.1686 209.312C35.1686 209.536 35.0833 209.728 34.9126 209.888C34.7526 210.048 34.5606 210.128 34.3366 210.128ZM39.3589 220L36.1909 212.256H37.3749L39.3749 217.248C39.4922 217.536 39.5935 217.813 39.6789 218.08C39.7749 218.336 39.8602 218.592 39.9349 218.848C40.0095 218.581 40.0949 218.32 40.1909 218.064C40.2869 217.797 40.3935 217.525 40.5109 217.248L42.5429 212.256H43.6789L40.4629 220H39.3589ZM47.8844 220.192C47.1377 220.192 46.4764 220.021 45.9004 219.68C45.335 219.339 44.8924 218.864 44.5724 218.256C44.2524 217.648 44.0924 216.939 44.0924 216.128C44.0924 215.328 44.247 214.624 44.5564 214.016C44.8764 213.397 45.3137 212.917 45.8684 212.576C46.423 212.224 47.0684 212.048 47.8044 212.048C48.5084 212.048 49.1217 212.203 49.6444 212.512C50.1777 212.821 50.5884 213.253 50.8764 213.808C51.175 214.352 51.3244 214.992 51.3244 215.728V216.272H44.7004L44.7324 215.472H50.2204C50.2204 214.725 49.9964 214.128 49.5484 213.68C49.111 213.221 48.5297 212.992 47.8044 212.992C47.271 212.992 46.8017 213.115 46.3964 213.36C46.0017 213.605 45.6977 213.957 45.4844 214.416C45.271 214.864 45.1644 215.397 45.1644 216.016C45.1644 217.04 45.399 217.835 45.8684 218.4C46.3484 218.965 47.0257 219.248 47.9004 219.248C48.5297 219.248 49.047 219.115 49.4524 218.848C49.8577 218.581 50.1297 218.192 50.2684 217.68H51.3244C51.1217 218.491 50.727 219.115 50.1404 219.552C49.5537 219.979 48.8017 220.192 47.8844 220.192ZM60.919 220L56.535 208.544H57.767L60.823 216.512C60.9403 216.821 61.0577 217.141 61.175 217.472C61.2923 217.792 61.415 218.155 61.543 218.56C61.6603 218.144 61.783 217.749 61.911 217.376C62.0497 217.003 62.1617 216.709 62.247 216.496L65.287 208.544H66.471L62.119 220H60.919ZM69.8375 220.192C69.0908 220.192 68.4295 220.021 67.8535 219.68C67.2882 219.339 66.8455 218.864 66.5255 218.256C66.2055 217.648 66.0455 216.939 66.0455 216.128C66.0455 215.328 66.2002 214.624 66.5095 214.016C66.8295 213.397 67.2668 212.917 67.8215 212.576C68.3762 212.224 69.0215 212.048 69.7575 212.048C70.4615 212.048 71.0748 212.203 71.5975 212.512C72.1308 212.821 72.5415 213.253 72.8295 213.808C73.1282 214.352 73.2775 214.992 73.2775 215.728V216.272H66.6535L66.6855 215.472H72.1735C72.1735 214.725 71.9495 214.128 71.5015 213.68C71.0642 213.221 70.4828 212.992 69.7575 212.992C69.2242 212.992 68.7548 213.115 68.3495 213.36C67.9548 213.605 67.6508 213.957 67.4375 214.416C67.2242 214.864 67.1175 215.397 67.1175 216.016C67.1175 217.04 67.3522 217.835 67.8215 218.4C68.3015 218.965 68.9788 219.248 69.8535 219.248C70.4828 219.248 71.0002 219.115 71.4055 218.848C71.8108 218.581 72.0828 218.192 72.2215 217.68H73.2775C73.0748 218.491 72.6802 219.115 72.0935 219.552C71.5068 219.979 70.7548 220.192 69.8375 220.192ZM79.0906 212.16V213.152H78.4826C77.768 213.152 77.1973 213.371 76.7706 213.808C76.3546 214.245 76.1466 214.837 76.1466 215.584V220H75.0426V212.256H76.0826L76.1786 213.776H76.0666C76.1733 213.275 76.4346 212.869 76.8506 212.56C77.2666 212.24 77.7733 212.08 78.3706 212.08C78.488 212.08 78.6053 212.085 78.7226 212.096C78.84 212.107 78.9626 212.128 79.0906 212.16ZM80.5583 220V212.256H81.6623V220H80.5583ZM81.1023 210.128C80.8783 210.128 80.6863 210.048 80.5263 209.888C80.3663 209.728 80.2863 209.536 80.2863 209.312C80.2863 209.088 80.3663 208.896 80.5263 208.736C80.6863 208.565 80.8783 208.48 81.1023 208.48C81.3263 208.48 81.5183 208.565 81.6783 208.736C81.8489 208.896 81.9343 209.088 81.9343 209.312C81.9343 209.536 81.8489 209.728 81.6783 209.888C81.5183 210.048 81.3263 210.128 81.1023 210.128ZM83.1005 212.256H90.1725V213.184H83.1005V212.256ZM87.2445 208.4V209.36C87.1698 209.36 87.0738 209.36 86.9565 209.36C86.8392 209.36 86.7112 209.36 86.5725 209.36C86.1032 209.36 85.7885 209.477 85.6285 209.712C85.4685 209.947 85.3885 210.293 85.3885 210.752V220H84.2845V210.752C84.2845 210.176 84.3805 209.712 84.5725 209.36C84.7645 208.997 85.0205 208.736 85.3405 208.576C85.6605 208.416 86.0072 208.336 86.3805 208.336C86.5192 208.336 86.6632 208.341 86.8125 208.352C86.9725 208.363 87.1165 208.379 87.2445 208.4ZM89.0685 220V212.256H90.1725V220H89.0685ZM89.6125 210.048C89.3885 210.048 89.2018 209.973 89.0525 209.824C88.9138 209.675 88.8445 209.493 88.8445 209.28C88.8445 209.056 88.9138 208.869 89.0525 208.72C89.2018 208.571 89.3885 208.496 89.6125 208.496C89.8365 208.496 90.0178 208.571 90.1565 208.72C90.3058 208.869 90.3805 209.056 90.3805 209.28C90.3805 209.493 90.3058 209.675 90.1565 209.824C90.0178 209.973 89.8365 210.048 89.6125 210.048ZM91.8893 216.144C91.8893 215.333 92.0439 214.624 92.3533 214.016C92.6733 213.397 93.1106 212.917 93.6653 212.576C94.2306 212.224 94.8866 212.048 95.6333 212.048C96.5293 212.048 97.2813 212.288 97.8893 212.768C98.5079 213.248 98.8919 213.888 99.0413 214.688H97.9373C97.7879 214.155 97.5053 213.744 97.0893 213.456C96.6733 213.168 96.1933 213.024 95.6493 213.024C95.1373 213.024 94.6786 213.152 94.2733 213.408C93.8679 213.664 93.5479 214.027 93.3133 214.496C93.0893 214.955 92.9773 215.499 92.9773 216.128C92.9773 216.747 93.0839 217.285 93.2973 217.744C93.5106 218.203 93.8093 218.56 94.1933 218.816C94.5879 219.072 95.0466 219.2 95.5693 219.2C96.1559 219.2 96.6626 219.056 97.0893 218.768C97.5159 218.469 97.8039 218.069 97.9533 217.568H99.0733C98.9559 218.091 98.7319 218.549 98.4013 218.944C98.0706 219.339 97.6599 219.648 97.1693 219.872C96.6893 220.085 96.1559 220.192 95.5693 220.192C94.8333 220.192 94.1879 220.027 93.6332 219.696C93.0893 219.355 92.6626 218.88 92.3533 218.272C92.0439 217.664 91.8893 216.955 91.8893 216.144ZM102.97 220.192C102.148 220.192 101.503 219.979 101.034 219.552C100.575 219.125 100.346 218.576 100.346 217.904C100.346 217.189 100.602 216.619 101.114 216.192C101.626 215.765 102.335 215.515 103.242 215.44L105.802 215.232V214.976C105.802 214.464 105.711 214.064 105.53 213.776C105.348 213.477 105.103 213.269 104.794 213.152C104.484 213.035 104.138 212.976 103.754 212.976C103.071 212.976 102.543 213.12 102.17 213.408C101.796 213.696 101.61 214.101 101.61 214.624H100.602C100.602 214.101 100.735 213.648 101.002 213.264C101.268 212.88 101.642 212.581 102.122 212.368C102.602 212.155 103.156 212.048 103.786 212.048C104.394 212.048 104.927 212.155 105.386 212.368C105.844 212.571 106.207 212.891 106.474 213.328C106.751 213.755 106.89 214.309 106.89 214.992V220H105.962L105.818 218.64C105.583 219.131 105.21 219.515 104.698 219.792C104.196 220.059 103.62 220.192 102.97 220.192ZM103.226 219.296C104.047 219.296 104.682 219.035 105.13 218.512C105.578 217.989 105.802 217.312 105.802 216.48V216.064L103.514 216.24C102.788 216.304 102.266 216.485 101.946 216.784C101.626 217.083 101.466 217.445 101.466 217.872C101.466 218.341 101.626 218.699 101.946 218.944C102.266 219.179 102.692 219.296 103.226 219.296ZM108.101 212.256H112.293V213.184H108.101V212.256ZM110.741 220H109.653V209.808H110.741V220ZM113.73 220V212.256H114.834V220H113.73ZM114.274 210.128C114.05 210.128 113.858 210.048 113.698 209.888C113.538 209.728 113.458 209.536 113.458 209.312C113.458 209.088 113.538 208.896 113.698 208.736C113.858 208.565 114.05 208.48 114.274 208.48C114.498 208.48 114.69 208.565 114.85 208.736C115.021 208.896 115.106 209.088 115.106 209.312C115.106 209.536 115.021 209.728 114.85 209.888C114.69 210.048 114.498 210.128 114.274 210.128ZM116.592 216.128C116.592 215.328 116.763 214.624 117.104 214.016C117.446 213.408 117.915 212.928 118.512 212.576C119.11 212.224 119.782 212.048 120.528 212.048C121.286 212.048 121.958 212.224 122.544 212.576C123.142 212.928 123.611 213.408 123.952 214.016C124.294 214.624 124.464 215.328 124.464 216.128C124.464 216.907 124.294 217.605 123.952 218.224C123.611 218.832 123.142 219.312 122.544 219.664C121.958 220.016 121.286 220.192 120.528 220.192C119.782 220.192 119.11 220.016 118.512 219.664C117.915 219.312 117.446 218.832 117.104 218.224C116.763 217.605 116.592 216.907 116.592 216.128ZM117.712 216.112C117.712 216.72 117.83 217.259 118.064 217.728C118.31 218.187 118.64 218.549 119.056 218.816C119.483 219.072 119.974 219.2 120.528 219.2C121.083 219.2 121.568 219.072 121.984 218.816C122.411 218.549 122.742 218.187 122.976 217.728C123.222 217.259 123.344 216.72 123.344 216.112C123.344 215.515 123.222 214.987 122.976 214.528C122.742 214.069 122.411 213.707 121.984 213.44C121.568 213.173 121.083 213.04 120.528 213.04C119.974 213.04 119.483 213.173 119.056 213.44C118.64 213.707 118.31 214.069 118.064 214.528C117.83 214.987 117.712 215.515 117.712 216.112ZM127.334 220H126.23V212.256H127.19L127.35 213.6C127.606 213.109 127.969 212.731 128.438 212.464C128.918 212.187 129.441 212.048 130.006 212.048C131.073 212.048 131.841 212.341 132.31 212.928C132.779 213.515 133.014 214.293 133.014 215.264V220H131.91V215.504C131.91 214.597 131.718 213.963 131.334 213.6C130.961 213.237 130.454 213.056 129.814 213.056C129.025 213.056 128.411 213.323 127.974 213.856C127.547 214.379 127.334 215.077 127.334 215.952V220Z" fill="#19225F"/>
<g filter="url(#filter1_d_89_1508)">
<rect x="55.5" y="24.188" width="257.22" height="167.035" rx="10.0871" transform="rotate(-9.21431 55.5 24.188)" fill="white"/>
</g>
<line x1="80.4936" y1="74.0384" x2="301.313" y2="38.217" stroke="#E5E5EF" stroke-width="0.504353"/>
<rect x="190.506" y="82.7361" width="4.03482" height="4.03482" rx="2.01741" transform="rotate(-9.21431 190.506 82.7361)" fill="#4A3AFF"/>
<rect x="193.246" y="99.624" width="4.03482" height="4.03482" rx="2.01741" transform="rotate(-9.21431 193.246 99.624)" fill="#2D5BFF"/>
<rect x="196.249" y="118.138" width="4.03482" height="4.03482" rx="2.01741" transform="rotate(-9.21431 196.249 118.138)" fill="#93AAFD"/>
<path d="M110.336 88.3789C115.063 85.406 120.347 83.43 125.864 82.572L132.164 123.083L110.336 88.3789Z" fill="#E5EAFC"/>
<path d="M96.0943 103.594C99.4701 97.3463 104.411 92.0825 110.433 88.3183L132.164 123.083L96.0943 103.594Z" fill="#C6D2FD"/>
<path d="M108.19 156.341C100.123 150.525 94.4439 141.976 92.2119 132.284C89.9799 122.593 91.3467 112.42 96.0579 103.662L132.164 123.083L108.19 156.341Z" fill="#93AAFD"/>
<path d="M165.422 147.057C159.064 155.877 149.462 161.811 138.729 163.552C127.996 165.293 117.011 162.699 108.19 156.341L132.164 123.083L165.422 147.057Z" fill="#2D5BFF"/>
<path d="M165.422 147.057C170.163 140.479 172.848 132.643 173.136 124.539C173.424 116.436 171.303 108.429 167.04 101.531C162.777 94.6331 156.565 89.1542 149.189 85.787C141.812 82.4198 133.603 81.3156 125.599 82.6141L132.164 123.083L165.422 147.057Z" fill="#4A3AFF"/>
<path d="M79.3993 39.7494C79.3088 39.4331 79.1133 39.2079 78.8128 39.0738C78.5124 38.9396 78.1648 38.9045 77.7702 38.9686C77.4817 39.0154 77.2368 39.103 77.0356 39.2314C76.8365 39.3595 76.6897 39.5151 76.5953 39.6981C76.5029 39.8807 76.4737 40.076 76.5074 40.2839C76.5356 40.4578 76.6012 40.6007 76.7043 40.7124C76.8091 40.8217 76.934 40.907 77.0789 40.9684C77.2236 41.0277 77.3723 41.0722 77.5252 41.1018C77.6777 41.1293 77.817 41.1492 77.9431 41.1614L78.6339 41.2322C78.8108 41.2492 79.0096 41.2801 79.2303 41.3249C79.453 41.3693 79.6709 41.4439 79.8839 41.5488C80.0986 41.6511 80.2856 41.7971 80.4448 41.9868C80.6041 42.1766 80.7085 42.4242 80.758 42.7297C80.8151 43.0818 80.7745 43.415 80.636 43.7293C80.4997 44.0431 80.269 44.3124 79.9441 44.5372C79.6212 44.7615 79.2094 44.9143 78.7088 44.9956C78.242 45.0713 77.8257 45.0615 77.4597 44.9663C77.0958 44.8707 76.7944 44.7041 76.5555 44.4663C76.3188 44.2282 76.1588 43.933 76.0755 43.5807L76.8901 43.4486C76.9513 43.6912 77.067 43.8815 77.2375 44.0193C77.4097 44.1547 77.6135 44.2435 77.849 44.2859C78.0863 44.3258 78.3343 44.3247 78.5931 44.2827C78.8944 44.2339 79.157 44.1412 79.3809 44.0047C79.6044 43.8661 79.7719 43.6974 79.8834 43.4986C79.9945 43.2977 80.0308 43.0784 79.9922 42.8408C79.9571 42.6244 79.8681 42.4582 79.7251 42.342C79.5822 42.2258 79.4052 42.1413 79.1941 42.0885C78.983 42.0356 78.7578 41.996 78.5183 41.9695L77.6792 41.8705C77.1463 41.8067 76.7094 41.6631 76.3683 41.4397C76.0272 41.2164 75.8211 40.8851 75.7498 40.4459C75.6906 40.081 75.7377 39.7468 75.8909 39.4433C76.0459 39.1372 76.2788 38.8817 76.5896 38.6767C76.9021 38.4693 77.2663 38.3318 77.6821 38.2643C78.1022 38.1962 78.4878 38.2109 78.8389 38.3086C79.1897 38.4041 79.4816 38.5657 79.7145 38.7936C79.9496 39.0211 80.0991 39.2984 80.163 39.6255L79.3993 39.7494ZM83.5736 39.0723L83.6768 39.7087L81.1438 40.1196L81.0405 39.4832L83.5736 39.0723ZM81.5888 38.1923L82.3398 38.0705L83.0956 42.7293C83.13 42.9415 83.1866 43.0956 83.2653 43.1917C83.3458 43.2853 83.4378 43.3422 83.5412 43.3625C83.6465 43.3803 83.7542 43.3802 83.8645 43.3623C83.9473 43.3489 84.0145 43.3336 84.0661 43.3165C84.1175 43.2973 84.1585 43.2819 84.1893 43.2704L84.4515 43.9203C84.4037 43.9476 84.3357 43.9783 84.2476 44.0121C84.1598 44.0482 84.0459 44.0775 83.9059 44.1002C83.6937 44.1346 83.4784 44.1228 83.2599 44.0646C83.0436 44.006 82.8535 43.8943 82.6895 43.7293C82.5277 43.5639 82.4237 43.3391 82.3776 43.0548L81.5888 38.1923ZM86.9532 43.6582C86.6434 43.7084 86.3529 43.6957 86.0815 43.6199C85.8097 43.5421 85.5816 43.4038 85.3969 43.2052C85.2119 43.0044 85.0936 42.7449 85.042 42.4266C84.9966 42.1466 85.0149 41.9106 85.097 41.7188C85.1788 41.5248 85.3038 41.363 85.4722 41.2333C85.6406 41.1037 85.8323 40.9964 86.0471 40.9115C86.2637 40.8241 86.4831 40.7471 86.7053 40.6806C86.9961 40.5942 87.2323 40.5265 87.4137 40.4775C87.597 40.426 87.7271 40.369 87.804 40.3064C87.8831 40.2435 87.9128 40.1516 87.8932 40.0306L87.8891 40.0052C87.8381 39.6912 87.7126 39.4612 87.5126 39.3151C87.3146 39.1687 87.0428 39.1235 86.697 39.1796C86.3384 39.2377 86.0701 39.3618 85.8919 39.5519C85.7137 39.7419 85.5976 39.9327 85.5438 40.1244L84.7897 39.9854C84.8688 39.6678 85.001 39.409 85.1863 39.2091C85.3734 39.0067 85.5878 38.8522 85.8296 38.7455C86.0732 38.6363 86.318 38.5617 86.5641 38.5218C86.7211 38.4963 86.9045 38.4862 87.1144 38.4913C87.326 38.494 87.5366 38.5371 87.7461 38.6207C87.9578 38.704 88.146 38.8509 88.3108 39.0615C88.4756 39.2721 88.5895 39.5715 88.6525 39.9597L89.1749 43.1802L88.4239 43.302L88.3165 42.6401L88.2783 42.6463C88.2446 42.7606 88.1782 42.8879 88.079 43.0281C87.9798 43.1683 87.8384 43.2968 87.6549 43.4137C87.4714 43.5305 87.2374 43.612 86.9532 43.6582ZM86.9583 42.9649C87.2553 42.9168 87.4962 42.8178 87.6809 42.6681C87.8678 42.518 87.9982 42.3423 88.0722 42.1408C88.1483 41.9391 88.1699 41.7363 88.1369 41.5327L88.0253 40.8453C87.9997 40.8887 87.9354 40.935 87.8324 40.9844C87.7311 41.0313 87.6124 41.0778 87.4761 41.1238C87.3417 41.1674 87.21 41.2084 87.0813 41.2467C86.9543 41.2825 86.8513 41.3123 86.7724 41.336C86.5814 41.3931 86.4056 41.464 86.2452 41.5489C86.0866 41.6312 85.9644 41.737 85.8787 41.8663C85.7947 41.9932 85.7682 42.1521 85.7992 42.343C85.8415 42.6039 85.9701 42.7856 86.1848 42.8879C86.4013 42.9878 86.6592 43.0135 86.9583 42.9649ZM91.8785 37.725L91.9817 38.3615L89.4486 38.7724L89.3454 38.1359L91.8785 37.725ZM89.8937 36.8451L90.6447 36.7233L91.4005 41.3821C91.4349 41.5942 91.4915 41.7484 91.5702 41.8445C91.6507 41.9381 91.7427 41.995 91.8461 42.0153C91.9513 42.033 92.0591 42.033 92.1694 42.0151C92.2521 42.0016 92.3193 41.9864 92.371 41.9693C92.4223 41.9501 92.4634 41.9347 92.4942 41.9232L92.7564 42.5731C92.7085 42.6004 92.6406 42.631 92.5524 42.6649C92.4647 42.7009 92.3508 42.7303 92.2107 42.753C91.9986 42.7874 91.7833 42.7755 91.5648 42.7174C91.3485 42.6588 91.1583 42.5471 90.9944 42.382C90.8326 42.2167 90.7286 41.9919 90.6825 41.7076L89.8937 36.8451ZM93.8011 42.4297L93.0082 37.5418L93.7592 37.4199L94.5521 42.3079L93.8011 42.4297ZM93.2579 36.6652C93.1115 36.6889 92.9772 36.6595 92.8549 36.577C92.7348 36.4942 92.6634 36.3828 92.6407 36.2427C92.6179 36.1027 92.6505 35.9744 92.7383 35.8578C92.8282 35.7409 92.9463 35.6706 93.0927 35.6468C93.2391 35.6231 93.3723 35.6527 93.4924 35.7355C93.6147 35.818 93.6872 35.9293 93.7099 36.0693C93.7326 36.2093 93.699 36.3378 93.6091 36.4547C93.5213 36.5713 93.4043 36.6414 93.2579 36.6652ZM98.7746 37.7298L98.1309 38.0302C98.0702 37.9247 97.9899 37.8256 97.89 37.7329C97.7918 37.6378 97.667 37.5666 97.5157 37.5193C97.3643 37.472 97.1793 37.4661 96.9608 37.5015C96.6617 37.55 96.4236 37.6594 96.2465 37.8297C96.0713 37.9974 96.0007 38.1864 96.0347 38.3964C96.065 38.5831 96.1568 38.7195 96.3102 38.8057C96.4635 38.8918 96.6903 38.9476 96.9905 38.9729L97.745 39.0334C98.1992 39.0686 98.5512 39.1781 98.8009 39.3618C99.0503 39.5435 99.2027 39.8051 99.2581 40.1466C99.3035 40.4267 99.2635 40.6901 99.138 40.9369C99.0147 41.1833 98.8202 41.3934 98.5544 41.5672C98.2887 41.7409 97.9659 41.8586 97.5862 41.9202C97.0876 42.0011 96.6574 41.9598 96.2956 41.7964C95.9338 41.633 95.6757 41.3505 95.5213 40.9488L96.2052 40.6549C96.3157 40.907 96.4761 41.0835 96.6862 41.1844C96.8985 41.2849 97.1585 41.3103 97.4661 41.2604C97.8161 41.2036 98.082 41.0842 98.2637 40.9023C98.4472 40.718 98.5219 40.5208 98.4878 40.3108C98.4603 40.141 98.3778 40.0085 98.2404 39.9133C98.1027 39.8158 97.9061 39.7585 97.6507 39.7411L96.8051 39.6823C96.3403 39.6489 95.9848 39.5378 95.7386 39.3491C95.4942 39.158 95.3446 38.8937 95.2899 38.5564C95.2452 38.2806 95.283 38.0241 95.4035 37.7868C95.5261 37.5492 95.7123 37.3481 95.9621 37.1834C96.214 37.0184 96.5118 36.9081 96.8555 36.8523C97.3392 36.7739 97.7362 36.8183 98.0464 36.9857C98.3587 37.1528 98.6014 37.4008 98.7746 37.7298ZM101.942 36.0925L102.046 36.7289L99.5125 37.1398L99.4092 36.5034L101.942 36.0925ZM99.9576 35.2125L100.709 35.0907L101.464 39.7495C101.499 39.9617 101.555 40.1158 101.634 40.2119C101.715 40.3055 101.807 40.3625 101.91 40.3827C102.015 40.4005 102.123 40.4004 102.233 40.3825C102.316 40.3691 102.383 40.3538 102.435 40.3367C102.486 40.3175 102.527 40.3022 102.558 40.2906L102.82 40.9405C102.772 40.9678 102.704 40.9985 102.616 41.0324C102.529 41.0684 102.415 41.0977 102.275 41.1204C102.062 41.1549 101.847 41.143 101.629 41.0848C101.412 41.0263 101.222 40.9145 101.058 40.7495C100.896 40.5841 100.792 40.3593 100.746 40.075L99.9576 35.2125ZM103.865 40.7971L103.072 35.9092L103.823 35.7874L104.616 40.6753L103.865 40.7971ZM103.322 35.0326C103.175 35.0563 103.041 35.027 102.919 34.9445C102.799 34.8616 102.727 34.7502 102.705 34.6102C102.682 34.4701 102.714 34.3419 102.802 34.2253C102.892 34.1084 103.01 34.038 103.157 34.0143C103.303 33.9905 103.436 34.0201 103.556 34.1029C103.679 34.1854 103.751 34.2967 103.774 34.4367C103.796 34.5767 103.763 34.7052 103.673 34.8221C103.585 34.9387 103.468 35.0089 103.322 35.0326ZM107.994 40.2319C107.535 40.3062 107.123 40.262 106.757 40.0993C106.391 39.9366 106.088 39.6798 105.848 39.329C105.609 38.9782 105.449 38.5588 105.37 38.0708C105.289 37.5744 105.31 37.1215 105.43 36.7122C105.553 36.3004 105.761 35.9606 106.056 35.693C106.351 35.4229 106.72 35.2521 107.161 35.1805C107.505 35.1248 107.825 35.1382 108.121 35.2207C108.418 35.3033 108.673 35.4448 108.886 35.6454C109.099 35.8459 109.252 36.0955 109.344 36.3941L108.593 36.516C108.499 36.3025 108.34 36.1259 108.115 35.986C107.892 35.8437 107.614 35.7994 107.283 35.8531C106.991 35.9006 106.746 36.0186 106.55 36.2071C106.356 36.3932 106.22 36.6341 106.142 36.9299C106.065 37.2232 106.057 37.5544 106.117 37.9235C106.178 38.3012 106.291 38.6204 106.455 38.8811C106.621 39.1415 106.826 39.3315 107.07 39.4509C107.316 39.57 107.587 39.6054 107.884 39.5572C108.079 39.5256 108.251 39.4629 108.399 39.3692C108.547 39.2755 108.666 39.1561 108.756 39.0109C108.846 38.8657 108.899 38.7002 108.917 38.5144L109.668 38.3926C109.672 38.688 109.61 38.9649 109.479 39.2233C109.351 39.4793 109.161 39.6974 108.91 39.8776C108.66 40.0553 108.354 40.1734 107.994 40.2319ZM113.844 35.2852L113.2 35.5856C113.14 35.4801 113.059 35.381 112.96 35.2883C112.861 35.1932 112.737 35.122 112.585 35.0747C112.434 35.0274 112.249 35.0215 112.03 35.0569C111.731 35.1054 111.493 35.2148 111.316 35.3851C111.141 35.5529 111.07 35.7418 111.104 35.9518C111.135 36.1385 111.226 36.2749 111.38 36.3611C111.533 36.4473 111.76 36.503 112.06 36.5283L112.814 36.5888C113.269 36.624 113.621 36.7335 113.87 36.9172C114.12 37.0989 114.272 37.3605 114.328 37.702C114.373 37.9821 114.333 38.2455 114.208 38.4923C114.084 38.7387 113.89 38.9488 113.624 39.1226C113.358 39.2963 113.035 39.414 112.656 39.4756C112.157 39.5565 111.727 39.5152 111.365 39.3518C111.003 39.1884 110.745 38.9059 110.591 38.5042L111.275 38.2103C111.385 38.4624 111.546 38.6389 111.756 38.7398C111.968 38.8403 112.228 38.8657 112.536 38.8158C112.886 38.759 113.152 38.6396 113.333 38.4577C113.517 38.2734 113.591 38.0762 113.557 37.8662C113.53 37.6965 113.447 37.564 113.31 37.4687C113.172 37.3713 112.976 37.3139 112.72 37.2965L111.875 37.2377C111.41 37.2043 111.054 37.0932 110.808 36.9045C110.564 36.7134 110.414 36.4491 110.359 36.1118C110.315 35.836 110.353 35.5795 110.473 35.3422C110.596 35.1046 110.782 34.9035 111.032 34.7388C111.284 34.5739 111.581 34.4635 111.925 34.4077C112.409 34.3293 112.806 34.3737 113.116 34.5412C113.428 34.7082 113.671 34.9562 113.844 35.2852Z" fill="#9291A5"/>
<path d="M77.5793 53.6127L77.354 52.2242L83.896 51.163L84.1213 52.5515L81.6826 52.9471L82.7495 59.5241L81.0849 59.7941L80.0179 53.2171L77.5793 53.6127ZM88.0863 58.7781C87.4821 58.8761 86.9388 58.8325 86.4564 58.6473C85.9761 58.4591 85.5792 58.1536 85.2658 57.7308C84.952 57.3053 84.7454 56.7866 84.6462 56.1747C84.546 55.5576 84.5778 54.9989 84.7415 54.4987C84.9048 53.9958 85.1847 53.5805 85.5812 53.2527C85.98 52.9219 86.4814 52.7075 87.0856 52.6095C87.6897 52.5115 88.2319 52.5566 88.7122 52.7448C89.1947 52.93 89.5928 53.2353 89.9066 53.6608C90.2201 54.0836 90.4268 54.6036 90.5269 55.2207C90.6262 55.8326 90.5942 56.39 90.431 56.8929C90.2673 57.3931 89.9861 57.8086 89.5873 58.1394C89.1908 58.4672 88.6904 58.6801 88.0863 58.7781ZM87.8858 57.4933C88.1607 57.4488 88.3775 57.3337 88.5364 57.1483C88.6948 56.9603 88.7986 56.7226 88.8478 56.4352C88.8996 56.1473 88.8973 55.8297 88.8409 55.4822C88.7846 55.1348 88.6863 54.8327 88.5462 54.576C88.4087 54.3189 88.2351 54.1262 88.0253 53.9979C87.8156 53.8696 87.5733 53.8277 87.2984 53.8723C87.021 53.9173 86.8004 54.0343 86.6368 54.2231C86.4758 54.4116 86.3694 54.6497 86.3176 54.9375C86.2684 55.2249 86.272 55.5424 86.3284 55.8898C86.3847 56.2373 86.4817 56.5396 86.6192 56.7967C86.7593 57.0534 86.9355 57.2457 87.1479 57.3736C87.3624 57.4984 87.6084 57.5384 87.8858 57.4933ZM94.2936 51.52L94.4955 52.7647L90.8978 53.3483L90.6959 52.1037L94.2936 51.52ZM91.2805 50.5399L92.9374 50.2711L93.8409 55.8407C93.8657 55.9937 93.9084 56.1092 93.969 56.1872C94.0291 56.2626 94.1034 56.3104 94.1918 56.3307C94.2829 56.3505 94.3841 56.3514 94.4956 56.3333C94.5734 56.3207 94.6501 56.3016 94.7258 56.276C94.8011 56.2478 94.8588 56.2265 94.8991 56.212L95.3597 57.4026C95.2809 57.442 95.169 57.4908 95.0241 57.5489C94.8796 57.6096 94.7004 57.6613 94.4864 57.7039C94.0897 57.7843 93.731 57.7879 93.4104 57.7148C93.0925 57.6413 92.8297 57.4897 92.6221 57.2599C92.4145 57.0301 92.2803 56.7193 92.2193 56.3273L91.2805 50.5399ZM98.0639 57.1555C97.6828 57.2174 97.3324 57.2064 97.0127 57.1225C96.6927 57.036 96.4245 56.8759 96.2083 56.6422C95.9943 56.4055 95.8553 56.0901 95.7913 55.696C95.7375 55.3641 95.7532 55.0754 95.8385 54.8301C95.9238 54.5847 96.0603 54.3763 96.248 54.2048C96.4357 54.0333 96.6575 53.8909 96.9132 53.7776C97.1715 53.6638 97.4461 53.5687 97.7371 53.4922C98.0787 53.3996 98.3532 53.3204 98.5608 53.2548C98.768 53.1866 98.9142 53.1123 98.9997 53.0319C99.0851 52.9515 99.1175 52.8478 99.0969 52.7208L99.0931 52.6974C99.0531 52.4511 98.9444 52.2731 98.767 52.1635C98.5921 52.0535 98.3634 52.0214 98.0808 52.0673C97.7826 52.1157 97.556 52.2203 97.4012 52.3811C97.2459 52.5394 97.1557 52.7217 97.1306 52.928L95.578 53.0521C95.5969 52.6765 95.699 52.3379 95.8843 52.0364C96.0691 51.7323 96.3302 51.4797 96.6675 51.2787C97.0069 51.0746 97.4152 50.9338 97.8923 50.8564C98.2242 50.8026 98.5482 50.79 98.8641 50.8185C99.1827 50.8467 99.4733 50.9233 99.7357 51.0484C100.001 51.173 100.223 51.3526 100.402 51.587C100.581 51.8188 100.699 52.1123 100.756 52.4675L101.41 56.497L99.8386 56.7519L99.7042 55.9234L99.6576 55.931C99.5919 56.1333 99.4903 56.3187 99.3527 56.4874C99.2146 56.6535 99.0393 56.7951 98.8268 56.912C98.6138 57.0264 98.3595 57.1076 98.0639 57.1555ZM98.3529 55.9351C98.5967 55.8955 98.8041 55.8127 98.9752 55.6864C99.1459 55.5576 99.271 55.4016 99.3504 55.2184C99.4298 55.0352 99.4524 54.8386 99.4184 54.6286L99.3155 53.9946C99.2691 54.0367 99.2029 54.0794 99.1167 54.1227C99.0328 54.1629 98.9369 54.2037 98.8292 54.2451C98.7211 54.284 98.6128 54.3215 98.5042 54.3577C98.3952 54.3914 98.2964 54.422 98.2078 54.4497C98.0179 54.5098 97.8555 54.5827 97.7203 54.6685C97.5852 54.7543 97.4861 54.8569 97.423 54.9762C97.3594 55.093 97.3403 55.2291 97.3655 55.3847C97.4021 55.6103 97.5117 55.7695 97.6944 55.8623C97.8793 55.952 98.0988 55.9763 98.3529 55.9351ZM103.06 48.0542L104.352 56.0197L102.695 56.2885L101.403 48.3229L103.06 48.0542ZM111.633 52.228L111.076 48.7975L112.733 48.5287L113.702 54.5029L112.112 54.7609L111.936 53.6758L111.873 53.6859C111.795 54.0578 111.617 54.3755 111.337 54.639C111.061 54.9021 110.698 55.0701 110.25 55.1428C109.85 55.2076 109.484 55.1739 109.151 55.0416C108.819 54.9093 108.539 54.6898 108.314 54.383C108.091 54.0759 107.941 53.6892 107.862 53.2229L107.245 49.419L108.902 49.1502L109.471 52.6585C109.531 53.0107 109.671 53.2741 109.891 53.4486C110.111 53.6232 110.378 53.685 110.691 53.6341C110.891 53.6017 111.07 53.5261 111.229 53.4071C111.388 53.2856 111.506 53.1255 111.583 52.9267C111.662 52.7276 111.679 52.4946 111.633 52.228ZM119.306 49.211L117.804 49.5504C117.757 49.4249 117.682 49.3173 117.58 49.2275C117.477 49.135 117.351 49.0691 117.201 49.0295C117.053 48.987 116.883 48.9813 116.691 49.0124C116.434 49.0541 116.226 49.1437 116.068 49.2812C115.909 49.4161 115.844 49.573 115.873 49.7519C115.896 49.8945 115.972 50.0058 116.102 50.0859C116.233 50.1659 116.441 50.2132 116.728 50.2278L117.845 50.2702C118.445 50.2953 118.909 50.4169 119.237 50.6351C119.565 50.8533 119.764 51.1777 119.834 51.6081C119.898 51.9996 119.838 52.3619 119.655 52.6949C119.475 53.0276 119.199 53.3092 118.826 53.5399C118.456 53.7677 118.012 53.9236 117.493 54.0077C116.702 54.136 116.045 54.0736 115.523 53.8204C115.002 53.5642 114.655 53.1574 114.483 52.6L116.098 52.2501C116.187 52.4832 116.336 52.648 116.546 52.7443C116.755 52.8381 117.008 52.861 117.303 52.813C117.594 52.7659 117.818 52.6723 117.976 52.5322C118.137 52.3891 118.204 52.2279 118.177 52.0485C118.15 51.8986 118.067 51.7857 117.927 51.71C117.786 51.6316 117.582 51.5876 117.315 51.5778L116.246 51.5394C115.644 51.5174 115.177 51.3856 114.845 51.1441C114.516 50.9021 114.315 50.5581 114.243 50.1121C114.18 49.7284 114.23 49.381 114.393 49.0699C114.558 48.7583 114.817 48.4967 115.172 48.2849C115.528 48.0727 115.962 47.9251 116.473 47.8422C117.228 47.7198 117.847 47.783 118.332 48.0317C118.819 48.2799 119.144 48.673 119.306 49.211ZM123.919 52.9652C123.305 53.0649 122.756 53.0263 122.272 52.8493C121.79 52.6693 121.393 52.3691 121.08 51.9489C120.767 51.526 120.559 50.9996 120.457 50.3695C120.357 49.755 120.389 49.1963 120.552 48.6934C120.715 48.1906 120.992 47.7744 121.383 47.4449C121.777 47.1149 122.267 46.9024 122.853 46.8073C123.247 46.7434 123.624 46.7474 123.984 46.8194C124.347 46.8883 124.675 47.0279 124.97 47.2382C125.268 47.4481 125.519 47.732 125.723 48.0901C125.927 48.4455 126.07 48.8773 126.153 49.3855L126.227 49.8406L121.182 50.6589L121.016 49.6321L124.501 49.0668C124.462 48.8283 124.376 48.6253 124.242 48.4581C124.109 48.2908 123.941 48.1702 123.74 48.0964C123.542 48.0195 123.322 48.0006 123.08 48.0398C122.829 48.0806 122.615 48.1751 122.44 48.3233C122.267 48.4685 122.141 48.6472 122.064 48.8593C121.986 49.0689 121.965 49.2918 122.001 49.5282L122.159 50.5045C122.207 50.8001 122.303 51.0466 122.447 51.2442C122.593 51.4413 122.777 51.5818 122.998 51.6657C123.219 51.7496 123.469 51.769 123.746 51.724C123.93 51.6941 124.094 51.6408 124.239 51.5642C124.384 51.4875 124.502 51.3885 124.594 51.2671C124.686 51.1457 124.748 51.0052 124.781 50.8455L126.33 50.6981C126.312 51.0789 126.205 51.4263 126.008 51.7402C125.814 52.0512 125.54 52.3139 125.186 52.5283C124.834 52.7397 124.412 52.8853 123.919 52.9652ZM127.724 52.2283L126.755 46.2542L128.361 45.9936L128.53 47.036L128.592 47.0259C128.641 46.6374 128.778 46.3277 129.004 46.0968C129.23 45.8633 129.51 45.7194 129.845 45.6651C129.928 45.6517 130.018 45.6423 130.115 45.6371C130.213 45.632 130.3 45.6325 130.375 45.6389L130.614 47.1091C130.532 47.0984 130.421 47.0951 130.281 47.0993C130.14 47.1034 130.013 47.1147 129.899 47.1332C129.655 47.1728 129.446 47.2613 129.272 47.3987C129.099 47.5331 128.972 47.7027 128.891 47.9075C128.812 48.1119 128.793 48.3359 128.832 48.5796L129.381 51.9595L127.724 52.2283ZM136.483 46.4244L134.982 46.7638C134.935 46.6384 134.86 46.5307 134.758 46.4409C134.655 46.3485 134.528 46.2825 134.378 46.243C134.23 46.2004 134.06 46.1947 133.868 46.2259C133.612 46.2675 133.404 46.3571 133.245 46.4946C133.086 46.6295 133.021 46.7864 133.05 46.9653C133.073 47.1079 133.15 47.2193 133.28 47.2993C133.41 47.3793 133.619 47.4266 133.906 47.4413L135.022 47.4837C135.623 47.5087 136.087 47.6304 136.415 47.8486C136.743 48.0668 136.942 48.3911 137.012 48.8215C137.075 49.2131 137.016 49.5753 136.833 49.9084C136.653 50.241 136.376 50.5227 136.004 50.7534C135.634 50.9811 135.189 51.137 134.671 51.2211C133.88 51.3494 133.223 51.287 132.7 51.0338C132.18 50.7776 131.833 50.3708 131.66 49.8134L133.276 49.4635C133.364 49.6967 133.513 49.8614 133.723 49.9578C133.933 50.0515 134.185 50.0744 134.481 50.0265C134.771 49.9793 134.996 49.8857 135.154 49.7456C135.314 49.6025 135.381 49.4413 135.355 49.262C135.328 49.112 135.244 48.9991 135.104 48.9234C134.964 48.8451 134.76 48.801 134.492 48.7912L133.424 48.7529C132.822 48.7308 132.355 48.599 132.023 48.3575C131.693 48.1155 131.493 47.7716 131.42 47.3256C131.358 46.9418 131.408 46.5944 131.57 46.2833C131.735 45.9718 131.995 45.7101 132.349 45.4983C132.706 45.2861 133.14 45.1385 133.651 45.0557C134.405 44.9333 135.025 44.9964 135.51 45.2451C135.997 45.4934 136.321 45.8865 136.483 46.4244Z" fill="#1E1B39"/>
</g>
</g>
<defs>
<filter id="filter0_d_89_1508" x="0.5" y="0" width="206" height="316" filterUnits="userSpaceOnUse" color-interpolation-filters="sRGB">
<feFlood flood-opacity="0" result="BackgroundImageFix"/>
<feColorMatrix in="SourceAlpha" type="matrix" values="0 0 0 0 0 0 0 0 0 0 0 0 0 0 0 0 0 0 127 0" result="hardAlpha"/>
<feOffset dy="2"/>
<feGaussianBlur stdDeviation="4"/>
<feComposite in2="hardAlpha" operator="out"/>
<feColorMatrix type="matrix" values="0 0 0 0 0.792342 0 0 0 0 0.797855 0 0 0 0 0.888822 0 0 0 1 0"/>
<feBlend mode="normal" in2="BackgroundImageFix" result="effect1_dropShadow_89_1508"/>
<feBlend mode="normal" in="SourceGraphic" in2="effect1_dropShadow_89_1508" result="shape"/>
</filter>
<filter id="filter1_d_89_1508" x="53.9575" y="-17.534" width="283.733" height="209.153" filterUnits="userSpaceOnUse" color-interpolation-filters="sRGB">
<feFlood flood-opacity="0" result="BackgroundImageFix"/>
<feColorMatrix in="SourceAlpha" type="matrix" values="0 0 0 0 0 0 0 0 0 0 0 0 0 0 0 0 0 0 127 0" result="hardAlpha"/>
<feOffset dy="1.00871"/>
<feGaussianBlur stdDeviation="1.51306"/>
<feComposite in2="hardAlpha" operator="out"/>
<feColorMatrix type="matrix" values="0 0 0 0 0.0509804 0 0 0 0 0.0392157 0 0 0 0 0.172549 0 0 0 0.08 0"/>
<feBlend mode="normal" in2="BackgroundImageFix" result="effect1_dropShadow_89_1508"/>
<feBlend mode="normal" in="SourceGraphic" in2="effect1_dropShadow_89_1508" result="shape"/>
</filter>
<clipPath id="clip0_89_1508">
<rect x="8.5" y="6" width="190" height="300" rx="32" fill="white"/>
</clipPath>
</defs>
</svg>
