<svg width="207" height="316" viewBox="0 0 207 316" fill="none" xmlns="http://www.w3.org/2000/svg">
<g filter="url(#filter0_d_89_1510)">
<g clip-path="url(#clip0_89_1510)">
<rect x="8.5" y="6" width="190" height="300" rx="32" fill="#19225F"/>
<path d="M36.776 216.286C36.6587 215.831 36.4973 215.413 36.292 215.032C36.0867 214.651 35.8227 214.321 35.5 214.042C35.1773 213.763 34.796 213.551 34.356 213.404C33.9307 213.243 33.432 213.162 32.86 213.162C32.024 213.162 31.298 213.331 30.682 213.668C30.0807 214.005 29.5893 214.46 29.208 215.032C28.8267 215.589 28.5407 216.227 28.35 216.946C28.174 217.665 28.086 218.398 28.086 219.146C28.086 219.894 28.174 220.627 28.35 221.346C28.5407 222.065 28.8267 222.71 29.208 223.282C29.5893 223.839 30.0807 224.287 30.682 224.624C31.298 224.961 32.024 225.13 32.86 225.13C33.476 225.13 34.0187 225.027 34.488 224.822C34.9573 224.602 35.3607 224.309 35.698 223.942C36.0353 223.561 36.2993 223.121 36.49 222.622C36.6807 222.123 36.8053 221.588 36.864 221.016H39.548C39.4893 221.955 39.284 222.813 38.932 223.59C38.5947 224.367 38.1327 225.042 37.546 225.614C36.9593 226.171 36.27 226.604 35.478 226.912C34.686 227.22 33.8133 227.374 32.86 227.374C31.6867 227.374 30.6307 227.161 29.692 226.736C28.768 226.296 27.9833 225.702 27.338 224.954C26.6927 224.206 26.194 223.333 25.842 222.336C25.5047 221.339 25.336 220.275 25.336 219.146C25.336 218.031 25.5047 216.975 25.842 215.978C26.194 214.981 26.6927 214.108 27.338 213.36C27.9833 212.612 28.768 212.018 29.692 211.578C30.6307 211.138 31.6867 210.918 32.86 210.918C33.74 210.918 34.5687 211.043 35.346 211.292C36.1233 211.527 36.8053 211.879 37.392 212.348C37.9933 212.803 38.4773 213.36 38.844 214.02C39.2107 214.68 39.438 215.435 39.526 216.286H36.776ZM51.223 224.47C51.223 224.778 51.2596 224.998 51.333 225.13C51.421 225.262 51.5823 225.328 51.817 225.328C51.8903 225.328 51.9783 225.328 52.081 225.328C52.1836 225.328 52.301 225.313 52.433 225.284V227.022C52.345 227.051 52.2276 227.081 52.081 227.11C51.949 227.154 51.8096 227.191 51.663 227.22C51.5163 227.249 51.3696 227.271 51.223 227.286C51.0763 227.301 50.9516 227.308 50.849 227.308C50.3356 227.308 49.9103 227.205 49.573 227C49.2356 226.795 49.0156 226.435 48.913 225.922C48.4143 226.406 47.7983 226.758 47.065 226.978C46.3463 227.198 45.6496 227.308 44.975 227.308C44.4616 227.308 43.9703 227.235 43.501 227.088C43.0316 226.956 42.6136 226.758 42.247 226.494C41.895 226.215 41.609 225.871 41.389 225.46C41.1836 225.035 41.081 224.543 41.081 223.986C41.081 223.282 41.2056 222.71 41.455 222.27C41.719 221.83 42.0563 221.485 42.467 221.236C42.8923 220.987 43.3616 220.811 43.875 220.708C44.403 220.591 44.931 220.503 45.459 220.444C45.9136 220.356 46.3463 220.297 46.757 220.268C47.1676 220.224 47.527 220.158 47.835 220.07C48.1576 219.982 48.407 219.85 48.583 219.674C48.7736 219.483 48.869 219.205 48.869 218.838C48.869 218.515 48.7883 218.251 48.627 218.046C48.4803 217.841 48.2896 217.687 48.055 217.584C47.835 217.467 47.5856 217.393 47.307 217.364C47.0283 217.32 46.7643 217.298 46.515 217.298C45.811 217.298 45.2316 217.445 44.777 217.738C44.3223 218.031 44.0656 218.486 44.007 219.102H41.499C41.543 218.369 41.719 217.76 42.027 217.276C42.335 216.792 42.7236 216.403 43.193 216.11C43.677 215.817 44.2196 215.611 44.821 215.494C45.4223 215.377 46.0383 215.318 46.669 215.318C47.2263 215.318 47.7763 215.377 48.319 215.494C48.8616 215.611 49.3456 215.802 49.771 216.066C50.211 216.33 50.563 216.675 50.827 217.1C51.091 217.511 51.223 218.017 51.223 218.618V224.47ZM48.715 221.302C48.3336 221.551 47.8643 221.705 47.307 221.764C46.7496 221.808 46.1923 221.881 45.635 221.984C45.371 222.028 45.1143 222.094 44.865 222.182C44.6156 222.255 44.3956 222.365 44.205 222.512C44.0143 222.644 43.8603 222.827 43.743 223.062C43.6403 223.282 43.589 223.553 43.589 223.876C43.589 224.155 43.6696 224.389 43.831 224.58C43.9923 224.771 44.183 224.925 44.403 225.042C44.6376 225.145 44.887 225.218 45.151 225.262C45.4296 225.306 45.679 225.328 45.899 225.328C46.1776 225.328 46.4783 225.291 46.801 225.218C47.1236 225.145 47.4243 225.02 47.703 224.844C47.9963 224.668 48.2383 224.448 48.429 224.184C48.6196 223.905 48.715 223.568 48.715 223.172V221.302ZM53.9216 215.626H56.2976V217.21H56.3636C56.5542 216.931 56.7596 216.675 56.9796 216.44C57.1996 216.205 57.4416 216.007 57.7056 215.846C57.9842 215.685 58.2996 215.56 58.6516 215.472C59.0036 215.369 59.4069 215.318 59.8616 215.318C60.5509 215.318 61.1889 215.472 61.7756 215.78C62.3769 216.088 62.8022 216.565 63.0516 217.21C63.4769 216.623 63.9682 216.161 64.5256 215.824C65.0829 215.487 65.7796 215.318 66.6156 215.318C67.8182 215.318 68.7496 215.611 69.4096 216.198C70.0842 216.785 70.4216 217.767 70.4216 219.146V227H67.9136V220.356C67.9136 219.901 67.8989 219.491 67.8696 219.124C67.8402 218.743 67.7522 218.42 67.6056 218.156C67.4736 217.877 67.2682 217.665 66.9896 217.518C66.7109 217.371 66.3296 217.298 65.8456 217.298C64.9949 217.298 64.3789 217.562 63.9976 218.09C63.6162 218.618 63.4256 219.366 63.4256 220.334V227H60.9176V219.696C60.9176 218.904 60.7709 218.31 60.4776 217.914C60.1989 217.503 59.6782 217.298 58.9156 217.298C58.5929 217.298 58.2776 217.364 57.9696 217.496C57.6762 217.628 57.4122 217.819 57.1776 218.068C56.9576 218.317 56.7742 218.625 56.6276 218.992C56.4956 219.359 56.4296 219.777 56.4296 220.246V227H53.9216V215.626ZM73.1301 215.626H75.5061V217.166H75.5501C75.9021 216.506 76.3935 216.037 77.0241 215.758C77.6548 215.465 78.3368 215.318 79.0701 215.318C79.9648 215.318 80.7421 215.479 81.4021 215.802C82.0768 216.11 82.6341 216.543 83.0741 217.1C83.5141 217.643 83.8441 218.281 84.0641 219.014C84.2841 219.747 84.3941 220.532 84.3941 221.368C84.3941 222.131 84.2915 222.871 84.0861 223.59C83.8955 224.309 83.5948 224.947 83.1841 225.504C82.7881 226.047 82.2821 226.487 81.6661 226.824C81.0501 227.147 80.3241 227.308 79.4881 227.308C79.1215 227.308 78.7548 227.271 78.3881 227.198C78.0215 227.139 77.6695 227.037 77.3321 226.89C76.9948 226.743 76.6795 226.56 76.3861 226.34C76.1075 226.105 75.8728 225.834 75.6821 225.526H75.6381V231.202H73.1301V215.626ZM81.8861 221.324C81.8861 220.811 81.8201 220.312 81.6881 219.828C81.5561 219.344 81.3581 218.919 81.0941 218.552C80.8301 218.171 80.5001 217.87 80.1041 217.65C79.7081 217.415 79.2535 217.298 78.7401 217.298C77.6841 217.298 76.8848 217.665 76.3421 218.398C75.8141 219.131 75.5501 220.107 75.5501 221.324C75.5501 221.896 75.6161 222.431 75.7481 222.93C75.8948 223.414 76.1075 223.832 76.3861 224.184C76.6648 224.536 76.9948 224.815 77.3761 225.02C77.7721 225.225 78.2268 225.328 78.7401 225.328C79.3121 225.328 79.7961 225.211 80.1921 224.976C80.5881 224.741 80.9108 224.441 81.1601 224.074C81.4241 223.693 81.6075 223.267 81.7101 222.798C81.8275 222.314 81.8861 221.823 81.8861 221.324ZM96.0394 224.47C96.0394 224.778 96.076 224.998 96.1494 225.13C96.2374 225.262 96.3987 225.328 96.6334 225.328C96.7067 225.328 96.7947 225.328 96.8974 225.328C97 225.328 97.1174 225.313 97.2494 225.284V227.022C97.1614 227.051 97.044 227.081 96.8974 227.11C96.7654 227.154 96.626 227.191 96.4794 227.22C96.3327 227.249 96.186 227.271 96.0394 227.286C95.8927 227.301 95.768 227.308 95.6654 227.308C95.152 227.308 94.7267 227.205 94.3894 227C94.052 226.795 93.832 226.435 93.7294 225.922C93.2307 226.406 92.6147 226.758 91.8814 226.978C91.1627 227.198 90.466 227.308 89.7914 227.308C89.278 227.308 88.7867 227.235 88.3174 227.088C87.848 226.956 87.43 226.758 87.0634 226.494C86.7114 226.215 86.4254 225.871 86.2054 225.46C86 225.035 85.8974 224.543 85.8974 223.986C85.8974 223.282 86.022 222.71 86.2714 222.27C86.5354 221.83 86.8727 221.485 87.2834 221.236C87.7087 220.987 88.178 220.811 88.6914 220.708C89.2194 220.591 89.7474 220.503 90.2754 220.444C90.73 220.356 91.1627 220.297 91.5734 220.268C91.984 220.224 92.3434 220.158 92.6514 220.07C92.974 219.982 93.2234 219.85 93.3994 219.674C93.59 219.483 93.6854 219.205 93.6854 218.838C93.6854 218.515 93.6047 218.251 93.4434 218.046C93.2967 217.841 93.106 217.687 92.8714 217.584C92.6514 217.467 92.402 217.393 92.1234 217.364C91.8447 217.32 91.5807 217.298 91.3314 217.298C90.6274 217.298 90.048 217.445 89.5934 217.738C89.1387 218.031 88.882 218.486 88.8234 219.102H86.3154C86.3594 218.369 86.5354 217.76 86.8434 217.276C87.1514 216.792 87.54 216.403 88.0094 216.11C88.4934 215.817 89.036 215.611 89.6374 215.494C90.2387 215.377 90.8547 215.318 91.4854 215.318C92.0427 215.318 92.5927 215.377 93.1354 215.494C93.678 215.611 94.162 215.802 94.5874 216.066C95.0274 216.33 95.3794 216.675 95.6434 217.1C95.9074 217.511 96.0394 218.017 96.0394 218.618V224.47ZM93.5314 221.302C93.15 221.551 92.6807 221.705 92.1234 221.764C91.566 221.808 91.0087 221.881 90.4514 221.984C90.1874 222.028 89.9307 222.094 89.6814 222.182C89.432 222.255 89.212 222.365 89.0214 222.512C88.8307 222.644 88.6767 222.827 88.5594 223.062C88.4567 223.282 88.4054 223.553 88.4054 223.876C88.4054 224.155 88.486 224.389 88.6474 224.58C88.8087 224.771 88.9994 224.925 89.2194 225.042C89.454 225.145 89.7034 225.218 89.9674 225.262C90.246 225.306 90.4954 225.328 90.7154 225.328C90.994 225.328 91.2947 225.291 91.6174 225.218C91.94 225.145 92.2407 225.02 92.5194 224.844C92.8127 224.668 93.0547 224.448 93.2454 224.184C93.436 223.905 93.5314 223.568 93.5314 223.172V221.302ZM98.804 211.292H101.312V213.668H98.804V211.292ZM98.804 215.626H101.312V227H98.804V215.626ZM114.561 226.406C114.561 228.122 114.077 229.398 113.109 230.234C112.155 231.085 110.777 231.51 108.973 231.51C108.401 231.51 107.821 231.451 107.235 231.334C106.663 231.217 106.135 231.019 105.651 230.74C105.181 230.461 104.785 230.095 104.463 229.64C104.14 229.185 103.949 228.628 103.891 227.968H106.399C106.472 228.32 106.597 228.606 106.773 228.826C106.949 229.046 107.154 229.215 107.389 229.332C107.638 229.464 107.909 229.545 108.203 229.574C108.496 229.618 108.804 229.64 109.127 229.64C110.139 229.64 110.879 229.391 111.349 228.892C111.818 228.393 112.053 227.675 112.053 226.736V224.998H112.009C111.657 225.629 111.173 226.12 110.557 226.472C109.955 226.824 109.303 227 108.599 227C107.689 227 106.912 226.846 106.267 226.538C105.636 226.215 105.108 225.783 104.683 225.24C104.272 224.683 103.971 224.045 103.781 223.326C103.59 222.607 103.495 221.837 103.495 221.016C103.495 220.253 103.612 219.527 103.847 218.838C104.081 218.149 104.419 217.547 104.859 217.034C105.299 216.506 105.834 216.088 106.465 215.78C107.11 215.472 107.836 215.318 108.643 215.318C109.361 215.318 110.021 215.472 110.623 215.78C111.224 216.073 111.686 216.543 112.009 217.188H112.053V215.626H114.561V226.406ZM108.995 225.02C109.552 225.02 110.021 224.91 110.403 224.69C110.799 224.455 111.114 224.155 111.349 223.788C111.598 223.407 111.774 222.981 111.877 222.512C111.994 222.028 112.053 221.544 112.053 221.06C112.053 220.576 111.994 220.107 111.877 219.652C111.759 219.197 111.576 218.794 111.327 218.442C111.092 218.09 110.777 217.811 110.381 217.606C109.999 217.401 109.537 217.298 108.995 217.298C108.437 217.298 107.968 217.415 107.587 217.65C107.205 217.885 106.897 218.193 106.663 218.574C106.428 218.941 106.259 219.366 106.157 219.85C106.054 220.319 106.003 220.789 106.003 221.258C106.003 221.727 106.061 222.189 106.179 222.644C106.296 223.084 106.472 223.48 106.707 223.832C106.956 224.184 107.264 224.47 107.631 224.69C108.012 224.91 108.467 225.02 108.995 225.02ZM117.086 215.626H119.462V217.298L119.506 217.342C119.887 216.711 120.386 216.22 121.002 215.868C121.618 215.501 122.3 215.318 123.048 215.318C124.294 215.318 125.277 215.641 125.996 216.286C126.714 216.931 127.074 217.899 127.074 219.19V227H124.566V219.85C124.536 218.955 124.346 218.31 123.994 217.914C123.642 217.503 123.092 217.298 122.344 217.298C121.918 217.298 121.537 217.379 121.2 217.54C120.862 217.687 120.576 217.899 120.342 218.178C120.107 218.442 119.924 218.757 119.792 219.124C119.66 219.491 119.594 219.879 119.594 220.29V227H117.086V215.626ZM30.374 238.292H33.3L39.35 254H36.402L34.928 249.842H28.658L27.184 254H24.346L30.374 238.292ZM29.406 247.752H34.202L31.848 240.998H31.782L29.406 247.752ZM40.4938 242.626H42.8698V244.298L42.9138 244.342C43.2952 243.711 43.7938 243.22 44.4098 242.868C45.0258 242.501 45.7078 242.318 46.4558 242.318C47.7025 242.318 48.6852 242.641 49.4038 243.286C50.1225 243.931 50.4818 244.899 50.4818 246.19V254H47.9738V246.85C47.9445 245.955 47.7538 245.31 47.4018 244.914C47.0498 244.503 46.4998 244.298 45.7518 244.298C45.3265 244.298 44.9452 244.379 44.6078 244.54C44.2705 244.687 43.9845 244.899 43.7498 245.178C43.5152 245.442 43.3318 245.757 43.1998 246.124C43.0678 246.491 43.0018 246.879 43.0018 247.29V254H40.4938V242.626ZM62.6526 251.47C62.6526 251.778 62.6893 251.998 62.7626 252.13C62.8506 252.262 63.012 252.328 63.2466 252.328C63.32 252.328 63.408 252.328 63.5106 252.328C63.6133 252.328 63.7306 252.313 63.8626 252.284V254.022C63.7746 254.051 63.6573 254.081 63.5106 254.11C63.3786 254.154 63.2393 254.191 63.0926 254.22C62.946 254.249 62.7993 254.271 62.6526 254.286C62.506 254.301 62.3813 254.308 62.2786 254.308C61.7653 254.308 61.34 254.205 61.0026 254C60.6653 253.795 60.4453 253.435 60.3426 252.922C59.844 253.406 59.228 253.758 58.4946 253.978C57.776 254.198 57.0793 254.308 56.4046 254.308C55.8913 254.308 55.4 254.235 54.9306 254.088C54.4613 253.956 54.0433 253.758 53.6766 253.494C53.3246 253.215 53.0386 252.871 52.8186 252.46C52.6133 252.035 52.5106 251.543 52.5106 250.986C52.5106 250.282 52.6353 249.71 52.8846 249.27C53.1486 248.83 53.486 248.485 53.8966 248.236C54.322 247.987 54.7913 247.811 55.3046 247.708C55.8326 247.591 56.3606 247.503 56.8886 247.444C57.3433 247.356 57.776 247.297 58.1866 247.268C58.5973 247.224 58.9566 247.158 59.2646 247.07C59.5873 246.982 59.8366 246.85 60.0126 246.674C60.2033 246.483 60.2986 246.205 60.2986 245.838C60.2986 245.515 60.218 245.251 60.0566 245.046C59.91 244.841 59.7193 244.687 59.4846 244.584C59.2646 244.467 59.0153 244.393 58.7366 244.364C58.458 244.32 58.194 244.298 57.9446 244.298C57.2406 244.298 56.6613 244.445 56.2066 244.738C55.752 245.031 55.4953 245.486 55.4366 246.102H52.9286C52.9726 245.369 53.1486 244.76 53.4566 244.276C53.7646 243.792 54.1533 243.403 54.6226 243.11C55.1066 242.817 55.6493 242.611 56.2506 242.494C56.852 242.377 57.468 242.318 58.0986 242.318C58.656 242.318 59.206 242.377 59.7486 242.494C60.2913 242.611 60.7753 242.802 61.2006 243.066C61.6406 243.33 61.9926 243.675 62.2566 244.1C62.5206 244.511 62.6526 245.017 62.6526 245.618V251.47ZM60.1446 248.302C59.7633 248.551 59.294 248.705 58.7366 248.764C58.1793 248.808 57.622 248.881 57.0646 248.984C56.8006 249.028 56.544 249.094 56.2946 249.182C56.0453 249.255 55.8253 249.365 55.6346 249.512C55.444 249.644 55.29 249.827 55.1726 250.062C55.07 250.282 55.0186 250.553 55.0186 250.876C55.0186 251.155 55.0993 251.389 55.2606 251.58C55.422 251.771 55.6126 251.925 55.8326 252.042C56.0673 252.145 56.3166 252.218 56.5806 252.262C56.8593 252.306 57.1086 252.328 57.3286 252.328C57.6073 252.328 57.908 252.291 58.2306 252.218C58.5533 252.145 58.854 252.02 59.1326 251.844C59.426 251.668 59.668 251.448 59.8586 251.184C60.0493 250.905 60.1446 250.568 60.1446 250.172V248.302ZM65.4173 238.292H67.9253V254H65.4173V238.292ZM69.4039 242.626H72.1539L75.1239 251.118H75.1679L78.0499 242.626H80.6679L76.2459 254.616C76.0406 255.129 75.8352 255.621 75.6299 256.09C75.4392 256.559 75.1972 256.97 74.9039 257.322C74.6252 257.689 74.2732 257.975 73.8479 258.18C73.4226 258.4 72.8799 258.51 72.2199 258.51C71.6332 258.51 71.0539 258.466 70.4819 258.378V256.266C70.6872 256.295 70.8852 256.325 71.0759 256.354C71.2666 256.398 71.4646 256.42 71.6699 256.42C71.9632 256.42 72.2052 256.383 72.3959 256.31C72.5866 256.237 72.7406 256.127 72.8579 255.98C72.9899 255.848 73.0999 255.687 73.1879 255.496C73.2759 255.305 73.3566 255.085 73.4299 254.836L73.7159 253.956L69.4039 242.626ZM80.9221 242.626H82.8141V239.216H85.3221V242.626H87.5881V244.496H85.3221V250.568C85.3221 250.832 85.3294 251.059 85.3441 251.25C85.3734 251.441 85.4248 251.602 85.4981 251.734C85.5861 251.866 85.7108 251.969 85.8721 252.042C86.0334 252.101 86.2534 252.13 86.5321 252.13C86.7081 252.13 86.8841 252.13 87.0601 252.13C87.2361 252.115 87.4121 252.086 87.5881 252.042V253.978C87.3094 254.007 87.0381 254.037 86.7741 254.066C86.5101 254.095 86.2388 254.11 85.9601 254.11C85.3001 254.11 84.7648 254.051 84.3541 253.934C83.9581 253.802 83.6428 253.619 83.4081 253.384C83.1881 253.135 83.0341 252.827 82.9461 252.46C82.8728 252.093 82.8288 251.675 82.8141 251.206V244.496H80.9221V242.626ZM89.4583 238.292H91.9663V240.668H89.4583V238.292ZM89.4583 242.626H91.9663V254H89.4583V242.626ZM102.377 246.432C102.274 245.728 101.988 245.2 101.519 244.848C101.064 244.481 100.485 244.298 99.7809 244.298C99.4582 244.298 99.1136 244.357 98.7469 244.474C98.3802 244.577 98.0429 244.782 97.7349 245.09C97.4269 245.383 97.1702 245.801 96.9649 246.344C96.7596 246.872 96.6569 247.569 96.6569 248.434C96.6569 248.903 96.7082 249.373 96.8109 249.842C96.9282 250.311 97.1042 250.729 97.3389 251.096C97.5882 251.463 97.9036 251.763 98.2849 251.998C98.6662 252.218 99.1282 252.328 99.6709 252.328C100.404 252.328 101.006 252.101 101.475 251.646C101.959 251.191 102.26 250.553 102.377 249.732H104.885C104.65 251.213 104.086 252.35 103.191 253.142C102.311 253.919 101.138 254.308 99.6709 254.308C98.7762 254.308 97.9842 254.161 97.2949 253.868C96.6202 253.56 96.0482 253.149 95.5789 252.636C95.1096 252.108 94.7502 251.485 94.5009 250.766C94.2662 250.047 94.1489 249.27 94.1489 248.434C94.1489 247.583 94.2662 246.784 94.5009 246.036C94.7356 245.288 95.0876 244.643 95.5569 244.1C96.0262 243.543 96.6056 243.11 97.2949 242.802C97.9989 242.479 98.8202 242.318 99.7589 242.318C100.419 242.318 101.042 242.406 101.629 242.582C102.23 242.743 102.758 242.993 103.213 243.33C103.682 243.667 104.064 244.093 104.357 244.606C104.65 245.119 104.826 245.728 104.885 246.432H102.377ZM108.816 250.348C108.889 251.081 109.168 251.595 109.652 251.888C110.136 252.181 110.715 252.328 111.39 252.328C111.624 252.328 111.888 252.313 112.182 252.284C112.49 252.24 112.776 252.167 113.04 252.064C113.304 251.961 113.516 251.815 113.678 251.624C113.854 251.419 113.934 251.155 113.92 250.832C113.905 250.509 113.788 250.245 113.568 250.04C113.348 249.835 113.062 249.673 112.71 249.556C112.372 249.424 111.984 249.314 111.544 249.226C111.104 249.138 110.656 249.043 110.202 248.94C109.732 248.837 109.278 248.713 108.838 248.566C108.412 248.419 108.024 248.221 107.672 247.972C107.334 247.723 107.063 247.407 106.858 247.026C106.652 246.63 106.55 246.146 106.55 245.574C106.55 244.958 106.696 244.445 106.99 244.034C107.298 243.609 107.679 243.271 108.134 243.022C108.603 242.758 109.116 242.575 109.674 242.472C110.246 242.369 110.788 242.318 111.302 242.318C111.888 242.318 112.446 242.384 112.974 242.516C113.516 242.633 114 242.831 114.426 243.11C114.866 243.389 115.225 243.755 115.504 244.21C115.797 244.65 115.98 245.185 116.054 245.816H113.436C113.318 245.215 113.04 244.811 112.6 244.606C112.174 244.401 111.683 244.298 111.126 244.298C110.95 244.298 110.737 244.313 110.488 244.342C110.253 244.371 110.026 244.43 109.806 244.518C109.6 244.591 109.424 244.709 109.278 244.87C109.131 245.017 109.058 245.215 109.058 245.464C109.058 245.772 109.16 246.021 109.366 246.212C109.586 246.403 109.864 246.564 110.202 246.696C110.554 246.813 110.95 246.916 111.39 247.004C111.83 247.092 112.284 247.187 112.754 247.29C113.208 247.393 113.656 247.517 114.096 247.664C114.536 247.811 114.924 248.009 115.262 248.258C115.614 248.507 115.892 248.823 116.098 249.204C116.318 249.585 116.428 250.055 116.428 250.612C116.428 251.287 116.274 251.859 115.966 252.328C115.658 252.797 115.254 253.179 114.756 253.472C114.272 253.765 113.729 253.978 113.128 254.11C112.526 254.242 111.932 254.308 111.346 254.308C110.627 254.308 109.96 254.227 109.344 254.066C108.742 253.905 108.214 253.663 107.76 253.34C107.32 253.003 106.968 252.592 106.704 252.108C106.454 251.609 106.322 251.023 106.308 250.348H108.816ZM26.172 265.292H32.684C33.8867 265.292 34.928 265.497 35.808 265.908C36.688 266.319 37.4067 266.883 37.964 267.602C38.5213 268.306 38.932 269.135 39.196 270.088C39.4747 271.041 39.614 272.061 39.614 273.146C39.614 274.231 39.4747 275.251 39.196 276.204C38.932 277.157 38.5213 277.993 37.964 278.712C37.4067 279.416 36.688 279.973 35.808 280.384C34.928 280.795 33.8867 281 32.684 281H26.172V265.292ZM28.922 278.756H31.628C32.6987 278.756 33.5713 278.617 34.246 278.338C34.9353 278.045 35.4707 277.649 35.852 277.15C36.248 276.637 36.512 276.043 36.644 275.368C36.7907 274.679 36.864 273.938 36.864 273.146C36.864 272.354 36.7907 271.621 36.644 270.946C36.512 270.257 36.248 269.663 35.852 269.164C35.4707 268.651 34.9353 268.255 34.246 267.976C33.5713 267.683 32.6987 267.536 31.628 267.536H28.922V278.756ZM51.223 278.47C51.223 278.778 51.2596 278.998 51.333 279.13C51.421 279.262 51.5823 279.328 51.817 279.328C51.8903 279.328 51.9783 279.328 52.081 279.328C52.1836 279.328 52.301 279.313 52.433 279.284V281.022C52.345 281.051 52.2276 281.081 52.081 281.11C51.949 281.154 51.8096 281.191 51.663 281.22C51.5163 281.249 51.3696 281.271 51.223 281.286C51.0763 281.301 50.9516 281.308 50.849 281.308C50.3356 281.308 49.9103 281.205 49.573 281C49.2356 280.795 49.0156 280.435 48.913 279.922C48.4143 280.406 47.7983 280.758 47.065 280.978C46.3463 281.198 45.6496 281.308 44.975 281.308C44.4616 281.308 43.9703 281.235 43.501 281.088C43.0316 280.956 42.6136 280.758 42.247 280.494C41.895 280.215 41.609 279.871 41.389 279.46C41.1836 279.035 41.081 278.543 41.081 277.986C41.081 277.282 41.2056 276.71 41.455 276.27C41.719 275.83 42.0563 275.485 42.467 275.236C42.8923 274.987 43.3616 274.811 43.875 274.708C44.403 274.591 44.931 274.503 45.459 274.444C45.9136 274.356 46.3463 274.297 46.757 274.268C47.1676 274.224 47.527 274.158 47.835 274.07C48.1576 273.982 48.407 273.85 48.583 273.674C48.7736 273.483 48.869 273.205 48.869 272.838C48.869 272.515 48.7883 272.251 48.627 272.046C48.4803 271.841 48.2896 271.687 48.055 271.584C47.835 271.467 47.5856 271.393 47.307 271.364C47.0283 271.32 46.7643 271.298 46.515 271.298C45.811 271.298 45.2316 271.445 44.777 271.738C44.3223 272.031 44.0656 272.486 44.007 273.102H41.499C41.543 272.369 41.719 271.76 42.027 271.276C42.335 270.792 42.7236 270.403 43.193 270.11C43.677 269.817 44.2196 269.611 44.821 269.494C45.4223 269.377 46.0383 269.318 46.669 269.318C47.2263 269.318 47.7763 269.377 48.319 269.494C48.8616 269.611 49.3456 269.802 49.771 270.066C50.211 270.33 50.563 270.675 50.827 271.1C51.091 271.511 51.223 272.017 51.223 272.618V278.47ZM48.715 275.302C48.3336 275.551 47.8643 275.705 47.307 275.764C46.7496 275.808 46.1923 275.881 45.635 275.984C45.371 276.028 45.1143 276.094 44.865 276.182C44.6156 276.255 44.3956 276.365 44.205 276.512C44.0143 276.644 43.8603 276.827 43.743 277.062C43.6403 277.282 43.589 277.553 43.589 277.876C43.589 278.155 43.6696 278.389 43.831 278.58C43.9923 278.771 44.183 278.925 44.403 279.042C44.6376 279.145 44.887 279.218 45.151 279.262C45.4296 279.306 45.679 279.328 45.899 279.328C46.1776 279.328 46.4783 279.291 46.801 279.218C47.1236 279.145 47.4243 279.02 47.703 278.844C47.9963 278.668 48.2383 278.448 48.429 278.184C48.6196 277.905 48.715 277.568 48.715 277.172V275.302ZM55.8136 277.348C55.8869 278.081 56.1656 278.595 56.6496 278.888C57.1336 279.181 57.7129 279.328 58.3876 279.328C58.6222 279.328 58.8862 279.313 59.1796 279.284C59.4876 279.24 59.7736 279.167 60.0376 279.064C60.3016 278.961 60.5142 278.815 60.6756 278.624C60.8516 278.419 60.9322 278.155 60.9176 277.832C60.9029 277.509 60.7856 277.245 60.5656 277.04C60.3456 276.835 60.0596 276.673 59.7076 276.556C59.3702 276.424 58.9816 276.314 58.5416 276.226C58.1016 276.138 57.6542 276.043 57.1996 275.94C56.7302 275.837 56.2756 275.713 55.8356 275.566C55.4102 275.419 55.0216 275.221 54.6696 274.972C54.3322 274.723 54.0609 274.407 53.8556 274.026C53.6502 273.63 53.5476 273.146 53.5476 272.574C53.5476 271.958 53.6942 271.445 53.9876 271.034C54.2956 270.609 54.6769 270.271 55.1316 270.022C55.6009 269.758 56.1142 269.575 56.6716 269.472C57.2436 269.369 57.7862 269.318 58.2996 269.318C58.8862 269.318 59.4436 269.384 59.9716 269.516C60.5142 269.633 60.9982 269.831 61.4236 270.11C61.8636 270.389 62.2229 270.755 62.5016 271.21C62.7949 271.65 62.9782 272.185 63.0516 272.816H60.4336C60.3162 272.215 60.0376 271.811 59.5976 271.606C59.1722 271.401 58.6809 271.298 58.1236 271.298C57.9476 271.298 57.7349 271.313 57.4856 271.342C57.2509 271.371 57.0236 271.43 56.8036 271.518C56.5982 271.591 56.4222 271.709 56.2756 271.87C56.1289 272.017 56.0556 272.215 56.0556 272.464C56.0556 272.772 56.1582 273.021 56.3636 273.212C56.5836 273.403 56.8622 273.564 57.1996 273.696C57.5516 273.813 57.9476 273.916 58.3876 274.004C58.8276 274.092 59.2822 274.187 59.7516 274.29C60.2062 274.393 60.6536 274.517 61.0936 274.664C61.5336 274.811 61.9222 275.009 62.2596 275.258C62.6116 275.507 62.8902 275.823 63.0956 276.204C63.3156 276.585 63.4256 277.055 63.4256 277.612C63.4256 278.287 63.2716 278.859 62.9636 279.328C62.6556 279.797 62.2522 280.179 61.7536 280.472C61.2696 280.765 60.7269 280.978 60.1256 281.11C59.5242 281.242 58.9302 281.308 58.3436 281.308C57.6249 281.308 56.9576 281.227 56.3416 281.066C55.7402 280.905 55.2122 280.663 54.7576 280.34C54.3176 280.003 53.9656 279.592 53.7016 279.108C53.4522 278.609 53.3202 278.023 53.3056 277.348H55.8136ZM65.3298 265.292H67.8378V271.122H67.8818C68.1898 270.609 68.6444 270.183 69.2458 269.846C69.8618 269.494 70.5438 269.318 71.2918 269.318C72.5384 269.318 73.5211 269.641 74.2398 270.286C74.9584 270.931 75.3178 271.899 75.3178 273.19V281H72.8098V273.85C72.7804 272.955 72.5898 272.31 72.2378 271.914C71.8858 271.503 71.3358 271.298 70.5878 271.298C70.1624 271.298 69.7811 271.379 69.4438 271.54C69.1064 271.687 68.8204 271.899 68.5858 272.178C68.3511 272.442 68.1678 272.757 68.0358 273.124C67.9038 273.491 67.8378 273.879 67.8378 274.29V281H65.3298V265.292ZM78.0286 265.292H80.5366V271.1H80.5806C80.7566 270.821 80.9692 270.572 81.2186 270.352C81.4679 270.132 81.7392 269.949 82.0326 269.802C82.3406 269.641 82.6559 269.523 82.9786 269.45C83.3159 269.362 83.6459 269.318 83.9686 269.318C84.8632 269.318 85.6406 269.479 86.3006 269.802C86.9752 270.11 87.5326 270.543 87.9726 271.1C88.4126 271.643 88.7426 272.281 88.9626 273.014C89.1826 273.747 89.2926 274.532 89.2926 275.368C89.2926 276.131 89.1899 276.871 88.9846 277.59C88.7939 278.309 88.4932 278.947 88.0826 279.504C87.6866 280.047 87.1806 280.487 86.5646 280.824C85.9486 281.147 85.2226 281.308 84.3866 281.308C84.0052 281.308 83.6166 281.279 83.2206 281.22C82.8392 281.176 82.4726 281.081 82.1206 280.934C81.7686 280.787 81.4459 280.597 81.1526 280.362C80.8739 280.127 80.6392 279.819 80.4486 279.438H80.4046V281H78.0286V265.292ZM86.7846 275.324C86.7846 274.811 86.7186 274.312 86.5866 273.828C86.4546 273.344 86.2566 272.919 85.9926 272.552C85.7286 272.171 85.3986 271.87 85.0026 271.65C84.6066 271.415 84.1519 271.298 83.6386 271.298C82.5826 271.298 81.7832 271.665 81.2406 272.398C80.7126 273.131 80.4486 274.107 80.4486 275.324C80.4486 275.896 80.5146 276.431 80.6466 276.93C80.7932 277.414 81.0059 277.832 81.2846 278.184C81.5632 278.536 81.8932 278.815 82.2746 279.02C82.6706 279.225 83.1252 279.328 83.6386 279.328C84.2106 279.328 84.6946 279.211 85.0906 278.976C85.4866 278.741 85.8092 278.441 86.0586 278.074C86.3226 277.693 86.5059 277.267 86.6086 276.798C86.7259 276.314 86.7846 275.823 86.7846 275.324ZM96.6258 281.308C95.7165 281.308 94.9025 281.161 94.1838 280.868C93.4798 280.56 92.8785 280.142 92.3798 279.614C91.8958 279.086 91.5218 278.455 91.2578 277.722C91.0085 276.989 90.8838 276.182 90.8838 275.302C90.8838 274.437 91.0085 273.637 91.2578 272.904C91.5218 272.171 91.8958 271.54 92.3798 271.012C92.8785 270.484 93.4798 270.073 94.1838 269.78C94.9025 269.472 95.7165 269.318 96.6258 269.318C97.5351 269.318 98.3418 269.472 99.0458 269.78C99.7645 270.073 100.366 270.484 100.85 271.012C101.348 271.54 101.722 272.171 101.972 272.904C102.236 273.637 102.368 274.437 102.368 275.302C102.368 276.182 102.236 276.989 101.972 277.722C101.722 278.455 101.348 279.086 100.85 279.614C100.366 280.142 99.7645 280.56 99.0458 280.868C98.3418 281.161 97.5351 281.308 96.6258 281.308ZM96.6258 279.328C97.1831 279.328 97.6671 279.211 98.0778 278.976C98.4885 278.741 98.8258 278.433 99.0898 278.052C99.3538 277.671 99.5445 277.245 99.6618 276.776C99.7938 276.292 99.8598 275.801 99.8598 275.302C99.8598 274.818 99.7938 274.334 99.6618 273.85C99.5445 273.366 99.3538 272.941 99.0898 272.574C98.8258 272.193 98.4885 271.885 98.0778 271.65C97.6671 271.415 97.1831 271.298 96.6258 271.298C96.0685 271.298 95.5845 271.415 95.1738 271.65C94.7631 271.885 94.4258 272.193 94.1618 272.574C93.8978 272.941 93.6998 273.366 93.5678 273.85C93.4505 274.334 93.3918 274.818 93.3918 275.302C93.3918 275.801 93.4505 276.292 93.5678 276.776C93.6998 277.245 93.8978 277.671 94.1618 278.052C94.4258 278.433 94.7631 278.741 95.1738 278.976C95.5845 279.211 96.0685 279.328 96.6258 279.328ZM113.979 278.47C113.979 278.778 114.015 278.998 114.089 279.13C114.177 279.262 114.338 279.328 114.573 279.328C114.646 279.328 114.734 279.328 114.837 279.328C114.939 279.328 115.057 279.313 115.189 279.284V281.022C115.101 281.051 114.983 281.081 114.837 281.11C114.705 281.154 114.565 281.191 114.419 281.22C114.272 281.249 114.125 281.271 113.979 281.286C113.832 281.301 113.707 281.308 113.605 281.308C113.091 281.308 112.666 281.205 112.329 281C111.991 280.795 111.771 280.435 111.669 279.922C111.17 280.406 110.554 280.758 109.821 280.978C109.102 281.198 108.405 281.308 107.731 281.308C107.217 281.308 106.726 281.235 106.257 281.088C105.787 280.956 105.369 280.758 105.003 280.494C104.651 280.215 104.365 279.871 104.145 279.46C103.939 279.035 103.837 278.543 103.837 277.986C103.837 277.282 103.961 276.71 104.211 276.27C104.475 275.83 104.812 275.485 105.223 275.236C105.648 274.987 106.117 274.811 106.631 274.708C107.159 274.591 107.687 274.503 108.215 274.444C108.669 274.356 109.102 274.297 109.513 274.268C109.923 274.224 110.283 274.158 110.591 274.07C110.913 273.982 111.163 273.85 111.339 273.674C111.529 273.483 111.625 273.205 111.625 272.838C111.625 272.515 111.544 272.251 111.383 272.046C111.236 271.841 111.045 271.687 110.811 271.584C110.591 271.467 110.341 271.393 110.063 271.364C109.784 271.32 109.52 271.298 109.271 271.298C108.567 271.298 107.987 271.445 107.533 271.738C107.078 272.031 106.821 272.486 106.763 273.102H104.255C104.299 272.369 104.475 271.76 104.783 271.276C105.091 270.792 105.479 270.403 105.949 270.11C106.433 269.817 106.975 269.611 107.577 269.494C108.178 269.377 108.794 269.318 109.425 269.318C109.982 269.318 110.532 269.377 111.075 269.494C111.617 269.611 112.101 269.802 112.527 270.066C112.967 270.33 113.319 270.675 113.583 271.1C113.847 271.511 113.979 272.017 113.979 272.618V278.47ZM111.471 275.302C111.089 275.551 110.62 275.705 110.063 275.764C109.505 275.808 108.948 275.881 108.391 275.984C108.127 276.028 107.87 276.094 107.621 276.182C107.371 276.255 107.151 276.365 106.961 276.512C106.77 276.644 106.616 276.827 106.499 277.062C106.396 277.282 106.345 277.553 106.345 277.876C106.345 278.155 106.425 278.389 106.587 278.58C106.748 278.771 106.939 278.925 107.159 279.042C107.393 279.145 107.643 279.218 107.907 279.262C108.185 279.306 108.435 279.328 108.655 279.328C108.933 279.328 109.234 279.291 109.557 279.218C109.879 279.145 110.18 279.02 110.459 278.844C110.752 278.668 110.994 278.448 111.185 278.184C111.375 277.905 111.471 277.568 111.471 277.172V275.302ZM116.677 269.626H119.031V271.826H119.075C119.149 271.518 119.288 271.217 119.493 270.924C119.713 270.631 119.97 270.367 120.263 270.132C120.571 269.883 120.909 269.685 121.275 269.538C121.642 269.391 122.016 269.318 122.397 269.318C122.691 269.318 122.889 269.325 122.991 269.34C123.109 269.355 123.226 269.369 123.343 269.384V271.804C123.167 271.775 122.984 271.753 122.793 271.738C122.617 271.709 122.441 271.694 122.265 271.694C121.84 271.694 121.437 271.782 121.055 271.958C120.689 272.119 120.366 272.369 120.087 272.706C119.809 273.029 119.589 273.432 119.427 273.916C119.266 274.4 119.185 274.957 119.185 275.588V281H116.677V269.626ZM134.739 281H132.363V279.46H132.319C131.982 280.12 131.49 280.597 130.845 280.89C130.2 281.169 129.518 281.308 128.799 281.308C127.904 281.308 127.12 281.154 126.445 280.846C125.785 280.523 125.235 280.091 124.795 279.548C124.355 279.005 124.025 278.367 123.805 277.634C123.585 276.886 123.475 276.087 123.475 275.236C123.475 274.209 123.614 273.322 123.893 272.574C124.172 271.826 124.538 271.21 124.993 270.726C125.462 270.242 125.99 269.89 126.577 269.67C127.178 269.435 127.787 269.318 128.403 269.318C128.755 269.318 129.114 269.355 129.481 269.428C129.848 269.487 130.2 269.589 130.537 269.736C130.874 269.883 131.182 270.073 131.461 270.308C131.754 270.528 131.996 270.792 132.187 271.1H132.231V265.292H134.739V281ZM125.983 275.434C125.983 275.918 126.042 276.395 126.159 276.864C126.291 277.333 126.482 277.751 126.731 278.118C126.995 278.485 127.325 278.778 127.721 278.998C128.117 279.218 128.586 279.328 129.129 279.328C129.686 279.328 130.163 279.211 130.559 278.976C130.97 278.741 131.3 278.433 131.549 278.052C131.813 277.671 132.004 277.245 132.121 276.776C132.253 276.292 132.319 275.801 132.319 275.302C132.319 274.041 132.033 273.058 131.461 272.354C130.904 271.65 130.141 271.298 129.173 271.298C128.586 271.298 128.088 271.423 127.677 271.672C127.281 271.907 126.951 272.222 126.687 272.618C126.438 272.999 126.254 273.439 126.137 273.938C126.034 274.422 125.983 274.921 125.983 275.434Z" fill="white"/>
<path d="M27.044 181.544V193H25.892V181.544H27.044ZM30.6935 193H29.5895V185.256H30.5495L30.7095 186.6C30.9655 186.109 31.3282 185.731 31.7975 185.464C32.2775 185.187 32.8002 185.048 33.3655 185.048C34.4322 185.048 35.2002 185.341 35.6695 185.928C36.1388 186.515 36.3735 187.293 36.3735 188.264V193H35.2695V188.504C35.2695 187.597 35.0775 186.963 34.6935 186.6C34.3202 186.237 33.8135 186.056 33.1735 186.056C32.3842 186.056 31.7708 186.323 31.3335 186.856C30.9068 187.379 30.6935 188.077 30.6935 188.952V193ZM37.8241 190.824H38.8801C38.8801 191.272 39.0401 191.629 39.3601 191.896C39.6801 192.152 40.1068 192.28 40.6401 192.28C41.2375 192.28 41.7015 192.163 42.0321 191.928C42.3735 191.683 42.5441 191.352 42.5441 190.936C42.5441 190.616 42.4535 190.36 42.2721 190.168C42.0908 189.976 41.7708 189.821 41.3121 189.704L39.9841 189.368C39.3121 189.197 38.8108 188.936 38.4801 188.584C38.1495 188.232 37.9841 187.795 37.9841 187.272C37.9841 186.824 38.1015 186.435 38.3361 186.104C38.5708 185.763 38.8961 185.501 39.3121 185.32C39.7388 185.139 40.2295 185.048 40.7841 185.048C41.3281 185.048 41.8028 185.144 42.2081 185.336C42.6135 185.528 42.9281 185.8 43.1521 186.152C43.3868 186.493 43.5095 186.904 43.5201 187.384H42.4481C42.4375 186.925 42.2828 186.573 41.9841 186.328C41.6855 186.083 41.2748 185.96 40.7521 185.96C40.2081 185.96 39.7868 186.072 39.4881 186.296C39.2001 186.52 39.0561 186.84 39.0561 187.256C39.0561 187.853 39.4775 188.259 40.3201 188.472L41.6481 188.808C42.3201 188.979 42.8108 189.229 43.1201 189.56C43.4401 189.891 43.6001 190.333 43.6001 190.888C43.6001 191.347 43.4775 191.752 43.2321 192.104C42.9868 192.456 42.6401 192.728 42.1921 192.92C41.7548 193.101 41.2428 193.192 40.6561 193.192C39.7921 193.192 39.1041 192.979 38.5921 192.552C38.0801 192.115 37.8241 191.539 37.8241 190.824ZM45.4176 193V185.256H46.5216V193H45.4176ZM45.9616 183.128C45.7376 183.128 45.5456 183.048 45.3856 182.888C45.2256 182.728 45.1456 182.536 45.1456 182.312C45.1456 182.088 45.2256 181.896 45.3856 181.736C45.5456 181.565 45.7376 181.48 45.9616 181.48C46.1856 181.48 46.3776 181.565 46.5376 181.736C46.7083 181.896 46.7936 182.088 46.7936 182.312C46.7936 182.536 46.7083 182.728 46.5376 182.888C46.3776 183.048 46.1856 183.128 45.9616 183.128ZM48.2959 188.904C48.2959 188.2 48.4399 187.56 48.7279 186.984C49.0159 186.397 49.4319 185.928 49.9759 185.576C50.5199 185.224 51.1705 185.048 51.9279 185.048C52.6639 185.048 53.2932 185.229 53.8159 185.592C54.3385 185.955 54.7119 186.477 54.9359 187.16L54.7599 187.384L54.9039 185.256H55.8639V192.76C55.8639 193.528 55.7092 194.195 55.3999 194.76C55.0905 195.336 54.6532 195.779 54.0879 196.088C53.5332 196.408 52.8772 196.568 52.1199 196.568C51.1279 196.568 50.3065 196.301 49.6559 195.768C49.0052 195.235 48.5999 194.504 48.4399 193.576H49.5439C49.6612 194.205 49.9439 194.691 50.3919 195.032C50.8505 195.384 51.4319 195.56 52.1359 195.56C52.9359 195.56 53.5759 195.315 54.0559 194.824C54.5359 194.333 54.7759 193.683 54.7759 192.872V190.44L54.9359 190.648C54.7119 191.299 54.3225 191.816 53.7679 192.2C53.2239 192.573 52.5839 192.76 51.8479 192.76C51.1119 192.76 50.4772 192.584 49.9439 192.232C49.4105 191.88 48.9999 191.416 48.7119 190.84C48.4345 190.253 48.2959 189.608 48.2959 188.904ZM49.3999 188.888C49.3999 189.421 49.5012 189.907 49.7039 190.344C49.9172 190.781 50.2159 191.128 50.5999 191.384C50.9945 191.64 51.4639 191.768 52.0079 191.768C52.5625 191.768 53.0372 191.645 53.4319 191.4C53.8372 191.144 54.1465 190.803 54.3599 190.376C54.5732 189.939 54.6799 189.443 54.6799 188.888C54.6799 188.333 54.5732 187.843 54.3599 187.416C54.1572 186.989 53.8585 186.653 53.4639 186.408C53.0799 186.152 52.5999 186.024 52.0239 186.024C51.4692 186.024 50.9945 186.157 50.5999 186.424C50.2159 186.68 49.9172 187.027 49.7039 187.464C49.5012 187.891 49.3999 188.365 49.3999 188.888ZM59.2716 192.984H58.1676V181.336H59.2716V186.6C59.517 186.131 59.869 185.757 60.3276 185.48C60.797 185.192 61.357 185.048 62.0076 185.048C63.0316 185.048 63.7783 185.341 64.2476 185.928C64.717 186.515 64.9516 187.293 64.9516 188.264V193H63.8476V188.504C63.8476 187.896 63.7623 187.416 63.5916 187.064C63.421 186.701 63.181 186.445 62.8716 186.296C62.5623 186.136 62.205 186.056 61.7996 186.056C61.245 186.056 60.781 186.179 60.4076 186.424C60.0343 186.669 59.7516 187 59.5596 187.416C59.3676 187.821 59.2716 188.275 59.2716 188.776V192.984ZM66.288 185.256H70.48V186.184H66.288V185.256ZM68.928 193H67.84V182.808H68.928V193ZM71.2616 190.824H72.3176C72.3176 191.272 72.4776 191.629 72.7976 191.896C73.1176 192.152 73.5443 192.28 74.0776 192.28C74.675 192.28 75.139 192.163 75.4696 191.928C75.811 191.683 75.9816 191.352 75.9816 190.936C75.9816 190.616 75.891 190.36 75.7096 190.168C75.5283 189.976 75.2083 189.821 74.7496 189.704L73.4216 189.368C72.7496 189.197 72.2483 188.936 71.9176 188.584C71.587 188.232 71.4216 187.795 71.4216 187.272C71.4216 186.824 71.539 186.435 71.7736 186.104C72.0083 185.763 72.3336 185.501 72.7496 185.32C73.1763 185.139 73.667 185.048 74.2216 185.048C74.7656 185.048 75.2403 185.144 75.6456 185.336C76.051 185.528 76.3656 185.8 76.5896 186.152C76.8243 186.493 76.947 186.904 76.9576 187.384H75.8856C75.875 186.925 75.7203 186.573 75.4216 186.328C75.123 186.083 74.7123 185.96 74.1896 185.96C73.6456 185.96 73.2243 186.072 72.9256 186.296C72.6376 186.52 72.4936 186.84 72.4936 187.256C72.4936 187.853 72.915 188.259 73.7576 188.472L75.0856 188.808C75.7576 188.979 76.2483 189.229 76.5576 189.56C76.8776 189.891 77.0376 190.333 77.0376 190.888C77.0376 191.347 76.915 191.752 76.6696 192.104C76.4243 192.456 76.0776 192.728 75.6296 192.92C75.1923 193.101 74.6803 193.192 74.0936 193.192C73.2296 193.192 72.5416 192.979 72.0296 192.552C71.5176 192.115 71.2616 191.539 71.2616 190.824ZM84.6846 193H83.5326V181.544H84.6846V186.648H90.8766V181.544H92.0126V193H90.8766V187.72H84.6846V193ZM100.014 185.256H101.118V193H100.158L100.014 191.688C99.8005 192.136 99.4432 192.499 98.9419 192.776C98.4512 193.053 97.9019 193.192 97.2939 193.192C96.3872 193.192 95.6885 192.904 95.1979 192.328C94.7179 191.752 94.4779 190.995 94.4779 190.056V185.24H95.5979V189.704C95.5979 190.621 95.7845 191.267 96.1579 191.64C96.5419 192.013 97.0379 192.2 97.6459 192.2C98.3925 192.2 98.9739 191.96 99.3899 191.48C99.8059 190.989 100.014 190.285 100.014 189.368V185.256ZM104.378 193H103.418V181.336H104.522V186.76C104.788 186.184 105.172 185.757 105.674 185.48C106.186 185.192 106.772 185.048 107.434 185.048C108.191 185.048 108.831 185.229 109.354 185.592C109.887 185.944 110.292 186.429 110.57 187.048C110.858 187.667 111.002 188.365 111.002 189.144C111.002 189.912 110.858 190.605 110.57 191.224C110.282 191.832 109.871 192.312 109.338 192.664C108.804 193.016 108.159 193.192 107.402 193.192C106.762 193.192 106.186 193.048 105.674 192.76C105.162 192.461 104.767 192.013 104.49 191.416L104.378 193ZM104.538 189.112C104.538 189.709 104.644 190.243 104.858 190.712C105.071 191.171 105.375 191.533 105.77 191.8C106.175 192.056 106.66 192.184 107.226 192.184C107.791 192.184 108.271 192.056 108.666 191.8C109.06 191.533 109.359 191.171 109.562 190.712C109.775 190.243 109.882 189.709 109.882 189.112C109.882 188.515 109.775 187.987 109.562 187.528C109.359 187.069 109.06 186.707 108.666 186.44C108.271 186.173 107.791 186.04 107.226 186.04C106.66 186.04 106.175 186.173 105.77 186.44C105.375 186.707 105.071 187.069 104.858 187.528C104.644 187.987 104.538 188.515 104.538 189.112Z" fill="white"/>
<g filter="url(#filter1_d_89_1510)">
<rect x="52.5" y="18.1777" width="150.525" height="138.283" rx="9.06777" transform="rotate(-6.55283 52.5 18.1777)" fill="white"/>
</g>
<path d="M179.693 127.528L178.941 120.976L179.36 120.928L180.113 127.48L179.693 127.528ZM180.579 122.779C180.519 122.524 180.371 122.337 180.136 122.218C179.901 122.1 179.625 122.059 179.308 122.096C179.076 122.122 178.877 122.183 178.712 122.278C178.548 122.373 178.425 122.492 178.343 122.634C178.262 122.777 178.232 122.931 178.251 123.099C178.267 123.239 178.314 123.355 178.392 123.448C178.472 123.539 178.568 123.612 178.682 123.666C178.795 123.719 178.912 123.76 179.033 123.789C179.154 123.817 179.264 123.838 179.364 123.852L179.913 123.935C180.054 123.955 180.211 123.987 180.386 124.031C180.562 124.074 180.733 124.142 180.899 124.234C181.067 124.323 181.211 124.447 181.331 124.604C181.451 124.761 181.525 124.963 181.553 125.209C181.586 125.492 181.541 125.756 181.419 126.002C181.298 126.247 181.104 126.454 180.836 126.621C180.57 126.788 180.236 126.895 179.833 126.941C179.458 126.984 179.126 126.961 178.837 126.872C178.55 126.782 178.316 126.638 178.134 126.439C177.954 126.24 177.837 125.998 177.784 125.714L178.439 125.639C178.479 125.835 178.564 125.991 178.695 126.107C178.828 126.222 178.987 126.3 179.173 126.343C179.361 126.383 179.559 126.392 179.767 126.368C180.01 126.34 180.223 126.276 180.407 126.175C180.59 126.073 180.73 125.944 180.826 125.79C180.923 125.634 180.96 125.46 180.938 125.269C180.918 125.095 180.853 124.959 180.743 124.861C180.633 124.763 180.495 124.689 180.329 124.639C180.162 124.589 179.984 124.549 179.794 124.519L179.128 124.409C178.705 124.338 178.361 124.207 178.097 124.016C177.833 123.825 177.681 123.553 177.64 123.2C177.607 122.906 177.657 122.641 177.79 122.405C177.925 122.166 178.121 121.971 178.376 121.819C178.633 121.665 178.929 121.569 179.264 121.53C179.601 121.491 179.909 121.517 180.185 121.608C180.462 121.698 180.689 121.838 180.866 122.028C181.045 122.218 181.154 122.445 181.193 122.709L180.579 122.779ZM184.314 126.406C184.014 126.44 183.737 126.412 183.482 126.32C183.228 126.228 183.016 126.086 182.847 125.895C182.678 125.703 182.572 125.475 182.528 125.211L183.142 125.14C183.193 125.375 183.323 125.558 183.532 125.692C183.742 125.823 183.982 125.873 184.249 125.843C184.464 125.818 184.65 125.746 184.805 125.626C184.963 125.506 185.079 125.352 185.154 125.166C185.231 124.977 185.257 124.771 185.231 124.548C185.205 124.319 185.131 124.121 185.01 123.953C184.89 123.784 184.737 123.657 184.551 123.573C184.365 123.489 184.161 123.459 183.937 123.483C183.776 123.499 183.614 123.543 183.451 123.614C183.288 123.683 183.157 123.762 183.056 123.854L182.454 123.85L182.475 121.234L185.198 120.921L185.263 121.484L183.072 121.736L183.066 123.303L183.096 123.299C183.194 123.202 183.321 123.115 183.476 123.04C183.632 122.965 183.798 122.918 183.973 122.898C184.294 122.861 184.589 122.905 184.857 123.03C185.127 123.152 185.349 123.338 185.523 123.586C185.698 123.834 185.805 124.127 185.844 124.467C185.883 124.801 185.842 125.108 185.722 125.388C185.603 125.666 185.422 125.896 185.179 126.078C184.935 126.258 184.647 126.368 184.314 126.406ZM187.684 125.22L187.675 125.501C187.668 125.699 187.648 125.912 187.614 126.141C187.581 126.369 187.545 126.585 187.504 126.789C187.463 126.992 187.429 127.154 187.402 127.275L186.941 127.328C186.951 127.216 186.963 127.069 186.978 126.885C186.994 126.702 187.006 126.498 187.017 126.272C187.029 126.047 187.034 125.818 187.031 125.585L187.029 125.295L187.684 125.22ZM190.441 125.702C190.226 125.723 190.006 125.707 189.782 125.653C189.558 125.599 189.347 125.49 189.148 125.324C188.949 125.157 188.777 124.92 188.633 124.613C188.489 124.305 188.389 123.908 188.333 123.424C188.28 122.96 188.276 122.543 188.322 122.175C188.367 121.805 188.459 121.488 188.596 121.223C188.733 120.957 188.911 120.746 189.13 120.591C189.351 120.436 189.609 120.342 189.904 120.308C190.198 120.274 190.466 120.303 190.708 120.395C190.951 120.484 191.158 120.625 191.327 120.816C191.496 121.008 191.617 121.237 191.691 121.503L191.066 121.575C190.981 121.346 190.846 121.163 190.661 121.027C190.476 120.891 190.245 120.839 189.969 120.871C189.563 120.918 189.263 121.131 189.07 121.511C188.879 121.891 188.819 122.4 188.89 123.038L188.931 123.033C189.01 122.877 189.109 122.741 189.229 122.623C189.35 122.504 189.488 122.407 189.642 122.332C189.795 122.257 189.962 122.21 190.141 122.189C190.441 122.155 190.725 122.198 190.991 122.32C191.257 122.44 191.48 122.622 191.661 122.868C191.841 123.112 191.95 123.402 191.989 123.74C192.026 124.064 191.988 124.37 191.874 124.656C191.76 124.94 191.58 125.177 191.336 125.366C191.093 125.553 190.795 125.665 190.441 125.702ZM190.376 125.139C190.591 125.114 190.778 125.038 190.936 124.911C191.096 124.784 191.215 124.624 191.293 124.432C191.373 124.24 191.4 124.032 191.375 123.811C191.35 123.594 191.279 123.403 191.161 123.236C191.045 123.068 190.896 122.941 190.715 122.854C190.536 122.768 190.339 122.737 190.124 122.762C189.962 122.78 189.815 122.83 189.682 122.911C189.549 122.99 189.437 123.091 189.344 123.214C189.252 123.337 189.185 123.474 189.142 123.624C189.098 123.772 189.086 123.925 189.104 124.082C189.127 124.29 189.198 124.479 189.316 124.649C189.436 124.818 189.588 124.949 189.771 125.04C189.956 125.131 190.158 125.164 190.376 125.139ZM194.938 125.185C194.723 125.207 194.503 125.19 194.279 125.137C194.055 125.083 193.844 124.973 193.645 124.808C193.446 124.64 193.274 124.403 193.13 124.097C192.986 123.788 192.886 123.392 192.83 122.907C192.777 122.443 192.773 122.027 192.819 121.659C192.865 121.289 192.956 120.971 193.093 120.707C193.231 120.44 193.409 120.23 193.628 120.075C193.848 119.92 194.106 119.825 194.402 119.791C194.695 119.758 194.963 119.786 195.205 119.878C195.449 119.968 195.655 120.108 195.824 120.3C195.993 120.491 196.114 120.72 196.188 120.986L195.564 121.058C195.478 120.829 195.343 120.647 195.158 120.511C194.973 120.375 194.743 120.323 194.466 120.354C194.06 120.401 193.761 120.614 193.567 120.994C193.376 121.374 193.316 121.883 193.388 122.522L193.428 122.517C193.507 122.361 193.607 122.224 193.726 122.107C193.847 121.987 193.985 121.89 194.139 121.816C194.293 121.741 194.459 121.693 194.638 121.673C194.939 121.638 195.222 121.682 195.488 121.803C195.754 121.923 195.978 122.106 196.158 122.351C196.338 122.595 196.448 122.886 196.486 123.224C196.524 123.548 196.485 123.853 196.371 124.139C196.257 124.424 196.078 124.66 195.833 124.849C195.59 125.036 195.292 125.148 194.938 125.185ZM194.873 124.622C195.088 124.598 195.275 124.522 195.433 124.395C195.593 124.267 195.712 124.108 195.791 123.915C195.87 123.723 195.898 123.516 195.872 123.294C195.847 123.077 195.776 122.886 195.658 122.72C195.542 122.551 195.394 122.424 195.213 122.338C195.033 122.251 194.836 122.22 194.621 122.245C194.459 122.264 194.312 122.313 194.179 122.394C194.047 122.474 193.934 122.575 193.841 122.698C193.749 122.821 193.682 122.957 193.639 123.107C193.595 123.256 193.583 123.408 193.601 123.565C193.625 123.774 193.696 123.962 193.814 124.132C193.933 124.302 194.085 124.432 194.268 124.523C194.453 124.614 194.655 124.647 194.873 124.622ZM197.687 124.797L197.634 124.336L199.146 122.244C199.324 121.999 199.469 121.787 199.582 121.608C199.694 121.427 199.773 121.261 199.82 121.108C199.868 120.954 199.883 120.797 199.864 120.637C199.843 120.452 199.78 120.298 199.676 120.173C199.574 120.049 199.442 119.958 199.282 119.902C199.122 119.846 198.947 119.829 198.758 119.851C198.556 119.874 198.385 119.936 198.245 120.037C198.106 120.136 198.004 120.264 197.939 120.422C197.876 120.58 197.856 120.758 197.879 120.958L197.275 121.027C197.239 120.72 197.279 120.443 197.394 120.194C197.509 119.946 197.681 119.743 197.91 119.585C198.141 119.427 198.409 119.331 198.714 119.296C199.022 119.261 199.301 119.294 199.553 119.397C199.805 119.499 200.011 119.653 200.171 119.857C200.331 120.062 200.427 120.299 200.458 120.568C200.48 120.761 200.467 120.954 200.418 121.146C200.371 121.337 200.275 121.554 200.13 121.799C199.987 122.042 199.783 122.342 199.52 122.699L198.488 124.093L198.492 124.134L200.929 123.854L200.993 124.417L197.687 124.797Z" fill="#9291A5"/>
<path d="M92.4885 132.442C92.428 132.186 92.2803 131.999 92.0454 131.881C91.8106 131.762 91.5345 131.721 91.2171 131.758C90.9851 131.785 90.7864 131.845 90.621 131.941C90.4573 132.035 90.3343 132.154 90.2522 132.297C90.1717 132.439 90.1411 132.594 90.1603 132.761C90.1764 132.901 90.2235 133.017 90.3016 133.11C90.3812 133.201 90.4777 133.274 90.5911 133.329C90.7044 133.381 90.8214 133.422 90.9424 133.452C91.0631 133.479 91.1735 133.5 91.2737 133.515L91.8225 133.597C91.9631 133.617 92.1207 133.649 92.2951 133.693C92.4713 133.737 92.6424 133.804 92.8085 133.896C92.9761 133.986 93.1199 134.109 93.24 134.266C93.3601 134.424 93.4342 134.625 93.4624 134.871C93.495 135.154 93.4502 135.419 93.328 135.664C93.2075 135.91 93.0134 136.116 92.7457 136.283C92.4796 136.451 92.1453 136.557 91.7426 136.604C91.3673 136.647 91.0353 136.623 90.7467 136.534C90.4598 136.444 90.2254 136.3 90.0436 136.101C89.8634 135.902 89.7466 135.661 89.6932 135.377L90.3484 135.301C90.3882 135.497 90.4735 135.653 90.6045 135.77C90.7369 135.884 90.8963 135.963 91.0827 136.005C91.2706 136.046 91.4686 136.054 91.6768 136.03C91.9191 136.002 92.1321 135.938 92.3159 135.838C92.4995 135.735 92.6394 135.607 92.7358 135.452C92.8319 135.296 92.869 135.122 92.847 134.931C92.8271 134.757 92.7622 134.621 92.6524 134.523C92.5426 134.425 92.4044 134.351 92.2379 134.301C92.0714 134.251 91.8931 134.211 91.7029 134.181L91.0368 134.071C90.6138 134 90.2703 133.869 90.0064 133.678C89.7425 133.487 89.5902 133.215 89.5496 132.862C89.5159 132.569 89.5659 132.304 89.6994 132.067C89.8345 131.829 90.0299 131.633 90.2856 131.481C90.5427 131.327 90.8385 131.231 91.1729 131.193C91.5108 131.154 91.818 131.18 92.0947 131.271C92.3711 131.36 92.5981 131.5 92.7756 131.69C92.9547 131.881 93.0638 132.108 93.1027 132.371L92.4885 132.442ZM95.7549 136.143C95.5058 136.171 95.2743 136.15 95.0605 136.08C94.8465 136.008 94.6695 135.889 94.5295 135.723C94.3893 135.556 94.3045 135.345 94.2751 135.089C94.2492 134.864 94.2726 134.676 94.3453 134.526C94.4177 134.374 94.5235 134.249 94.6628 134.152C94.802 134.055 94.9589 133.976 95.1336 133.917C95.3097 133.855 95.4877 133.802 95.6675 133.757C95.9028 133.699 96.0939 133.653 96.2405 133.621C96.3887 133.587 96.4947 133.546 96.5584 133.499C96.6239 133.452 96.651 133.379 96.6398 133.282L96.6375 133.262C96.6085 133.009 96.5168 132.821 96.3626 132.697C96.21 132.573 95.9947 132.526 95.7165 132.558C95.4282 132.591 95.2094 132.681 95.0601 132.826C94.9108 132.971 94.8111 133.119 94.7611 133.27L94.1643 133.131C94.2392 132.88 94.3543 132.679 94.5097 132.526C94.6665 132.371 94.8434 132.256 95.0404 132.18C95.2388 132.102 95.437 132.051 95.6349 132.028C95.7612 132.014 95.908 132.013 96.0753 132.024C96.2441 132.034 96.4106 132.077 96.5747 132.151C96.7406 132.225 96.8854 132.35 97.0091 132.524C97.1328 132.698 97.2126 132.941 97.2485 133.254L97.546 135.844L96.942 135.913L96.8809 135.381L96.8502 135.384C96.819 135.474 96.7613 135.573 96.6769 135.682C96.5925 135.79 96.4749 135.887 96.3241 135.974C96.1732 136.06 95.9835 136.116 95.7549 136.143ZM95.7847 135.59C96.0236 135.562 96.2195 135.492 96.3725 135.379C96.5272 135.267 96.6379 135.131 96.7044 134.973C96.7727 134.815 96.7974 134.654 96.7786 134.49L96.7151 133.937C96.693 133.971 96.6399 134.005 96.5559 134.041C96.4733 134.075 96.3768 134.107 96.2663 134.139C96.1574 134.169 96.0508 134.197 95.9466 134.223C95.8439 134.246 95.7606 134.266 95.6968 134.282C95.5422 134.321 95.3993 134.371 95.2681 134.433C95.1384 134.493 95.0369 134.573 94.9637 134.673C94.892 134.771 94.865 134.897 94.8826 135.05C94.9067 135.26 95.0026 135.41 95.1702 135.499C95.3393 135.587 95.5441 135.617 95.7847 135.59ZM98.6503 130.406L99.2524 135.648L98.6484 135.717L98.0463 130.476L98.6503 130.406ZM102.016 135.413C101.637 135.457 101.301 135.41 101.007 135.275C100.715 135.137 100.477 134.926 100.294 134.641C100.112 134.354 99.9984 134.01 99.9521 133.607C99.9058 133.204 99.9384 132.841 100.05 132.517C100.163 132.191 100.342 131.927 100.586 131.724C100.833 131.519 101.133 131.397 101.488 131.356C101.693 131.333 101.899 131.343 102.106 131.389C102.314 131.434 102.508 131.524 102.69 131.659C102.871 131.792 103.024 131.978 103.15 132.218C103.277 132.457 103.361 132.761 103.403 133.128L103.432 133.383L100.402 133.732L100.342 133.209L102.758 132.932C102.733 132.71 102.665 132.517 102.557 132.353C102.45 132.189 102.309 132.066 102.136 131.984C101.964 131.902 101.769 131.874 101.55 131.899C101.31 131.926 101.108 132.01 100.946 132.149C100.786 132.287 100.67 132.456 100.597 132.656C100.525 132.856 100.502 133.065 100.527 133.282L100.567 133.63C100.601 133.926 100.681 134.172 100.807 134.367C100.935 134.56 101.097 134.699 101.293 134.786C101.49 134.87 101.71 134.899 101.954 134.871C102.113 134.852 102.253 134.814 102.376 134.755C102.501 134.694 102.604 134.613 102.688 134.511C102.771 134.408 102.831 134.286 102.866 134.143L103.468 134.24C103.43 134.445 103.346 134.631 103.219 134.798C103.091 134.963 102.925 135.1 102.721 135.208C102.517 135.314 102.282 135.382 102.016 135.413ZM106.987 131.668L106.462 131.884C106.418 131.798 106.357 131.715 106.281 131.638C106.206 131.558 106.109 131.497 105.99 131.453C105.871 131.41 105.724 131.398 105.548 131.419C105.307 131.446 105.113 131.525 104.966 131.654C104.82 131.781 104.756 131.93 104.776 132.099C104.793 132.249 104.861 132.361 104.98 132.435C105.099 132.51 105.278 132.563 105.517 132.594L106.117 132.671C106.478 132.715 106.755 132.816 106.948 132.972C107.14 133.126 107.252 133.341 107.284 133.615C107.309 133.84 107.268 134.049 107.158 134.242C107.051 134.434 106.888 134.594 106.669 134.723C106.451 134.852 106.189 134.934 105.883 134.969C105.482 135.015 105.14 134.966 104.858 134.822C104.575 134.678 104.379 134.443 104.271 134.117L104.828 133.908C104.907 134.113 105.028 134.26 105.192 134.348C105.358 134.436 105.564 134.466 105.812 134.438C106.093 134.405 106.31 134.32 106.462 134.182C106.615 134.041 106.682 133.887 106.663 133.718C106.647 133.581 106.586 133.472 106.48 133.391C106.374 133.308 106.219 133.255 106.016 133.232L105.343 133.154C104.973 133.11 104.693 133.008 104.504 132.848C104.316 132.686 104.206 132.47 104.175 132.199C104.15 131.977 104.189 131.773 104.294 131.589C104.401 131.403 104.557 131.25 104.763 131.128C104.97 131.005 105.212 130.928 105.488 130.897C105.877 130.852 106.192 130.902 106.434 131.047C106.677 131.192 106.861 131.399 106.987 131.668Z" fill="#1E1B39"/>
<rect x="80.7395" y="132.554" width="4.53388" height="4.53388" rx="2.26694" transform="rotate(-6.55283 80.7395 132.554)" fill="#C893FD"/>
<path d="M179.696 112.924L178.943 106.372L179.363 106.324L180.116 112.875L179.696 112.924ZM180.582 108.175C180.521 107.919 180.374 107.732 180.139 107.614C179.904 107.496 179.628 107.455 179.311 107.491C179.079 107.518 178.88 107.579 178.714 107.674C178.551 107.769 178.428 107.888 178.346 108.03C178.265 108.172 178.235 108.327 178.254 108.494C178.27 108.634 178.317 108.751 178.395 108.844C178.475 108.935 178.571 109.008 178.685 109.062C178.798 109.115 178.915 109.156 179.036 109.185C179.157 109.213 179.267 109.234 179.367 109.248L179.916 109.33C180.057 109.35 180.214 109.383 180.389 109.426C180.565 109.47 180.736 109.538 180.902 109.629C181.07 109.719 181.213 109.843 181.333 110C181.454 110.157 181.528 110.359 181.556 110.604C181.588 110.888 181.544 111.152 181.421 111.398C181.301 111.643 181.107 111.85 180.839 112.017C180.573 112.184 180.239 112.291 179.836 112.337C179.461 112.38 179.129 112.357 178.84 112.267C178.553 112.178 178.319 112.033 178.137 111.835C177.957 111.636 177.84 111.394 177.787 111.11L178.442 111.035C178.482 111.231 178.567 111.387 178.698 111.503C178.83 111.618 178.99 111.696 179.176 111.739C179.364 111.779 179.562 111.788 179.77 111.764C180.012 111.736 180.226 111.672 180.409 111.571C180.593 111.469 180.733 111.34 180.829 111.186C180.925 111.03 180.962 110.856 180.94 110.665C180.92 110.491 180.856 110.355 180.746 110.257C180.636 110.159 180.498 110.085 180.331 110.035C180.165 109.985 179.986 109.945 179.796 109.915L179.13 109.804C178.707 109.734 178.364 109.603 178.1 109.412C177.836 109.221 177.684 108.949 177.643 108.596C177.609 108.302 177.659 108.037 177.793 107.801C177.928 107.562 178.123 107.367 178.379 107.215C178.636 107.061 178.932 106.964 179.266 106.926C179.604 106.887 179.911 106.913 180.188 107.004C180.465 107.094 180.692 107.233 180.869 107.424C181.048 107.614 181.157 107.841 181.196 108.105L180.582 108.175ZM182.835 111.899L184.646 106.993L184.641 106.952L181.939 107.262L181.874 106.699L185.232 106.313L185.3 106.907L183.5 111.823L182.835 111.899ZM186.716 110.727L186.707 111.008C186.7 111.206 186.68 111.42 186.645 111.648C186.613 111.877 186.576 112.093 186.536 112.296C186.495 112.5 186.461 112.662 186.433 112.782L185.973 112.835C185.982 112.724 185.995 112.576 186.01 112.393C186.025 112.21 186.038 112.005 186.048 111.779C186.061 111.555 186.065 111.326 186.063 111.093L186.061 110.803L186.716 110.727ZM187.907 111.317L187.854 110.856L189.367 108.763C189.544 108.518 189.689 108.306 189.802 108.127C189.914 107.947 189.993 107.78 190.04 107.628C190.088 107.474 190.103 107.317 190.084 107.156C190.063 106.972 190 106.818 189.896 106.693C189.794 106.568 189.662 106.478 189.502 106.422C189.342 106.366 189.167 106.349 188.978 106.371C188.776 106.394 188.605 106.456 188.465 106.557C188.326 106.656 188.224 106.784 188.159 106.942C188.096 107.099 188.076 107.278 188.099 107.478L187.495 107.547C187.459 107.24 187.499 106.962 187.614 106.714C187.729 106.466 187.901 106.263 188.13 106.105C188.361 105.947 188.629 105.851 188.935 105.815C189.242 105.78 189.521 105.814 189.773 105.916C190.025 106.019 190.231 106.172 190.391 106.377C190.552 106.581 190.647 106.818 190.678 107.088C190.7 107.281 190.687 107.473 190.638 107.666C190.591 107.856 190.495 108.074 190.35 108.318C190.207 108.561 190.004 108.861 189.74 109.218L188.708 110.613L188.712 110.654L191.149 110.374L191.213 110.937L187.907 111.317ZM193.511 105.362L194.113 110.604L193.478 110.677L192.953 106.101L192.922 106.104L191.74 107.101L191.666 106.456L192.876 105.435L193.511 105.362ZM197.4 110.299C197.062 110.338 196.754 110.314 196.476 110.229C196.2 110.143 195.973 110.005 195.794 109.817C195.616 109.626 195.505 109.395 195.46 109.121L196.105 109.047C196.138 109.215 196.212 109.354 196.329 109.465C196.445 109.574 196.59 109.653 196.763 109.7C196.936 109.748 197.123 109.76 197.325 109.737C197.55 109.711 197.745 109.649 197.91 109.55C198.075 109.452 198.199 109.327 198.282 109.176C198.365 109.024 198.396 108.857 198.375 108.672C198.352 108.48 198.285 108.315 198.173 108.18C198.06 108.042 197.907 107.942 197.713 107.88C197.519 107.817 197.289 107.801 197.023 107.832L196.603 107.88L196.539 107.317L196.958 107.269C197.166 107.245 197.345 107.187 197.493 107.093C197.643 107 197.755 106.88 197.828 106.733C197.902 106.587 197.929 106.421 197.908 106.237C197.888 106.059 197.831 105.909 197.737 105.787C197.644 105.665 197.521 105.575 197.369 105.518C197.219 105.461 197.048 105.444 196.855 105.466C196.674 105.487 196.507 105.539 196.355 105.624C196.203 105.707 196.085 105.817 195.998 105.953C195.912 106.088 195.874 106.242 195.886 106.417L195.271 106.488C195.25 106.212 195.305 105.962 195.437 105.738C195.568 105.512 195.752 105.326 195.99 105.181C196.229 105.036 196.5 104.946 196.802 104.912C197.126 104.875 197.411 104.908 197.659 105.013C197.906 105.116 198.104 105.267 198.253 105.466C198.402 105.665 198.49 105.888 198.519 106.135C198.553 106.431 198.504 106.691 198.373 106.917C198.243 107.143 198.051 107.311 197.795 107.422L197.8 107.463C198.137 107.479 198.412 107.59 198.624 107.796C198.836 108 198.961 108.268 198.999 108.601C199.032 108.886 198.984 109.151 198.854 109.395C198.727 109.638 198.537 109.84 198.286 110C198.035 110.16 197.739 110.26 197.4 110.299Z" fill="#9291A5"/>
<path d="M88.0311 117.022L90.0939 121.256L90.1553 121.249L91.2045 116.658L91.8699 116.581L90.5474 122.044L89.8923 122.119L87.3656 117.099L88.0311 117.022ZM93.2065 121.738L92.7549 117.807L93.3589 117.738L93.8105 121.669L93.2065 121.738ZM92.9868 117.117C92.8691 117.13 92.7629 117.102 92.6684 117.032C92.5756 116.961 92.5227 116.869 92.5098 116.757C92.4969 116.644 92.5276 116.543 92.602 116.453C92.6781 116.363 92.775 116.311 92.8927 116.298C93.0104 116.284 93.1157 116.313 93.2085 116.384C93.303 116.454 93.3568 116.545 93.3697 116.658C93.3826 116.771 93.3511 116.872 93.275 116.962C93.2006 117.052 93.1045 117.103 92.9868 117.117ZM96.5743 121.434C96.1955 121.478 95.8592 121.432 95.5653 121.296C95.2729 121.159 95.0351 120.947 94.852 120.662C94.6704 120.376 94.5564 120.031 94.5102 119.628C94.4639 119.226 94.4965 118.862 94.608 118.538C94.7209 118.212 94.8998 117.948 95.1444 117.745C95.3906 117.541 95.6911 117.418 96.046 117.377C96.2507 117.354 96.4568 117.365 96.6643 117.41C96.8718 117.455 97.0662 117.545 97.2476 117.68C97.4289 117.813 97.5825 118 97.7086 118.239C97.8346 118.479 97.9187 118.782 97.9609 119.149L97.9903 119.405L94.9601 119.753L94.9002 119.231L97.3161 118.953C97.2906 118.731 97.2235 118.539 97.1148 118.375C97.0078 118.211 96.8675 118.088 96.6938 118.006C96.5219 117.923 96.3267 117.895 96.1083 117.92C95.8678 117.948 95.6665 118.031 95.5044 118.171C95.3439 118.309 95.2276 118.478 95.1556 118.678C95.0835 118.878 95.0599 119.086 95.0848 119.303L95.1247 119.651C95.1589 119.948 95.2389 120.194 95.365 120.388C95.4926 120.581 95.6547 120.721 95.8513 120.807C96.0478 120.892 96.268 120.92 96.5119 120.892C96.6706 120.874 96.8114 120.835 96.9342 120.776C97.0586 120.715 97.1625 120.634 97.246 120.533C97.3292 120.43 97.3886 120.307 97.4241 120.165L98.0264 120.262C97.9878 120.466 97.9045 120.652 97.7768 120.819C97.6488 120.984 97.483 121.121 97.2793 121.229C97.0754 121.335 96.8404 121.404 96.5743 121.434ZM100.002 120.958L98.3526 117.164L98.9873 117.091L100.183 120.003L100.224 119.999L100.717 116.893L101.362 116.819L102.536 119.723L102.577 119.718L103.082 116.621L103.717 116.548L102.971 120.617L102.377 120.685L101.17 117.764L101.109 117.771L100.596 120.89L100.002 120.958ZM107.401 117.017L106.876 117.233C106.831 117.146 106.771 117.064 106.695 116.987C106.62 116.907 106.523 116.846 106.404 116.802C106.285 116.759 106.137 116.747 105.962 116.767C105.721 116.795 105.527 116.873 105.379 117.003C105.233 117.13 105.17 117.278 105.189 117.447C105.206 117.597 105.275 117.71 105.394 117.784C105.513 117.859 105.692 117.912 105.931 117.943L106.531 118.019C106.892 118.064 107.169 118.165 107.361 118.321C107.554 118.475 107.666 118.689 107.697 118.964C107.723 119.189 107.681 119.398 107.572 119.59C107.464 119.782 107.301 119.943 107.083 120.072C106.864 120.201 106.602 120.283 106.297 120.318C105.896 120.364 105.554 120.315 105.271 120.171C104.989 120.027 104.793 119.792 104.685 119.466L105.241 119.256C105.32 119.462 105.442 119.609 105.606 119.697C105.771 119.785 105.978 119.815 106.225 119.786C106.507 119.754 106.724 119.669 106.875 119.53C107.029 119.39 107.096 119.235 107.076 119.066C107.061 118.93 107 118.821 106.893 118.74C106.787 118.657 106.632 118.604 106.429 118.581L105.756 118.502C105.387 118.458 105.107 118.357 104.917 118.197C104.729 118.035 104.62 117.819 104.589 117.547C104.563 117.326 104.603 117.122 104.708 116.937C104.815 116.752 104.971 116.599 105.176 116.476C105.383 116.354 105.625 116.277 105.902 116.245C106.291 116.201 106.606 116.251 106.847 116.396C107.09 116.541 107.275 116.748 107.401 117.017Z" fill="#1E1B39"/>
<rect x="79.0886" y="118.18" width="4.53388" height="4.53388" rx="2.26694" transform="rotate(-6.55283 79.0886 118.18)" fill="#4A3AFF"/>
<rect x="136.73" y="62.3872" width="3.80516" height="6.27093" rx="1.90258" transform="rotate(-6.55283 136.73 62.3872)" fill="#C893FD"/>
<rect x="137.891" y="72.4934" width="3.80516" height="23.222" rx="1.90258" transform="rotate(-6.55283 137.891 72.4934)" fill="#4A3AFF"/>
<rect x="148.147" y="69.0193" width="3.80516" height="7.75055" rx="1.90258" transform="rotate(-6.55283 148.147 69.0193)" fill="#C893FD"/>
<rect x="149.369" y="79.6592" width="3.80516" height="14.7933" rx="1.90258" transform="rotate(-6.55283 149.369 79.6592)" fill="#4A3AFF"/>
<rect x="157.599" y="58.5505" width="3.80516" height="7.75055" rx="1.90258" transform="rotate(-6.55283 157.599 58.5505)" fill="#C893FD"/>
<rect x="158.791" y="68.9309" width="3.80516" height="24.3758" rx="1.90258" transform="rotate(-6.55283 158.791 68.9309)" fill="#4A3AFF"/>
<rect x="167.342" y="50.6228" width="3.80516" height="2.34585" rx="1.17293" transform="rotate(-6.55283 167.342 50.6228)" fill="#C893FD"/>
<rect x="167.932" y="55.7534" width="3.80516" height="36.4244" rx="1.90258" transform="rotate(-6.55283 167.932 55.7534)" fill="#4A3AFF"/>
<rect x="178.576" y="55.6653" width="3.80516" height="3.80478" rx="1.90239" transform="rotate(-6.55283 178.576 55.6653)" fill="#C893FD"/>
<rect x="179.275" y="61.7554" width="3.80516" height="29.1671" rx="1.90258" transform="rotate(-6.55283 179.275 61.7554)" fill="#4A3AFF"/>
<rect x="190.101" y="63.2424" width="3.80516" height="6.90194" rx="1.90258" transform="rotate(-6.55283 190.101 63.2424)" fill="#C893FD"/>
<rect x="191.274" y="73.4583" width="3.80516" height="16.1713" rx="1.90258" transform="rotate(-6.55283 191.274 73.4583)" fill="#4A3AFF"/>
<rect x="125.547" y="57.7852" width="3.80516" height="21.4902" rx="1.90258" transform="rotate(-6.55283 125.547 57.7852)" fill="#C893FD"/>
<rect x="128.337" y="82.0752" width="3.80516" height="14.7933" rx="1.90258" transform="rotate(-6.55283 128.337 82.0752)" fill="#4A3AFF"/>
<rect x="115.699" y="64.8032" width="3.80516" height="21.4902" rx="1.90258" transform="rotate(-6.55283 115.699 64.8032)" fill="#C893FD"/>
<rect x="118.545" y="89.5825" width="3.80516" height="8.452" rx="1.90258" transform="rotate(-6.55283 118.545 89.5825)" fill="#4A3AFF"/>
<rect x="104.564" y="60.6211" width="3.80516" height="21.8424" rx="1.90258" transform="rotate(-6.55283 104.564 60.6211)" fill="#C893FD"/>
<rect x="107.424" y="85.5183" width="3.80516" height="13.759" rx="1.90258" transform="rotate(-6.55283 107.424 85.5183)" fill="#4A3AFF"/>
<rect x="95.0801" y="70.8164" width="3.80516" height="9.0502" rx="1.90258" transform="rotate(-6.55283 95.0801 70.8164)" fill="#C893FD"/>
<rect x="96.3943" y="82.2576" width="3.80516" height="18.257" rx="1.90258" transform="rotate(-6.55283 96.3943 82.2576)" fill="#4A3AFF"/>
<rect x="83.9883" y="67.0061" width="3.80516" height="7.05059" rx="1.90258" transform="rotate(-6.55283 83.9883 67.0061)" fill="#C893FD"/>
<rect x="85.1042" y="76.7202" width="3.80516" height="25.0466" rx="1.90258" transform="rotate(-6.55283 85.1042 76.7202)" fill="#4A3AFF"/>
<rect x="74.7966" y="79.7412" width="3.80516" height="7.05059" rx="1.90258" transform="rotate(-6.55283 74.7966 79.7412)" fill="#C893FD"/>
<rect x="75.8765" y="89.1421" width="3.80516" height="13.759" rx="1.90258" transform="rotate(-6.55283 75.8765 89.1421)" fill="#4A3AFF"/>
<path d="M74.3448 50.3785L73.31 41.37L73.8871 41.3037L74.9219 50.3122L74.3448 50.3785ZM75.1823 44.1677C75.1216 43.887 74.9754 43.6804 74.7439 43.5477C74.5124 43.4151 74.2136 43.3698 73.8476 43.4118C73.599 43.4404 73.393 43.4997 73.2299 43.5897C73.0664 43.6774 72.946 43.7875 72.8685 43.92C72.7933 44.0523 72.7647 44.1958 72.7825 44.3506C72.7926 44.4802 72.8325 44.5897 72.9022 44.6792C72.9742 44.7683 73.0671 44.842 73.1807 44.9003C73.2941 44.9562 73.423 45.002 73.5673 45.0377C73.7114 45.0711 73.8641 45.0963 74.0253 45.1135L74.6905 45.1939C75.013 45.2282 75.3123 45.2889 75.5885 45.376C75.8648 45.4631 76.1089 45.5813 76.3209 45.7304C76.533 45.8796 76.7051 46.0642 76.8374 46.2843C76.972 46.5042 77.0577 46.7641 77.0945 47.0642C77.1428 47.5055 77.0742 47.9008 76.8885 48.2501C76.7049 48.5969 76.4145 48.8834 76.0174 49.1096C75.6224 49.3333 75.1316 49.4788 74.5451 49.5461C73.9633 49.613 73.4464 49.582 72.9942 49.4533C72.5444 49.3244 72.1787 49.099 71.8969 48.7772C71.6172 48.4528 71.4417 48.032 71.3704 47.5149L72.8448 47.3455C72.889 47.5853 72.9814 47.7791 73.122 47.9269C73.2646 48.0722 73.4439 48.174 73.6598 48.2324C73.8777 48.2882 74.1181 48.301 74.3808 48.2708C74.6389 48.2411 74.8586 48.1779 75.04 48.081C75.2238 47.9838 75.3607 47.8623 75.4509 47.7165C75.5411 47.5706 75.5763 47.4109 75.5563 47.2373C75.5377 47.0754 75.474 46.9449 75.3652 46.8457C75.2587 46.7462 75.1095 46.6682 74.9176 46.6118C74.7281 46.5552 74.4983 46.5103 74.2283 46.4771L73.4209 46.3702C72.7963 46.2922 72.29 46.1162 71.902 45.8423C71.514 45.5683 71.2906 45.165 71.2318 44.6322C71.1793 44.1961 71.2516 43.8015 71.4488 43.4485C71.6483 43.0952 71.9439 42.8033 72.3358 42.5729C72.7277 42.3425 73.1864 42.1971 73.7119 42.1367C74.2467 42.0753 74.7241 42.1131 75.1439 42.2503C75.5661 42.3872 75.9074 42.6059 76.1677 42.9064C76.428 43.2069 76.5864 43.5714 76.6427 43.9999L75.1823 44.1677ZM80.6212 41.4429L81.4491 48.6497L79.9253 48.8247L79.2636 43.0642L79.2214 43.069L77.6899 44.2932L77.5346 42.9419L79.189 41.6074L80.6212 41.4429ZM83.1619 48.4529L83.0358 47.355L85.3283 44.6851C85.5222 44.4489 85.6833 44.2378 85.8117 44.0519C85.9425 43.8658 86.0373 43.6873 86.0961 43.5165C86.1546 43.3434 86.173 43.1619 86.1512 42.9718C86.1269 42.7607 86.0579 42.5844 85.9442 42.443C85.8303 42.2992 85.6853 42.1958 85.5093 42.1328C85.333 42.0675 85.1393 42.047 84.9282 42.0712C84.7077 42.0966 84.5204 42.1632 84.3664 42.2712C84.2125 42.3793 84.1005 42.5217 84.0304 42.6985C83.9604 42.8753 83.9386 43.0786 83.965 43.3085L82.5187 43.4747C82.4646 43.0031 82.5243 42.5815 82.6979 42.2098C82.8715 41.838 83.1398 41.5351 83.5027 41.3009C83.8656 41.0666 84.2981 40.9207 84.8001 40.863C85.3162 40.8037 85.776 40.8436 86.1794 40.9827C86.5849 41.1191 86.9128 41.3358 87.1632 41.6327C87.4136 41.9295 87.5627 42.2856 87.6104 42.7008C87.6416 42.973 87.6185 43.2478 87.5411 43.5253C87.4659 43.8025 87.3109 44.1186 87.076 44.4736C86.8408 44.8263 86.5015 45.2562 86.0583 45.7635L85.1245 46.9154L85.1302 46.9647L88.1565 46.6171L88.2996 47.8628L83.1619 48.4529ZM90.9338 46.5619L90.9396 46.9534C90.9447 47.2666 90.9214 47.5818 90.8699 47.8991C90.8211 48.2185 90.7641 48.5091 90.6991 48.7709C90.6365 49.0324 90.5852 49.2379 90.5453 49.3875L89.5741 49.4991C89.5934 49.3566 89.6192 49.1576 89.6517 48.9019C89.6844 48.6485 89.7101 48.3651 89.7287 48.0516C89.7474 47.7381 89.7454 47.421 89.7228 47.1003L89.6952 46.7042L90.9338 46.5619ZM94.8131 47.2144C94.2711 47.2767 93.7789 47.2441 93.3364 47.1166C92.896 46.9866 92.5385 46.7816 92.2639 46.5018C91.9894 46.222 91.8297 45.8873 91.785 45.4979C91.7505 45.1976 91.7868 44.9141 91.8941 44.6475C92.0034 44.3782 92.1669 44.1467 92.3847 43.9529C92.6023 43.7568 92.855 43.6184 93.1428 43.5378L93.1372 43.4886C92.7435 43.4553 92.4101 43.3047 92.1369 43.0366C91.8634 42.7661 91.704 42.4338 91.6587 42.0397C91.6158 41.6667 91.6868 41.3222 91.8716 41.0062C92.056 40.6879 92.3287 40.4237 92.6897 40.2135C93.0527 40.0006 93.477 39.8663 93.9626 39.8105C94.4482 39.7547 94.8907 39.7895 95.2902 39.9147C95.692 40.0397 96.0188 40.2363 96.2707 40.5045C96.5222 40.7703 96.6705 41.0884 96.7154 41.4588C96.7586 41.8556 96.6764 42.2156 96.4687 42.539C96.261 42.8623 95.9728 43.0844 95.604 43.2052L95.6096 43.2545C95.9036 43.2682 96.1775 43.3461 96.4315 43.4881C96.6876 43.6274 96.8994 43.8158 97.0669 44.0533C97.2365 44.2881 97.3397 44.5556 97.3766 44.8556C97.419 45.2453 97.3382 45.6075 97.1342 45.9423C96.9302 46.2772 96.6273 46.558 96.2255 46.7848C95.8258 47.0089 95.355 47.1522 94.8131 47.2144ZM94.6845 46.0954C94.9261 46.0676 95.1323 46 95.303 45.8924C95.4734 45.7825 95.6001 45.6444 95.6832 45.4779C95.7684 45.3089 95.7992 45.1223 95.7758 44.9182C95.7518 44.7094 95.6779 44.5314 95.554 44.384C95.4298 44.2342 95.2722 44.124 95.081 44.0532C94.8896 43.9801 94.6766 43.9571 94.442 43.984C94.2097 44.0107 94.0075 44.0815 93.8353 44.1963C93.6628 44.3088 93.5331 44.4521 93.4461 44.6261C93.3612 44.7975 93.3308 44.9876 93.3547 45.1963C93.3782 45.4004 93.4494 45.5753 93.5683 45.7209C93.687 45.8641 93.8429 45.9698 94.0361 46.0379C94.2291 46.1037 94.4452 46.1229 94.6845 46.0954ZM94.3146 42.8755C94.5164 42.8524 94.6912 42.7907 94.8389 42.6905C94.9867 42.5904 95.0967 42.4624 95.1692 42.3067C95.2416 42.1511 95.2669 41.9782 95.2451 41.7882C95.2235 41.6005 95.1601 41.4414 95.0548 41.3109C94.9492 41.178 94.8144 41.0806 94.6504 41.0186C94.4861 40.9543 94.3008 40.934 94.0943 40.9577C93.8902 40.9812 93.7143 41.043 93.5666 41.1431C93.4186 41.2409 93.3082 41.3665 93.2355 41.5199C93.1649 41.6706 93.1403 41.8398 93.1619 42.0275C93.1837 42.2175 93.2475 42.3801 93.3534 42.5153C93.4593 42.6505 93.5955 42.7502 93.7621 42.8142C93.9287 42.8783 94.1129 42.8987 94.3146 42.8755ZM98.9497 46.6394L101.258 40.3844L101.253 40.3351L97.7723 40.7349L97.6292 39.4892L102.686 38.9083L102.831 40.1716L100.523 46.4587L98.9497 46.6394ZM107.105 45.8025C106.607 45.8596 106.154 45.819 105.743 45.6808C105.335 45.5423 104.999 45.3254 104.734 45.0301C104.47 44.7349 104.309 44.3801 104.252 43.966L105.73 43.7962C105.778 44.0735 105.922 44.2864 106.16 44.4349C106.398 44.5835 106.667 44.6405 106.967 44.606C107.207 44.5785 107.412 44.5015 107.583 44.3749C107.755 44.2457 107.883 44.0802 107.964 43.8783C108.048 43.6738 108.075 43.4472 108.046 43.1985C108.017 42.9452 107.938 42.7285 107.808 42.5485C107.68 42.3683 107.516 42.235 107.316 42.1486C107.116 42.0623 106.895 42.0318 106.653 42.0572C106.442 42.0815 106.242 42.1484 106.052 42.2581C105.865 42.3676 105.725 42.5037 105.632 42.6665L104.249 42.5793L104.154 38.7396L108.56 38.2336L108.703 39.4793L105.554 39.841L105.574 41.6677L105.617 41.6628C105.723 41.47 105.897 41.3002 106.139 41.1536C106.382 41.0069 106.661 40.9154 106.978 40.879C107.412 40.8291 107.811 40.8867 108.174 41.0517C108.538 41.2168 108.839 41.4663 109.077 41.8002C109.314 42.1318 109.459 42.5288 109.509 42.9913C109.567 43.4766 109.504 43.9212 109.32 44.325C109.138 44.7263 108.857 45.0581 108.476 45.3206C108.097 45.5804 107.64 45.741 107.105 45.8025Z" fill="#1E1B39"/>
<path d="M70.422 36.7625L69.8951 32.1763L71.4448 31.9983C71.8031 31.9572 72.1042 31.9846 72.3482 32.0806C72.592 32.1751 72.7813 32.322 72.9161 32.5213C73.0509 32.7206 73.1338 32.9554 73.1649 33.2256C73.1959 33.4958 73.1682 33.7418 73.0817 33.9635C72.9953 34.1851 72.8447 34.3688 72.63 34.5145C72.4151 34.6587 72.1301 34.7512 71.7747 34.792L70.5207 34.936L70.4631 34.4344L71.6992 34.2924C71.944 34.2643 72.137 34.2058 72.2781 34.117C72.4206 34.0281 72.5179 33.914 72.57 33.7749C72.6234 33.6342 72.6396 33.472 72.6185 33.2884C72.5974 33.1047 72.5446 32.9482 72.4602 32.8187C72.3757 32.6893 72.2538 32.5959 72.0945 32.5386C71.9349 32.4797 71.7313 32.4646 71.4834 32.493L70.5071 32.6052L70.9773 36.6987L70.422 36.7625ZM72.344 34.4543L73.7093 36.3849L73.0644 36.459L71.717 34.5264L72.344 34.4543ZM75.7973 36.2176C75.4659 36.2557 75.1716 36.2154 74.9144 36.0967C74.6586 35.9763 74.4506 35.7915 74.2903 35.5422C74.1314 35.2912 74.0317 34.9895 73.9913 34.6372C73.9508 34.2849 73.9793 33.967 74.0768 33.6835C74.1757 33.3984 74.3321 33.1671 74.5462 32.9898C74.7616 32.8108 75.0246 32.7034 75.3351 32.6677C75.5142 32.6472 75.6946 32.6567 75.8761 32.6963C76.0576 32.736 76.2278 32.8148 76.3865 32.9327C76.5451 33.0491 76.6795 33.2121 76.7898 33.4218C76.9001 33.6315 76.9737 33.8968 77.0106 34.2178L77.0363 34.4417L74.385 34.7463L74.3325 34.2894L76.4464 34.0466C76.4241 33.8525 76.3654 33.6838 76.2703 33.5405C76.1767 33.3969 76.0539 33.2893 75.9019 33.2175C75.7515 33.1455 75.5807 33.1205 75.3896 33.1425C75.1791 33.1667 75.003 33.2398 74.8612 33.362C74.7208 33.4825 74.619 33.6303 74.556 33.8055C74.4929 33.9806 74.4722 34.163 74.494 34.3526L74.529 34.6571C74.5588 34.9169 74.6289 35.1319 74.7392 35.3023C74.8509 35.471 74.9927 35.5931 75.1648 35.6686C75.3366 35.7427 75.5293 35.7674 75.7428 35.7429C75.8816 35.7269 76.0048 35.6931 76.1123 35.6414C76.2211 35.5881 76.3121 35.5172 76.3851 35.4286C76.4579 35.3386 76.5099 35.2312 76.541 35.1067L77.068 35.1913C77.0341 35.3707 76.9613 35.5333 76.8495 35.6793C76.7375 35.8237 76.5924 35.9433 76.4142 36.0379C76.2358 36.1309 76.0302 36.1909 75.7973 36.2176ZM80.33 32.1393L79.4532 35.7251L78.9158 35.7868L77.2487 32.4933L77.822 32.4274L79.0863 35.0593L79.1221 35.0552L79.7568 32.2052L80.33 32.1393ZM82.7499 35.419C82.4185 35.4571 82.1242 35.4167 81.867 35.298C81.6112 35.1777 81.4031 34.9929 81.2429 34.7435C81.084 34.4925 80.9843 34.1909 80.9438 33.8386C80.9034 33.4862 80.9319 33.1683 81.0294 32.8849C81.1282 32.5997 81.2847 32.3685 81.4988 32.1911C81.7142 32.0121 81.9771 31.9048 82.2877 31.8691C82.4668 31.8485 82.6472 31.858 82.8287 31.8977C83.0102 31.9374 83.1803 32.0161 83.3391 32.134C83.4977 32.2504 83.6321 32.4135 83.7424 32.6232C83.8527 32.8328 83.9263 33.0982 83.9632 33.4191L83.9889 33.6431L81.3375 33.9476L81.2851 33.4908L83.399 33.248C83.3767 33.0539 83.318 32.8852 83.2229 32.7418C83.1292 32.5983 83.0065 32.4906 82.8545 32.4188C82.7041 32.3469 82.5333 32.3219 82.3422 32.3438C82.1317 32.368 81.9556 32.4412 81.8138 32.5633C81.6734 32.6839 81.5716 32.8317 81.5085 33.0068C81.4455 33.182 81.4248 33.3643 81.4466 33.5539L81.4816 33.8585C81.5114 34.1182 81.5815 34.3333 81.6918 34.5036C81.8035 34.6723 81.9453 34.7944 82.1173 34.87C82.2892 34.944 82.4819 34.9688 82.6954 34.9442C82.8342 34.9283 82.9574 34.8945 83.0649 34.8428C83.1737 34.7895 83.2646 34.7185 83.3377 34.63C83.4105 34.5399 83.4625 34.4326 83.4935 34.308L84.0206 34.3927C83.9867 34.572 83.9139 34.7347 83.8021 34.8806C83.6901 35.0251 83.545 35.1446 83.3668 35.2392C83.1884 35.3323 82.9828 35.3922 82.7499 35.419ZM85.2606 32.9615L85.4983 35.0307L84.9698 35.0914L84.5747 31.6518L85.0853 31.5931L85.147 32.1306L85.1918 32.1254C85.2523 31.9415 85.3586 31.7871 85.5107 31.6622C85.6625 31.5359 85.8684 31.4578 86.1281 31.4279C86.361 31.4012 86.5703 31.4256 86.7559 31.501C86.9414 31.575 87.0937 31.7027 87.2129 31.8842C87.3319 32.0641 87.4082 32.3004 87.4418 32.593L87.6928 34.7786L87.1644 34.8393L86.9174 32.6895C86.8864 32.4193 86.792 32.2169 86.6344 32.0822C86.4765 31.9461 86.2752 31.892 86.0304 31.9202C85.8617 31.9395 85.7151 31.9934 85.5906 32.0819C85.4677 32.1701 85.3762 32.2888 85.3162 32.4378C85.2561 32.5869 85.2376 32.7615 85.2606 32.9615ZM90.6647 33.0123L90.4311 30.979L90.9596 30.9183L91.3547 34.3579L90.8262 34.4187L90.7593 33.8364L90.7235 33.8405C90.663 34.0245 90.5546 34.1874 90.3985 34.3294C90.2422 34.4699 90.0342 34.555 89.7744 34.5849C89.5594 34.6095 89.3629 34.5845 89.1849 34.5096C89.0067 34.4333 88.8589 34.3051 88.7414 34.1249C88.6237 33.9433 88.5481 33.7062 88.5145 33.4136L88.2634 31.228L88.7919 31.1673L89.0389 33.3171C89.0677 33.5679 89.1608 33.7599 89.3183 33.8931C89.4773 34.026 89.6665 34.0799 89.8859 34.0547C90.0173 34.0396 90.1471 33.9907 90.2752 33.9079C90.4048 33.825 90.508 33.7087 90.5846 33.5593C90.6627 33.4096 90.6894 33.2273 90.6647 33.0123ZM93.773 34.1528C93.4416 34.1908 93.1473 34.1505 92.8902 34.0318C92.6343 33.9115 92.4263 33.7266 92.266 33.4773C92.1071 33.2263 92.0074 32.9247 91.967 32.5723C91.9265 32.22 91.955 31.9021 92.0525 31.6187C92.1514 31.3335 92.3078 31.1023 92.5219 30.9249C92.7373 30.7459 93.0003 30.6385 93.3108 30.6029C93.4899 30.5823 93.6703 30.5918 93.8518 30.6315C94.0333 30.6711 94.2035 30.7499 94.3622 30.8678C94.5208 30.9842 94.6552 31.1472 94.7656 31.3569C94.8759 31.5666 94.9494 31.8319 94.9863 32.1529L95.012 32.3768L92.3607 32.6814L92.3082 32.2246L94.4221 31.9817C94.3998 31.7877 94.3411 31.619 94.246 31.4756C94.1524 31.3321 94.0296 31.2244 93.8776 31.1526C93.7272 31.0807 93.5564 31.0557 93.3653 31.0776C93.1548 31.1018 92.9787 31.175 92.8369 31.2971C92.6965 31.4176 92.5947 31.5654 92.5317 31.7406C92.4686 31.9157 92.4479 32.0981 92.4697 32.2877L92.5047 32.5922C92.5345 32.852 92.6046 33.0671 92.7149 33.2374C92.8266 33.4061 92.9684 33.5282 93.1405 33.6037C93.3123 33.6778 93.505 33.7025 93.7185 33.678C93.8573 33.6621 93.9805 33.6283 94.088 33.5766C94.1968 33.5232 94.2878 33.4523 94.3608 33.3637C94.4336 33.2737 94.4856 33.1664 94.5167 33.0418L95.0437 33.1265C95.0098 33.3058 94.937 33.4685 94.8252 33.6144C94.7132 33.7589 94.5681 33.8784 94.3899 33.973C94.2116 34.0661 94.0059 34.126 93.773 34.1528Z" fill="#9291A5"/>
</g>
</g>
<defs>
<filter id="filter0_d_89_1510" x="0.5" y="0" width="206" height="316" filterUnits="userSpaceOnUse" color-interpolation-filters="sRGB">
<feFlood flood-opacity="0" result="BackgroundImageFix"/>
<feColorMatrix in="SourceAlpha" type="matrix" values="0 0 0 0 0 0 0 0 0 0 0 0 0 0 0 0 0 0 127 0" result="hardAlpha"/>
<feOffset dy="2"/>
<feGaussianBlur stdDeviation="4"/>
<feComposite in2="hardAlpha" operator="out"/>
<feColorMatrix type="matrix" values="0 0 0 0 0.792342 0 0 0 0 0.797855 0 0 0 0 0.888822 0 0 0 1 0"/>
<feBlend mode="normal" in2="BackgroundImageFix" result="effect1_dropShadow_89_1510"/>
<feBlend mode="normal" in="SourceGraphic" in2="effect1_dropShadow_89_1510" result="shape"/>
</filter>
<filter id="filter1_d_89_1510" x="50.7543" y="0.161056" width="168.814" height="158.049" filterUnits="userSpaceOnUse" color-interpolation-filters="sRGB">
<feFlood flood-opacity="0" result="BackgroundImageFix"/>
<feColorMatrix in="SourceAlpha" type="matrix" values="0 0 0 0 0 0 0 0 0 0 0 0 0 0 0 0 0 0 127 0" result="hardAlpha"/>
<feOffset dy="0.906777"/>
<feGaussianBlur stdDeviation="1.36017"/>
<feComposite in2="hardAlpha" operator="out"/>
<feColorMatrix type="matrix" values="0 0 0 0 0.0509804 0 0 0 0 0.0392157 0 0 0 0 0.172549 0 0 0 0.08 0"/>
<feBlend mode="normal" in2="BackgroundImageFix" result="effect1_dropShadow_89_1510"/>
<feBlend mode="normal" in="SourceGraphic" in2="effect1_dropShadow_89_1510" result="shape"/>
</filter>
<clipPath id="clip0_89_1510">
<rect x="8.5" y="6" width="190" height="300" rx="32" fill="white"/>
</clipPath>
</defs>
</svg>
