<svg width="207" height="316" viewBox="0 0 207 316" fill="none" xmlns="http://www.w3.org/2000/svg">
<g filter="url(#filter0_d_89_1507)">
<g clip-path="url(#clip0_89_1507)">
<rect x="8.5" y="6" width="190" height="300" rx="32" fill="#DDE1FA"/>
<path d="M29.84 219.72H32.5L38 234H35.32L33.98 230.22H28.28L26.94 234H24.36L29.84 219.72ZM28.96 228.32H33.32L31.18 222.18H31.12L28.96 228.32ZM39.3598 219.72H41.8598V234H39.3598V219.72ZM44.3863 227.48H50.2063V229.64H44.3863V227.48ZM52.6997 219.72H58.9997C60.013 219.72 60.8397 219.867 61.4797 220.16C62.1197 220.453 62.613 220.82 62.9597 221.26C63.3064 221.7 63.5397 222.18 63.6597 222.7C63.793 223.22 63.8597 223.7 63.8597 224.14C63.8597 224.58 63.793 225.06 63.6597 225.58C63.5397 226.087 63.3064 226.56 62.9597 227C62.613 227.44 62.1197 227.807 61.4797 228.1C60.8397 228.38 60.013 228.52 58.9997 228.52H55.1997V234H52.6997V219.72ZM55.1997 226.48H58.8597C59.1397 226.48 59.4264 226.44 59.7197 226.36C60.013 226.28 60.2797 226.153 60.5197 225.98C60.773 225.793 60.973 225.553 61.1197 225.26C61.2797 224.953 61.3597 224.573 61.3597 224.12C61.3597 223.653 61.293 223.267 61.1597 222.96C61.0264 222.653 60.8464 222.413 60.6197 222.24C60.393 222.053 60.133 221.927 59.8397 221.86C59.5464 221.793 59.233 221.76 58.8997 221.76H55.1997V226.48ZM70.4595 234.28C69.6329 234.28 68.8929 234.147 68.2395 233.88C67.5995 233.6 67.0529 233.22 66.5995 232.74C66.1595 232.26 65.8195 231.687 65.5795 231.02C65.3529 230.353 65.2395 229.62 65.2395 228.82C65.2395 228.033 65.3529 227.307 65.5795 226.64C65.8195 225.973 66.1595 225.4 66.5995 224.92C67.0529 224.44 67.5995 224.067 68.2395 223.8C68.8929 223.52 69.6329 223.38 70.4595 223.38C71.2862 223.38 72.0195 223.52 72.6595 223.8C73.3129 224.067 73.8595 224.44 74.2995 224.92C74.7529 225.4 75.0929 225.973 75.3195 226.64C75.5595 227.307 75.6795 228.033 75.6795 228.82C75.6795 229.62 75.5595 230.353 75.3195 231.02C75.0929 231.687 74.7529 232.26 74.2995 232.74C73.8595 233.22 73.3129 233.6 72.6595 233.88C72.0195 234.147 71.2862 234.28 70.4595 234.28ZM70.4595 232.48C70.9662 232.48 71.4062 232.373 71.7795 232.16C72.1529 231.947 72.4595 231.667 72.6995 231.32C72.9395 230.973 73.1129 230.587 73.2195 230.16C73.3395 229.72 73.3995 229.273 73.3995 228.82C73.3995 228.38 73.3395 227.94 73.2195 227.5C73.1129 227.06 72.9395 226.673 72.6995 226.34C72.4595 225.993 72.1529 225.713 71.7795 225.5C71.4062 225.287 70.9662 225.18 70.4595 225.18C69.9529 225.18 69.5129 225.287 69.1395 225.5C68.7662 225.713 68.4595 225.993 68.2195 226.34C67.9795 226.673 67.7995 227.06 67.6795 227.5C67.5729 227.94 67.5195 228.38 67.5195 228.82C67.5195 229.273 67.5729 229.72 67.6795 230.16C67.7995 230.587 67.9795 230.973 68.2195 231.32C68.4595 231.667 68.7662 231.947 69.1395 232.16C69.5129 232.373 69.9529 232.48 70.4595 232.48ZM76.635 223.66H79.055L81.075 231.38H81.115L83.055 223.66H85.355L87.215 231.38H87.255L89.355 223.66H91.675L88.435 234H86.095L84.175 226.32H84.135L82.235 234H79.835L76.635 223.66ZM100.241 227.92C100.215 227.56 100.135 227.213 100.001 226.88C99.8814 226.547 99.7081 226.26 99.4814 226.02C99.2681 225.767 99.0014 225.567 98.6814 225.42C98.3747 225.26 98.0281 225.18 97.6414 225.18C97.2414 225.18 96.8747 225.253 96.5414 225.4C96.2214 225.533 95.9414 225.727 95.7014 225.98C95.4747 226.22 95.2881 226.507 95.1414 226.84C95.0081 227.173 94.9347 227.533 94.9214 227.92H100.241ZM94.9214 229.42C94.9214 229.82 94.9747 230.207 95.0814 230.58C95.2014 230.953 95.3747 231.28 95.6014 231.56C95.8281 231.84 96.1147 232.067 96.4614 232.24C96.8081 232.4 97.2214 232.48 97.7014 232.48C98.3681 232.48 98.9014 232.34 99.3014 232.06C99.7147 231.767 100.021 231.333 100.221 230.76H102.381C102.261 231.32 102.055 231.82 101.761 232.26C101.468 232.7 101.115 233.073 100.701 233.38C100.288 233.673 99.8214 233.893 99.3014 234.04C98.7947 234.2 98.2614 234.28 97.7014 234.28C96.8881 234.28 96.1681 234.147 95.5414 233.88C94.9147 233.613 94.3814 233.24 93.9414 232.76C93.5147 232.28 93.1881 231.707 92.9614 231.04C92.7481 230.373 92.6414 229.64 92.6414 228.84C92.6414 228.107 92.7547 227.413 92.9814 226.76C93.2214 226.093 93.5547 225.513 93.9814 225.02C94.4214 224.513 94.9481 224.113 95.5614 223.82C96.1747 223.527 96.8681 223.38 97.6414 223.38C98.4547 223.38 99.1814 223.553 99.8214 223.9C100.475 224.233 101.015 224.68 101.441 225.24C101.868 225.8 102.175 226.447 102.361 227.18C102.561 227.9 102.615 228.647 102.521 229.42H94.9214ZM104.255 223.66H106.395V225.66H106.435C106.501 225.38 106.628 225.107 106.815 224.84C107.015 224.573 107.248 224.333 107.515 224.12C107.795 223.893 108.101 223.713 108.435 223.58C108.768 223.447 109.108 223.38 109.455 223.38C109.721 223.38 109.901 223.387 109.995 223.4C110.101 223.413 110.208 223.427 110.315 223.44V225.64C110.155 225.613 109.988 225.593 109.815 225.58C109.655 225.553 109.495 225.54 109.335 225.54C108.948 225.54 108.581 225.62 108.235 225.78C107.901 225.927 107.608 226.153 107.355 226.46C107.101 226.753 106.901 227.12 106.755 227.56C106.608 228 106.535 228.507 106.535 229.08V234H104.255V223.66ZM118.034 227.92C118.008 227.56 117.928 227.213 117.794 226.88C117.674 226.547 117.501 226.26 117.274 226.02C117.061 225.767 116.794 225.567 116.474 225.42C116.168 225.26 115.821 225.18 115.434 225.18C115.034 225.18 114.668 225.253 114.334 225.4C114.014 225.533 113.734 225.727 113.494 225.98C113.268 226.22 113.081 226.507 112.934 226.84C112.801 227.173 112.728 227.533 112.714 227.92H118.034ZM112.714 229.42C112.714 229.82 112.768 230.207 112.874 230.58C112.994 230.953 113.168 231.28 113.394 231.56C113.621 231.84 113.908 232.067 114.254 232.24C114.601 232.4 115.014 232.48 115.494 232.48C116.161 232.48 116.694 232.34 117.094 232.06C117.508 231.767 117.814 231.333 118.014 230.76H120.174C120.054 231.32 119.848 231.82 119.554 232.26C119.261 232.7 118.908 233.073 118.494 233.38C118.081 233.673 117.614 233.893 117.094 234.04C116.588 234.2 116.054 234.28 115.494 234.28C114.681 234.28 113.961 234.147 113.334 233.88C112.708 233.613 112.174 233.24 111.734 232.76C111.308 232.28 110.981 231.707 110.754 231.04C110.541 230.373 110.434 229.64 110.434 228.84C110.434 228.107 110.548 227.413 110.774 226.76C111.014 226.093 111.348 225.513 111.774 225.02C112.214 224.513 112.741 224.113 113.354 223.82C113.968 223.527 114.661 223.38 115.434 223.38C116.248 223.38 116.974 223.553 117.614 223.9C118.268 224.233 118.808 224.68 119.234 225.24C119.661 225.8 119.968 226.447 120.154 227.18C120.354 227.9 120.408 228.647 120.314 229.42H112.714ZM131.788 234H129.628V232.6H129.588C129.281 233.2 128.834 233.633 128.248 233.9C127.661 234.153 127.041 234.28 126.388 234.28C125.574 234.28 124.861 234.14 124.248 233.86C123.648 233.567 123.148 233.173 122.748 232.68C122.348 232.187 122.048 231.607 121.848 230.94C121.648 230.26 121.548 229.533 121.548 228.76C121.548 227.827 121.674 227.02 121.928 226.34C122.181 225.66 122.514 225.1 122.928 224.66C123.354 224.22 123.834 223.9 124.368 223.7C124.914 223.487 125.468 223.38 126.028 223.38C126.348 223.38 126.674 223.413 127.008 223.48C127.341 223.533 127.661 223.627 127.968 223.76C128.274 223.893 128.554 224.067 128.808 224.28C129.074 224.48 129.294 224.72 129.468 225H129.508V219.72H131.788V234ZM123.828 228.94C123.828 229.38 123.881 229.813 123.988 230.24C124.108 230.667 124.281 231.047 124.508 231.38C124.748 231.713 125.048 231.98 125.408 232.18C125.768 232.38 126.194 232.48 126.688 232.48C127.194 232.48 127.628 232.373 127.988 232.16C128.361 231.947 128.661 231.667 128.888 231.32C129.128 230.973 129.301 230.587 129.408 230.16C129.528 229.72 129.588 229.273 129.588 228.82C129.588 227.673 129.328 226.78 128.808 226.14C128.301 225.5 127.608 225.18 126.728 225.18C126.194 225.18 125.741 225.293 125.368 225.52C125.008 225.733 124.708 226.02 124.468 226.38C124.241 226.727 124.074 227.127 123.968 227.58C123.874 228.02 123.828 228.473 123.828 228.94ZM27.66 253.24C27.66 253.787 27.7533 254.253 27.94 254.64C28.1267 255.027 28.3867 255.347 28.72 255.6C29.0533 255.84 29.4333 256.02 29.86 256.14C30.3 256.247 30.7733 256.3 31.28 256.3C31.8267 256.3 32.2933 256.24 32.68 256.12C33.0667 255.987 33.38 255.82 33.62 255.62C33.86 255.42 34.0333 255.193 34.14 254.94C34.2467 254.673 34.3 254.407 34.3 254.14C34.3 253.593 34.1733 253.193 33.92 252.94C33.68 252.673 33.4133 252.487 33.12 252.38C32.6133 252.193 32.02 252.02 31.34 251.86C30.6733 251.687 29.8467 251.467 28.86 251.2C28.2467 251.04 27.7333 250.833 27.32 250.58C26.92 250.313 26.6 250.02 26.36 249.7C26.12 249.38 25.9467 249.04 25.84 248.68C25.7467 248.32 25.7 247.953 25.7 247.58C25.7 246.86 25.8467 246.24 26.14 245.72C26.4467 245.187 26.8467 244.747 27.34 244.4C27.8333 244.053 28.3933 243.8 29.02 243.64C29.6467 243.467 30.28 243.38 30.92 243.38C31.6667 243.38 32.3667 243.48 33.02 243.68C33.6867 243.867 34.2667 244.153 34.76 244.54C35.2667 244.927 35.6667 245.407 35.96 245.98C36.2533 246.54 36.4 247.193 36.4 247.94H33.9C33.8333 247.02 33.52 246.373 32.96 246C32.4 245.613 31.6867 245.42 30.82 245.42C30.5267 245.42 30.2267 245.453 29.92 245.52C29.6133 245.573 29.3333 245.673 29.08 245.82C28.8267 245.953 28.6133 246.14 28.44 246.38C28.28 246.62 28.2 246.92 28.2 247.28C28.2 247.787 28.3533 248.187 28.66 248.48C28.98 248.76 29.3933 248.973 29.9 249.12C29.9533 249.133 30.16 249.193 30.52 249.3C30.8933 249.393 31.3067 249.5 31.76 249.62C32.2133 249.74 32.6533 249.86 33.08 249.98C33.52 250.087 33.8333 250.167 34.02 250.22C34.4867 250.367 34.8933 250.567 35.24 250.82C35.5867 251.073 35.8733 251.367 36.1 251.7C36.34 252.02 36.5133 252.367 36.62 252.74C36.74 253.113 36.8 253.487 36.8 253.86C36.8 254.66 36.6333 255.347 36.3 255.92C35.98 256.48 35.5533 256.94 35.02 257.3C34.4867 257.66 33.88 257.92 33.2 258.08C32.52 258.253 31.8267 258.34 31.12 258.34C30.3067 258.34 29.54 258.24 28.82 258.04C28.1 257.84 27.4733 257.533 26.94 257.12C26.4067 256.707 25.98 256.18 25.66 255.54C25.34 254.887 25.1733 254.12 25.16 253.24H27.66ZM45.6488 251.12C45.5554 250.48 45.2954 250 44.8688 249.68C44.4554 249.347 43.9288 249.18 43.2888 249.18C42.9954 249.18 42.6821 249.233 42.3488 249.34C42.0154 249.433 41.7088 249.62 41.4288 249.9C41.1488 250.167 40.9154 250.547 40.7288 251.04C40.5421 251.52 40.4488 252.153 40.4488 252.94C40.4488 253.367 40.4954 253.793 40.5888 254.22C40.6954 254.647 40.8554 255.027 41.0688 255.36C41.2954 255.693 41.5821 255.967 41.9288 256.18C42.2754 256.38 42.6954 256.48 43.1888 256.48C43.8554 256.48 44.4021 256.273 44.8288 255.86C45.2688 255.447 45.5421 254.867 45.6488 254.12H47.9288C47.7154 255.467 47.2021 256.5 46.3888 257.22C45.5888 257.927 44.5221 258.28 43.1888 258.28C42.3754 258.28 41.6554 258.147 41.0288 257.88C40.4154 257.6 39.8954 257.227 39.4688 256.76C39.0421 256.28 38.7154 255.713 38.4888 255.06C38.2754 254.407 38.1688 253.7 38.1688 252.94C38.1688 252.167 38.2754 251.44 38.4888 250.76C38.7021 250.08 39.0221 249.493 39.4488 249C39.8754 248.493 40.4021 248.1 41.0288 247.82C41.6688 247.527 42.4154 247.38 43.2688 247.38C43.8688 247.38 44.4354 247.46 44.9688 247.62C45.5154 247.767 45.9954 247.993 46.4088 248.3C46.8354 248.607 47.1821 248.993 47.4488 249.46C47.7154 249.927 47.8754 250.48 47.9288 251.12H45.6488ZM49.782 247.66H51.922V249.66H51.962C52.0287 249.38 52.1554 249.107 52.342 248.84C52.542 248.573 52.7754 248.333 53.042 248.12C53.322 247.893 53.6287 247.713 53.962 247.58C54.2954 247.447 54.6354 247.38 54.982 247.38C55.2487 247.38 55.4287 247.387 55.522 247.4C55.6287 247.413 55.7354 247.427 55.842 247.44V249.64C55.682 249.613 55.5154 249.593 55.342 249.58C55.182 249.553 55.022 249.54 54.862 249.54C54.4754 249.54 54.1087 249.62 53.762 249.78C53.4287 249.927 53.1354 250.153 52.882 250.46C52.6287 250.753 52.4287 251.12 52.282 251.56C52.1354 252 52.062 252.507 52.062 253.08V258H49.782V247.66ZM56.8733 243.72H59.1533V245.88H56.8733V243.72ZM56.8733 247.66H59.1533V258H56.8733V247.66ZM61.6975 247.66H63.8575V249.06H63.8975C64.2175 248.46 64.6642 248.033 65.2375 247.78C65.8108 247.513 66.4308 247.38 67.0975 247.38C67.9108 247.38 68.6175 247.527 69.2175 247.82C69.8308 248.1 70.3375 248.493 70.7375 249C71.1375 249.493 71.4375 250.073 71.6375 250.74C71.8375 251.407 71.9375 252.12 71.9375 252.88C71.9375 253.573 71.8442 254.247 71.6575 254.9C71.4842 255.553 71.2108 256.133 70.8375 256.64C70.4775 257.133 70.0175 257.533 69.4575 257.84C68.8975 258.133 68.2375 258.28 67.4775 258.28C67.1442 258.28 66.8108 258.247 66.4775 258.18C66.1442 258.127 65.8242 258.033 65.5175 257.9C65.2108 257.767 64.9242 257.6 64.6575 257.4C64.4042 257.187 64.1908 256.94 64.0175 256.66H63.9775V261.82H61.6975V247.66ZM69.6575 252.84C69.6575 252.373 69.5975 251.92 69.4775 251.48C69.3575 251.04 69.1775 250.653 68.9375 250.32C68.6975 249.973 68.3975 249.7 68.0375 249.5C67.6775 249.287 67.2642 249.18 66.7975 249.18C65.8375 249.18 65.1108 249.513 64.6175 250.18C64.1375 250.847 63.8975 251.733 63.8975 252.84C63.8975 253.36 63.9575 253.847 64.0775 254.3C64.2108 254.74 64.4042 255.12 64.6575 255.44C64.9108 255.76 65.2108 256.013 65.5575 256.2C65.9175 256.387 66.3308 256.48 66.7975 256.48C67.3175 256.48 67.7575 256.373 68.1175 256.16C68.4775 255.947 68.7708 255.673 68.9975 255.34C69.2375 254.993 69.4042 254.607 69.4975 254.18C69.6042 253.74 69.6575 253.293 69.6575 252.84ZM72.8241 247.66H74.5441V244.56H76.8241V247.66H78.8841V249.36H76.8241V254.88C76.8241 255.12 76.8307 255.327 76.8441 255.5C76.8707 255.673 76.9174 255.82 76.9841 255.94C77.0641 256.06 77.1774 256.153 77.3241 256.22C77.4707 256.273 77.6707 256.3 77.9241 256.3C78.0841 256.3 78.2441 256.3 78.4041 256.3C78.5641 256.287 78.7241 256.26 78.8841 256.22V257.98C78.6307 258.007 78.3841 258.033 78.1441 258.06C77.9041 258.087 77.6574 258.1 77.4041 258.1C76.8041 258.1 76.3174 258.047 75.9441 257.94C75.5841 257.82 75.2974 257.653 75.0841 257.44C74.8841 257.213 74.7441 256.933 74.6641 256.6C74.5974 256.267 74.5574 255.887 74.5441 255.46V249.36H72.8241V247.66ZM94.0306 256.4C93.4973 257.053 92.904 257.533 92.2506 257.84C91.6106 258.133 90.8706 258.28 90.0306 258.28C89.3773 258.28 88.7706 258.187 88.2106 258C87.664 257.8 87.1906 257.52 86.7906 257.16C86.3906 256.8 86.0773 256.36 85.8506 255.84C85.6373 255.307 85.5306 254.707 85.5306 254.04C85.5306 253.533 85.624 253.073 85.8106 252.66C85.9973 252.247 86.244 251.873 86.5506 251.54C86.8573 251.193 87.204 250.887 87.5906 250.62C87.9906 250.353 88.3973 250.113 88.8106 249.9C88.624 249.66 88.444 249.427 88.2706 249.2C88.0973 248.96 87.944 248.713 87.8106 248.46C87.6773 248.207 87.5706 247.94 87.4906 247.66C87.4106 247.38 87.3706 247.087 87.3706 246.78C87.3706 246.26 87.4573 245.793 87.6306 245.38C87.8173 244.967 88.0706 244.613 88.3906 244.32C88.7106 244.013 89.084 243.78 89.5106 243.62C89.9373 243.46 90.3906 243.38 90.8706 243.38C91.324 243.38 91.764 243.453 92.1906 243.6C92.6306 243.733 93.0106 243.947 93.3306 244.24C93.664 244.52 93.9306 244.873 94.1306 245.3C94.3306 245.727 94.4306 246.227 94.4306 246.8C94.4306 247.227 94.3573 247.62 94.2106 247.98C94.0773 248.34 93.8906 248.673 93.6506 248.98C93.424 249.273 93.1506 249.54 92.8306 249.78C92.524 250.02 92.1973 250.233 91.8506 250.42L94.0706 253.1C94.1506 252.873 94.2306 252.613 94.3106 252.32C94.3906 252.027 94.4573 251.647 94.5106 251.18H96.5106C96.444 251.807 96.3173 252.42 96.1306 253.02C95.9573 253.62 95.7106 254.173 95.3906 254.68L98.1306 258H95.3306L94.0306 256.4ZM90.0106 251.4C89.7973 251.533 89.564 251.667 89.3106 251.8C89.0573 251.933 88.8173 252.1 88.5906 252.3C88.3773 252.5 88.1906 252.74 88.0306 253.02C87.884 253.3 87.8106 253.653 87.8106 254.08C87.8106 254.853 88.024 255.447 88.4506 255.86C88.8906 256.273 89.444 256.48 90.1106 256.48C90.524 256.48 90.8773 256.427 91.1706 256.32C91.464 256.2 91.7106 256.06 91.9106 255.9C92.124 255.74 92.2973 255.567 92.4306 255.38C92.5773 255.193 92.704 255.027 92.8106 254.88L90.0106 251.4ZM90.9306 245.08C90.504 245.08 90.144 245.227 89.8506 245.52C89.5573 245.8 89.4106 246.18 89.4106 246.66C89.4106 246.9 89.4506 247.127 89.5306 247.34C89.624 247.54 89.7306 247.74 89.8506 247.94C89.984 248.127 90.124 248.313 90.2706 248.5C90.4306 248.687 90.5773 248.867 90.7106 249.04C90.924 248.893 91.1306 248.747 91.3306 248.6C91.5306 248.44 91.7106 248.273 91.8706 248.1C92.0306 247.913 92.1573 247.707 92.2506 247.48C92.344 247.253 92.3906 247 92.3906 246.72C92.3906 246.253 92.2573 245.867 91.9906 245.56C91.724 245.24 91.3706 245.08 90.9306 245.08ZM114.586 248.26C114.479 247.847 114.332 247.467 114.146 247.12C113.959 246.773 113.719 246.473 113.426 246.22C113.132 245.967 112.786 245.773 112.386 245.64C111.999 245.493 111.546 245.42 111.026 245.42C110.266 245.42 109.606 245.573 109.046 245.88C108.499 246.187 108.052 246.6 107.706 247.12C107.359 247.627 107.099 248.207 106.926 248.86C106.766 249.513 106.686 250.18 106.686 250.86C106.686 251.54 106.766 252.207 106.926 252.86C107.099 253.513 107.359 254.1 107.706 254.62C108.052 255.127 108.499 255.533 109.046 255.84C109.606 256.147 110.266 256.3 111.026 256.3C111.586 256.3 112.079 256.207 112.506 256.02C112.932 255.82 113.299 255.553 113.606 255.22C113.912 254.873 114.152 254.473 114.326 254.02C114.499 253.567 114.612 253.08 114.666 252.56H117.106C117.052 253.413 116.866 254.193 116.546 254.9C116.239 255.607 115.819 256.22 115.286 256.74C114.752 257.247 114.126 257.64 113.406 257.92C112.686 258.2 111.892 258.34 111.026 258.34C109.959 258.34 108.999 258.147 108.146 257.76C107.306 257.36 106.592 256.82 106.006 256.14C105.419 255.46 104.966 254.667 104.646 253.76C104.339 252.853 104.186 251.887 104.186 250.86C104.186 249.847 104.339 248.887 104.646 247.98C104.966 247.073 105.419 246.28 106.006 245.6C106.592 244.92 107.306 244.38 108.146 243.98C108.999 243.58 109.959 243.38 111.026 243.38C111.826 243.38 112.579 243.493 113.286 243.72C113.992 243.933 114.612 244.253 115.146 244.68C115.692 245.093 116.132 245.6 116.466 246.2C116.799 246.8 117.006 247.487 117.086 248.26H114.586ZM127.719 255.7C127.719 255.98 127.753 256.18 127.819 256.3C127.899 256.42 128.046 256.48 128.259 256.48C128.326 256.48 128.406 256.48 128.499 256.48C128.593 256.48 128.699 256.467 128.819 256.44V258.02C128.739 258.047 128.633 258.073 128.499 258.1C128.379 258.14 128.253 258.173 128.119 258.2C127.986 258.227 127.853 258.247 127.719 258.26C127.586 258.273 127.473 258.28 127.379 258.28C126.913 258.28 126.526 258.187 126.219 258C125.913 257.813 125.713 257.487 125.619 257.02C125.166 257.46 124.606 257.78 123.939 257.98C123.286 258.18 122.653 258.28 122.039 258.28C121.573 258.28 121.126 258.213 120.699 258.08C120.273 257.96 119.893 257.78 119.559 257.54C119.239 257.287 118.979 256.973 118.779 256.6C118.593 256.213 118.499 255.767 118.499 255.26C118.499 254.62 118.613 254.1 118.839 253.7C119.079 253.3 119.386 252.987 119.759 252.76C120.146 252.533 120.573 252.373 121.039 252.28C121.519 252.173 121.999 252.093 122.479 252.04C122.893 251.96 123.286 251.907 123.659 251.88C124.033 251.84 124.359 251.78 124.639 251.7C124.933 251.62 125.159 251.5 125.319 251.34C125.493 251.167 125.579 250.913 125.579 250.58C125.579 250.287 125.506 250.047 125.359 249.86C125.226 249.673 125.053 249.533 124.839 249.44C124.639 249.333 124.413 249.267 124.159 249.24C123.906 249.2 123.666 249.18 123.439 249.18C122.799 249.18 122.273 249.313 121.859 249.58C121.446 249.847 121.213 250.26 121.159 250.82H118.879C118.919 250.153 119.079 249.6 119.359 249.16C119.639 248.72 119.993 248.367 120.419 248.1C120.859 247.833 121.353 247.647 121.899 247.54C122.446 247.433 123.006 247.38 123.579 247.38C124.086 247.38 124.586 247.433 125.079 247.54C125.573 247.647 126.013 247.82 126.399 248.06C126.799 248.3 127.119 248.613 127.359 249C127.599 249.373 127.719 249.833 127.719 250.38V255.7ZM125.439 252.82C125.093 253.047 124.666 253.187 124.159 253.24C123.653 253.28 123.146 253.347 122.639 253.44C122.399 253.48 122.166 253.54 121.939 253.62C121.713 253.687 121.513 253.787 121.339 253.92C121.166 254.04 121.026 254.207 120.919 254.42C120.826 254.62 120.779 254.867 120.779 255.16C120.779 255.413 120.853 255.627 120.999 255.8C121.146 255.973 121.319 256.113 121.519 256.22C121.733 256.313 121.959 256.38 122.199 256.42C122.453 256.46 122.679 256.48 122.879 256.48C123.133 256.48 123.406 256.447 123.699 256.38C123.993 256.313 124.266 256.2 124.519 256.04C124.786 255.88 125.006 255.68 125.179 255.44C125.353 255.187 125.439 254.88 125.439 254.52V252.82ZM130.233 247.66H132.393V249.06H132.433C132.753 248.46 133.199 248.033 133.773 247.78C134.346 247.513 134.966 247.38 135.633 247.38C136.446 247.38 137.153 247.527 137.753 247.82C138.366 248.1 138.873 248.493 139.273 249C139.673 249.493 139.973 250.073 140.173 250.74C140.373 251.407 140.473 252.12 140.473 252.88C140.473 253.573 140.379 254.247 140.193 254.9C140.019 255.553 139.746 256.133 139.373 256.64C139.013 257.133 138.553 257.533 137.993 257.84C137.433 258.133 136.773 258.28 136.013 258.28C135.679 258.28 135.346 258.247 135.013 258.18C134.679 258.127 134.359 258.033 134.053 257.9C133.746 257.767 133.459 257.6 133.193 257.4C132.939 257.187 132.726 256.94 132.553 256.66H132.513V261.82H130.233V247.66ZM138.193 252.84C138.193 252.373 138.133 251.92 138.013 251.48C137.893 251.04 137.713 250.653 137.473 250.32C137.233 249.973 136.933 249.7 136.573 249.5C136.213 249.287 135.799 249.18 135.333 249.18C134.373 249.18 133.646 249.513 133.153 250.18C132.673 250.847 132.433 251.733 132.433 252.84C132.433 253.36 132.493 253.847 132.613 254.3C132.746 254.74 132.939 255.12 133.193 255.44C133.446 255.76 133.746 256.013 134.093 256.2C134.453 256.387 134.866 256.48 135.333 256.48C135.853 256.48 136.293 256.373 136.653 256.16C137.013 255.947 137.306 255.673 137.533 255.34C137.773 254.993 137.939 254.607 138.033 254.18C138.139 253.74 138.193 253.293 138.193 252.84ZM141.359 247.66H143.079V244.56H145.359V247.66H147.419V249.36H145.359V254.88C145.359 255.12 145.366 255.327 145.379 255.5C145.406 255.673 145.453 255.82 145.519 255.94C145.599 256.06 145.713 256.153 145.859 256.22C146.006 256.273 146.206 256.3 146.459 256.3C146.619 256.3 146.779 256.3 146.939 256.3C147.099 256.287 147.259 256.26 147.419 256.22V257.98C147.166 258.007 146.919 258.033 146.679 258.06C146.439 258.087 146.193 258.1 145.939 258.1C145.339 258.1 144.853 258.047 144.479 257.94C144.119 257.82 143.833 257.653 143.619 257.44C143.419 257.213 143.279 256.933 143.199 256.6C143.133 256.267 143.093 255.887 143.079 255.46V249.36H141.359V247.66ZM149.119 243.72H151.399V245.88H149.119V243.72ZM149.119 247.66H151.399V258H149.119V247.66ZM158.624 258.28C157.797 258.28 157.057 258.147 156.404 257.88C155.764 257.6 155.217 257.22 154.764 256.74C154.324 256.26 153.984 255.687 153.744 255.02C153.517 254.353 153.404 253.62 153.404 252.82C153.404 252.033 153.517 251.307 153.744 250.64C153.984 249.973 154.324 249.4 154.764 248.92C155.217 248.44 155.764 248.067 156.404 247.8C157.057 247.52 157.797 247.38 158.624 247.38C159.45 247.38 160.184 247.52 160.824 247.8C161.477 248.067 162.024 248.44 162.464 248.92C162.917 249.4 163.257 249.973 163.484 250.64C163.724 251.307 163.844 252.033 163.844 252.82C163.844 253.62 163.724 254.353 163.484 255.02C163.257 255.687 162.917 256.26 162.464 256.74C162.024 257.22 161.477 257.6 160.824 257.88C160.184 258.147 159.45 258.28 158.624 258.28ZM158.624 256.48C159.13 256.48 159.57 256.373 159.944 256.16C160.317 255.947 160.624 255.667 160.864 255.32C161.104 254.973 161.277 254.587 161.384 254.16C161.504 253.72 161.564 253.273 161.564 252.82C161.564 252.38 161.504 251.94 161.384 251.5C161.277 251.06 161.104 250.673 160.864 250.34C160.624 249.993 160.317 249.713 159.944 249.5C159.57 249.287 159.13 249.18 158.624 249.18C158.117 249.18 157.677 249.287 157.304 249.5C156.93 249.713 156.624 249.993 156.384 250.34C156.144 250.673 155.964 251.06 155.844 251.5C155.737 251.94 155.684 252.38 155.684 252.82C155.684 253.273 155.737 253.72 155.844 254.16C155.964 254.587 156.144 254.973 156.384 255.32C156.624 255.667 156.93 255.947 157.304 256.16C157.677 256.373 158.117 256.48 158.624 256.48ZM165.739 247.66H167.899V249.18L167.939 249.22C168.286 248.647 168.739 248.2 169.299 247.88C169.859 247.547 170.479 247.38 171.159 247.38C172.292 247.38 173.186 247.673 173.839 248.26C174.492 248.847 174.819 249.727 174.819 250.9V258H172.539V251.5C172.512 250.687 172.339 250.1 172.019 249.74C171.699 249.367 171.199 249.18 170.519 249.18C170.132 249.18 169.786 249.253 169.479 249.4C169.172 249.533 168.912 249.727 168.699 249.98C168.486 250.22 168.319 250.507 168.199 250.84C168.079 251.173 168.019 251.527 168.019 251.9V258H165.739V247.66ZM38.48 282H36.88L36.5 280.32C35.8333 281.08 35.1667 281.607 34.5 281.9C33.8333 282.193 33.0667 282.34 32.2 282.34C31.1333 282.34 30.1733 282.147 29.32 281.76C28.48 281.36 27.7667 280.82 27.18 280.14C26.5933 279.46 26.14 278.667 25.82 277.76C25.5133 276.853 25.36 275.887 25.36 274.86C25.36 273.847 25.5133 272.887 25.82 271.98C26.14 271.073 26.5933 270.28 27.18 269.6C27.7667 268.92 28.48 268.38 29.32 267.98C30.1733 267.58 31.1333 267.38 32.2 267.38C32.9733 267.38 33.7067 267.487 34.4 267.7C35.1067 267.9 35.7333 268.207 36.28 268.62C36.8267 269.02 37.28 269.527 37.64 270.14C38 270.753 38.2267 271.46 38.32 272.26H35.88C35.8133 271.793 35.6667 271.387 35.44 271.04C35.2267 270.68 34.9533 270.38 34.62 270.14C34.2867 269.9 33.9133 269.72 33.5 269.6C33.0867 269.48 32.6533 269.42 32.2 269.42C31.44 269.42 30.78 269.573 30.22 269.88C29.6733 270.187 29.2267 270.6 28.88 271.12C28.5333 271.627 28.2733 272.207 28.1 272.86C27.94 273.513 27.86 274.18 27.86 274.86C27.86 275.54 27.94 276.207 28.1 276.86C28.2733 277.513 28.5333 278.1 28.88 278.62C29.2267 279.127 29.6733 279.533 30.22 279.84C30.78 280.147 31.44 280.3 32.2 280.3C32.84 280.313 33.4067 280.233 33.9 280.06C34.3933 279.873 34.8067 279.613 35.14 279.28C35.4867 278.933 35.7467 278.513 35.92 278.02C36.0933 277.527 36.1867 276.98 36.2 276.38H32.4V274.48H38.48V282ZM47.9758 275.92C47.9491 275.56 47.8691 275.213 47.7358 274.88C47.6158 274.547 47.4424 274.26 47.2158 274.02C47.0024 273.767 46.7358 273.567 46.4158 273.42C46.1091 273.26 45.7624 273.18 45.3758 273.18C44.9758 273.18 44.6091 273.253 44.2758 273.4C43.9558 273.533 43.6758 273.727 43.4358 273.98C43.2091 274.22 43.0224 274.507 42.8758 274.84C42.7424 275.173 42.6691 275.533 42.6558 275.92H47.9758ZM42.6558 277.42C42.6558 277.82 42.7091 278.207 42.8158 278.58C42.9358 278.953 43.1091 279.28 43.3358 279.56C43.5624 279.84 43.8491 280.067 44.1958 280.24C44.5424 280.4 44.9558 280.48 45.4358 280.48C46.1024 280.48 46.6358 280.34 47.0358 280.06C47.4491 279.767 47.7558 279.333 47.9558 278.76H50.1158C49.9958 279.32 49.7891 279.82 49.4958 280.26C49.2024 280.7 48.8491 281.073 48.4358 281.38C48.0224 281.673 47.5558 281.893 47.0358 282.04C46.5291 282.2 45.9958 282.28 45.4358 282.28C44.6224 282.28 43.9024 282.147 43.2758 281.88C42.6491 281.613 42.1158 281.24 41.6758 280.76C41.2491 280.28 40.9224 279.707 40.6958 279.04C40.4824 278.373 40.3758 277.64 40.3758 276.84C40.3758 276.107 40.4891 275.413 40.7158 274.76C40.9558 274.093 41.2891 273.513 41.7158 273.02C42.1558 272.513 42.6824 272.113 43.2958 271.82C43.9091 271.527 44.6024 271.38 45.3758 271.38C46.1891 271.38 46.9158 271.553 47.5558 271.9C48.2091 272.233 48.7491 272.68 49.1758 273.24C49.6024 273.8 49.9091 274.447 50.0958 275.18C50.2958 275.9 50.3491 276.647 50.2558 277.42H42.6558ZM51.9891 271.66H54.1491V273.18L54.1891 273.22C54.5357 272.647 54.9891 272.2 55.5491 271.88C56.1091 271.547 56.7291 271.38 57.4091 271.38C58.5424 271.38 59.4357 271.673 60.0891 272.26C60.7424 272.847 61.0691 273.727 61.0691 274.9V282H58.7891V275.5C58.7624 274.687 58.5891 274.1 58.2691 273.74C57.9491 273.367 57.4491 273.18 56.7691 273.18C56.3824 273.18 56.0357 273.253 55.7291 273.4C55.4224 273.533 55.1624 273.727 54.9491 273.98C54.7357 274.22 54.5691 274.507 54.4491 274.84C54.3291 275.173 54.2691 275.527 54.2691 275.9V282H51.9891V271.66ZM70.5734 275.92C70.5468 275.56 70.4668 275.213 70.3334 274.88C70.2134 274.547 70.0401 274.26 69.8134 274.02C69.6001 273.767 69.3334 273.567 69.0134 273.42C68.7068 273.26 68.3601 273.18 67.9734 273.18C67.5734 273.18 67.2068 273.253 66.8734 273.4C66.5534 273.533 66.2734 273.727 66.0334 273.98C65.8068 274.22 65.6201 274.507 65.4734 274.84C65.3401 275.173 65.2668 275.533 65.2534 275.92H70.5734ZM65.2534 277.42C65.2534 277.82 65.3068 278.207 65.4134 278.58C65.5334 278.953 65.7068 279.28 65.9334 279.56C66.1601 279.84 66.4468 280.067 66.7934 280.24C67.1401 280.4 67.5534 280.48 68.0334 280.48C68.7001 280.48 69.2334 280.34 69.6334 280.06C70.0468 279.767 70.3534 279.333 70.5534 278.76H72.7134C72.5934 279.32 72.3868 279.82 72.0934 280.26C71.8001 280.7 71.4468 281.073 71.0334 281.38C70.6201 281.673 70.1534 281.893 69.6334 282.04C69.1268 282.2 68.5934 282.28 68.0334 282.28C67.2201 282.28 66.5001 282.147 65.8734 281.88C65.2468 281.613 64.7134 281.24 64.2734 280.76C63.8468 280.28 63.5201 279.707 63.2934 279.04C63.0801 278.373 62.9734 277.64 62.9734 276.84C62.9734 276.107 63.0868 275.413 63.3134 274.76C63.5534 274.093 63.8868 273.513 64.3134 273.02C64.7534 272.513 65.2801 272.113 65.8934 271.82C66.5068 271.527 67.2001 271.38 67.9734 271.38C68.7868 271.38 69.5134 271.553 70.1534 271.9C70.8068 272.233 71.3468 272.68 71.7734 273.24C72.2001 273.8 72.5068 274.447 72.6934 275.18C72.8934 275.9 72.9468 276.647 72.8534 277.42H65.2534ZM74.5867 271.66H76.7267V273.66H76.7667C76.8334 273.38 76.9601 273.107 77.1467 272.84C77.3467 272.573 77.5801 272.333 77.8467 272.12C78.1267 271.893 78.4334 271.713 78.7667 271.58C79.1001 271.447 79.4401 271.38 79.7867 271.38C80.0534 271.38 80.2334 271.387 80.3267 271.4C80.4334 271.413 80.5401 271.427 80.6467 271.44V273.64C80.4867 273.613 80.3201 273.593 80.1467 273.58C79.9867 273.553 79.8267 273.54 79.6667 273.54C79.2801 273.54 78.9134 273.62 78.5667 273.78C78.2334 273.927 77.9401 274.153 77.6867 274.46C77.4334 274.753 77.2334 275.12 77.0867 275.56C76.9401 276 76.8667 276.507 76.8667 277.08V282H74.5867V271.66ZM90.278 279.7C90.278 279.98 90.3113 280.18 90.378 280.3C90.458 280.42 90.6046 280.48 90.818 280.48C90.8846 280.48 90.9646 280.48 91.058 280.48C91.1513 280.48 91.258 280.467 91.378 280.44V282.02C91.298 282.047 91.1913 282.073 91.058 282.1C90.938 282.14 90.8113 282.173 90.678 282.2C90.5446 282.227 90.4113 282.247 90.278 282.26C90.1446 282.273 90.0313 282.28 89.938 282.28C89.4713 282.28 89.0846 282.187 88.778 282C88.4713 281.813 88.2713 281.487 88.178 281.02C87.7246 281.46 87.1646 281.78 86.498 281.98C85.8446 282.18 85.2113 282.28 84.598 282.28C84.1313 282.28 83.6846 282.213 83.258 282.08C82.8313 281.96 82.4513 281.78 82.118 281.54C81.798 281.287 81.538 280.973 81.338 280.6C81.1513 280.213 81.058 279.767 81.058 279.26C81.058 278.62 81.1713 278.1 81.398 277.7C81.638 277.3 81.9446 276.987 82.318 276.76C82.7046 276.533 83.1313 276.373 83.598 276.28C84.078 276.173 84.558 276.093 85.038 276.04C85.4513 275.96 85.8446 275.907 86.218 275.88C86.5913 275.84 86.918 275.78 87.198 275.7C87.4913 275.62 87.718 275.5 87.878 275.34C88.0513 275.167 88.138 274.913 88.138 274.58C88.138 274.287 88.0646 274.047 87.918 273.86C87.7846 273.673 87.6113 273.533 87.398 273.44C87.198 273.333 86.9713 273.267 86.718 273.24C86.4646 273.2 86.2246 273.18 85.998 273.18C85.358 273.18 84.8313 273.313 84.418 273.58C84.0046 273.847 83.7713 274.26 83.718 274.82H81.438C81.478 274.153 81.638 273.6 81.918 273.16C82.198 272.72 82.5513 272.367 82.978 272.1C83.418 271.833 83.9113 271.647 84.458 271.54C85.0046 271.433 85.5646 271.38 86.138 271.38C86.6446 271.38 87.1446 271.433 87.638 271.54C88.1313 271.647 88.5713 271.82 88.958 272.06C89.358 272.3 89.678 272.613 89.918 273C90.158 273.373 90.278 273.833 90.278 274.38V279.7ZM87.998 276.82C87.6513 277.047 87.2246 277.187 86.718 277.24C86.2113 277.28 85.7046 277.347 85.198 277.44C84.958 277.48 84.7246 277.54 84.498 277.62C84.2713 277.687 84.0713 277.787 83.898 277.92C83.7246 278.04 83.5846 278.207 83.478 278.42C83.3846 278.62 83.338 278.867 83.338 279.16C83.338 279.413 83.4113 279.627 83.558 279.8C83.7046 279.973 83.878 280.113 84.078 280.22C84.2913 280.313 84.518 280.38 84.758 280.42C85.0113 280.46 85.238 280.48 85.438 280.48C85.6913 280.48 85.9646 280.447 86.258 280.38C86.5513 280.313 86.8246 280.2 87.078 280.04C87.3446 279.88 87.5646 279.68 87.738 279.44C87.9113 279.187 87.998 278.88 87.998 278.52V276.82ZM91.6913 271.66H93.4113V268.56H95.6913V271.66H97.7513V273.36H95.6913V278.88C95.6913 279.12 95.6979 279.327 95.7113 279.5C95.7379 279.673 95.7846 279.82 95.8513 279.94C95.9313 280.06 96.0446 280.153 96.1913 280.22C96.3379 280.273 96.5379 280.3 96.7913 280.3C96.9513 280.3 97.1113 280.3 97.2713 280.3C97.4313 280.287 97.5913 280.26 97.7513 280.22V281.98C97.4979 282.007 97.2513 282.033 97.0113 282.06C96.7713 282.087 96.5246 282.1 96.2713 282.1C95.6713 282.1 95.1846 282.047 94.8113 281.94C94.4513 281.82 94.1646 281.653 93.9513 281.44C93.7513 281.213 93.6113 280.933 93.5313 280.6C93.4646 280.267 93.4246 279.887 93.4113 279.46V273.36H91.6913V271.66ZM104.131 282.28C103.305 282.28 102.565 282.147 101.911 281.88C101.271 281.6 100.725 281.22 100.271 280.74C99.8314 280.26 99.4914 279.687 99.2514 279.02C99.0247 278.353 98.9114 277.62 98.9114 276.82C98.9114 276.033 99.0247 275.307 99.2514 274.64C99.4914 273.973 99.8314 273.4 100.271 272.92C100.725 272.44 101.271 272.067 101.911 271.8C102.565 271.52 103.305 271.38 104.131 271.38C104.958 271.38 105.691 271.52 106.331 271.8C106.985 272.067 107.531 272.44 107.971 272.92C108.425 273.4 108.765 273.973 108.991 274.64C109.231 275.307 109.351 276.033 109.351 276.82C109.351 277.62 109.231 278.353 108.991 279.02C108.765 279.687 108.425 280.26 107.971 280.74C107.531 281.22 106.985 281.6 106.331 281.88C105.691 282.147 104.958 282.28 104.131 282.28ZM104.131 280.48C104.638 280.48 105.078 280.373 105.451 280.16C105.825 279.947 106.131 279.667 106.371 279.32C106.611 278.973 106.785 278.587 106.891 278.16C107.011 277.72 107.071 277.273 107.071 276.82C107.071 276.38 107.011 275.94 106.891 275.5C106.785 275.06 106.611 274.673 106.371 274.34C106.131 273.993 105.825 273.713 105.451 273.5C105.078 273.287 104.638 273.18 104.131 273.18C103.625 273.18 103.185 273.287 102.811 273.5C102.438 273.713 102.131 273.993 101.891 274.34C101.651 274.673 101.471 275.06 101.351 275.5C101.245 275.94 101.191 276.38 101.191 276.82C101.191 277.273 101.245 277.72 101.351 278.16C101.471 278.587 101.651 278.973 101.891 279.32C102.131 279.667 102.438 279.947 102.811 280.16C103.185 280.373 103.625 280.48 104.131 280.48ZM111.247 271.66H113.387V273.66H113.427C113.494 273.38 113.62 273.107 113.807 272.84C114.007 272.573 114.24 272.333 114.507 272.12C114.787 271.893 115.094 271.713 115.427 271.58C115.76 271.447 116.1 271.38 116.447 271.38C116.714 271.38 116.894 271.387 116.987 271.4C117.094 271.413 117.2 271.427 117.307 271.44V273.64C117.147 273.613 116.98 273.593 116.807 273.58C116.647 273.553 116.487 273.54 116.327 273.54C115.94 273.54 115.574 273.62 115.227 273.78C114.894 273.927 114.6 274.153 114.347 274.46C114.094 274.753 113.894 275.12 113.747 275.56C113.6 276 113.527 276.507 113.527 277.08V282H111.247V271.66Z" fill="#19225F"/>
<path d="M25.892 200H24.724L28.932 188.544H30.356L34.612 200H33.412L32.292 196.96H27.012L25.892 200ZM29.492 190.16L27.364 195.952H31.924L29.78 190.16C29.7587 190.075 29.732 189.989 29.7 189.904C29.668 189.819 29.6467 189.749 29.636 189.696C29.6253 189.749 29.604 189.824 29.572 189.92C29.5507 190.005 29.524 190.085 29.492 190.16ZM37.3565 188.544V200H36.2045V188.544H37.3565ZM49.3795 189.44C48.5048 189.44 47.7422 189.643 47.0915 190.048C46.4408 190.453 45.9395 191.024 45.5875 191.76C45.2462 192.485 45.0755 193.339 45.0755 194.32C45.0755 195.312 45.2568 196.165 45.6195 196.88C45.9822 197.595 46.4888 198.144 47.1395 198.528C47.8008 198.912 48.5582 199.104 49.4115 199.104C49.9022 199.104 50.3715 199.04 50.8195 198.912C51.2675 198.784 51.6675 198.581 52.0195 198.304C52.3822 198.016 52.6702 197.637 52.8835 197.168C53.0968 196.688 53.2035 196.107 53.2035 195.424V194.288L53.7635 194.848H49.0595V193.808H54.2915V200.016H53.3795L53.2355 197.648L53.3955 197.92C53.2248 198.336 52.9475 198.72 52.5635 199.072C52.1902 199.413 51.7315 199.685 51.1875 199.888C50.6435 200.091 50.0355 200.192 49.3635 200.192C48.2862 200.192 47.3315 199.952 46.4995 199.472C45.6782 198.981 45.0328 198.293 44.5635 197.408C44.1048 196.523 43.8755 195.493 43.8755 194.32C43.8755 193.147 44.1048 192.112 44.5635 191.216C45.0328 190.32 45.6835 189.621 46.5155 189.12C47.3475 188.608 48.3075 188.352 49.3955 188.352C50.2062 188.352 50.9422 188.496 51.6035 188.784C52.2648 189.072 52.8142 189.477 53.2515 190C53.6888 190.512 53.9822 191.115 54.1315 191.808H52.8835C52.6488 191.019 52.2168 190.427 51.5875 190.032C50.9582 189.637 50.2222 189.44 49.3795 189.44ZM59.5875 200.192C58.8408 200.192 58.1795 200.021 57.6035 199.68C57.0382 199.339 56.5955 198.864 56.2755 198.256C55.9555 197.648 55.7955 196.939 55.7955 196.128C55.7955 195.328 55.9502 194.624 56.2595 194.016C56.5795 193.397 57.0168 192.917 57.5715 192.576C58.1262 192.224 58.7715 192.048 59.5075 192.048C60.2115 192.048 60.8248 192.203 61.3475 192.512C61.8808 192.821 62.2915 193.253 62.5795 193.808C62.8782 194.352 63.0275 194.992 63.0275 195.728V196.272H56.4035L56.4355 195.472H61.9235C61.9235 194.725 61.6995 194.128 61.2515 193.68C60.8142 193.221 60.2328 192.992 59.5075 192.992C58.9742 192.992 58.5048 193.115 58.0995 193.36C57.7048 193.605 57.4008 193.957 57.1875 194.416C56.9742 194.864 56.8675 195.397 56.8675 196.016C56.8675 197.04 57.1022 197.835 57.5715 198.4C58.0515 198.965 58.7288 199.248 59.6035 199.248C60.2328 199.248 60.7502 199.115 61.1555 198.848C61.5608 198.581 61.8328 198.192 61.9715 197.68H63.0275C62.8248 198.491 62.4302 199.115 61.8435 199.552C61.2568 199.979 60.5048 200.192 59.5875 200.192ZM65.8966 200H64.7926V192.256H65.7526L65.9126 193.6C66.1686 193.109 66.5313 192.731 67.0006 192.464C67.4806 192.187 68.0033 192.048 68.5686 192.048C69.6353 192.048 70.4033 192.341 70.8726 192.928C71.342 193.515 71.5766 194.293 71.5766 195.264V200H70.4726V195.504C70.4726 194.597 70.2806 193.963 69.8966 193.6C69.5233 193.237 69.0166 193.056 68.3766 193.056C67.5873 193.056 66.974 193.323 66.5366 193.856C66.11 194.379 65.8966 195.077 65.8966 195.952V200ZM77.025 200.192C76.2783 200.192 75.617 200.021 75.041 199.68C74.4757 199.339 74.033 198.864 73.713 198.256C73.393 197.648 73.233 196.939 73.233 196.128C73.233 195.328 73.3877 194.624 73.697 194.016C74.017 193.397 74.4543 192.917 75.009 192.576C75.5637 192.224 76.209 192.048 76.945 192.048C77.649 192.048 78.2623 192.203 78.785 192.512C79.3183 192.821 79.729 193.253 80.017 193.808C80.3157 194.352 80.465 194.992 80.465 195.728V196.272H73.841L73.873 195.472H79.361C79.361 194.725 79.137 194.128 78.689 193.68C78.2517 193.221 77.6703 192.992 76.945 192.992C76.4117 192.992 75.9423 193.115 75.537 193.36C75.1423 193.605 74.8383 193.957 74.625 194.416C74.4117 194.864 74.305 195.397 74.305 196.016C74.305 197.04 74.5397 197.835 75.009 198.4C75.489 198.965 76.1663 199.248 77.041 199.248C77.6703 199.248 78.1877 199.115 78.593 198.848C78.9983 198.581 79.2703 198.192 79.409 197.68H80.465C80.2623 198.491 79.8677 199.115 79.281 199.552C78.6943 199.979 77.9423 200.192 77.025 200.192ZM86.2781 192.16V193.152H85.6701C84.9555 193.152 84.3848 193.371 83.9581 193.808C83.5421 194.245 83.3341 194.837 83.3341 195.584V200H82.2301V192.256H83.2701L83.3661 193.776H83.2541C83.3608 193.275 83.6221 192.869 84.0381 192.56C84.4541 192.24 84.9608 192.08 85.5581 192.08C85.6755 192.08 85.7928 192.085 85.9101 192.096C86.0275 192.107 86.1501 192.128 86.2781 192.16ZM89.6573 200.192C88.8359 200.192 88.1906 199.979 87.7213 199.552C87.2626 199.125 87.0333 198.576 87.0333 197.904C87.0333 197.189 87.2893 196.619 87.8013 196.192C88.3133 195.765 89.0226 195.515 89.9293 195.44L92.4893 195.232V194.976C92.4893 194.464 92.3986 194.064 92.2173 193.776C92.0359 193.477 91.7906 193.269 91.4813 193.152C91.1719 193.035 90.8253 192.976 90.4413 192.976C89.7586 192.976 89.2306 193.12 88.8573 193.408C88.4839 193.696 88.2973 194.101 88.2973 194.624H87.2893C87.2893 194.101 87.4226 193.648 87.6893 193.264C87.9559 192.88 88.3293 192.581 88.8093 192.368C89.2893 192.155 89.8439 192.048 90.4733 192.048C91.0813 192.048 91.6146 192.155 92.0733 192.368C92.5319 192.571 92.8946 192.891 93.1613 193.328C93.4386 193.755 93.5773 194.309 93.5773 194.992V200H92.6493L92.5053 198.64C92.2706 199.131 91.8973 199.515 91.3853 199.792C90.8839 200.059 90.3079 200.192 89.6573 200.192ZM89.9133 199.296C90.7346 199.296 91.3693 199.035 91.8173 198.512C92.2653 197.989 92.4893 197.312 92.4893 196.48V196.064L90.2013 196.24C89.4759 196.304 88.9533 196.485 88.6332 196.784C88.3133 197.083 88.1533 197.445 88.1533 197.872C88.1533 198.341 88.3133 198.699 88.6332 198.944C88.9533 199.179 89.3799 199.296 89.9133 199.296ZM94.788 192.256H98.98V193.184H94.788V192.256ZM97.428 200H96.34V189.808H97.428V200ZM99.7955 196.128C99.7955 195.328 99.9662 194.624 100.308 194.016C100.649 193.408 101.118 192.928 101.716 192.576C102.313 192.224 102.985 192.048 103.732 192.048C104.489 192.048 105.161 192.224 105.748 192.576C106.345 192.928 106.814 193.408 107.156 194.016C107.497 194.624 107.668 195.328 107.668 196.128C107.668 196.907 107.497 197.605 107.156 198.224C106.814 198.832 106.345 199.312 105.748 199.664C105.161 200.016 104.489 200.192 103.732 200.192C102.985 200.192 102.313 200.016 101.716 199.664C101.118 199.312 100.649 198.832 100.308 198.224C99.9662 197.605 99.7955 196.907 99.7955 196.128ZM100.916 196.112C100.916 196.72 101.033 197.259 101.268 197.728C101.513 198.187 101.844 198.549 102.26 198.816C102.686 199.072 103.177 199.2 103.732 199.2C104.286 199.2 104.772 199.072 105.188 198.816C105.614 198.549 105.945 198.187 106.18 197.728C106.425 197.259 106.548 196.72 106.548 196.112C106.548 195.515 106.425 194.987 106.18 194.528C105.945 194.069 105.614 193.707 105.188 193.44C104.772 193.173 104.286 193.04 103.732 193.04C103.177 193.04 102.686 193.173 102.26 193.44C101.844 193.707 101.513 194.069 101.268 194.528C101.033 194.987 100.916 195.515 100.916 196.112ZM113.481 192.16V193.152H112.873C112.159 193.152 111.588 193.371 111.161 193.808C110.745 194.245 110.537 194.837 110.537 195.584V200H109.433V192.256H110.473L110.569 193.776H110.457C110.564 193.275 110.825 192.869 111.241 192.56C111.657 192.24 112.164 192.08 112.761 192.08C112.879 192.08 112.996 192.085 113.113 192.096C113.231 192.107 113.353 192.128 113.481 192.16Z" fill="#19225F"/>
<rect x="69.5" y="97.1875" width="197.662" height="59.3135" rx="13.2319" transform="rotate(-9.66579 69.5 97.1875)" fill="#08205F"/>
<rect x="79.864" y="106.48" width="37.5125" height="37.5125" rx="9.71974" transform="rotate(-9.66579 79.864 106.48)" fill="#6C78FF"/>
<path d="M103.438 130.416L103.429 130.419L103.379 130.455L103.364 130.461L103.352 130.46L103.293 130.441C103.284 130.441 103.279 130.443 103.275 130.449L103.274 130.457L103.317 130.789L103.323 130.804L103.332 130.813L103.422 130.856L103.434 130.857L103.443 130.853L103.514 130.782L103.521 130.768L103.522 130.755L103.452 130.428C103.449 130.42 103.444 130.416 103.438 130.416ZM103.626 130.294L103.616 130.298L103.486 130.393L103.48 130.403L103.479 130.411L103.549 130.74L103.555 130.749L103.562 130.754L103.729 130.798C103.739 130.799 103.746 130.796 103.75 130.789L103.751 130.777L103.645 130.309C103.64 130.299 103.634 130.295 103.626 130.294ZM103.076 130.39C103.072 130.388 103.068 130.388 103.064 130.39C103.06 130.391 103.057 130.394 103.056 130.398L103.053 130.409L103.107 130.887C103.109 130.896 103.115 130.901 103.123 130.903L103.135 130.9L103.277 130.802L103.284 130.794L103.285 130.785L103.242 130.452L103.239 130.443L103.23 130.436L103.076 130.39Z" fill="white"/>
<path d="M98.4144 117.152C98.6455 115.726 100.501 115.367 101.263 116.541L101.331 116.656L102.262 118.369C102.475 118.761 102.771 119.104 103.128 119.373C103.485 119.642 103.895 119.831 104.332 119.928L104.51 119.961L106.434 120.273C107.86 120.504 108.218 122.36 107.046 123.122L106.93 123.189L105.218 124.12C104.825 124.334 104.483 124.629 104.214 124.986C103.944 125.343 103.755 125.754 103.658 126.19L103.624 126.367L103.313 128.292C103.082 129.719 101.226 130.077 100.465 128.904L100.396 128.789L99.4657 127.076C99.2523 126.683 98.9571 126.341 98.6 126.072C98.2429 125.803 97.8322 125.613 97.3958 125.517L97.2187 125.483L95.2948 125.171C93.8673 124.94 93.5092 123.084 94.6829 122.323L94.798 122.254L96.5104 121.324C96.9031 121.11 97.2455 120.815 97.5144 120.458C97.7833 120.101 97.9725 119.69 98.0692 119.254L98.1033 119.077L98.4144 117.152ZM105.584 113.198C105.728 113.173 105.876 113.19 106.011 113.245C106.147 113.3 106.264 113.393 106.349 113.511L106.401 113.595L106.806 114.34L107.643 114.475C107.796 114.499 107.938 114.568 108.051 114.674C108.164 114.779 108.244 114.916 108.28 115.066C108.315 115.217 108.306 115.375 108.251 115.519C108.197 115.664 108.101 115.79 107.976 115.881L107.891 115.933L107.147 116.337L107.012 117.174C106.987 117.327 106.918 117.469 106.812 117.583C106.707 117.696 106.57 117.775 106.42 117.811C106.269 117.846 106.112 117.837 105.967 117.782C105.822 117.728 105.696 117.632 105.606 117.507L105.553 117.423L105.149 116.678L104.312 116.543C104.159 116.519 104.017 116.45 103.904 116.344C103.79 116.239 103.711 116.102 103.675 115.952C103.639 115.801 103.649 115.643 103.703 115.499C103.757 115.354 103.853 115.228 103.979 115.137L104.064 115.085L104.808 114.681L104.943 113.844C104.969 113.683 105.045 113.534 105.16 113.418C105.275 113.302 105.423 113.225 105.584 113.198Z" fill="white"/>
<path d="M131.169 102.577C130.15 102.751 129.412 103.227 128.953 104.005C128.499 104.778 128.369 105.734 128.563 106.873C128.756 108.007 129.203 108.839 129.903 109.368C130.606 109.891 131.449 110.069 132.43 109.902C133.333 109.748 134.002 109.394 134.436 108.838C134.874 108.278 135.022 107.581 134.88 106.747L134.873 106.706L131.727 107.242L131.453 105.63L136.293 104.806L137.289 110.654L135.755 110.915L135.433 109.741C135.211 110.198 134.841 110.599 134.323 110.944C133.805 111.285 133.201 111.514 132.511 111.632C131.548 111.796 130.654 111.724 129.83 111.417C129.005 111.105 128.313 110.579 127.753 109.841C127.199 109.102 126.832 108.206 126.653 107.155C126.475 106.109 126.529 105.14 126.815 104.248C127.102 103.356 127.599 102.614 128.308 102.021C129.021 101.423 129.891 101.037 130.919 100.862C132.114 100.658 133.183 100.807 134.126 101.309C135.068 101.806 135.702 102.567 136.03 103.593L134.106 103.921C133.848 103.36 133.458 102.969 132.934 102.748C132.41 102.523 131.821 102.466 131.169 102.577ZM142.176 110.014C141.129 110.192 140.216 109.993 139.437 109.416C138.657 108.839 138.175 108.006 137.989 106.918C137.802 105.816 137.973 104.865 138.504 104.065C139.035 103.265 139.816 102.777 140.849 102.601C141.9 102.422 142.791 102.606 143.523 103.153C144.258 103.695 144.719 104.514 144.906 105.612L144.995 106.132L139.706 107.055C140.043 108.274 140.794 108.785 141.961 108.586C142.433 108.505 142.807 108.349 143.082 108.116C143.356 107.884 143.516 107.592 143.561 107.241L145.166 106.968C145.148 107.762 144.874 108.43 144.342 108.973C143.815 109.511 143.092 109.858 142.176 110.014ZM141.104 104.015C140.595 104.102 140.208 104.308 139.944 104.634C139.685 104.96 139.557 105.394 139.559 105.936L143.087 105.335C143.004 104.849 142.783 104.487 142.423 104.248C142.062 104.005 141.622 103.927 141.104 104.015ZM148.651 108.718L146.915 109.014L145.718 101.986L147.322 101.713L147.623 102.598C147.781 102.209 148.042 101.883 148.407 101.621C148.776 101.353 149.201 101.178 149.683 101.096C150.553 100.948 151.258 101.09 151.799 101.522C152.344 101.953 152.695 102.629 152.852 103.551L153.589 107.877L151.853 108.173L151.187 104.263C151.089 103.689 150.883 103.276 150.568 103.025C150.259 102.773 149.872 102.686 149.409 102.765C148.877 102.856 148.484 103.096 148.232 103.487C147.984 103.877 147.909 104.359 148.006 104.933L148.651 108.718ZM158.468 107.239C157.422 107.418 156.509 107.218 155.729 106.641C154.95 106.064 154.467 105.231 154.282 104.143C154.094 103.041 154.266 102.09 154.797 101.29C155.327 100.49 156.109 100.002 157.141 99.8259C158.192 99.6469 159.084 99.831 159.815 100.378C160.551 100.92 161.012 101.739 161.199 102.837L161.287 103.358L155.999 104.28C156.335 105.499 157.087 106.01 158.254 105.811C158.726 105.73 159.099 105.574 159.374 105.341C159.649 105.109 159.809 104.817 159.854 104.466L161.458 104.193C161.441 104.987 161.167 105.655 160.635 106.199C160.107 106.736 159.385 107.083 158.468 107.239ZM157.397 101.24C156.887 101.327 156.501 101.533 156.237 101.859C155.978 102.185 155.849 102.619 155.851 103.161L159.379 102.561C159.297 102.074 159.075 101.712 158.715 101.473C158.355 101.23 157.915 101.152 157.397 101.24ZM166.416 98.4321L166.69 100.043L166.051 100.152C165.412 100.261 164.941 100.517 164.639 100.922C164.34 101.32 164.247 101.855 164.362 102.527L164.944 105.943L163.208 106.239L162.013 99.2249L163.652 98.9458L163.924 99.957C164.016 99.5745 164.209 99.2511 164.502 98.9867C164.795 98.7178 165.17 98.5443 165.628 98.4662C165.878 98.4236 166.141 98.4123 166.416 98.4321ZM170.622 105.169C169.881 105.296 169.261 105.196 168.763 104.871C168.265 104.547 167.959 104.051 167.845 103.384C167.735 102.736 167.871 102.179 168.254 101.714C168.641 101.247 169.247 100.913 170.07 100.711L172.147 100.193L172.121 100.04C171.969 99.1467 171.409 98.7823 170.441 98.9471C169.932 99.0339 169.556 99.2027 169.312 99.4538C169.074 99.704 168.986 100.014 169.049 100.385L167.57 100.637C167.441 99.8774 167.624 99.2196 168.12 98.6635C168.616 98.1074 169.341 97.7481 170.295 97.5856C171.253 97.4224 172.047 97.5493 172.675 97.9663C173.304 98.3833 173.7 99.0734 173.864 100.036L174.59 104.301L173.062 104.561L172.76 103.54C172.673 103.927 172.432 104.273 172.036 104.578C171.64 104.879 171.168 105.076 170.622 105.169ZM170.968 103.76C171.505 103.668 171.905 103.443 172.168 103.084C172.43 102.725 172.516 102.276 172.424 101.739L172.362 101.371L170.917 101.739C170.397 101.875 170.033 102.049 169.826 102.261C169.623 102.467 169.547 102.718 169.597 103.014C169.705 103.648 170.162 103.897 170.968 103.76ZM178.583 103.62L176.847 103.916L175.897 98.3394L174.55 98.5689L174.303 97.1174L175.65 96.8879L175.278 94.7003L177.014 94.4046L177.386 96.5922L178.755 96.3592L179.002 97.8107L177.634 98.0437L178.583 103.62ZM180.46 94.6251C180.164 94.6756 179.894 94.6167 179.651 94.4485C179.407 94.2756 179.261 94.0434 179.211 93.7517C179.161 93.46 179.221 93.1973 179.391 92.9635C179.565 92.7243 179.802 92.579 180.103 92.5278C180.39 92.4789 180.65 92.5394 180.884 92.7092C181.122 92.8736 181.265 93.1016 181.315 93.3933C181.365 93.685 181.306 93.9523 181.137 94.1954C180.973 94.433 180.747 94.5762 180.46 94.6251ZM181.028 103.204L179.831 96.1758L181.567 95.8801L182.764 102.908L181.028 103.204ZM186.292 102.307L184.556 102.603L183.359 95.575L184.963 95.3017L185.264 96.1867C185.422 95.7977 185.683 95.4721 186.048 95.2099C186.417 94.9422 186.842 94.7673 187.324 94.6853C188.194 94.5371 188.9 94.6789 189.44 95.1109C189.985 95.5422 190.336 96.2185 190.493 97.1398L191.23 101.466L189.494 101.762L188.828 97.8522C188.73 97.2781 188.524 96.8654 188.21 96.614C187.9 96.3618 187.513 96.2752 187.05 96.354C186.518 96.4447 186.126 96.6855 185.873 97.0763C185.625 97.4663 185.55 97.9484 185.648 98.5225L186.292 102.307ZM191.911 97.5772C191.734 96.5401 191.896 95.6311 192.397 94.8503C192.902 94.0686 193.65 93.5935 194.641 93.4247C195.169 93.3348 195.65 93.3601 196.083 93.5007C196.517 93.6412 196.868 93.8839 197.136 94.2289L197.068 93.24L198.672 92.9668L199.809 99.6408C200.009 100.817 199.839 101.801 199.297 102.594C198.756 103.391 197.917 103.886 196.778 104.08C195.768 104.252 194.893 104.123 194.153 103.691C193.417 103.259 192.916 102.582 192.649 101.661L194.386 101.365C194.518 101.809 194.771 102.131 195.143 102.329C195.521 102.532 195.976 102.588 196.508 102.497C197.105 102.395 197.553 102.14 197.85 101.732C198.147 101.325 198.246 100.829 198.147 100.245L197.948 99.0788C197.782 99.4453 197.509 99.7609 197.13 100.026C196.751 100.286 196.311 100.458 195.811 100.543C194.825 100.711 193.972 100.516 193.253 99.9571C192.533 99.3983 192.086 98.605 191.911 97.5772ZM193.653 97.2305C193.755 97.8278 194.012 98.2913 194.426 98.621C194.839 98.9508 195.328 99.0676 195.893 98.9714C196.486 98.8705 196.923 98.6006 197.206 98.1618C197.489 97.723 197.577 97.1957 197.473 96.5799C197.369 95.9734 197.113 95.5169 196.703 95.2102C196.298 94.8982 195.796 94.793 195.199 94.8948C194.629 94.9918 194.203 95.2597 193.921 95.6984C193.643 96.1364 193.554 96.6471 193.653 97.2305ZM210.184 98.4168C208.67 98.6747 207.377 98.3948 206.304 97.577C205.23 96.7547 204.554 95.5287 204.277 93.8989C204.095 92.834 204.146 91.8583 204.428 90.9717C204.711 90.0851 205.199 89.3541 205.891 88.7787C206.584 88.2033 207.433 87.8301 208.438 87.659C209.669 87.4492 210.765 87.6055 211.726 88.1279C212.687 88.6503 213.351 89.4544 213.717 90.5403L211.793 90.8679C211.514 90.296 211.101 89.8828 210.553 89.6284C210.004 89.3694 209.384 89.2987 208.694 89.4162C207.736 89.5794 207.03 90.0355 206.576 90.7845C206.122 91.5289 205.989 92.4544 206.177 93.5609C206.365 94.6629 206.8 95.4964 207.482 96.0614C208.163 96.6219 208.979 96.8213 209.928 96.6596C210.627 96.5406 211.2 96.2667 211.646 95.8382C212.097 95.4088 212.359 94.8902 212.432 94.2823L214.327 93.9594C214.314 95.0859 213.928 96.0594 213.167 96.8798C212.41 97.6947 211.416 98.2071 210.184 98.4168ZM218.277 97.0527C217.537 97.1789 216.917 97.0796 216.419 96.7547C215.92 96.4299 215.614 95.9341 215.501 95.2674C215.39 94.6192 215.527 94.0624 215.909 93.597C216.297 93.1308 216.902 92.7967 217.725 92.5945L219.802 92.0764L219.776 91.9236C219.624 91.0301 219.064 90.6657 218.097 90.8305C217.587 90.9172 217.211 91.0861 216.968 91.3371C216.73 91.5874 216.642 91.8977 216.705 92.2681L215.226 92.52C215.096 91.7607 215.28 91.103 215.776 90.5469C216.272 89.9907 216.997 89.6314 217.95 89.469C218.909 89.3058 219.702 89.4327 220.331 89.8497C220.959 90.2667 221.355 90.9567 221.519 91.9198L222.246 96.1839L220.718 96.4441L220.415 95.4237C220.329 95.81 220.088 96.156 219.692 96.4617C219.295 96.7626 218.824 96.9597 218.277 97.0527ZM218.623 95.6431C219.16 95.5517 219.56 95.3263 219.823 94.9671C220.086 94.6079 220.172 94.1598 220.08 93.6227L220.017 93.2547L218.572 93.6223C218.052 93.7585 217.689 93.9324 217.482 94.1439C217.279 94.35 217.202 94.6012 217.253 94.8975C217.361 95.5318 217.818 95.7804 218.623 95.6431ZM224.502 99.1512L222.75 88.8659L224.354 88.5927L224.655 89.6421C224.794 89.2038 225.061 88.8369 225.453 88.5413C225.845 88.2411 226.312 88.0449 226.854 87.9526C227.845 87.7838 228.695 87.9796 229.405 88.54C230.12 89.0996 230.571 89.9303 230.759 91.0322C230.949 92.1526 230.813 93.1144 230.349 93.9175C229.885 94.716 229.141 95.2024 228.118 95.3766C227.586 95.4673 227.09 95.4494 226.63 95.3229C226.17 95.1963 225.801 94.9756 225.524 94.6608L226.238 98.8555L224.502 99.1512ZM225.377 90.441C225.083 90.9006 224.991 91.4476 225.099 92.0819C225.207 92.7162 225.475 93.1994 225.903 93.5314C226.336 93.8627 226.849 93.9778 227.441 93.8769C228.043 93.7744 228.484 93.4968 228.764 93.0441C229.045 92.5914 229.131 92.0479 229.023 91.4136C228.914 90.7747 228.652 90.288 228.238 89.9536C227.823 89.6146 227.314 89.4963 226.713 89.5989C226.12 89.6998 225.675 89.9805 225.377 90.441ZM235.073 93.9992L233.337 94.2949L232.387 88.7182L231.039 88.9477L230.792 87.4962L232.14 87.2667L231.767 85.0791L233.503 84.7834L233.876 86.971L235.244 86.738L235.491 88.1895L234.123 88.4225L235.073 93.9992ZM236.95 85.0039C236.653 85.0544 236.384 84.9955 236.141 84.8273C235.897 84.6544 235.75 84.4221 235.7 84.1305C235.651 83.8388 235.711 83.576 235.88 83.3423C236.054 83.1031 236.291 82.9578 236.592 82.9066C236.879 82.8577 237.14 82.9181 237.374 83.088C237.611 83.2523 237.755 83.4804 237.805 83.7721C237.854 84.0637 237.795 84.3311 237.627 84.5742C237.462 84.8118 237.237 84.955 236.95 85.0039ZM237.517 93.5828L236.32 86.5546L238.057 86.2589L239.254 93.2871L237.517 93.5828ZM241.545 92.0108C240.723 91.4408 240.22 90.6118 240.035 89.5238C239.849 88.4357 240.05 87.4892 240.637 86.6841C241.224 85.8744 242.063 85.3765 243.156 85.1904C244.248 85.0043 245.205 85.1962 246.027 85.7662C246.852 86.3308 247.357 87.1571 247.542 88.2451C247.727 89.3331 247.525 90.2824 246.934 91.0929C246.348 91.9026 245.508 92.4005 244.415 92.5866C243.323 92.7727 242.366 92.5808 241.545 92.0108ZM242.063 87.5847C241.755 88.0421 241.655 88.5903 241.764 89.2292C241.873 89.8682 242.149 90.3548 242.592 90.6891C243.034 91.0187 243.553 91.1327 244.15 91.031C244.748 90.9293 245.2 90.6497 245.508 90.1923C245.816 89.7302 245.915 89.1797 245.806 88.5408C245.697 87.9019 245.422 87.4176 244.98 87.0879C244.537 86.7536 244.017 86.6373 243.419 86.7391C242.822 86.8408 242.37 87.1227 242.063 87.5847ZM251.254 91.2432L249.518 91.5389L248.321 84.5107L249.925 84.2375L250.226 85.1224C250.384 84.7335 250.645 84.4079 251.01 84.1456C251.379 83.8779 251.804 83.703 252.286 83.621C253.156 83.4728 253.862 83.6147 254.402 84.0467C254.947 84.4779 255.298 85.1542 255.455 86.0755L256.192 90.4022L254.456 90.6979L253.79 86.7879C253.692 86.2138 253.486 85.8011 253.172 85.5497C252.862 85.2976 252.476 85.2109 252.013 85.2898C251.48 85.3805 251.088 85.6212 250.835 86.012C250.587 86.4021 250.512 86.8841 250.61 87.4582L251.254 91.2432Z" fill="#F5F5F5"/>
<path d="M133.075 130.77C132.358 130.892 131.753 130.782 131.257 130.439C130.762 130.094 130.454 129.569 130.334 128.866L131.049 128.744C131.136 129.256 131.35 129.633 131.692 129.875C132.036 130.117 132.463 130.194 132.972 130.107C133.507 130.016 133.908 129.781 134.177 129.402C134.446 129.019 134.535 128.564 134.445 128.036C134.357 127.52 134.126 127.121 133.751 126.838C133.376 126.555 132.914 126.46 132.367 126.554C132.049 126.608 131.757 126.726 131.491 126.908C131.226 127.09 131.011 127.308 130.848 127.563L130.248 127.48L130.494 123.751L133.94 123.164L134.052 123.82L131.125 124.319L130.968 126.652C131.326 126.247 131.788 125.997 132.355 125.9C133.078 125.777 133.697 125.908 134.213 126.294C134.732 126.676 135.049 127.209 135.166 127.893C135.288 128.612 135.155 129.24 134.766 129.777C134.381 130.313 133.817 130.644 133.075 130.77ZM138.271 124.332C138.17 123.736 138.307 123.219 138.682 122.782C139.058 122.344 139.606 122.064 140.325 121.942C140.967 121.832 141.514 121.914 141.968 122.187C142.424 122.456 142.73 122.884 142.887 123.471L142.163 123.595C142.055 123.196 141.849 122.911 141.547 122.739C141.247 122.563 140.873 122.514 140.426 122.59C139.923 122.675 139.54 122.866 139.277 123.16C139.017 123.452 138.921 123.798 138.989 124.2C139.094 124.819 139.534 125.159 140.308 125.221L141.585 125.314C142.759 125.394 143.429 125.922 143.595 126.897C143.7 127.513 143.564 128.041 143.185 128.483C142.807 128.924 142.248 129.208 141.509 129.334C140.816 129.452 140.223 129.378 139.73 129.111C139.238 128.845 138.921 128.424 138.78 127.847L139.514 127.722C139.597 128.095 139.809 128.368 140.148 128.54C140.491 128.712 140.907 128.756 141.397 128.672C141.922 128.583 142.318 128.394 142.586 128.105C142.856 127.815 142.957 127.466 142.887 127.058C142.777 126.41 142.331 126.062 141.549 126.015L140.293 125.924C139.713 125.886 139.252 125.733 138.909 125.464C138.567 125.196 138.354 124.818 138.271 124.332ZM147.1 128.381C146.393 128.502 145.783 128.367 145.27 127.978C144.76 127.584 144.44 127.008 144.311 126.25C144.183 125.498 144.291 124.851 144.635 124.309C144.983 123.766 145.501 123.436 146.188 123.319C146.839 123.208 147.403 123.329 147.88 123.681C148.357 124.034 148.654 124.552 148.77 125.235L148.828 125.576L144.992 126.229C145.119 126.814 145.357 127.244 145.707 127.518C146.057 127.789 146.491 127.88 147.009 127.791C147.807 127.656 148.242 127.246 148.316 126.563L148.977 126.451C148.934 126.982 148.752 127.413 148.432 127.744C148.111 128.072 147.667 128.285 147.1 128.381ZM146.288 123.907C145.841 123.984 145.496 124.184 145.255 124.509C145.016 124.833 144.907 125.238 144.927 125.725L148.052 125.193C147.973 124.729 147.772 124.38 147.449 124.145C147.125 123.91 146.738 123.831 146.288 123.907ZM149.572 125.364C149.443 124.606 149.551 123.955 149.895 123.413C150.243 122.87 150.767 122.539 151.467 122.42C152.021 122.326 152.515 122.395 152.948 122.628C153.381 122.861 153.687 123.219 153.866 123.702L153.181 123.819C153.038 123.51 152.82 123.287 152.527 123.15C152.236 123.009 151.921 122.968 151.58 123.026C151.088 123.11 150.717 123.353 150.469 123.756C150.221 124.158 150.146 124.653 150.246 125.239C150.344 125.813 150.57 126.251 150.926 126.554C151.28 126.854 151.7 126.962 152.187 126.88C152.543 126.819 152.84 126.673 153.078 126.443C153.315 126.212 153.455 125.935 153.496 125.611L154.191 125.493C154.162 126.005 153.975 126.443 153.63 126.809C153.286 127.174 152.839 127.404 152.292 127.497C151.608 127.614 151.016 127.476 150.516 127.084C150.015 126.693 149.701 126.119 149.572 125.364ZM154.743 124.473C154.618 123.738 154.745 123.092 155.124 122.538C155.506 121.979 156.051 121.639 156.761 121.518C157.468 121.398 158.092 121.538 158.634 121.94C159.178 122.337 159.513 122.904 159.639 123.639C159.763 124.372 159.635 125.017 159.253 125.576C158.874 126.131 158.331 126.468 157.625 126.589C156.918 126.709 156.293 126.571 155.748 126.173C155.203 125.772 154.868 125.206 154.743 124.473ZM155.437 124.345C155.533 124.912 155.774 125.348 156.16 125.653C156.548 125.953 157.001 126.06 157.52 125.971C158.032 125.884 158.421 125.634 158.688 125.222C158.954 124.807 159.038 124.315 158.942 123.748C158.847 123.191 158.605 122.762 158.217 122.461C157.829 122.157 157.378 122.048 156.866 122.136C156.351 122.223 155.96 122.475 155.694 122.891C155.428 123.303 155.342 123.788 155.437 124.345ZM161.838 125.746L161.148 125.864L160.327 121.046L160.925 120.944L161.17 121.763C161.277 121.431 161.463 121.156 161.73 120.937C161.995 120.715 162.305 120.574 162.658 120.514C163.296 120.405 163.798 120.502 164.163 120.803C164.527 121.101 164.763 121.566 164.871 122.198L165.373 125.144L164.682 125.262L164.206 122.466C164.114 121.928 163.936 121.558 163.672 121.357C163.407 121.155 163.065 121.09 162.643 121.162C162.157 121.245 161.806 121.473 161.589 121.847C161.376 122.216 161.316 122.677 161.409 123.228L161.838 125.746ZM168.655 124.71C167.968 124.827 167.384 124.685 166.902 124.283C166.423 123.878 166.12 123.306 165.994 122.567C165.867 121.822 165.964 121.176 166.285 120.632C166.609 120.086 167.121 119.754 167.821 119.635C168.226 119.566 168.594 119.595 168.926 119.722C169.261 119.845 169.541 120.064 169.768 120.378L169.197 117.024L169.887 116.907L171.124 124.165L170.526 124.266L170.285 123.292C170.182 123.686 169.987 124.005 169.702 124.247C169.419 124.485 169.07 124.639 168.655 124.71ZM168.665 124.063C169.184 123.975 169.562 123.729 169.8 123.325C170.037 122.917 170.108 122.43 170.011 121.863C169.915 121.299 169.688 120.866 169.33 120.563C168.971 120.258 168.532 120.149 168.013 120.237C167.501 120.324 167.128 120.571 166.894 120.978C166.659 121.382 166.59 121.865 166.686 122.429C166.783 122.996 167.009 123.433 167.364 123.739C167.719 124.042 168.153 124.15 168.665 124.063ZM171.913 122.634L172.575 122.522C172.622 122.8 172.757 123.006 172.98 123.138C173.205 123.266 173.486 123.302 173.823 123.245C174.196 123.181 174.473 123.057 174.655 122.873C174.841 122.688 174.911 122.466 174.867 122.206C174.832 122.002 174.746 121.85 174.609 121.75C174.472 121.65 174.258 121.59 173.968 121.569L173.106 121.501C172.241 121.435 171.752 121.071 171.64 120.41C171.568 119.989 171.67 119.626 171.945 119.322C172.222 119.015 172.622 118.817 173.144 118.728C173.653 118.641 174.084 118.703 174.436 118.913C174.788 119.12 175.009 119.446 175.098 119.891L174.427 120.005C174.37 119.728 174.236 119.528 174.024 119.403C173.813 119.279 173.546 119.245 173.221 119.3C172.884 119.357 172.635 119.472 172.474 119.642C172.317 119.813 172.26 120.027 172.304 120.287C172.367 120.659 172.673 120.866 173.22 120.906L174.082 120.974C174.521 121.006 174.855 121.109 175.085 121.284C175.315 121.458 175.459 121.719 175.518 122.065C175.592 122.496 175.482 122.872 175.19 123.192C174.898 123.512 174.478 123.718 173.93 123.812C173.389 123.904 172.936 123.842 172.573 123.628C172.209 123.413 171.99 123.082 171.913 122.634ZM180.35 122.593L179.665 122.71L178.429 115.452L179.114 115.335L180.35 122.593ZM183.852 122.122C183.145 122.242 182.536 122.108 182.022 121.718C181.512 121.325 181.192 120.749 181.063 119.991C180.935 119.239 181.043 118.592 181.387 118.049C181.735 117.507 182.253 117.177 182.94 117.06C183.591 116.949 184.155 117.069 184.632 117.422C185.109 117.774 185.406 118.292 185.522 118.976L185.58 119.316L181.745 119.969C181.871 120.555 182.109 120.985 182.459 121.258C182.809 121.529 183.243 121.62 183.761 121.532C184.559 121.396 184.994 120.987 185.068 120.304L185.729 120.191C185.686 120.722 185.505 121.153 185.184 121.485C184.863 121.813 184.419 122.025 183.852 122.122ZM183.04 117.648C182.593 117.724 182.248 117.924 182.007 118.249C181.768 118.573 181.659 118.979 181.679 119.465L184.805 118.933C184.726 118.47 184.524 118.12 184.201 117.885C183.877 117.65 183.49 117.571 183.04 117.648ZM191.104 120.762L190.428 120.877L189.706 116.638L187.237 117.058L187.959 121.297L187.268 121.415L186.546 117.176L185.812 117.301L185.714 116.722L186.448 116.597L186.288 115.659C186.201 115.147 186.258 114.749 186.46 114.464C186.661 114.176 186.954 114 187.34 113.934C187.554 113.898 187.734 113.88 187.881 113.882L187.983 114.48L187.565 114.551C187.286 114.598 187.105 114.701 187.022 114.859C186.941 115.012 186.927 115.24 186.978 115.541L187.138 116.48L189.608 116.059L189.348 114.533L190.023 114.417L190.283 115.944L191.251 115.779L191.349 116.358L190.382 116.522L191.104 120.762ZM193.679 120.253C193.576 120.394 193.439 120.479 193.267 120.508C193.095 120.537 192.937 120.503 192.794 120.404C192.65 120.305 192.564 120.173 192.536 120.007C192.507 119.839 192.544 119.682 192.646 119.538C192.751 119.39 192.888 119.302 193.056 119.273C193.225 119.245 193.382 119.283 193.526 119.389C193.674 119.49 193.762 119.625 193.79 119.794C193.819 119.959 193.781 120.112 193.679 120.253ZM196.284 119.809C196.182 119.95 196.044 120.035 195.873 120.064C195.701 120.094 195.543 120.059 195.399 119.96C195.256 119.861 195.17 119.729 195.142 119.564C195.113 119.395 195.15 119.239 195.252 119.095C195.357 118.947 195.494 118.858 195.662 118.83C195.831 118.801 195.987 118.839 196.132 118.945C196.279 119.046 196.367 119.181 196.396 119.35C196.424 119.515 196.387 119.668 196.284 119.809ZM198.89 119.365C198.787 119.506 198.65 119.591 198.478 119.621C198.306 119.65 198.149 119.615 198.005 119.516C197.862 119.417 197.776 119.285 197.748 119.12C197.719 118.951 197.756 118.795 197.858 118.651C197.963 118.503 198.099 118.415 198.268 118.386C198.436 118.357 198.593 118.395 198.738 118.501C198.885 118.603 198.973 118.738 199.002 118.906C199.03 119.071 198.993 119.225 198.89 119.365Z" fill="#F5F5F5" fill-opacity="0.8"/>
<rect x="21.5" y="39.1875" width="197.662" height="59.3135" rx="13.2319" transform="rotate(-9.66579 21.5 39.1875)" fill="#08205F"/>
<rect x="31.864" y="48.4797" width="37.5125" height="37.5125" rx="9.71974" transform="rotate(-9.66579 31.864 48.4797)" fill="#6C78FF"/>
<path d="M55.4377 72.416L55.4287 72.4191L55.3786 72.4554L55.3637 72.4611L55.3524 72.4599L55.293 72.4415C55.2844 72.4408 55.2785 72.4434 55.2753 72.4492L55.2735 72.4575L55.3166 72.7894L55.3231 72.8042L55.3325 72.8129L55.4223 72.8562L55.4344 72.8574L55.4431 72.8527L55.5135 72.782L55.5207 72.7681L55.5215 72.7545L55.4524 72.4278C55.4489 72.4199 55.444 72.416 55.4377 72.416ZM55.6263 72.2943L55.6157 72.2977L55.4862 72.3935L55.4798 72.4025L55.4789 72.4114L55.5492 72.7403L55.5546 72.7489L55.5619 72.754L55.7288 72.7985C55.739 72.7994 55.7461 72.7961 55.7501 72.7885L55.7513 72.7772L55.6446 72.3086C55.6403 72.2993 55.6342 72.2945 55.6263 72.2943ZM55.0757 72.3897C55.0719 72.3882 55.0678 72.3882 55.064 72.3897C55.0603 72.3913 55.0573 72.3942 55.0557 72.3978L55.0529 72.4094L55.1073 72.8869C55.1093 72.8961 55.1148 72.9015 55.1235 72.9032L55.1348 72.8997L55.2774 72.8016L55.2841 72.7942L55.285 72.7853L55.2424 72.4517L55.2385 72.4428L55.2295 72.4364L55.0757 72.3897Z" fill="white"/>
<path d="M50.4144 59.1523C50.6455 57.7256 52.5014 57.3675 53.2634 58.541L53.3306 58.6564L54.262 60.3687C54.4755 60.7614 54.7707 61.1037 55.1278 61.3726C55.4849 61.6416 55.8954 61.8308 56.3318 61.9275L56.5096 61.9614L58.4336 62.2727C59.8603 62.5038 60.2184 64.3597 59.0456 65.1215L58.9302 65.1887L57.2179 66.1201C56.8251 66.3336 56.4826 66.6288 56.2135 66.9859C55.9445 67.343 55.7552 67.7536 55.6583 68.1901L55.6243 68.3671L55.3131 70.2918C55.0821 71.7185 53.2261 72.0766 52.4651 70.9038L52.3963 70.7886L51.4657 69.0762C51.2523 68.6833 50.9571 68.3408 50.6 68.0718C50.2429 67.8027 49.8322 67.6134 49.3958 67.5166L49.2187 67.4826L47.2948 67.1713C45.8673 66.9403 45.5092 65.0844 46.6829 64.3232L46.798 64.2545L48.5104 63.3238C48.9031 63.1103 49.2455 62.8151 49.5144 62.4581C49.7833 62.101 49.9725 61.6904 50.0692 61.254L50.1033 61.077L50.4144 59.1523ZM57.5837 55.1978C57.7279 55.1732 57.876 55.1896 58.0113 55.245C58.1466 55.3005 58.2636 55.3927 58.349 55.5114L58.4014 55.5952L58.8057 56.3397L59.6428 56.4746C59.7956 56.4991 59.9377 56.5684 60.0511 56.6737C60.1644 56.779 60.244 56.9156 60.2797 57.0662C60.3153 57.2167 60.3055 57.3745 60.2514 57.5195C60.1973 57.6645 60.1014 57.7901 59.9758 57.8805L59.8912 57.933L59.1467 58.3373L59.0118 59.1744C58.9872 59.3272 58.9179 59.4692 58.8125 59.5825C58.7071 59.6959 58.5705 59.7753 58.4199 59.8109C58.2693 59.8465 58.1115 59.8366 57.9666 59.7824C57.8217 59.7282 57.6961 59.6323 57.6057 59.5066L57.5534 59.4228L57.1491 58.6783L56.312 58.5434C56.1592 58.5189 56.0171 58.4496 55.9037 58.3443C55.7903 58.239 55.7108 58.1024 55.6751 57.9518C55.6394 57.8013 55.6493 57.6435 55.7034 57.4985C55.7575 57.3535 55.8534 57.2279 55.979 57.1375L56.0636 57.085L56.8081 56.6807L56.943 55.8436C56.969 55.6825 57.0448 55.5336 57.1597 55.4178C57.2746 55.302 57.4229 55.2251 57.5837 55.1978Z" fill="white"/>
<path d="M83.1686 44.5773C82.1501 44.7508 81.4117 45.2267 80.9535 46.0051C80.4991 46.7781 80.3689 47.734 80.5629 48.873C80.7561 50.0073 81.2027 50.8388 81.9025 51.3676C82.6062 51.8909 83.4489 52.069 84.4304 51.9018C85.3332 51.748 86.0018 51.3936 86.4361 50.8384C86.8742 50.2778 87.0223 49.5809 86.8803 48.7475L86.8732 48.7058L83.7272 49.2416L83.4528 47.6304L88.2934 46.806L89.2893 52.6536L87.7545 52.915L87.433 51.7406C87.2107 52.1977 86.8407 52.5989 86.3231 52.9444C85.8047 53.2852 85.2005 53.5143 84.5107 53.6318C83.5477 53.7958 82.6541 53.7241 81.8299 53.4166C81.0049 53.1046 80.3128 52.5793 79.7535 51.8408C79.1988 51.1015 78.832 50.2064 78.6529 49.1554C78.4747 48.1091 78.5288 47.1399 78.8152 46.2478C79.1016 45.3558 79.5993 44.6136 80.3083 44.0211C81.0211 43.4233 81.8915 43.0369 82.9193 42.8618C84.1138 42.6583 85.1826 42.8074 86.1256 43.309C87.0678 43.806 87.7025 44.5674 88.0296 45.5932L86.1059 45.9208C85.8483 45.3596 85.4578 44.9688 84.9343 44.7483C84.41 44.5231 83.8214 44.4661 83.1686 44.5773ZM94.1757 52.0143C93.1293 52.1925 92.2164 51.993 91.4368 51.4159C90.6572 50.8389 90.1748 50.0063 89.9895 48.9183C89.8018 47.8164 89.9733 46.8653 90.504 46.065C91.0347 45.2648 91.8163 44.7767 92.8487 44.6009C93.8997 44.4219 94.791 44.6059 95.5226 45.1531C96.2581 45.6948 96.7192 46.5143 96.9061 47.6116L96.9948 48.1325L91.7064 49.0546C92.0427 50.2741 92.7943 50.7846 93.961 50.5858C94.4332 50.5054 94.8068 50.3489 95.0816 50.1163C95.3564 49.8837 95.5164 49.592 95.5615 49.2413L97.1657 48.9681C97.1485 49.7619 96.874 50.4303 96.3424 50.9735C95.8147 51.5112 95.0924 51.8581 94.1757 52.0143ZM93.1039 46.0152C92.5946 46.102 92.2082 46.3084 91.9445 46.6344C91.6854 46.9596 91.5569 47.3936 91.5588 47.9364L95.0868 47.3355C95.004 46.8493 94.7826 46.4868 94.4228 46.248C94.0621 46.0045 93.6225 45.9269 93.1039 46.0152ZM100.651 50.7184L98.9149 51.0141L97.7178 43.986L99.3221 43.7127L99.6229 44.5977C99.7806 44.2087 100.042 43.8831 100.407 43.6208C100.776 43.3532 101.201 43.1783 101.683 43.0963C102.553 42.948 103.258 43.0899 103.799 43.5219C104.344 43.9532 104.695 44.6294 104.852 45.5508L105.589 49.8774L103.853 50.1731L103.187 46.2632C103.089 45.6891 102.883 45.2763 102.568 45.025C102.259 44.7728 101.872 44.6862 101.409 44.765C100.877 44.8557 100.484 45.0965 100.232 45.4873C99.9838 45.8773 99.9087 46.3594 100.006 46.9335L100.651 50.7184ZM110.468 49.2393C109.422 49.4175 108.509 49.2181 107.729 48.641C106.95 48.0639 106.467 47.2314 106.282 46.1433C106.094 45.0414 106.266 44.0903 106.797 43.2901C107.327 42.4898 108.109 42.0018 109.141 41.8259C110.192 41.6469 111.084 41.831 111.815 42.3781C112.551 42.9199 113.012 43.7394 113.199 44.8367L113.287 45.3575L107.999 46.2797C108.335 47.4992 109.087 48.0096 110.254 47.8109C110.726 47.7305 111.099 47.5739 111.374 47.3413C111.649 47.1087 111.809 46.8171 111.854 46.4664L113.458 46.1931C113.441 46.9869 113.167 47.6554 112.635 48.1985C112.107 48.7363 111.385 49.0832 110.468 49.2393ZM109.397 43.2403C108.887 43.327 108.501 43.5334 108.237 43.8594C107.978 44.1846 107.849 44.6186 107.851 45.1614L111.379 44.5605C111.297 44.0744 111.075 43.7119 110.715 43.473C110.355 43.2296 109.915 43.152 109.397 43.2403ZM118.416 40.4321L118.69 42.0433L118.051 42.1522C117.412 42.261 116.941 42.5174 116.639 42.9216C116.34 43.3203 116.247 43.8553 116.362 44.5266L116.944 47.9435L115.208 48.2392L114.013 41.2249L115.652 40.9458L115.924 41.957C116.016 41.5745 116.209 41.2511 116.502 40.9867C116.795 40.7178 117.17 40.5443 117.628 40.4662C117.878 40.4236 118.141 40.4123 118.416 40.4321ZM122.622 47.1694C121.881 47.2955 121.261 47.1962 120.763 46.8714C120.265 46.5465 119.959 46.0507 119.845 45.384C119.735 44.7359 119.871 44.1791 120.254 43.7137C120.641 43.2475 121.247 42.9133 122.07 42.7112L124.147 42.1931L124.121 42.0403C123.969 41.1467 123.409 40.7823 122.441 40.9471C121.932 41.0339 121.556 41.2027 121.312 41.4538C121.074 41.704 120.986 42.0143 121.049 42.3847L119.57 42.6367C119.441 41.8774 119.624 41.2196 120.12 40.6635C120.616 40.1074 121.341 39.7481 122.295 39.5856C123.253 39.4224 124.047 39.5493 124.675 39.9663C125.304 40.3833 125.7 41.0734 125.864 42.0364L126.59 46.3005L125.062 46.5608L124.76 45.5403C124.673 45.9267 124.432 46.2727 124.036 46.5783C123.64 46.8793 123.168 47.0763 122.622 47.1694ZM122.968 45.7598C123.505 45.6683 123.905 45.443 124.168 45.0838C124.43 44.7246 124.516 44.2765 124.424 43.7394L124.362 43.3713L122.917 43.739C122.397 43.8751 122.033 44.049 121.826 44.2605C121.623 44.4666 121.547 44.7178 121.597 45.0142C121.705 45.6485 122.162 45.897 122.968 45.7598ZM130.583 45.6204L128.847 45.9161L127.897 40.3394L126.55 40.5689L126.303 39.1174L127.65 38.8879L127.278 36.7003L129.014 36.4046L129.386 38.5922L130.755 38.3592L131.002 39.8107L129.634 40.0437L130.583 45.6204ZM132.46 36.6251C132.164 36.6756 131.894 36.6167 131.651 36.4485C131.407 36.2756 131.261 36.0434 131.211 35.7517C131.161 35.46 131.221 35.1973 131.391 34.9635C131.565 34.7243 131.802 34.579 132.103 34.5278C132.39 34.4789 132.65 34.5394 132.884 34.7092C133.122 34.8736 133.265 35.1016 133.315 35.3933C133.365 35.685 133.306 35.9523 133.137 36.1954C132.973 36.433 132.747 36.5762 132.46 36.6251ZM133.028 45.204L131.831 38.1758L133.567 37.8801L134.764 44.9083L133.028 45.204ZM138.292 44.3074L136.556 44.6032L135.359 37.575L136.963 37.3017L137.264 38.1867C137.422 37.7977 137.683 37.4721 138.048 37.2099C138.417 36.9422 138.842 36.7673 139.324 36.6853C140.194 36.5371 140.9 36.6789 141.44 37.1109C141.985 37.5422 142.336 38.2185 142.493 39.1398L143.23 43.4664L141.494 43.7622L140.828 39.8522C140.73 39.2781 140.524 38.8654 140.21 38.614C139.9 38.3618 139.513 38.2752 139.05 38.354C138.518 38.4447 138.126 38.6855 137.873 39.0763C137.625 39.4663 137.55 39.9484 137.648 40.5225L138.292 44.3074ZM143.911 39.5772C143.734 38.5401 143.896 37.6311 144.397 36.8503C144.902 36.0686 145.65 35.5935 146.641 35.4247C147.169 35.3348 147.65 35.3601 148.083 35.5007C148.517 35.6412 148.868 35.8839 149.136 36.2289L149.068 35.24L150.672 34.9668L151.809 41.6408C152.009 42.8168 151.839 43.8011 151.297 44.5937C150.756 45.3909 149.917 45.8865 148.778 46.0804C147.768 46.2523 146.893 46.1226 146.153 45.6913C145.417 45.2593 144.916 44.5823 144.649 43.6606L146.386 43.3649C146.518 43.8092 146.771 44.1306 147.143 44.3293C147.521 44.5318 147.976 44.5877 148.508 44.497C149.105 44.3953 149.553 44.1404 149.85 43.7325C150.147 43.3245 150.246 42.8289 150.147 42.2455L149.948 41.0788C149.782 41.4453 149.509 41.7609 149.13 42.0256C148.751 42.2856 148.311 42.4582 147.811 42.5433C146.825 42.7113 145.972 42.5159 145.253 41.9571C144.533 41.3983 144.086 40.605 143.911 39.5772ZM145.653 39.2305C145.755 39.8278 146.012 40.2913 146.426 40.621C146.839 40.9508 147.328 41.0676 147.893 40.9714C148.486 40.8705 148.923 40.6006 149.206 40.1618C149.489 39.723 149.577 39.1957 149.473 38.5799C149.369 37.9734 149.113 37.5169 148.703 37.2102C148.298 36.8982 147.796 36.793 147.199 36.8948C146.629 36.9918 146.203 37.2597 145.921 37.6984C145.643 38.1364 145.554 38.6471 145.653 39.2305ZM162.184 40.4168C160.67 40.6747 159.377 40.3948 158.304 39.577C157.23 38.7547 156.554 37.5287 156.277 35.8989C156.095 34.834 156.146 33.8583 156.428 32.9717C156.711 32.0851 157.199 31.3541 157.891 30.7787C158.584 30.2033 159.433 29.8301 160.438 29.659C161.669 29.4492 162.765 29.6055 163.726 30.1279C164.687 30.6503 165.351 31.4544 165.717 32.5403L163.793 32.8679C163.514 32.296 163.101 31.8828 162.553 31.6284C162.004 31.3694 161.384 31.2987 160.694 31.4162C159.736 31.5794 159.03 32.0355 158.576 32.7845C158.122 33.5289 157.989 34.4544 158.177 35.5609C158.365 36.6629 158.8 37.4964 159.482 38.0614C160.163 38.6219 160.979 38.8213 161.928 38.6596C162.627 38.5406 163.2 38.2667 163.646 37.8382C164.097 37.4088 164.359 36.8902 164.432 36.2823L166.327 35.9594C166.314 37.0859 165.928 38.0594 165.167 38.8798C164.41 39.6947 163.416 40.2071 162.184 40.4168ZM170.277 39.0527C169.537 39.1789 168.917 39.0796 168.419 38.7547C167.92 38.4299 167.614 37.9341 167.501 37.2674C167.39 36.6192 167.527 36.0624 167.909 35.597C168.297 35.1308 168.902 34.7967 169.725 34.5945L171.802 34.0764L171.776 33.9236C171.624 33.0301 171.064 32.6657 170.097 32.8305C169.587 32.9172 169.211 33.0861 168.968 33.3371C168.73 33.5874 168.642 33.8977 168.705 34.2681L167.226 34.52C167.096 33.7607 167.28 33.103 167.776 32.5469C168.272 31.9907 168.997 31.6314 169.95 31.469C170.909 31.3058 171.702 31.4327 172.331 31.8497C172.959 32.2667 173.355 32.9567 173.519 33.9198L174.246 38.1839L172.718 38.4441L172.415 37.4237C172.329 37.81 172.088 38.156 171.692 38.4617C171.295 38.7626 170.824 38.9597 170.277 39.0527ZM170.623 37.6431C171.16 37.5517 171.56 37.3263 171.823 36.9671C172.086 36.6079 172.172 36.1598 172.08 35.6227L172.017 35.2547L170.572 35.6223C170.052 35.7585 169.689 35.9324 169.482 36.1439C169.279 36.35 169.202 36.6012 169.253 36.8975C169.361 37.5318 169.818 37.7804 170.623 37.6431ZM176.502 41.1512L174.75 30.8659L176.354 30.5927L176.655 31.6421C176.794 31.2038 177.061 30.8369 177.453 30.5413C177.845 30.2411 178.312 30.0449 178.854 29.9526C179.845 29.7838 180.695 29.9796 181.405 30.54C182.12 31.0996 182.571 31.9303 182.759 33.0322C182.949 34.1526 182.813 35.1144 182.349 35.9175C181.885 36.716 181.141 37.2024 180.118 37.3766C179.586 37.4673 179.09 37.4494 178.63 37.3229C178.17 37.1963 177.801 36.9756 177.524 36.6608L178.238 40.8555L176.502 41.1512ZM177.377 32.441C177.083 32.9006 176.991 33.4476 177.099 34.0819C177.207 34.7162 177.475 35.1994 177.903 35.5314C178.336 35.8627 178.849 35.9778 179.441 35.8769C180.043 35.7744 180.484 35.4968 180.764 35.0441C181.045 34.5914 181.131 34.0479 181.023 33.4136C180.914 32.7747 180.652 32.288 180.238 31.9536C179.823 31.6146 179.314 31.4963 178.713 31.5989C178.12 31.6998 177.675 31.9805 177.377 32.441ZM187.073 35.9992L185.337 36.2949L184.387 30.7182L183.039 30.9477L182.792 29.4962L184.14 29.2667L183.767 27.0791L185.503 26.7834L185.876 28.971L187.244 28.738L187.491 30.1895L186.123 30.4225L187.073 35.9992ZM188.95 27.0039C188.653 27.0544 188.384 26.9955 188.141 26.8273C187.897 26.6544 187.75 26.4221 187.7 26.1305C187.651 25.8388 187.711 25.576 187.88 25.3423C188.054 25.1031 188.291 24.9578 188.592 24.9066C188.879 24.8577 189.14 24.9181 189.374 25.088C189.611 25.2523 189.755 25.4804 189.805 25.7721C189.854 26.0637 189.795 26.3311 189.627 26.5742C189.462 26.8118 189.237 26.955 188.95 27.0039ZM189.517 35.5828L188.32 28.5546L190.057 28.2589L191.254 35.2871L189.517 35.5828ZM193.545 34.0108C192.723 33.4408 192.22 32.6118 192.035 31.5238C191.849 30.4357 192.05 29.4892 192.637 28.6841C193.224 27.8744 194.063 27.3765 195.156 27.1904C196.248 27.0043 197.205 27.1962 198.027 27.7662C198.852 28.3308 199.357 29.1571 199.542 30.2451C199.727 31.3331 199.525 32.2824 198.934 33.0929C198.348 33.9026 197.508 34.4005 196.415 34.5866C195.323 34.7727 194.366 34.5808 193.545 34.0108ZM194.063 29.5847C193.755 30.0421 193.655 30.5903 193.764 31.2292C193.873 31.8682 194.149 32.3548 194.592 32.6891C195.034 33.0187 195.553 33.1327 196.15 33.031C196.748 32.9293 197.2 32.6497 197.508 32.1923C197.816 31.7302 197.915 31.1797 197.806 30.5408C197.697 29.9019 197.422 29.4176 196.98 29.0879C196.537 28.7536 196.017 28.6373 195.419 28.7391C194.822 28.8408 194.37 29.1227 194.063 29.5847ZM203.254 33.2432L201.518 33.5389L200.321 26.5107L201.925 26.2375L202.226 27.1224C202.384 26.7335 202.645 26.4079 203.01 26.1456C203.379 25.8779 203.804 25.703 204.286 25.621C205.156 25.4728 205.862 25.6147 206.402 26.0467C206.947 26.4779 207.298 27.1542 207.455 28.0755L208.192 32.4022L206.456 32.6979L205.79 28.7879C205.692 28.2138 205.486 27.8011 205.172 27.5497C204.862 27.2976 204.476 27.2109 204.013 27.2898C203.48 27.3805 203.088 27.6212 202.835 28.012C202.587 28.4021 202.512 28.8841 202.61 29.4582L203.254 33.2432Z" fill="#F5F5F5"/>
<path d="M82.3415 71.1146C82.2675 70.6803 82.3256 70.2769 82.5156 69.9043C82.705 69.5286 82.9999 69.2332 83.4002 69.0183C83.0194 68.9364 82.7061 68.7714 82.4604 68.5231C82.2179 68.2742 82.0652 67.9651 82.0023 67.5956C81.909 67.0479 82.0457 66.5677 82.4123 66.1551C82.7789 65.7425 83.3041 65.478 83.9879 65.3615C84.6653 65.2461 85.2404 65.3233 85.7131 65.5929C86.1859 65.8626 86.4695 66.2745 86.5639 66.8287C86.628 67.2046 86.5868 67.5501 86.4403 67.8652C86.2966 68.1765 86.0594 68.4287 85.7288 68.6217C86.1657 68.6807 86.5376 68.8575 86.8446 69.152C87.1548 69.446 87.3477 69.815 87.4233 70.259C87.5271 70.8683 87.3763 71.4026 86.971 71.8618C86.5688 72.3205 85.9902 72.6141 85.2351 72.7428C84.4799 72.8714 83.8351 72.7861 83.3006 72.4869C82.7655 72.1846 82.4458 71.7271 82.3415 71.1146ZM82.6813 67.5C82.7487 67.8954 82.9502 68.1878 83.286 68.3774C83.6218 68.567 84.0327 68.6204 84.5189 68.5376C85.0018 68.4554 85.3676 68.273 85.6163 67.9906C85.8644 67.7048 85.9551 67.3659 85.8883 66.9738C85.8232 66.5913 85.6273 66.3129 85.3008 66.1384C84.9775 65.9633 84.5728 65.9172 84.0867 66C83.5973 66.0833 83.2242 66.262 82.9673 66.5358C82.7132 66.8059 82.6179 67.1273 82.6813 67.5ZM83.0405 70.9305C83.1156 71.3712 83.3448 71.699 83.7282 71.9139C84.1144 72.1249 84.5829 72.1835 85.1339 72.0897C85.6783 71.9969 86.0946 71.7876 86.3826 71.4618C86.6733 71.1321 86.7811 70.7469 86.706 70.3062C86.6315 69.8686 86.405 69.5471 86.0264 69.3414C85.6479 69.1357 85.1783 69.0806 84.6176 69.1761C84.0667 69.27 83.6466 69.4766 83.3575 69.796C83.0717 70.1148 82.966 70.4929 83.0405 70.9305ZM90.5629 66.2826C90.4613 65.6863 90.5984 65.1694 90.9741 64.7319C91.3498 64.2944 91.8974 64.0144 92.6169 63.8918C93.2586 63.7825 93.8061 63.8644 94.2595 64.1373C94.7155 64.4065 95.0219 64.8345 95.1785 65.4215L94.4542 65.5448C94.3463 65.1464 94.141 64.8612 93.8382 64.6893C93.5382 64.5136 93.1645 64.4639 92.7173 64.54C92.215 64.6256 91.8322 64.8159 91.5689 65.1108C91.3083 65.402 91.2123 65.7485 91.2807 66.1504C91.3862 66.7694 91.826 67.1097 92.6002 67.1713L93.8766 67.264C95.0508 67.3442 95.721 67.872 95.8871 68.8475C95.992 69.4633 95.8552 69.9918 95.4768 70.4331C95.0985 70.8744 94.5398 71.158 93.8009 71.2838C93.1073 71.402 92.5144 71.3279 92.0222 71.0615C91.5299 70.7952 91.213 70.3739 91.0716 69.7977L91.8056 69.6727C91.8891 70.0454 92.1006 70.3178 92.4401 70.4901C92.7828 70.6618 93.1989 70.706 93.6883 70.6227C94.2133 70.5333 94.6096 70.344 94.8772 70.055C95.148 69.7654 95.2487 69.4165 95.1791 69.0081C95.0687 68.3599 94.6227 68.0124 93.841 67.9654L92.5848 67.8742C92.0048 67.8363 91.5435 67.6831 91.2009 67.4146C90.8584 67.1461 90.6457 66.7688 90.5629 66.2826ZM99.3915 70.3317C98.6849 70.452 98.0751 70.3174 97.5619 69.9279C97.0513 69.5346 96.7315 68.9588 96.6023 68.2004C96.4742 67.4485 96.5825 66.8015 96.927 66.2592C97.2748 65.7164 97.7922 65.3865 98.4793 65.2695C99.1307 65.1585 99.6948 65.2792 100.172 65.6316C100.649 65.9839 100.945 66.502 101.062 67.1858L101.12 67.5261L97.2841 68.1794C97.4104 68.7648 97.6487 69.1945 97.9988 69.4683C98.3484 69.7389 98.7825 69.8301 99.301 69.7418C100.098 69.606 100.534 69.1966 100.608 68.5137L101.269 68.4011C101.226 68.932 101.044 69.3632 100.724 69.6946C100.403 70.0227 99.9586 70.2351 99.3915 70.3317ZM98.5794 65.8577C98.1322 65.9339 97.7878 66.1343 97.5463 66.4589C97.308 66.783 97.1986 67.1884 97.2182 67.6753L100.344 67.1429C100.265 66.6795 100.064 66.3302 99.7404 66.0952C99.4169 65.8602 99.0299 65.781 98.5794 65.8577ZM101.864 67.3143C101.735 66.5559 101.843 65.9056 102.187 65.3633C102.535 64.8205 103.059 64.4895 103.759 64.3703C104.313 64.2759 104.807 64.3452 105.24 64.5783C105.673 64.8113 105.979 65.1694 106.158 65.6525L105.473 65.7692C105.33 65.46 105.112 65.237 104.819 65.1002C104.528 64.9597 104.212 64.9184 103.872 64.9763C103.379 65.0602 103.009 65.3034 102.761 65.7059C102.512 66.1083 102.438 66.6029 102.538 67.1895C102.636 67.7631 102.862 68.2015 103.217 68.5045C103.572 68.8043 103.992 68.9128 104.478 68.83C104.835 68.7692 105.132 68.6236 105.369 68.3931C105.607 68.1625 105.746 67.8853 105.788 67.5614L106.483 67.443C106.454 67.9549 106.267 68.3937 105.922 68.7592C105.577 69.1247 105.131 69.3541 104.583 69.4474C103.9 69.5638 103.308 69.4262 102.807 69.0345C102.307 68.6428 101.993 68.0694 101.864 67.3143ZM107.035 66.4236C106.91 65.6879 107.036 65.0426 107.416 64.4878C107.797 63.9293 108.343 63.5895 109.053 63.4686C109.759 63.3483 110.384 63.4888 110.925 63.89C111.47 64.2875 111.805 64.8541 111.93 65.5898C112.055 66.3222 111.927 66.9678 111.545 67.5264C111.166 68.0812 110.623 68.4187 109.916 68.5391C109.21 68.6594 108.584 68.5208 108.04 68.1233C107.495 67.7226 107.16 67.156 107.035 66.4236ZM107.728 66.2955C107.825 66.8626 108.066 67.2985 108.451 67.603C108.839 67.9038 109.293 68.01 109.811 67.9217C110.323 67.8345 110.713 67.5847 110.979 67.1725C111.245 66.757 111.33 66.2656 111.233 65.6985C111.139 65.141 110.897 64.7119 110.509 64.4112C110.12 64.1072 109.67 63.9988 109.158 64.086C108.643 64.1738 108.252 64.4254 107.986 64.8409C107.719 65.2532 107.633 65.738 107.728 66.2955ZM114.13 67.6964L113.44 67.8139L112.619 62.9963L113.217 62.8944L113.462 63.7132C113.568 63.3815 113.755 63.1063 114.021 62.8875C114.287 62.6655 114.596 62.5244 114.95 62.4643C115.588 62.3555 116.09 62.4519 116.455 62.7532C116.819 63.0514 117.055 63.5164 117.162 64.1484L117.664 67.0944L116.974 67.212L116.498 64.4167C116.406 63.8787 116.228 63.5088 115.964 63.3071C115.699 63.1053 115.356 63.0403 114.935 63.1121C114.449 63.1949 114.097 63.4231 113.881 63.7968C113.667 64.1668 113.607 64.6272 113.701 65.1781L114.13 67.6964ZM120.947 66.6604C120.26 66.7774 119.675 66.6352 119.193 66.2337C118.714 65.8284 118.412 65.2563 118.286 64.5173C118.159 63.7719 118.256 63.1268 118.576 62.5819C118.9 62.0365 119.412 61.7042 120.112 61.585C120.518 61.516 120.886 61.5449 121.218 61.6718C121.552 61.795 121.833 62.0139 122.06 62.3288L121.489 58.9744L122.179 58.8568L123.415 66.1149L122.817 66.2167L122.576 65.2423C122.473 65.6367 122.279 65.9549 121.994 66.197C121.711 66.4352 121.362 66.5897 120.947 66.6604ZM120.957 66.0134C121.475 65.9251 121.854 65.6789 122.092 65.2748C122.329 64.8675 122.399 64.3803 122.303 63.8132C122.207 63.2492 121.98 62.816 121.621 62.5136C121.262 62.2078 120.824 62.0991 120.305 62.1875C119.793 62.2747 119.42 62.5216 119.186 62.9284C118.951 63.3319 118.882 63.8156 118.978 64.3795C119.074 64.9467 119.3 65.3834 119.656 65.6896C120.011 65.9927 120.445 66.1006 120.957 66.0134ZM124.205 64.5847L124.866 64.4721C124.914 64.7508 125.049 64.9562 125.271 65.0884C125.497 65.2168 125.778 65.2523 126.115 65.1949C126.488 65.1314 126.765 65.0074 126.947 64.823C127.132 64.6381 127.203 64.416 127.159 64.1567C127.124 63.9525 127.038 63.8004 126.901 63.7003C126.764 63.6003 126.55 63.54 126.26 63.5194L125.398 63.4511C124.533 63.385 124.044 63.0214 123.931 62.3602C123.86 61.9389 123.961 61.5764 124.236 61.2728C124.514 60.9653 124.914 60.7672 125.436 60.6783C125.945 60.5916 126.375 60.6534 126.728 60.8634C127.08 61.0703 127.3 61.3962 127.39 61.8412L126.719 61.9555C126.662 61.6784 126.527 61.4779 126.316 61.3538C126.105 61.2297 125.837 61.1952 125.513 61.2504C125.176 61.3078 124.927 61.4219 124.766 61.5928C124.608 61.763 124.551 61.9778 124.596 62.2371C124.659 62.6098 124.964 62.8162 125.512 62.8565L126.374 62.9247C126.813 62.9567 127.147 63.0598 127.377 63.2341C127.607 63.4084 127.751 63.669 127.81 64.0157C127.883 64.4468 127.774 64.8223 127.482 65.1422C127.189 65.4621 126.769 65.6687 126.222 65.762C125.68 65.8542 125.228 65.7928 124.865 65.5779C124.501 65.363 124.281 65.0319 124.205 64.5847ZM132.642 64.5434L131.957 64.6601L130.721 57.4021L131.406 57.2853L132.642 64.5434ZM136.144 64.0721C135.437 64.1924 134.827 64.0578 134.314 63.6683C133.803 63.2751 133.484 62.6992 133.354 61.9409C133.226 61.189 133.335 60.5419 133.679 59.9996C134.027 59.4568 134.544 59.1269 135.231 59.0099C135.883 58.899 136.447 59.0197 136.924 59.372C137.401 59.7243 137.697 60.2424 137.814 60.9262L137.872 61.2665L134.036 61.9198C134.163 62.5052 134.401 62.9349 134.751 63.2087C135.101 63.4794 135.535 63.5705 136.053 63.4822C136.85 63.3464 137.286 62.9371 137.36 62.2542L138.021 62.1416C137.978 62.6725 137.796 63.1036 137.476 63.435C137.155 63.7631 136.711 63.9755 136.144 64.0721ZM135.332 59.5981C134.884 59.6743 134.54 59.8747 134.298 60.1993C134.06 60.5234 133.951 60.9289 133.97 61.4158L137.096 60.8834C137.017 60.4199 136.816 60.0707 136.493 59.8356C136.169 59.6006 135.782 59.5214 135.332 59.5981ZM143.396 62.7119L142.72 62.827L141.998 58.5878L139.528 59.0084L140.25 63.2476L139.56 63.3652L138.838 59.126L138.104 59.251L138.005 58.6725L138.739 58.5475L138.58 57.6093C138.492 57.0972 138.55 56.6989 138.751 56.4145C138.952 56.1267 139.246 55.95 139.631 55.8844C139.845 55.8479 140.026 55.8305 140.173 55.8322L140.275 56.4301L139.857 56.5013C139.578 56.5488 139.397 56.6513 139.314 56.8089C139.233 56.9627 139.219 57.1903 139.27 57.4917L139.43 58.4299L141.899 58.0093L141.639 56.4828L142.315 56.3677L142.575 57.8942L143.542 57.7295L143.641 58.308L142.674 58.4727L143.396 62.7119ZM145.97 62.2033C145.868 62.3442 145.73 62.4293 145.558 62.4585C145.387 62.4878 145.229 62.453 145.085 62.354C144.942 62.2551 144.856 62.123 144.828 61.9577C144.799 61.7891 144.836 61.6328 144.938 61.4887C145.043 61.3408 145.18 61.2524 145.348 61.2237C145.517 61.195 145.673 61.2334 145.818 61.3388C145.965 61.4404 146.053 61.5755 146.082 61.7441C146.11 61.9093 146.073 62.0624 145.97 62.2033ZM148.576 61.7595C148.473 61.9004 148.336 61.9855 148.164 62.0147C147.992 62.044 147.835 62.0092 147.691 61.9102C147.548 61.8113 147.462 61.6792 147.434 61.5139C147.405 61.3453 147.442 61.189 147.544 61.0449C147.649 60.897 147.785 60.8086 147.954 60.7799C148.122 60.7512 148.279 60.7896 148.424 60.895C148.571 60.9966 148.659 61.1317 148.688 61.3003C148.716 61.4655 148.679 61.6186 148.576 61.7595ZM151.182 61.3157C151.079 61.4566 150.942 61.5417 150.77 61.5709C150.598 61.6002 150.44 61.5654 150.297 61.4664C150.153 61.3675 150.067 61.2354 150.039 61.0701C150.011 60.9015 150.047 60.7452 150.15 60.6011C150.254 60.4532 150.391 60.3648 150.56 60.3361C150.728 60.3074 150.885 60.3458 151.029 60.4512C151.177 60.5528 151.265 60.6879 151.294 60.8565C151.322 61.0217 151.284 61.1748 151.182 61.3157Z" fill="#F5F5F5" fill-opacity="0.8"/>
</g>
</g>
<defs>
<filter id="filter0_d_89_1507" x="0.5" y="0" width="206" height="316" filterUnits="userSpaceOnUse" color-interpolation-filters="sRGB">
<feFlood flood-opacity="0" result="BackgroundImageFix"/>
<feColorMatrix in="SourceAlpha" type="matrix" values="0 0 0 0 0 0 0 0 0 0 0 0 0 0 0 0 0 0 127 0" result="hardAlpha"/>
<feOffset dy="2"/>
<feGaussianBlur stdDeviation="4"/>
<feComposite in2="hardAlpha" operator="out"/>
<feColorMatrix type="matrix" values="0 0 0 0 0.792342 0 0 0 0 0.797855 0 0 0 0 0.888822 0 0 0 1 0"/>
<feBlend mode="normal" in2="BackgroundImageFix" result="effect1_dropShadow_89_1507"/>
<feBlend mode="normal" in="SourceGraphic" in2="effect1_dropShadow_89_1507" result="shape"/>
</filter>
<clipPath id="clip0_89_1507">
<rect x="8.5" y="6" width="190" height="300" rx="32" fill="white"/>
</clipPath>
</defs>
</svg>
