<svg width="207" height="316" viewBox="0 0 207 316" fill="none" xmlns="http://www.w3.org/2000/svg">
<g filter="url(#filter0_d_89_1080)">
<g clip-path="url(#clip0_89_1080)">
<rect x="8.5" y="6" width="190" height="300" rx="32" fill="#97A0FF"/>
<path d="M24.676 238.292H37.392V240.668H32.398V254H29.648V240.668H24.676V238.292ZM36.8415 242.626H39.1955V244.826H39.2395C39.3128 244.518 39.4522 244.217 39.6575 243.924C39.8775 243.631 40.1342 243.367 40.4275 243.132C40.7355 242.883 41.0728 242.685 41.4395 242.538C41.8062 242.391 42.1802 242.318 42.5615 242.318C42.8548 242.318 43.0528 242.325 43.1555 242.34C43.2728 242.355 43.3902 242.369 43.5075 242.384V244.804C43.3315 244.775 43.1482 244.753 42.9575 244.738C42.7815 244.709 42.6055 244.694 42.4295 244.694C42.0042 244.694 41.6008 244.782 41.2195 244.958C40.8528 245.119 40.5302 245.369 40.2515 245.706C39.9728 246.029 39.7528 246.432 39.5915 246.916C39.4302 247.4 39.3495 247.957 39.3495 248.588V254H36.8415V242.626ZM54.1019 251.47C54.1019 251.778 54.1385 251.998 54.2119 252.13C54.2999 252.262 54.4612 252.328 54.6959 252.328C54.7692 252.328 54.8572 252.328 54.9599 252.328C55.0625 252.328 55.1799 252.313 55.3119 252.284V254.022C55.2239 254.051 55.1065 254.081 54.9599 254.11C54.8279 254.154 54.6885 254.191 54.5419 254.22C54.3952 254.249 54.2485 254.271 54.1019 254.286C53.9552 254.301 53.8305 254.308 53.7279 254.308C53.2145 254.308 52.7892 254.205 52.4519 254C52.1145 253.795 51.8945 253.435 51.7919 252.922C51.2932 253.406 50.6772 253.758 49.9439 253.978C49.2252 254.198 48.5285 254.308 47.8539 254.308C47.3405 254.308 46.8492 254.235 46.3799 254.088C45.9105 253.956 45.4925 253.758 45.1259 253.494C44.7739 253.215 44.4879 252.871 44.2679 252.46C44.0625 252.035 43.9599 251.543 43.9599 250.986C43.9599 250.282 44.0845 249.71 44.3339 249.27C44.5979 248.83 44.9352 248.485 45.3459 248.236C45.7712 247.987 46.2405 247.811 46.7539 247.708C47.2819 247.591 47.8099 247.503 48.3379 247.444C48.7925 247.356 49.2252 247.297 49.6359 247.268C50.0465 247.224 50.4059 247.158 50.7139 247.07C51.0365 246.982 51.2859 246.85 51.4619 246.674C51.6525 246.483 51.7479 246.205 51.7479 245.838C51.7479 245.515 51.6672 245.251 51.5059 245.046C51.3592 244.841 51.1685 244.687 50.9339 244.584C50.7139 244.467 50.4645 244.393 50.1859 244.364C49.9072 244.32 49.6432 244.298 49.3939 244.298C48.6899 244.298 48.1105 244.445 47.6559 244.738C47.2012 245.031 46.9445 245.486 46.8859 246.102H44.3779C44.4219 245.369 44.5979 244.76 44.9059 244.276C45.2139 243.792 45.6025 243.403 46.0719 243.11C46.5559 242.817 47.0985 242.611 47.6999 242.494C48.3012 242.377 48.9172 242.318 49.5479 242.318C50.1052 242.318 50.6552 242.377 51.1979 242.494C51.7405 242.611 52.2245 242.802 52.6499 243.066C53.0899 243.33 53.4419 243.675 53.7059 244.1C53.9699 244.511 54.1019 245.017 54.1019 245.618V251.47ZM51.5939 248.302C51.2125 248.551 50.7432 248.705 50.1859 248.764C49.6285 248.808 49.0712 248.881 48.5139 248.984C48.2499 249.028 47.9932 249.094 47.7439 249.182C47.4945 249.255 47.2745 249.365 47.0839 249.512C46.8932 249.644 46.7392 249.827 46.6219 250.062C46.5192 250.282 46.4679 250.553 46.4679 250.876C46.4679 251.155 46.5485 251.389 46.7099 251.58C46.8712 251.771 47.0619 251.925 47.2819 252.042C47.5165 252.145 47.7659 252.218 48.0299 252.262C48.3085 252.306 48.5579 252.328 48.7779 252.328C49.0565 252.328 49.3572 252.291 49.6799 252.218C50.0025 252.145 50.3032 252.02 50.5819 251.844C50.8752 251.668 51.1172 251.448 51.3079 251.184C51.4985 250.905 51.5939 250.568 51.5939 250.172V248.302ZM56.8005 242.626H59.1765V244.298L59.2205 244.342C59.6018 243.711 60.1005 243.22 60.7165 242.868C61.3325 242.501 62.0145 242.318 62.7625 242.318C64.0091 242.318 64.9918 242.641 65.7105 243.286C66.4291 243.931 66.7885 244.899 66.7885 246.19V254H64.2805V246.85C64.2511 245.955 64.0605 245.31 63.7085 244.914C63.3565 244.503 62.8065 244.298 62.0585 244.298C61.6331 244.298 61.2518 244.379 60.9145 244.54C60.5771 244.687 60.2911 244.899 60.0565 245.178C59.8218 245.442 59.6385 245.757 59.5065 246.124C59.3745 246.491 59.3085 246.879 59.3085 247.29V254H56.8005V242.626ZM71.3253 250.348C71.3986 251.081 71.6773 251.595 72.1613 251.888C72.6453 252.181 73.2246 252.328 73.8993 252.328C74.1339 252.328 74.3979 252.313 74.6913 252.284C74.9993 252.24 75.2853 252.167 75.5493 252.064C75.8133 251.961 76.0259 251.815 76.1873 251.624C76.3633 251.419 76.4439 251.155 76.4293 250.832C76.4146 250.509 76.2973 250.245 76.0773 250.04C75.8573 249.835 75.5713 249.673 75.2193 249.556C74.8819 249.424 74.4933 249.314 74.0533 249.226C73.6133 249.138 73.1659 249.043 72.7113 248.94C72.2419 248.837 71.7873 248.713 71.3473 248.566C70.9219 248.419 70.5333 248.221 70.1813 247.972C69.8439 247.723 69.5726 247.407 69.3673 247.026C69.1619 246.63 69.0593 246.146 69.0593 245.574C69.0593 244.958 69.2059 244.445 69.4993 244.034C69.8073 243.609 70.1886 243.271 70.6433 243.022C71.1126 242.758 71.6259 242.575 72.1833 242.472C72.7553 242.369 73.2979 242.318 73.8113 242.318C74.3979 242.318 74.9553 242.384 75.4833 242.516C76.0259 242.633 76.5099 242.831 76.9353 243.11C77.3753 243.389 77.7346 243.755 78.0133 244.21C78.3066 244.65 78.4899 245.185 78.5633 245.816H75.9453C75.8279 245.215 75.5493 244.811 75.1093 244.606C74.6839 244.401 74.1926 244.298 73.6353 244.298C73.4593 244.298 73.2466 244.313 72.9973 244.342C72.7626 244.371 72.5353 244.43 72.3153 244.518C72.1099 244.591 71.9339 244.709 71.7873 244.87C71.6406 245.017 71.5673 245.215 71.5673 245.464C71.5673 245.772 71.6699 246.021 71.8753 246.212C72.0953 246.403 72.3739 246.564 72.7113 246.696C73.0633 246.813 73.4593 246.916 73.8993 247.004C74.3393 247.092 74.7939 247.187 75.2633 247.29C75.7179 247.393 76.1653 247.517 76.6053 247.664C77.0453 247.811 77.4339 248.009 77.7713 248.258C78.1233 248.507 78.4019 248.823 78.6073 249.204C78.8273 249.585 78.9373 250.055 78.9373 250.612C78.9373 251.287 78.7833 251.859 78.4753 252.328C78.1673 252.797 77.7639 253.179 77.2653 253.472C76.7813 253.765 76.2386 253.978 75.6373 254.11C75.0359 254.242 74.4419 254.308 73.8553 254.308C73.1366 254.308 72.4693 254.227 71.8533 254.066C71.2519 253.905 70.7239 253.663 70.2693 253.34C69.8293 253.003 69.4773 252.592 69.2133 252.108C68.9639 251.609 68.8319 251.023 68.8173 250.348H71.3253ZM80.9075 242.626H83.2835V244.166H83.3275C83.6795 243.506 84.1708 243.037 84.8015 242.758C85.4322 242.465 86.1142 242.318 86.8475 242.318C87.7422 242.318 88.5195 242.479 89.1795 242.802C89.8542 243.11 90.4115 243.543 90.8515 244.1C91.2915 244.643 91.6215 245.281 91.8415 246.014C92.0615 246.747 92.1715 247.532 92.1715 248.368C92.1715 249.131 92.0688 249.871 91.8635 250.59C91.6728 251.309 91.3722 251.947 90.9615 252.504C90.5655 253.047 90.0595 253.487 89.4435 253.824C88.8275 254.147 88.1015 254.308 87.2655 254.308C86.8988 254.308 86.5322 254.271 86.1655 254.198C85.7988 254.139 85.4468 254.037 85.1095 253.89C84.7722 253.743 84.4568 253.56 84.1635 253.34C83.8848 253.105 83.6502 252.834 83.4595 252.526H83.4155V258.202H80.9075V242.626ZM89.6635 248.324C89.6635 247.811 89.5975 247.312 89.4655 246.828C89.3335 246.344 89.1355 245.919 88.8715 245.552C88.6075 245.171 88.2775 244.87 87.8815 244.65C87.4855 244.415 87.0308 244.298 86.5175 244.298C85.4615 244.298 84.6622 244.665 84.1195 245.398C83.5915 246.131 83.3275 247.107 83.3275 248.324C83.3275 248.896 83.3935 249.431 83.5255 249.93C83.6722 250.414 83.8848 250.832 84.1635 251.184C84.4422 251.536 84.7722 251.815 85.1535 252.02C85.5495 252.225 86.0042 252.328 86.5175 252.328C87.0895 252.328 87.5735 252.211 87.9695 251.976C88.3655 251.741 88.6882 251.441 88.9375 251.074C89.2015 250.693 89.3848 250.267 89.4875 249.798C89.6048 249.314 89.6635 248.823 89.6635 248.324ZM103.817 251.47C103.817 251.778 103.853 251.998 103.927 252.13C104.015 252.262 104.176 252.328 104.411 252.328C104.484 252.328 104.572 252.328 104.675 252.328C104.777 252.328 104.895 252.313 105.027 252.284V254.022C104.939 254.051 104.821 254.081 104.675 254.11C104.543 254.154 104.403 254.191 104.257 254.22C104.11 254.249 103.963 254.271 103.817 254.286C103.67 254.301 103.545 254.308 103.443 254.308C102.929 254.308 102.504 254.205 102.167 254C101.829 253.795 101.609 253.435 101.507 252.922C101.008 253.406 100.392 253.758 99.6587 253.978C98.94 254.198 98.2434 254.308 97.5687 254.308C97.0554 254.308 96.564 254.235 96.0947 254.088C95.6254 253.956 95.2074 253.758 94.8407 253.494C94.4887 253.215 94.2027 252.871 93.9827 252.46C93.7774 252.035 93.6747 251.543 93.6747 250.986C93.6747 250.282 93.7994 249.71 94.0487 249.27C94.3127 248.83 94.65 248.485 95.0607 248.236C95.486 247.987 95.9554 247.811 96.4687 247.708C96.9967 247.591 97.5247 247.503 98.0527 247.444C98.5074 247.356 98.94 247.297 99.3507 247.268C99.7614 247.224 100.121 247.158 100.429 247.07C100.751 246.982 101.001 246.85 101.177 246.674C101.367 246.483 101.463 246.205 101.463 245.838C101.463 245.515 101.382 245.251 101.221 245.046C101.074 244.841 100.883 244.687 100.649 244.584C100.429 244.467 100.179 244.393 99.9007 244.364C99.622 244.32 99.358 244.298 99.1087 244.298C98.4047 244.298 97.8254 244.445 97.3707 244.738C96.916 245.031 96.6594 245.486 96.6007 246.102H94.0927C94.1367 245.369 94.3127 244.76 94.6207 244.276C94.9287 243.792 95.3174 243.403 95.7867 243.11C96.2707 242.817 96.8134 242.611 97.4147 242.494C98.016 242.377 98.632 242.318 99.2627 242.318C99.82 242.318 100.37 242.377 100.913 242.494C101.455 242.611 101.939 242.802 102.365 243.066C102.805 243.33 103.157 243.675 103.421 244.1C103.685 244.511 103.817 245.017 103.817 245.618V251.47ZM101.309 248.302C100.927 248.551 100.458 248.705 99.9007 248.764C99.3434 248.808 98.786 248.881 98.2287 248.984C97.9647 249.028 97.708 249.094 97.4587 249.182C97.2094 249.255 96.9894 249.365 96.7987 249.512C96.608 249.644 96.454 249.827 96.3367 250.062C96.234 250.282 96.1827 250.553 96.1827 250.876C96.1827 251.155 96.2634 251.389 96.4247 251.58C96.586 251.771 96.7767 251.925 96.9967 252.042C97.2314 252.145 97.4807 252.218 97.7447 252.262C98.0234 252.306 98.2727 252.328 98.4927 252.328C98.7714 252.328 99.072 252.291 99.3947 252.218C99.7174 252.145 100.018 252.02 100.297 251.844C100.59 251.668 100.832 251.448 101.023 251.184C101.213 250.905 101.309 250.568 101.309 250.172V248.302ZM106.515 242.626H108.869V244.826H108.913C108.987 244.518 109.126 244.217 109.331 243.924C109.551 243.631 109.808 243.367 110.101 243.132C110.409 242.883 110.747 242.685 111.113 242.538C111.48 242.391 111.854 242.318 112.235 242.318C112.529 242.318 112.727 242.325 112.829 242.34C112.947 242.355 113.064 242.369 113.181 242.384V244.804C113.005 244.775 112.822 244.753 112.631 244.738C112.455 244.709 112.279 244.694 112.103 244.694C111.678 244.694 111.275 244.782 110.893 244.958C110.527 245.119 110.204 245.369 109.925 245.706C109.647 246.029 109.427 246.432 109.265 246.916C109.104 247.4 109.023 247.957 109.023 248.588V254H106.515V242.626ZM121.673 247.312C121.644 246.916 121.556 246.535 121.409 246.168C121.277 245.801 121.086 245.486 120.837 245.222C120.602 244.943 120.309 244.723 119.957 244.562C119.62 244.386 119.238 244.298 118.813 244.298C118.373 244.298 117.97 244.379 117.603 244.54C117.251 244.687 116.943 244.899 116.679 245.178C116.43 245.442 116.224 245.757 116.063 246.124C115.916 246.491 115.836 246.887 115.821 247.312H121.673ZM115.821 248.962C115.821 249.402 115.88 249.827 115.997 250.238C116.129 250.649 116.32 251.008 116.569 251.316C116.818 251.624 117.134 251.873 117.515 252.064C117.896 252.24 118.351 252.328 118.879 252.328C119.612 252.328 120.199 252.174 120.639 251.866C121.094 251.543 121.431 251.067 121.651 250.436H124.027C123.895 251.052 123.668 251.602 123.345 252.086C123.022 252.57 122.634 252.981 122.179 253.318C121.724 253.641 121.211 253.883 120.639 254.044C120.082 254.22 119.495 254.308 118.879 254.308C117.984 254.308 117.192 254.161 116.503 253.868C115.814 253.575 115.227 253.164 114.743 252.636C114.274 252.108 113.914 251.477 113.665 250.744C113.43 250.011 113.313 249.204 113.313 248.324C113.313 247.517 113.438 246.755 113.687 246.036C113.951 245.303 114.318 244.665 114.787 244.122C115.271 243.565 115.85 243.125 116.525 242.802C117.2 242.479 117.962 242.318 118.813 242.318C119.708 242.318 120.507 242.509 121.211 242.89C121.93 243.257 122.524 243.748 122.993 244.364C123.462 244.98 123.8 245.691 124.005 246.498C124.225 247.29 124.284 248.111 124.181 248.962H115.821ZM126.088 242.626H128.464V244.298L128.508 244.342C128.889 243.711 129.388 243.22 130.004 242.868C130.62 242.501 131.302 242.318 132.05 242.318C133.296 242.318 134.279 242.641 134.998 243.286C135.716 243.931 136.076 244.899 136.076 246.19V254H133.568V246.85C133.538 245.955 133.348 245.31 132.996 244.914C132.644 244.503 132.094 244.298 131.346 244.298C130.92 244.298 130.539 244.379 130.202 244.54C129.864 244.687 129.578 244.899 129.344 245.178C129.109 245.442 128.926 245.757 128.794 246.124C128.662 246.491 128.596 246.879 128.596 247.29V254H126.088V242.626ZM137.576 242.626H139.468V239.216H141.976V242.626H144.242V244.496H141.976V250.568C141.976 250.832 141.984 251.059 141.998 251.25C142.028 251.441 142.079 251.602 142.152 251.734C142.24 251.866 142.365 251.969 142.526 252.042C142.688 252.101 142.908 252.13 143.186 252.13C143.362 252.13 143.538 252.13 143.714 252.13C143.89 252.115 144.066 252.086 144.242 252.042V253.978C143.964 254.007 143.692 254.037 143.428 254.066C143.164 254.095 142.893 254.11 142.614 254.11C141.954 254.11 141.419 254.051 141.008 253.934C140.612 253.802 140.297 253.619 140.062 253.384C139.842 253.135 139.688 252.827 139.6 252.46C139.527 252.093 139.483 251.675 139.468 251.206V244.496H137.576V242.626ZM27.976 275.764C27.976 276.365 28.0787 276.879 28.284 277.304C28.4893 277.729 28.7753 278.081 29.142 278.36C29.5087 278.624 29.9267 278.822 30.396 278.954C30.88 279.071 31.4007 279.13 31.958 279.13C32.5593 279.13 33.0727 279.064 33.498 278.932C33.9233 278.785 34.268 278.602 34.532 278.382C34.796 278.162 34.9867 277.913 35.104 277.634C35.2213 277.341 35.28 277.047 35.28 276.754C35.28 276.153 35.1407 275.713 34.862 275.434C34.598 275.141 34.3047 274.935 33.982 274.818C33.4247 274.613 32.772 274.422 32.024 274.246C31.2907 274.055 30.3813 273.813 29.296 273.52C28.6213 273.344 28.0567 273.117 27.602 272.838C27.162 272.545 26.81 272.222 26.546 271.87C26.282 271.518 26.0913 271.144 25.974 270.748C25.8713 270.352 25.82 269.949 25.82 269.538C25.82 268.746 25.9813 268.064 26.304 267.492C26.6413 266.905 27.0813 266.421 27.624 266.04C28.1667 265.659 28.7827 265.38 29.472 265.204C30.1613 265.013 30.858 264.918 31.562 264.918C32.3833 264.918 33.1533 265.028 33.872 265.248C34.6053 265.453 35.2433 265.769 35.786 266.194C36.3433 266.619 36.7833 267.147 37.106 267.778C37.4287 268.394 37.59 269.113 37.59 269.934H34.84C34.7667 268.922 34.422 268.211 33.806 267.8C33.19 267.375 32.4053 267.162 31.452 267.162C31.1293 267.162 30.7993 267.199 30.462 267.272C30.1247 267.331 29.8167 267.441 29.538 267.602C29.2593 267.749 29.0247 267.954 28.834 268.218C28.658 268.482 28.57 268.812 28.57 269.208C28.57 269.765 28.7387 270.205 29.076 270.528C29.428 270.836 29.8827 271.071 30.44 271.232C30.4987 271.247 30.726 271.313 31.122 271.43C31.5327 271.533 31.9873 271.65 32.486 271.782C32.9847 271.914 33.4687 272.046 33.938 272.178C34.422 272.295 34.7667 272.383 34.972 272.442C35.4853 272.603 35.9327 272.823 36.314 273.102C36.6953 273.381 37.0107 273.703 37.26 274.07C37.524 274.422 37.7147 274.803 37.832 275.214C37.964 275.625 38.03 276.035 38.03 276.446C38.03 277.326 37.8467 278.081 37.48 278.712C37.128 279.328 36.6587 279.834 36.072 280.23C35.4853 280.626 34.818 280.912 34.07 281.088C33.322 281.279 32.5593 281.374 31.782 281.374C30.8873 281.374 30.044 281.264 29.252 281.044C28.46 280.824 27.7707 280.487 27.184 280.032C26.5973 279.577 26.128 278.998 25.776 278.294C25.424 277.575 25.2407 276.732 25.226 275.764H27.976ZM40.1516 269.626H42.5276V271.166H42.5716C42.9236 270.506 43.415 270.037 44.0456 269.758C44.6763 269.465 45.3583 269.318 46.0916 269.318C46.9863 269.318 47.7636 269.479 48.4236 269.802C49.0983 270.11 49.6556 270.543 50.0956 271.1C50.5356 271.643 50.8656 272.281 51.0856 273.014C51.3056 273.747 51.4156 274.532 51.4156 275.368C51.4156 276.131 51.313 276.871 51.1076 277.59C50.917 278.309 50.6163 278.947 50.2056 279.504C49.8096 280.047 49.3036 280.487 48.6876 280.824C48.0716 281.147 47.3456 281.308 46.5096 281.308C46.143 281.308 45.7763 281.271 45.4096 281.198C45.043 281.139 44.691 281.037 44.3536 280.89C44.0163 280.743 43.701 280.56 43.4076 280.34C43.129 280.105 42.8943 279.834 42.7036 279.526H42.6596V285.202H40.1516V269.626ZM48.9076 275.324C48.9076 274.811 48.8416 274.312 48.7096 273.828C48.5776 273.344 48.3796 272.919 48.1156 272.552C47.8516 272.171 47.5216 271.87 47.1256 271.65C46.7296 271.415 46.275 271.298 45.7616 271.298C44.7056 271.298 43.9063 271.665 43.3636 272.398C42.8356 273.131 42.5716 274.107 42.5716 275.324C42.5716 275.896 42.6376 276.431 42.7696 276.93C42.9163 277.414 43.129 277.832 43.4076 278.184C43.6863 278.536 44.0163 278.815 44.3976 279.02C44.7936 279.225 45.2483 279.328 45.7616 279.328C46.3336 279.328 46.8176 279.211 47.2136 278.976C47.6096 278.741 47.9323 278.441 48.1816 278.074C48.4456 277.693 48.629 277.267 48.7316 276.798C48.849 276.314 48.9076 275.823 48.9076 275.324ZM61.3448 274.312C61.3155 273.916 61.2275 273.535 61.0808 273.168C60.9488 272.801 60.7582 272.486 60.5088 272.222C60.2742 271.943 59.9808 271.723 59.6288 271.562C59.2915 271.386 58.9102 271.298 58.4848 271.298C58.0448 271.298 57.6415 271.379 57.2748 271.54C56.9228 271.687 56.6148 271.899 56.3508 272.178C56.1015 272.442 55.8962 272.757 55.7348 273.124C55.5882 273.491 55.5075 273.887 55.4928 274.312H61.3448ZM55.4928 275.962C55.4928 276.402 55.5515 276.827 55.6688 277.238C55.8008 277.649 55.9915 278.008 56.2408 278.316C56.4902 278.624 56.8055 278.873 57.1868 279.064C57.5682 279.24 58.0228 279.328 58.5508 279.328C59.2842 279.328 59.8708 279.174 60.3108 278.866C60.7655 278.543 61.1028 278.067 61.3228 277.436H63.6988C63.5668 278.052 63.3395 278.602 63.0168 279.086C62.6942 279.57 62.3055 279.981 61.8508 280.318C61.3962 280.641 60.8828 280.883 60.3108 281.044C59.7535 281.22 59.1668 281.308 58.5508 281.308C57.6562 281.308 56.8642 281.161 56.1748 280.868C55.4855 280.575 54.8988 280.164 54.4148 279.636C53.9455 279.108 53.5862 278.477 53.3368 277.744C53.1022 277.011 52.9848 276.204 52.9848 275.324C52.9848 274.517 53.1095 273.755 53.3588 273.036C53.6228 272.303 53.9895 271.665 54.4588 271.122C54.9428 270.565 55.5222 270.125 56.1968 269.802C56.8715 269.479 57.6342 269.318 58.4848 269.318C59.3795 269.318 60.1788 269.509 60.8828 269.89C61.6015 270.257 62.1955 270.748 62.6648 271.364C63.1342 271.98 63.4715 272.691 63.6768 273.498C63.8968 274.29 63.9555 275.111 63.8528 275.962H55.4928ZM65.7595 269.626H68.1355V271.298L68.1795 271.342C68.5608 270.711 69.0595 270.22 69.6755 269.868C70.2915 269.501 70.9735 269.318 71.7215 269.318C72.9681 269.318 73.9508 269.641 74.6695 270.286C75.3881 270.931 75.7475 271.899 75.7475 273.19V281H73.2395V273.85C73.2101 272.955 73.0195 272.31 72.6675 271.914C72.3155 271.503 71.7655 271.298 71.0175 271.298C70.5921 271.298 70.2108 271.379 69.8735 271.54C69.5361 271.687 69.2501 271.899 69.0155 272.178C68.7808 272.442 68.5975 272.757 68.4655 273.124C68.3335 273.491 68.2675 273.879 68.2675 274.29V281H65.7595V269.626ZM89.1063 281H86.7303V279.46H86.6863C86.3489 280.12 85.8576 280.597 85.2123 280.89C84.5669 281.169 83.8849 281.308 83.1663 281.308C82.2716 281.308 81.4869 281.154 80.8123 280.846C80.1523 280.523 79.6023 280.091 79.1623 279.548C78.7223 279.005 78.3923 278.367 78.1723 277.634C77.9523 276.886 77.8423 276.087 77.8423 275.236C77.8423 274.209 77.9816 273.322 78.2603 272.574C78.5389 271.826 78.9056 271.21 79.3603 270.726C79.8296 270.242 80.3576 269.89 80.9443 269.67C81.5456 269.435 82.1543 269.318 82.7703 269.318C83.1223 269.318 83.4816 269.355 83.8483 269.428C84.2149 269.487 84.5669 269.589 84.9043 269.736C85.2416 269.883 85.5496 270.073 85.8283 270.308C86.1216 270.528 86.3636 270.792 86.5543 271.1H86.5983V265.292H89.1063V281ZM80.3503 275.434C80.3503 275.918 80.4089 276.395 80.5263 276.864C80.6583 277.333 80.8489 277.751 81.0983 278.118C81.3623 278.485 81.6923 278.778 82.0883 278.998C82.4843 279.218 82.9536 279.328 83.4963 279.328C84.0536 279.328 84.5303 279.211 84.9263 278.976C85.3369 278.741 85.6669 278.433 85.9163 278.052C86.1803 277.671 86.3709 277.245 86.4883 276.776C86.6203 276.292 86.6863 275.801 86.6863 275.302C86.6863 274.041 86.4003 273.058 85.8283 272.354C85.2709 271.65 84.5083 271.298 83.5403 271.298C82.9536 271.298 82.4549 271.423 82.0443 271.672C81.6483 271.907 81.3183 272.222 81.0543 272.618C80.8049 272.999 80.6216 273.439 80.5043 273.938C80.4016 274.422 80.3503 274.921 80.3503 275.434ZM96.8205 265.292H109.537V267.668H104.543V281H101.793V267.668H96.8205V265.292ZM108.986 269.626H111.34V271.826H111.384C111.457 271.518 111.597 271.217 111.802 270.924C112.022 270.631 112.279 270.367 112.572 270.132C112.88 269.883 113.217 269.685 113.584 269.538C113.951 269.391 114.325 269.318 114.706 269.318C114.999 269.318 115.197 269.325 115.3 269.34C115.417 269.355 115.535 269.369 115.652 269.384V271.804C115.476 271.775 115.293 271.753 115.102 271.738C114.926 271.709 114.75 271.694 114.574 271.694C114.149 271.694 113.745 271.782 113.364 271.958C112.997 272.119 112.675 272.369 112.396 272.706C112.117 273.029 111.897 273.432 111.736 273.916C111.575 274.4 111.494 274.957 111.494 275.588V281H108.986V269.626ZM126.246 278.47C126.246 278.778 126.283 278.998 126.356 279.13C126.444 279.262 126.606 279.328 126.84 279.328C126.914 279.328 127.002 279.328 127.104 279.328C127.207 279.328 127.324 279.313 127.456 279.284V281.022C127.368 281.051 127.251 281.081 127.104 281.11C126.972 281.154 126.833 281.191 126.686 281.22C126.54 281.249 126.393 281.271 126.246 281.286C126.1 281.301 125.975 281.308 125.872 281.308C125.359 281.308 124.934 281.205 124.596 281C124.259 280.795 124.039 280.435 123.936 279.922C123.438 280.406 122.822 280.758 122.088 280.978C121.37 281.198 120.673 281.308 119.998 281.308C119.485 281.308 118.994 281.235 118.524 281.088C118.055 280.956 117.637 280.758 117.27 280.494C116.918 280.215 116.632 279.871 116.412 279.46C116.207 279.035 116.104 278.543 116.104 277.986C116.104 277.282 116.229 276.71 116.478 276.27C116.742 275.83 117.08 275.485 117.49 275.236C117.916 274.987 118.385 274.811 118.898 274.708C119.426 274.591 119.954 274.503 120.482 274.444C120.937 274.356 121.37 274.297 121.78 274.268C122.191 274.224 122.55 274.158 122.858 274.07C123.181 273.982 123.43 273.85 123.606 273.674C123.797 273.483 123.892 273.205 123.892 272.838C123.892 272.515 123.812 272.251 123.65 272.046C123.504 271.841 123.313 271.687 123.078 271.584C122.858 271.467 122.609 271.393 122.33 271.364C122.052 271.32 121.788 271.298 121.538 271.298C120.834 271.298 120.255 271.445 119.8 271.738C119.346 272.031 119.089 272.486 119.03 273.102H116.522C116.566 272.369 116.742 271.76 117.05 271.276C117.358 270.792 117.747 270.403 118.216 270.11C118.7 269.817 119.243 269.611 119.844 269.494C120.446 269.377 121.062 269.318 121.692 269.318C122.25 269.318 122.8 269.377 123.342 269.494C123.885 269.611 124.369 269.802 124.794 270.066C125.234 270.33 125.586 270.675 125.85 271.1C126.114 271.511 126.246 272.017 126.246 272.618V278.47ZM123.738 275.302C123.357 275.551 122.888 275.705 122.33 275.764C121.773 275.808 121.216 275.881 120.658 275.984C120.394 276.028 120.138 276.094 119.888 276.182C119.639 276.255 119.419 276.365 119.228 276.512C119.038 276.644 118.884 276.827 118.766 277.062C118.664 277.282 118.612 277.553 118.612 277.876C118.612 278.155 118.693 278.389 118.854 278.58C119.016 278.771 119.206 278.925 119.426 279.042C119.661 279.145 119.91 279.218 120.174 279.262C120.453 279.306 120.702 279.328 120.922 279.328C121.201 279.328 121.502 279.291 121.824 279.218C122.147 279.145 122.448 279.02 122.726 278.844C123.02 278.668 123.262 278.448 123.452 278.184C123.643 277.905 123.738 277.568 123.738 277.172V275.302ZM136.623 273.432C136.52 272.728 136.234 272.2 135.765 271.848C135.31 271.481 134.731 271.298 134.027 271.298C133.704 271.298 133.36 271.357 132.993 271.474C132.626 271.577 132.289 271.782 131.981 272.09C131.673 272.383 131.416 272.801 131.211 273.344C131.006 273.872 130.903 274.569 130.903 275.434C130.903 275.903 130.954 276.373 131.057 276.842C131.174 277.311 131.35 277.729 131.585 278.096C131.834 278.463 132.15 278.763 132.531 278.998C132.912 279.218 133.374 279.328 133.917 279.328C134.65 279.328 135.252 279.101 135.721 278.646C136.205 278.191 136.506 277.553 136.623 276.732H139.131C138.896 278.213 138.332 279.35 137.437 280.142C136.557 280.919 135.384 281.308 133.917 281.308C133.022 281.308 132.23 281.161 131.541 280.868C130.866 280.56 130.294 280.149 129.825 279.636C129.356 279.108 128.996 278.485 128.747 277.766C128.512 277.047 128.395 276.27 128.395 275.434C128.395 274.583 128.512 273.784 128.747 273.036C128.982 272.288 129.334 271.643 129.803 271.1C130.272 270.543 130.852 270.11 131.541 269.802C132.245 269.479 133.066 269.318 134.005 269.318C134.665 269.318 135.288 269.406 135.875 269.582C136.476 269.743 137.004 269.993 137.459 270.33C137.928 270.667 138.31 271.093 138.603 271.606C138.896 272.119 139.072 272.728 139.131 273.432H136.623ZM141.236 265.292H143.744V274.224L148.276 269.626H151.356L147 273.806L151.774 281H148.716L145.24 275.478L143.744 276.93V281H141.236V265.292ZM160.796 274.312C160.767 273.916 160.679 273.535 160.532 273.168C160.4 272.801 160.209 272.486 159.96 272.222C159.725 271.943 159.432 271.723 159.08 271.562C158.743 271.386 158.361 271.298 157.936 271.298C157.496 271.298 157.093 271.379 156.726 271.54C156.374 271.687 156.066 271.899 155.802 272.178C155.553 272.442 155.347 272.757 155.186 273.124C155.039 273.491 154.959 273.887 154.944 274.312H160.796ZM154.944 275.962C154.944 276.402 155.003 276.827 155.12 277.238C155.252 277.649 155.443 278.008 155.692 278.316C155.941 278.624 156.257 278.873 156.638 279.064C157.019 279.24 157.474 279.328 158.002 279.328C158.735 279.328 159.322 279.174 159.762 278.866C160.217 278.543 160.554 278.067 160.774 277.436H163.15C163.018 278.052 162.791 278.602 162.468 279.086C162.145 279.57 161.757 279.981 161.302 280.318C160.847 280.641 160.334 280.883 159.762 281.044C159.205 281.22 158.618 281.308 158.002 281.308C157.107 281.308 156.315 281.161 155.626 280.868C154.937 280.575 154.35 280.164 153.866 279.636C153.397 279.108 153.037 278.477 152.788 277.744C152.553 277.011 152.436 276.204 152.436 275.324C152.436 274.517 152.561 273.755 152.81 273.036C153.074 272.303 153.441 271.665 153.91 271.122C154.394 270.565 154.973 270.125 155.648 269.802C156.323 269.479 157.085 269.318 157.936 269.318C158.831 269.318 159.63 269.509 160.334 269.89C161.053 270.257 161.647 270.748 162.116 271.364C162.585 271.98 162.923 272.691 163.128 273.498C163.348 274.29 163.407 275.111 163.304 275.962H154.944ZM165.211 269.626H167.565V271.826H167.609C167.682 271.518 167.821 271.217 168.027 270.924C168.247 270.631 168.503 270.367 168.797 270.132C169.105 269.883 169.442 269.685 169.809 269.538C170.175 269.391 170.549 269.318 170.931 269.318C171.224 269.318 171.422 269.325 171.525 269.34C171.642 269.355 171.759 269.369 171.877 269.384V271.804C171.701 271.775 171.517 271.753 171.327 271.738C171.151 271.709 170.975 271.694 170.799 271.694C170.373 271.694 169.97 271.782 169.589 271.958C169.222 272.119 168.899 272.369 168.621 272.706C168.342 273.029 168.122 273.432 167.961 273.916C167.799 274.4 167.719 274.957 167.719 275.588V281H165.211V269.626Z" fill="white"/>
<path d="M30.564 220.176C29.4973 220.176 28.5587 219.931 27.748 219.44C26.948 218.939 26.3187 218.245 25.86 217.36C25.412 216.475 25.188 215.445 25.188 214.272C25.188 213.099 25.4173 212.069 25.876 211.184C26.3347 210.288 26.9747 209.595 27.796 209.104C28.6173 208.603 29.5613 208.352 30.628 208.352C31.46 208.352 32.212 208.507 32.884 208.816C33.556 209.125 34.1213 209.563 34.58 210.128C35.0387 210.683 35.3427 211.344 35.492 212.112H34.26C34.0147 211.28 33.5667 210.629 32.916 210.16C32.2653 209.691 31.4867 209.456 30.58 209.456C29.748 209.456 29.012 209.659 28.372 210.064C27.7427 210.459 27.252 211.019 26.9 211.744C26.5587 212.459 26.388 213.301 26.388 214.272C26.388 215.221 26.564 216.059 26.916 216.784C27.268 217.509 27.7587 218.075 28.388 218.48C29.0173 218.875 29.748 219.072 30.58 219.072C31.4867 219.072 32.276 218.843 32.948 218.384C33.62 217.925 34.0787 217.317 34.324 216.56H35.556C35.3853 217.275 35.06 217.904 34.58 218.448C34.1107 218.992 33.5293 219.419 32.836 219.728C32.1427 220.027 31.3853 220.176 30.564 220.176ZM38.3821 220H37.2781V208.336H38.3821V220ZM43.9781 220.192C43.2315 220.192 42.5701 220.021 41.9941 219.68C41.4288 219.339 40.9861 218.864 40.6661 218.256C40.3461 217.648 40.1861 216.939 40.1861 216.128C40.1861 215.328 40.3408 214.624 40.6501 214.016C40.9701 213.397 41.4075 212.917 41.9621 212.576C42.5168 212.224 43.1621 212.048 43.8981 212.048C44.6021 212.048 45.2155 212.203 45.7381 212.512C46.2715 212.821 46.6821 213.253 46.9701 213.808C47.2688 214.352 47.4181 214.992 47.4181 215.728V216.272H40.7941L40.8261 215.472H46.3141C46.3141 214.725 46.0901 214.128 45.6421 213.68C45.2048 213.221 44.6235 212.992 43.8981 212.992C43.3648 212.992 42.8955 213.115 42.4901 213.36C42.0955 213.605 41.7915 213.957 41.5781 214.416C41.3648 214.864 41.2581 215.397 41.2581 216.016C41.2581 217.04 41.4928 217.835 41.9621 218.4C42.4421 218.965 43.1195 219.248 43.9941 219.248C44.6235 219.248 45.1408 219.115 45.5461 218.848C45.9515 218.581 46.2235 218.192 46.3621 217.68H47.4181C47.2155 218.491 46.8208 219.115 46.2341 219.552C45.6475 219.979 44.8955 220.192 43.9781 220.192ZM51.3291 220.192C50.5078 220.192 49.8625 219.979 49.3931 219.552C48.9345 219.125 48.7051 218.576 48.7051 217.904C48.7051 217.189 48.9611 216.619 49.4731 216.192C49.9851 215.765 50.6945 215.515 51.6011 215.44L54.1611 215.232V214.976C54.1611 214.464 54.0705 214.064 53.8891 213.776C53.7078 213.477 53.4625 213.269 53.1531 213.152C52.8438 213.035 52.4971 212.976 52.1131 212.976C51.4305 212.976 50.9025 213.12 50.5291 213.408C50.1558 213.696 49.9691 214.101 49.9691 214.624H48.9611C48.9611 214.101 49.0945 213.648 49.3611 213.264C49.6278 212.88 50.0011 212.581 50.4811 212.368C50.9611 212.155 51.5158 212.048 52.1451 212.048C52.7531 212.048 53.2865 212.155 53.7451 212.368C54.2038 212.571 54.5665 212.891 54.8331 213.328C55.1105 213.755 55.2491 214.309 55.2491 214.992V220H54.3211L54.1771 218.64C53.9425 219.131 53.5691 219.515 53.0571 219.792C52.5558 220.059 51.9798 220.192 51.3291 220.192ZM51.5851 219.296C52.4065 219.296 53.0411 219.035 53.4891 218.512C53.9371 217.989 54.1611 217.312 54.1611 216.48V216.064L51.8731 216.24C51.1478 216.304 50.6251 216.485 50.3051 216.784C49.9851 217.083 49.8251 217.445 49.8251 217.872C49.8251 218.341 49.9851 218.699 50.3051 218.944C50.6251 219.179 51.0518 219.296 51.5851 219.296ZM61.5125 212.16V213.152H60.9045C60.1898 213.152 59.6192 213.371 59.1925 213.808C58.7765 214.245 58.5685 214.837 58.5685 215.584V220H57.4645V212.256H58.5045L58.6005 213.776H58.4885C58.5952 213.275 58.8565 212.869 59.2725 212.56C59.6885 212.24 60.1952 212.08 60.7925 212.08C60.9098 212.08 61.0272 212.085 61.1445 212.096C61.2618 212.107 61.3845 212.128 61.5125 212.16ZM71.1296 209.056V220H69.9776V209.056H71.1296ZM66.4576 209.6V208.544H74.6656V209.6H66.4576ZM79.1063 212.16V213.152H78.4983C77.7836 213.152 77.2129 213.371 76.7863 213.808C76.3703 214.245 76.1623 214.837 76.1623 215.584V220H75.0583V212.256H76.0983L76.1943 213.776H76.0823C76.1889 213.275 76.4503 212.869 76.8663 212.56C77.2823 212.24 77.7889 212.08 78.3863 212.08C78.5036 212.08 78.6209 212.085 78.7383 212.096C78.8556 212.107 78.9783 212.128 79.1063 212.16ZM82.4854 220.192C81.664 220.192 81.0187 219.979 80.5494 219.552C80.0907 219.125 79.8614 218.576 79.8614 217.904C79.8614 217.189 80.1174 216.619 80.6294 216.192C81.1414 215.765 81.8507 215.515 82.7574 215.44L85.3174 215.232V214.976C85.3174 214.464 85.2267 214.064 85.0454 213.776C84.864 213.477 84.6187 213.269 84.3094 213.152C84 213.035 83.6534 212.976 83.2694 212.976C82.5867 212.976 82.0587 213.12 81.6854 213.408C81.312 213.696 81.1254 214.101 81.1254 214.624H80.1174C80.1174 214.101 80.2507 213.648 80.5174 213.264C80.784 212.88 81.1574 212.581 81.6374 212.368C82.1174 212.155 82.672 212.048 83.3014 212.048C83.9094 212.048 84.4427 212.155 84.9014 212.368C85.36 212.571 85.7227 212.891 85.9894 213.328C86.2667 213.755 86.4054 214.309 86.4054 214.992V220H85.4774L85.3334 218.64C85.0987 219.131 84.7254 219.515 84.2134 219.792C83.712 220.059 83.136 220.192 82.4854 220.192ZM82.7414 219.296C83.5627 219.296 84.1974 219.035 84.6454 218.512C85.0934 217.989 85.3174 217.312 85.3174 216.48V216.064L83.0294 216.24C82.304 216.304 81.7814 216.485 81.4614 216.784C81.1414 217.083 80.9814 217.445 80.9814 217.872C80.9814 218.341 81.1414 218.699 81.4614 218.944C81.7814 219.179 82.208 219.296 82.7414 219.296ZM88.0768 216.144C88.0768 215.333 88.2314 214.624 88.5408 214.016C88.8608 213.397 89.2981 212.917 89.8528 212.576C90.4181 212.224 91.0741 212.048 91.8208 212.048C92.7168 212.048 93.4688 212.288 94.0768 212.768C94.6954 213.248 95.0794 213.888 95.2288 214.688H94.1248C93.9754 214.155 93.6928 213.744 93.2768 213.456C92.8608 213.168 92.3808 213.024 91.8368 213.024C91.3248 213.024 90.8661 213.152 90.4608 213.408C90.0554 213.664 89.7354 214.027 89.5008 214.496C89.2768 214.955 89.1648 215.499 89.1648 216.128C89.1648 216.747 89.2714 217.285 89.4848 217.744C89.6981 218.203 89.9968 218.56 90.3808 218.816C90.7754 219.072 91.2341 219.2 91.7568 219.2C92.3434 219.2 92.8501 219.056 93.2768 218.768C93.7034 218.469 93.9914 218.069 94.1408 217.568H95.2608C95.1434 218.091 94.9194 218.549 94.5888 218.944C94.2581 219.339 93.8474 219.648 93.3568 219.872C92.8768 220.085 92.3434 220.192 91.7568 220.192C91.0208 220.192 90.3754 220.027 89.8207 219.696C89.2768 219.355 88.8501 218.88 88.5408 218.272C88.2314 217.664 88.0768 216.955 88.0768 216.144ZM98.0853 220H96.9813V208.336H98.0853V216.256L101.925 212.256H103.317L100.341 215.344L103.333 220H102.053L99.5893 216.128L98.0853 217.68V220ZM104.652 220V212.256H105.756V220H104.652ZM105.196 210.128C104.972 210.128 104.78 210.048 104.62 209.888C104.46 209.728 104.38 209.536 104.38 209.312C104.38 209.088 104.46 208.896 104.62 208.736C104.78 208.565 104.972 208.48 105.196 208.48C105.42 208.48 105.612 208.565 105.772 208.736C105.943 208.896 106.028 209.088 106.028 209.312C106.028 209.536 105.943 209.728 105.772 209.888C105.612 210.048 105.42 210.128 105.196 210.128ZM109.162 220H108.058V212.256H109.018L109.178 213.6C109.434 213.109 109.797 212.731 110.266 212.464C110.746 212.187 111.269 212.048 111.834 212.048C112.901 212.048 113.669 212.341 114.138 212.928C114.608 213.515 114.842 214.293 114.842 215.264V220H113.738V215.504C113.738 214.597 113.546 213.963 113.162 213.6C112.789 213.237 112.282 213.056 111.642 213.056C110.853 213.056 110.24 213.323 109.802 213.856C109.376 214.379 109.162 215.077 109.162 215.952V220ZM116.515 215.904C116.515 215.2 116.659 214.56 116.947 213.984C117.235 213.397 117.651 212.928 118.195 212.576C118.739 212.224 119.389 212.048 120.147 212.048C120.883 212.048 121.512 212.229 122.035 212.592C122.557 212.955 122.931 213.477 123.155 214.16L122.979 214.384L123.123 212.256H124.083V219.76C124.083 220.528 123.928 221.195 123.619 221.76C123.309 222.336 122.872 222.779 122.307 223.088C121.752 223.408 121.096 223.568 120.339 223.568C119.347 223.568 118.525 223.301 117.875 222.768C117.224 222.235 116.819 221.504 116.659 220.576H117.763C117.88 221.205 118.163 221.691 118.611 222.032C119.069 222.384 119.651 222.56 120.355 222.56C121.155 222.56 121.795 222.315 122.275 221.824C122.755 221.333 122.995 220.683 122.995 219.872V217.44L123.155 217.648C122.931 218.299 122.541 218.816 121.987 219.2C121.443 219.573 120.803 219.76 120.067 219.76C119.331 219.76 118.696 219.584 118.163 219.232C117.629 218.88 117.219 218.416 116.931 217.84C116.653 217.253 116.515 216.608 116.515 215.904ZM117.619 215.888C117.619 216.421 117.72 216.907 117.923 217.344C118.136 217.781 118.435 218.128 118.819 218.384C119.213 218.64 119.683 218.768 120.227 218.768C120.781 218.768 121.256 218.645 121.651 218.4C122.056 218.144 122.365 217.803 122.579 217.376C122.792 216.939 122.899 216.443 122.899 215.888C122.899 215.333 122.792 214.843 122.579 214.416C122.376 213.989 122.077 213.653 121.683 213.408C121.299 213.152 120.819 213.024 120.243 213.024C119.688 213.024 119.213 213.157 118.819 213.424C118.435 213.68 118.136 214.027 117.923 214.464C117.72 214.891 117.619 215.365 117.619 215.888Z" fill="white"/>
<g filter="url(#filter1_d_89_1080)">
<rect x="13.2822" y="14" width="182.315" height="137.26" rx="7.14959" transform="rotate(13.8176 13.2822 14)" fill="white"/>
</g>
<path d="M35.3461 145.311L35.4225 145L36.9032 144.01C37.0769 143.894 37.2216 143.792 37.3374 143.703C37.4534 143.613 37.5448 143.525 37.6114 143.437C37.6794 143.349 37.7268 143.251 37.7534 143.143C37.7839 143.018 37.7805 142.904 37.743 142.798C37.7067 142.693 37.6434 142.603 37.5532 142.528C37.4629 142.453 37.354 142.4 37.2263 142.369C37.0905 142.335 36.9651 142.335 36.8499 142.366C36.7363 142.397 36.6395 142.455 36.5597 142.542C36.481 142.628 36.4251 142.739 36.392 142.874L35.9847 142.774C36.0356 142.567 36.1281 142.396 36.262 142.264C36.396 142.131 36.556 142.041 36.7421 141.994C36.9292 141.947 37.1258 141.949 37.3318 142C37.5389 142.05 37.7116 142.139 37.85 142.266C37.9884 142.393 38.0849 142.542 38.1392 142.712C38.1936 142.883 38.1985 143.059 38.1538 143.241C38.1218 143.371 38.0669 143.493 37.9892 143.605C37.9129 143.717 37.7985 143.835 37.6461 143.958C37.4952 144.081 37.2917 144.226 37.0357 144.394L36.033 145.048L36.0262 145.075L37.6692 145.479L37.5758 145.859L35.3461 145.311ZM39.4295 146.366C39.1695 146.302 38.9654 146.177 38.8173 145.991C38.6694 145.803 38.5804 145.562 38.5503 145.268C38.5204 144.972 38.5528 144.633 38.6473 144.248C38.7412 143.866 38.8698 143.552 39.0329 143.306C39.1975 143.058 39.3888 142.886 39.6068 142.788C39.8263 142.689 40.0649 142.672 40.3226 142.735C40.5803 142.798 40.7829 142.925 40.9305 143.113C41.0795 143.301 41.1689 143.543 41.1988 143.838C41.2301 144.133 41.1988 144.471 41.1048 144.853C41.0103 145.237 40.8813 145.553 40.7179 145.801C40.5548 146.048 40.3642 146.22 40.1462 146.317C39.9284 146.414 39.6895 146.43 39.4295 146.366ZM39.5229 145.987C39.7806 146.05 40.0114 145.975 40.2152 145.761C40.419 145.548 40.5774 145.211 40.6906 144.751C40.7659 144.445 40.7972 144.176 40.7845 143.945C40.773 143.714 40.7202 143.527 40.6259 143.384C40.5329 143.242 40.4012 143.15 40.2309 143.108C39.9755 143.045 39.7449 143.122 39.5391 143.339C39.3336 143.554 39.1744 143.891 39.0615 144.35C38.9862 144.656 38.9545 144.924 38.9663 145.154C38.9781 145.384 39.0306 145.57 39.124 145.711C39.2185 145.852 39.3515 145.944 39.5229 145.987ZM43.4379 143.553L42.5686 147.087L42.1406 146.982L42.8995 143.896L42.8788 143.891L41.875 144.252L41.9819 143.817L43.0099 143.447L43.4379 143.553ZM44.7053 147.664C44.4683 147.605 44.2692 147.512 44.1081 147.383C43.9484 147.254 43.8362 147.102 43.7715 146.929C43.707 146.754 43.6988 146.572 43.7469 146.381C43.7826 146.231 43.8459 146.1 43.9368 145.989C44.0281 145.876 44.1359 145.789 44.2604 145.73C44.3863 145.669 44.5166 145.643 44.6511 145.652L44.6562 145.631C44.4978 145.546 44.3865 145.418 44.3224 145.247C44.2585 145.075 44.2502 144.896 44.2975 144.708C44.3405 144.529 44.4254 144.379 44.5522 144.26C44.6791 144.142 44.8331 144.061 45.0143 144.019C45.1966 143.977 45.3913 143.982 45.5984 144.033C45.8032 144.083 45.9761 144.169 46.1171 144.29C46.258 144.411 46.3572 144.554 46.4144 144.718C46.4728 144.883 46.4805 145.055 46.4375 145.235C46.3902 145.422 46.2978 145.577 46.1604 145.699C46.0243 145.821 45.8681 145.883 45.6917 145.886L45.6866 145.907C45.8086 145.961 45.9102 146.044 45.9914 146.155C46.0729 146.266 46.1284 146.392 46.158 146.535C46.1878 146.676 46.1849 146.822 46.1493 146.972C46.1012 147.163 46.0075 147.32 45.8683 147.445C45.7306 147.568 45.5609 147.65 45.3593 147.691C45.1592 147.731 44.9412 147.722 44.7053 147.664ZM44.7987 147.284C44.9586 147.323 45.1031 147.332 45.232 147.308C45.3609 147.285 45.4686 147.234 45.5551 147.155C45.6416 147.077 45.701 146.974 45.7333 146.848C45.7649 146.714 45.7594 146.588 45.7167 146.469C45.674 146.349 45.6012 146.246 45.4983 146.159C45.3965 146.071 45.2709 146.009 45.1213 145.972C44.9706 145.935 44.8287 145.932 44.6958 145.961C44.564 145.991 44.4516 146.049 44.3585 146.134C44.2666 146.22 44.2048 146.33 44.1731 146.464C44.1409 146.59 44.1442 146.708 44.1831 146.818C44.2232 146.928 44.2955 147.023 44.4002 147.104C44.5048 147.184 44.6376 147.244 44.7987 147.284ZM45.2113 145.607C45.3378 145.638 45.4562 145.64 45.5665 145.613C45.6779 145.587 45.773 145.536 45.8517 145.458C45.9304 145.381 45.9854 145.282 46.0165 145.16C46.0448 145.04 46.0422 144.929 46.0088 144.827C45.9756 144.724 45.9161 144.636 45.8302 144.564C45.7445 144.49 45.6367 144.437 45.5067 144.405C45.3744 144.373 45.2527 144.369 45.1416 144.394C45.0307 144.418 44.9372 144.469 44.8611 144.545C44.7852 144.62 44.7332 144.718 44.7049 144.838C44.6737 144.96 44.6746 145.073 44.7075 145.177C44.7415 145.282 44.8017 145.372 44.8882 145.447C44.9747 145.522 45.0824 145.575 45.2113 145.607Z" fill="#615E83"/>
<path d="M9.70789 139.005L9.7843 138.694L11.265 137.704C11.4387 137.588 11.5835 137.486 11.6992 137.397C11.8153 137.307 11.9066 137.219 11.9732 137.132C12.0413 137.043 12.0886 136.945 12.1152 136.837C12.1458 136.713 12.1423 136.598 12.1048 136.492C12.0685 136.387 12.0052 136.297 11.915 136.222C11.8248 136.148 11.7158 136.095 11.5881 136.063C11.4523 136.03 11.3269 136.029 11.2118 136.06C11.0981 136.091 11.0013 136.15 10.9215 136.236C10.8428 136.323 10.7869 136.434 10.7538 136.568L10.3465 136.468C10.3974 136.261 10.4899 136.091 10.6239 135.958C10.7579 135.825 10.9179 135.735 11.1039 135.688C11.2911 135.641 11.4877 135.643 11.6936 135.694C11.9007 135.745 12.0735 135.834 12.2119 135.96C12.3503 136.087 12.4467 136.236 12.5011 136.407C12.5555 136.577 12.5603 136.754 12.5156 136.936C12.4836 137.066 12.4288 137.187 12.351 137.3C12.2747 137.411 12.1604 137.529 12.008 137.653C11.857 137.775 11.6535 137.92 11.3976 138.088L10.3948 138.742L10.3881 138.77L12.031 139.174L11.9376 139.553L9.70789 139.005ZM13.7914 140.061C13.5313 139.997 13.3273 139.871 13.1791 139.685C13.0313 139.497 12.9423 139.256 12.9121 138.962C12.8823 138.667 12.9146 138.327 13.0091 137.943C13.1031 137.561 13.2316 137.246 13.3948 137C13.5593 136.752 13.7506 136.58 13.9687 136.482C14.1881 136.384 14.4267 136.366 14.6844 136.429C14.9421 136.493 15.1448 136.619 15.2924 136.808C15.4414 136.996 15.5308 137.237 15.5606 137.533C15.5919 137.827 15.5606 138.165 15.4667 138.547C15.3722 138.931 15.2432 139.247 15.0798 139.495C14.9166 139.742 14.726 139.914 14.508 140.012C14.2903 140.108 14.0514 140.124 13.7914 140.061ZM13.8847 139.681C14.1425 139.744 14.3732 139.669 14.577 139.456C14.7808 139.242 14.9393 138.906 15.0525 138.445C15.1277 138.139 15.1591 137.871 15.1464 137.639C15.1349 137.408 15.082 137.221 14.9878 137.079C14.8947 136.936 14.763 136.844 14.5927 136.802C14.3373 136.739 14.1067 136.816 13.9009 137.033C13.6954 137.248 13.5362 137.586 13.4233 138.045C13.348 138.351 13.3163 138.619 13.3281 138.848C13.3399 139.078 13.3925 139.264 13.4858 139.405C13.5803 139.547 13.7133 139.639 13.8847 139.681ZM17.7997 137.247L16.9304 140.781L16.5024 140.676L17.2614 137.59L17.2406 137.585L16.2368 137.946L16.3438 137.511L17.3717 137.142L17.7997 137.247ZM18.0574 141.059L20.4073 138.32L20.4141 138.293L18.5917 137.844L18.6851 137.465L20.9493 138.022L20.8508 138.422L18.5061 141.169L18.0574 141.059Z" fill="#615E83"/>
<path d="M61.1728 151.663L61.2492 151.352L62.7299 150.362C62.9036 150.246 63.0484 150.144 63.1641 150.055C63.2802 149.965 63.3715 149.877 63.4381 149.789C63.5062 149.701 63.5535 149.603 63.5801 149.495C63.6107 149.371 63.6072 149.256 63.5697 149.15C63.5334 149.045 63.4701 148.955 63.3799 148.88C63.2897 148.805 63.1807 148.752 63.053 148.721C62.9172 148.688 62.7918 148.687 62.6767 148.718C62.563 148.749 62.4662 148.807 62.3864 148.894C62.3077 148.981 62.2518 149.091 62.2187 149.226L61.8114 149.126C61.8623 148.919 61.9548 148.749 62.0888 148.616C62.2227 148.483 62.3827 148.393 62.5688 148.346C62.756 148.299 62.9525 148.301 63.1585 148.352C63.3656 148.403 63.5383 148.491 63.6768 148.618C63.8152 148.745 63.9116 148.894 63.966 149.065C64.0204 149.235 64.0252 149.412 63.9805 149.593C63.9485 149.723 63.8936 149.845 63.8159 149.957C63.7396 150.069 63.6253 150.187 63.4729 150.31C63.3219 150.433 63.1184 150.578 62.8624 150.746L61.8597 151.4L61.8529 151.427L63.4959 151.832L63.4025 152.211L61.1728 151.663ZM65.2562 152.718C64.9962 152.654 64.7921 152.529 64.644 152.343C64.4962 152.155 64.4072 151.914 64.377 151.62C64.3472 151.325 64.3795 150.985 64.474 150.601C64.5679 150.219 64.6965 149.904 64.8596 149.658C65.0242 149.41 65.2155 149.238 65.4335 149.14C65.653 149.041 65.8916 149.024 66.1493 149.087C66.407 149.151 66.6097 149.277 66.7572 149.466C66.9062 149.654 66.9957 149.895 67.0255 150.19C67.0568 150.485 67.0255 150.823 66.9315 151.205C66.837 151.589 66.7081 151.905 66.5446 152.153C66.3815 152.4 66.1909 152.572 65.9729 152.67C65.7551 152.766 65.5163 152.782 65.2562 152.718ZM65.3496 152.339C65.6073 152.402 65.8381 152.327 66.0419 152.114C66.2457 151.9 66.4042 151.563 66.5174 151.103C66.5926 150.797 66.6239 150.528 66.6113 150.297C66.5998 150.066 66.5469 149.879 66.4527 149.737C66.3596 149.594 66.2279 149.502 66.0576 149.46C65.8022 149.397 65.5716 149.474 65.3658 149.691C65.1603 149.906 65.0011 150.243 64.8882 150.702C64.8129 151.009 64.7812 151.276 64.793 151.506C64.8048 151.736 64.8574 151.922 64.9507 152.063C65.0452 152.205 65.1782 152.297 65.3496 152.339ZM69.2646 149.905L68.3953 153.439L67.9673 153.334L68.7262 150.248L68.7055 150.243L67.7017 150.604L67.8087 150.169L68.8366 149.799L69.2646 149.905ZM71.4182 150.383C71.5629 150.42 71.7011 150.483 71.8327 150.573C71.9644 150.663 72.0746 150.785 72.1635 150.94C72.2526 151.093 72.3069 151.287 72.3265 151.52C72.346 151.753 72.3159 152.032 72.2361 152.356C72.1589 152.67 72.0603 152.942 71.9405 153.171C71.8221 153.399 71.6866 153.583 71.534 153.722C71.3825 153.862 71.2167 153.956 71.0367 154.003C70.8579 154.05 70.669 154.05 70.4699 154.001C70.272 153.952 70.105 153.869 69.9689 153.753C69.8343 153.636 69.7348 153.495 69.6703 153.33C69.6074 153.164 69.585 152.985 69.6032 152.792L70.0243 152.895C70.0224 153.067 70.0648 153.22 70.1515 153.353C70.2396 153.486 70.3769 153.575 70.5633 153.621C70.836 153.688 71.0804 153.622 71.2966 153.423C71.514 153.223 71.6761 152.906 71.7831 152.471L71.7555 152.465C71.6673 152.545 71.5702 152.61 71.4644 152.658C71.3585 152.707 71.2469 152.737 71.1294 152.748C71.0119 152.759 70.8922 152.75 70.7702 152.72C70.5677 152.67 70.3942 152.575 70.2497 152.433C70.1066 152.29 70.0061 152.119 69.9482 151.918C69.8916 151.716 69.8914 151.501 69.9474 151.273C70.0006 151.057 70.0976 150.871 70.2384 150.715C70.3806 150.559 70.5529 150.449 70.7553 150.385C70.9588 150.321 71.1797 150.321 71.4182 150.383ZM71.3248 150.763C71.1799 150.727 71.0404 150.731 70.9063 150.775C70.7737 150.818 70.6585 150.892 70.5606 150.998C70.4642 151.102 70.3978 151.228 70.3616 151.375C70.3254 151.522 70.3246 151.664 70.3594 151.801C70.3955 151.937 70.4612 152.054 70.5564 152.153C70.653 152.252 70.7738 152.318 70.9188 152.354C71.0281 152.381 71.1352 152.385 71.24 152.365C71.3451 152.345 71.4419 152.306 71.5305 152.248C71.6205 152.19 71.6974 152.118 71.7611 152.032C71.8252 151.946 71.8701 151.85 71.8958 151.745C71.9298 151.607 71.9283 151.469 71.8912 151.332C71.8554 151.195 71.7885 151.075 71.6907 150.972C71.5941 150.869 71.4721 150.799 71.3248 150.763Z" fill="#615E83"/>
<path d="M86.7139 157.945L86.7903 157.634L88.271 156.644C88.4447 156.528 88.5895 156.426 88.7052 156.337C88.8213 156.247 88.9126 156.159 88.9792 156.071C89.0473 155.983 89.0946 155.885 89.1212 155.777C89.1518 155.653 89.1483 155.538 89.1108 155.432C89.0745 155.327 89.0112 155.237 88.921 155.162C88.8308 155.087 88.7218 155.034 88.5941 155.003C88.4583 154.97 88.3329 154.969 88.2178 155C88.1041 155.031 88.0073 155.089 87.9275 155.176C87.8488 155.263 87.7929 155.373 87.7598 155.508L87.3525 155.408C87.4034 155.201 87.4959 155.031 87.6299 154.898C87.7638 154.765 87.9239 154.675 88.1099 154.628C88.2971 154.581 88.4936 154.583 88.6996 154.634C88.9067 154.684 89.0794 154.773 89.2179 154.9C89.3563 155.027 89.4527 155.176 89.5071 155.346C89.5615 155.517 89.5663 155.693 89.5216 155.875C89.4896 156.005 89.4348 156.127 89.357 156.239C89.2807 156.351 89.1664 156.469 89.014 156.592C88.863 156.715 88.6595 156.86 88.4035 157.028L87.4008 157.682L87.394 157.709L89.037 158.113L88.9436 158.493L86.7139 157.945ZM90.7973 159C90.5373 158.936 90.3332 158.811 90.1851 158.625C90.0373 158.437 89.9483 158.196 89.9181 157.902C89.8883 157.607 89.9206 157.267 90.0151 156.882C90.109 156.5 90.2376 156.186 90.4007 155.94C90.5653 155.692 90.7566 155.52 90.9746 155.422C91.1941 155.323 91.4327 155.306 91.6904 155.369C91.9481 155.433 92.1508 155.559 92.2983 155.747C92.4473 155.935 92.5368 156.177 92.5666 156.472C92.5979 156.767 92.5666 157.105 92.4727 157.487C92.3781 157.871 92.2492 158.187 92.0857 158.435C91.9226 158.682 91.732 158.854 91.514 158.951C91.2962 159.048 91.0574 159.064 90.7973 159ZM90.8907 158.621C91.1484 158.684 91.3792 158.609 91.583 158.395C91.7868 158.182 91.9453 157.845 92.0585 157.385C92.1337 157.079 92.165 156.81 92.1524 156.579C92.1409 156.348 92.088 156.161 91.9938 156.018C91.9007 155.876 91.769 155.784 91.5987 155.742C91.3433 155.679 91.1127 155.756 90.9069 155.973C90.7014 156.188 90.5422 156.525 90.4293 156.984C90.354 157.29 90.3223 157.558 90.3341 157.788C90.3459 158.018 90.3985 158.204 90.4918 158.345C90.5863 158.487 90.7193 158.578 90.8907 158.621ZM92.6938 159.415L92.7702 159.105L94.251 158.115C94.4247 157.999 94.5694 157.896 94.6852 157.808C94.8012 157.718 94.8925 157.629 94.9591 157.542C95.0272 157.454 95.0745 157.356 95.1011 157.248C95.1317 157.123 95.1282 157.008 95.0908 156.903C95.0544 156.797 94.9912 156.707 94.9009 156.633C94.8107 156.558 94.7017 156.505 94.574 156.474C94.4383 156.44 94.3128 156.439 94.1977 156.471C94.084 156.501 93.9873 156.56 93.9074 156.646C93.8287 156.733 93.7728 156.844 93.7397 156.979L93.3324 156.878C93.3834 156.671 93.4758 156.501 93.6098 156.368C93.7438 156.235 93.9038 156.145 94.0898 156.098C94.277 156.052 94.4736 156.054 94.6795 156.104C94.8866 156.155 95.0594 156.244 95.1978 156.371C95.3362 156.498 95.4326 156.646 95.487 156.817C95.5414 156.988 95.5462 157.164 95.5015 157.346C95.4695 157.476 95.4147 157.597 95.337 157.71C95.2607 157.822 95.1463 157.939 94.9939 158.063C94.8429 158.186 94.6394 158.331 94.3835 158.499L93.3808 159.152L93.374 159.18L95.0169 159.584L94.9236 159.964L92.6938 159.415ZM96.7773 160.471C96.5173 160.407 96.3132 160.282 96.165 160.095C96.0172 159.908 95.9282 159.667 95.8981 159.373C95.8682 159.077 95.9005 158.738 95.995 158.353C96.089 157.971 96.2175 157.657 96.3807 157.41C96.5453 157.163 96.7366 156.99 96.9546 156.893C97.174 156.794 97.4126 156.777 97.6703 156.84C97.9281 156.903 98.1307 157.029 98.2783 157.218C98.4273 157.406 98.5167 157.648 98.5466 157.943C98.5779 158.237 98.5465 158.576 98.4526 158.958C98.3581 159.342 98.2291 159.658 98.0657 159.906C97.9025 160.152 97.7119 160.324 97.4939 160.422C97.2762 160.519 97.0373 160.535 96.7773 160.471ZM96.8707 160.091C97.1284 160.155 97.3591 160.08 97.5629 159.866C97.7667 159.653 97.9252 159.316 98.0384 158.856C98.1137 158.55 98.145 158.281 98.1323 158.05C98.1208 157.819 98.0679 157.632 97.9737 157.489C97.8806 157.347 97.7489 157.255 97.5787 157.213C97.3232 157.15 97.0926 157.227 96.8868 157.443C96.6813 157.659 96.5221 157.996 96.4092 158.455C96.334 158.761 96.3022 159.029 96.314 159.259C96.3258 159.489 96.3784 159.674 96.4717 159.816C96.5663 159.957 96.6992 160.049 96.8707 160.091Z" fill="#615E83"/>
<path d="M112.613 164.315L112.69 164.004L114.17 163.014C114.344 162.898 114.489 162.796 114.605 162.707C114.721 162.617 114.812 162.529 114.879 162.441C114.947 162.353 114.994 162.255 115.021 162.147C115.051 162.023 115.048 161.908 115.01 161.802C114.974 161.697 114.911 161.607 114.82 161.532C114.73 161.457 114.621 161.404 114.493 161.373C114.358 161.34 114.232 161.339 114.117 161.37C114.003 161.401 113.907 161.459 113.827 161.546C113.748 161.633 113.692 161.743 113.659 161.878L113.252 161.778C113.303 161.571 113.395 161.401 113.529 161.268C113.663 161.135 113.823 161.045 114.009 160.998C114.196 160.951 114.393 160.953 114.599 161.004C114.806 161.054 114.979 161.143 115.117 161.27C115.256 161.397 115.352 161.546 115.406 161.716C115.461 161.887 115.466 162.063 115.421 162.245C115.389 162.375 115.334 162.497 115.256 162.609C115.18 162.721 115.066 162.839 114.913 162.962C114.762 163.085 114.559 163.23 114.303 163.398L113.3 164.052L113.293 164.079L114.936 164.483L114.843 164.863L112.613 164.315ZM116.697 165.37C116.437 165.306 116.233 165.181 116.085 164.995C115.937 164.807 115.848 164.566 115.818 164.272C115.788 163.977 115.82 163.637 115.914 163.252C116.008 162.87 116.137 162.556 116.3 162.31C116.465 162.062 116.656 161.89 116.874 161.792C117.093 161.693 117.332 161.676 117.59 161.739C117.848 161.803 118.05 161.929 118.198 162.117C118.347 162.305 118.436 162.547 118.466 162.842C118.497 163.137 118.466 163.475 118.372 163.857C118.278 164.241 118.149 164.557 117.985 164.805C117.822 165.052 117.631 165.224 117.413 165.321C117.196 165.418 116.957 165.434 116.697 165.37ZM116.79 164.991C117.048 165.054 117.279 164.979 117.482 164.765C117.686 164.552 117.845 164.215 117.958 163.755C118.033 163.449 118.064 163.18 118.052 162.949C118.04 162.718 117.987 162.531 117.893 162.388C117.8 162.246 117.668 162.154 117.498 162.112C117.243 162.049 117.012 162.126 116.806 162.343C116.601 162.558 116.442 162.895 116.329 163.354C116.253 163.66 116.222 163.928 116.233 164.158C116.245 164.388 116.298 164.574 116.391 164.715C116.486 164.857 116.619 164.948 116.79 164.991ZM118.593 165.785L118.67 165.475L120.15 164.485C120.324 164.369 120.469 164.266 120.585 164.178C120.701 164.088 120.792 163.999 120.859 163.912C120.927 163.824 120.974 163.726 121.001 163.618C121.031 163.493 121.028 163.378 120.99 163.273C120.954 163.167 120.891 163.077 120.8 163.003C120.71 162.928 120.601 162.875 120.473 162.844C120.338 162.81 120.212 162.809 120.097 162.841C119.983 162.871 119.887 162.93 119.807 163.016C119.728 163.103 119.672 163.214 119.639 163.349L119.232 163.248C119.283 163.041 119.375 162.871 119.509 162.738C119.643 162.605 119.803 162.515 119.989 162.468C120.176 162.422 120.373 162.424 120.579 162.474C120.786 162.525 120.959 162.614 121.097 162.741C121.236 162.868 121.332 163.016 121.386 163.187C121.441 163.358 121.446 163.534 121.401 163.716C121.369 163.846 121.314 163.967 121.236 164.08C121.16 164.192 121.046 164.31 120.893 164.433C120.742 164.556 120.539 164.701 120.283 164.869L119.28 165.522L119.273 165.55L120.916 165.954L120.823 166.334L118.593 165.785ZM123.648 163.28L122.778 166.815L122.35 166.709L123.109 163.624L123.089 163.619L122.085 163.979L122.192 163.544L123.22 163.175L123.648 163.28Z" fill="#615E83"/>
<path d="M138.128 170.59L138.205 170.28L139.685 169.289C139.859 169.174 140.004 169.071 140.12 168.983C140.236 168.893 140.327 168.804 140.394 168.717C140.462 168.629 140.509 168.531 140.536 168.422C140.566 168.298 140.563 168.183 140.525 168.078C140.489 167.972 140.426 167.882 140.335 167.808C140.245 167.733 140.136 167.68 140.008 167.648C139.873 167.615 139.747 167.614 139.632 167.646C139.518 167.676 139.422 167.735 139.342 167.821C139.263 167.908 139.207 168.019 139.174 168.153L138.767 168.053C138.818 167.846 138.91 167.676 139.044 167.543C139.178 167.41 139.338 167.32 139.524 167.273C139.711 167.226 139.908 167.228 140.114 167.279C140.321 167.33 140.494 167.419 140.632 167.546C140.771 167.672 140.867 167.821 140.921 167.992C140.976 168.163 140.981 168.339 140.936 168.521C140.904 168.651 140.849 168.772 140.771 168.885C140.695 168.997 140.581 169.114 140.428 169.238C140.277 169.361 140.074 169.506 139.818 169.673L138.815 170.327L138.808 170.355L140.451 170.759L140.358 171.139L138.128 170.59ZM142.212 171.646C141.952 171.582 141.748 171.457 141.599 171.27C141.452 171.082 141.363 170.842 141.332 170.547C141.303 170.252 141.335 169.912 141.429 169.528C141.523 169.146 141.652 168.832 141.815 168.585C141.98 168.338 142.171 168.165 142.389 168.067C142.608 167.969 142.847 167.951 143.105 168.015C143.363 168.078 143.565 168.204 143.713 168.393C143.862 168.581 143.951 168.823 143.981 169.118C144.012 169.412 143.981 169.75 143.887 170.132C143.793 170.517 143.664 170.833 143.5 171.081C143.337 171.327 143.146 171.499 142.928 171.597C142.711 171.693 142.472 171.71 142.212 171.646ZM142.305 171.266C142.563 171.33 142.794 171.255 142.997 171.041C143.201 170.828 143.36 170.491 143.473 170.031C143.548 169.725 143.579 169.456 143.567 169.225C143.555 168.994 143.502 168.807 143.408 168.664C143.315 168.522 143.183 168.429 143.013 168.387C142.758 168.325 142.527 168.402 142.321 168.618C142.116 168.834 141.957 169.171 141.844 169.63C141.768 169.936 141.737 170.204 141.748 170.434C141.76 170.664 141.813 170.849 141.906 170.99C142.001 171.132 142.134 171.224 142.305 171.266ZM144.108 172.061L144.185 171.75L145.665 170.76C145.839 170.644 145.984 170.542 146.1 170.453C146.216 170.364 146.307 170.275 146.374 170.188C146.442 170.099 146.489 170.001 146.516 169.893C146.546 169.769 146.543 169.654 146.505 169.548C146.469 169.443 146.406 169.353 146.315 169.278C146.225 169.204 146.116 169.151 145.988 169.119C145.853 169.086 145.727 169.085 145.612 169.116C145.498 169.147 145.402 169.206 145.322 169.292C145.243 169.379 145.187 169.49 145.154 169.624L144.747 169.524C144.798 169.317 144.89 169.147 145.024 169.014C145.158 168.881 145.318 168.791 145.504 168.744C145.691 168.697 145.888 168.699 146.094 168.75C146.301 168.801 146.474 168.89 146.612 169.016C146.751 169.143 146.847 169.292 146.901 169.463C146.956 169.634 146.961 169.81 146.916 169.992C146.884 170.122 146.829 170.243 146.751 170.356C146.675 170.467 146.561 170.585 146.408 170.709C146.257 170.831 146.054 170.977 145.798 171.144L144.795 171.798L144.788 171.826L146.431 172.23L146.338 172.609L144.108 172.061ZM147.051 172.785L147.127 172.474L148.608 171.484C148.782 171.368 148.926 171.266 149.042 171.177C149.158 171.087 149.249 170.999 149.316 170.911C149.384 170.823 149.431 170.725 149.458 170.617C149.489 170.493 149.485 170.378 149.448 170.272C149.411 170.167 149.348 170.077 149.258 170.002C149.168 169.927 149.059 169.874 148.931 169.843C148.795 169.81 148.67 169.809 148.555 169.84C148.441 169.871 148.344 169.929 148.264 170.016C148.186 170.103 148.13 170.213 148.097 170.348L147.689 170.248C147.74 170.041 147.833 169.871 147.967 169.738C148.101 169.605 148.261 169.515 148.447 169.468C148.634 169.421 148.83 169.423 149.036 169.474C149.243 169.525 149.416 169.613 149.555 169.74C149.693 169.867 149.789 170.016 149.844 170.186C149.898 170.357 149.903 170.534 149.858 170.715C149.826 170.845 149.772 170.967 149.694 171.079C149.618 171.191 149.503 171.309 149.351 171.432C149.2 171.555 148.996 171.7 148.74 171.868L147.738 172.522L147.731 172.549L149.374 172.953L149.28 173.333L147.051 172.785Z" fill="#615E83"/>
<path d="M6.02593 105.383L5.15663 108.917L4.72863 108.812L5.48757 105.726L5.46686 105.721L4.46304 106.082L4.57 105.647L5.59793 105.278L6.02593 105.383ZM7.10457 105.648L7.61541 105.774L8.09498 109.003L8.1364 109.013L10.0592 106.375L10.57 106.5L9.70069 110.035L9.30031 109.936L9.96077 107.251L9.92625 107.243L8.16127 109.656L7.77469 109.561L7.33063 106.604L7.29612 106.596L6.63565 109.281L6.23527 109.183L7.10457 105.648Z" fill="#615E83"/>
<path d="M8.04886 90.0464L8.12526 89.7357L9.60601 88.7456C9.77971 88.6297 9.92444 88.5274 10.0402 88.4387C10.1562 88.3489 10.2476 88.2604 10.3142 88.173C10.3823 88.0848 10.4296 87.9867 10.4562 87.8785C10.4867 87.7543 10.4833 87.6393 10.4458 87.5337C10.4095 87.4284 10.3462 87.3384 10.256 87.2637C10.1658 87.1891 10.0568 87.1361 9.92907 87.1046C9.79331 87.0713 9.66787 87.0703 9.55276 87.1018C9.43908 87.1324 9.34231 87.1909 9.26247 87.2775C9.18377 87.3642 9.12787 87.475 9.09477 87.6096L8.68747 87.5094C8.73841 87.3023 8.83087 87.1323 8.96485 86.9993C9.09883 86.8663 9.25883 86.7763 9.44487 86.7293C9.63205 86.6826 9.82861 86.6846 10.0346 86.7353C10.2417 86.7862 10.4144 86.8751 10.5528 87.0018C10.6913 87.1286 10.7877 87.2774 10.842 87.4482C10.8964 87.6189 10.9013 87.7952 10.8566 87.977C10.8246 88.107 10.7697 88.2283 10.692 88.341C10.6157 88.4528 10.5013 88.5705 10.3489 88.694C10.198 88.8167 9.99449 88.9619 9.73852 89.1296L8.73581 89.7834L8.72902 89.811L10.372 90.2151L10.2786 90.5948L8.04886 90.0464ZM11.9228 87.2509L12.4336 87.3766L12.9132 90.6059L12.9546 90.6161L14.8774 87.9776L15.3882 88.1032L14.5189 91.6377L14.1185 91.5392L14.779 88.8539L14.7445 88.8454L12.9795 91.2591L12.5929 91.164L12.1489 88.207L12.1143 88.1985L11.4539 90.8839L11.0535 90.7854L11.9228 87.2509Z" fill="#615E83"/>
<path d="M13.1489 72.3089C12.9211 72.2528 12.7277 72.1638 12.5686 72.0417C12.4107 71.9198 12.2965 71.7765 12.226 71.6115C12.157 71.4457 12.1406 71.269 12.177 71.0815L12.6119 71.1885C12.5931 71.3046 12.608 71.4126 12.6567 71.5124C12.7056 71.6111 12.7804 71.6966 12.8809 71.7689C12.9815 71.8412 13.0997 71.8941 13.2354 71.9275C13.3873 71.9648 13.5284 71.9715 13.6588 71.9474C13.7892 71.9234 13.8993 71.8724 13.9892 71.7944C14.0792 71.7165 14.1394 71.6154 14.17 71.4911C14.202 71.3611 14.1979 71.2387 14.1578 71.1239C14.118 71.008 14.0429 70.9065 13.9325 70.8196C13.8221 70.7327 13.6772 70.6671 13.4977 70.623L13.2147 70.5534L13.308 70.1737L13.5911 70.2433C13.7314 70.2778 13.8608 70.2828 13.9791 70.2582C14.0985 70.2339 14.1995 70.1831 14.282 70.1058C14.3656 70.0287 14.4227 69.9281 14.4532 69.8038C14.4826 69.6841 14.4818 69.5735 14.4507 69.4719C14.4195 69.3703 14.3617 69.2829 14.2772 69.2096C14.1939 69.1367 14.0872 69.0842 13.9572 69.0522C13.8353 69.0222 13.7147 69.0164 13.5955 69.0346C13.4778 69.052 13.3746 69.0944 13.2861 69.1617C13.1978 69.2278 13.1364 69.3189 13.1018 69.4348L12.6876 69.3329C12.74 69.1494 12.8357 69.0009 12.9747 68.8874C13.1139 68.7728 13.2777 68.6972 13.4661 68.6605C13.6556 68.6242 13.8522 68.6311 14.0558 68.6811C14.2744 68.7349 14.4511 68.8253 14.5857 68.9524C14.7207 69.0783 14.8125 69.2235 14.8611 69.388C14.9097 69.5525 14.9135 69.7181 14.8725 69.885C14.8236 70.084 14.7295 70.2408 14.5902 70.3554C14.4522 70.4703 14.2873 70.5329 14.0957 70.5431L14.0889 70.5707C14.303 70.6624 14.454 70.8002 14.5418 70.9841C14.6298 71.1668 14.6463 71.3704 14.5911 71.5947C14.5438 71.7868 14.449 71.9466 14.3067 72.0738C14.1658 72.2002 13.9949 72.2851 13.7939 72.3284C13.5929 72.3717 13.3779 72.3652 13.1489 72.3089ZM15.9924 69.2087L16.5032 69.3343L16.9828 72.5636L17.0242 72.5738L18.947 69.9354L19.4578 70.061L18.5885 73.5955L18.1881 73.497L18.8486 70.8116L18.8141 70.8031L17.0491 73.2168L16.6625 73.1218L16.2184 70.1647L16.1839 70.1563L15.5235 72.8416L15.1231 72.7431L15.9924 69.2087Z" fill="#615E83"/>
<line x1="11.8837" y1="128.225" x2="151.909" y2="162.664" stroke="#E5E5EF" stroke-width="0.53622" stroke-linecap="round"/>
<line x1="16.5524" y1="109.24" x2="156.578" y2="143.68" stroke="#E5E5EF" stroke-width="0.53622" stroke-linecap="round" stroke-dasharray="1.43 2.5"/>
<line x1="21.0942" y1="90.7751" x2="161.12" y2="125.214" stroke="#E5E5EF" stroke-width="0.53622" stroke-linecap="round" stroke-dasharray="1.43 2.5"/>
<line x1="25.6354" y1="72.3103" x2="165.661" y2="106.75" stroke="#E5E5EF" stroke-width="0.53622" stroke-linecap="round" stroke-dasharray="1.43 2.5"/>
<path d="M22.3389 84.5929C22.8104 82.6758 24.7468 81.5038 26.664 81.9754L31.4225 83.1457C33.3397 83.6172 34.5116 85.5537 34.0401 87.4708L32.0159 95.7007L20.3147 92.8228L22.3389 84.5929Z" fill="#C893FD"/>
<rect x="20.3145" y="92.823" width="12.0499" height="12.0499" transform="rotate(13.8176 20.3145 92.823)" fill="#E0C6FD"/>
<rect x="17.4365" y="104.524" width="12.0499" height="12.0499" transform="rotate(13.8176 17.4365 104.524)" fill="#F0E5FC"/>
<rect x="14.5583" y="116.225" width="12.0499" height="12.0499" transform="rotate(13.8176 14.5583 116.225)" fill="#F2F1FF"/>
<path d="M45.208 102.627C45.6795 100.71 47.6159 99.5378 49.5331 100.009L54.2916 101.18C56.2088 101.651 57.3807 103.588 56.9092 105.505L54.8851 113.735L43.1839 110.857L45.208 102.627Z" fill="#E0C6FD"/>
<rect x="43.1836" y="110.856" width="12.0499" height="12.0499" transform="rotate(13.8176 43.1836 110.856)" fill="#F0E5FC"/>
<rect x="40.3054" y="122.558" width="12.0499" height="12.0499" transform="rotate(13.8176 40.3054 122.558)" fill="#F2F1FF"/>
<path d="M76.7109 85.5565C77.1824 83.6394 79.1189 82.4675 81.036 82.939L85.7946 84.1093C87.7117 84.5809 88.8837 86.5173 88.4121 88.4345L86.388 96.6643L74.6868 93.7864L76.7109 85.5565Z" fill="#962DFF"/>
<rect x="74.6865" y="93.7864" width="12.0499" height="12.0499" transform="rotate(13.8176 74.6865 93.7864)" fill="#C893FD"/>
<rect x="71.8088" y="105.488" width="12.0499" height="12.0499" transform="rotate(13.8176 71.8088 105.488)" fill="#E0C6FD"/>
<rect x="68.9309" y="117.188" width="12.0499" height="12.0499" transform="rotate(13.8176 68.9309 117.188)" fill="#F0E5FC"/>
<rect x="66.0527" y="128.89" width="12.0499" height="12.0499" transform="rotate(13.8176 66.0527 128.89)" fill="#F2F1FF"/>
<path d="M96.7024 115.292C97.1739 113.374 99.1103 112.203 101.027 112.674L105.786 113.844C107.703 114.316 108.875 116.252 108.404 118.17L106.379 126.399L94.6782 123.522L96.7024 115.292Z" fill="#E0C6FD"/>
<rect x="94.6787" y="123.521" width="12.0499" height="12.0499" transform="rotate(13.8176 94.6787 123.521)" fill="#F0E5FC"/>
<rect x="91.8005" y="135.223" width="12.0499" height="12.0499" transform="rotate(13.8176 91.8005 135.223)" fill="#F2F1FF"/>
<path d="M122.449 121.624C122.921 119.707 124.857 118.535 126.775 119.007L131.533 120.177C133.45 120.648 134.622 122.585 134.151 124.502L132.127 132.732L120.425 129.854L122.449 121.624Z" fill="#E0C6FD"/>
<rect x="120.425" y="129.854" width="12.0499" height="12.0499" transform="rotate(13.8176 120.425 129.854)" fill="#F0E5FC"/>
<rect x="117.547" y="141.555" width="12.0499" height="12.0499" transform="rotate(13.8176 117.547 141.555)" fill="#F2F1FF"/>
<path d="M148.196 127.956C148.668 126.039 150.604 124.867 152.521 125.339L157.28 126.509C159.197 126.981 160.369 128.917 159.897 130.834L157.873 139.064L146.172 136.186L148.196 127.956Z" fill="#E0C6FD"/>
<rect x="146.172" y="136.186" width="12.0499" height="12.0499" transform="rotate(13.8176 146.172 136.186)" fill="#F0E5FC"/>
<rect x="143.294" y="147.888" width="12.0499" height="12.0499" transform="rotate(13.8176 143.294 147.888)" fill="#F2F1FF"/>
<path opacity="0.7" d="M62.6232 96.8481C41.4755 110.871 30.297 97.7508 27.6259 88.3208L17.5405 129.327L146.39 161.017L153.562 131.858C151.769 132.29 146.363 138.504 140.481 130.396C131.217 115.721 118.777 122.102 115.034 124.138C111.291 126.173 99.361 130.868 95.6087 112.78C91.8565 94.6928 87.1483 90.9602 84.405 90.0947C81.6618 89.2293 77.0258 86.7541 62.6232 96.8481Z" fill="url(#paint0_linear_89_1080)"/>
<path d="M27.6259 88.3208C30.297 97.7508 41.4755 110.871 62.6232 96.8481C77.0258 86.7541 81.6618 89.2293 84.405 90.0947C87.1483 90.9602 91.8565 94.6928 95.6087 112.78C99.361 130.868 111.291 126.173 115.034 124.138C118.777 122.102 131.217 115.721 140.481 130.396C146.363 138.504 151.769 132.29 153.562 131.858" stroke="#FF718B" stroke-width="0.71496" stroke-linecap="round"/>
<circle cx="27.6036" cy="88.4106" r="1.25118" transform="rotate(13.8176 27.6036 88.4106)" fill="#FF718B" stroke="white" stroke-width="0.71496"/>
<circle cx="51.807" cy="102.027" r="1.25118" transform="rotate(13.8176 51.807 102.027)" fill="#FF718B" stroke="white" stroke-width="0.71496"/>
<circle cx="81.9757" cy="89.3743" r="1.25118" transform="rotate(13.8176 81.9757 89.3743)" fill="#FF718B" stroke="white" stroke-width="0.71496"/>
<circle cx="100.843" cy="123.678" r="1.25118" transform="rotate(13.8176 100.843 123.678)" fill="#FF718B" stroke="white" stroke-width="0.71496"/>
<circle cx="128.729" cy="121.316" r="1.25118" transform="rotate(13.8176 128.729 121.316)" fill="#FF718B" stroke="white" stroke-width="0.71496"/>
<circle cx="153.461" cy="131.774" r="1.25118" transform="rotate(13.8176 153.461 131.774)" fill="#FF718B" stroke="white" stroke-width="0.71496"/>
<line x1="15.7617" y1="53.448" x2="169.733" y2="91.3173" stroke="#E5E5EF" stroke-width="0.35748"/>
<rect x="133.496" y="57.5515" width="43.1398" height="14.3032" rx="7.14959" transform="rotate(13.8176 133.496 57.5515)" fill="#F8F8FF"/>
<path d="M137.575 67.3851L137.127 67.2748L139.294 64.0595L139.736 64.1682L140.164 68.0218L139.715 67.9115L139.391 64.6764L139.363 64.6696L137.575 67.3851ZM138.081 66.0452L139.889 66.4901L139.796 66.8698L137.987 66.4249L138.081 66.0452ZM141.459 66.6492L141.067 68.2438L140.659 68.1437L141.311 65.4928L141.705 65.5896L141.603 66.0038L141.637 66.0123C141.733 65.8929 141.854 65.808 142 65.7574C142.147 65.7057 142.321 65.7045 142.521 65.7537C142.7 65.7979 142.848 65.8733 142.965 65.9801C143.082 66.0856 143.159 66.2218 143.198 66.3887C143.236 66.5543 143.228 66.7499 143.172 66.9754L142.758 68.6598L142.351 68.5596L142.758 66.9029C142.809 66.6946 142.795 66.5191 142.716 66.3763C142.636 66.2323 142.502 66.1371 142.314 66.0907C142.184 66.0588 142.061 66.0584 141.944 66.0896C141.829 66.121 141.729 66.1836 141.644 66.2773C141.558 66.3711 141.497 66.495 141.459 66.6492ZM144.302 67.3484L143.909 68.943L143.502 68.8429L144.154 66.192L144.548 66.2888L144.446 66.703L144.48 66.7115C144.576 66.5921 144.696 66.5072 144.843 66.4566C144.99 66.4049 145.164 66.4037 145.364 66.4529C145.543 66.4971 145.691 66.5725 145.808 66.6792C145.925 66.7848 146.002 66.921 146.04 67.0879C146.079 67.2535 146.071 67.4491 146.015 67.6746L145.601 69.359L145.194 69.2588L145.601 67.602C145.652 67.3938 145.638 67.2183 145.558 67.0755C145.479 66.9315 145.345 66.8363 145.156 66.7899C145.026 66.758 144.903 66.7576 144.787 66.7887C144.672 66.8202 144.572 66.8828 144.486 66.9765C144.401 67.0703 144.34 67.1942 144.302 67.3484ZM148.282 68.8691L148.668 67.3021L149.075 67.4023L148.423 70.0531L148.016 69.9529L148.126 69.5042L148.098 69.4974C148.003 69.6168 147.878 69.7075 147.724 69.7696C147.57 69.8305 147.393 69.8363 147.193 69.7871C147.027 69.7464 146.889 69.6739 146.777 69.5697C146.667 69.4644 146.593 69.329 146.555 69.1637C146.518 68.9971 146.527 68.8011 146.583 68.5756L146.997 66.8912L147.404 66.9914L146.997 68.6482C146.949 68.8414 146.965 69.0089 147.045 69.1506C147.126 69.2925 147.251 69.3843 147.421 69.4259C147.522 69.4508 147.631 69.4502 147.749 69.4242C147.867 69.3985 147.975 69.3409 148.073 69.2514C148.172 69.1622 148.241 69.0348 148.282 68.8691ZM149.934 70.4906C149.766 70.4492 149.621 70.3801 149.5 70.2832C149.379 70.1851 149.293 70.0657 149.242 69.9251C149.191 69.7833 149.187 69.6261 149.23 69.4536C149.267 69.3017 149.327 69.1859 149.41 69.1063C149.494 69.0255 149.592 68.9704 149.705 68.941C149.819 68.9115 149.939 68.8984 150.066 68.9016C150.195 68.904 150.323 68.9123 150.45 68.9265C150.616 68.9454 150.751 68.962 150.853 68.9762C150.957 68.9896 151.036 68.9888 151.088 68.9736C151.142 68.9588 151.177 68.9185 151.193 68.8529L151.196 68.8391C151.238 68.6689 151.224 68.5251 151.154 68.4078C151.085 68.2908 150.957 68.2093 150.77 68.1632C150.575 68.1153 150.412 68.1204 150.281 68.1784C150.15 68.2364 150.05 68.3082 149.981 68.3938L149.628 68.1606C149.737 68.0165 149.86 67.9138 149.997 67.8523C150.135 67.79 150.278 67.7578 150.423 67.7559C150.57 67.753 150.711 67.768 150.844 67.8008C150.929 67.8217 151.025 67.8561 151.13 67.904C151.237 67.951 151.334 68.0183 151.422 68.1059C151.512 68.1938 151.576 68.3089 151.614 68.4513C151.652 68.5937 151.645 68.7702 151.594 68.9807L151.164 70.7273L150.757 70.6271L150.845 70.2681L150.824 70.263C150.782 70.3138 150.721 70.364 150.641 70.4137C150.56 70.4635 150.461 70.4982 150.342 70.5179C150.224 70.5376 150.088 70.5285 149.934 70.4906ZM150.086 70.14C150.247 70.1796 150.39 70.1813 150.516 70.1452C150.644 70.1094 150.748 70.0484 150.829 69.9621C150.911 69.8762 150.965 69.778 150.993 69.6675L151.084 69.2948C151.062 69.3112 151.019 69.3209 150.956 69.3237C150.895 69.3257 150.825 69.3236 150.746 69.3176C150.668 69.3107 150.592 69.3031 150.519 69.2948C150.447 69.2856 150.388 69.2784 150.343 69.2734C150.234 69.2612 150.129 69.2593 150.029 69.2677C149.931 69.2753 149.846 69.3026 149.775 69.3498C149.705 69.396 149.657 69.4709 149.632 69.5744C149.597 69.716 149.623 69.8358 149.71 69.9341C149.798 70.0314 149.924 70.1001 150.086 70.14ZM153.184 67.4758L152.315 71.0103L151.907 70.9101L152.777 67.3756L153.184 67.4758Z" fill="#615E83"/>
<path d="M167.976 72.4589C168.081 72.3958 168.217 72.4293 168.28 72.5335C168.343 72.638 168.31 72.7738 168.205 72.837L166.38 73.9418C166.288 73.997 166.173 73.9784 166.104 73.903L166.076 73.8671L164.972 72.0417C164.908 71.9373 164.942 71.8014 165.046 71.7382C165.151 71.675 165.286 71.7084 165.35 71.8129L166.34 73.4493L167.976 72.4589Z" fill="#615E83"/>
<path d="M22.5461 40.9361C22.5782 40.712 22.5269 40.5192 22.3921 40.3576C22.2574 40.196 22.049 40.0805 21.767 40.0111C21.5753 39.964 21.4068 39.9513 21.2615 39.9731C21.1166 39.993 20.9974 40.0414 20.9037 40.118C20.8119 40.1952 20.7513 40.2934 20.722 40.4127C20.6939 40.5113 20.6933 40.6032 20.7203 40.6884C20.7491 40.7741 20.7975 40.8541 20.8655 40.9283C20.934 41.0008 21.0166 41.07 21.1135 41.136C21.2109 41.2002 21.3168 41.2608 21.4312 41.3177L21.9009 41.5597C22.1298 41.6736 22.3344 41.8006 22.5147 41.9408C22.6949 42.081 22.843 42.2353 22.9588 42.4037C23.0745 42.5722 23.1511 42.7559 23.1885 42.9549C23.2276 43.1544 23.2196 43.37 23.1645 43.6019C23.0791 43.9413 22.9198 44.2147 22.6867 44.422C22.4558 44.6279 22.1626 44.7599 21.807 44.8182C21.4536 44.8751 21.0509 44.8479 20.5989 44.7368C20.1505 44.6265 19.7769 44.4617 19.478 44.2425C19.181 44.0237 18.9725 43.7567 18.8525 43.4416C18.7348 43.125 18.7205 42.7658 18.8098 42.364L19.9461 42.6435C19.9129 42.8328 19.928 43.0015 19.9914 43.1493C20.057 43.2958 20.1615 43.4203 20.3051 43.5227C20.4509 43.6238 20.625 43.6992 20.8275 43.749C21.0264 43.7979 21.2061 43.8114 21.3668 43.7896C21.5293 43.7682 21.6639 43.716 21.7706 43.6329C21.8773 43.5499 21.9471 43.4415 21.98 43.3077C22.0107 43.1829 21.9994 43.069 21.9462 42.9658C21.8948 42.863 21.8059 42.7644 21.6796 42.6701C21.555 42.5762 21.3975 42.4799 21.207 42.3813L20.6396 42.0807C20.1993 41.8516 19.8734 41.5826 19.6618 41.2736C19.4502 40.9646 19.3957 40.6052 19.4985 40.1952C19.5794 39.8585 19.7412 39.5867 19.9838 39.3798C20.2282 39.1734 20.5268 39.0389 20.8797 38.9761C21.2326 38.9133 21.6116 38.9318 22.0165 39.0314C22.4288 39.1328 22.7712 39.2918 23.0439 39.5084C23.3184 39.7254 23.5106 39.9808 23.6205 40.2743C23.7305 40.5679 23.7475 40.8807 23.6715 41.2129L22.5461 40.9361ZM23.1583 46.9394L24.567 41.2117L25.706 41.4919L25.5339 42.1916L25.5855 42.2042C25.6637 42.1046 25.7649 42.0087 25.8892 41.9165C26.0157 41.823 26.1663 41.7565 26.3409 41.717C26.5178 41.6762 26.7228 41.6844 26.956 41.7418C27.2598 41.8165 27.5205 41.965 27.7381 42.1872C27.9561 42.4077 28.1028 42.6959 28.1783 43.0519C28.2541 43.4061 28.2334 43.8218 28.116 44.2991C28.0017 44.7638 27.8302 45.1377 27.6014 45.4208C27.3749 45.7025 27.113 45.8941 26.8158 45.9955C26.5209 46.0955 26.2152 46.1066 25.8988 46.0288C25.6746 45.9736 25.493 45.8897 25.3539 45.7768C25.2166 45.6645 25.1121 45.54 25.0402 45.4035C24.9688 45.2651 24.9211 45.1316 24.8971 45.003L24.8619 44.9943L24.3136 47.2236L23.1583 46.9394ZM25.1856 43.5727C25.1247 43.8204 25.1059 44.0449 25.1293 44.2462C25.1526 44.4475 25.2167 44.6157 25.3215 44.7508C25.4268 44.884 25.5726 44.9736 25.7588 45.0194C25.9468 45.0656 26.1186 45.0532 26.2741 44.9822C26.4301 44.9093 26.5642 44.7889 26.6764 44.621C26.7909 44.4516 26.878 44.2458 26.9376 44.0036C26.9967 43.7631 27.0153 43.5433 26.9933 43.3443C26.9713 43.1452 26.9079 42.9781 26.8031 42.8431C26.6983 42.708 26.5509 42.6171 26.3611 42.5704C26.1731 42.5242 26.0017 42.5348 25.8471 42.6022C25.6943 42.6701 25.5611 42.7869 25.4474 42.9526C25.3338 43.1183 25.2466 43.325 25.1856 43.5727ZM30.2536 47.1142C29.8251 47.0088 29.4776 46.8313 29.2112 46.5817C28.9469 46.3308 28.771 46.0248 28.6834 45.6639C28.5962 45.3012 28.6066 44.9001 28.7147 44.4608C28.8201 44.0323 28.9957 43.6767 29.2417 43.394C29.4876 43.1112 29.7838 42.9166 30.1302 42.8101C30.4784 42.704 30.8568 42.7012 31.2654 42.8017C31.5402 42.8693 31.7851 42.9765 32.0002 43.1233C32.2175 43.2688 32.3932 43.451 32.5272 43.67C32.6631 43.8894 32.7481 44.1442 32.7821 44.4344C32.8167 44.7228 32.7903 45.0442 32.7032 45.3986L32.6251 45.7159L29.1077 44.8508L29.2838 44.1348L31.7137 44.7325C31.7546 44.5661 31.7547 44.4099 31.714 44.2637C31.6732 44.1176 31.5976 43.9926 31.487 43.8887C31.3786 43.7834 31.2404 43.7101 31.0723 43.6687C30.8969 43.6256 30.7314 43.6281 30.5758 43.6761C30.4224 43.7227 30.2911 43.8045 30.1818 43.9214C30.073 44.0365 29.9974 44.1761 29.9552 44.3402L29.7877 45.0209C29.737 45.227 29.7312 45.4145 29.7702 45.5832C29.8111 45.7524 29.892 45.895 30.013 46.011C30.134 46.1271 30.2913 46.2089 30.4847 46.2565C30.6131 46.288 30.735 46.2989 30.8506 46.2889C30.9662 46.279 31.0708 46.2472 31.1645 46.1936C31.2583 46.14 31.3379 46.0656 31.4035 45.9705L32.4547 46.3038C32.3373 46.5472 32.1709 46.7441 31.9557 46.8944C31.7426 47.0433 31.491 47.1386 31.2008 47.1804C30.9129 47.2208 30.5971 47.1987 30.2536 47.1142ZM34.6871 45.5644L34.0948 47.9727L32.9395 47.6885L33.964 43.5229L35.0651 43.7937L34.8844 44.5287L34.9332 44.5407C35.085 44.3211 35.2867 44.1675 35.5383 44.0798C35.7904 43.9903 36.071 43.9836 36.3802 44.0597C36.6695 44.1308 36.9061 44.2561 37.0902 44.4356C37.2742 44.6151 37.397 44.837 37.4585 45.1014C37.5204 45.364 37.5116 45.6571 37.432 45.9807L36.7797 48.633L35.6244 48.3489L36.226 45.9027C36.2905 45.6482 36.2744 45.4333 36.1775 45.258C36.0811 45.0809 35.9172 44.9639 35.6858 44.907C35.5303 44.8687 35.3846 44.8684 35.2489 44.9059C35.1149 44.9439 34.9987 45.0189 34.9002 45.1308C34.804 45.2413 34.733 45.3859 34.6871 45.5644ZM40.9305 45.2363L40.717 46.1041L38.2084 45.4872L38.4219 44.6193L40.9305 45.2363ZM39.2369 43.7614L40.3922 44.0455L39.437 47.9291C39.4108 48.0358 39.4066 48.1229 39.4245 48.1906C39.4428 48.2565 39.478 48.3083 39.53 48.346C39.5839 48.3842 39.6497 48.4128 39.7275 48.4319C39.7817 48.4453 39.8371 48.4541 39.8935 48.4584C39.9504 48.4609 39.994 48.463 40.0243 48.4647L39.9945 49.3691C39.9322 49.3729 39.8458 49.3737 39.7351 49.3714C39.624 49.3709 39.4928 49.355 39.3414 49.3235C39.0603 49.2658 38.8253 49.1687 38.6365 49.0322C38.4495 48.8961 38.3201 48.7243 38.2484 48.5168C38.1768 48.3094 38.1754 48.0694 38.2443 47.7968L39.2369 43.7614ZM46.6244 47.8964L45.5507 47.7014C45.5548 47.6065 45.536 47.5156 45.4941 47.4286C45.4527 47.3398 45.3885 47.2617 45.3015 47.1943C45.2168 47.1255 45.1075 47.0747 44.9738 47.0418C44.7948 46.9978 44.6345 46.9986 44.4928 47.0443C44.3517 47.0882 44.2657 47.1725 44.235 47.2973C44.2106 47.3967 44.2297 47.4906 44.2923 47.5788C44.355 47.6671 44.4779 47.7558 44.6612 47.845L45.3777 48.1823C45.7623 48.3651 46.0313 48.5731 46.1848 48.8064C46.3384 49.0398 46.3782 49.3065 46.3044 49.6066C46.2372 49.8796 46.0979 50.0994 45.8863 50.2659C45.6765 50.4329 45.4181 50.54 45.1112 50.5873C44.8066 50.6331 44.4735 50.6116 44.1119 50.5227C43.5604 50.387 43.1493 50.1642 42.8786 49.8541C42.61 49.5426 42.4967 49.1811 42.5385 48.7696L43.6895 48.9894C43.6825 49.166 43.734 49.3148 43.8442 49.4358C43.9549 49.5551 44.1133 49.6401 44.3194 49.6907C44.5219 49.7405 44.6941 49.7417 44.8362 49.6942C44.9805 49.6453 45.0689 49.5587 45.1014 49.4344C45.1254 49.3291 45.1022 49.2323 45.0319 49.1441C44.962 49.0541 44.8411 48.9687 44.6692 48.8881L43.9832 48.5669C43.5964 48.3855 43.3282 48.17 43.1787 47.9204C43.031 47.6713 42.9954 47.3912 43.0719 47.0802C43.1377 46.8126 43.2667 46.5999 43.4589 46.442C43.6529 46.2846 43.8948 46.1859 44.1846 46.146C44.4762 46.1065 44.8 46.1305 45.1562 46.2181C45.6823 46.3475 46.069 46.5605 46.3163 46.8572C46.5653 47.1543 46.668 47.5007 46.6244 47.8964ZM49.9546 47.4558L49.7412 48.3236L47.2326 47.7066L47.446 46.8388L49.9546 47.4558ZM48.261 45.9809L49.4163 46.265L48.4611 50.1486C48.4349 50.2553 48.4307 50.3424 48.4486 50.4101C48.4669 50.476 48.5021 50.5278 48.5542 50.5655C48.6081 50.6037 48.6739 50.6323 48.7516 50.6514C48.8059 50.6648 48.8612 50.6736 48.9177 50.6779C48.9746 50.6804 49.0182 50.6825 49.0484 50.6842L49.0187 51.5886C48.9564 51.5924 48.8699 51.5932 48.7593 51.5909C48.6482 51.5904 48.5169 51.5744 48.3655 51.543C48.0844 51.4853 47.8495 51.3882 47.6606 51.2517C47.4736 51.1156 47.3443 50.9438 47.2726 50.7363C47.2009 50.5289 47.1995 50.2889 47.2685 50.0163L48.261 45.9809ZM50.8512 52.1773C50.5854 52.1119 50.3599 52.0076 50.1746 51.8642C49.9898 51.7191 49.8593 51.5403 49.7831 51.3279C49.7091 51.1141 49.7059 50.8699 49.7735 50.595C49.8305 50.3636 49.9207 50.1797 50.0444 50.0433C50.1681 49.9069 50.3149 49.8088 50.4849 49.749C50.6549 49.6892 50.8391 49.6578 51.0373 49.6548C51.2373 49.6522 51.4429 49.6663 51.6539 49.6971C51.9024 49.7314 52.1034 49.7559 52.257 49.7707C52.411 49.7837 52.527 49.7758 52.6051 49.747C52.6831 49.7183 52.733 49.6596 52.7548 49.571L52.7588 49.5547C52.801 49.383 52.7795 49.2367 52.6941 49.1161C52.6105 48.9958 52.4702 48.9114 52.2732 48.863C52.0652 48.8118 51.8885 48.8173 51.7429 48.8792C51.5977 48.9394 51.4883 49.0333 51.4147 49.1609L50.3676 48.8113C50.484 48.5715 50.6445 48.379 50.849 48.2337C51.0539 48.0866 51.2942 47.9943 51.57 47.9566C51.848 47.9176 52.1534 47.9391 52.486 48.0209C52.7175 48.0778 52.9323 48.1594 53.1305 48.2657C53.3305 48.3724 53.4987 48.5029 53.6352 48.6573C53.7736 48.8121 53.8686 48.9908 53.9204 49.1933C53.9727 49.3941 53.9683 49.6183 53.9074 49.866L53.2164 52.6756L52.1207 52.4062L52.2628 51.8285L52.2303 51.8205C52.1314 51.9342 52.0136 52.027 51.8771 52.0989C51.741 52.1689 51.5874 52.2127 51.4163 52.23C51.2456 52.2456 51.0573 52.228 50.8512 52.1773ZM51.3781 51.4614C51.5481 51.5032 51.7064 51.5066 51.853 51.4717C52.0001 51.4351 52.1249 51.368 52.2275 51.2705C52.3301 51.173 52.3994 51.051 52.4354 50.9046L52.5441 50.4625C52.5022 50.4772 52.4471 50.4866 52.379 50.4909C52.313 50.4939 52.2392 50.494 52.1575 50.4911C52.0762 50.4865 51.9951 50.4809 51.9142 50.4744C51.8338 50.4662 51.7608 50.4588 51.6953 50.4522C51.5549 50.4388 51.4286 50.4413 51.3167 50.4598C51.2048 50.4783 51.1117 50.5177 51.0374 50.578C50.9636 50.6366 50.9133 50.7201 50.8867 50.8285C50.848 50.9858 50.8754 51.1201 50.9688 51.2313C51.0645 51.3411 51.2009 51.4178 51.3781 51.4614ZM57.3529 49.2754L57.1395 50.1432L54.6309 49.5263L54.8443 48.6584L57.3529 49.2754ZM55.6593 47.8005L56.8146 48.0846L55.8595 51.9682C55.8332 52.0749 55.829 52.162 55.8469 52.2297C55.8652 52.2956 55.9004 52.3474 55.9525 52.3851C56.0064 52.4233 56.0722 52.4519 56.1499 52.471C56.2042 52.4844 56.2595 52.4932 56.316 52.4975C56.3729 52.5 56.4165 52.5021 56.4467 52.5038L56.417 53.4082C56.3547 53.412 56.2682 53.4128 56.1576 53.4105C56.0465 53.41 55.9152 53.3941 55.7638 53.3626C55.4827 53.3049 55.2478 53.2078 55.059 53.0713C54.8719 52.9352 54.7426 52.7634 54.6709 52.5559C54.5992 52.3485 54.5978 52.1085 54.6668 51.8359L55.6593 47.8005ZM57.081 53.6261L58.1055 49.4605L59.2608 49.7447L58.2363 53.9103L57.081 53.6261ZM58.8179 49.0663C58.6462 49.024 58.5128 48.9308 58.4179 48.7867C58.3252 48.6412 58.2987 48.488 58.3382 48.3271C58.3774 48.168 58.4715 48.0464 58.6207 47.9622C58.7721 47.8768 58.9337 47.8552 59.1054 47.8974C59.2772 47.9396 59.4094 48.0335 59.5021 48.179C59.597 48.3232 59.6249 48.4748 59.5858 48.6339C59.5462 48.7948 59.4507 48.918 59.2993 49.0035C59.1501 49.0876 58.9897 49.1085 58.8179 49.0663ZM63.36 52.0126L62.2864 51.8175C62.2905 51.7227 62.2716 51.6318 62.2298 51.5448C62.1883 51.456 62.1241 51.3779 62.0372 51.3104C61.9525 51.2417 61.8432 51.1908 61.7094 51.1579C61.5304 51.1139 61.3701 51.1148 61.2285 51.1604C61.0873 51.2043 61.0014 51.2887 60.9707 51.4134C60.9463 51.5129 60.9654 51.6067 61.028 51.695C61.0907 51.7832 61.2136 51.872 61.3969 51.9611L62.1134 52.2984C62.498 52.4812 62.767 52.6893 62.9205 52.9226C63.074 53.1559 63.1139 53.4226 63.0401 53.7228C62.9729 53.9958 62.8336 54.2155 62.622 54.3821C62.4122 54.5491 62.1538 54.6562 61.8469 54.7034C61.5423 54.7493 61.2092 54.7277 60.8476 54.6388C60.2961 54.5032 59.885 54.2803 59.6143 53.9702C59.3457 53.6587 59.2324 53.2972 59.2741 52.8857L60.4251 53.1055C60.4181 53.2821 60.4697 53.4309 60.5799 53.552C60.6906 53.6712 60.8489 53.7562 61.0551 53.8069C61.2575 53.8567 61.4298 53.8578 61.5719 53.8103C61.7162 53.7615 61.8046 53.6749 61.8371 53.5506C61.8611 53.4453 61.8379 53.3485 61.7676 53.2602C61.6977 53.1702 61.5768 53.0849 61.4049 53.0042L60.7189 52.6831C60.3321 52.5017 60.0639 52.2862 59.9144 52.0365C59.7667 51.7874 59.7311 51.5073 59.8076 51.1964C59.8734 50.9288 60.0024 50.716 60.1946 50.5582C60.3886 50.4007 60.6305 50.302 60.9203 50.2621C61.2118 50.2226 61.5357 50.2466 61.8919 50.3342C62.418 50.4636 62.8047 50.6767 63.0519 50.9733C63.301 51.2704 63.4037 51.6168 63.36 52.0126ZM66.6903 51.5719L66.4769 52.4398L63.9683 51.8228L64.1817 50.9549L66.6903 51.5719ZM64.9967 50.097L66.152 50.3812L65.1968 54.2647C65.1706 54.3714 65.1664 54.4586 65.1843 54.5262C65.2026 54.5921 65.2378 54.6439 65.2899 54.6816C65.3437 54.7198 65.4096 54.7485 65.4873 54.7676C65.5415 54.7809 65.5969 54.7897 65.6534 54.794C65.7103 54.7965 65.7539 54.7986 65.7841 54.8003L65.7544 55.7047C65.6921 55.7085 65.6056 55.7093 65.495 55.707C65.3839 55.7066 65.2526 55.6906 65.1012 55.6591C64.8201 55.6015 64.5852 55.5044 64.3963 55.3678C64.2093 55.2317 64.08 55.0599 64.0083 54.8525C63.9366 54.645 63.9352 54.405 64.0042 54.1324L64.9967 50.097ZM66.4183 55.9226L67.4429 51.757L68.5982 52.0412L67.5736 56.2068L66.4183 55.9226ZM68.1553 51.3628C67.9835 51.3206 67.8502 51.2274 67.7553 51.0832C67.6626 50.9377 67.636 50.7845 67.6756 50.6236C67.7148 50.4645 67.8089 50.3429 67.958 50.2588C68.1095 50.1733 68.271 50.1517 68.4428 50.1939C68.6145 50.2362 68.7468 50.33 68.8394 50.4756C68.9344 50.6197 68.9623 50.7713 68.9231 50.9304C68.8836 51.0913 68.7881 51.2145 68.6367 51.3C68.4875 51.3841 68.3271 51.405 68.1553 51.3628ZM70.3612 56.9787C69.9345 56.8737 69.5898 56.6931 69.3269 56.4367C69.0662 56.1789 68.8934 55.868 68.8085 55.5039C68.7254 55.1402 68.7356 54.7478 68.8392 54.3265C68.9442 53.8998 69.1185 53.5458 69.3622 53.2645C69.6081 52.9817 69.9061 52.7876 70.2561 52.6819C70.6066 52.5744 70.9924 52.5725 71.4137 52.6761C71.7771 52.7655 72.0791 52.9098 72.3196 53.1089C72.5602 53.308 72.7306 53.5465 72.831 53.8243C72.9314 54.1021 72.9502 54.4039 72.8873 54.7297L71.7971 54.4615C71.8175 54.2461 71.7773 54.0588 71.6764 53.8998C71.5778 53.7394 71.4228 53.6332 71.2112 53.5812C71.0322 53.5372 70.8638 53.5475 70.706 53.6122C70.5505 53.6756 70.413 53.7904 70.2935 53.9566C70.174 54.1227 70.082 54.3369 70.0175 54.5991C69.9522 54.8648 69.9327 55.0997 69.9593 55.3037C69.9876 55.5082 70.0566 55.6757 70.1664 55.8062C70.2762 55.9368 70.4206 56.0241 70.5996 56.0681C70.7316 56.1005 70.8566 56.1025 70.9748 56.0741C71.0949 56.0461 71.2019 55.989 71.2959 55.9028C71.3922 55.8153 71.4693 55.701 71.527 55.5599L72.6172 55.828C72.5208 56.1418 72.3651 56.4007 72.1501 56.6047C71.9372 56.8074 71.6786 56.9432 71.374 57.0121C71.0695 57.081 70.7319 57.0698 70.3612 56.9787Z" fill="#1E1B39"/>
<path d="M24.4776 31.0983C24.5063 30.8669 24.4412 30.6658 24.2824 30.495C24.1236 30.3241 23.9067 30.2049 23.6315 30.1372C23.4303 30.0877 23.2463 30.077 23.0794 30.105C22.914 30.1333 22.7751 30.1941 22.6628 30.2872C22.5519 30.3807 22.4787 30.5 22.443 30.645C22.4132 30.7663 22.4164 30.8776 22.4526 30.9791C22.4907 31.0795 22.5485 31.1698 22.626 31.25C22.7039 31.3288 22.7886 31.399 22.8801 31.4607C22.9719 31.521 23.0573 31.5726 23.1362 31.6155L23.5671 31.8533C23.6778 31.9134 23.7989 31.9887 23.9304 32.0791C24.0634 32.1699 24.1848 32.2789 24.2947 32.4064C24.4064 32.5327 24.4879 32.6798 24.5391 32.8477C24.5904 33.0156 24.5898 33.2061 24.5374 33.4191C24.477 33.6646 24.3581 33.8707 24.1807 34.0373C24.0047 34.2042 23.7796 34.3159 23.5053 34.3724C23.2324 34.4292 22.9215 34.4147 22.5724 34.3288C22.2469 34.2488 21.978 34.127 21.7657 33.9634C21.5549 33.8001 21.4045 33.6078 21.3146 33.3865C21.2262 33.1655 21.2037 32.9286 21.247 32.6757L21.8151 32.8154C21.7877 32.9906 21.8104 33.1468 21.8834 33.284C21.9582 33.4201 22.0665 33.5345 22.2083 33.6275C22.352 33.7193 22.5141 33.7874 22.6946 33.8318C22.9047 33.8835 23.1016 33.8958 23.2855 33.8689C23.4698 33.8405 23.6258 33.7769 23.7537 33.6781C23.8819 33.5779 23.9663 33.4449 24.0071 33.2792C24.0442 33.1283 24.0322 32.9952 23.9712 32.8798C23.9102 32.7644 23.8181 32.6602 23.6951 32.5672C23.5721 32.4741 23.4362 32.3858 23.2873 32.3021L22.7674 32.0049C22.4375 31.8155 22.1923 31.6006 22.0318 31.3603C21.8712 31.1201 21.8286 30.8468 21.9039 30.5406C21.9665 30.2862 22.0899 30.0812 22.274 29.9257C22.46 29.7691 22.6828 29.667 22.9423 29.6194C23.2037 29.5708 23.4794 29.5821 23.7693 29.6534C24.0622 29.7255 24.3097 29.842 24.5116 30.0031C24.714 30.1626 24.8595 30.349 24.9483 30.5622C25.0385 30.7758 25.0591 30.9982 25.0101 31.2293L24.4776 31.0983ZM27.3882 31.8142L27.2791 32.2579L25.5128 31.8235L25.622 31.3798L27.3882 31.8142ZM26.3376 30.6898L26.8613 30.8186L26.0623 34.0671C26.0259 34.215 26.0201 34.3312 26.0448 34.4157C26.0713 34.4991 26.1155 34.5618 26.1774 34.6037C26.2411 34.6444 26.3114 34.6743 26.3883 34.6932C26.446 34.7074 26.4941 34.7161 26.5325 34.7192C26.5713 34.7209 26.6024 34.7223 26.6257 34.7233L26.6165 35.2199C26.5777 35.2245 26.5249 35.2256 26.458 35.2233C26.3907 35.2225 26.3083 35.21 26.2107 35.186C26.0627 35.1496 25.9256 35.0822 25.7992 34.9836C25.6743 34.8855 25.5813 34.7598 25.5201 34.6067C25.4604 34.454 25.455 34.2785 25.5037 34.0803L26.3376 30.6898ZM28.321 35.7427C28.105 35.6896 27.919 35.6007 27.763 35.476C27.6073 35.3499 27.4968 35.1964 27.4315 35.0156C27.3665 34.8334 27.3613 34.6313 27.4159 34.4094C27.4639 34.2141 27.5413 34.0653 27.648 33.9629C27.7552 33.8591 27.8816 33.7882 28.0274 33.7503C28.1732 33.7125 28.3279 33.6956 28.4916 33.6998C28.6572 33.7029 28.8216 33.7135 28.985 33.7317C29.1986 33.756 29.3715 33.7774 29.5034 33.7957C29.6372 33.8129 29.7379 33.8118 29.8055 33.7923C29.8745 33.7732 29.9193 33.7215 29.9401 33.6372L29.9445 33.6194C29.9983 33.4005 29.9802 33.2157 29.8902 33.0649C29.8017 32.9145 29.6369 32.8096 29.3958 32.7503C29.1458 32.6888 28.9363 32.6954 28.7674 32.7699C28.5985 32.8444 28.4699 32.9367 28.3816 33.0468L27.9283 32.7471C28.0679 32.5618 28.2259 32.4297 28.4022 32.3507C28.5804 32.2705 28.7631 32.2292 28.9504 32.2266C29.1396 32.223 29.32 32.2422 29.4916 32.2844C29.601 32.3113 29.7235 32.3556 29.859 32.4171C29.9963 32.4776 30.1217 32.5641 30.2351 32.6767C30.3501 32.7897 30.4321 32.9378 30.4812 33.1208C30.5303 33.3039 30.5216 33.5308 30.455 33.8015L29.9027 36.047L29.3791 35.9182L29.4926 35.4567L29.466 35.4501C29.4123 35.5154 29.3336 35.58 29.23 35.6439C29.1265 35.7078 28.9986 35.7525 28.8465 35.7778C28.6944 35.8032 28.5192 35.7914 28.321 35.7427ZM28.5166 35.2919C28.7236 35.3429 28.9082 35.3451 29.0702 35.2987C29.2337 35.2526 29.3675 35.1741 29.4717 35.0633C29.5773 34.9528 29.6476 34.8265 29.6825 34.6845L29.8004 34.2052C29.7716 34.2264 29.7168 34.2388 29.6359 34.2424C29.5569 34.2449 29.4665 34.2423 29.3649 34.2346C29.2651 34.2257 29.1679 34.216 29.0733 34.2052C28.9805 34.1934 28.9051 34.1843 28.847 34.1778C28.7066 34.1621 28.5723 34.1597 28.4441 34.1705C28.3178 34.1802 28.2087 34.2154 28.117 34.2759C28.027 34.3354 27.9657 34.4317 27.933 34.5648C27.8882 34.7468 27.9217 34.9009 28.0334 35.0272C28.1469 35.1524 28.308 35.2406 28.5166 35.2919ZM33.179 33.2384L33.0699 33.6822L31.3036 33.2478L31.4128 32.804L33.179 33.2384ZM32.1284 32.1141L32.652 32.2429L31.8531 35.4913C31.8167 35.6392 31.8108 35.7555 31.8356 35.84C31.8621 35.9234 31.9063 35.986 31.9682 36.0279C32.0319 36.0687 32.1022 36.0985 32.1791 36.1174C32.2368 36.1316 32.2849 36.1403 32.3233 36.1435C32.3621 36.1452 32.3931 36.1465 32.4164 36.1476L32.4072 36.6442C32.3685 36.6488 32.3156 36.6499 32.2487 36.6475C32.1815 36.6467 32.0991 36.6343 32.0014 36.6102C31.8535 36.5739 31.7164 36.5064 31.59 36.4079C31.4651 36.3097 31.3721 36.1841 31.3109 36.031C31.2512 35.8782 31.2457 35.7028 31.2945 35.5045L32.1284 32.1141ZM33.1285 36.8404L33.9667 33.4321L34.4904 33.5609L33.6521 36.9692L33.1285 36.8404ZM34.3727 32.9296C34.2706 32.9045 34.1911 32.8481 34.1343 32.7604C34.0789 32.673 34.0632 32.5805 34.0872 32.4829C34.1112 32.3853 34.168 32.3106 34.2576 32.2589C34.3487 32.2076 34.4453 32.1944 34.5473 32.2195C34.6494 32.2447 34.7281 32.3009 34.7835 32.3882C34.8404 32.476 34.8568 32.5686 34.8328 32.6663C34.8088 32.7639 34.7512 32.8384 34.6602 32.8897C34.5706 32.9414 34.4748 32.9547 34.3727 32.9296ZM37.6759 35.1539L37.1728 35.1713C37.1625 35.0857 37.1376 34.9987 37.0981 34.9106C37.0604 34.8213 36.9988 34.7403 36.9131 34.6674C36.8275 34.5946 36.7085 34.5395 36.5562 34.502C36.3476 34.4507 36.1619 34.456 35.9992 34.518C35.8384 34.5788 35.7399 34.6825 35.7039 34.8289C35.6719 34.9591 35.694 35.0735 35.7701 35.1723C35.8462 35.271 35.9787 35.3702 36.1675 35.47L36.6428 35.7187C36.9294 35.8676 37.1286 36.0366 37.2405 36.2257C37.3528 36.4134 37.3797 36.6263 37.3211 36.8644C37.2731 37.0597 37.1739 37.2204 37.0237 37.3466C36.8749 37.4732 36.6897 37.5563 36.4682 37.5959C36.2467 37.6355 36.0035 37.6228 35.7387 37.5577C35.3911 37.4722 35.1219 37.326 34.9312 37.1191C34.7405 36.9121 34.6505 36.6563 34.6612 36.3514L35.1888 36.3494C35.191 36.5445 35.2467 36.704 35.3558 36.8281C35.4663 36.9526 35.6289 37.0412 35.8434 37.094C36.0874 37.154 36.294 37.1499 36.4629 37.0816C36.6337 37.0122 36.7371 36.9043 36.7731 36.7579C36.8022 36.6395 36.7852 36.5302 36.722 36.43C36.6592 36.3283 36.5469 36.2363 36.3851 36.1542L35.8498 35.8813C35.5559 35.7306 35.3548 35.5596 35.2465 35.3682C35.1401 35.1758 35.1159 34.9619 35.1737 34.7267C35.221 34.5344 35.3168 34.3776 35.4612 34.2562C35.6071 34.1352 35.7843 34.0557 35.9929 34.0176C36.203 33.9798 36.4278 33.9904 36.6675 34.0493C37.0048 34.1323 37.2514 34.2714 37.4073 34.4666C37.5647 34.6622 37.6542 34.8913 37.6759 35.1539ZM40.1963 34.9643L40.0871 35.4081L38.3209 34.9737L38.43 34.5299L40.1963 34.9643ZM39.1456 33.84L39.6693 33.9687L38.8703 37.2172C38.834 37.3651 38.8281 37.4814 38.8528 37.5659C38.8794 37.6493 38.9236 37.7119 38.9854 37.7538C39.0492 37.7946 39.1195 37.8244 39.1964 37.8433C39.2541 37.8575 39.3021 37.8662 39.3406 37.8694C39.3794 37.8711 39.4104 37.8724 39.4337 37.8735L39.4245 38.3701C39.3857 38.3746 39.3329 38.3758 39.266 38.3734C39.1988 38.3726 39.1163 38.3602 39.0187 38.3361C38.8708 38.2998 38.7336 38.2323 38.6073 38.1338C38.4824 38.0356 38.3893 37.91 38.3282 37.7569C38.2685 37.6041 38.263 37.4287 38.3118 37.2304L39.1456 33.84ZM40.1457 38.5663L40.984 35.158L41.5076 35.2868L40.6694 38.6951L40.1457 38.5663ZM41.39 34.6555C41.2879 34.6304 41.2084 34.574 41.1516 34.4863C41.0962 34.3989 41.0805 34.3064 41.1045 34.2088C41.1285 34.1112 41.1853 34.0365 41.2749 33.9848C41.366 33.9335 41.4625 33.9203 41.5646 33.9454C41.6667 33.9705 41.7454 34.0268 41.8008 34.1141C41.8576 34.2018 41.8741 34.2945 41.85 34.3922C41.826 34.4898 41.7685 34.5643 41.6774 34.6156C41.5879 34.6673 41.492 34.6806 41.39 34.6555ZM42.9956 39.3425C42.6761 39.2639 42.4195 39.1208 42.2259 38.9132C42.0322 38.7055 41.9058 38.454 41.8467 38.1587C41.7876 37.8633 41.7998 37.5455 41.8835 37.2053C41.9686 36.8592 42.1074 36.5693 42.2997 36.3358C42.4939 36.1012 42.724 35.9374 42.99 35.8444C43.2579 35.7503 43.5457 35.741 43.8534 35.8167C44.093 35.8757 44.2981 35.9731 44.4686 36.1092C44.639 36.2453 44.766 36.4083 44.8495 36.5982C44.933 36.7882 44.9633 36.9933 44.9405 37.2136L44.4169 37.0848C44.4151 36.9197 44.3602 36.7603 44.2521 36.6066C44.1458 36.4518 43.9773 36.3461 43.7466 36.2893C43.5424 36.2391 43.3503 36.2483 43.1703 36.317C42.9921 36.3845 42.8365 36.5039 42.7034 36.6751C42.5721 36.8452 42.4748 37.059 42.4115 37.3163C42.3468 37.5797 42.3318 37.8191 42.3666 38.0348C42.4029 38.2508 42.484 38.4315 42.6098 38.577C42.737 38.7228 42.9042 38.8212 43.1113 38.8721C43.2474 38.9056 43.3768 38.9123 43.4994 38.8922C43.6219 38.8722 43.7326 38.8272 43.8314 38.7574C43.9301 38.6876 44.011 38.5945 44.0741 38.4783L44.5978 38.6071C44.5187 38.801 44.4009 38.9642 44.2444 39.0967C44.0898 39.228 43.9054 39.3176 43.6912 39.3653C43.479 39.412 43.2471 39.4044 42.9956 39.3425ZM48.1835 37.7382L47.6804 37.7557C47.6701 37.67 47.6452 37.5831 47.6057 37.4949C47.568 37.4057 47.5064 37.3246 47.4207 37.2518C47.3351 37.179 47.2161 37.1238 47.0638 37.0863C46.8552 37.035 46.6695 37.0404 46.5068 37.1023C46.346 37.1632 46.2475 37.2668 46.2115 37.4132C46.1795 37.5434 46.2016 37.6579 46.2777 37.7566C46.3538 37.8553 46.4863 37.9546 46.6751 38.0544L47.1504 38.303C47.437 38.452 47.6362 38.621 47.7481 38.8101C47.8604 38.9977 47.8873 39.2106 47.8287 39.4488C47.7807 39.644 47.6815 39.8048 47.5313 39.9309C47.3825 40.0575 47.1973 40.1406 46.9758 40.1802C46.7543 40.2199 46.5111 40.2071 46.2463 40.142C45.8987 40.0565 45.6295 39.9103 45.4388 39.7034C45.2481 39.4965 45.1581 39.2406 45.1688 38.9357L45.6964 38.9337C45.6986 39.1288 45.7543 39.2884 45.8634 39.4125C45.9739 39.5369 46.1365 39.6255 46.351 39.6783C46.595 39.7383 46.8016 39.7342 46.9705 39.666C47.1413 39.5966 47.2447 39.4887 47.2807 39.3422C47.3098 39.2239 47.2928 39.1146 47.2296 39.0143C47.1668 38.9126 47.0545 38.8207 46.8927 38.7385L46.3574 38.4657C46.0635 38.3149 45.8624 38.1439 45.7541 37.9526C45.6477 37.7601 45.6235 37.5463 45.6813 37.3111C45.7286 37.1188 45.8244 36.9619 45.9688 36.8406C46.1147 36.7196 46.2919 36.64 46.5005 36.6019C46.7106 36.5641 46.9354 36.5747 47.1751 36.6337C47.5124 36.7166 47.759 36.8557 47.9149 37.0509C48.0723 37.2465 48.1618 37.4756 48.1835 37.7382Z" fill="#9291A5"/>
</g>
</g>
<defs>
<filter id="filter0_d_89_1080" x="0.5" y="0" width="206" height="316" filterUnits="userSpaceOnUse" color-interpolation-filters="sRGB">
<feFlood flood-opacity="0" result="BackgroundImageFix"/>
<feColorMatrix in="SourceAlpha" type="matrix" values="0 0 0 0 0 0 0 0 0 0 0 0 0 0 0 0 0 0 127 0" result="hardAlpha"/>
<feOffset dy="2"/>
<feGaussianBlur stdDeviation="4"/>
<feComposite in2="hardAlpha" operator="out"/>
<feColorMatrix type="matrix" values="0 0 0 0 0.792342 0 0 0 0 0.797855 0 0 0 0 0.888822 0 0 0 1 0"/>
<feBlend mode="normal" in2="BackgroundImageFix" result="effect1_dropShadow_89_1080"/>
<feBlend mode="normal" in="SourceGraphic" in2="effect1_dropShadow_89_1080" result="shape"/>
</filter>
<filter id="filter1_d_89_1080" x="-20.1459" y="14.0691" width="211.113" height="178.122" filterUnits="userSpaceOnUse" color-interpolation-filters="sRGB">
<feFlood flood-opacity="0" result="BackgroundImageFix"/>
<feColorMatrix in="SourceAlpha" type="matrix" values="0 0 0 0 0 0 0 0 0 0 0 0 0 0 0 0 0 0 127 0" result="hardAlpha"/>
<feOffset dy="0.71496"/>
<feGaussianBlur stdDeviation="1.07244"/>
<feComposite in2="hardAlpha" operator="out"/>
<feColorMatrix type="matrix" values="0 0 0 0 0.0509804 0 0 0 0 0.0392157 0 0 0 0 0.172549 0 0 0 0.08 0"/>
<feBlend mode="normal" in2="BackgroundImageFix" result="effect1_dropShadow_89_1080"/>
<feBlend mode="normal" in="SourceGraphic" in2="effect1_dropShadow_89_1080" result="shape"/>
</filter>
<linearGradient id="paint0_linear_89_1080" x1="94.9066" y1="92.5548" x2="81.9654" y2="145.172" gradientUnits="userSpaceOnUse">
<stop stop-color="#FBD7E0"/>
<stop offset="1" stop-color="#FFECED" stop-opacity="0"/>
</linearGradient>
<clipPath id="clip0_89_1080">
<rect x="8.5" y="6" width="190" height="300" rx="32" fill="white"/>
</clipPath>
</defs>
</svg>
