<svg width="248" height="203" viewBox="0 0 248 203" fill="none" xmlns="http://www.w3.org/2000/svg">
<g filter="url(#filter0_d_89_1033)">
<rect x="3.3335" y="8.84277" width="236.647" height="190.246" rx="9.28028" transform="rotate(-1.65696 3.3335 8.84277)" fill="white"/>
</g>
<mask id="mask0_89_1033" style="mask-type:alpha" maskUnits="userSpaceOnUse" x="41" y="107" width="170" height="91">
<rect x="41.2773" y="112.652" width="166.795" height="85.3825" transform="rotate(-1.65696 41.2773 112.652)" fill="#D9D9D9"/>
</mask>
<g mask="url(#mask0_89_1033)">
<mask id="path-3-inside-1_89_1033" fill="white">
<path d="M43.7448 197.952C43.3721 185.068 46.024 172.277 51.4876 160.603C56.9512 148.929 65.0746 138.698 75.2062 130.731L97.2768 158.797C91.531 163.315 86.924 169.117 83.8254 175.738C80.7269 182.358 79.2229 189.613 79.4343 196.919L43.7448 197.952Z"/>
</mask>
<path d="M43.7448 197.952C43.3721 185.068 46.024 172.277 51.4876 160.603C56.9512 148.929 65.0746 138.698 75.2062 130.731L97.2768 158.797C91.531 163.315 86.924 169.117 83.8254 175.738C80.7269 182.358 79.2229 189.613 79.4343 196.919L43.7448 197.952Z" stroke="#F0E5FC" stroke-width="46.4014" mask="url(#path-3-inside-1_89_1033)"/>
<mask id="path-4-inside-2_89_1033" fill="white">
<path d="M76.6784 129.419C89.4411 119.657 104.777 113.835 120.803 112.669C136.829 111.502 152.846 115.042 166.888 122.854L149.53 154.055C141.567 149.625 132.483 147.618 123.395 148.279C114.306 148.94 105.609 152.242 98.3705 157.778L76.6784 129.419Z"/>
</mask>
<path d="M76.6784 129.419C89.4411 119.657 104.777 113.835 120.803 112.669C136.829 111.502 152.846 115.042 166.888 122.854L149.53 154.055C141.567 149.625 132.483 147.618 123.395 148.279C114.306 148.94 105.609 152.242 98.3705 157.778L76.6784 129.419Z" stroke="#C893FD" stroke-width="46.4014" mask="url(#path-4-inside-2_89_1033)"/>
<mask id="path-5-inside-3_89_1033" fill="white">
<path d="M168.047 123.639C178.041 129.247 186.757 136.876 193.639 146.039L165.09 167.48C161.187 162.283 156.244 157.957 150.576 154.777L168.047 123.639Z"/>
</mask>
<path d="M168.047 123.639C178.041 129.247 186.757 136.876 193.639 146.039L165.09 167.48C161.187 162.283 156.244 157.957 150.576 154.777L168.047 123.639Z" stroke="#E5EAFC" stroke-width="46.4014" mask="url(#path-5-inside-3_89_1033)"/>
<mask id="path-6-inside-4_89_1033" fill="white">
<path d="M194.638 147.584C204.246 160.731 209.748 176.428 210.45 192.696L174.778 194.235C174.38 185.009 171.26 176.107 165.811 168.651L194.638 147.584Z"/>
</mask>
<path d="M194.638 147.584C204.246 160.731 209.748 176.428 210.45 192.696L174.778 194.235C174.38 185.009 171.26 176.107 165.811 168.651L194.638 147.584Z" stroke="#C6D2FD" stroke-width="46.4014" mask="url(#path-6-inside-4_89_1033)"/>
</g>
<path d="M142.927 99.9673C146.258 99.871 149.035 102.493 149.132 105.823L149.538 119.868C149.634 123.199 147.013 125.976 143.683 126.073L130.394 126.457L125.834 130.608C125.495 130.916 124.981 130.931 124.625 130.643L119.832 126.763L106.544 127.147C103.214 127.243 100.436 124.622 100.34 121.292L99.9335 107.246C99.8371 103.916 102.459 101.138 105.789 101.042L142.927 99.9673Z" fill="#1E1B39"/>
<path d="M113.541 117.488C113 117.503 112.516 117.424 112.088 117.251C111.662 117.074 111.322 116.825 111.069 116.504C110.817 116.18 110.682 115.802 110.662 115.37L112.242 115.324C112.257 115.505 112.321 115.663 112.434 115.797C112.549 115.929 112.699 116.03 112.885 116.1C113.07 116.169 113.278 116.201 113.508 116.194C113.747 116.187 113.957 116.139 114.138 116.049C114.319 115.959 114.46 115.838 114.559 115.685C114.659 115.532 114.706 115.358 114.7 115.162C114.694 114.964 114.634 114.791 114.518 114.642C114.405 114.49 114.244 114.374 114.037 114.293C113.831 114.212 113.588 114.175 113.308 114.183L112.616 114.203L112.583 113.051L113.275 113.031C113.511 113.024 113.719 112.977 113.898 112.89C114.079 112.802 114.218 112.685 114.316 112.537C114.413 112.387 114.459 112.214 114.453 112.018C114.448 111.832 114.398 111.67 114.305 111.533C114.214 111.393 114.087 111.285 113.926 111.21C113.766 111.135 113.581 111.1 113.371 111.106C113.159 111.112 112.965 111.157 112.791 111.239C112.617 111.319 112.479 111.431 112.377 111.574C112.274 111.717 112.222 111.883 112.221 112.072L110.717 112.115C110.712 111.687 110.823 111.307 111.05 110.974C111.277 110.641 111.589 110.377 111.985 110.182C112.383 109.984 112.835 109.878 113.343 109.863C113.855 109.848 114.306 109.928 114.695 110.103C115.085 110.278 115.39 110.521 115.612 110.831C115.836 111.139 115.952 111.489 115.961 111.88C115.976 112.295 115.857 112.646 115.604 112.931C115.353 113.216 115.021 113.403 114.608 113.489L114.61 113.547C115.158 113.602 115.579 113.779 115.873 114.08C116.169 114.379 116.323 114.759 116.334 115.22C116.348 115.643 116.237 116.022 116 116.358C115.766 116.693 115.436 116.962 115.012 117.162C114.587 117.363 114.097 117.472 113.541 117.488ZM118.975 116.214L118.947 116.613C118.925 116.933 118.874 117.253 118.793 117.572C118.716 117.893 118.632 118.184 118.543 118.446C118.456 118.707 118.386 118.912 118.332 119.061L117.332 119.09C117.364 118.946 117.408 118.746 117.464 118.488C117.519 118.232 117.57 117.945 117.616 117.627C117.663 117.309 117.688 116.986 117.693 116.657L117.7 116.251L118.975 116.214ZM120.251 115.887L120.216 114.651L123.173 109.68L124.238 109.65L124.288 111.36L123.657 111.378L121.793 114.525L121.795 114.583L126.198 114.456L126.234 115.714L120.251 115.887ZM123.851 117.088L123.803 115.407L123.816 114.859L123.666 109.666L125.137 109.624L125.351 117.045L123.851 117.088ZM130.031 117.011C129.518 117.026 129.059 116.945 128.653 116.768C128.249 116.591 127.925 116.34 127.681 116.016C127.437 115.692 127.304 115.316 127.282 114.889L128.804 114.845C128.829 115.132 128.957 115.362 129.186 115.534C129.416 115.706 129.686 115.788 129.995 115.779C130.241 115.772 130.457 115.711 130.642 115.597C130.83 115.48 130.974 115.323 131.075 115.124C131.178 114.923 131.226 114.694 131.218 114.438C131.211 114.177 131.148 113.949 131.032 113.754C130.917 113.559 130.762 113.409 130.565 113.303C130.369 113.198 130.146 113.148 129.897 113.152C129.68 113.159 129.47 113.209 129.267 113.305C129.067 113.4 128.912 113.527 128.803 113.684L127.401 113.475L127.639 109.551L132.176 109.42L132.213 110.703L128.97 110.796L128.831 112.661L128.875 112.66C129 112.472 129.192 112.314 129.452 112.186C129.712 112.058 130.005 111.989 130.331 111.979C130.778 111.966 131.18 112.06 131.536 112.26C131.892 112.46 132.177 112.741 132.391 113.102C132.604 113.461 132.717 113.878 132.728 114.354C132.745 114.854 132.642 115.302 132.419 115.698C132.198 116.091 131.882 116.405 131.47 116.639C131.061 116.871 130.581 116.995 130.031 117.011ZM136.808 116.876C136.185 116.892 135.644 116.754 135.186 116.463C134.731 116.171 134.374 115.74 134.115 115.17C133.859 114.6 133.721 113.908 133.7 113.097C133.677 112.287 133.776 111.594 133.999 111.017C134.224 110.44 134.556 109.997 134.994 109.687C135.435 109.374 135.965 109.209 136.586 109.191C137.207 109.173 137.745 109.307 138.201 109.594C138.659 109.88 139.017 110.305 139.275 110.868C139.533 111.429 139.672 112.114 139.693 112.923C139.717 113.737 139.616 114.437 139.391 115.021C139.169 115.605 138.839 116.056 138.401 116.373C137.962 116.691 137.432 116.858 136.808 116.876ZM136.771 115.576C137.196 115.563 137.529 115.34 137.771 114.905C138.012 114.47 138.119 113.825 138.092 112.97C138.075 112.407 138.004 111.94 137.877 111.569C137.753 111.198 137.583 110.921 137.367 110.738C137.154 110.556 136.906 110.469 136.623 110.477C136.201 110.489 135.869 110.711 135.627 111.141C135.386 111.571 135.276 112.207 135.298 113.05C135.314 113.621 135.385 114.095 135.51 114.473C135.636 114.849 135.808 115.13 136.023 115.314C136.239 115.497 136.488 115.584 136.771 115.576Z" fill="white"/>
<path d="M31.1777 69.9354L31.1588 69.2832L35.7127 69.1514L35.7316 69.8037L33.8223 69.8589L33.979 75.2785L33.2438 75.2998L33.087 69.8802L31.1777 69.9354ZM36.9282 75.1932L36.7965 70.6393L37.4962 70.6191L37.6279 75.1729L36.9282 75.1932ZM37.1303 69.87C36.9939 69.874 36.875 69.8309 36.7735 69.7409C36.6739 69.6508 36.6223 69.5405 36.6185 69.4101C36.6147 69.2796 36.6599 69.1666 36.7541 69.0709C36.8502 68.9751 36.9665 68.9253 37.1029 68.9213C37.2393 68.9174 37.3572 68.9604 37.4567 69.0505C37.5583 69.1406 37.6109 69.2508 37.6147 69.3813C37.6185 69.5117 37.5723 69.6248 37.4761 69.7206C37.382 69.8163 37.2667 69.8661 37.1303 69.87ZM39.5137 73.4567L39.4768 72.5914L39.6191 72.5872L41.5527 70.5017L42.4184 70.4767L40.3578 72.6846L40.2985 72.6863L39.5137 73.4567ZM38.9094 75.1359L38.7338 69.064L39.4335 69.0438L39.6091 75.1156L38.9094 75.1359ZM41.803 75.0522L39.959 72.8504L40.443 72.3498L42.6925 75.0264L41.803 75.0522ZM42.5839 69.6055L42.565 68.9532L47.1189 68.8215L47.1377 69.4737L45.2284 69.529L45.3852 74.9485L44.6499 74.9698L44.4932 69.5502L42.5839 69.6055ZM49.5268 74.9237C49.1156 74.9356 48.7521 74.8482 48.4361 74.6615C48.1221 74.4747 47.8731 74.2079 47.689 73.8612C47.5068 73.5143 47.409 73.1057 47.3954 72.6353C47.3816 72.1609 47.4556 71.7444 47.6174 71.3856C47.7811 71.0268 48.0142 70.7451 48.3169 70.5405C48.6216 70.3358 48.9794 70.2275 49.3906 70.2156C49.8017 70.2038 50.1642 70.2912 50.4782 70.4779C50.7942 70.6646 51.0433 70.9324 51.2255 71.2812C51.4096 71.63 51.5086 72.0415 51.5223 72.5159C51.5359 72.9863 51.4608 73.3999 51.2971 73.7568C51.1353 74.1136 50.9021 74.3943 50.5974 74.599C50.2948 74.8035 49.9379 74.9118 49.5268 74.9237ZM49.5086 74.2952C49.8209 74.2861 50.0755 74.1986 50.2725 74.0327C50.4694 73.8668 50.6126 73.652 50.7019 73.3883C50.7912 73.1246 50.8314 72.8405 50.8226 72.5361C50.8138 72.2318 50.7572 71.9495 50.6527 71.6895C50.5483 71.4294 50.3929 71.2212 50.1866 71.065C49.9803 70.9087 49.721 70.8351 49.4087 70.8442C49.0965 70.8532 48.8419 70.9417 48.6449 71.1096C48.448 71.2775 48.3049 71.4943 48.2157 71.76C48.1265 72.0256 48.0862 72.3107 48.095 72.615C48.1038 72.9194 48.1604 73.2007 48.2648 73.4588C48.3692 73.7169 48.5246 73.923 48.7308 74.0773C48.937 74.2316 49.1963 74.3042 49.5086 74.2952ZM53.2598 73.0591L53.2229 72.1937L53.3652 72.1896L55.2988 70.1041L56.1645 70.079L54.1039 72.2869L54.0446 72.2886L53.2598 73.0591ZM52.6555 74.7382L52.4799 68.6664L53.1796 68.6462L53.3552 74.718L52.6555 74.7382ZM55.5491 74.6545L53.7051 72.4528L54.1891 71.9521L56.4386 74.6288L55.5491 74.6545Z" fill="#615E83"/>
<circle cx="23.8267" cy="72.2108" r="3.29817" transform="rotate(-1.65696 23.8267 72.2108)" fill="#F0E5FC"/>
<path d="M75.1637 67.8077L75.3393 73.8795L74.604 73.9008L74.4284 67.829L75.1637 67.8077ZM77.3391 71.08L77.4183 73.8194L76.7186 73.8396L76.5869 69.2858L77.2629 69.2662L77.2835 69.9778L77.3428 69.976C77.4428 69.7417 77.5995 69.5512 77.8129 69.4046C78.0262 69.256 78.3048 69.1767 78.6487 69.1668C78.957 69.1579 79.2286 69.2133 79.4635 69.3331C79.6984 69.4509 79.8837 69.6355 80.0196 69.8867C80.1554 70.136 80.2289 70.4543 80.2401 70.8417L80.3238 73.7353L79.6241 73.7556L79.5418 70.9094C79.5314 70.5517 79.4305 70.2757 79.2389 70.0814C79.0473 69.8852 78.7894 69.7918 78.4652 69.8011C78.2419 69.8076 78.0437 69.8618 77.8706 69.9637C77.6994 70.0656 77.5662 70.2109 77.4707 70.3996C77.3753 70.5883 77.3314 70.8151 77.3391 71.08ZM84.7258 70.0711L84.1024 70.2671C84.0598 70.1635 83.9986 70.0634 83.9186 69.9668C83.8406 69.8682 83.7354 69.7881 83.6031 69.7267C83.4708 69.6652 83.3028 69.6375 83.0992 69.6434C82.8205 69.6514 82.5902 69.7224 82.4081 69.8562C82.2279 69.988 82.1407 70.1518 82.1463 70.3474C82.1514 70.5214 82.2186 70.6569 82.348 70.7541C82.4774 70.8512 82.6775 70.9295 82.9482 70.9889L83.629 71.1354C84.039 71.2224 84.3468 71.3649 84.5523 71.5627C84.7578 71.7585 84.8651 72.0155 84.8743 72.3337C84.8819 72.5946 84.8135 72.83 84.6692 73.0399C84.5269 73.2498 84.3241 73.4179 84.0607 73.5442C83.7973 73.6705 83.4887 73.7387 83.1349 73.749C82.6704 73.7624 82.2831 73.6727 81.9729 73.4799C81.6627 73.2871 81.4614 72.9982 81.3692 72.6132L82.0285 72.4279C82.0988 72.6712 82.2237 72.8515 82.4032 72.969C82.5846 73.0864 82.8186 73.1409 83.1052 73.1326C83.4313 73.1232 83.6882 73.0465 83.876 72.9026C84.0656 72.7567 84.1576 72.5859 84.1519 72.3902C84.1474 72.2321 84.0882 72.1013 83.9744 71.9978C83.8606 71.8923 83.6883 71.8161 83.4574 71.7694L82.6933 71.6135C82.2734 71.5267 81.9626 71.3824 81.761 71.1805C81.5612 70.9766 81.4568 70.7175 81.4477 70.4033C81.4402 70.1463 81.5058 69.9169 81.6444 69.7151C81.7849 69.5132 81.9791 69.3523 82.2268 69.2324C82.4766 69.1124 82.7615 69.0478 83.0817 69.0385C83.5324 69.0255 83.889 69.1141 84.1517 69.3043C84.4163 69.4945 84.6077 69.7501 84.7258 70.0711ZM87.813 68.961L87.8301 69.554L85.4702 69.6222L85.453 69.0293L87.813 68.961ZM86.1093 67.9184L86.809 67.8981L86.9345 72.2385C86.9402 72.4362 86.9732 72.5836 87.0334 72.6808C87.0955 72.7759 87.1725 72.8389 87.2643 72.8699C87.3582 72.8988 87.4565 72.9118 87.5592 72.9089C87.6363 72.9066 87.6995 72.9008 87.7486 72.8915C87.7978 72.8802 87.8371 72.8711 87.8665 72.8644L88.027 73.4888C87.9801 73.5079 87.9144 73.5276 87.8299 73.5479C87.7455 73.5701 87.6381 73.5831 87.5076 73.5869C87.31 73.5926 87.1151 73.5557 86.9229 73.4762C86.7326 73.3966 86.5727 73.2717 86.4432 73.1014C86.3156 72.931 86.248 72.7134 86.2403 72.4485L86.1093 67.9184ZM90.3403 73.5524C90.0518 73.5608 89.7883 73.514 89.55 73.4121C89.3116 73.3082 89.1202 73.1545 88.9758 72.951C88.8314 72.7455 88.7549 72.4945 88.7463 72.198C88.7388 71.9371 88.7841 71.7241 88.8821 71.5591C88.9802 71.392 89.1138 71.2596 89.2831 71.1617C89.4524 71.0639 89.6401 70.9892 89.8463 70.9377C90.0545 70.8842 90.2639 70.8406 90.4746 70.8068C90.7502 70.7632 90.9738 70.73 91.1452 70.7073C91.3186 70.6825 91.4442 70.6462 91.5219 70.5985C91.6016 70.5507 91.6399 70.4704 91.6366 70.3578L91.6359 70.3341C91.6275 70.0415 91.5408 69.8165 91.376 69.6591C91.2132 69.5016 90.9707 69.4275 90.6486 69.4368C90.3145 69.4465 90.0548 69.5272 89.8693 69.679C89.6837 69.8307 89.5549 69.9907 89.4826 70.159L88.8116 69.941C88.9222 69.6609 89.0741 69.4408 89.2673 69.281C89.4624 69.119 89.6766 69.004 89.9101 68.936C90.1454 68.8659 90.3777 68.8275 90.607 68.8209C90.7533 68.8166 90.9218 68.8295 91.1126 68.8596C91.3053 68.8877 91.4921 68.9525 91.6731 69.0541C91.856 69.1556 92.0099 69.3124 92.1347 69.5244C92.2596 69.7364 92.3272 70.0233 92.3377 70.385L92.4244 73.3853L91.7248 73.4055L91.7069 72.7889L91.6714 72.7899C91.6268 72.8901 91.5508 72.9981 91.4433 73.114C91.3359 73.2299 91.1914 73.33 91.0099 73.4144C90.8284 73.4987 90.6052 73.5447 90.3403 73.5524ZM90.4289 72.9208C90.7056 72.9128 90.9373 72.8517 91.1239 72.7375C91.3124 72.6232 91.4527 72.4787 91.5445 72.304C91.6384 72.1292 91.6826 71.9469 91.6771 71.7571L91.6586 71.1167C91.6299 71.1532 91.5657 71.1877 91.4657 71.2202C91.3677 71.2508 91.2538 71.2788 91.1239 71.3043C90.996 71.3278 90.8711 71.3492 90.749 71.3686C90.6288 71.3859 90.5313 71.4006 90.4565 71.4126C90.2753 71.4416 90.1065 71.4851 89.9499 71.543C89.7952 71.5989 89.671 71.6807 89.5772 71.7882C89.4853 71.8937 89.4419 72.0354 89.447 72.2133C89.4541 72.4564 89.5493 72.6376 89.7328 72.757C89.9182 72.8742 90.1502 72.9289 90.4289 72.9208ZM95.5918 75.0978C95.2538 75.1075 94.962 75.0725 94.7164 74.9925C94.4708 74.9146 94.265 74.8078 94.0988 74.6721C93.9347 74.5384 93.803 74.3938 93.7035 74.2385L94.2496 73.831C94.3152 73.9122 94.398 74.0047 94.498 74.1087C94.598 74.2146 94.7331 74.3046 94.9034 74.3788C95.0757 74.455 95.2992 74.489 95.574 74.4811C95.9416 74.4705 96.2424 74.3727 96.4764 74.1879C96.7104 74.0031 96.822 73.721 96.811 73.3415L96.7842 72.4165L96.7249 72.4182C96.6759 72.5027 96.6058 72.6076 96.5145 72.7329C96.4251 72.8561 96.2938 72.9677 96.1206 73.0677C95.9494 73.1656 95.7155 73.2189 95.419 73.2275C95.0514 73.2381 94.7188 73.1607 94.4212 72.9952C94.1257 72.8297 93.8881 72.5833 93.7085 72.2562C93.5309 71.929 93.4352 71.5282 93.4215 71.0539C93.408 70.5874 93.4783 70.1789 93.6323 69.8282C93.7863 69.4756 94.0068 69.2002 94.2939 69.002C94.5808 68.8018 94.916 68.6962 95.2995 68.6851C95.596 68.6765 95.8326 68.7191 96.0094 68.8129C96.1881 68.9047 96.3257 69.0115 96.4222 69.1333C96.5206 69.2531 96.5967 69.3518 96.6503 69.4294L96.7215 69.4273L96.7006 68.7039L97.3765 68.6844L97.512 73.3687C97.5234 73.76 97.4436 74.0808 97.2728 74.3311C97.1041 74.5832 96.8721 74.7709 96.577 74.8942C96.2839 75.0194 95.9555 75.0872 95.5918 75.0978ZM95.4957 72.5962C95.7764 72.5881 96.0117 72.517 96.2017 72.3829C96.3917 72.2488 96.5336 72.0598 96.6274 71.8157C96.7212 71.5717 96.7633 71.2816 96.7535 70.9456C96.7441 70.6175 96.6863 70.3294 96.5802 70.0812C96.4741 69.8331 96.3221 69.6407 96.1243 69.5039C95.9265 69.3672 95.6853 69.303 95.4007 69.3112C95.1042 69.3198 94.8593 69.4021 94.666 69.558C94.4747 69.7139 94.3333 69.9197 94.2418 70.1756C94.1522 70.4314 94.1119 70.7134 94.1208 71.0218C94.13 71.338 94.1875 71.6163 94.2934 71.8565C94.4011 72.0947 94.5549 72.2802 94.7545 72.4129C94.9561 72.5436 95.2032 72.6047 95.4957 72.5962ZM98.789 73.2012L98.6573 68.6473L99.3333 68.6278L99.3532 69.3156L99.4006 69.3142C99.4771 69.0865 99.622 68.8993 99.8354 68.7527C100.049 68.6061 100.292 68.5288 100.565 68.5209C100.616 68.5195 100.68 68.5186 100.757 68.5183C100.834 68.5181 100.893 68.5194 100.933 68.5222L100.953 69.2337C100.929 69.2285 100.875 69.2211 100.789 69.2117C100.706 69.2003 100.618 69.1959 100.525 69.1986C100.303 69.205 100.107 69.2572 99.9359 69.3551C99.7666 69.451 99.6338 69.5814 99.5377 69.7464C99.4435 69.9094 99.3994 70.0936 99.4054 70.2992L99.4887 73.1809L98.789 73.2012ZM103.239 73.1793C102.95 73.1876 102.686 73.1409 102.448 73.039C102.21 72.9351 102.018 72.7814 101.874 72.5778C101.73 72.3723 101.653 72.1213 101.645 71.8249C101.637 71.564 101.682 71.351 101.78 71.186C101.878 71.0189 102.012 70.8865 102.181 70.7886C102.351 70.6907 102.538 70.6161 102.745 70.5646C102.953 70.5111 103.162 70.4675 103.373 70.4337C103.648 70.3901 103.872 70.3569 104.043 70.3342C104.217 70.3094 104.342 70.2731 104.42 70.2254C104.5 70.1776 104.538 70.0973 104.535 69.9847L104.534 69.9609C104.526 69.6684 104.439 69.4434 104.274 69.286C104.111 69.1285 103.869 69.0544 103.547 69.0637C103.213 69.0734 102.953 69.1541 102.767 69.3058C102.582 69.4576 102.453 69.6176 102.381 69.7859L101.71 69.5679C101.82 69.2877 101.972 69.0677 102.165 68.9078C102.361 68.7459 102.575 68.6309 102.808 68.5629C103.044 68.4927 103.276 68.4544 103.505 68.4477C103.651 68.4435 103.82 68.4564 104.011 68.4865C104.203 68.5146 104.39 68.5794 104.571 68.681C104.754 68.7825 104.908 68.9393 105.033 69.1513C105.158 69.3633 105.225 69.6502 105.236 70.0119L105.323 73.0122L104.623 73.0324L104.605 72.4158L104.57 72.4168C104.525 72.517 104.449 72.625 104.342 72.7409C104.234 72.8567 104.09 72.9569 103.908 73.0412C103.727 73.1256 103.503 73.1716 103.239 73.1793ZM103.327 72.5477C103.604 72.5397 103.835 72.4786 104.022 72.3644C104.211 72.2501 104.351 72.1056 104.443 71.9309C104.537 71.756 104.581 71.5738 104.575 71.384L104.557 70.7436C104.528 70.7801 104.464 70.8146 104.364 70.8471C104.266 70.8777 104.152 70.9057 104.022 70.9312C103.894 70.9547 103.769 70.9761 103.647 70.9955C103.527 71.0128 103.429 71.0275 103.355 71.0395C103.174 71.0685 103.005 71.112 102.848 71.1699C102.693 71.2258 102.569 71.3075 102.475 71.4151C102.383 71.5206 102.34 71.6623 102.345 71.8402C102.352 72.0833 102.448 72.2645 102.631 72.3838C102.816 72.5011 103.048 72.5557 103.327 72.5477ZM106.6 72.9752L106.468 68.4214L107.144 68.4018L107.165 69.1134L107.224 69.1117C107.312 68.8658 107.459 68.6726 107.667 68.5321C107.875 68.3896 108.127 68.3141 108.423 68.3055C108.723 68.2968 108.975 68.3577 109.179 68.4884C109.384 68.6169 109.547 68.8011 109.667 69.041L109.714 69.0396C109.824 68.801 109.994 68.6092 110.223 68.4641C110.452 68.317 110.73 68.2388 111.056 68.2293C111.463 68.2175 111.8 68.3354 112.066 68.5829C112.332 68.8284 112.473 69.2189 112.488 69.7546L112.577 72.8023L111.877 72.8226L111.789 69.7748C111.779 69.4388 111.68 69.2013 111.492 69.0624C111.304 68.9234 111.086 68.8575 110.837 68.8647C110.517 68.874 110.271 68.978 110.101 69.1768C109.931 69.3736 109.85 69.6193 109.858 69.9137L109.944 72.8785L109.232 72.8991L109.142 69.7802C109.135 69.5212 109.045 69.3152 108.872 69.1619C108.699 69.0067 108.481 68.9329 108.216 68.9405C108.034 68.9458 107.865 68.9991 107.71 69.1006C107.557 69.2019 107.434 69.34 107.342 69.5147C107.252 69.6875 107.211 69.8855 107.217 70.1088L107.299 72.955L106.6 72.9752Z" fill="#615E83"/>
<circle cx="66.7642" cy="70.7664" r="3.29817" transform="rotate(-1.65696 66.7642 70.7664)" fill="#C893FD"/>
<path d="M134.604 71.9057L134.428 65.8339L138.069 65.7285L138.088 66.3808L135.183 66.4648L135.242 68.5164L137.875 68.4403L137.893 69.0925L135.261 69.1687L135.339 71.8844L134.604 71.9057ZM140.752 71.8346C140.464 71.843 140.2 71.7962 139.962 71.6943C139.724 71.5904 139.532 71.4367 139.388 71.2332C139.243 71.0277 139.167 70.7767 139.158 70.4802C139.151 70.2193 139.196 70.0064 139.294 69.8413C139.392 69.6743 139.526 69.5418 139.695 69.444C139.864 69.3461 140.052 69.2714 140.258 69.22C140.466 69.1665 140.676 69.1228 140.887 69.089C141.162 69.0455 141.386 69.0123 141.557 68.9895C141.731 68.9647 141.856 68.9285 141.934 68.8807C142.014 68.8329 142.052 68.7527 142.049 68.64L142.048 68.6163C142.039 68.3238 141.953 68.0988 141.788 67.9413C141.625 67.7838 141.383 67.7098 141.061 67.7191C140.727 67.7287 140.467 67.8094 140.281 67.9612C140.096 68.1129 139.967 68.2729 139.895 68.4412L139.224 68.2232C139.334 67.9431 139.486 67.7231 139.679 67.5632C139.874 67.4013 140.089 67.2863 140.322 67.2182C140.557 67.1481 140.79 67.1097 141.019 67.1031C141.165 67.0989 141.334 67.1118 141.525 67.1419C141.717 67.1699 141.904 67.2348 142.085 67.3363C142.268 67.4379 142.422 67.5946 142.547 67.8066C142.672 68.0187 142.739 68.3055 142.75 68.6672L142.836 71.6675L142.137 71.6878L142.119 71.0711L142.083 71.0721C142.039 71.1723 141.963 71.2804 141.855 71.3962C141.748 71.5121 141.603 71.6122 141.422 71.6966C141.24 71.781 141.017 71.827 140.752 71.8346ZM140.841 71.203C141.118 71.195 141.349 71.1339 141.536 71.0197C141.724 70.9055 141.865 70.761 141.957 70.5862C142.05 70.4114 142.095 70.2291 142.089 70.0394L142.071 69.399C142.042 69.4354 141.978 69.4699 141.878 69.5025C141.78 69.533 141.666 69.561 141.536 69.5866C141.408 69.61 141.283 69.6315 141.161 69.6508C141.041 69.6681 140.943 69.6828 140.868 69.6949C140.687 69.7239 140.518 69.7673 140.362 69.8253C140.207 69.8812 140.083 69.9629 139.989 70.0704C139.897 70.176 139.854 70.3177 139.859 70.4956C139.866 70.7387 139.961 70.9199 140.145 71.0392C140.33 71.1565 140.562 71.2111 140.841 71.203ZM145.966 71.672C145.539 71.6843 145.169 71.5941 144.855 71.4015C144.54 71.2088 144.295 70.9379 144.119 70.5889C143.943 70.2399 143.848 69.8382 143.835 69.3836C143.821 68.9211 143.895 68.5104 144.054 68.1517C144.216 67.791 144.447 67.5064 144.748 67.2979C145.05 67.0874 145.407 66.9762 145.818 66.9643C146.138 66.955 146.429 67.0059 146.689 67.1171C146.949 67.2283 147.165 67.3882 147.335 67.5969C147.505 67.8056 147.614 68.0517 147.662 68.3352L146.962 68.3554C146.903 68.1495 146.779 67.9691 146.591 67.8143C146.404 67.6575 146.157 67.5835 145.848 67.5924C145.575 67.6003 145.338 67.6784 145.137 67.8267C144.937 67.9729 144.784 68.1761 144.677 68.4364C144.572 68.6946 144.524 68.9957 144.534 69.3396C144.544 69.6914 144.608 69.9962 144.726 70.2539C144.847 70.5115 145.011 70.7095 145.218 70.8479C145.428 70.9863 145.671 71.0514 145.948 71.0434C146.13 71.0382 146.294 71.0018 146.44 70.9342C146.587 70.8667 146.71 70.7721 146.809 70.6506C146.908 70.529 146.977 70.3846 147.016 70.2173L147.716 70.1971C147.684 70.467 147.593 70.712 147.443 70.9319C147.295 71.1498 147.096 71.3257 146.844 71.4596C146.595 71.5915 146.302 71.6622 145.966 71.672ZM150.689 71.5353C150.25 71.548 149.869 71.4621 149.545 71.2776C149.223 71.0911 148.971 70.8254 148.789 70.4805C148.609 70.1336 148.512 69.727 148.499 69.2605C148.485 68.7941 148.558 68.3805 148.718 68.0198C148.88 67.6571 149.111 67.3715 149.411 67.163C149.714 66.9525 150.071 66.8413 150.482 66.8294C150.719 66.8225 150.954 66.8553 151.188 66.9276C151.421 67 151.636 67.1224 151.83 67.2948C152.025 67.4652 152.183 67.694 152.304 67.9813C152.425 68.2686 152.492 68.6247 152.504 69.0497L152.513 69.3462L149.003 69.4477L148.985 68.8429L151.784 68.7619C151.776 68.505 151.718 68.2772 151.61 68.0786C151.503 67.8799 151.354 67.725 151.163 67.6138C150.974 67.5025 150.753 67.4506 150.5 67.4579C150.221 67.4659 149.982 67.5421 149.783 67.6863C149.585 67.8286 149.435 68.0109 149.333 68.2335C149.23 68.456 149.183 68.6928 149.19 68.9438L149.202 69.347C149.211 69.6909 149.279 69.9807 149.405 70.2165C149.532 70.4502 149.704 70.6262 149.921 70.7445C150.138 70.8609 150.388 70.915 150.671 70.9068C150.855 70.9015 151.02 70.871 151.167 70.8153C151.315 70.7576 151.443 70.6748 151.548 70.5669C151.654 70.457 151.734 70.3222 151.789 70.1623L152.47 70.3325C152.406 70.5639 152.292 70.7689 152.129 70.9477C151.966 71.1245 151.762 71.2649 151.518 71.3689C151.274 71.4709 150.997 71.5264 150.689 71.5353ZM153.731 71.3524L153.556 65.2806L154.255 65.2603L154.32 67.5017L154.379 67.5C154.428 67.4194 154.497 67.3166 154.584 67.1914C154.673 67.0642 154.803 66.9497 154.972 66.8478C155.143 66.744 155.377 66.6878 155.673 66.6792C156.056 66.6681 156.397 66.7542 156.695 66.9374C156.993 67.1207 157.23 67.3859 157.404 67.7329C157.578 68.08 157.672 68.4927 157.686 68.971C157.7 69.4533 157.63 69.8737 157.476 70.2322C157.322 70.5888 157.103 70.8681 156.818 71.0702C156.533 71.2704 156.201 71.3759 155.821 71.3869C155.529 71.3953 155.293 71.3537 155.114 71.2619C154.935 71.1682 154.797 71.0604 154.698 70.9387C154.6 70.8149 154.524 70.7123 154.47 70.6307L154.387 70.6331L154.407 71.3328L153.731 71.3524ZM154.353 69.0556C154.363 69.3995 154.422 69.7014 154.531 69.9614C154.639 70.2193 154.792 70.4197 154.99 70.5623C155.188 70.7029 155.427 70.7692 155.708 70.7611C156.001 70.7526 156.242 70.6685 156.434 70.5087C156.627 70.3468 156.769 70.133 156.86 69.8673C156.953 69.5995 156.995 69.3035 156.986 68.9794C156.977 68.6592 156.919 68.3721 156.813 68.118C156.708 67.8619 156.555 67.6615 156.353 67.517C156.153 67.3705 155.905 67.3015 155.608 67.3101C155.324 67.3184 155.087 67.3974 154.897 67.5473C154.707 67.6952 154.567 67.8991 154.476 68.1589C154.384 68.4167 154.343 68.7156 154.353 69.0556ZM160.674 71.2465C160.263 71.2584 159.9 71.171 159.584 70.9843C159.27 70.7975 159.021 70.5308 158.837 70.184C158.654 69.8371 158.557 69.4285 158.543 68.9581C158.529 68.4837 158.603 68.0672 158.765 67.7084C158.929 67.3496 159.162 67.0679 159.465 66.8633C159.769 66.6586 160.127 66.5503 160.538 66.5385C160.949 66.5266 161.312 66.614 161.626 66.8007C161.942 66.9874 162.191 67.2552 162.373 67.604C162.557 67.9528 162.656 68.3643 162.67 68.8387C162.684 69.3091 162.608 69.7227 162.445 70.0796C162.283 70.4364 162.05 70.7171 161.745 70.9218C161.442 71.1264 161.086 71.2346 160.674 71.2465ZM160.656 70.618C160.969 70.6089 161.223 70.5214 161.42 70.3555C161.617 70.1896 161.76 69.9748 161.85 69.7111C161.939 69.4474 161.979 69.1633 161.97 68.8589C161.961 68.5546 161.905 68.2723 161.8 68.0123C161.696 67.7522 161.541 67.544 161.334 67.3878C161.128 67.2315 160.869 67.1579 160.556 67.167C160.244 67.176 159.99 67.2645 159.793 67.4324C159.596 67.6003 159.453 67.8171 159.363 68.0828C159.274 68.3484 159.234 68.6335 159.243 68.9378C159.251 69.2422 159.308 69.5235 159.412 69.7816C159.517 70.0397 159.672 70.2458 159.878 70.4001C160.085 70.5544 160.344 70.627 160.656 70.618ZM165.656 71.1024C165.245 71.1143 164.881 71.0269 164.565 70.8402C164.251 70.6534 164.002 70.3866 163.818 70.0399C163.636 69.693 163.538 69.2844 163.525 68.814C163.511 68.3396 163.585 67.9231 163.747 67.5643C163.91 67.2055 164.143 66.9238 164.446 66.7192C164.751 66.5145 165.109 66.4062 165.52 66.3943C165.931 66.3825 166.293 66.4699 166.607 66.6566C166.923 66.8433 167.172 67.1111 167.355 67.4599C167.539 67.8087 167.638 68.2202 167.651 68.6946C167.665 69.165 167.59 69.5786 167.426 69.9355C167.264 70.2923 167.031 70.573 166.727 70.7777C166.424 70.9822 166.067 71.0905 165.656 71.1024ZM165.638 70.4739C165.95 70.4648 166.205 70.3773 166.402 70.2114C166.599 70.0455 166.742 69.8307 166.831 69.567C166.92 69.3033 166.961 69.0192 166.952 68.7148C166.943 68.4105 166.886 68.1282 166.782 67.8682C166.677 67.6081 166.522 67.3999 166.316 67.2437C166.11 67.0874 165.85 67.0138 165.538 67.0229C165.226 67.0319 164.971 67.1204 164.774 67.2883C164.577 67.4562 164.434 67.673 164.345 67.9387C164.256 68.2043 164.215 68.4894 164.224 68.7937C164.233 69.0981 164.29 69.3794 164.394 69.6375C164.498 69.8956 164.654 70.1017 164.86 70.256C165.066 70.4103 165.325 70.4829 165.638 70.4739ZM169.389 69.2378L169.352 68.3724L169.494 68.3683L171.428 66.2828L172.294 66.2577L170.233 68.4656L170.174 68.4673L169.389 69.2378ZM168.785 70.9169L168.609 64.8451L169.309 64.8249L169.484 70.8967L168.785 70.9169ZM171.678 70.8332L169.834 68.6315L170.318 68.1308L172.568 70.8075L171.678 70.8332Z" fill="#615E83"/>
<circle cx="126.764" cy="68.7711" r="3.29817" transform="rotate(-1.65696 126.764 68.7711)" fill="#E5EAFC"/>
<path d="M197.763 64.0015L198.605 63.9772L200.371 66.7628L200.442 66.7607L202.044 63.8777L202.886 63.8533L200.796 67.4864L200.868 69.9886L200.133 70.0099L200.06 67.5076L197.763 64.0015ZM205.127 69.9604C204.716 69.9723 204.352 69.8849 204.036 69.6982C203.722 69.5114 203.473 69.2447 203.289 68.8979C203.107 68.551 203.009 68.1424 202.995 67.672C202.982 67.1976 203.056 66.7811 203.217 66.4223C203.381 66.0635 203.614 65.7818 203.917 65.5772C204.222 65.3725 204.579 65.2642 204.991 65.2524C205.402 65.2405 205.764 65.3279 206.078 65.5147C206.394 65.7013 206.643 65.9691 206.825 66.3179C207.01 66.6667 207.109 67.0783 207.122 67.5526C207.136 68.023 207.061 68.4366 206.897 68.7935C206.735 69.1503 206.502 69.431 206.197 69.6357C205.895 69.8403 205.538 69.9485 205.127 69.9604ZM205.109 69.3319C205.421 69.3228 205.675 69.2353 205.872 69.0694C206.069 68.9035 206.213 68.6887 206.302 68.425C206.391 68.1613 206.431 67.8772 206.423 67.5729C206.414 67.2685 206.357 66.9862 206.253 66.7262C206.148 66.4661 205.993 66.2579 205.787 66.1017C205.58 65.9455 205.321 65.8719 205.009 65.8809C204.696 65.8899 204.442 65.9784 204.245 66.1463C204.048 66.3142 203.905 66.531 203.816 66.7967C203.726 67.0623 203.686 67.3474 203.695 67.6518C203.704 67.9561 203.76 68.2374 203.865 68.4955C203.969 68.7536 204.125 68.9598 204.331 69.114C204.537 69.2683 204.796 69.3409 205.109 69.3319ZM211.072 67.83L210.994 65.138L211.693 65.1178L211.825 69.6717L211.125 69.6919L211.103 68.9211L211.056 68.9224C210.956 69.1568 210.795 69.3583 210.575 69.5268C210.354 69.6935 210.072 69.7817 209.728 69.7917C209.443 69.7999 209.188 69.745 208.963 69.6269C208.738 69.5068 208.559 69.3221 208.425 69.0727C208.291 68.8214 208.219 68.5021 208.208 68.1147L208.124 65.2211L208.823 65.2008L208.906 68.047C208.915 68.379 209.016 68.6412 209.207 68.8335C209.401 69.0257 209.643 69.1176 209.934 69.1092C210.107 69.1042 210.283 69.0546 210.46 68.9604C210.64 68.8662 210.788 68.7255 210.905 68.5381C211.024 68.3507 211.08 68.1147 211.072 67.83ZM214.955 65.0234L214.973 65.6164L212.613 65.6847L212.595 65.0917L214.955 65.0234ZM213.252 63.9808L213.951 63.9605L214.077 68.301C214.083 68.4986 214.116 68.646 214.176 68.7432C214.238 68.8383 214.315 68.9014 214.407 68.9323C214.501 68.9613 214.599 68.9743 214.702 68.9713C214.779 68.969 214.842 68.9633 214.891 68.9539C214.94 68.9426 214.979 68.9336 215.009 68.9268L215.169 69.5512C215.122 69.5704 215.057 69.5901 214.972 69.6103C214.888 69.6325 214.78 69.6455 214.65 69.6493C214.452 69.655 214.257 69.6181 214.065 69.5386C213.875 69.4591 213.715 69.3341 213.586 69.1638C213.458 68.9934 213.39 68.7758 213.383 68.5109L213.252 63.9808ZM218.956 67.602L218.878 64.91L219.577 64.8897L219.709 69.4436L219.009 69.4638L218.987 68.693L218.94 68.6944C218.84 68.9287 218.679 69.1302 218.459 69.2988C218.238 69.4654 217.956 69.5537 217.612 69.5636C217.327 69.5719 217.072 69.5169 216.847 69.3988C216.622 69.2787 216.443 69.094 216.309 68.8447C216.175 68.5934 216.103 68.274 216.092 67.8866L216.008 64.993L216.708 64.9728L216.79 67.8189C216.799 68.151 216.9 68.4131 217.092 68.6054C217.285 68.7976 217.527 68.8895 217.818 68.8811C217.992 68.8761 218.167 68.8265 218.344 68.7324C218.524 68.6382 218.672 68.4974 218.789 68.31C218.908 68.1226 218.964 67.8866 218.956 67.602ZM221.086 69.4038L220.91 63.332L221.61 63.3117L221.674 65.5531L221.734 65.5514C221.783 65.4708 221.851 65.368 221.938 65.2428C222.028 65.1156 222.157 65.0011 222.326 64.8992C222.497 64.7954 222.731 64.7392 223.027 64.7306C223.411 64.7195 223.752 64.8056 224.05 64.9888C224.348 65.1721 224.584 65.4373 224.758 65.7843C224.932 66.1314 225.026 66.5441 225.04 67.0224C225.054 67.5047 224.984 67.9251 224.83 68.2836C224.677 68.6402 224.457 68.9195 224.172 69.1216C223.887 69.3218 223.555 69.4273 223.175 69.4383C222.883 69.4468 222.647 69.4051 222.469 69.3133C222.29 69.2196 222.151 69.1118 222.053 68.9901C221.954 68.8663 221.878 68.7637 221.824 68.6822L221.741 68.6846L221.761 69.3842L221.086 69.4038ZM221.707 67.107C221.717 67.4509 221.777 67.7528 221.885 68.0128C221.993 68.2708 222.147 68.4711 222.345 68.6137C222.542 68.7544 222.782 68.8206 223.062 68.8125C223.355 68.804 223.597 68.7199 223.788 68.5601C223.981 68.3982 224.123 68.1844 224.215 67.9187C224.308 67.6509 224.35 67.355 224.34 67.0308C224.331 66.7106 224.273 66.4235 224.167 66.1694C224.063 65.9133 223.909 65.713 223.707 65.5685C223.507 65.4219 223.259 65.353 222.963 65.3615C222.678 65.3698 222.441 65.4488 222.251 65.5987C222.062 65.7466 221.921 65.9505 221.83 66.2103C221.738 66.4681 221.698 66.767 221.707 67.107ZM228.088 69.2962C227.649 69.3089 227.268 69.223 226.944 69.0385C226.622 68.852 226.37 68.5863 226.188 68.2414C226.008 67.8945 225.911 67.4878 225.898 67.0214C225.884 66.5549 225.957 66.1413 226.117 65.7806C226.279 65.4179 226.51 65.1323 226.81 64.9238C227.113 64.7133 227.47 64.6021 227.881 64.5902C228.118 64.5833 228.353 64.6161 228.587 64.6885C228.82 64.7608 229.035 64.8832 229.229 65.0556C229.424 65.226 229.582 65.4549 229.703 65.7422C229.824 66.0295 229.891 66.3856 229.903 66.8105L229.912 67.107L226.402 67.2086L226.384 66.6037L229.183 66.5228C229.175 66.2658 229.117 66.038 229.009 65.8394C228.902 65.6407 228.753 65.4858 228.562 65.3746C228.373 65.2634 228.152 65.2114 227.899 65.2187C227.62 65.2268 227.381 65.3029 227.182 65.4472C226.984 65.5894 226.834 65.7718 226.731 65.9943C226.629 66.2168 226.582 66.4536 226.589 66.7046L226.6 67.1078C226.61 67.4518 226.678 67.7416 226.804 67.9773C226.931 68.211 227.103 68.387 227.32 68.5054C227.537 68.6217 227.787 68.6758 228.07 68.6677C228.254 68.6623 228.419 68.6318 228.566 68.5762C228.714 68.5184 228.842 68.4356 228.947 68.3277C229.053 68.2179 229.133 68.083 229.188 67.9232L229.869 68.0934C229.805 68.3247 229.691 68.5298 229.528 68.7086C229.365 68.8854 229.161 69.0258 228.917 69.1298C228.673 69.2318 228.396 69.2873 228.088 69.2962Z" fill="#615E83"/>
<circle cx="190.621" cy="66.9237" r="3.29817" transform="rotate(-1.65696 190.621 66.9237)" fill="#C6D2FD"/>
<line x1="20.0971" y1="57.3318" x2="225.824" y2="51.3806" stroke="#E5E5EF" stroke-width="0.464014"/>
<path d="M175.262 33.9263L176.779 37.8612L176.835 37.8596L178.122 33.8436L178.721 33.8263L177.124 38.5989L176.534 38.616L174.663 33.9437L175.262 33.9263ZM182.463 34.8996C182.429 34.6668 182.311 34.4886 182.111 34.3652C181.91 34.2417 181.667 34.1841 181.381 34.1924C181.172 34.1985 180.99 34.2376 180.835 34.3098C180.682 34.3819 180.563 34.4784 180.479 34.5993C180.396 34.7202 180.357 34.8559 180.362 35.0066C180.365 35.1326 180.398 35.2401 180.461 35.3291C180.525 35.4165 180.606 35.4888 180.703 35.546C180.8 35.6016 180.901 35.6472 181.007 35.6826C181.112 35.7165 181.209 35.7437 181.297 35.7642L181.781 35.8794C181.905 35.9082 182.043 35.9488 182.195 36.0013C182.349 36.0538 182.496 36.1272 182.638 36.2216C182.78 36.3144 182.899 36.4356 182.994 36.5852C183.089 36.7347 183.14 36.9202 183.147 37.1416C183.154 37.3967 183.094 37.6293 182.966 37.8391C182.84 38.049 182.651 38.2183 182.399 38.3471C182.149 38.4759 181.843 38.5455 181.48 38.556C181.142 38.5658 180.847 38.5197 180.596 38.4177C180.347 38.3157 180.149 38.1691 180.002 37.978C179.857 37.7868 179.771 37.5623 179.745 37.3046L180.335 37.2875C180.356 37.4654 180.42 37.6112 180.528 37.725C180.637 37.8373 180.774 37.9195 180.937 37.9717C181.101 38.0223 181.277 38.0449 181.465 38.0395C181.683 38.0332 181.878 37.9922 182.05 37.9164C182.221 37.8391 182.356 37.7352 182.454 37.6047C182.552 37.4726 182.598 37.3205 182.593 37.1483C182.588 36.9915 182.541 36.8652 182.45 36.7694C182.36 36.6735 182.242 36.5969 182.098 36.5395C181.953 36.4822 181.797 36.4329 181.629 36.3915L181.044 36.2423C180.672 36.1469 180.375 36.004 180.154 35.8134C179.933 35.6229 179.818 35.3685 179.809 35.0503C179.801 34.7858 179.866 34.5532 180.003 34.3523C180.142 34.1498 180.331 33.9905 180.571 33.8743C180.812 33.7565 181.084 33.6933 181.385 33.6846C181.689 33.6758 181.962 33.7225 182.201 33.8248C182.441 33.9256 182.633 34.0677 182.777 34.2513C182.922 34.4348 183.002 34.6456 183.017 34.8836L182.463 34.8996ZM186.729 38.3211L186.593 33.5985L187.165 33.582L187.287 37.7972L189.482 37.7337L189.497 38.241L186.729 38.3211ZM191.263 38.1899L190.664 38.2073L192.261 33.4346L192.852 33.4175L194.722 38.0899L194.123 38.1072L192.597 34.1726L192.56 34.1737L191.263 38.1899ZM191.431 36.3388L193.848 36.2689L193.863 36.7762L191.446 36.8461L191.431 36.3388ZM198.328 34.4407C198.293 34.2078 198.176 34.0297 197.975 33.9063C197.775 33.7828 197.532 33.7252 197.246 33.7335C197.037 33.7395 196.855 33.7787 196.7 33.8508C196.546 33.923 196.428 34.0195 196.343 34.1404C196.261 34.2613 196.222 34.397 196.226 34.5477C196.23 34.6737 196.263 34.7812 196.325 34.8702C196.389 34.9576 196.47 35.0299 196.567 35.0871C196.664 35.1427 196.765 35.1883 196.871 35.2237C196.977 35.2575 197.074 35.2847 197.162 35.3053L197.645 35.4205C197.769 35.4492 197.907 35.4899 198.06 35.5424C198.213 35.5949 198.361 35.6683 198.502 35.7627C198.645 35.8555 198.764 35.9767 198.859 36.1262C198.954 36.2758 199.005 36.4613 199.011 36.6826C199.018 36.9378 198.958 37.1704 198.83 37.3802C198.704 37.59 198.515 37.7594 198.264 37.8882C198.013 38.017 197.707 38.0866 197.344 38.0971C197.006 38.1069 196.712 38.0608 196.461 37.9588C196.212 37.8568 196.014 37.7102 195.867 37.519C195.721 37.3278 195.635 37.1034 195.609 36.8457L196.2 36.8286C196.22 37.0065 196.284 37.1523 196.392 37.2661C196.502 37.3783 196.638 37.4606 196.801 37.5128C196.966 37.5634 197.142 37.586 197.329 37.5806C197.547 37.5743 197.742 37.5332 197.914 37.4575C198.086 37.3802 198.22 37.2763 198.318 37.1458C198.416 37.0137 198.462 36.8616 198.457 36.6894C198.453 36.5326 198.405 36.4063 198.315 36.3104C198.224 36.2146 198.107 36.138 197.962 36.0806C197.817 36.0233 197.661 35.9739 197.494 35.9326L196.908 35.7834C196.536 35.688 196.239 35.545 196.019 35.3545C195.798 35.1639 195.683 34.9096 195.673 34.5913C195.666 34.3269 195.731 34.0943 195.868 33.8934C196.007 33.6909 196.196 33.5315 196.436 33.4154C196.677 33.2976 196.948 33.2344 197.249 33.2257C197.554 33.2169 197.826 33.2636 198.066 33.3659C198.306 33.4667 198.497 33.6088 198.641 33.7924C198.787 33.9759 198.867 34.1866 198.881 34.4247L198.328 34.4407ZM199.998 33.7185L199.983 33.2112L203.525 33.1087L203.54 33.616L202.055 33.659L202.177 37.8742L201.605 37.8908L201.483 33.6755L199.998 33.7185ZM208.007 37.7056L206.58 33.0204L207.161 33.0036L208.259 36.8213L208.305 36.82L209.199 32.9446L209.845 32.9259L210.961 36.7431L211.008 36.7418L211.883 32.867L212.464 32.8502L211.31 37.61L210.719 37.6271L209.568 33.894L209.531 33.8951L208.598 37.6885L208.007 37.7056ZM213.703 37.5408L213.566 32.8183L216.417 32.7358L216.431 33.2431L214.153 33.309L214.199 34.9047L216.33 34.8431L216.344 35.3504L214.214 35.412L214.26 37.017L216.575 36.95L216.59 37.4573L213.703 37.5408ZM217.974 37.4173L217.837 32.6947L220.687 32.6123L220.702 33.1196L218.423 33.1855L218.47 34.7812L220.6 34.7196L220.615 35.2269L218.484 35.2885L218.531 36.8934L220.846 36.8265L220.861 37.3338L217.974 37.4173ZM222.244 37.2937L222.107 32.5712L222.679 32.5547L222.747 34.8975L222.802 34.8959L224.856 32.4917L225.603 32.4701L223.682 34.6581L225.74 37.1926L225.048 37.2126L223.343 35.0649L222.772 35.7461L222.816 37.2772L222.244 37.2937Z" fill="#615E83"/>
<path d="M198.231 22.5027L198.387 27.8999L197.246 27.9329L197.121 23.6189L197.09 23.6198L195.876 24.4303L195.847 23.4183L197.159 22.5337L198.231 22.5027ZM200.049 27.9204C199.875 27.9254 199.724 27.8683 199.596 27.7489C199.469 27.6277 199.403 27.4802 199.398 27.3062C199.393 27.134 199.45 26.9847 199.57 26.8581C199.691 26.7316 199.839 26.6657 200.013 26.6607C200.181 26.6558 200.331 26.7131 200.461 26.8324C200.591 26.9517 200.658 27.0974 200.663 27.2696C200.667 27.3856 200.64 27.4927 200.583 27.5911C200.528 27.6876 200.453 27.7663 200.36 27.827C200.267 27.886 200.163 27.9171 200.049 27.9204ZM203.414 27.8283C203.02 27.8397 202.668 27.7822 202.356 27.6558C202.047 27.5276 201.8 27.3466 201.615 27.1128C201.433 26.8772 201.334 26.6023 201.32 26.2879L202.469 26.2547C202.48 26.3863 202.526 26.501 202.608 26.5988C202.692 26.6949 202.801 26.7682 202.936 26.8188C203.071 26.8694 203.222 26.8923 203.389 26.8874C203.563 26.8824 203.716 26.8472 203.848 26.7819C203.979 26.7165 204.082 26.6283 204.154 26.5172C204.226 26.4061 204.26 26.2793 204.256 26.137C204.252 25.993 204.208 25.8668 204.124 25.7584C204.042 25.6483 203.925 25.5637 203.774 25.5048C203.624 25.4458 203.448 25.4193 203.244 25.4252L202.741 25.4397L202.716 24.6017L203.22 24.5871C203.392 24.5822 203.543 24.5479 203.673 24.4843C203.805 24.4207 203.906 24.3352 203.977 24.2276C204.048 24.1183 204.081 23.9925 204.077 23.8502C204.073 23.7149 204.037 23.5973 203.969 23.4973C203.903 23.3954 203.811 23.3172 203.693 23.2626C203.577 23.2079 203.443 23.1828 203.29 23.1872C203.135 23.1917 202.995 23.2239 202.868 23.2838C202.742 23.342 202.641 23.4231 202.567 23.5273C202.492 23.6314 202.454 23.7521 202.453 23.8893L201.36 23.9209C201.356 23.6098 201.437 23.3331 201.602 23.091C201.767 22.8488 201.994 22.6568 202.282 22.5148C202.571 22.371 202.9 22.2938 203.269 22.2831C203.642 22.2724 203.97 22.3306 204.253 22.4578C204.536 22.585 204.758 22.7614 204.92 22.9871C205.083 23.211 205.167 23.4652 205.174 23.7499C205.184 24.052 205.098 24.3069 204.914 24.5144C204.731 24.7219 204.49 24.8572 204.19 24.9204L204.191 24.9626C204.589 25.0021 204.895 25.1312 205.109 25.3501C205.325 25.5672 205.437 25.8435 205.444 26.1792C205.455 26.4866 205.374 26.7623 205.202 27.0065C205.031 27.2505 204.792 27.4456 204.483 27.5917C204.174 27.7378 203.818 27.8167 203.414 27.8283ZM209.233 26.5733L209.225 26.2887C209.219 26.0726 209.259 25.8728 209.345 25.6892C209.433 25.5037 209.563 25.354 209.736 25.24C209.91 25.1242 210.124 25.0626 210.379 25.0552C210.637 25.0478 210.856 25.096 211.035 25.1998C211.215 25.3036 211.353 25.4456 211.448 25.6257C211.545 25.804 211.596 26.0021 211.602 26.2199L211.611 26.5046C211.617 26.7207 211.577 26.9214 211.491 27.1067C211.405 27.2904 211.275 27.4392 211.1 27.5532C210.926 27.6691 210.711 27.7307 210.457 27.738C210.198 27.7455 209.98 27.6964 209.801 27.5908C209.622 27.487 209.484 27.3459 209.388 27.1676C209.291 26.9875 209.24 26.7894 209.233 26.5733ZM209.992 26.2665L210 26.5511C210.004 26.6759 210.037 26.7927 210.1 26.9017C210.165 27.0106 210.277 27.0627 210.437 27.0581C210.597 27.0535 210.704 26.9959 210.759 26.8853C210.816 26.7746 210.842 26.6552 210.838 26.5269L210.83 26.2423C210.826 26.114 210.795 25.9954 210.735 25.8863C210.676 25.7773 210.564 25.7251 210.399 25.7299C210.241 25.7345 210.132 25.793 210.074 25.9054C210.016 26.0179 209.988 26.1383 209.992 26.2665ZM206.374 23.5648L206.366 23.2802C206.36 23.0624 206.401 22.8616 206.489 22.6779C206.576 22.4925 206.707 22.3428 206.879 22.2288C207.053 22.1148 207.266 22.0541 207.517 22.0468C207.777 22.0393 207.997 22.0875 208.176 22.1913C208.355 22.2952 208.492 22.4371 208.589 22.6172C208.685 22.7955 208.737 22.9936 208.743 23.2114L208.751 23.4961C208.758 23.7139 208.717 23.9147 208.629 24.0983C208.543 24.2819 208.413 24.4308 208.238 24.5448C208.066 24.6571 207.851 24.7169 207.595 24.7243C207.338 24.7318 207.12 24.6836 206.939 24.5798C206.76 24.4742 206.623 24.3331 206.526 24.1565C206.431 23.9782 206.381 23.7809 206.374 23.5648ZM207.138 23.2579L207.147 23.5425C207.15 23.6707 207.184 23.7885 207.246 23.8957C207.311 24.0028 207.421 24.0542 207.575 24.0497C207.737 24.045 207.845 23.9874 207.9 23.8768C207.957 23.7661 207.983 23.6467 207.979 23.5184L207.971 23.2338C207.967 23.1055 207.936 22.9869 207.876 22.8778C207.817 22.7688 207.704 22.7166 207.537 22.7215C207.381 22.726 207.274 22.7853 207.218 22.8995C207.161 23.0137 207.135 23.1331 207.138 23.2579ZM206.841 27.6554L210.395 22.1508L211.086 22.1309L207.531 27.6354L206.841 27.6554Z" fill="#1E1B39"/>
<circle cx="219.995" cy="24.4498" r="5.04757" transform="rotate(-1.65696 219.995 24.4498)" fill="#04CE00"/>
<path d="M221.367 23.8795L221.236 24.0188C220.531 24.7642 219.827 25.5097 219.123 26.2552C218.98 26.4061 218.808 26.4432 218.633 26.3681C218.464 26.2946 218.368 26.1538 218.387 25.9797C218.405 25.8538 218.461 25.7363 218.547 25.6426C219.228 24.909 219.918 24.1843 220.605 23.457L220.735 23.3192C220.692 23.3131 220.648 23.3092 220.604 23.3078C220.32 23.3147 220.036 23.3256 219.753 23.3302C219.528 23.3342 219.369 23.1843 219.36 22.9698C219.35 22.7358 219.486 22.5748 219.721 22.5666C220.373 22.5435 221.025 22.5242 221.677 22.5086C221.941 22.5024 222.093 22.6405 222.106 22.9008C222.136 23.5469 222.162 24.1932 222.183 24.8397C222.191 25.0766 222.041 25.2205 221.805 25.2254C221.582 25.2297 221.432 25.0912 221.419 24.8612C221.404 24.5881 221.395 24.3146 221.383 24.0412C221.381 23.9981 221.374 23.956 221.367 23.8795Z" fill="white"/>
<path d="M67.3062 38.9572L65.754 43.5598L65.0425 43.5803L63.2267 39.0752L63.9857 39.0532L65.3477 42.6457L65.3952 42.6444L66.5473 38.9791L67.3062 38.9572ZM68.3615 43.4843L68.2298 38.9305L68.9294 38.9102L69.0612 43.4641L68.3615 43.4843ZM68.5636 38.1612C68.4272 38.1651 68.3083 38.1221 68.2067 38.032C68.1072 37.942 68.0556 37.8317 68.0518 37.7012C68.048 37.5708 68.0932 37.4577 68.1874 37.362C68.2835 37.2663 68.3998 37.2164 68.5361 37.2125C68.6725 37.2085 68.7905 37.2516 68.89 37.3417C68.9915 37.4317 69.0442 37.542 69.0479 37.6724C69.0517 37.8029 69.0055 37.916 68.9094 38.0117C68.8152 38.1074 68.7 38.1572 68.5636 38.1612ZM72.2547 43.4667C71.816 43.4793 71.4347 43.3934 71.1108 43.209C70.7889 43.0224 70.5369 42.7567 70.3549 42.4119C70.1747 42.065 70.0779 41.6583 70.0644 41.1918C70.0509 40.7254 70.124 40.3118 70.2837 39.9511C70.4453 39.5884 70.6764 39.3028 70.977 39.0943C71.2795 38.8838 71.6363 38.7726 72.0474 38.7607C72.2846 38.7538 72.5199 38.7866 72.7535 38.8589C72.987 38.9313 73.2012 39.0537 73.3961 39.2261C73.591 39.3965 73.7489 39.6254 73.87 39.9127C73.991 40.1999 74.0577 40.5561 74.07 40.981L74.0786 41.2775L70.5683 41.379L70.5508 40.7742L73.3495 40.6933C73.3421 40.4363 73.2841 40.2085 73.1755 40.0099C73.0688 39.8112 72.92 39.6563 72.7288 39.5451C72.5397 39.4338 72.3186 39.3819 72.0656 39.3892C71.7869 39.3973 71.5478 39.4734 71.3482 39.6177C71.1505 39.7599 71.0005 39.9422 70.8982 40.1648C70.7958 40.3873 70.7482 40.6241 70.7555 40.8751L70.7672 41.2783C70.7771 41.6222 70.8448 41.9121 70.9704 42.1478C71.0978 42.3815 71.27 42.5575 71.4871 42.6758C71.7041 42.7922 71.9539 42.8463 72.2366 42.8381C72.4204 42.8328 72.5857 42.8023 72.7324 42.7466C72.8811 42.6889 73.0083 42.6061 73.1139 42.4982C73.2196 42.3883 73.2997 42.2535 73.3544 42.0936L74.0359 42.2638C73.9714 42.4952 73.8576 42.7002 73.6947 42.879C73.5316 43.0558 73.328 43.1962 73.0837 43.3002C72.8394 43.4023 72.5631 43.4577 72.2547 43.4667ZM76.2337 43.2566L74.7144 38.7429L75.4497 38.7216L76.5348 42.1797L76.5823 42.1783L77.4539 38.6636L78.201 38.642L79.2621 42.0889L79.3095 42.0875L80.1933 38.5844L80.9286 38.5631L79.6728 43.1571L78.985 43.177L77.8876 39.7074L77.8165 39.7095L76.9215 43.2367L76.2337 43.2566ZM85.1087 39.4629L84.4853 39.659C84.4428 39.5554 84.3815 39.4553 84.3016 39.3587C84.2236 39.26 84.1184 39.18 83.986 39.1186C83.8537 39.0571 83.6858 39.0293 83.4822 39.0352C83.2035 39.0433 82.9731 39.1142 82.791 39.2481C82.6109 39.3799 82.5236 39.5436 82.5293 39.7393C82.5343 39.9132 82.6015 40.0488 82.731 40.1459C82.8604 40.2431 83.0604 40.3213 83.3312 40.3808L84.012 40.5272C84.422 40.6143 84.7297 40.7567 84.9353 40.9545C85.1407 41.1504 85.2481 41.4074 85.2573 41.7256C85.2648 41.9865 85.1964 42.2219 85.0522 42.4318C84.9099 42.6416 84.707 42.8097 84.4436 42.936C84.1802 43.0623 83.8717 43.1306 83.5179 43.1408C83.0534 43.1543 82.666 43.0646 82.3558 42.8718C82.0456 42.679 81.8444 42.3901 81.7521 42.005L82.4114 41.8198C82.4818 42.063 82.6067 42.2434 82.7861 42.3609C82.9676 42.4782 83.2016 42.5328 83.4882 42.5245C83.8143 42.5151 84.0712 42.4384 84.2589 42.2945C84.4486 42.1486 84.5406 41.9778 84.5349 41.7821C84.5303 41.624 84.4711 41.4932 84.3574 41.3896C84.2435 41.2841 84.0712 41.208 83.8404 41.1613L83.0763 41.0053C82.6564 40.9186 82.3456 40.7743 82.1439 40.5724C81.9442 40.3685 81.8397 40.1094 81.8306 39.7951C81.8232 39.5382 81.8888 39.3088 82.0273 39.107C82.1679 38.9051 82.362 38.7442 82.6098 38.6243C82.8595 38.5043 83.1445 38.4397 83.4647 38.4304C83.9153 38.4174 84.272 38.506 84.5346 38.6962C84.7993 38.8863 84.9906 39.1419 85.1087 39.4629Z" fill="#615E83"/>
<path d="M24.0007 36.5143L24.2531 45.238L22.4087 45.2913L22.207 38.3184L22.1558 38.3199L20.1943 39.63L20.147 37.9943L22.2671 36.5645L24.0007 36.5143ZM26.3264 45.178L26.288 43.849L29.31 40.884C29.5667 40.6207 29.7816 40.3843 29.9546 40.1747C30.1304 39.965 30.2623 39.7608 30.3504 39.5621C30.4383 39.3606 30.479 39.1449 30.4723 38.9149C30.4649 38.6593 30.4004 38.4409 30.2786 38.2597C30.1567 38.0756 29.9936 37.9368 29.7891 37.8433C29.5845 37.7469 29.3544 37.7024 29.0988 37.7098C28.8319 37.7175 28.6006 37.7782 28.405 37.8918C28.2093 38.0055 28.0604 38.1647 27.9584 38.3694C27.8563 38.5742 27.8093 38.8157 27.8173 39.094L26.0666 39.1446C26.0501 38.5738 26.165 38.0746 26.4112 37.6468C26.6575 37.2191 27.0102 36.8834 27.4692 36.6399C27.9283 36.3965 28.4617 36.2659 29.0694 36.2483C29.6941 36.2303 30.2411 36.3253 30.7104 36.5334C31.1824 36.7386 31.5533 37.032 31.823 37.4135C32.0926 37.7951 32.2347 38.2372 32.2493 38.7398C32.2588 39.0692 32.2029 39.3963 32.0815 39.7209C31.963 40.0455 31.7447 40.4085 31.4267 40.8099C31.1085 41.2085 30.6577 41.6891 30.0743 42.2516L28.8368 43.5365L28.8385 43.5962L32.5018 43.4902L32.5454 44.9981L26.3264 45.178ZM35.8366 43.7092L35.8033 44.1791C35.7772 44.555 35.717 44.9305 35.6227 45.3055C35.5313 45.6833 35.4332 46.0258 35.3284 46.3329C35.2265 46.64 35.1439 46.8811 35.0808 47.0563L33.9051 47.0903C33.9429 46.9215 33.9943 46.6856 34.0594 46.3824C34.1246 46.0821 34.1845 45.745 34.2391 45.3711C34.2936 44.9972 34.3238 44.617 34.3297 44.2303L34.3372 43.7526L35.8366 43.7092ZM40.6325 44.8835C40.0305 44.9009 39.4905 44.8057 39.0127 44.5978C38.5378 44.3899 38.1569 44.0954 37.8702 43.7143C37.5835 43.3332 37.4272 42.8916 37.4013 42.3893L39.1904 42.3375C39.22 42.6749 39.3699 42.9448 39.6401 43.1473C39.9103 43.3498 40.2271 43.4458 40.5906 43.4353C40.8802 43.4269 41.134 43.3556 41.3518 43.2214C41.5723 43.0843 41.7417 42.8989 41.86 42.6653C41.9811 42.4287 42.0373 42.1599 42.0286 41.8589C42.0197 41.5522 41.9466 41.2844 41.8092 41.0553C41.6747 40.8261 41.4919 40.6495 41.261 40.5255C41.03 40.4014 40.7683 40.3422 40.4757 40.3478C40.2201 40.3552 39.9732 40.4149 39.7348 40.527C39.4993 40.6389 39.3175 40.7877 39.1893 40.9733L37.5408 40.7269L37.8209 36.1146L43.1539 35.9603L43.1975 37.4682L39.3852 37.5785L39.2227 39.7702L39.2738 39.7687C39.4209 39.5484 39.6471 39.3628 39.9526 39.2119C40.258 39.0609 40.6024 38.9799 40.9857 38.9688C41.5111 38.9536 41.9832 39.0636 42.4021 39.2988C42.821 39.5339 43.156 39.8638 43.407 40.2886C43.658 40.7105 43.7901 41.2012 43.8034 41.7607C43.8233 42.3484 43.7021 42.8749 43.4399 43.34C43.1804 43.8023 42.8088 44.1711 42.3251 44.4466C41.8441 44.7191 41.2799 44.8648 40.6325 44.8835ZM48.5255 44.6552C48.0767 44.6653 47.6415 44.6026 47.2198 44.467C46.8009 44.3313 46.422 44.1021 46.0829 43.7794C45.7439 43.4567 45.4699 43.0241 45.261 42.4816C45.0549 41.9391 44.9403 41.2688 44.9172 40.4708C44.8988 39.7381 44.9637 39.0811 45.1117 38.4999C45.2625 37.9158 45.4868 37.4176 45.7847 37.0054C46.0854 36.5931 46.4499 36.2756 46.8783 36.0529C47.3066 35.8274 47.7906 35.7068 48.3301 35.6912C48.9123 35.6743 49.4295 35.7731 49.8819 35.9873C50.3343 36.1988 50.7009 36.4937 50.9819 36.8721C51.2656 37.2504 51.4429 37.6787 51.5135 38.157L49.6947 38.2096C49.6149 37.9078 49.4589 37.6736 49.2268 37.5069C48.9946 37.3403 48.7109 37.2618 48.3758 37.2715C47.8079 37.2879 47.3834 37.5475 47.1024 38.0501C46.8242 38.5527 46.6945 39.2286 46.7134 40.0778L46.773 40.0761C46.8962 39.8139 47.0659 39.5887 47.2821 39.4006C47.5011 39.2095 47.7512 39.0616 48.0324 38.9568C48.3163 38.8492 48.6173 38.7907 48.9354 38.7815C49.4522 38.7666 49.9158 38.8754 50.3261 39.1079C50.7363 39.3376 51.0639 39.6607 51.309 40.077C51.5541 40.4934 51.6846 40.9742 51.7003 41.5195C51.7174 42.1101 51.5949 42.6395 51.3328 43.1075C51.0734 43.5754 50.7019 43.9471 50.2182 44.2225C49.7373 44.4951 49.173 44.6393 48.5255 44.6552ZM48.4751 43.2072C48.759 43.199 49.0112 43.1235 49.2316 42.9807C49.452 42.8379 49.6227 42.6482 49.7438 42.4116C49.8648 42.1751 49.9212 41.912 49.9128 41.6223C49.9044 41.3327 49.833 41.0747 49.6986 40.8484C49.567 40.622 49.3884 40.4438 49.163 40.3139C48.9376 40.184 48.6829 40.1232 48.3989 40.1314C48.1859 40.1376 47.9897 40.183 47.8103 40.2678C47.6336 40.3525 47.4792 40.4678 47.347 40.6137C47.2177 40.7596 47.1174 40.9273 47.0461 41.1169C46.9748 41.3037 46.9422 41.5022 46.9483 41.7123C46.9564 41.9935 47.0277 42.2486 47.1622 42.4778C47.2996 42.7069 47.481 42.8878 47.7066 43.0205C47.9349 43.1532 48.1911 43.2154 48.4751 43.2072ZM56.3205 44.4297C55.6844 44.4481 55.1147 44.3552 54.6115 44.1509C54.1109 43.9437 53.7117 43.6511 53.4137 43.2732C53.1185 42.8924 52.9593 42.4479 52.936 41.9399L54.7932 41.8862C54.8107 42.0988 54.8857 42.2842 55.0182 42.4424C55.1534 42.5976 55.3302 42.7161 55.5486 42.7979C55.7669 42.8797 56.011 42.9167 56.2808 42.9089C56.5619 42.9008 56.809 42.8439 57.0219 42.7383C57.2348 42.6326 57.3998 42.49 57.5168 42.3104C57.6339 42.1308 57.689 41.926 57.6824 41.696C57.6756 41.4631 57.6044 41.2591 57.4686 41.084C57.3355 40.906 57.1468 40.7693 56.9025 40.6741C56.661 40.5788 56.3756 40.5359 56.0462 40.5454L55.2326 40.5689L55.1934 39.2144L56.007 39.1908C56.2853 39.1828 56.5295 39.1274 56.7397 39.0247C56.9527 38.9219 57.1164 38.7836 57.2307 38.6098C57.345 38.4331 57.3988 38.2297 57.3921 37.9997C57.3858 37.7811 57.3277 37.5909 57.2179 37.4292C57.1108 37.2646 56.9622 37.1382 56.7721 37.0499C56.5848 36.9615 56.3676 36.9209 56.1206 36.9281C55.8707 36.9353 55.6434 36.9874 55.4387 37.0842C55.234 37.1783 55.0715 37.3094 54.9513 37.4777C54.8311 37.6461 54.77 37.8411 54.7679 38.0628L53.0001 38.114C52.9941 37.6111 53.1247 37.164 53.3919 36.7725C53.6591 36.3811 54.0253 36.0707 54.4904 35.8412C54.9584 35.6089 55.4905 35.484 56.0868 35.4668C56.6888 35.4494 57.2188 35.5435 57.6766 35.7491C58.1345 35.9547 58.4937 36.2399 58.7544 36.6046C59.0178 36.9665 59.1547 37.3775 59.1652 37.8376C59.1822 38.3259 59.042 38.7378 58.7448 39.0733C58.4504 39.4086 58.0602 39.6274 57.5743 39.7295L57.5763 39.7977C58.2205 39.8615 58.7154 40.0703 59.061 40.4241C59.4093 40.7749 59.5899 41.2216 59.6028 41.7641C59.62 42.2609 59.4893 42.7067 59.2109 43.1012C58.9352 43.4957 58.5479 43.8111 58.0488 44.0472C57.5498 44.2833 56.9737 44.4108 56.3205 44.4297Z" fill="#1E1B39"/>
<path d="M20.3104 23.934L22.6456 29.9911L22.7308 29.9887L24.7119 23.8066L25.6348 23.7799L23.1758 31.1268L22.2671 31.1531L19.3874 23.9607L20.3104 23.934ZM26.8639 31.0202L26.7062 25.5679L27.5439 25.5437L27.7016 30.9959L26.8639 31.0202ZM27.1058 24.6469C26.9425 24.6516 26.8001 24.6 26.6786 24.4922C26.5594 24.3844 26.4976 24.2524 26.4931 24.0962C26.4885 23.94 26.5426 23.8046 26.6554 23.69C26.7705 23.5754 26.9097 23.5157 27.073 23.511C27.2363 23.5063 27.3775 23.5578 27.4967 23.6657C27.6182 23.7735 27.6812 23.9055 27.6857 24.0617C27.6903 24.2179 27.635 24.3533 27.5199 24.4679C27.4071 24.5825 27.2691 24.6421 27.1058 24.6469ZM32.9756 26.6086L32.2292 26.8434C32.1782 26.7193 32.1049 26.5995 32.0092 26.4838C31.9158 26.3657 31.7898 26.2699 31.6314 26.1963C31.4729 26.1228 31.2719 26.0895 31.0281 26.0966C30.6944 26.1062 30.4186 26.1912 30.2006 26.3514C29.9849 26.5092 29.8805 26.7053 29.8872 26.9396C29.8933 27.1478 29.9737 27.3101 30.1287 27.4264C30.2836 27.5427 30.5232 27.6364 30.8473 27.7076L31.6624 27.8829C32.1533 27.9872 32.5218 28.1577 32.7679 28.3945C33.0139 28.629 33.1424 28.9367 33.1534 29.3177C33.1624 29.6301 33.0806 29.9119 32.9079 30.1632C32.7375 30.4145 32.4946 30.6157 32.1793 30.7669C31.8639 30.9182 31.4944 30.9999 31.0708 31.0121C30.5147 31.0282 30.051 30.9209 29.6795 30.69C29.3081 30.4592 29.0672 30.1133 28.9568 29.6523L29.7461 29.4305C29.8304 29.7217 29.9799 29.9377 30.1947 30.0783C30.412 30.2188 30.6921 30.2842 31.0353 30.2742C31.4257 30.2629 31.7333 30.1711 31.9581 29.9989C32.1851 29.8241 32.2953 29.6196 32.2885 29.3853C32.283 29.196 32.2122 29.0394 32.076 28.9154C31.9397 28.7891 31.7334 28.698 31.457 28.642L30.5421 28.4553C30.0394 28.3515 29.6673 28.1787 29.4258 27.937C29.1867 27.6928 29.0616 27.3826 29.0508 27.0064C29.0419 26.6987 29.1204 26.4241 29.2863 26.1825C29.4545 25.9408 29.687 25.7481 29.9836 25.6045C30.2826 25.4609 30.6238 25.3835 31.0072 25.3724C31.5467 25.3568 31.9737 25.4629 32.2882 25.6906C32.6051 25.9183 32.8342 26.2243 32.9756 26.6086ZM34.4584 30.8005L34.3006 25.3482L35.1384 25.324L35.2961 30.7762L34.4584 30.8005ZM34.7003 24.4272C34.537 24.4319 34.3946 24.3804 34.2731 24.2726C34.1539 24.1647 34.0921 24.0327 34.0875 23.8765C34.083 23.7203 34.1371 23.5849 34.2499 23.4703C34.365 23.3557 34.5042 23.296 34.6674 23.2913C34.8307 23.2866 34.972 23.3381 35.0911 23.446C35.2127 23.5538 35.2757 23.6858 35.2802 23.842C35.2847 23.9982 35.2294 24.1336 35.1143 24.2482C35.0016 24.3628 34.8636 24.4225 34.7003 24.4272ZM39.0439 25.211L39.0644 25.9209L36.2389 26.0027L36.2183 25.2927L39.0439 25.211ZM37.0041 23.9626L37.8418 23.9384L37.9921 29.1351C37.999 29.3717 38.0384 29.5482 38.1105 29.6646C38.1848 29.7785 38.277 29.854 38.387 29.891C38.4993 29.9257 38.617 29.9412 38.7401 29.9377C38.8324 29.935 38.9079 29.9281 38.9668 29.9169C39.0256 29.9034 39.0727 29.8925 39.108 29.8844L39.3001 30.632C39.244 30.6549 39.1653 30.6785 39.0642 30.7028C38.9631 30.7294 38.8345 30.7449 38.6783 30.7495C38.4416 30.7563 38.2083 30.7121 37.9781 30.6169C37.7504 30.5217 37.5589 30.3721 37.4038 30.1682C37.2511 29.9642 37.1701 29.7036 37.161 29.3865L37.0041 23.9626ZM44.1037 26.2867L43.3573 26.5215C43.3064 26.3974 43.2331 26.2776 43.1373 26.1619C43.0439 26.0438 42.918 25.948 42.7596 25.8744C42.6011 25.8009 42.4 25.7676 42.1563 25.7746C41.8226 25.7843 41.5468 25.8692 41.3288 26.0295C41.1131 26.1873 41.0086 26.3834 41.0154 26.6176C41.0214 26.8259 41.1019 26.9882 41.2568 27.1045C41.4118 27.2208 41.6513 27.3145 41.9755 27.3857L42.7906 27.561C43.2815 27.6652 43.65 27.8358 43.896 28.0726C44.142 28.3071 44.2705 28.6148 44.2815 28.9958C44.2906 29.3082 44.2087 29.59 44.036 29.8413C43.8656 30.0926 43.6228 30.2938 43.3074 30.445C42.9921 30.5962 42.6226 30.678 42.199 30.6902C41.6429 30.7063 41.1791 30.599 40.8077 30.3681C40.4363 30.1373 40.1954 29.7914 40.0849 29.3303L40.8743 29.1086C40.9585 29.3998 41.108 29.6157 41.3229 29.7564C41.5401 29.8969 41.8203 29.9622 42.1634 29.9523C42.5539 29.941 42.8615 29.8492 43.0863 29.6769C43.3133 29.5022 43.4234 29.2977 43.4167 29.0634C43.4112 28.8741 43.3403 28.7175 43.2041 28.5935C43.0678 28.4672 42.8615 28.3761 42.5852 28.3201L41.6703 28.1334C41.1676 28.0296 40.7955 27.8568 40.554 27.6151C40.3148 27.3709 40.1898 27.0607 40.1789 26.6845C40.17 26.3768 40.2485 26.1022 40.4144 25.8606C40.5827 25.6188 40.8151 25.4262 41.1118 25.2826C41.4108 25.139 41.752 25.0616 42.1353 25.0505C42.6749 25.0349 43.1019 25.141 43.4164 25.3687C43.7332 25.5964 43.9623 25.9024 44.1037 26.2867Z" fill="#9291A5"/>
<defs>
<filter id="filter0_d_89_1033" x="0.813818" y="0.408349" width="247.088" height="202.048" filterUnits="userSpaceOnUse" color-interpolation-filters="sRGB">
<feFlood flood-opacity="0" result="BackgroundImageFix"/>
<feColorMatrix in="SourceAlpha" type="matrix" values="0 0 0 0 0 0 0 0 0 0 0 0 0 0 0 0 0 0 127 0" result="hardAlpha"/>
<feOffset dy="0.928028"/>
<feGaussianBlur stdDeviation="1.39204"/>
<feComposite in2="hardAlpha" operator="out"/>
<feColorMatrix type="matrix" values="0 0 0 0 0.0509804 0 0 0 0 0.0392157 0 0 0 0 0.172549 0 0 0 0.08 0"/>
<feBlend mode="normal" in2="BackgroundImageFix" result="effect1_dropShadow_89_1033"/>
<feBlend mode="normal" in="SourceGraphic" in2="effect1_dropShadow_89_1033" result="shape"/>
</filter>
</defs>
</svg>
