<svg width="254" height="179" viewBox="0 0 254 179" fill="none" xmlns="http://www.w3.org/2000/svg">
<g filter="url(#filter0_d_89_924)">
<rect x="4" y="9.58813" width="240.964" height="163.463" rx="14.5159" transform="rotate(-1.5667 4 9.58813)" fill="white"/>
</g>
<path d="M119.245 138.634L131.422 126.087L136.386 112.211L144.849 131.369L149.938 122.069L154.01 64.3988L170.043 120.298L180.057 101.245L201.172 136.394L207.18 127.222L210.586 112.166L222.012 100.097" stroke="#6C78FF" stroke-width="2.17738" stroke-linecap="round" stroke-linejoin="round"/>
<path d="M78.4063 126.103C77.8462 126.695 77.3105 127.262 76.7743 127.829C76.3153 128.314 75.8562 128.797 75.3971 129.28C75.247 129.438 75.062 129.49 74.8504 129.434C74.6388 129.378 74.5097 129.233 74.4577 129.024C74.4074 128.82 74.481 128.65 74.6203 128.502C75.2569 127.831 75.893 127.159 76.5286 126.487C76.9998 125.99 77.4714 125.493 77.9433 124.997C78.2021 124.726 78.51 124.716 78.7821 124.97C79.1601 125.322 79.5358 125.678 79.9091 126.036C79.9513 126.076 79.9787 126.132 80.0091 126.175L82.9846 123.032C82.9409 123.03 82.8989 123.027 82.8567 123.028C82.5027 123.037 82.1489 123.051 81.7947 123.054C81.5608 123.057 81.3815 122.949 81.2796 122.739C81.1823 122.538 81.2074 122.341 81.3456 122.164C81.3951 122.098 81.459 122.045 81.5324 122.008C81.6058 121.971 81.6867 121.951 81.7689 121.951C82.6161 121.926 83.4656 121.901 84.3141 121.882C84.6346 121.875 84.8784 122.112 84.8883 122.431C84.9141 123.274 84.9372 124.118 84.9575 124.961C84.9663 125.281 84.7219 125.539 84.4174 125.545C84.1129 125.55 83.8717 125.317 83.8574 124.996C83.8428 124.652 83.8372 124.307 83.8278 123.963L83.8238 123.82L83.7734 123.789C83.7439 123.838 83.7108 123.885 83.6743 123.93C82.6207 125.044 81.5662 126.157 80.511 127.269C80.2363 127.558 79.9311 127.567 79.6422 127.295C79.2628 126.938 78.8839 126.579 78.5057 126.22C78.4732 126.189 78.4468 126.15 78.4063 126.103Z" fill="#04CE00"/>
<path d="M34.4106 129.886L34.2772 125.01L35.2475 124.983L35.3808 129.86L34.4106 129.886ZM32.4057 127.985L32.3793 127.018L37.2559 126.885L37.2824 127.851L32.4057 127.985ZM38.726 131.01L38.7039 130.202L41.1327 127.544C41.3919 127.255 41.6052 127.003 41.7726 126.786C41.9423 126.567 42.0678 126.361 42.1491 126.166C42.2304 125.971 42.2681 125.766 42.2622 125.549C42.2554 125.304 42.1919 125.094 42.0717 124.919C41.9513 124.742 41.79 124.608 41.5878 124.517C41.3855 124.424 41.1593 124.381 40.9092 124.388C40.6447 124.395 40.4154 124.455 40.2211 124.569C40.0269 124.683 39.8796 124.839 39.7792 125.04C39.6788 125.24 39.6322 125.472 39.6394 125.736L38.5753 125.766C38.563 125.316 38.6557 124.92 38.8533 124.578C39.0509 124.235 39.3275 123.967 39.6831 123.772C40.0387 123.574 40.4461 123.469 40.9054 123.457C41.3695 123.444 41.7808 123.525 42.1394 123.701C42.5003 123.874 42.7849 124.116 42.9931 124.428C43.2013 124.738 43.3109 125.091 43.3217 125.488C43.3292 125.762 43.2849 126.031 43.1886 126.296C43.0948 126.561 42.926 126.858 42.6824 127.187C42.4386 127.514 42.0982 127.912 41.661 128.381L40.235 129.958L40.2364 130.012L43.5621 129.921L43.5882 130.877L38.726 131.01ZM47.5559 123.376L47.7579 130.763L46.6398 130.793L46.4683 124.524L46.425 124.526L44.6892 125.728L44.66 124.661L46.4702 123.405L47.5559 123.376ZM50.0566 130.769C49.8594 130.774 49.688 130.709 49.5423 130.573C49.3965 130.435 49.3209 130.267 49.3154 130.067C49.31 129.87 49.3764 129.699 49.5144 129.556C49.6524 129.41 49.82 129.335 50.0172 129.329C50.2144 129.324 50.3859 129.39 50.5316 129.528C50.6773 129.664 50.7528 129.83 50.7582 130.027C50.7619 130.16 50.7315 130.282 50.6672 130.395C50.6052 130.505 50.521 130.593 50.4146 130.661C50.3082 130.729 50.1888 130.765 50.0566 130.769ZM54.5136 130.701C53.9436 130.714 53.4526 130.577 53.0404 130.29C52.6283 130.003 52.3074 129.577 52.0778 129.013C51.8482 128.449 51.7224 127.765 51.7005 126.962C51.6786 126.162 51.7669 125.475 51.9654 124.901C52.1662 124.328 52.4646 123.886 52.8604 123.577C53.2587 123.268 53.7403 123.106 54.3054 123.09C54.8705 123.075 55.3592 123.212 55.7714 123.501C56.1835 123.788 56.5044 124.213 56.7339 124.774C56.9658 125.334 57.0927 126.013 57.1146 126.814C57.1366 127.62 57.0484 128.31 56.85 128.886C56.6515 129.46 56.3544 129.902 55.9586 130.214C55.5628 130.523 55.0811 130.685 54.5136 130.701ZM54.4873 129.738C54.9874 129.724 55.3715 129.469 55.6395 128.973C55.9099 128.478 56.0325 127.768 56.0072 126.845C55.9905 126.231 55.9114 125.715 55.7699 125.295C55.6308 124.873 55.4381 124.556 55.1916 124.344C54.9475 124.129 54.6607 124.026 54.3313 124.035C53.8335 124.049 53.4495 124.305 53.1791 124.803C52.9088 125.301 52.785 126.011 52.8078 126.932C52.8246 127.548 52.9026 128.066 53.0417 128.489C53.1831 128.908 53.3759 129.224 53.6199 129.437C53.8639 129.647 54.153 129.747 54.4873 129.738ZM61.0957 123.005L61.2977 130.393L60.1796 130.423L60.0081 124.154L59.9648 124.155L58.2289 125.358L58.1997 124.29L60.01 123.035L61.0957 123.005ZM67.114 128.847L67.1034 128.458C67.0957 128.179 67.1465 127.922 67.2556 127.688C67.367 127.452 67.5327 127.261 67.7525 127.115C67.9746 126.967 68.2456 126.889 68.5654 126.88C68.8925 126.871 69.1685 126.933 69.3936 127.067C69.6186 127.2 69.7908 127.382 69.9102 127.612C70.032 127.842 70.0967 128.097 70.1044 128.376L70.115 128.765C70.1227 129.044 70.072 129.302 69.9629 129.538C69.8538 129.772 69.6894 129.963 69.4696 130.111C69.2522 130.257 68.9824 130.334 68.6602 130.343C68.3355 130.352 68.0595 130.289 67.832 130.156C67.6045 130.02 67.4299 129.839 67.3082 129.611C67.1864 129.381 67.1216 129.126 67.114 128.847ZM67.9438 128.435L67.9544 128.824C67.9601 129.031 68.0145 129.217 68.1177 129.383C68.2209 129.549 68.3951 129.628 68.6404 129.621C68.8833 129.615 69.0505 129.526 69.1421 129.355C69.2337 129.184 69.2767 128.995 69.271 128.788L69.2603 128.399C69.2547 128.192 69.2027 128.006 69.1043 127.84C69.0083 127.674 68.8353 127.595 68.5852 127.601C68.3447 127.608 68.1763 127.697 68.0799 127.868C67.9835 128.039 67.9381 128.228 67.9438 128.435ZM63.2832 124.722L63.2725 124.332C63.2649 124.053 63.3156 123.795 63.4246 123.559C63.5361 123.322 63.7017 123.131 63.9215 122.986C64.1438 122.84 64.4148 122.763 64.7346 122.754C65.0616 122.745 65.3377 122.808 65.5627 122.941C65.7878 123.074 65.96 123.256 66.0794 123.486C66.1988 123.717 66.2623 123.971 66.2699 124.25L66.2806 124.64C66.2882 124.919 66.2375 125.176 66.1285 125.413C66.0218 125.647 65.8585 125.837 65.6388 125.985C65.4214 126.131 65.1515 126.208 64.8293 126.217C64.5023 126.226 64.225 126.164 63.9976 126.03C63.7725 125.895 63.5991 125.713 63.4773 125.485C63.3555 125.255 63.2908 125 63.2832 124.722ZM64.1166 124.309L64.1272 124.698C64.1329 124.905 64.1861 125.092 64.2869 125.257C64.3901 125.423 64.5643 125.502 64.8096 125.496C65.0501 125.489 65.2161 125.4 65.3077 125.229C65.4016 125.058 65.4458 124.869 65.4402 124.663L65.4295 124.273C65.4238 124.066 65.3718 123.88 65.2734 123.714C65.1751 123.548 65.002 123.469 64.7543 123.476C64.5139 123.482 64.3454 123.571 64.2491 123.742C64.1551 123.913 64.1109 124.102 64.1166 124.309ZM63.7793 130.325L68.656 122.799L69.518 122.775L64.6414 130.301L63.7793 130.325Z" fill="#04CE00"/>
<path d="M42.1352 87.0303L42.7702 110.247L37.8616 110.381L37.354 91.8237L37.218 91.8275L31.9924 95.3057L31.8734 90.9526L37.5213 87.1565L42.1352 87.0303ZM56.9578 110.177C55.212 110.224 53.6512 109.983 52.2753 109.454C50.9068 108.916 49.8236 108.163 49.0256 107.194C48.2277 106.225 47.8115 105.114 47.7772 103.859C47.7508 102.892 47.9456 101.998 48.3619 101.177C48.7854 100.349 49.3715 99.6557 50.1202 99.0983C50.8686 98.5332 51.7131 98.1622 52.6536 97.9852L52.6493 97.8265C51.4031 97.611 50.3815 97.0377 49.5846 96.1065C48.7874 95.1678 48.3715 94.0636 48.3368 92.794C48.3039 91.5923 48.6261 90.5133 49.3033 89.557C49.9803 88.593 50.9237 87.826 52.1333 87.256C53.3503 86.6781 54.741 86.3678 56.3054 86.325C57.8698 86.2823 59.2716 86.5162 60.5108 87.0268C61.7576 87.5373 62.7453 88.2552 63.474 89.1807C64.2025 90.0986 64.5868 91.1545 64.627 92.3484C64.6544 93.6258 64.2919 94.7513 63.5395 95.7249C62.7872 96.6984 61.806 97.3265 60.5961 97.6092L60.6004 97.7679C61.5341 97.8936 62.3863 98.2182 63.1569 98.7417C63.9349 99.2574 64.558 99.9173 65.0262 100.721C65.5018 101.518 65.7566 102.399 65.7906 103.366C65.8174 104.621 65.4588 105.754 64.715 106.765C63.9713 107.776 62.927 108.588 61.5824 109.199C60.2451 109.803 58.7036 110.129 56.9578 110.177ZM56.8592 106.572C57.6376 106.55 58.3139 106.392 58.8882 106.096C59.4623 105.793 59.905 105.388 60.2163 104.88C60.535 104.365 60.6854 103.778 60.6674 103.121C60.649 102.448 60.4627 101.86 60.1086 101.355C59.7542 100.843 59.2821 100.447 58.6921 100.168C58.1019 99.8821 57.4289 99.7492 56.6731 99.7699C55.9249 99.7903 55.2602 99.9598 54.679 100.278C54.0976 100.589 53.644 101.01 53.3181 101.541C52.9997 102.064 52.8496 102.661 52.868 103.334C52.886 103.992 53.0644 104.569 53.4032 105.067C53.7418 105.556 54.2098 105.937 54.8072 106.208C55.4043 106.472 56.0883 106.593 56.8592 106.572ZM56.5755 96.199C57.2254 96.1812 57.7999 96.0331 58.2991 95.7547C58.7982 95.4764 59.1849 95.099 59.4593 94.6226C59.7337 94.1461 59.8625 93.6019 59.8457 92.9897C59.8292 92.3851 59.6711 91.86 59.3716 91.4144C59.0718 90.9612 58.6689 90.613 58.1631 90.3697C57.6571 90.1188 57.0715 90.0025 56.4065 90.0207C55.749 90.0387 55.1707 90.1868 54.6715 90.4652C54.1722 90.736 53.7853 91.1058 53.5107 91.5747C53.2435 92.0358 53.1181 92.5686 53.1347 93.1732C53.1514 93.7854 53.3098 94.3218 53.6098 94.7826C53.9098 95.2433 54.3166 95.599 54.8302 95.8496C55.3437 96.1003 55.9255 96.2167 56.5755 96.199ZM78.0631 109.599C76.3173 109.647 74.7565 109.406 73.3806 108.877C72.0121 108.339 70.9289 107.586 70.131 106.617C69.333 105.648 68.9169 104.536 68.8826 103.282C68.8561 102.314 69.051 101.42 69.4672 100.6C69.8908 99.7714 70.4769 99.0785 71.2255 98.521C71.9739 97.956 72.8184 97.585 73.759 97.408L73.7547 97.2493C72.5084 97.0338 71.4868 96.4605 70.6899 95.5293C69.8928 94.5906 69.4769 93.4864 69.4421 92.2167C69.4093 91.0151 69.7314 89.9361 70.4087 88.9797C71.0857 88.0158 72.029 87.2488 73.2386 86.6787C74.4556 86.1009 75.8463 85.7906 77.4108 85.7478C78.9752 85.705 80.377 85.9389 81.6162 86.4496C82.8629 86.96 83.8507 87.678 84.5793 88.6035C85.3078 89.5214 85.6922 90.5773 85.7324 91.7712C85.7598 93.0486 85.3973 94.1741 84.6449 95.1476C83.8925 96.1211 82.9113 96.7493 81.7014 97.0319L81.7057 97.1906C82.6395 97.3164 83.4916 97.641 84.2623 98.1644C85.0402 98.6801 85.6633 99.34 86.1316 100.144C86.6071 100.94 86.8619 101.822 86.8959 102.789C86.9227 104.044 86.5642 105.177 85.8204 106.188C85.0766 107.199 84.0324 108.01 82.6877 108.622C81.3504 109.226 79.8089 109.552 78.0631 109.599ZM77.9645 105.994C78.7429 105.973 79.4193 105.815 79.9936 105.519C80.5677 105.216 81.0104 104.811 81.3217 104.303C81.6404 103.788 81.7907 103.201 81.7727 102.544C81.7543 101.871 81.5681 101.282 81.2139 100.778C80.8596 100.266 80.3874 99.87 79.7974 99.5912C79.2072 99.3048 78.5342 99.172 77.7785 99.1926C77.0303 99.2131 76.3656 99.3825 75.7844 99.701C75.2029 100.012 74.7493 100.433 74.4235 100.963C74.105 101.486 73.955 102.084 73.9734 102.757C73.9913 103.414 74.1697 103.992 74.5086 104.489C74.8472 104.979 75.3152 105.36 75.9125 105.631C76.5096 105.894 77.1936 106.015 77.9645 105.994ZM77.6808 95.6217C78.3308 95.6039 78.9053 95.4559 79.4044 95.1775C79.9035 94.8991 80.2903 94.5217 80.5646 94.0453C80.839 93.5689 80.9678 93.0246 80.9511 92.4124C80.9346 91.8078 80.7765 91.2827 80.4769 90.8371C80.1771 90.384 79.7743 90.0358 79.2685 89.7924C78.7624 89.5416 78.1769 89.4252 77.5118 89.4434C76.8543 89.4614 76.276 89.6096 75.7769 89.8879C75.2776 90.1587 74.8906 90.5286 74.616 90.9974C74.3488 91.4585 74.2235 91.9914 74.24 92.596C74.2567 93.2082 74.4151 93.7446 74.7151 94.2053C75.0151 94.666 75.4219 95.0217 75.9355 95.2724C76.4491 95.523 77.0309 95.6395 77.6808 95.6217ZM99.0891 109.024C97.3962 109.071 95.8805 108.821 94.5421 108.275C93.2109 107.722 92.1496 106.941 91.3582 105.934C90.5741 104.92 90.1523 103.736 90.0926 102.384L95.0352 102.249C95.081 102.815 95.2798 103.309 95.6316 103.73C95.9909 104.144 96.4609 104.46 97.0416 104.679C97.6224 104.897 98.2718 104.997 98.9898 104.977C99.738 104.956 100.396 104.806 100.963 104.526C101.53 104.246 101.97 103.867 102.282 103.389C102.594 102.912 102.742 102.367 102.725 101.755C102.708 101.135 102.519 100.592 102.158 100.125C101.805 99.6511 101.304 99.2866 100.654 99.0321C100.011 98.7774 99.2519 98.662 98.3752 98.686L96.21 98.7452L96.1114 95.1403L98.2766 95.0811C99.0173 95.0608 99.6675 94.9145 100.227 94.642C100.795 94.3693 101.231 94.0019 101.536 93.5398C101.841 93.0701 101.985 92.5292 101.968 91.917C101.952 91.3351 101.798 90.8288 101.507 90.3981C101.222 89.9596 100.827 89.6225 100.322 89.3868C99.8237 89.1508 99.2459 89.0418 98.5884 89.0598C97.9234 89.078 97.3183 89.2156 96.7732 89.4725C96.2279 89.7219 95.795 90.0703 95.4745 90.5177C95.1539 90.9651 94.9904 91.4839 94.9838 92.074L90.2793 92.2027C90.2654 90.8644 90.6148 89.675 91.3275 88.6345C92.0402 87.5939 93.016 86.7693 94.2549 86.1606C95.501 85.5442 96.9177 85.2143 98.5048 85.1709C100.107 85.127 101.517 85.3796 102.734 85.9287C103.952 86.4778 104.907 87.2382 105.599 88.2101C106.298 89.1742 106.661 90.2685 106.687 91.493C106.73 92.7927 106.356 93.8882 105.563 94.7797C104.778 95.6709 103.739 96.2515 102.446 96.5213L102.45 96.7027C104.164 96.8751 105.481 97.4328 106.399 98.3758C107.324 99.311 107.803 100.5 107.835 101.944C107.879 103.267 107.529 104.452 106.787 105.501C106.051 106.55 105.019 107.387 103.69 108.014C102.361 108.64 100.827 108.977 99.0891 109.024Z" fill="#1E1B39"/>
<path d="M35.188 52.724C35.1407 52.3509 34.9735 52.0646 34.6865 51.8652C34.3995 51.6657 34.0148 51.5726 33.5325 51.5858C33.2048 51.5948 32.9293 51.6487 32.7062 51.7476C32.4829 51.8435 32.3132 51.9734 32.197 52.1375C32.084 52.3015 32.0302 52.4855 32.0358 52.6895C32.0343 52.8598 32.0739 53.0072 32.1546 53.1318C32.2385 53.2564 32.3512 53.3631 32.4929 53.4521C32.6345 53.5379 32.7974 53.6124 32.9817 53.6754C33.1659 53.7354 33.3622 53.7857 33.5706 53.8264L34.4295 54.0071C34.8463 54.0885 35.23 54.2018 35.5805 54.3469C35.931 54.492 36.2361 54.674 36.4958 54.8927C36.7554 55.1115 36.959 55.372 37.1065 55.6743C37.2571 55.9765 37.3394 56.3254 37.3533 56.721C37.3661 57.3024 37.2315 57.8104 36.9494 58.2451C36.6704 58.6766 36.2589 59.0173 35.715 59.2674C35.1741 59.5142 34.5172 59.6482 33.7443 59.6693C32.9776 59.6903 32.3065 59.5911 31.7312 59.3717C31.159 59.1522 30.7074 58.8165 30.3764 58.3645C30.0483 57.9094 29.8672 57.3404 29.8331 56.6575L31.7762 56.6044C31.8066 56.9223 31.905 57.1856 32.0716 57.3946C32.2413 57.6003 32.4636 57.7536 32.7386 57.8544C33.0167 57.952 33.3288 57.996 33.6751 57.9865C34.0152 57.9772 34.3091 57.9197 34.5568 57.8139C34.8076 57.708 35.0002 57.5651 35.1345 57.3851C35.2688 57.205 35.3328 57.0006 35.3266 56.7718C35.3207 56.5585 35.2524 56.3809 35.1217 56.2391C34.9941 56.0971 34.8083 55.9785 34.5643 55.883C34.3235 55.7875 34.0288 55.7028 33.6802 55.6288L32.6389 55.3973C31.8328 55.2245 31.1923 54.9372 30.7172 54.5356C30.2421 54.134 29.9965 53.5822 29.9804 52.8803C29.9616 52.3054 30.1009 51.7988 30.3983 51.3606C30.6988 50.9223 31.1178 50.5751 31.6554 50.3191C32.1929 50.063 32.808 49.9256 33.5005 49.9066C34.2054 49.8873 34.824 49.9911 35.3561 50.2179C35.8914 50.4446 36.3118 50.7688 36.6173 51.1905C36.9227 51.6122 37.0878 52.1058 37.1126 52.6713L35.188 52.724ZM43.2262 56.2402L43.1143 52.1498L45.0899 52.0958L45.2847 59.2191L43.3879 59.271L43.3526 57.9771L43.2784 57.9791C43.129 58.4009 42.8707 58.7437 42.5036 59.0074C42.1395 59.2711 41.69 59.4103 41.1552 59.4249C40.679 59.4379 40.2572 59.3412 39.8895 59.1346C39.5219 58.9281 39.2306 58.6282 39.0156 58.235C38.8037 57.8416 38.6886 57.3667 38.6703 56.8103L38.5463 52.2748L40.5219 52.2207L40.6363 56.4038C40.6509 56.8242 40.7728 57.1535 41.0021 57.3917C41.2314 57.6298 41.5331 57.7438 41.9072 57.7335C42.1452 57.727 42.3664 57.6668 42.5705 57.553C42.7746 57.436 42.9371 57.2676 43.058 57.0477C43.1819 56.8277 43.238 56.5585 43.2262 56.2402ZM46.865 59.1759L46.6701 52.0526L48.553 52.0011L48.5874 53.2579L48.6708 53.2556C48.8078 52.8341 49.0462 52.4981 49.3858 52.2475C49.7255 51.9969 50.1365 51.865 50.6188 51.8518C51.1073 51.8384 51.5265 51.9491 51.8763 52.184C52.2261 52.4158 52.4639 52.7372 52.5896 53.1484L52.6638 53.1464C52.7979 52.7343 53.0518 52.4009 53.4254 52.1463C53.802 51.8885 54.2516 51.7524 54.7741 51.7381C55.4388 51.7199 55.9841 51.917 56.41 52.3292C56.8389 52.7382 57.0639 53.3292 57.085 54.1022L57.216 58.8928L55.2451 58.9467L55.1247 54.5456C55.1139 54.1499 55.0006 53.856 54.785 53.6638C54.5693 53.4717 54.3038 53.38 53.9885 53.3886C53.6298 53.3984 53.3532 53.5205 53.1585 53.7547C52.9637 53.9859 52.8714 54.287 52.8815 54.658L53.0005 59.0081L51.0852 59.0605L50.9636 54.6177C50.9541 54.2683 50.846 53.9928 50.6394 53.7912C50.4358 53.5894 50.1718 53.493 49.8471 53.5019C49.6276 53.5079 49.4313 53.5689 49.2581 53.6851C49.0879 53.798 48.9545 53.9548 48.8579 54.1555C48.7612 54.353 48.7164 54.5832 48.7236 54.846L48.8406 59.1219L46.865 59.1759ZM58.7766 58.8501L58.5818 51.7268L60.4646 51.6753L60.499 52.9321L60.5825 52.9298C60.7194 52.5084 60.9578 52.1723 61.2975 51.9217C61.6371 51.6711 62.0481 51.5392 62.5304 51.526C63.0189 51.5126 63.4381 51.6234 63.788 51.8582C64.1377 52.09 64.3755 52.4114 64.5012 52.8226L64.5754 52.8206C64.7096 52.4085 64.9634 52.0751 65.337 51.8205C65.7136 51.5627 66.1632 51.4266 66.6857 51.4123C67.3504 51.3941 67.8957 51.5912 68.3216 52.0034C68.7505 52.4125 68.9755 53.0034 68.9966 53.7764L69.1277 58.567L67.1567 58.6209L67.0363 54.2198C67.0255 53.8241 66.9122 53.5302 66.6966 53.3381C66.481 53.1459 66.2154 53.0542 65.9001 53.0628C65.5415 53.0726 65.2648 53.1947 65.0701 53.429C64.8753 53.6601 64.783 53.9612 64.7931 54.3322L64.9121 58.6823L62.9968 58.7347L62.8753 54.2919C62.8657 53.9425 62.7576 53.667 62.551 53.4654C62.3475 53.2636 62.0834 53.1672 61.7587 53.1761C61.5392 53.1821 61.3429 53.2431 61.1697 53.3593C60.9995 53.4722 60.8661 53.629 60.7695 53.8297C60.6728 54.0272 60.6281 54.2574 60.6352 54.5202L60.7522 58.7961L58.7766 58.8501ZM72.7231 58.6032C72.2686 58.6157 71.8615 58.5479 71.5016 58.4C71.1417 58.2489 70.8539 58.0201 70.6382 57.7135C70.4255 57.4037 70.3127 57.0139 70.2999 56.5439C70.289 56.1482 70.3526 55.8138 70.4906 55.5409C70.6285 55.2679 70.8205 55.0461 71.0664 54.8754C71.3124 54.7047 71.5934 54.5732 71.9096 54.481C72.2288 54.3888 72.5642 54.3208 72.9158 54.2772C73.3289 54.2225 73.6617 54.1732 73.9142 54.1292C74.1666 54.0821 74.3489 54.0183 74.4612 53.9379C74.5735 53.8574 74.6276 53.7415 74.6234 53.59L74.6227 53.5622C74.6146 53.2685 74.5157 53.0438 74.3258 52.8881C74.139 52.7323 73.8771 52.659 73.5401 52.6682C73.1845 52.6779 72.9038 52.7645 72.6979 52.9279C72.4918 53.0883 72.358 53.2869 72.2965 53.5237L70.4652 53.4253C70.5461 52.9899 70.7183 52.6108 70.9817 52.288C71.2451 51.9621 71.5893 51.7083 72.0144 51.5265C72.4425 51.3415 72.941 51.2412 73.5099 51.2257C73.9056 51.2148 74.2856 51.2509 74.6499 51.3337C75.0173 51.4165 75.3443 51.5514 75.6309 51.7385C75.9207 51.9255 76.1517 52.1698 76.3239 52.4714C76.4961 52.7699 76.588 53.1309 76.5995 53.5545L76.731 58.359L74.8574 58.4103L74.8304 57.4225L74.7747 57.424C74.6664 57.6497 74.5187 57.8502 74.3317 58.0255C74.1446 58.1977 73.9178 58.3354 73.6515 58.4386C73.385 58.5387 73.0756 58.5936 72.7231 58.6032ZM73.2516 57.2243C73.5422 57.2164 73.7973 57.1522 74.0168 57.0317C74.2362 56.9081 74.4065 56.7456 74.5279 56.5443C74.6492 56.343 74.7065 56.1171 74.6996 55.8667L74.6789 55.1107C74.6182 55.1526 74.5342 55.192 74.4269 55.229C74.3227 55.2628 74.2044 55.2954 74.0722 55.3269C73.94 55.3553 73.8077 55.3821 73.6753 55.4074C73.5429 55.4296 73.4228 55.4499 73.315 55.4683C73.084 55.5086 72.883 55.5683 72.7119 55.6472C72.5408 55.7261 72.409 55.8303 72.3167 55.9597C72.2242 56.086 72.1805 56.2419 72.1856 56.4274C72.1929 56.6964 72.296 56.8993 72.4946 57.0362C72.6963 57.1699 72.9486 57.2326 73.2516 57.2243ZM78.2637 58.3171L78.0688 51.1938L79.9842 51.1414L80.0182 52.3843L80.0924 52.3823C80.2101 51.9366 80.4189 51.5967 80.7189 51.3627C81.0187 51.1255 81.368 51.0015 81.7668 50.9906C81.8658 50.9878 81.9726 50.9911 82.0873 51.0004C82.2021 51.0096 82.303 51.0238 82.3902 51.0431L82.4381 52.7961C82.3446 52.7708 82.2156 52.7496 82.0512 52.7325C81.8867 52.7153 81.7365 52.7086 81.6004 52.7123C81.3098 52.7202 81.0518 52.7907 80.8265 52.9237C80.6042 53.0536 80.4296 53.2316 80.3028 53.4579C80.179 53.684 80.1211 53.9424 80.1291 54.233L80.2393 58.2631L78.2637 58.3171ZM85.1169 60.8029C84.8664 60.8098 84.6309 60.7961 84.4103 60.7619C84.1929 60.7307 84.0122 60.6877 83.8684 60.6329L84.2733 59.1459C84.5071 59.2107 84.7169 59.2436 84.9025 59.2447C85.0913 59.2458 85.2524 59.198 85.3859 59.1016C85.5225 59.005 85.6311 58.8443 85.7115 58.6193L85.8192 58.3147L83.0635 51.0572L85.1411 51.0004L86.759 56.1912L86.8332 56.1892L88.1788 50.9173L90.2703 50.8601L87.7176 58.829C87.5951 59.216 87.4234 59.5548 87.2024 59.8455C86.9845 60.1392 86.7046 60.3681 86.3625 60.5322C86.0206 60.6993 85.6054 60.7896 85.1169 60.8029ZM100.945 50.5681L98.6493 57.7596L96.4233 57.8204L93.738 50.7652L95.825 50.7082L97.4437 55.7644L97.5179 55.7624L98.8533 50.6253L100.945 50.5681ZM102.151 57.6638L101.956 50.5405L103.931 50.4864L104.126 57.6098L102.151 57.6638ZM102.923 49.5951C102.629 49.6031 102.375 49.5126 102.159 49.3236C101.947 49.1314 101.837 48.8977 101.829 48.6225C101.822 48.3505 101.919 48.1142 102.121 47.9138C102.326 47.7102 102.575 47.6043 102.868 47.5963C103.162 47.5883 103.415 47.6803 103.628 47.8725C103.843 48.0616 103.955 48.2921 103.962 48.5642C103.97 48.8394 103.871 49.0788 103.666 49.2824C103.465 49.4828 103.217 49.5871 102.923 49.5951ZM108.959 57.6168C108.226 57.6368 107.591 57.5057 107.055 57.2234C106.521 56.9378 106.104 56.5253 105.805 55.9859C105.505 55.4433 105.345 54.7964 105.325 54.0451C105.305 53.3124 105.429 52.6654 105.699 52.1042C105.968 51.543 106.357 51.1008 106.864 50.7775C107.375 50.4541 107.98 50.2829 108.679 50.2638C109.149 50.2509 109.588 50.3147 109.998 50.4551C110.41 50.5924 110.771 50.8068 111.083 51.0984C111.397 51.3899 111.645 51.7606 111.828 52.2104C112.01 52.6572 112.11 53.1835 112.126 53.7895L112.141 54.3321L106.126 54.4966L106.093 53.2723L110.248 53.1586C110.24 52.8742 110.171 52.6239 110.042 52.4078C109.912 52.1917 109.736 52.0248 109.513 51.9071C109.293 51.7863 109.039 51.7298 108.752 51.7376C108.452 51.7458 108.188 51.8227 107.96 51.9681C107.735 52.1104 107.56 52.2993 107.437 52.5347C107.313 52.7671 107.254 53.0239 107.258 53.3054L107.29 54.4694C107.3 54.8219 107.373 55.1246 107.51 55.3777C107.65 55.6307 107.842 55.8234 108.087 55.9559C108.332 56.0885 108.62 56.1502 108.951 56.1412C109.171 56.1352 109.371 56.0988 109.551 56.0319C109.732 55.9651 109.886 55.8681 110.012 55.7409C110.139 55.6136 110.233 55.4594 110.297 55.2783L112.127 55.3489C112.046 55.7904 111.867 56.179 111.588 56.5146C111.313 56.847 110.952 57.1106 110.505 57.3053C110.062 57.4969 109.546 57.6007 108.959 57.6168ZM114.868 57.316L112.735 50.2457L114.734 50.191L115.968 54.9468L116.033 54.945L117.052 50.1276L119.014 50.0739L120.313 54.8001L120.373 54.7985L121.328 50.0106L123.322 49.9561L121.583 57.1323L119.492 57.1895L118.145 52.7431L118.057 52.7455L116.955 57.2589L114.868 57.316ZM130.359 51.7964L128.553 51.9572C128.518 51.8034 128.448 51.6661 128.342 51.5453C128.237 51.4213 128.099 51.3245 127.93 51.2548C127.764 51.182 127.567 51.1488 127.338 51.155C127.032 51.1634 126.776 51.2354 126.569 51.371C126.362 51.5035 126.262 51.6764 126.268 51.8897C126.272 52.0598 126.344 52.2017 126.484 52.3154C126.623 52.4292 126.859 52.5171 127.192 52.5792L128.488 52.8036C129.184 52.9269 129.707 53.1416 130.056 53.4476C130.404 53.7537 130.586 54.1633 130.6 54.6765C130.613 55.1434 130.486 55.5568 130.221 55.9168C129.958 56.2767 129.592 56.5621 129.121 56.773C128.653 56.9807 128.11 57.093 127.492 57.1099C126.549 57.1357 125.792 56.9599 125.222 56.5826C124.655 56.2021 124.314 55.673 124.199 54.9955L126.14 54.8403C126.206 55.1262 126.354 55.3418 126.584 55.4872C126.814 55.6294 127.105 55.6957 127.458 55.6861C127.804 55.6766 128.08 55.6025 128.287 55.4638C128.496 55.3219 128.6 55.1443 128.597 54.9309C128.589 54.7516 128.509 54.6069 128.358 54.4965C128.206 54.3831 127.975 54.2997 127.664 54.2463L126.424 54.0343C125.724 53.9142 125.2 53.6872 124.85 53.3533C124.504 53.0193 124.324 52.5865 124.309 52.0547C124.297 51.5971 124.409 51.1995 124.648 50.862C124.889 50.5243 125.233 50.2596 125.68 50.068C126.129 49.8762 126.658 49.772 127.267 49.7554C128.167 49.7307 128.88 49.9015 129.407 50.2677C129.937 50.6338 130.254 51.1433 130.359 51.7964Z" fill="#1E1B39"/>
<path d="M33.8951 36.4636C33.8418 36.0993 33.6585 35.8204 33.3452 35.6268C33.0319 35.4332 32.6516 35.3426 32.2043 35.3548C31.8773 35.3637 31.5926 35.4245 31.3502 35.537C31.1102 35.6494 30.9242 35.8001 30.7922 35.989C30.6626 36.1779 30.6011 36.3901 30.6075 36.6258C30.6129 36.8229 30.6644 36.9912 30.7621 37.1305C30.8621 37.2673 30.9879 37.3806 31.1396 37.4703C31.2912 37.5576 31.4495 37.6291 31.6147 37.6847C31.7798 37.738 31.9314 37.7808 32.0694 37.8131L32.8252 37.9945C33.019 38.0398 33.2349 38.1037 33.473 38.1862C33.7135 38.2687 33.944 38.3839 34.1647 38.5319C34.3876 38.6774 34.5733 38.8672 34.7217 39.1014C34.8701 39.3356 34.949 39.6258 34.9585 39.9721C34.9694 40.3712 34.8747 40.7348 34.6743 41.0628C34.4763 41.3906 34.1803 41.655 33.7863 41.8559C33.3947 42.0567 32.9152 42.1649 32.3477 42.1804C31.8187 42.1949 31.3582 42.1221 30.9664 41.9619C30.577 41.8017 30.2675 41.5719 30.0379 41.2726C29.8108 40.9732 29.6772 40.6219 29.6373 40.2187L30.5607 40.1934C30.5924 40.4717 30.6925 40.7 30.861 40.8783C31.0318 41.0541 31.2447 41.183 31.4997 41.2651C31.7569 41.3447 32.0322 41.3805 32.3256 41.3725C32.6671 41.3631 32.9721 41.2994 33.2408 41.1814C33.5095 41.0609 33.7204 40.8987 33.8737 40.6948C34.0269 40.4885 34.0998 40.2506 34.0924 39.9813C34.0857 39.736 34.0117 39.5383 33.8704 39.3882C33.7292 39.238 33.5454 39.1179 33.3191 39.0278C33.0929 38.9378 32.8489 38.8602 32.5872 38.7952L31.6711 38.5603C31.0895 38.4102 30.6261 38.1858 30.281 37.8873C29.936 37.5887 29.7566 37.1905 29.743 36.6927C29.7317 36.2791 29.8336 35.9154 30.0489 35.6014C30.2664 35.2851 30.5628 35.0363 30.9381 34.8552C31.3157 34.6716 31.7402 34.5733 32.2115 34.5605C32.6876 34.5474 33.1132 34.6212 33.4882 34.7818C33.8631 34.94 34.1628 35.1628 34.3872 35.4503C34.6141 35.7377 34.7386 36.0676 34.7608 36.44L33.8951 36.4636ZM38.6266 36.3342L38.6463 37.0556L35.7752 37.1342L35.7554 36.4128L38.6266 36.3342ZM36.556 35.0625L37.4072 35.0392L37.5516 40.3199C37.5582 40.5603 37.598 40.7397 37.671 40.8581C37.7464 40.9739 37.8399 41.0508 37.9517 41.0886C38.0658 41.124 38.1853 41.14 38.3104 41.1366C38.4041 41.134 38.481 41.1271 38.5408 41.1158C38.6006 41.1022 38.6484 41.0912 38.6843 41.083L38.8783 41.843C38.8212 41.8662 38.7413 41.89 38.6385 41.9145C38.5357 41.9414 38.405 41.957 38.2463 41.9613C38.0058 41.9679 37.7687 41.9227 37.5351 41.8256C37.3038 41.7284 37.1095 41.5761 36.9522 41.3686C36.7974 41.1611 36.7155 40.8962 36.7067 40.574L36.556 35.0625ZM41.6925 41.9248C41.3415 41.9344 41.021 41.877 40.7313 41.7526C40.4414 41.6258 40.2089 41.4384 40.0337 41.1905C39.8584 40.9402 39.7658 40.6347 39.7559 40.274C39.7472 39.9566 39.8027 39.6976 39.9224 39.497C40.0419 39.294 40.2048 39.1331 40.4109 39.0144C40.617 38.8956 40.8456 38.8051 41.0965 38.7429C41.3499 38.6783 41.6047 38.6256 41.8611 38.5849C42.1966 38.5324 42.4686 38.4924 42.6772 38.4651C42.8882 38.4352 43.041 38.3914 43.1357 38.3334C43.2327 38.2754 43.2794 38.1779 43.2757 38.0408L43.2749 38.012C43.2651 37.6561 43.1602 37.3822 42.96 37.1903C42.7622 36.9984 42.4674 36.9078 42.0754 36.9185C41.669 36.9296 41.3528 37.0273 41.1269 37.2116C40.9009 37.3959 40.7438 37.5903 40.6555 37.7948L39.8396 37.5284C39.9747 37.1878 40.1599 36.9204 40.3953 36.7262C40.6329 36.5296 40.8938 36.3901 41.1779 36.3078C41.4644 36.2229 41.7471 36.1767 42.026 36.1691C42.204 36.1642 42.409 36.1802 42.641 36.2172C42.8754 36.2517 43.1025 36.3309 43.3225 36.4549C43.5449 36.5787 43.7318 36.7697 43.8833 37.0279C44.0347 37.2861 44.1164 37.6352 44.1285 38.0752L44.2283 41.7255L43.3771 41.7488L43.3565 40.9986L43.3133 40.9997C43.2588 41.1215 43.1662 41.2528 43.0353 41.3936C42.9043 41.5343 42.7284 41.6559 42.5074 41.7582C42.2864 41.8605 42.0148 41.916 41.6925 41.9248ZM41.8015 41.1566C42.1381 41.1474 42.4201 41.0735 42.6473 40.9349C42.8769 40.7963 43.0478 40.6208 43.1599 40.4083C43.2744 40.1958 43.3285 39.9742 43.3222 39.7433L43.3009 38.9642C43.266 39.0085 43.1878 39.0503 43.0661 39.0897C42.9468 39.1267 42.8081 39.1606 42.6502 39.1914C42.4945 39.2197 42.3424 39.2455 42.1938 39.2688C42.0476 39.2897 41.929 39.3073 41.8379 39.3219C41.6175 39.3568 41.412 39.4093 41.2214 39.4795C41.0331 39.5472 40.8818 39.6464 40.7675 39.7771C40.6555 39.9053 40.6024 40.0776 40.6083 40.294C40.6164 40.5898 40.732 40.8104 40.9549 40.9559C41.1802 41.099 41.4624 41.1659 41.8015 41.1566ZM48.04 36.0768L48.0597 36.7982L45.1885 36.8767L45.1688 36.1553L48.04 36.0768ZM45.9693 34.805L46.8206 34.7818L46.965 40.0624C46.9716 40.3029 47.0114 40.4823 47.0844 40.6006C47.1598 40.7165 47.2533 40.7933 47.3651 40.8312C47.4791 40.8665 47.5987 40.8825 47.7237 40.8791C47.8175 40.8765 47.8943 40.8696 47.9542 40.8584C48.014 40.8447 48.0618 40.8338 48.0977 40.8256L48.2917 41.5855C48.2346 41.6087 48.1546 41.6326 48.0518 41.657C47.9491 41.6839 47.8184 41.6995 47.6597 41.7039C47.4192 41.7104 47.1821 41.6652 46.9484 41.5681C46.7172 41.471 46.5229 41.3186 46.3656 41.1112C46.2107 40.9036 46.1289 40.6388 46.1201 40.3165L45.9693 34.805ZM49.472 41.5821L49.3205 36.0417L50.1717 36.0185L50.3233 41.5588L49.472 41.5821ZM49.7281 35.1065C49.5621 35.1111 49.4175 35.0585 49.2942 34.9487C49.1733 34.8389 49.1106 34.7047 49.1063 34.546C49.102 34.3873 49.1572 34.2498 49.2719 34.1335C49.389 34.0172 49.5306 33.9568 49.6965 33.9523C49.8624 33.9477 50.0058 34.0004 50.1267 34.1102C50.2501 34.2199 50.3139 34.3541 50.3182 34.5128C50.3226 34.6715 50.2662 34.809 50.149 34.9253C50.0343 35.0416 49.894 35.102 49.7281 35.1065ZM55.6892 37.1093L54.9304 37.3466C54.8789 37.2205 54.8045 37.0986 54.7075 36.9809C54.6127 36.8608 54.4849 36.7632 54.324 36.6882C54.1632 36.6132 53.9589 36.5791 53.7112 36.5858C53.3722 36.5951 53.0917 36.681 52.87 36.8435C52.6506 37.0035 52.5441 37.2025 52.5506 37.4406C52.5564 37.6522 52.6379 37.8172 52.7952 37.9357C52.9524 38.0541 53.1957 38.1497 53.525 38.2225L54.3529 38.402C54.8515 38.5087 55.2257 38.6826 55.4753 38.9236C55.7249 39.1622 55.855 39.4751 55.8656 39.8623C55.8743 40.1797 55.7906 40.466 55.6147 40.721C55.4412 40.9761 55.1941 41.1801 54.8734 41.3333C54.5527 41.4865 54.1772 41.5689 53.7468 41.5807C53.1817 41.5962 52.7106 41.4863 52.3336 41.2512C51.9565 41.016 51.7123 40.6641 51.6008 40.1955L52.4032 39.9714C52.4883 40.2675 52.6399 40.4872 52.858 40.6304C53.0785 40.7736 53.3631 40.8404 53.7118 40.8308C54.1086 40.82 54.4213 40.7272 54.6499 40.5525C54.8809 40.3753 54.9932 40.1677 54.9866 39.9296C54.9814 39.7373 54.9096 39.578 54.7714 39.4518C54.6332 39.3233 54.4237 39.2303 54.1429 39.173L53.2136 38.9819C52.703 38.8755 52.3251 38.6993 52.0802 38.4534C51.8375 38.2049 51.711 37.8895 51.7005 37.5072C51.692 37.1946 51.7722 36.9156 51.9412 36.6704C52.1125 36.425 52.349 36.2296 52.6507 36.0842C52.9547 35.9387 53.3015 35.8607 53.6911 35.85C54.2393 35.835 54.6731 35.9435 54.9923 36.1754C55.3138 36.4072 55.5462 36.7185 55.6892 37.1093ZM59.4471 35.7648L59.4669 36.4862L56.5957 36.5647L56.576 35.8433L59.4471 35.7648ZM57.3765 34.493L58.2277 34.4698L58.3722 39.7504C58.3787 39.9909 58.4185 40.1703 58.4916 40.2886C58.5669 40.4045 58.6605 40.4813 58.7722 40.5192C58.8863 40.5545 59.0058 40.5705 59.1309 40.5671C59.2247 40.5645 59.3015 40.5576 59.3613 40.5464C59.4211 40.5327 59.4689 40.5218 59.5048 40.5136L59.6989 41.2735C59.6418 41.2967 59.5618 41.3206 59.459 41.3451C59.3562 41.3719 59.2255 41.3875 59.0668 41.3919C58.8263 41.3985 58.5893 41.3532 58.3556 41.2561C58.1243 41.159 57.93 41.0066 57.7728 40.7992C57.6179 40.5916 57.536 40.3268 57.5272 40.0045L57.3765 34.493ZM60.8792 41.2701L60.7276 35.7298L61.5789 35.7065L61.7304 41.2468L60.8792 41.2701ZM61.1352 34.7945C60.9693 34.7991 60.8247 34.7465 60.7013 34.6367C60.5804 34.5269 60.5178 34.3927 60.5134 34.234C60.5091 34.0753 60.5643 33.9378 60.679 33.8216C60.7962 33.7052 60.9377 33.6448 61.1036 33.6403C61.2696 33.6357 61.413 33.6884 61.5339 33.7982C61.6572 33.9079 61.7211 34.0421 61.7254 34.2008C61.7297 34.3595 61.6733 34.497 61.5562 34.6134C61.4415 34.7296 61.3011 34.79 61.1352 34.7945ZM65.5435 41.258C65.024 41.2723 64.5734 41.1619 64.1916 40.9268C63.8098 40.6918 63.512 40.3619 63.2982 39.9369C63.0844 39.512 62.97 39.023 62.9548 38.47C62.9395 37.9073 63.0293 37.4079 63.2243 36.9718C63.4217 36.5332 63.7034 36.1874 64.0695 35.9343C64.4379 35.6788 64.8722 35.5442 65.3724 35.5305C65.7619 35.5199 66.115 35.5824 66.4315 35.7181C66.7481 35.8539 67.0097 36.0489 67.2164 36.3031C67.4231 36.5573 67.5552 36.8569 67.6128 37.2019L66.7615 37.2252C66.6897 36.9745 66.5393 36.7548 66.3103 36.5661C66.0837 36.375 65.7828 36.2846 65.4077 36.2948C65.0759 36.3039 64.7873 36.3984 64.5419 36.5784C64.2989 36.7559 64.1119 37.0029 63.981 37.3193C63.8524 37.6332 63.7939 37.9994 63.8053 38.4178C63.817 38.8459 63.8945 39.2167 64.0379 39.5305C64.1836 39.8441 64.3827 40.0854 64.6352 40.2541C64.8901 40.4228 65.1859 40.5026 65.5225 40.4934C65.7438 40.4873 65.9435 40.4433 66.1218 40.3615C66.3 40.2796 66.4497 40.1648 66.5708 40.0171C66.6919 39.8694 66.7761 39.6938 66.8235 39.4904L67.6747 39.4671C67.6356 39.7955 67.5246 40.0933 67.3418 40.3606C67.1613 40.6254 66.9181 40.839 66.6121 41.0014C66.3085 41.1613 65.9522 41.2469 65.5435 41.258ZM72.7702 36.6421L72.0114 36.8795C71.9598 36.7533 71.8855 36.6314 71.7884 36.5138C71.6937 36.3936 71.5659 36.296 71.405 36.221C71.2441 36.146 71.0399 36.1119 70.7922 36.1187C70.4531 36.1279 70.1727 36.2138 69.9509 36.3763C69.7315 36.5363 69.6251 36.7354 69.6316 36.9734C69.6374 37.185 69.7189 37.3501 69.8761 37.4685C70.0334 37.5869 70.2766 37.6825 70.6059 37.7553L71.4338 37.9348C71.9325 38.0415 72.3066 38.2154 72.5563 38.4564C72.8059 38.6951 72.9359 39.008 72.9465 39.3951C72.9552 39.7125 72.8716 39.9988 72.6957 40.2539C72.5222 40.5089 72.2751 40.713 71.9544 40.8661C71.6337 41.0193 71.2582 41.1017 70.8277 41.1135C70.2626 41.129 69.7916 41.0191 69.4145 40.784C69.0375 40.5488 68.7932 40.197 68.6818 39.7283L69.4842 39.5042C69.5693 39.8003 69.7209 40.02 69.939 40.1632C70.1595 40.3064 70.4441 40.3732 70.7928 40.3637C71.1895 40.3528 71.5022 40.26 71.7309 40.0853C71.9619 39.9081 72.0741 39.7005 72.0676 39.4625C72.0623 39.2701 71.9906 39.1108 71.8524 38.9846C71.7141 38.8561 71.5046 38.7631 71.2239 38.7058L70.2946 38.5147C69.7839 38.4083 69.4061 38.2322 69.1611 37.9862C68.9185 37.7377 68.792 37.4223 68.7815 37.04C68.773 36.7274 68.8532 36.4484 69.0221 36.2032C69.1935 35.9578 69.43 35.7625 69.7316 35.617C70.0357 35.4716 70.3825 35.3935 70.772 35.3828C71.3203 35.3678 71.754 35.4763 72.0732 35.7082C72.3948 35.9401 72.6271 36.2514 72.7702 36.6421Z" fill="#9291A5"/>
<defs>
<filter id="filter0_d_89_924" x="0.036592" y="0.48818" width="253.27" height="177.917" filterUnits="userSpaceOnUse" color-interpolation-filters="sRGB">
<feFlood flood-opacity="0" result="BackgroundImageFix"/>
<feColorMatrix in="SourceAlpha" type="matrix" values="0 0 0 0 0 0 0 0 0 0 0 0 0 0 0 0 0 0 127 0" result="hardAlpha"/>
<feOffset dy="1.45159"/>
<feGaussianBlur stdDeviation="2.17738"/>
<feComposite in2="hardAlpha" operator="out"/>
<feColorMatrix type="matrix" values="0 0 0 0 0.0509804 0 0 0 0 0.0392157 0 0 0 0 0.172549 0 0 0 0.08 0"/>
<feBlend mode="normal" in2="BackgroundImageFix" result="effect1_dropShadow_89_924"/>
<feBlend mode="normal" in="SourceGraphic" in2="effect1_dropShadow_89_924" result="shape"/>
</filter>
</defs>
</svg>
