<svg width="261" height="212" viewBox="0 0 261 212" fill="none" xmlns="http://www.w3.org/2000/svg">
<g filter="url(#filter0_d_81_2554)">
<rect x="3.5" y="2.94495" width="254.192" height="204.351" rx="9.96832" fill="white"/>
</g>
<path d="M47.4881 185.297H48.1026V188.925C48.1026 189.248 48.0431 189.523 47.9242 189.75C47.8053 189.976 47.6376 190.148 47.4212 190.265C47.2048 190.382 46.9495 190.441 46.6555 190.441C46.378 190.441 46.131 190.391 45.9146 190.29C45.6982 190.188 45.528 190.042 45.4041 189.854C45.2803 189.665 45.2183 189.442 45.2183 189.182H45.8229C45.8229 189.326 45.8584 189.452 45.9295 189.559C46.0022 189.665 46.1013 189.747 46.2268 189.807C46.3524 189.866 46.4953 189.896 46.6555 189.896C46.8323 189.896 46.9826 189.859 47.1065 189.784C47.2304 189.71 47.3245 189.601 47.389 189.457C47.455 189.312 47.4881 189.134 47.4881 188.925V185.297ZM50.3749 190.461C50.1337 190.461 49.9148 190.415 49.7182 190.325C49.5216 190.232 49.3655 190.099 49.2499 189.926C49.1342 189.751 49.0764 189.539 49.0764 189.291C49.0764 189.073 49.1194 188.897 49.2053 188.761C49.2912 188.624 49.406 188.517 49.5497 188.439C49.6934 188.361 49.852 188.303 50.0255 188.265C50.2006 188.226 50.3765 188.194 50.5533 188.171C50.7845 188.142 50.972 188.119 51.1158 188.104C51.2611 188.088 51.3668 188.061 51.4329 188.023C51.5007 187.985 51.5345 187.919 51.5345 187.824V187.805C51.5345 187.56 51.4676 187.37 51.3338 187.235C51.2017 187.099 51.0009 187.031 50.7317 187.031C50.4525 187.031 50.2336 187.093 50.075 187.215C49.9164 187.337 49.8049 187.468 49.7405 187.606L49.1855 187.408C49.2846 187.177 49.4167 186.997 49.5819 186.868C49.7488 186.737 49.9305 186.647 50.1271 186.595C50.3253 186.542 50.5202 186.516 50.7119 186.516C50.8341 186.516 50.9745 186.531 51.1331 186.561C51.2933 186.589 51.4478 186.647 51.5965 186.737C51.7468 186.826 51.8715 186.96 51.9706 187.14C52.0698 187.321 52.1193 187.562 52.1193 187.864V190.372H51.5345V189.856H51.5048C51.4651 189.939 51.3991 190.027 51.3066 190.121C51.214 190.216 51.091 190.296 50.9373 190.362C50.7837 190.428 50.5962 190.461 50.3749 190.461ZM50.4641 189.936C50.6953 189.936 50.8903 189.89 51.0488 189.799C51.2091 189.708 51.3297 189.591 51.4106 189.447C51.4932 189.304 51.5345 189.153 51.5345 188.994V188.459C51.5097 188.488 51.4552 188.516 51.371 188.541C51.2884 188.564 51.1926 188.584 51.0835 188.602C50.9762 188.619 50.8713 188.634 50.7688 188.647C50.6681 188.659 50.5863 188.669 50.5235 188.677C50.3716 188.697 50.2295 188.729 50.0973 188.773C49.9668 188.816 49.8611 188.882 49.7802 188.969C49.7009 189.055 49.6612 189.172 49.6612 189.321C49.6612 189.524 49.7364 189.678 49.8867 189.782C50.0387 189.884 50.2311 189.936 50.4641 189.936ZM53.7715 188.082V190.372H53.1867V186.566H53.7516V187.16H53.8012C53.8904 186.967 54.0259 186.812 54.2076 186.694C54.3893 186.576 54.6239 186.516 54.9113 186.516C55.169 186.516 55.3945 186.569 55.5878 186.675C55.7811 186.779 55.9314 186.937 56.0388 187.15C56.1461 187.362 56.1998 187.629 56.1998 187.953V190.372H55.615V187.993C55.615 187.694 55.5374 187.461 55.3821 187.294C55.2268 187.126 55.0137 187.041 54.7428 187.041C54.5561 187.041 54.3893 187.082 54.2423 187.163C54.0969 187.244 53.9821 187.362 53.8978 187.517C53.8136 187.672 53.7715 187.861 53.7715 188.082Z" fill="#615E83"/>
<path d="M81.9972 190.372V185.297H85.0401V185.842H82.6117V187.557H84.8121V188.102H82.6117V190.372H81.9972ZM87.3297 190.451C86.963 190.451 86.6466 190.37 86.3807 190.208C86.1163 190.045 85.9123 189.817 85.7686 189.524C85.6265 189.23 85.5555 188.888 85.5555 188.498C85.5555 188.109 85.6265 187.765 85.7686 187.468C85.9123 187.169 86.1122 186.936 86.3683 186.769C86.626 186.6 86.9266 186.516 87.2702 186.516C87.4685 186.516 87.6642 186.549 87.8575 186.615C88.0508 186.681 88.2267 186.789 88.3853 186.937C88.5439 187.084 88.6702 187.279 88.7644 187.522C88.8586 187.765 88.9057 188.064 88.9057 188.419V188.667H85.9718V188.161H88.311C88.311 187.947 88.268 187.755 88.1821 187.587C88.0978 187.418 87.9773 187.285 87.8203 187.188C87.665 187.09 87.4817 187.041 87.2702 187.041C87.0373 187.041 86.8358 187.099 86.6656 187.215C86.4971 187.329 86.3674 187.477 86.2766 187.661C86.1857 187.844 86.1403 188.041 86.1403 188.251V188.588C86.1403 188.875 86.1899 189.119 86.289 189.319C86.3897 189.517 86.5293 189.668 86.7077 189.772C86.8861 189.874 87.0935 189.926 87.3297 189.926C87.4833 189.926 87.6221 189.904 87.746 189.861C87.8715 189.817 87.9797 189.751 88.0706 189.663C88.1614 189.574 88.2317 189.463 88.2812 189.331L88.8462 189.49C88.7867 189.681 88.6868 189.85 88.5464 189.995C88.4059 190.139 88.2325 190.251 88.026 190.332C87.8195 190.411 87.5874 190.451 87.3297 190.451ZM89.8745 190.372V185.297H90.4593V187.17H90.5089C90.5518 187.104 90.6113 187.02 90.6873 186.917C90.7649 186.813 90.8756 186.721 91.0193 186.64C91.1647 186.557 91.3613 186.516 91.6091 186.516C91.9295 186.516 92.212 186.596 92.4565 186.756C92.701 186.917 92.8918 187.144 93.0289 187.438C93.166 187.732 93.2346 188.079 93.2346 188.479C93.2346 188.882 93.166 189.231 93.0289 189.527C92.8918 189.821 92.7018 190.049 92.459 190.211C92.2162 190.371 91.9361 190.451 91.619 190.451C91.3745 190.451 91.1787 190.411 91.0317 190.33C90.8847 190.247 90.7715 190.154 90.6922 190.05C90.6129 189.944 90.5518 189.856 90.5089 189.787H90.4395V190.372H89.8745ZM90.4494 188.469C90.4494 188.756 90.4915 189.01 90.5758 189.229C90.66 189.447 90.7831 189.618 90.945 189.742C91.1069 189.865 91.3051 189.926 91.5397 189.926C91.7842 189.926 91.9882 189.861 92.1517 189.732C92.3169 189.602 92.4408 189.427 92.5234 189.207C92.6077 188.986 92.6498 188.74 92.6498 188.469C92.6498 188.201 92.6085 187.96 92.5259 187.745C92.4449 187.529 92.3219 187.358 92.1567 187.232C91.9931 187.105 91.7875 187.041 91.5397 187.041C91.3018 187.041 91.1019 187.102 90.94 187.222C90.7781 187.341 90.6559 187.508 90.5733 187.723C90.4907 187.936 90.4494 188.185 90.4494 188.469Z" fill="#615E83"/>
<path d="M118.39 185.297H119.124L120.848 189.509H120.908L122.632 185.297H123.366V190.372H122.791V186.516H122.741L121.155 190.372H120.6L119.015 186.516H118.965V190.372H118.39V185.297ZM125.639 190.461C125.397 190.461 125.179 190.415 124.982 190.325C124.785 190.232 124.629 190.099 124.514 189.926C124.398 189.751 124.34 189.539 124.34 189.291C124.34 189.073 124.383 188.897 124.469 188.761C124.555 188.624 124.67 188.517 124.814 188.439C124.957 188.361 125.116 188.303 125.289 188.265C125.464 188.226 125.64 188.194 125.817 188.171C126.048 188.142 126.236 188.119 126.38 188.104C126.525 188.088 126.631 188.061 126.697 188.023C126.764 187.985 126.798 187.919 126.798 187.824V187.805C126.798 187.56 126.731 187.37 126.598 187.235C126.465 187.099 126.265 187.031 125.995 187.031C125.716 187.031 125.497 187.093 125.339 187.215C125.18 187.337 125.069 187.468 125.004 187.606L124.449 187.408C124.548 187.177 124.681 186.997 124.846 186.868C125.013 186.737 125.194 186.647 125.391 186.595C125.589 186.542 125.784 186.516 125.976 186.516C126.098 186.516 126.238 186.531 126.397 186.561C126.557 186.589 126.712 186.647 126.86 186.737C127.011 186.826 127.135 186.96 127.234 187.14C127.334 187.321 127.383 187.562 127.383 187.864V190.372H126.798V189.856H126.769C126.729 189.939 126.663 190.027 126.57 190.121C126.478 190.216 126.355 190.296 126.201 190.362C126.048 190.428 125.86 190.461 125.639 190.461ZM125.728 189.936C125.959 189.936 126.154 189.89 126.313 189.799C126.473 189.708 126.593 189.591 126.674 189.447C126.757 189.304 126.798 189.153 126.798 188.994V188.459C126.774 188.488 126.719 188.516 126.635 188.541C126.552 188.564 126.456 188.584 126.347 188.602C126.24 188.619 126.135 188.634 126.033 188.647C125.932 188.659 125.85 188.669 125.787 188.677C125.635 188.697 125.493 188.729 125.361 188.773C125.231 188.816 125.125 188.882 125.044 188.969C124.965 189.055 124.925 189.172 124.925 189.321C124.925 189.524 125 189.678 125.151 189.782C125.302 189.884 125.495 189.936 125.728 189.936ZM128.45 190.372V186.566H129.015V187.14H129.055C129.124 186.952 129.25 186.799 129.432 186.682C129.613 186.565 129.818 186.506 130.046 186.506C130.089 186.506 130.143 186.507 130.207 186.509C130.272 186.51 130.32 186.513 130.354 186.516V187.111C130.334 187.106 130.288 187.098 130.217 187.088C130.148 187.077 130.074 187.071 129.997 187.071C129.812 187.071 129.646 187.11 129.501 187.188C129.357 187.264 129.243 187.369 129.159 187.505C129.077 187.639 129.035 187.791 129.035 187.963V190.372H128.45Z" fill="#615E83"/>
<path d="M155.838 190.372H155.193L157.057 185.297H157.691L159.555 190.372H158.91L157.394 186.1H157.354L155.838 190.372ZM156.076 188.389H158.672V188.935H156.076V188.389ZM160.266 191.799V186.566H160.831V187.17H160.9C160.943 187.104 161.002 187.02 161.078 186.917C161.156 186.813 161.267 186.721 161.41 186.64C161.556 186.557 161.752 186.516 162 186.516C162.321 186.516 162.603 186.596 162.848 186.756C163.092 186.917 163.283 187.144 163.42 187.438C163.557 187.732 163.626 188.079 163.626 188.479C163.626 188.882 163.557 189.231 163.42 189.527C163.283 189.821 163.093 190.049 162.85 190.211C162.607 190.371 162.327 190.451 162.01 190.451C161.766 190.451 161.57 190.411 161.423 190.33C161.276 190.247 161.163 190.154 161.083 190.05C161.004 189.944 160.943 189.856 160.9 189.787H160.85V191.799H160.266ZM160.841 188.469C160.841 188.756 160.883 189.01 160.967 189.229C161.051 189.447 161.174 189.618 161.336 189.742C161.498 189.865 161.696 189.926 161.931 189.926C162.175 189.926 162.379 189.861 162.543 189.732C162.708 189.602 162.832 189.427 162.915 189.207C162.999 188.986 163.041 188.74 163.041 188.469C163.041 188.201 163 187.96 162.917 187.745C162.836 187.529 162.713 187.358 162.548 187.232C162.384 187.105 162.179 187.041 161.931 187.041C161.693 187.041 161.493 187.102 161.331 187.222C161.169 187.341 161.047 187.508 160.964 187.723C160.882 187.936 160.841 188.185 160.841 188.469ZM164.518 190.372V186.566H165.083V187.14H165.122C165.192 186.952 165.317 186.799 165.499 186.682C165.681 186.565 165.886 186.506 166.114 186.506C166.157 186.506 166.21 186.507 166.275 186.509C166.339 186.51 166.388 186.513 166.421 186.516V187.111C166.401 187.106 166.356 187.098 166.285 187.088C166.215 187.077 166.142 187.071 166.064 187.071C165.879 187.071 165.714 187.11 165.568 187.188C165.425 187.264 165.311 187.369 165.226 187.505C165.144 187.639 165.103 187.791 165.103 187.963V190.372H164.518Z" fill="#615E83"/>
<path d="M191.624 185.297H192.357L194.082 189.509H194.141L195.866 185.297H196.6V190.372H196.025V186.516H195.975L194.389 190.372H193.834L192.248 186.516H192.199V190.372H191.624V185.297ZM198.872 190.461C198.631 190.461 198.412 190.415 198.216 190.325C198.019 190.232 197.863 190.099 197.747 189.926C197.632 189.751 197.574 189.539 197.574 189.291C197.574 189.073 197.617 188.897 197.703 188.761C197.789 188.624 197.904 188.517 198.047 188.439C198.191 188.361 198.35 188.303 198.523 188.265C198.698 188.226 198.874 188.194 199.051 188.171C199.282 188.142 199.47 188.119 199.613 188.104C199.759 188.088 199.864 188.061 199.931 188.023C199.998 187.985 200.032 187.919 200.032 187.824V187.805C200.032 187.56 199.965 187.37 199.831 187.235C199.699 187.099 199.499 187.031 199.229 187.031C198.95 187.031 198.731 187.093 198.573 187.215C198.414 187.337 198.303 187.468 198.238 187.606L197.683 187.408C197.782 187.177 197.914 186.997 198.079 186.868C198.246 186.737 198.428 186.647 198.625 186.595C198.823 186.542 199.018 186.516 199.209 186.516C199.332 186.516 199.472 186.531 199.631 186.561C199.791 186.589 199.945 186.647 200.094 186.737C200.244 186.826 200.369 186.96 200.468 187.14C200.567 187.321 200.617 187.562 200.617 187.864V190.372H200.032V189.856H200.002C199.963 189.939 199.897 190.027 199.804 190.121C199.712 190.216 199.589 190.296 199.435 190.362C199.281 190.428 199.094 190.461 198.872 190.461ZM198.962 189.936C199.193 189.936 199.388 189.89 199.546 189.799C199.707 189.708 199.827 189.591 199.908 189.447C199.991 189.304 200.032 189.153 200.032 188.994V188.459C200.007 188.488 199.953 188.516 199.869 188.541C199.786 188.564 199.69 188.584 199.581 188.602C199.474 188.619 199.369 188.634 199.266 188.647C199.166 188.659 199.084 188.669 199.021 188.677C198.869 188.697 198.727 188.729 198.595 188.773C198.464 188.816 198.359 188.882 198.278 188.969C198.198 189.055 198.159 189.172 198.159 189.321C198.159 189.524 198.234 189.678 198.384 189.782C198.536 189.884 198.729 189.936 198.962 189.936ZM201.925 191.799C201.825 191.799 201.737 191.791 201.659 191.774C201.582 191.759 201.528 191.744 201.498 191.73L201.647 191.214C201.789 191.251 201.915 191.264 202.024 191.254C202.133 191.244 202.229 191.195 202.314 191.108C202.4 191.022 202.478 190.882 202.549 190.689L202.658 190.392L201.251 186.566H201.885L202.936 189.599H202.975L204.026 186.566H204.66L203.045 190.927C202.972 191.123 202.882 191.286 202.775 191.415C202.667 191.545 202.542 191.642 202.4 191.705C202.26 191.768 202.101 191.799 201.925 191.799Z" fill="#615E83"/>
<path d="M231.698 185.297H232.312V188.925C232.312 189.248 232.253 189.523 232.134 189.75C232.015 189.976 231.847 190.148 231.631 190.265C231.414 190.382 231.159 190.441 230.865 190.441C230.587 190.441 230.34 190.391 230.124 190.29C229.908 190.188 229.737 190.042 229.614 189.854C229.49 189.665 229.428 189.442 229.428 189.182H230.032C230.032 189.326 230.068 189.452 230.139 189.559C230.212 189.665 230.311 189.747 230.436 189.807C230.562 189.866 230.705 189.896 230.865 189.896C231.042 189.896 231.192 189.859 231.316 189.784C231.44 189.71 231.534 189.601 231.598 189.457C231.664 189.312 231.698 189.134 231.698 188.925V185.297ZM235.863 188.816V186.566H236.448V190.372H235.863V189.727H235.823C235.734 189.921 235.595 190.085 235.407 190.221C235.219 190.354 234.981 190.421 234.693 190.421C234.455 190.421 234.244 190.369 234.059 190.265C233.874 190.159 233.729 190.001 233.623 189.789C233.517 189.576 233.464 189.308 233.464 188.984V186.566H234.049V188.944C234.049 189.222 234.127 189.443 234.282 189.609C234.439 189.774 234.639 189.856 234.882 189.856C235.027 189.856 235.175 189.819 235.325 189.745C235.477 189.67 235.604 189.556 235.707 189.403C235.811 189.249 235.863 189.053 235.863 188.816ZM238.104 188.082V190.372H237.519V186.566H238.084V187.16H238.133C238.222 186.967 238.358 186.812 238.54 186.694C238.721 186.576 238.956 186.516 239.243 186.516C239.501 186.516 239.727 186.569 239.92 186.675C240.113 186.779 240.263 186.937 240.371 187.15C240.478 187.362 240.532 187.629 240.532 187.953V190.372H239.947V187.993C239.947 187.694 239.869 187.461 239.714 187.294C239.559 187.126 239.346 187.041 239.075 187.041C238.888 187.041 238.721 187.082 238.574 187.163C238.429 187.244 238.314 187.362 238.23 187.517C238.146 187.672 238.104 187.861 238.104 188.082Z" fill="#615E83"/>
<path d="M21.9408 171.973C21.5141 171.973 21.1507 171.857 20.8505 171.625C20.5503 171.391 20.321 171.052 20.1624 170.608C20.0038 170.163 19.9245 169.625 19.9245 168.994C19.9245 168.367 20.0038 167.832 20.1624 167.388C20.3228 166.943 20.5532 166.603 20.8534 166.369C21.1554 166.133 21.5179 166.015 21.9408 166.015C22.3637 166.015 22.7252 166.133 23.0254 166.369C23.3275 166.603 23.5578 166.943 23.7164 167.388C23.8769 167.832 23.9571 168.367 23.9571 168.994C23.9571 169.625 23.8778 170.163 23.7192 170.608C23.5607 171.052 23.3313 171.391 23.0311 171.625C22.7309 171.857 22.3675 171.973 21.9408 171.973ZM21.9408 171.35C22.3637 171.35 22.6922 171.146 22.9263 170.739C23.1604 170.331 23.2775 169.749 23.2775 168.994C23.2775 168.492 23.2237 168.064 23.1161 167.711C23.0103 167.358 22.8574 167.089 22.6573 166.904C22.459 166.719 22.2202 166.627 21.9408 166.627C21.5217 166.627 21.1941 166.833 20.9581 167.247C20.7221 167.658 20.6041 168.241 20.6041 168.994C20.6041 169.496 20.657 169.923 20.7627 170.274C20.8685 170.625 21.0204 170.892 21.2187 171.075C21.4188 171.259 21.6595 171.35 21.9408 171.35Z" fill="#615E83"/>
<path d="M21.8615 139.631C21.5292 139.631 21.23 139.565 20.9638 139.433C20.6976 139.3 20.4843 139.119 20.3238 138.889C20.1633 138.659 20.0755 138.396 20.0604 138.102H20.7401C20.7665 138.364 20.8855 138.581 21.0969 138.753C21.3102 138.923 21.5651 139.008 21.8615 139.008C22.0994 139.008 22.3108 138.952 22.4959 138.841C22.6828 138.729 22.8291 138.576 22.9348 138.382C23.0424 138.186 23.0962 137.964 23.0962 137.716C23.0962 137.463 23.0405 137.238 22.9291 137.04C22.8196 136.839 22.6686 136.682 22.476 136.567C22.2835 136.452 22.0635 136.393 21.8162 136.391C21.6387 136.389 21.4566 136.417 21.2696 136.473C21.0827 136.528 20.9289 136.599 20.808 136.686L20.151 136.606L20.5022 133.752H23.5154V134.375H21.0912L20.8873 136.085H20.9213C21.0403 135.991 21.1894 135.913 21.3688 135.85C21.5481 135.788 21.735 135.757 21.9295 135.757C22.2844 135.757 22.6006 135.842 22.8782 136.012C23.1576 136.18 23.3766 136.41 23.5352 136.703C23.6956 136.995 23.7759 137.329 23.7759 137.705C23.7759 138.075 23.6928 138.406 23.5267 138.696C23.3624 138.985 23.1359 139.214 22.847 139.382C22.5582 139.548 22.2297 139.631 21.8615 139.631ZM26.7926 139.631C26.3659 139.631 26.0025 139.515 25.7023 139.282C25.4021 139.048 25.1727 138.709 25.0141 138.266C24.8556 137.82 24.7763 137.282 24.7763 136.652C24.7763 136.025 24.8556 135.49 25.0141 135.046C25.1746 134.6 25.4049 134.261 25.7051 134.026C26.0072 133.79 26.3697 133.672 26.7926 133.672C27.2155 133.672 27.577 133.79 27.8772 134.026C28.1793 134.261 28.4096 134.6 28.5682 135.046C28.7287 135.49 28.8089 136.025 28.8089 136.652C28.8089 137.282 28.7296 137.82 28.571 138.266C28.4124 138.709 28.183 139.048 27.8829 139.282C27.5827 139.515 27.2193 139.631 26.7926 139.631ZM26.7926 139.008C27.2155 139.008 27.544 138.804 27.7781 138.396C28.0122 137.988 28.1292 137.407 28.1292 136.652C28.1292 136.149 28.0754 135.722 27.9678 135.369C27.8621 135.016 27.7092 134.747 27.5091 134.562C27.3108 134.377 27.072 134.284 26.7926 134.284C26.3735 134.284 26.0459 134.491 25.8099 134.904C25.5739 135.316 25.4559 135.898 25.4559 136.652C25.4559 137.154 25.5088 137.581 25.6145 137.932C25.7202 138.283 25.8722 138.55 26.0704 138.733C26.2706 138.916 26.5113 139.008 26.7926 139.008ZM30.5194 137.966L30.508 137.139H30.644L32.547 135.202H33.3739L31.3463 137.252H31.2897L30.5194 137.966ZM29.8964 139.552V133.752H30.5647V139.552H29.8964ZM32.6603 139.552L30.9611 137.399L31.4369 136.935L33.5099 139.552H32.6603Z" fill="#615E83"/>
<path d="M22.0881 103.847V109.646H21.3858V104.583H21.3518L19.9358 105.523V104.81L21.3858 103.847H22.0881ZM25.6478 109.726C25.2211 109.726 24.8577 109.61 24.5575 109.377C24.2573 109.143 24.0279 108.804 23.8693 108.361C23.7108 107.915 23.6315 107.377 23.6315 106.747C23.6315 106.12 23.7108 105.585 23.8693 105.141C24.0298 104.695 24.2601 104.356 24.5603 104.121C24.8624 103.885 25.2249 103.767 25.6478 103.767C26.0707 103.767 26.4322 103.885 26.7324 104.121C27.0345 104.356 27.2648 104.695 27.4234 105.141C27.5839 105.585 27.6641 106.12 27.6641 106.747C27.6641 107.377 27.5848 107.915 27.4262 108.361C27.2676 108.804 27.0382 109.143 26.7381 109.377C26.4379 109.61 26.0745 109.726 25.6478 109.726ZM25.6478 109.103C26.0707 109.103 26.3992 108.899 26.6333 108.491C26.8674 108.083 26.9844 107.502 26.9844 106.747C26.9844 106.244 26.9306 105.817 26.823 105.464C26.7173 105.111 26.5644 104.842 26.3643 104.657C26.166 104.472 25.9272 104.379 25.6478 104.379C25.2287 104.379 24.9011 104.586 24.6651 104.999C24.4291 105.411 24.3111 105.993 24.3111 106.747C24.3111 107.249 24.364 107.675 24.4697 108.027C24.5754 108.378 24.7274 108.645 24.9256 108.828C25.1258 109.011 25.3665 109.103 25.6478 109.103ZM30.6319 109.726C30.2053 109.726 29.8418 109.61 29.5417 109.377C29.2415 109.143 29.0121 108.804 28.8535 108.361C28.6949 107.915 28.6156 107.377 28.6156 106.747C28.6156 106.12 28.6949 105.585 28.8535 105.141C29.014 104.695 29.2443 104.356 29.5445 104.121C29.8466 103.885 30.209 103.767 30.6319 103.767C31.0548 103.767 31.4164 103.885 31.7166 104.121C32.0186 104.356 32.249 104.695 32.4075 105.141C32.568 105.585 32.6483 106.12 32.6483 106.747C32.6483 107.377 32.569 107.915 32.4104 108.361C32.2518 108.804 32.0224 109.143 31.7222 109.377C31.422 109.61 31.0586 109.726 30.6319 109.726ZM30.6319 109.103C31.0548 109.103 31.3833 108.899 31.6174 108.491C31.8515 108.083 31.9686 107.502 31.9686 106.747C31.9686 106.244 31.9148 105.817 31.8072 105.464C31.7015 105.111 31.5485 104.842 31.3484 104.657C31.1502 104.472 30.9114 104.379 30.6319 104.379C30.2128 104.379 29.8853 104.586 29.6493 104.999C29.4133 105.411 29.2953 105.993 29.2953 106.747C29.2953 107.249 29.3481 107.675 29.4539 108.027C29.5596 108.378 29.7116 108.645 29.9098 108.828C30.1099 109.011 30.3506 109.103 30.6319 109.103ZM34.3587 108.061L34.3474 107.234H34.4833L36.3864 105.297H37.2133L35.1856 107.347H35.129L34.3587 108.061ZM33.7357 109.646V103.847H34.404V109.646H33.7357ZM36.4997 109.646L34.8005 107.494L35.2763 107.03L37.3492 109.646H36.4997Z" fill="#615E83"/>
<path d="M21.8618 78.8059C21.5295 78.8059 21.2302 78.7398 20.964 78.6076C20.6978 78.4755 20.4845 78.2942 20.324 78.0639C20.1636 77.8336 20.0758 77.5711 20.0607 77.2766H20.7403C20.7668 77.539 20.8857 77.7562 21.0971 77.928C21.3105 78.0979 21.5654 78.1828 21.8618 78.1828C22.0996 78.1828 22.3111 78.1271 22.4961 78.0158C22.683 77.9044 22.8293 77.7514 22.9351 77.557C23.0427 77.3606 23.0965 77.1388 23.0965 76.8915C23.0965 76.6385 23.0408 76.4129 22.9294 76.2147C22.8199 76.0145 22.6689 75.8569 22.4763 75.7417C22.2837 75.6266 22.0638 75.568 21.8165 75.5662C21.639 75.5643 21.4568 75.5916 21.2699 75.6483C21.083 75.703 20.9291 75.7738 20.8083 75.8607L20.1513 75.7814L20.5024 72.9268H23.5156V73.5498H21.0915L20.8876 75.2603H20.9216C21.0405 75.1659 21.1897 75.0876 21.369 75.0253C21.5484 74.963 21.7353 74.9318 21.9297 74.9318C22.2847 74.9318 22.6009 75.0168 22.8784 75.1867C23.1578 75.3547 23.3768 75.585 23.5354 75.8777C23.6959 76.1703 23.7761 76.5045 23.7761 76.8802C23.7761 77.2502 23.6931 77.5806 23.5269 77.8713C23.3627 78.1602 23.1361 78.3886 22.8473 78.5566C22.5584 78.7228 22.2299 78.8059 21.8618 78.8059ZM26.7928 78.8059C26.3661 78.8059 26.0027 78.6897 25.7025 78.4575C25.4024 78.2234 25.173 77.8845 25.0144 77.4409C24.8558 76.9953 24.7765 76.4573 24.7765 75.8267C24.7765 75.1999 24.8558 74.6647 25.0144 74.221C25.1749 73.7754 25.4052 73.4356 25.7054 73.2015C26.0074 72.9655 26.3699 72.8475 26.7928 72.8475C27.2157 72.8475 27.5773 72.9655 27.8774 73.2015C28.1795 73.4356 28.4098 73.7754 28.5684 74.221C28.7289 74.6647 28.8091 75.1999 28.8091 75.8267C28.8091 76.4573 28.7298 76.9953 28.5713 77.4409C28.4127 77.8845 28.1833 78.2234 27.8831 78.4575C27.5829 78.6897 27.2195 78.8059 26.7928 78.8059ZM26.7928 78.1828C27.2157 78.1828 27.5442 77.9789 27.7783 77.5711C28.0124 77.1633 28.1295 76.5819 28.1295 75.8267C28.1295 75.3245 28.0757 74.8969 27.9681 74.5438C27.8623 74.1908 27.7094 73.9218 27.5093 73.7367C27.3111 73.5517 27.0722 73.4592 26.7928 73.4592C26.3737 73.4592 26.0461 73.6659 25.8102 74.0794C25.5742 74.491 25.4562 75.0734 25.4562 75.8267C25.4562 76.3289 25.509 76.7556 25.6147 77.1067C25.7205 77.4579 25.8725 77.725 26.0707 77.9081C26.2708 78.0913 26.5115 78.1828 26.7928 78.1828ZM31.777 78.8059C31.3503 78.8059 30.9869 78.6897 30.6867 78.4575C30.3865 78.2234 30.1571 77.8845 29.9985 77.4409C29.84 76.9953 29.7607 76.4573 29.7607 75.8267C29.7607 75.1999 29.84 74.6647 29.9985 74.221C30.159 73.7754 30.3893 73.4356 30.6895 73.2015C30.9916 72.9655 31.3541 72.8475 31.777 72.8475C32.1999 72.8475 32.5614 72.9655 32.8616 73.2015C33.1637 73.4356 33.394 73.7754 33.5526 74.221C33.7131 74.6647 33.7933 75.1999 33.7933 75.8267C33.7933 76.4573 33.714 76.9953 33.5554 77.4409C33.3968 77.8845 33.1674 78.2234 32.8673 78.4575C32.5671 78.6897 32.2037 78.8059 31.777 78.8059ZM31.777 78.1828C32.1999 78.1828 32.5284 77.9789 32.7625 77.5711C32.9966 77.1633 33.1136 76.5819 33.1136 75.8267C33.1136 75.3245 33.0598 74.8969 32.9522 74.5438C32.8465 74.1908 32.6936 73.9218 32.4935 73.7367C32.2952 73.5517 32.0564 73.4592 31.777 73.4592C31.3579 73.4592 31.0303 73.6659 30.7943 74.0794C30.5583 74.491 30.4403 75.0734 30.4403 75.8267C30.4403 76.3289 30.4932 76.7556 30.5989 77.1067C30.7046 77.4579 30.8566 77.725 31.0548 77.9081C31.255 78.0913 31.4957 78.1828 31.777 78.1828ZM35.5038 77.1407L35.4924 76.3138H35.6284L37.5314 74.3768H38.3583L36.3307 76.4271H36.2741L35.5038 77.1407ZM34.8808 78.7266V72.9268H35.5491V78.7266H34.8808ZM37.6447 78.7266L35.9456 76.5743L36.4213 76.1099L38.4943 78.7266H37.6447Z" fill="#615E83"/>
<path d="M48.4502 111.353C50.6633 108.732 58.1297 105.587 70.2902 113.974C85.4908 124.457 105.584 140.182 122.357 122.011C139.13 103.84 162.367 63.3049 238.545 128.999" stroke="#FF718B" stroke-width="1.49525" stroke-linecap="round"/>
<path d="M47.9268 129.252C54.3044 119.346 73.8446 104.5 100.984 124.367C134.909 149.2 151.241 137.119 172.942 125.933C194.644 114.747 213.66 126.604 223.504 132.868C233.348 139.133 234.221 140.028 240.72 140.028" stroke="#4A3AFF" stroke-width="1.49525" stroke-linecap="round"/>
<line x1="48.1288" y1="75.9631" x2="240.816" y2="75.9631" stroke="#E5E5EF" stroke-width="0.498416" stroke-linecap="round"/>
<line x1="48.1286" y1="107.862" x2="240.815" y2="107.862" stroke="#E5E5EF" stroke-width="0.498416" stroke-linecap="round"/>
<line x1="48.1286" y1="139.76" x2="240.815" y2="139.76" stroke="#E5E5EF" stroke-width="0.498416" stroke-linecap="round"/>
<line x1="48.1286" y1="171.659" x2="240.815" y2="171.659" stroke="#E5E5EF" stroke-width="0.498416" stroke-linecap="round"/>
<line x1="160.724" y1="76.4615" x2="160.724" y2="171.659" stroke="#9291A5" stroke-width="0.498416" stroke-linecap="round" stroke-dasharray="3.99 3.99"/>
<g filter="url(#filter1_d_81_2554)">
<circle cx="160.778" cy="93.9702" r="4.70861" fill="#FF718B"/>
<circle cx="160.778" cy="93.9702" r="4.2102" stroke="white" stroke-width="0.996832"/>
</g>
<line x1="19.9924" y1="55.5281" x2="241.065" y2="55.5281" stroke="#E5E5EF" stroke-width="0.498416"/>
<rect x="187.562" y="37.8468" width="3.98738" height="3.98738" rx="1.99369" fill="#4A3AFF"/>
<path d="M199.425 39.0344C199.395 38.7833 199.275 38.5883 199.063 38.4496C198.852 38.3108 198.592 38.2414 198.285 38.2414C198.06 38.2414 197.864 38.2778 197.695 38.3505C197.529 38.4231 197.398 38.5231 197.304 38.6503C197.211 38.7775 197.165 38.922 197.165 39.0839C197.165 39.2194 197.197 39.3358 197.262 39.4333C197.328 39.5291 197.412 39.6092 197.514 39.6737C197.617 39.7364 197.724 39.7885 197.837 39.8298C197.949 39.8694 198.052 39.9016 198.146 39.9264L198.662 40.0652C198.794 40.0999 198.941 40.1478 199.103 40.2089C199.266 40.27 199.422 40.3534 199.571 40.4592C199.721 40.5632 199.845 40.6971 199.943 40.8606C200.04 41.0241 200.089 41.2249 200.089 41.4627C200.089 41.737 200.017 41.9847 199.873 42.2061C199.731 42.4275 199.523 42.6034 199.249 42.7339C198.976 42.8644 198.645 42.9297 198.255 42.9297C197.892 42.9297 197.577 42.871 197.311 42.7537C197.047 42.6364 196.839 42.4729 196.687 42.2631C196.537 42.0533 196.451 41.8096 196.432 41.5321H197.066C197.082 41.7237 197.147 41.8823 197.259 42.0079C197.373 42.1318 197.517 42.2243 197.69 42.2854C197.866 42.3449 198.054 42.3746 198.255 42.3746C198.49 42.3746 198.701 42.3366 198.887 42.2606C199.074 42.183 199.222 42.0756 199.331 41.9385C199.44 41.7997 199.494 41.6378 199.494 41.4528C199.494 41.2843 199.447 41.1472 199.353 41.0415C199.259 40.9358 199.135 40.8499 198.981 40.7838C198.828 40.7177 198.662 40.6599 198.483 40.6103L197.859 40.4319C197.462 40.3179 197.149 40.1552 196.917 39.9438C196.686 39.7323 196.57 39.4556 196.57 39.1137C196.57 38.8295 196.647 38.5817 196.801 38.3703C196.956 38.1572 197.164 37.992 197.425 37.8747C197.688 37.7558 197.981 37.6963 198.305 37.6963C198.632 37.6963 198.923 37.7549 199.177 37.8722C199.432 37.9879 199.633 38.1464 199.782 38.348C199.932 38.5495 200.011 38.7783 200.02 39.0344H199.425ZM203.419 41.2843V39.0344H204.004V42.8405H203.419V42.1962H203.379C203.29 42.3895 203.151 42.5538 202.963 42.6893C202.774 42.8231 202.537 42.89 202.249 42.89C202.011 42.89 201.8 42.838 201.615 42.7339C201.43 42.6282 201.284 42.4696 201.179 42.2581C201.073 42.045 201.02 41.7766 201.02 41.4528V39.0344H201.605V41.4132C201.605 41.6907 201.683 41.9121 201.838 42.0773C201.995 42.2424 202.195 42.325 202.437 42.325C202.583 42.325 202.731 42.2879 202.881 42.2135C203.033 42.1392 203.16 42.0252 203.263 41.8716C203.367 41.718 203.419 41.5222 203.419 41.2843ZM205.154 42.8405V37.7657H205.739V39.639H205.788C205.831 39.5729 205.891 39.4887 205.967 39.3862C206.044 39.2822 206.155 39.1897 206.299 39.1087C206.444 39.0261 206.641 38.9848 206.888 38.9848C207.209 38.9848 207.491 39.0649 207.736 39.2252C207.98 39.3854 208.171 39.6125 208.308 39.9066C208.445 40.2006 208.514 40.5476 208.514 40.9473C208.514 41.3504 208.445 41.6998 208.308 41.9955C208.171 42.2895 207.981 42.5175 207.738 42.6794C207.496 42.8396 207.216 42.9197 206.898 42.9197C206.654 42.9197 206.458 42.8793 206.311 42.7983C206.164 42.7157 206.051 42.6224 205.972 42.5183C205.892 42.4126 205.831 42.325 205.788 42.2557H205.719V42.8405H205.154ZM205.729 40.9374C205.729 41.2249 205.771 41.4784 205.855 41.6981C205.939 41.9162 206.062 42.0872 206.224 42.2111C206.386 42.3333 206.584 42.3944 206.819 42.3944C207.064 42.3944 207.268 42.33 207.431 42.2012C207.596 42.0706 207.72 41.8955 207.803 41.6758C207.887 41.4545 207.929 41.2083 207.929 40.9374C207.929 40.6698 207.888 40.4286 207.805 40.2139C207.724 39.9975 207.601 39.8265 207.436 39.7009C207.273 39.5737 207.067 39.5101 206.819 39.5101C206.581 39.5101 206.381 39.5704 206.219 39.691C206.058 39.81 205.935 39.9768 205.853 40.1916C205.77 40.4047 205.729 40.6533 205.729 40.9374ZM212.104 39.8868L211.579 40.0354C211.546 39.9479 211.497 39.8628 211.433 39.7802C211.37 39.696 211.284 39.6266 211.175 39.5721C211.066 39.5176 210.927 39.4903 210.756 39.4903C210.524 39.4903 210.329 39.544 210.174 39.6514C210.021 39.7571 209.944 39.8917 209.944 40.0553C209.944 40.2006 209.997 40.3155 210.102 40.3997C210.208 40.484 210.373 40.5542 210.598 40.6103L211.163 40.7491C211.503 40.8317 211.757 40.9581 211.924 41.1282C212.09 41.2967 212.174 41.5139 212.174 41.7799C212.174 41.998 212.111 42.1929 211.986 42.3647C211.862 42.5365 211.688 42.672 211.465 42.7711C211.242 42.8702 210.983 42.9197 210.687 42.9197C210.299 42.9197 209.978 42.8355 209.723 42.667C209.469 42.4985 209.308 42.2524 209.24 41.9286L209.795 41.7898C209.848 41.9947 209.948 42.1483 210.095 42.2507C210.244 42.3531 210.438 42.4043 210.677 42.4043C210.95 42.4043 211.166 42.3465 211.326 42.2309C211.488 42.1136 211.569 41.9732 211.569 41.8096C211.569 41.6775 211.523 41.5668 211.43 41.4776C211.338 41.3867 211.196 41.319 211.004 41.2744L210.37 41.1257C210.021 41.0431 209.765 40.9151 209.602 40.7417C209.44 40.5665 209.359 40.3477 209.359 40.085C209.359 39.8703 209.419 39.6803 209.54 39.5151C209.662 39.3499 209.828 39.2202 210.038 39.1261C210.249 39.0319 210.489 38.9848 210.756 38.9848C211.133 38.9848 211.429 39.0674 211.644 39.2326C211.86 39.3978 212.014 39.6159 212.104 39.8868ZM214.6 42.9197C214.244 42.9197 213.936 42.8355 213.679 42.667C213.421 42.4985 213.223 42.2664 213.084 41.9707C212.945 41.675 212.876 41.3372 212.876 40.9572C212.876 40.5707 212.947 40.2296 213.089 39.9339C213.233 39.6365 213.432 39.4044 213.688 39.2376C213.946 39.0691 214.247 38.9848 214.59 38.9848C214.858 38.9848 215.099 39.0344 215.314 39.1335C215.529 39.2326 215.705 39.3714 215.842 39.5498C215.979 39.7282 216.064 39.9363 216.097 40.1742H215.512C215.468 40.0008 215.369 39.8471 215.215 39.7133C215.063 39.5779 214.858 39.5101 214.6 39.5101C214.372 39.5101 214.173 39.5696 214.001 39.6885C213.831 39.8058 213.698 39.9718 213.602 40.1866C213.508 40.3997 213.461 40.65 213.461 40.9374C213.461 41.2315 213.507 41.4875 213.599 41.7056C213.693 41.9236 213.826 42.0929 213.996 42.2135C214.168 42.3341 214.369 42.3944 214.6 42.3944C214.752 42.3944 214.89 42.368 215.014 42.3151C215.138 42.2623 215.243 42.1863 215.329 42.0872C215.415 41.988 215.476 41.8691 215.512 41.7303H216.097C216.064 41.955 215.982 42.1574 215.852 42.3374C215.723 42.5158 215.552 42.6579 215.339 42.7636C215.127 42.8677 214.881 42.9197 214.6 42.9197ZM216.952 42.8405V39.0344H217.517V39.6092H217.557C217.626 39.4209 217.751 39.2681 217.933 39.1508C218.115 39.0335 218.32 38.9749 218.548 38.9749C218.591 38.9749 218.644 38.9757 218.709 38.9774C218.773 38.979 218.822 38.9815 218.855 38.9848V39.5795C218.835 39.5746 218.79 39.5671 218.719 39.5572C218.649 39.5456 218.576 39.5399 218.498 39.5399C218.313 39.5399 218.148 39.5787 218.003 39.6563C217.859 39.7323 217.745 39.838 217.661 39.9735C217.578 40.1073 217.537 40.2601 217.537 40.4319V42.8405H216.952ZM219.548 42.8405V39.0344H220.133V42.8405H219.548ZM219.845 38.4C219.732 38.4 219.633 38.3612 219.551 38.2836C219.47 38.2059 219.429 38.1126 219.429 38.0036C219.429 37.8945 219.47 37.8012 219.551 37.7235C219.633 37.6459 219.732 37.6071 219.845 37.6071C219.959 37.6071 220.057 37.6459 220.138 37.7235C220.22 37.8012 220.262 37.8945 220.262 38.0036C220.262 38.1126 220.22 38.2059 220.138 38.2836C220.057 38.3612 219.959 38.4 219.845 38.4ZM221.204 44.2677V39.0344H221.769V39.639H221.838C221.881 39.5729 221.941 39.4887 222.017 39.3862C222.094 39.2822 222.205 39.1897 222.349 39.1087C222.494 39.0261 222.691 38.9848 222.939 38.9848C223.259 38.9848 223.542 39.0649 223.786 39.2252C224.03 39.3854 224.221 39.6125 224.358 39.9066C224.496 40.2006 224.564 40.5476 224.564 40.9473C224.564 41.3504 224.496 41.6998 224.358 41.9955C224.221 42.2895 224.031 42.5175 223.788 42.6794C223.546 42.8396 223.266 42.9197 222.948 42.9197C222.704 42.9197 222.508 42.8793 222.361 42.7983C222.214 42.7157 222.101 42.6224 222.022 42.5183C221.942 42.4126 221.881 42.325 221.838 42.2557H221.789V44.2677H221.204ZM221.779 40.9374C221.779 41.2249 221.821 41.4784 221.905 41.6981C221.99 41.9162 222.113 42.0872 222.274 42.2111C222.436 42.3333 222.635 42.3944 222.869 42.3944C223.114 42.3944 223.318 42.33 223.481 42.2012C223.646 42.0706 223.77 41.8955 223.853 41.6758C223.937 41.4545 223.979 41.2083 223.979 40.9374C223.979 40.6698 223.938 40.4286 223.855 40.2139C223.774 39.9975 223.651 39.8265 223.486 39.7009C223.323 39.5737 223.117 39.5101 222.869 39.5101C222.631 39.5101 222.431 39.5704 222.27 39.691C222.108 39.81 221.985 39.9768 221.903 40.1916C221.82 40.4047 221.779 40.6533 221.779 40.9374ZM227.111 39.0344V39.53H225.139V39.0344H227.111ZM225.714 38.1225H226.299V41.7502C226.299 41.9154 226.323 42.0393 226.37 42.1219C226.42 42.2028 226.483 42.2573 226.559 42.2854C226.636 42.3118 226.718 42.325 226.804 42.325C226.869 42.325 226.921 42.3217 226.963 42.3151C227.004 42.3069 227.037 42.3003 227.062 42.2953L227.181 42.8206C227.141 42.8355 227.086 42.8504 227.015 42.8652C226.944 42.8818 226.854 42.89 226.745 42.89C226.579 42.89 226.418 42.8545 226.259 42.7835C226.102 42.7124 225.972 42.6042 225.867 42.4589C225.765 42.3135 225.714 42.1301 225.714 41.9088V38.1225ZM227.991 42.8405V39.0344H228.576V42.8405H227.991ZM228.288 38.4C228.174 38.4 228.076 38.3612 227.994 38.2836C227.913 38.2059 227.872 38.1126 227.872 38.0036C227.872 37.8945 227.913 37.8012 227.994 37.7235C228.076 37.6459 228.174 37.6071 228.288 37.6071C228.402 37.6071 228.5 37.6459 228.581 37.7235C228.663 37.8012 228.705 37.8945 228.705 38.0036C228.705 38.1126 228.663 38.2059 228.581 38.2836C228.5 38.3612 228.402 38.4 228.288 38.4ZM231.193 42.9197C230.85 42.9197 230.548 42.838 230.289 42.6744C230.031 42.5109 229.829 42.2821 229.684 41.988C229.54 41.694 229.468 41.3504 229.468 40.9572C229.468 40.5608 229.54 40.2147 229.684 39.919C229.829 39.6233 230.031 39.3937 230.289 39.2301C230.548 39.0666 230.85 38.9848 231.193 38.9848C231.537 38.9848 231.837 39.0666 232.095 39.2301C232.354 39.3937 232.556 39.6233 232.7 39.919C232.845 40.2147 232.918 40.5608 232.918 40.9572C232.918 41.3504 232.845 41.694 232.7 41.988C232.556 42.2821 232.354 42.5109 232.095 42.6744C231.837 42.838 231.537 42.9197 231.193 42.9197ZM231.193 42.3944C231.454 42.3944 231.669 42.3275 231.837 42.1937C232.006 42.0599 232.131 41.884 232.212 41.6659C232.292 41.4479 232.333 41.2116 232.333 40.9572C232.333 40.7028 232.292 40.4658 232.212 40.2461C232.131 40.0264 232.006 39.8488 231.837 39.7133C231.669 39.5779 231.454 39.5101 231.193 39.5101C230.932 39.5101 230.717 39.5779 230.549 39.7133C230.38 39.8488 230.256 40.0264 230.175 40.2461C230.094 40.4658 230.053 40.7028 230.053 40.9572C230.053 41.2116 230.094 41.4479 230.175 41.6659C230.256 41.884 230.38 42.0599 230.549 42.1937C230.717 42.3275 230.932 42.3944 231.193 42.3944ZM234.395 40.5509V42.8405H233.81V39.0344H234.375V39.6291H234.425C234.514 39.4358 234.65 39.2805 234.831 39.1632C235.013 39.0443 235.248 38.9848 235.535 38.9848C235.793 38.9848 236.018 39.0377 236.212 39.1434C236.405 39.2475 236.555 39.4061 236.663 39.6192C236.77 39.8306 236.824 40.0982 236.824 40.422V42.8405H236.239V40.4617C236.239 40.1626 236.161 39.9297 236.006 39.7629C235.851 39.5944 235.637 39.5101 235.367 39.5101C235.18 39.5101 235.013 39.5506 234.866 39.6315C234.721 39.7125 234.606 39.8306 234.522 39.9859C234.437 40.1412 234.395 40.3295 234.395 40.5509ZM240.588 39.8868L240.063 40.0354C240.03 39.9479 239.981 39.8628 239.917 39.7802C239.854 39.696 239.768 39.6266 239.659 39.5721C239.55 39.5176 239.41 39.4903 239.24 39.4903C239.007 39.4903 238.813 39.544 238.658 39.6514C238.504 39.7571 238.427 39.8917 238.427 40.0553C238.427 40.2006 238.48 40.3155 238.586 40.3997C238.692 40.484 238.857 40.5542 239.082 40.6103L239.647 40.7491C239.987 40.8317 240.24 40.9581 240.407 41.1282C240.574 41.2967 240.658 41.5139 240.658 41.7799C240.658 41.998 240.595 42.1929 240.469 42.3647C240.345 42.5365 240.172 42.672 239.949 42.7711C239.726 42.8702 239.466 42.9197 239.171 42.9197C238.783 42.9197 238.461 42.8355 238.207 42.667C237.952 42.4985 237.791 42.2524 237.724 41.9286L238.279 41.7898C238.332 41.9947 238.432 42.1483 238.579 42.2507C238.727 42.3531 238.921 42.4043 239.161 42.4043C239.433 42.4043 239.65 42.3465 239.81 42.2309C239.972 42.1136 240.053 41.9732 240.053 41.8096C240.053 41.6775 240.007 41.5668 239.914 41.4776C239.822 41.3867 239.68 41.319 239.488 41.2744L238.854 41.1257C238.505 41.0431 238.249 40.9151 238.085 40.7417C237.924 40.5665 237.843 40.3477 237.843 40.085C237.843 39.8703 237.903 39.6803 238.024 39.5151C238.146 39.3499 238.312 39.2202 238.522 39.1261C238.733 39.0319 238.973 38.9848 239.24 38.9848C239.617 38.9848 239.913 39.0674 240.127 39.2326C240.344 39.3978 240.497 39.6159 240.588 39.8868Z" fill="#615E83"/>
<rect x="141.158" y="37.7024" width="3.98738" height="3.98738" rx="1.99369" fill="#FF718B"/>
<path d="M149.747 42.696V37.6213H151.462C151.86 37.6213 152.185 37.6931 152.438 37.8368C152.693 37.9789 152.881 38.1714 153.003 38.4142C153.125 38.657 153.186 38.928 153.186 39.227C153.186 39.526 153.125 39.7977 153.003 40.0422C152.882 40.2867 152.696 40.4816 152.443 40.627C152.19 40.7707 151.867 40.8426 151.472 40.8426H150.243V40.2974H151.452C151.724 40.2974 151.943 40.2503 152.109 40.1562C152.274 40.062 152.394 39.9348 152.468 39.7746C152.544 39.6127 152.582 39.4301 152.582 39.227C152.582 39.0238 152.544 38.8421 152.468 38.6818C152.394 38.5216 152.273 38.396 152.106 38.3052C151.939 38.2127 151.718 38.1664 151.442 38.1664H150.362V42.696H149.747ZM154.097 42.696V38.89H154.662V39.4648H154.702C154.771 39.2765 154.897 39.1237 155.078 39.0064C155.26 38.8891 155.465 38.8305 155.693 38.8305C155.736 38.8305 155.79 38.8313 155.854 38.833C155.918 38.8346 155.967 38.8371 156 38.8404V39.4351C155.98 39.4301 155.935 39.4227 155.864 39.4128C155.794 39.4012 155.721 39.3955 155.643 39.3955C155.458 39.3955 155.293 39.4343 155.148 39.5119C155.004 39.5879 154.89 39.6936 154.806 39.8291C154.723 39.9629 154.682 40.1157 154.682 40.2875V42.696H154.097ZM158.124 42.7753C157.78 42.7753 157.479 42.6936 157.219 42.53C156.962 42.3665 156.76 42.1377 156.615 41.8436C156.471 41.5496 156.399 41.206 156.399 40.8128C156.399 40.4164 156.471 40.0703 156.615 39.7746C156.76 39.4789 156.962 39.2493 157.219 39.0857C157.479 38.9222 157.78 38.8404 158.124 38.8404C158.467 38.8404 158.768 38.9222 159.026 39.0857C159.285 39.2493 159.487 39.4789 159.63 39.7746C159.776 40.0703 159.848 40.4164 159.848 40.8128C159.848 41.206 159.776 41.5496 159.63 41.8436C159.487 42.1377 159.285 42.3665 159.026 42.53C158.768 42.6936 158.467 42.7753 158.124 42.7753ZM158.124 42.25C158.385 42.25 158.599 42.1831 158.768 42.0493C158.936 41.9155 159.061 41.7396 159.142 41.5215C159.223 41.3035 159.264 41.0672 159.264 40.8128C159.264 40.5584 159.223 40.3214 159.142 40.1017C159.061 39.882 158.936 39.7044 158.768 39.5689C158.599 39.4334 158.385 39.3657 158.124 39.3657C157.863 39.3657 157.648 39.4334 157.479 39.5689C157.311 39.7044 157.186 39.882 157.105 40.1017C157.024 40.3214 156.984 40.5584 156.984 40.8128C156.984 41.0672 157.024 41.3035 157.105 41.5215C157.186 41.7396 157.311 41.9155 157.479 42.0493C157.648 42.1831 157.863 42.25 158.124 42.25ZM162.178 42.7753C161.861 42.7753 161.581 42.6952 161.338 42.535C161.095 42.3731 160.905 42.1451 160.768 41.8511C160.631 41.5554 160.563 41.206 160.563 40.8029C160.563 40.4031 160.631 40.0562 160.768 39.7622C160.905 39.4681 161.096 39.241 161.341 39.0808C161.585 38.9205 161.868 38.8404 162.188 38.8404C162.436 38.8404 162.632 38.8817 162.775 38.9643C162.921 39.0452 163.031 39.1378 163.107 39.2418C163.185 39.3442 163.245 39.4285 163.288 39.4946H163.338V37.6213H163.923V42.696H163.358V42.1113H163.288C163.245 42.1806 163.184 42.2682 163.105 42.3739C163.026 42.478 162.912 42.5713 162.765 42.6539C162.618 42.7349 162.423 42.7753 162.178 42.7753ZM162.257 42.25C162.492 42.25 162.69 42.1889 162.852 42.0667C163.014 41.9428 163.137 41.7718 163.221 41.5537C163.306 41.334 163.348 41.0804 163.348 40.793C163.348 40.5089 163.306 40.2602 163.224 40.0471C163.141 39.8324 163.019 39.6655 162.857 39.5466C162.695 39.426 162.495 39.3657 162.257 39.3657C162.01 39.3657 161.803 39.4293 161.638 39.5565C161.474 39.6821 161.351 39.853 161.269 40.0694C161.188 40.2842 161.147 40.5254 161.147 40.793C161.147 41.0639 161.189 41.3101 161.271 41.5314C161.356 41.7511 161.479 41.9262 161.643 42.0567C161.808 42.1856 162.013 42.25 162.257 42.25ZM167.474 41.1399V38.89H168.058V42.696H167.474V42.0518H167.434C167.345 42.2451 167.206 42.4094 167.018 42.5449C166.829 42.6787 166.591 42.7456 166.304 42.7456C166.066 42.7456 165.855 42.6936 165.67 42.5895C165.485 42.4838 165.339 42.3252 165.233 42.1137C165.128 41.9006 165.075 41.6322 165.075 41.3084V38.89H165.66V41.2688C165.66 41.5463 165.737 41.7677 165.893 41.9328C166.05 42.098 166.249 42.1806 166.492 42.1806C166.638 42.1806 166.785 42.1435 166.936 42.0691C167.088 41.9948 167.215 41.8808 167.317 41.7272C167.421 41.5735 167.474 41.3778 167.474 41.1399ZM170.676 42.7753C170.319 42.7753 170.012 42.6911 169.754 42.5226C169.496 42.3541 169.298 42.122 169.159 41.8263C169.02 41.5306 168.951 41.1928 168.951 40.8128C168.951 40.4263 169.022 40.0851 169.164 39.7894C169.308 39.4921 169.508 39.26 169.764 39.0931C170.021 38.9247 170.322 38.8404 170.666 38.8404C170.933 38.8404 171.174 38.89 171.389 38.9891C171.604 39.0882 171.78 39.227 171.917 39.4054C172.054 39.5838 172.139 39.7919 172.172 40.0298H171.587C171.543 39.8563 171.444 39.7027 171.29 39.5689C171.138 39.4334 170.933 39.3657 170.676 39.3657C170.448 39.3657 170.248 39.4252 170.076 39.5441C169.906 39.6614 169.773 39.8274 169.677 40.0422C169.583 40.2553 169.536 40.5056 169.536 40.793C169.536 41.087 169.582 41.3431 169.675 41.5612C169.769 41.7792 169.901 41.9485 170.071 42.0691C170.243 42.1897 170.444 42.25 170.676 42.25C170.828 42.25 170.966 42.2236 171.089 42.1707C171.213 42.1179 171.318 42.0419 171.404 41.9428C171.49 41.8436 171.551 41.7247 171.587 41.5859H172.172C172.139 41.8106 172.057 42.013 171.927 42.193C171.798 42.3714 171.627 42.5135 171.414 42.6192C171.203 42.7233 170.956 42.7753 170.676 42.7753ZM174.682 38.89V39.3855H172.71V38.89H174.682ZM173.285 37.9781H173.87V41.6058C173.87 41.771 173.894 41.8949 173.942 41.9774C173.991 42.0584 174.054 42.1129 174.13 42.141C174.207 42.1674 174.289 42.1806 174.375 42.1806C174.44 42.1806 174.492 42.1773 174.534 42.1707C174.575 42.1625 174.608 42.1559 174.633 42.1509L174.752 42.6762C174.712 42.6911 174.657 42.706 174.586 42.7208C174.515 42.7373 174.425 42.7456 174.316 42.7456C174.15 42.7456 173.989 42.7101 173.83 42.6391C173.673 42.568 173.543 42.4598 173.438 42.3144C173.336 42.1691 173.285 41.9857 173.285 41.7643V37.9781Z" fill="#615E83"/>
<path d="M20.3816 35.2719V33.8818H26.9311V35.2719H24.4896V41.8564H22.823V35.2719H20.3816ZM29.8135 41.9733C29.2087 41.9733 28.6856 41.8448 28.2443 41.5878C27.8056 41.3282 27.4668 40.9673 27.228 40.5053C26.9892 40.0406 26.8697 39.5019 26.8697 38.8893C26.8697 38.2715 26.9892 37.7315 27.228 37.2695C27.4668 36.8048 27.8056 36.444 28.2443 36.187C28.6856 35.9274 29.2087 35.7976 29.8135 35.7976C30.4184 35.7976 30.9401 35.9274 31.3789 36.187C31.8202 36.444 32.1602 36.8048 32.399 37.2695C32.6379 37.7315 32.7573 38.2715 32.7573 38.8893C32.7573 39.5019 32.6379 40.0406 32.399 40.5053C32.1602 40.9673 31.8202 41.3282 31.3789 41.5878C30.9401 41.8448 30.4184 41.9733 29.8135 41.9733ZM29.8213 40.6883C30.0965 40.6883 30.3262 40.6104 30.5105 40.4547C30.6948 40.2963 30.8337 40.0808 30.9272 39.8083C31.0232 39.5357 31.0712 39.2255 31.0712 38.8776C31.0712 38.5298 31.0232 38.2196 30.9272 37.947C30.8337 37.6744 30.6948 37.459 30.5105 37.3006C30.3262 37.1423 30.0965 37.0631 29.8213 37.0631C29.5435 37.0631 29.3099 37.1423 29.1204 37.3006C28.9335 37.459 28.792 37.6744 28.696 37.947C28.6025 38.2196 28.5558 38.5298 28.5558 38.8776C28.5558 39.2255 28.6025 39.5357 28.696 39.8083C28.792 40.0808 28.9335 40.2963 29.1204 40.4547C29.3099 40.6104 29.5435 40.6883 29.8213 40.6883ZM37.0172 35.8755V37.1215H33.4153V35.8755H37.0172ZM34.2331 34.4425H35.8919V40.0185C35.8919 40.1717 35.9152 40.2911 35.9619 40.3768C36.0087 40.4598 36.0736 40.5183 36.1566 40.552C36.2423 40.5857 36.3409 40.6026 36.4526 40.6026C36.5304 40.6026 36.6083 40.5961 36.6862 40.5831C36.7641 40.5676 36.8238 40.5559 36.8653 40.5481L37.1262 41.7825C37.0431 41.8084 36.9263 41.8383 36.7758 41.872C36.6252 41.9084 36.4422 41.9304 36.2267 41.9382C35.827 41.9538 35.4765 41.9006 35.1754 41.7786C34.8768 41.6566 34.6445 41.4671 34.4784 41.2101C34.3122 40.9531 34.2305 40.6286 34.2331 40.2366V34.4425ZM39.8032 41.9694C39.4216 41.9694 39.0816 41.9032 38.7831 41.7708C38.4845 41.6358 38.2483 41.4372 38.0744 41.175C37.903 40.9102 37.8174 40.5806 37.8174 40.186C37.8174 39.8537 37.8784 39.5746 38.0004 39.3488C38.1224 39.1229 38.2885 38.9412 38.4988 38.8036C38.7091 38.6661 38.9479 38.5622 39.2153 38.4921C39.4852 38.422 39.7682 38.3727 40.0641 38.3442C40.412 38.3078 40.6923 38.2741 40.9052 38.2429C41.1181 38.2092 41.2725 38.1599 41.3686 38.095C41.4646 38.0301 41.5127 37.934 41.5127 37.8068V37.7835C41.5127 37.5368 41.4348 37.346 41.279 37.2111C41.1259 37.0761 40.9078 37.0086 40.6249 37.0086C40.3263 37.0086 40.0888 37.0748 39.9123 37.2072C39.7358 37.337 39.6189 37.5005 39.5618 37.6978L38.0276 37.5732C38.1055 37.2098 38.2587 36.8956 38.4871 36.6309C38.7156 36.3635 39.0102 36.1584 39.371 36.0156C39.7345 35.8703 40.155 35.7976 40.6326 35.7976C40.9649 35.7976 41.2829 35.8365 41.5866 35.9144C41.893 35.9923 42.1642 36.113 42.4005 36.2765C42.6393 36.4401 42.8275 36.6503 42.9651 36.9073C43.1027 37.1617 43.1714 37.4668 43.1714 37.8224V41.8564H41.5983V41.0271H41.5516C41.4555 41.214 41.3271 41.3788 41.1661 41.5216C41.0052 41.6618 40.8118 41.7721 40.5859 41.8526C40.3601 41.9304 40.0992 41.9694 39.8032 41.9694ZM40.2783 40.8246C40.5223 40.8246 40.7378 40.7765 40.9247 40.6805C41.1116 40.5819 41.2583 40.4495 41.3647 40.2833C41.4711 40.1172 41.5243 39.929 41.5243 39.7187V39.084C41.4724 39.1178 41.401 39.1489 41.3102 39.1775C41.2219 39.2034 41.122 39.2281 41.0103 39.2514C40.8987 39.2722 40.7871 39.2917 40.6755 39.3099C40.5639 39.3254 40.4626 39.3397 40.3718 39.3527C40.1771 39.3812 40.007 39.4267 39.8617 39.489C39.7163 39.5513 39.6034 39.6356 39.5229 39.7421C39.4424 39.8459 39.4022 39.9757 39.4022 40.1315C39.4022 40.3573 39.484 40.5299 39.6475 40.6493C39.8136 40.7662 40.0239 40.8246 40.2783 40.8246ZM46.1172 33.8818V41.8564H44.4584V33.8818H46.1172ZM49.9838 41.8564V35.8755H51.6426V41.8564H49.9838ZM50.8171 35.1045C50.5705 35.1045 50.3589 35.0227 50.1824 34.8592C50.0084 34.693 49.9215 34.4944 49.9215 34.2634C49.9215 34.0349 50.0084 33.839 50.1824 33.6754C50.3589 33.5093 50.5705 33.4262 50.8171 33.4262C51.0637 33.4262 51.274 33.5093 51.4479 33.6754C51.6244 33.839 51.7127 34.0349 51.7127 34.2634C51.7127 34.4944 51.6244 34.693 51.4479 34.8592C51.274 35.0227 51.0637 35.1045 50.8171 35.1045ZM54.6301 38.3987V41.8564H52.9714V35.8755H54.5523V36.9307H54.6224C54.7548 36.5828 54.9767 36.3077 55.2882 36.1052C55.5997 35.9001 55.9774 35.7976 56.4213 35.7976C56.8367 35.7976 57.1988 35.8884 57.5077 36.0701C57.8166 36.2519 58.0568 36.5115 58.2281 36.8489C58.3994 37.1838 58.4851 37.5836 58.4851 38.0482V41.8564H56.8263V38.3442C56.8289 37.9781 56.7354 37.6926 56.5459 37.4875C56.3564 37.2798 56.0955 37.176 55.7633 37.176C55.54 37.176 55.3427 37.224 55.1714 37.3201C55.0027 37.4161 54.8703 37.5563 54.7742 37.7406C54.6808 37.9223 54.6327 38.1417 54.6301 38.3987ZM62.4948 41.9733C61.8822 41.9733 61.3552 41.8435 60.9139 41.5839C60.4752 41.3217 60.1377 40.9583 59.9015 40.4936C59.6678 40.0289 59.551 39.4942 59.551 38.8893C59.551 38.2767 59.6691 37.7393 59.9054 37.2772C60.1442 36.8126 60.483 36.4504 60.9217 36.1909C61.3604 35.9287 61.8822 35.7976 62.487 35.7976C63.0088 35.7976 63.4657 35.8923 63.8577 36.0818C64.2496 36.2713 64.5599 36.5374 64.7883 36.8801C65.0167 37.2227 65.1426 37.6251 65.166 38.0872H63.6007C63.5565 37.7886 63.4397 37.5485 63.2502 37.3668C63.0633 37.1825 62.818 37.0903 62.5143 37.0903C62.2573 37.0903 62.0327 37.1604 61.8406 37.3006C61.6511 37.4382 61.5032 37.6394 61.3967 37.9042C61.2903 38.1689 61.2371 38.4895 61.2371 38.8659C61.2371 39.2475 61.289 39.572 61.3928 39.8394C61.4993 40.1068 61.6485 40.3106 61.8406 40.4508C62.0327 40.5909 62.2573 40.661 62.5143 40.661C62.7038 40.661 62.8738 40.6221 63.0244 40.5442C63.1775 40.4663 63.3034 40.3534 63.4021 40.2054C63.5033 40.0549 63.5695 39.8745 63.6007 39.6642H65.166C65.14 40.1211 65.0154 40.5234 64.7922 40.8713C64.5715 41.2166 64.2665 41.4865 63.8771 41.6812C63.4877 41.8759 63.027 41.9733 62.4948 41.9733ZM68.9304 41.9733C68.3256 41.9733 67.8025 41.8448 67.3612 41.5878C66.9225 41.3282 66.5837 40.9673 66.3449 40.5053C66.106 40.0406 65.9866 39.5019 65.9866 38.8893C65.9866 38.2715 66.106 37.7315 66.3449 37.2695C66.5837 36.8048 66.9225 36.444 67.3612 36.187C67.8025 35.9274 68.3256 35.7976 68.9304 35.7976C69.5353 35.7976 70.057 35.9274 70.4957 36.187C70.937 36.444 71.2771 36.8048 71.5159 37.2695C71.7548 37.7315 71.8742 38.2715 71.8742 38.8893C71.8742 39.5019 71.7548 40.0406 71.5159 40.5053C71.2771 40.9673 70.937 41.3282 70.4957 41.5878C70.057 41.8448 69.5353 41.9733 68.9304 41.9733ZM68.9382 40.6883C69.2134 40.6883 69.4431 40.6104 69.6274 40.4547C69.8117 40.2963 69.9506 40.0808 70.0441 39.8083C70.1401 39.5357 70.1881 39.2255 70.1881 38.8776C70.1881 38.5298 70.1401 38.2196 70.0441 37.947C69.9506 37.6744 69.8117 37.459 69.6274 37.3006C69.4431 37.1423 69.2134 37.0631 68.9382 37.0631C68.6604 37.0631 68.4268 37.1423 68.2373 37.3006C68.0504 37.459 67.9089 37.6744 67.8129 37.947C67.7194 38.2196 67.6727 38.5298 67.6727 38.8776C67.6727 39.2255 67.7194 39.5357 67.8129 39.8083C67.9089 40.0808 68.0504 40.2963 68.2373 40.4547C68.4268 40.6104 68.6604 40.6883 68.9382 40.6883ZM72.9528 41.8564V35.8755H74.5337V36.9307H74.6038C74.7284 36.5802 74.9361 36.3038 75.2268 36.1013C75.5175 35.8988 75.8654 35.7976 76.2704 35.7976C76.6805 35.7976 77.0297 35.9001 77.3178 36.1052C77.606 36.3077 77.7981 36.5828 77.8941 36.9307H77.9564C78.0784 36.588 78.2991 36.3142 78.6184 36.1091C78.9403 35.9014 79.3206 35.7976 79.7593 35.7976C80.3174 35.7976 80.7704 35.9754 81.1182 36.331C81.4687 36.6841 81.6439 37.1851 81.6439 37.8341V41.8564H79.989V38.1612C79.989 37.8289 79.9007 37.5797 79.7242 37.4135C79.5477 37.2474 79.327 37.1643 79.0623 37.1643C78.7611 37.1643 78.5262 37.2604 78.3575 37.4525C78.1887 37.642 78.1044 37.8925 78.1044 38.204V41.8564H76.4962V38.1261C76.4962 37.8328 76.4118 37.5991 76.2431 37.4252C76.077 37.2513 75.8576 37.1643 75.585 37.1643C75.4007 37.1643 75.2346 37.2111 75.0866 37.3045C74.9412 37.3954 74.8257 37.5239 74.7401 37.69C74.6544 37.8535 74.6116 38.0456 74.6116 38.2663V41.8564H72.9528ZM85.6799 41.9733C85.0647 41.9733 84.5351 41.8487 84.0912 41.5994C83.6499 41.3476 83.3098 40.992 83.071 40.5325C82.8322 40.0705 82.7128 39.524 82.7128 38.8932C82.7128 38.278 82.8322 37.738 83.071 37.2734C83.3098 36.8087 83.646 36.4466 84.0795 36.187C84.5156 35.9274 85.027 35.7976 85.6137 35.7976C86.0083 35.7976 86.3756 35.8612 86.7157 35.9884C87.0583 36.113 87.3569 36.3012 87.6113 36.553C87.8683 36.8048 88.0682 37.1215 88.2109 37.5031C88.3537 37.8821 88.4251 38.326 88.4251 38.8348V39.2904H83.3747V38.2624H86.8636C86.8636 38.0236 86.8117 37.812 86.7079 37.6277C86.6041 37.4434 86.46 37.2993 86.2757 37.1955C86.094 37.089 85.8824 37.0358 85.641 37.0358C85.3892 37.0358 85.1659 37.0942 84.9712 37.2111C84.7791 37.3253 84.6286 37.4797 84.5195 37.6744C84.4105 37.8665 84.3547 38.0807 84.3521 38.3169V39.2943C84.3521 39.5902 84.4066 39.8459 84.5156 40.0614C84.6273 40.2768 84.7843 40.443 84.9868 40.5598C85.1893 40.6766 85.4294 40.735 85.7072 40.735C85.8915 40.735 86.0602 40.7091 86.2134 40.6571C86.3665 40.6052 86.4976 40.5273 86.6066 40.4235C86.7157 40.3197 86.7987 40.1925 86.8559 40.0419L88.39 40.1431C88.3122 40.5118 88.1525 40.8337 87.9111 41.1088C87.6723 41.3814 87.3634 41.5943 86.9844 41.7474C86.6079 41.898 86.1731 41.9733 85.6799 41.9733Z" fill="#1E1B39"/>
<path d="M24.3507 22.0011C24.3125 21.6783 24.1575 21.4277 23.8856 21.2492C23.6137 21.0708 23.2803 20.9816 22.8852 20.9816C22.5964 20.9816 22.3436 21.0284 22.127 21.1218C21.9125 21.2153 21.7447 21.3438 21.6236 21.5073C21.5047 21.6708 21.4452 21.8567 21.4452 22.0648C21.4452 22.239 21.4866 22.3887 21.5695 22.514C21.6544 22.6372 21.7627 22.7402 21.8944 22.8231C22.0261 22.9038 22.1642 22.9707 22.3086 23.0238C22.453 23.0748 22.5858 23.1162 22.7068 23.148L23.3695 23.3264C23.5394 23.3711 23.7284 23.4326 23.9366 23.5112C24.1468 23.5898 24.3476 23.6971 24.5387 23.833C24.732 23.9668 24.8913 24.1389 25.0166 24.3491C25.1419 24.5594 25.2046 24.8174 25.2046 25.1233C25.2046 25.4759 25.1122 25.7945 24.9274 26.0791C24.7447 26.3637 24.4771 26.5899 24.1245 26.7577C23.7741 26.9255 23.3482 27.0093 22.847 27.0093C22.3797 27.0093 21.9751 26.9339 21.6332 26.7831C21.2933 26.6323 21.0257 26.4221 20.8303 26.1523C20.637 25.8826 20.5277 25.5693 20.5022 25.2125H21.3178C21.339 25.4589 21.4218 25.6628 21.5663 25.8242C21.7128 25.9835 21.8976 26.1024 22.1206 26.181C22.3457 26.2575 22.5879 26.2957 22.847 26.2957C23.1486 26.2957 23.4194 26.2469 23.6594 26.1492C23.8994 26.0493 24.0895 25.9113 24.2297 25.735C24.3699 25.5566 24.4399 25.3484 24.4399 25.1106C24.4399 24.8939 24.3794 24.7176 24.2583 24.5817C24.1373 24.4458 23.978 24.3353 23.7805 24.2504C23.5829 24.1654 23.3695 24.0911 23.1401 24.0273L22.3373 23.798C21.8275 23.6514 21.424 23.4422 21.1266 23.1703C20.8293 22.8985 20.6806 22.5427 20.6806 22.1031C20.6806 21.7377 20.7793 21.4192 20.9769 21.1473C21.1765 20.8733 21.4441 20.6609 21.7797 20.5101C22.1174 20.3572 22.4944 20.2807 22.9107 20.2807C23.3313 20.2807 23.7051 20.3561 24.0321 20.5069C24.3592 20.6556 24.6184 20.8595 24.8095 21.1186C25.0028 21.3777 25.1047 21.6719 25.1154 22.0011H24.3507ZM28.5298 22.0011V22.6383H25.9939V22.0011H28.5298ZM26.733 20.8287H27.4849V25.4929C27.4849 25.7053 27.5157 25.8645 27.5773 25.9707C27.641 26.0748 27.7217 26.1449 27.8194 26.181C27.9192 26.215 28.0243 26.232 28.1348 26.232C28.2176 26.232 28.2856 26.2277 28.3387 26.2192C28.3918 26.2086 28.4343 26.2001 28.4661 26.1938L28.619 26.8692C28.5681 26.8883 28.4969 26.9074 28.4056 26.9265C28.3143 26.9478 28.1985 26.9584 28.0583 26.9584C27.8459 26.9584 27.6378 26.9127 27.4339 26.8214C27.2321 26.73 27.0643 26.5909 26.9305 26.404C26.7988 26.2171 26.733 25.9814 26.733 25.6968V20.8287ZM31.1009 27.0093C30.7908 27.0093 30.5093 26.9509 30.2566 26.8341C30.0038 26.7152 29.8031 26.5442 29.6545 26.3212C29.5058 26.0961 29.4314 25.8242 29.4314 25.5056C29.4314 25.2252 29.4867 24.998 29.5971 24.8238C29.7076 24.6475 29.8552 24.5095 30.04 24.4097C30.2247 24.3098 30.4286 24.2355 30.6516 24.1866C30.8768 24.1357 31.103 24.0953 31.3302 24.0656C31.6276 24.0273 31.8687 23.9987 32.0534 23.9796C32.2403 23.9583 32.3763 23.9233 32.4612 23.8744C32.5483 23.8256 32.5919 23.7406 32.5919 23.6196V23.5941C32.5919 23.2797 32.5058 23.0355 32.3338 22.8613C32.1639 22.6871 31.9058 22.6001 31.5596 22.6001C31.2007 22.6001 30.9193 22.6786 30.7154 22.8358C30.5115 22.993 30.3681 23.1608 30.2853 23.3392L29.5716 23.0843C29.6991 22.787 29.869 22.5555 30.0814 22.3898C30.2959 22.222 30.5295 22.1052 30.7823 22.0393C31.0371 21.9714 31.2878 21.9374 31.5341 21.9374C31.6913 21.9374 31.8718 21.9565 32.0757 21.9947C32.2818 22.0308 32.4804 22.1062 32.6715 22.2209C32.8648 22.3356 33.0251 22.5087 33.1526 22.7402C33.28 22.9718 33.3437 23.2818 33.3437 23.6705V26.8947H32.5919V26.232H32.5536C32.5027 26.3382 32.4177 26.4518 32.2988 26.5729C32.1798 26.6939 32.0216 26.797 31.8241 26.8819C31.6265 26.9669 31.3855 27.0093 31.1009 27.0093ZM31.2156 26.3339C31.5129 26.3339 31.7635 26.2755 31.9674 26.1587C32.1734 26.0419 32.3285 25.8911 32.4326 25.7063C32.5388 25.5215 32.5919 25.3272 32.5919 25.1233V24.4351C32.56 24.4734 32.4899 24.5084 32.3816 24.5403C32.2754 24.57 32.1522 24.5966 32.012 24.6199C31.874 24.6412 31.7391 24.6603 31.6074 24.6773C31.4779 24.6921 31.3727 24.7049 31.292 24.7155C31.0966 24.741 30.914 24.7824 30.744 24.8397C30.5762 24.895 30.4403 24.9789 30.3362 25.0914C30.2343 25.2019 30.1833 25.3527 30.1833 25.5438C30.1833 25.8051 30.28 26.0026 30.4732 26.1364C30.6686 26.2681 30.9161 26.3339 31.2156 26.3339ZM36.8442 22.0011V22.6383H34.3083V22.0011H36.8442ZM35.0474 20.8287H35.7993V25.4929C35.7993 25.7053 35.8301 25.8645 35.8917 25.9707C35.9554 26.0748 36.0361 26.1449 36.1338 26.181C36.2336 26.215 36.3387 26.232 36.4492 26.232C36.532 26.232 36.6 26.2277 36.6531 26.2192C36.7062 26.2086 36.7487 26.2001 36.7805 26.1938L36.9334 26.8692C36.8825 26.8883 36.8113 26.9074 36.72 26.9265C36.6287 26.9478 36.5129 26.9584 36.3727 26.9584C36.1603 26.9584 35.9522 26.9127 35.7483 26.8214C35.5465 26.73 35.3787 26.5909 35.2449 26.404C35.1132 26.2171 35.0474 25.9814 35.0474 25.6968V20.8287ZM37.9752 26.8947V22.0011H38.7271V26.8947H37.9752ZM38.3575 21.1855C38.211 21.1855 38.0846 21.1356 37.9784 21.0358C37.8743 20.936 37.8223 20.816 37.8223 20.6758C37.8223 20.5356 37.8743 20.4156 37.9784 20.3158C38.0846 20.216 38.211 20.166 38.3575 20.166C38.5041 20.166 38.6294 20.216 38.7335 20.3158C38.8397 20.4156 38.8928 20.5356 38.8928 20.6758C38.8928 20.816 38.8397 20.936 38.7335 21.0358C38.6294 21.1356 38.5041 21.1855 38.3575 21.1855ZM43.5705 23.0971L42.895 23.2882C42.8526 23.1756 42.7899 23.0663 42.7071 22.9601C42.6264 22.8517 42.5159 22.7625 42.3757 22.6925C42.2356 22.6224 42.0561 22.5873 41.8373 22.5873C41.5379 22.5873 41.2883 22.6563 41.0886 22.7944C40.8911 22.9303 40.7924 23.1034 40.7924 23.3137C40.7924 23.5006 40.8603 23.6482 40.9963 23.7565C41.1322 23.8649 41.3446 23.9551 41.6334 24.0273L42.3598 24.2058C42.7973 24.312 43.1234 24.4744 43.3379 24.6932C43.5524 24.9098 43.6597 25.1891 43.6597 25.5311C43.6597 25.8114 43.579 26.0621 43.4175 26.283C43.2582 26.5038 43.0352 26.678 42.7485 26.8054C42.4618 26.9329 42.1283 26.9966 41.7481 26.9966C41.249 26.9966 40.8359 26.8883 40.5088 26.6716C40.1817 26.455 39.9746 26.1385 39.8876 25.7222L40.6012 25.5438C40.6692 25.8072 40.7977 26.0047 40.9867 26.1364C41.1779 26.2681 41.4274 26.3339 41.7354 26.3339C42.0858 26.3339 42.3641 26.2596 42.5701 26.1109C42.7782 25.9601 42.8823 25.7796 42.8823 25.5693C42.8823 25.3994 42.8228 25.2571 42.7039 25.1424C42.585 25.0256 42.4023 24.9385 42.1559 24.8812L41.3403 24.69C40.8922 24.5838 40.563 24.4192 40.3527 24.1962C40.1446 23.9711 40.0405 23.6896 40.0405 23.3519C40.0405 23.0758 40.118 22.8316 40.2731 22.6192C40.4302 22.4068 40.6437 22.2401 40.9134 22.119C41.1853 21.9979 41.4933 21.9374 41.8373 21.9374C42.3216 21.9374 42.7018 22.0436 42.9779 22.256C43.2561 22.4684 43.4536 22.7487 43.5705 23.0971ZM46.9196 22.0011V22.6383H44.3837V22.0011H46.9196ZM45.1228 20.8287H45.8747V25.4929C45.8747 25.7053 45.9055 25.8645 45.9671 25.9707C46.0308 26.0748 46.1115 26.1449 46.2092 26.181C46.309 26.215 46.4141 26.232 46.5246 26.232C46.6074 26.232 46.6754 26.2277 46.7285 26.2192C46.7816 26.2086 46.8241 26.2001 46.8559 26.1938L47.0088 26.8692C46.9579 26.8883 46.8867 26.9074 46.7954 26.9265C46.7041 26.9478 46.5883 26.9584 46.4481 26.9584C46.2357 26.9584 46.0276 26.9127 45.8237 26.8214C45.6219 26.73 45.4541 26.5909 45.3203 26.404C45.1886 26.2171 45.1228 25.9814 45.1228 25.6968V20.8287ZM48.0506 26.8947V22.0011H48.8025V26.8947H48.0506ZM48.4329 21.1855C48.2864 21.1855 48.16 21.1356 48.0538 21.0358C47.9497 20.936 47.8977 20.816 47.8977 20.6758C47.8977 20.5356 47.9497 20.4156 48.0538 20.3158C48.16 20.216 48.2864 20.166 48.4329 20.166C48.5795 20.166 48.7048 20.216 48.8089 20.3158C48.9151 20.4156 48.9682 20.5356 48.9682 20.6758C48.9682 20.816 48.9151 20.936 48.8089 21.0358C48.7048 21.1356 48.5795 21.1855 48.4329 21.1855ZM52.1676 26.9966C51.7088 26.9966 51.3138 26.8883 50.9825 26.6716C50.6511 26.455 50.3962 26.1566 50.2178 25.7764C50.0394 25.3962 49.9502 24.9619 49.9502 24.4734C49.9502 23.9764 50.0415 23.5378 50.2242 23.1576C50.409 22.7753 50.666 22.4769 50.9952 22.2624C51.3265 22.0457 51.7131 21.9374 52.1549 21.9374C52.4989 21.9374 52.809 22.0011 53.0851 22.1286C53.3613 22.256 53.5875 22.4344 53.7637 22.6638C53.94 22.8932 54.0494 23.1608 54.0919 23.4666H53.34C53.2827 23.2436 53.1552 23.0461 52.9577 22.8741C52.7623 22.6999 52.4989 22.6128 52.1676 22.6128C51.8745 22.6128 51.6175 22.6893 51.3966 22.8422C51.1779 22.993 51.0069 23.2064 50.8837 23.4826C50.7626 23.7565 50.7021 24.0783 50.7021 24.4479C50.7021 24.8259 50.7616 25.1552 50.8805 25.4355C51.0016 25.7159 51.1715 25.9336 51.3902 26.0886C51.6111 26.2437 51.8703 26.3212 52.1676 26.3212C52.363 26.3212 52.5404 26.2872 52.6996 26.2192C52.8589 26.1513 52.9938 26.0536 53.1043 25.9261C53.2147 25.7987 53.2933 25.6458 53.34 25.4674H54.0919C54.0494 25.7562 53.9443 26.0164 53.7765 26.2479C53.6108 26.4773 53.391 26.66 53.117 26.7959C52.8451 26.9297 52.5287 26.9966 52.1676 26.9966ZM58.6573 23.0971L57.9819 23.2882C57.9394 23.1756 57.8767 23.0663 57.7939 22.9601C57.7132 22.8517 57.6027 22.7625 57.4626 22.6925C57.3224 22.6224 57.1429 22.5873 56.9242 22.5873C56.6247 22.5873 56.3751 22.6563 56.1755 22.7944C55.9779 22.9303 55.8792 23.1034 55.8792 23.3137C55.8792 23.5006 55.9471 23.6482 56.0831 23.7565C56.219 23.8649 56.4314 23.9551 56.7203 24.0273L57.4466 24.2058C57.8842 24.312 58.2102 24.4744 58.4247 24.6932C58.6392 24.9098 58.7465 25.1891 58.7465 25.5311C58.7465 25.8114 58.6658 26.0621 58.5044 26.283C58.3451 26.5038 58.122 26.678 57.8353 26.8054C57.5486 26.9329 57.2151 26.9966 56.8349 26.9966C56.3358 26.9966 55.9227 26.8883 55.5956 26.6716C55.2685 26.455 55.0615 26.1385 54.9744 25.7222L55.688 25.5438C55.756 25.8072 55.8845 26.0047 56.0735 26.1364C56.2647 26.2681 56.5142 26.3339 56.8222 26.3339C57.1727 26.3339 57.4509 26.2596 57.6569 26.1109C57.8651 25.9601 57.9691 25.7796 57.9691 25.5693C57.9691 25.3994 57.9097 25.2571 57.7907 25.1424C57.6718 25.0256 57.4891 24.9385 57.2427 24.8812L56.4272 24.69C55.979 24.5838 55.6498 24.4192 55.4395 24.1962C55.2314 23.9711 55.1273 23.6896 55.1273 23.3519C55.1273 23.0758 55.2048 22.8316 55.3599 22.6192C55.517 22.4068 55.7305 22.2401 56.0002 22.119C56.2721 21.9979 56.5801 21.9374 56.9242 21.9374C57.4084 21.9374 57.7886 22.0436 58.0647 22.256C58.3429 22.4684 58.5405 22.7487 58.6573 23.0971Z" fill="#9291A5"/>
<defs>
<filter id="filter0_d_81_2554" x="0.509504" y="0.951282" width="260.173" height="210.332" filterUnits="userSpaceOnUse" color-interpolation-filters="sRGB">
<feFlood flood-opacity="0" result="BackgroundImageFix"/>
<feColorMatrix in="SourceAlpha" type="matrix" values="0 0 0 0 0 0 0 0 0 0 0 0 0 0 0 0 0 0 127 0" result="hardAlpha"/>
<feOffset dy="0.996832"/>
<feGaussianBlur stdDeviation="1.49525"/>
<feComposite in2="hardAlpha" operator="out"/>
<feColorMatrix type="matrix" values="0 0 0 0 0.0509804 0 0 0 0 0.0392157 0 0 0 0 0.172549 0 0 0 0.08 0"/>
<feBlend mode="normal" in2="BackgroundImageFix" result="effect1_dropShadow_81_2554"/>
<feBlend mode="normal" in="SourceGraphic" in2="effect1_dropShadow_81_2554" result="shape"/>
</filter>
<filter id="filter1_d_81_2554" x="152.082" y="89.2616" width="17.3919" height="17.3919" filterUnits="userSpaceOnUse" color-interpolation-filters="sRGB">
<feFlood flood-opacity="0" result="BackgroundImageFix"/>
<feColorMatrix in="SourceAlpha" type="matrix" values="0 0 0 0 0 0 0 0 0 0 0 0 0 0 0 0 0 0 127 0" result="hardAlpha"/>
<feOffset dy="3.98733"/>
<feGaussianBlur stdDeviation="1.99366"/>
<feComposite in2="hardAlpha" operator="out"/>
<feColorMatrix type="matrix" values="0 0 0 0 0.0509804 0 0 0 0 0.0392157 0 0 0 0 0.172549 0 0 0 0.08 0"/>
<feBlend mode="normal" in2="BackgroundImageFix" result="effect1_dropShadow_81_2554"/>
<feBlend mode="normal" in="SourceGraphic" in2="effect1_dropShadow_81_2554" result="shape"/>
</filter>
</defs>
</svg>
