<svg width="332" height="216" viewBox="0 0 332 216" fill="none" xmlns="http://www.w3.org/2000/svg">
<g filter="url(#filter0_d_203_2441)">
<rect x="3" y="24" width="201.359" height="188.557" rx="7.89645" fill="white"/>
</g>
<circle cx="84.0156" cy="129.921" r="42.7493" fill="#4A3AFF" stroke="white" stroke-width="1.57929"/>
<circle cx="135.692" cy="108.097" r="30.4013" fill="#C893FD" stroke="white" stroke-width="1.57929"/>
<circle cx="125.822" cy="142.836" r="20.5308" fill="#1E1B39" stroke="white" stroke-width="1.57929"/>
<path d="M120.549 139.992V146.309H119.213V141.26H119.176L117.73 142.166V140.982L119.293 139.992H120.549ZM124.527 146.448C123.997 146.446 123.54 146.315 123.158 146.056C122.777 145.797 122.484 145.422 122.279 144.93C122.075 144.439 121.974 143.847 121.976 143.157C121.976 142.468 122.078 141.881 122.282 141.395C122.487 140.91 122.78 140.541 123.161 140.288C123.543 140.033 123.999 139.905 124.527 139.905C125.056 139.905 125.51 140.033 125.891 140.288C126.273 140.543 126.567 140.913 126.773 141.398C126.978 141.882 127.08 142.468 127.078 143.157C127.078 143.85 126.975 144.442 126.77 144.933C126.566 145.425 126.274 145.8 125.894 146.059C125.513 146.318 125.058 146.448 124.527 146.448ZM124.527 145.34C124.889 145.34 125.178 145.158 125.394 144.794C125.61 144.43 125.717 143.885 125.715 143.157C125.715 142.677 125.665 142.278 125.567 141.96C125.47 141.641 125.332 141.401 125.153 141.241C124.976 141.081 124.768 141 124.527 141C124.167 141 123.879 141.18 123.663 141.54C123.448 141.9 123.339 142.439 123.337 143.157C123.337 143.642 123.385 144.047 123.481 144.372C123.58 144.695 123.719 144.937 123.898 145.1C124.077 145.26 124.287 145.34 124.527 145.34ZM131.488 145.124V144.791C131.488 144.538 131.542 144.306 131.649 144.094C131.758 143.88 131.915 143.71 132.121 143.582C132.328 143.453 132.581 143.388 132.879 143.388C133.182 143.388 133.436 143.452 133.641 143.579C133.849 143.707 134.005 143.877 134.11 144.091C134.217 144.303 134.27 144.536 134.27 144.791V145.124C134.27 145.377 134.217 145.611 134.11 145.825C134.003 146.036 133.846 146.206 133.638 146.334C133.43 146.463 133.178 146.528 132.879 146.528C132.577 146.528 132.323 146.463 132.117 146.334C131.912 146.206 131.756 146.036 131.649 145.825C131.542 145.611 131.488 145.377 131.488 145.124ZM132.386 144.791V145.124C132.386 145.27 132.421 145.408 132.491 145.538C132.563 145.667 132.692 145.732 132.879 145.732C133.066 145.732 133.194 145.668 133.262 145.541C133.332 145.413 133.367 145.275 133.367 145.124V144.791C133.367 144.641 133.334 144.501 133.268 144.372C133.202 144.242 133.073 144.178 132.879 144.178C132.694 144.178 132.566 144.242 132.494 144.372C132.422 144.501 132.386 144.641 132.386 144.791ZM128.246 141.509V141.176C128.246 140.921 128.301 140.688 128.41 140.476C128.519 140.262 128.676 140.092 128.882 139.964C129.089 139.837 129.34 139.773 129.634 139.773C129.939 139.773 130.194 139.837 130.399 139.964C130.605 140.092 130.761 140.262 130.868 140.476C130.975 140.688 131.029 140.921 131.029 141.176V141.509C131.029 141.764 130.974 141.998 130.865 142.21C130.758 142.421 130.601 142.591 130.393 142.719C130.188 142.844 129.935 142.907 129.634 142.907C129.334 142.907 129.08 142.843 128.873 142.715C128.667 142.586 128.511 142.416 128.404 142.207C128.299 141.995 128.246 141.762 128.246 141.509ZM129.15 141.176V141.509C129.15 141.66 129.185 141.798 129.255 141.926C129.327 142.053 129.453 142.117 129.634 142.117C129.824 142.117 129.952 142.053 130.02 141.926C130.09 141.798 130.125 141.66 130.125 141.509V141.176C130.125 141.026 130.092 140.886 130.026 140.757C129.96 140.627 129.83 140.562 129.634 140.562C129.451 140.562 129.325 140.628 129.255 140.76C129.185 140.891 129.15 141.03 129.15 141.176ZM128.654 146.309L132.997 139.992H133.805L129.462 146.309H128.654Z" fill="white"/>
<path d="M122.861 112.621V111.222L126.132 108.193C126.41 107.924 126.643 107.682 126.832 107.466C127.023 107.251 127.168 107.04 127.267 106.834C127.366 106.624 127.415 106.399 127.415 106.156C127.415 105.887 127.354 105.655 127.231 105.461C127.109 105.263 126.941 105.112 126.729 105.008C126.516 104.9 126.276 104.846 126.006 104.846C125.725 104.846 125.48 104.903 125.271 105.017C125.061 105.13 124.9 105.293 124.786 105.506C124.672 105.718 124.615 105.971 124.615 106.264H122.771C122.771 105.663 122.908 105.141 123.18 104.698C123.452 104.255 123.833 103.913 124.324 103.671C124.814 103.428 125.38 103.307 126.02 103.307C126.678 103.307 127.251 103.424 127.738 103.657C128.229 103.888 128.61 104.208 128.882 104.617C129.154 105.027 129.291 105.497 129.291 106.026C129.291 106.373 129.222 106.716 129.084 107.054C128.95 107.392 128.709 107.767 128.362 108.18C128.015 108.589 127.526 109.082 126.895 109.656L125.553 110.97V111.033H129.412V112.621H122.861ZM134.422 112.823C133.65 112.82 132.986 112.63 132.43 112.254C131.877 111.877 131.45 111.331 131.151 110.616C130.855 109.901 130.709 109.041 130.712 108.036C130.712 107.034 130.86 106.18 131.156 105.474C131.455 104.768 131.881 104.231 132.435 103.864C132.991 103.493 133.653 103.307 134.422 103.307C135.191 103.307 135.852 103.493 136.405 103.864C136.962 104.234 137.389 104.773 137.688 105.479C137.987 106.182 138.136 107.034 138.133 108.036C138.133 109.044 137.983 109.906 137.684 110.62C137.388 111.335 136.963 111.881 136.41 112.258C135.856 112.635 135.194 112.823 134.422 112.823ZM134.422 111.213C134.949 111.213 135.369 110.948 135.683 110.419C135.997 109.889 136.152 109.095 136.149 108.036C136.149 107.339 136.078 106.759 135.934 106.295C135.794 105.832 135.593 105.483 135.333 105.25C135.076 105.017 134.772 104.9 134.422 104.9C133.899 104.9 133.48 105.162 133.166 105.685C132.852 106.209 132.693 106.992 132.69 108.036C132.69 108.742 132.761 109.331 132.901 109.804C133.045 110.273 133.247 110.626 133.507 110.863C133.767 111.096 134.072 111.213 134.422 111.213ZM144.547 110.899V110.414C144.547 110.046 144.625 109.708 144.781 109.4C144.939 109.089 145.168 108.841 145.467 108.655C145.769 108.467 146.137 108.373 146.571 108.373C147.01 108.373 147.38 108.465 147.679 108.651C147.981 108.836 148.208 109.085 148.361 109.396C148.516 109.704 148.594 110.043 148.594 110.414V110.899C148.594 111.267 148.516 111.606 148.361 111.917C148.205 112.225 147.977 112.472 147.674 112.657C147.372 112.846 147.004 112.94 146.571 112.94C146.131 112.94 145.762 112.846 145.463 112.657C145.163 112.472 144.936 112.225 144.781 111.917C144.625 111.606 144.547 111.267 144.547 110.899ZM145.853 110.414V110.899C145.853 111.111 145.904 111.311 146.005 111.5C146.11 111.688 146.299 111.782 146.571 111.782C146.843 111.782 147.028 111.69 147.127 111.504C147.229 111.319 147.28 111.117 147.28 110.899V110.414C147.28 110.196 147.232 109.992 147.136 109.804C147.04 109.615 146.852 109.521 146.571 109.521C146.302 109.521 146.115 109.615 146.01 109.804C145.905 109.992 145.853 110.196 145.853 110.414ZM139.832 105.64V105.156C139.832 104.785 139.911 104.445 140.07 104.137C140.228 103.826 140.457 103.578 140.756 103.392C141.058 103.207 141.423 103.114 141.851 103.114C142.294 103.114 142.664 103.207 142.964 103.392C143.263 103.578 143.49 103.826 143.645 104.137C143.801 104.445 143.879 104.785 143.879 105.156V105.64C143.879 106.011 143.8 106.351 143.641 106.659C143.485 106.967 143.257 107.214 142.955 107.399C142.655 107.581 142.288 107.673 141.851 107.673C141.414 107.673 141.045 107.58 140.743 107.395C140.444 107.206 140.216 106.959 140.061 106.654C139.908 106.346 139.832 106.008 139.832 105.64ZM141.146 105.156V105.64C141.146 105.859 141.197 106.061 141.299 106.246C141.404 106.431 141.588 106.524 141.851 106.524C142.126 106.524 142.313 106.431 142.412 106.246C142.513 106.061 142.564 105.859 142.564 105.64V105.156C142.564 104.937 142.516 104.734 142.421 104.546C142.325 104.357 142.135 104.263 141.851 104.263C141.585 104.263 141.401 104.359 141.299 104.55C141.197 104.741 141.146 104.943 141.146 105.156ZM140.424 112.621L146.741 103.433H147.917L141.6 112.621H140.424Z" fill="white"/>
<path d="M67.0078 136.656L72.2454 126.291V126.205H66.1442V124.021H75.0092V126.236L69.7654 136.656H67.0078ZM81.5222 136.933C80.4611 136.929 79.5481 136.668 78.7831 136.15C78.0223 135.631 77.4362 134.881 77.0249 133.898C76.6178 132.915 76.4162 131.733 76.4203 130.351C76.4203 128.973 76.6239 127.799 77.0311 126.828C77.4424 125.858 78.0284 125.119 78.7893 124.613C79.5542 124.103 80.4652 123.848 81.5222 123.848C82.5792 123.848 83.4881 124.103 84.2489 124.613C85.0139 125.123 85.602 125.864 86.0133 126.834C86.4246 127.801 86.6281 128.973 86.624 130.351C86.624 131.737 86.4184 132.921 86.0071 133.904C85.6 134.887 85.016 135.638 84.2551 136.156C83.4942 136.674 82.5833 136.933 81.5222 136.933ZM81.5222 134.718C82.246 134.718 82.8239 134.354 83.2557 133.626C83.6875 132.899 83.9014 131.807 83.8973 130.351C83.8973 129.392 83.7986 128.595 83.6012 127.957C83.4079 127.32 83.1323 126.84 82.7745 126.52C82.4208 126.199 82.0034 126.038 81.5222 126.038C80.8025 126.038 80.2267 126.398 79.7948 127.118C79.363 127.838 79.145 128.915 79.1409 130.351C79.1409 131.321 79.2376 132.132 79.4309 132.781C79.6283 133.427 79.9059 133.912 80.2637 134.237C80.6215 134.558 81.041 134.718 81.5222 134.718ZM95.4443 134.287V133.62C95.4443 133.114 95.5512 132.65 95.7651 132.226C95.9831 131.798 96.2977 131.457 96.709 131.202C97.1244 130.943 97.6302 130.813 98.2266 130.813C98.8311 130.813 99.3391 130.941 99.7503 131.196C100.166 131.451 100.478 131.792 100.688 132.22C100.902 132.644 101.009 133.11 101.009 133.62V134.287C101.009 134.792 100.902 135.259 100.688 135.687C100.474 136.111 100.16 136.45 99.7442 136.705C99.3288 136.964 98.8229 137.094 98.2266 137.094C97.622 137.094 97.1141 136.964 96.7028 136.705C96.2915 136.45 95.979 136.111 95.7651 135.687C95.5512 135.259 95.4443 134.792 95.4443 134.287ZM97.2395 133.62V134.287C97.2395 134.579 97.3094 134.854 97.4493 135.113C97.5932 135.372 97.8523 135.502 98.2266 135.502C98.6008 135.502 98.8558 135.374 98.9915 135.119C99.1314 134.864 99.2013 134.587 99.2013 134.287V133.62C99.2013 133.32 99.1355 133.04 99.0039 132.781C98.8723 132.522 98.6132 132.393 98.2266 132.393C97.8564 132.393 97.5994 132.522 97.4554 132.781C97.3115 133.04 97.2395 133.32 97.2395 133.62ZM88.9606 127.056V126.39C88.9606 125.88 89.0696 125.413 89.2875 124.99C89.5055 124.562 89.8201 124.221 90.2314 123.966C90.6468 123.711 91.1486 123.583 91.7367 123.583C92.3454 123.583 92.8553 123.711 93.2666 123.966C93.6779 124.221 93.9905 124.562 94.2043 124.99C94.4182 125.413 94.5251 125.88 94.5251 126.39V127.056C94.5251 127.566 94.4161 128.033 94.1981 128.457C93.9843 128.88 93.6697 129.22 93.2543 129.475C92.843 129.726 92.3371 129.851 91.7367 129.851C91.1362 129.851 90.6283 129.724 90.2129 129.469C89.8016 129.209 89.4891 128.87 89.2752 128.451C89.0655 128.027 88.9606 127.562 88.9606 127.056ZM90.7681 126.39V127.056C90.7681 127.357 90.838 127.634 90.9779 127.889C91.1218 128.144 91.3748 128.272 91.7367 128.272C92.115 128.272 92.3721 128.144 92.5078 127.889C92.6476 127.634 92.7176 127.357 92.7176 127.056V126.39C92.7176 126.09 92.6518 125.81 92.5202 125.551C92.3885 125.292 92.1274 125.162 91.7367 125.162C91.3706 125.162 91.1177 125.294 90.9779 125.557C90.838 125.821 90.7681 126.098 90.7681 126.39ZM89.7749 136.656L98.461 124.021H100.077L91.3912 136.656H89.7749Z" fill="white"/>
<path d="M62.3971 192.278H63.1441L64.9007 196.569H64.9612L66.7177 192.278H67.4648V197.447H66.8793V193.52H66.8288L65.2136 197.447H64.6483L63.0331 193.52H62.9826V197.447H62.3971V192.278ZM68.6389 197.447V193.57H69.2345V197.447H68.6389ZM68.9418 192.924C68.8257 192.924 68.7256 192.885 68.6414 192.806C68.559 192.727 68.5178 192.632 68.5178 192.52C68.5178 192.409 68.559 192.314 68.6414 192.235C68.7256 192.156 68.8257 192.117 68.9418 192.117C69.0579 192.117 69.1571 192.156 69.2396 192.235C69.3237 192.314 69.3658 192.409 69.3658 192.52C69.3658 192.632 69.3237 192.727 69.2396 192.806C69.1571 192.885 69.0579 192.924 68.9418 192.924ZM71.9002 197.528C71.5368 197.528 71.2238 197.442 70.9614 197.27C70.6989 197.099 70.497 196.862 70.3557 196.561C70.2144 196.26 70.1437 195.916 70.1437 195.529C70.1437 195.135 70.216 194.788 70.3607 194.486C70.5071 194.184 70.7107 193.947 70.9715 193.777C71.2339 193.606 71.5401 193.52 71.8901 193.52C72.1627 193.52 72.4083 193.57 72.627 193.671C72.8458 193.772 73.0249 193.914 73.1646 194.095C73.3042 194.277 73.3909 194.489 73.4245 194.731H72.8289C72.7835 194.555 72.6826 194.398 72.5261 194.262C72.3713 194.124 72.1627 194.055 71.9002 194.055C71.668 194.055 71.4644 194.115 71.2895 194.237C71.1162 194.356 70.9807 194.525 70.8831 194.744C70.7872 194.961 70.7393 195.216 70.7393 195.509C70.7393 195.808 70.7864 196.069 70.8806 196.291C70.9765 196.513 71.1111 196.685 71.2844 196.808C71.4594 196.931 71.6647 196.993 71.9002 196.993C72.055 196.993 72.1955 196.966 72.3217 196.912C72.4478 196.858 72.5547 196.781 72.6422 196.68C72.7297 196.579 72.7919 196.457 72.8289 196.316H73.4245C73.3909 196.545 73.3076 196.751 73.1747 196.934C73.0434 197.116 72.8693 197.261 72.6523 197.369C72.4369 197.475 72.1862 197.528 71.9002 197.528ZM74.2952 197.447V193.57H74.8706V194.156H74.911C74.9817 193.964 75.1095 193.808 75.2946 193.689C75.4797 193.569 75.6883 193.51 75.9205 193.51C75.9642 193.51 76.0189 193.511 76.0845 193.512C76.1501 193.514 76.1998 193.517 76.2334 193.52V194.126C76.2132 194.121 76.167 194.113 76.0946 194.103C76.024 194.091 75.9491 194.085 75.87 194.085C75.6816 194.085 75.5133 194.125 75.3653 194.204C75.2189 194.281 75.1028 194.389 75.017 194.527C74.9329 194.663 74.8908 194.819 74.8908 194.994V197.447H74.2952ZM78.3963 197.528C78.0463 197.528 77.7393 197.444 77.4751 197.278C77.2126 197.111 77.0074 196.878 76.8593 196.579C76.7129 196.279 76.6397 195.929 76.6397 195.529C76.6397 195.125 76.7129 194.772 76.8593 194.471C77.0074 194.17 77.2126 193.936 77.4751 193.77C77.7393 193.603 78.0463 193.52 78.3963 193.52C78.7462 193.52 79.0524 193.603 79.3149 193.77C79.579 193.936 79.7843 194.17 79.9307 194.471C80.0787 194.772 80.1528 195.125 80.1528 195.529C80.1528 195.929 80.0787 196.279 79.9307 196.579C79.7843 196.878 79.579 197.111 79.3149 197.278C79.0524 197.444 78.7462 197.528 78.3963 197.528ZM78.3963 196.993C78.6621 196.993 78.8808 196.924 79.0524 196.788C79.224 196.652 79.3511 196.473 79.4335 196.251C79.516 196.028 79.5572 195.788 79.5572 195.529C79.5572 195.27 79.516 195.028 79.4335 194.804C79.3511 194.581 79.224 194.4 79.0524 194.262C78.8808 194.124 78.6621 194.055 78.3963 194.055C78.1304 194.055 77.9117 194.124 77.7401 194.262C77.5685 194.4 77.4415 194.581 77.359 194.804C77.2766 195.028 77.2353 195.27 77.2353 195.529C77.2353 195.788 77.2766 196.028 77.359 196.251C77.4415 196.473 77.5685 196.652 77.7401 196.788C77.9117 196.924 78.1304 196.993 78.3963 196.993Z" fill="#615E83"/>
<circle cx="55.8064" cy="194.395" r="2.80636" fill="#4A3AFF"/>
<path d="M100.397 192.278H101.144L102.901 196.569H102.961L104.718 192.278H105.465V197.447H104.879V193.52H104.829L103.214 197.447H102.649L101.033 193.52H100.983V197.447H100.397V192.278ZM107.78 197.538C107.534 197.538 107.311 197.491 107.111 197.399C106.911 197.305 106.752 197.169 106.634 196.993C106.516 196.814 106.457 196.599 106.457 196.346C106.457 196.124 106.501 195.944 106.589 195.806C106.676 195.667 106.793 195.557 106.939 195.478C107.086 195.399 107.247 195.34 107.424 195.302C107.602 195.261 107.782 195.229 107.962 195.206C108.197 195.175 108.388 195.153 108.534 195.138C108.683 195.121 108.79 195.093 108.858 195.054C108.926 195.016 108.961 194.948 108.961 194.852V194.832C108.961 194.583 108.893 194.39 108.757 194.252C108.622 194.114 108.418 194.045 108.143 194.045C107.859 194.045 107.636 194.107 107.475 194.232C107.313 194.356 107.199 194.489 107.134 194.63L106.568 194.428C106.669 194.193 106.804 194.009 106.972 193.878C107.142 193.745 107.327 193.653 107.528 193.601C107.729 193.547 107.928 193.52 108.123 193.52C108.248 193.52 108.391 193.535 108.552 193.565C108.715 193.594 108.873 193.654 109.024 193.744C109.177 193.835 109.304 193.972 109.405 194.156C109.506 194.339 109.557 194.585 109.557 194.893V197.447H108.961V196.922H108.931C108.89 197.006 108.823 197.096 108.729 197.192C108.635 197.288 108.509 197.369 108.353 197.437C108.196 197.504 108.005 197.538 107.78 197.538ZM107.871 197.003C108.106 197.003 108.305 196.956 108.466 196.864C108.63 196.771 108.752 196.652 108.835 196.505C108.919 196.359 108.961 196.205 108.961 196.044V195.498C108.936 195.529 108.88 195.557 108.794 195.582C108.71 195.605 108.613 195.626 108.502 195.645C108.392 195.662 108.285 195.677 108.181 195.69C108.079 195.702 107.995 195.712 107.931 195.721C107.777 195.741 107.632 195.774 107.497 195.819C107.364 195.863 107.257 195.929 107.174 196.018C107.093 196.106 107.053 196.225 107.053 196.377C107.053 196.584 107.13 196.74 107.283 196.846C107.438 196.95 107.634 197.003 107.871 197.003ZM112.218 197.528C111.855 197.528 111.542 197.442 111.28 197.27C111.017 197.099 110.815 196.862 110.674 196.561C110.533 196.26 110.462 195.916 110.462 195.529C110.462 195.135 110.534 194.788 110.679 194.486C110.825 194.184 111.029 193.947 111.29 193.777C111.552 193.606 111.858 193.52 112.208 193.52C112.481 193.52 112.727 193.57 112.945 193.671C113.164 193.772 113.343 193.914 113.483 194.095C113.623 194.277 113.709 194.489 113.743 194.731H113.147C113.102 194.555 113.001 194.398 112.844 194.262C112.69 194.124 112.481 194.055 112.218 194.055C111.986 194.055 111.783 194.115 111.608 194.237C111.434 194.356 111.299 194.525 111.201 194.744C111.106 194.961 111.058 195.216 111.058 195.509C111.058 195.808 111.105 196.069 111.199 196.291C111.295 196.513 111.429 196.685 111.603 196.808C111.778 196.931 111.983 196.993 112.218 196.993C112.373 196.993 112.514 196.966 112.64 196.912C112.766 196.858 112.873 196.781 112.96 196.68C113.048 196.579 113.11 196.457 113.147 196.316H113.743C113.709 196.545 113.626 196.751 113.493 196.934C113.362 197.116 113.188 197.261 112.971 197.369C112.755 197.475 112.505 197.528 112.218 197.528ZM114.613 197.447V193.57H115.189V194.156H115.229C115.3 193.964 115.428 193.808 115.613 193.689C115.798 193.569 116.007 193.51 116.239 193.51C116.283 193.51 116.337 193.511 116.403 193.512C116.468 193.514 116.518 193.517 116.552 193.52V194.126C116.532 194.121 116.485 194.113 116.413 194.103C116.342 194.091 116.267 194.085 116.188 194.085C116 194.085 115.832 194.125 115.684 194.204C115.537 194.281 115.421 194.389 115.335 194.527C115.251 194.663 115.209 194.819 115.209 194.994V197.447H114.613ZM118.715 197.528C118.365 197.528 118.058 197.444 117.793 197.278C117.531 197.111 117.326 196.878 117.178 196.579C117.031 196.279 116.958 195.929 116.958 195.529C116.958 195.125 117.031 194.772 117.178 194.471C117.326 194.17 117.531 193.936 117.793 193.77C118.058 193.603 118.365 193.52 118.715 193.52C119.064 193.52 119.371 193.603 119.633 193.77C119.897 193.936 120.103 194.17 120.249 194.471C120.397 194.772 120.471 195.125 120.471 195.529C120.471 195.929 120.397 196.279 120.249 196.579C120.103 196.878 119.897 197.111 119.633 197.278C119.371 197.444 119.064 197.528 118.715 197.528ZM118.715 196.993C118.98 196.993 119.199 196.924 119.371 196.788C119.542 196.652 119.669 196.473 119.752 196.251C119.834 196.028 119.875 195.788 119.875 195.529C119.875 195.27 119.834 195.028 119.752 194.804C119.669 194.581 119.542 194.4 119.371 194.262C119.199 194.124 118.98 194.055 118.715 194.055C118.449 194.055 118.23 194.124 118.058 194.262C117.887 194.4 117.76 194.581 117.677 194.804C117.595 195.028 117.554 195.27 117.554 195.529C117.554 195.788 117.595 196.028 117.677 196.251C117.76 196.473 117.887 196.652 118.058 196.788C118.23 196.924 118.449 196.993 118.715 196.993Z" fill="#615E83"/>
<circle cx="93.8064" cy="194.395" r="2.80636" fill="#C893FD"/>
<path d="M141.397 191.831H142.144L143.901 196.122H143.961L145.718 191.831H146.465V197H145.879V193.073H145.829L144.214 197H143.648L142.033 193.073H141.983V197H141.397V191.831ZM149.264 197.081C148.891 197.081 148.568 196.998 148.298 196.833C148.028 196.667 147.821 196.435 147.674 196.137C147.53 195.837 147.457 195.489 147.457 195.092C147.457 194.695 147.53 194.345 147.674 194.042C147.821 193.738 148.024 193.5 148.285 193.331C148.547 193.159 148.854 193.073 149.204 193.073C149.406 193.073 149.605 193.107 149.802 193.174C149.999 193.241 150.178 193.351 150.339 193.502C150.501 193.652 150.63 193.85 150.725 194.098C150.821 194.345 150.869 194.65 150.869 195.011V195.264H147.881V194.749H150.264C150.264 194.53 150.22 194.335 150.132 194.163C150.047 193.992 149.924 193.856 149.764 193.757C149.606 193.658 149.419 193.608 149.204 193.608C148.966 193.608 148.761 193.667 148.588 193.785C148.416 193.901 148.284 194.052 148.192 194.239C148.099 194.426 148.053 194.626 148.053 194.84V195.183C148.053 195.476 148.103 195.724 148.204 195.927C148.307 196.129 148.449 196.283 148.631 196.389C148.812 196.494 149.024 196.546 149.264 196.546C149.421 196.546 149.562 196.524 149.688 196.48C149.816 196.435 149.926 196.367 150.019 196.278C150.111 196.187 150.183 196.075 150.233 195.94L150.809 196.102C150.748 196.297 150.646 196.468 150.503 196.616C150.36 196.763 150.184 196.877 149.973 196.96C149.763 197.04 149.527 197.081 149.264 197.081ZM153.34 198.534C153.052 198.534 152.805 198.497 152.598 198.423C152.391 198.351 152.219 198.255 152.081 198.136C151.944 198.018 151.836 197.892 151.755 197.757L152.23 197.424C152.283 197.495 152.352 197.575 152.434 197.666C152.516 197.759 152.629 197.839 152.772 197.906C152.917 197.975 153.106 198.009 153.34 198.009C153.653 198.009 153.911 197.934 154.115 197.782C154.318 197.631 154.42 197.394 154.42 197.071V196.283H154.37C154.326 196.354 154.264 196.441 154.183 196.546C154.104 196.648 153.989 196.74 153.84 196.821C153.692 196.9 153.491 196.939 153.239 196.939C152.926 196.939 152.645 196.865 152.396 196.717C152.149 196.569 151.953 196.354 151.808 196.071C151.665 195.789 151.594 195.445 151.594 195.042C151.594 194.645 151.663 194.299 151.803 194.004C151.943 193.708 152.137 193.479 152.386 193.318C152.635 193.155 152.923 193.073 153.249 193.073C153.502 193.073 153.702 193.115 153.85 193.199C154 193.282 154.114 193.376 154.193 193.482C154.274 193.586 154.336 193.672 154.38 193.739H154.44V193.124H155.016V197.111C155.016 197.444 154.94 197.715 154.789 197.924C154.639 198.134 154.437 198.288 154.183 198.386C153.931 198.485 153.65 198.534 153.34 198.534ZM153.32 196.404C153.559 196.404 153.761 196.35 153.926 196.24C154.09 196.131 154.216 195.974 154.302 195.768C154.387 195.563 154.43 195.318 154.43 195.031C154.43 194.752 154.388 194.506 154.304 194.292C154.22 194.078 154.095 193.911 153.931 193.79C153.766 193.669 153.562 193.608 153.32 193.608C153.067 193.608 152.857 193.672 152.689 193.8C152.522 193.928 152.397 194.099 152.313 194.315C152.23 194.53 152.189 194.769 152.189 195.031C152.189 195.301 152.231 195.539 152.315 195.746C152.401 195.951 152.527 196.112 152.694 196.23C152.862 196.346 153.071 196.404 153.32 196.404ZM157.247 197.091C157.001 197.091 156.778 197.045 156.578 196.952C156.378 196.858 156.219 196.722 156.101 196.546C155.983 196.367 155.924 196.152 155.924 195.9C155.924 195.678 155.968 195.498 156.056 195.36C156.143 195.22 156.26 195.111 156.406 195.031C156.553 194.952 156.714 194.894 156.891 194.855C157.069 194.814 157.248 194.782 157.428 194.759C157.664 194.729 157.855 194.706 158.001 194.691C158.149 194.674 158.257 194.646 158.324 194.608C158.393 194.569 158.428 194.502 158.428 194.406V194.385C158.428 194.136 158.36 193.943 158.223 193.805C158.089 193.667 157.884 193.598 157.61 193.598C157.326 193.598 157.103 193.66 156.941 193.785C156.78 193.909 156.666 194.042 156.601 194.184L156.035 193.982C156.136 193.746 156.271 193.563 156.439 193.431C156.609 193.299 156.794 193.206 156.994 193.154C157.196 193.1 157.395 193.073 157.59 193.073C157.714 193.073 157.857 193.088 158.019 193.119C158.182 193.147 158.34 193.207 158.491 193.298C158.644 193.389 158.771 193.526 158.872 193.709C158.973 193.892 159.023 194.138 159.023 194.446V197H158.428V196.475H158.398C158.357 196.559 158.29 196.649 158.196 196.745C158.101 196.841 157.976 196.923 157.82 196.99C157.663 197.057 157.472 197.091 157.247 197.091ZM157.338 196.556C157.573 196.556 157.772 196.51 157.933 196.417C158.096 196.324 158.219 196.205 158.302 196.059C158.386 195.912 158.428 195.758 158.428 195.597V195.052C158.403 195.082 158.347 195.11 158.261 195.135C158.177 195.159 158.08 195.18 157.969 195.198C157.859 195.215 157.752 195.23 157.648 195.243C157.545 195.255 157.462 195.265 157.398 195.274C157.243 195.294 157.099 195.327 156.964 195.372C156.831 195.416 156.723 195.482 156.641 195.572C156.56 195.659 156.52 195.779 156.52 195.93C156.52 196.137 156.596 196.293 156.75 196.399C156.904 196.504 157.1 196.556 157.338 196.556Z" fill="#615E83"/>
<circle cx="134.806" cy="193.948" r="2.80636" fill="#1E1B39"/>
<line x1="16.0647" y1="65.6538" x2="191.188" y2="65.6538" stroke="#E5E5EF" stroke-width="0.394822"/>
<path d="M17.3165 38.4657V43.6343H16.6906V38.4657H17.3165ZM19.0862 41.3024V43.6343H18.4906V39.7578H19.066V40.3635H19.1165C19.2074 40.1667 19.3453 40.0085 19.5304 39.8891C19.7155 39.7679 19.9544 39.7074 20.2471 39.7074C20.5096 39.7074 20.7393 39.7612 20.9361 39.8689C21.133 39.9749 21.2861 40.1364 21.3954 40.3534C21.5048 40.5688 21.5595 40.8414 21.5595 41.1711V43.6343H20.9639V41.2115C20.9639 40.907 20.8848 40.6697 20.7266 40.4998C20.5685 40.3282 20.3514 40.2424 20.0755 40.2424C19.8854 40.2424 19.7155 40.2836 19.5657 40.3661C19.4177 40.4485 19.3007 40.5688 19.2149 40.7269C19.1291 40.8851 19.0862 41.0769 19.0862 41.3024ZM24.3741 39.7578V40.2626H22.2844V39.7578H24.3741ZM22.9103 43.6343V39.2228C22.9103 39.0007 22.9625 38.8157 23.0668 38.6676C23.1711 38.5195 23.3065 38.4085 23.4731 38.3345C23.6396 38.2604 23.8155 38.2234 24.0005 38.2234C24.1469 38.2234 24.2664 38.2352 24.3589 38.2587C24.4514 38.2823 24.5204 38.3042 24.5659 38.3244L24.3942 38.8392C24.364 38.8291 24.3219 38.8165 24.2681 38.8013C24.2159 38.7862 24.1469 38.7786 24.0611 38.7786C23.8643 38.7786 23.7221 38.8283 23.6346 38.9275C23.5488 39.0268 23.5059 39.1723 23.5059 39.3641V43.6343H22.9103ZM25.8044 38.4657V43.6343H25.2088V38.4657H25.8044ZM29.3382 42.0494V39.7578H29.9338V43.6343H29.3382V42.9781H29.2978C29.207 43.175 29.0657 43.3424 28.8738 43.4803C28.682 43.6166 28.4398 43.6848 28.147 43.6848C27.9047 43.6848 27.6894 43.6318 27.5009 43.5258C27.3125 43.4181 27.1644 43.2566 27.0568 43.0412C26.9491 42.8242 26.8953 42.5508 26.8953 42.221V39.7578H27.4908V42.1806C27.4908 42.4633 27.5699 42.6887 27.7281 42.857C27.8879 43.0252 28.0915 43.1093 28.3388 43.1093C28.4869 43.1093 28.6375 43.0715 28.7906 42.9958C28.9454 42.9201 29.0749 42.804 29.1792 42.6475C29.2852 42.491 29.3382 42.2917 29.3382 42.0494ZM32.65 43.715C32.2765 43.715 31.9543 43.6326 31.6834 43.4677C31.4142 43.3011 31.2064 43.069 31.06 42.7712C30.9153 42.4717 30.843 42.1234 30.843 41.7263C30.843 41.3293 30.9153 40.9793 31.06 40.6765C31.2064 40.3719 31.41 40.1347 31.6708 39.9648C31.9332 39.7932 32.2394 39.7074 32.5894 39.7074C32.7913 39.7074 32.9907 39.741 33.1875 39.8083C33.3844 39.8756 33.5636 39.985 33.7251 40.1364C33.8866 40.2861 34.0153 40.4847 34.1112 40.732C34.2071 40.9793 34.2551 41.2839 34.2551 41.6456V41.898H31.267V41.3831H33.6494C33.6494 41.1644 33.6056 40.9692 33.5181 40.7976C33.4323 40.626 33.3095 40.4906 33.1497 40.3913C32.9915 40.292 32.8048 40.2424 32.5894 40.2424C32.3522 40.2424 32.1469 40.3013 31.9736 40.4191C31.802 40.5351 31.6699 40.6866 31.5774 40.8733C31.4848 41.0601 31.4386 41.2603 31.4386 41.474V41.8172C31.4386 42.1099 31.4891 42.3581 31.59 42.5617C31.6926 42.7636 31.8348 42.9175 32.0165 43.0235C32.1982 43.1279 32.4094 43.18 32.65 43.18C32.8064 43.18 32.9478 43.1581 33.074 43.1144C33.2018 43.069 33.312 43.0017 33.4046 42.9125C33.4971 42.8216 33.5686 42.7089 33.6191 42.5743L34.1945 42.7358C34.1339 42.931 34.0321 43.1026 33.8891 43.2507C33.7461 43.397 33.5694 43.5115 33.3591 43.5939C33.1488 43.6747 32.9124 43.715 32.65 43.715ZM35.7567 41.3024V43.6343H35.1611V39.7578H35.7365V40.3635H35.787C35.8778 40.1667 36.0158 40.0085 36.2008 39.8891C36.3859 39.7679 36.6248 39.7074 36.9176 39.7074C37.18 39.7074 37.4097 39.7612 37.6066 39.8689C37.8034 39.9749 37.9565 40.1364 38.0659 40.3534C38.1752 40.5688 38.2299 40.8414 38.2299 41.1711V43.6343H37.6343V41.2115C37.6343 40.907 37.5552 40.6697 37.3971 40.4998C37.2389 40.3282 37.0219 40.2424 36.746 40.2424C36.5558 40.2424 36.3859 40.2836 36.2362 40.3661C36.0881 40.4485 35.9712 40.5688 35.8854 40.7269C35.7996 40.8851 35.7567 41.0769 35.7567 41.3024ZM40.8931 43.715C40.5297 43.715 40.2167 43.6292 39.9543 43.4576C39.6918 43.286 39.4899 43.0496 39.3486 42.7485C39.2072 42.4473 39.1366 42.1032 39.1366 41.7162C39.1366 41.3225 39.2089 40.9751 39.3536 40.674C39.5 40.3711 39.7036 40.1347 39.9643 39.9648C40.2268 39.7932 40.533 39.7074 40.883 39.7074C41.1555 39.7074 41.4012 39.7578 41.6199 39.8588C41.8386 39.9597 42.0178 40.1011 42.1575 40.2828C42.2971 40.4645 42.3838 40.6765 42.4174 40.9188H41.8218C41.7764 40.7421 41.6754 40.5856 41.519 40.4493C41.3642 40.3114 41.1555 40.2424 40.8931 40.2424C40.6609 40.2424 40.4573 40.303 40.2823 40.4241C40.109 40.5436 39.9736 40.7126 39.876 40.9314C39.7801 41.1484 39.7322 41.4033 39.7322 41.6961C39.7322 41.9955 39.7793 42.2563 39.8735 42.4784C39.9694 42.7005 40.104 42.873 40.2773 42.9958C40.4523 43.1186 40.6575 43.18 40.8931 43.18C41.0479 43.18 41.1884 43.1531 41.3145 43.0992C41.4407 43.0454 41.5476 42.968 41.6351 42.8671C41.7225 42.7661 41.7848 42.645 41.8218 42.5036H42.4174C42.3838 42.7325 42.3005 42.9386 42.1676 43.122C42.0363 43.3037 41.8622 43.4484 41.6451 43.556C41.4298 43.662 41.1791 43.715 40.8931 43.715ZM44.9134 43.715C44.5399 43.715 44.2177 43.6326 43.9468 43.4677C43.6776 43.3011 43.4698 43.069 43.3234 42.7712C43.1787 42.4717 43.1064 42.1234 43.1064 41.7263C43.1064 41.3293 43.1787 40.9793 43.3234 40.6765C43.4698 40.3719 43.6734 40.1347 43.9342 39.9648C44.1966 39.7932 44.5028 39.7074 44.8528 39.7074C45.0547 39.7074 45.2541 39.741 45.4509 39.8083C45.6478 39.8756 45.827 39.985 45.9885 40.1364C46.15 40.2861 46.2787 40.4847 46.3746 40.732C46.4705 40.9793 46.5185 41.2839 46.5185 41.6456V41.898H43.5304V41.3831H45.9128C45.9128 41.1644 45.869 40.9692 45.7815 40.7976C45.6957 40.626 45.5729 40.4906 45.4131 40.3913C45.2549 40.292 45.0682 40.2424 44.8528 40.2424C44.6156 40.2424 44.4103 40.3013 44.237 40.4191C44.0654 40.5351 43.9333 40.6866 43.8408 40.8733C43.7482 41.0601 43.702 41.2603 43.702 41.474V41.8172C43.702 42.1099 43.7525 42.3581 43.8534 42.5617C43.956 42.7636 44.0982 42.9175 44.2799 43.0235C44.4616 43.1279 44.6728 43.18 44.9134 43.18C45.0698 43.18 45.2112 43.1581 45.3374 43.1144C45.4652 43.069 45.5754 43.0017 45.668 42.9125C45.7605 42.8216 45.832 42.7089 45.8825 42.5743L46.4579 42.7358C46.3973 42.931 46.2955 43.1026 46.1525 43.2507C46.0095 43.397 45.8328 43.5115 45.6225 43.5939C45.4122 43.6747 45.1758 43.715 44.9134 43.715ZM47.4245 43.6343V39.7578H47.9999V40.3433H48.0403C48.1109 40.1515 48.2388 39.9959 48.4239 39.8765C48.6089 39.757 48.8176 39.6973 49.0497 39.6973C49.0935 39.6973 49.1482 39.6981 49.2138 39.6998C49.2794 39.7015 49.329 39.704 49.3627 39.7074V40.3131C49.3425 40.308 49.2962 40.3004 49.2239 40.2903C49.1532 40.2786 49.0783 40.2727 48.9993 40.2727C48.8108 40.2727 48.6426 40.3122 48.4945 40.3913C48.3482 40.4687 48.2321 40.5764 48.1463 40.7143C48.0621 40.8506 48.0201 41.0062 48.0201 41.1812V43.6343H47.4245ZM52.8145 40.626L52.2795 40.7774C52.2458 40.6883 52.1962 40.6016 52.1306 40.5175C52.0666 40.4317 51.9792 40.361 51.8681 40.3055C51.7571 40.25 51.6149 40.2222 51.4416 40.2222C51.2044 40.2222 51.0067 40.2769 50.8485 40.3862C50.6921 40.4939 50.6138 40.631 50.6138 40.7976C50.6138 40.9457 50.6677 41.0626 50.7753 41.1484C50.883 41.2342 51.0513 41.3057 51.2801 41.3629L51.8555 41.5043C52.2021 41.5884 52.4603 41.7171 52.6303 41.8904C52.8002 42.062 52.8852 42.2832 52.8852 42.5541C52.8852 42.7762 52.8212 42.9747 52.6934 43.1497C52.5672 43.3247 52.3905 43.4627 52.1634 43.5636C51.9363 43.6646 51.6721 43.715 51.3709 43.715C50.9756 43.715 50.6483 43.6292 50.3892 43.4576C50.1301 43.286 49.9661 43.0353 49.8971 42.7055L50.4624 42.5642C50.5162 42.7728 50.618 42.9293 50.7678 43.0336C50.9192 43.1379 51.1169 43.1901 51.3608 43.1901C51.6385 43.1901 51.8589 43.1312 52.0221 43.0134C52.1869 42.894 52.2694 42.751 52.2694 42.5844C52.2694 42.4498 52.2223 42.3371 52.1281 42.2462C52.0338 42.1537 51.8891 42.0847 51.694 42.0393L51.0479 41.8879C50.6929 41.8037 50.4321 41.6733 50.2655 41.4967C50.1007 41.3183 50.0182 41.0954 50.0182 40.8279C50.0182 40.6092 50.0796 40.4157 50.2025 40.2474C50.327 40.0792 50.496 39.9471 50.7097 39.8512C50.9251 39.7553 51.169 39.7074 51.4416 39.7074C51.8252 39.7074 52.1264 39.7915 52.3451 39.9597C52.5655 40.128 52.722 40.3501 52.8145 40.626Z" fill="#9291A5"/>
<path d="M17.9494 48.793V55.1101H16.6137V48.793H17.9494ZM20.3376 52.371V55.1101H19.0236V50.3722H20.2759V51.2082H20.3314C20.4363 50.9326 20.6121 50.7146 20.8589 50.5542C21.1056 50.3918 21.4048 50.3105 21.7565 50.3105C22.0855 50.3105 22.3723 50.3825 22.6171 50.5265C22.8618 50.6704 23.052 50.876 23.1877 51.1434C23.3234 51.4086 23.3913 51.7253 23.3913 52.0934V55.1101H22.0773V52.3278C22.0793 52.0379 22.0053 51.8117 21.8552 51.6492C21.7051 51.4847 21.4984 51.4025 21.2352 51.4025C21.0583 51.4025 20.902 51.4405 20.7663 51.5166C20.6327 51.5927 20.5278 51.7037 20.4517 51.8497C20.3777 51.9937 20.3396 52.1674 20.3376 52.371ZM26.9747 50.3722V51.3593H24.0506V50.3722H26.9747ZM24.7199 55.1101V50.0299C24.7199 49.6864 24.7868 49.4016 24.9204 49.1754C25.0562 48.9492 25.2412 48.7796 25.4757 48.6665C25.7101 48.5534 25.9764 48.4968 26.2746 48.4968C26.4761 48.4968 26.6601 48.5123 26.8267 48.5431C26.9953 48.5739 27.1207 48.6017 27.203 48.6264L26.9686 49.6134C26.9172 49.597 26.8534 49.5816 26.7773 49.5672C26.7033 49.5528 26.6272 49.5456 26.5491 49.5456C26.3558 49.5456 26.2211 49.5908 26.145 49.6813C26.0689 49.7697 26.0309 49.8941 26.0309 50.0545V55.1101H24.7199ZM29.0915 48.793V55.1101H27.7775V48.793H29.0915ZM33.1824 53.0928V50.3722H34.4964V55.1101H33.2348V54.2495H33.1855C33.0786 54.5271 32.9007 54.7502 32.6519 54.9189C32.4051 55.0875 32.1038 55.1718 31.7481 55.1718C31.4314 55.1718 31.1528 55.0998 30.9122 54.9559C30.6716 54.8119 30.4834 54.6073 30.3477 54.3421C30.214 54.0768 30.1462 53.7591 30.1441 53.3889V50.3722H31.4581V53.1545C31.4602 53.4342 31.5353 53.6552 31.6833 53.8177C31.8314 53.9801 32.0298 54.0614 32.2786 54.0614C32.437 54.0614 32.585 54.0254 32.7228 53.9534C32.8606 53.8794 32.9716 53.7704 33.0559 53.6264C33.1423 53.4825 33.1845 53.3046 33.1824 53.0928ZM37.7067 55.2026C37.2193 55.2026 36.7998 55.1039 36.4482 54.9065C36.0986 54.7071 35.8292 54.4253 35.64 54.0614C35.4508 53.6953 35.3562 53.2625 35.3562 52.7628C35.3562 52.2754 35.4508 51.8477 35.64 51.4796C35.8292 51.1115 36.0955 50.8246 36.4389 50.619C36.7844 50.4134 37.1895 50.3105 37.6542 50.3105C37.9668 50.3105 38.2578 50.3609 38.5272 50.4617C38.7986 50.5604 39.0351 50.7095 39.2366 50.909C39.4402 51.1084 39.5985 51.3593 39.7116 51.6616C39.8247 51.9618 39.8813 52.3134 39.8813 52.7165V53.0774H35.8806V52.2631H38.6444C38.6444 52.0739 38.6032 51.9063 38.521 51.7603C38.4387 51.6143 38.3246 51.5002 38.1786 51.4179C38.0347 51.3336 37.8671 51.2914 37.6758 51.2914C37.4764 51.2914 37.2995 51.3377 37.1453 51.4302C36.9931 51.5207 36.8738 51.6431 36.7875 51.7973C36.7011 51.9495 36.6569 52.1191 36.6548 52.3063V53.0805C36.6548 53.3149 36.698 53.5175 36.7844 53.6881C36.8728 53.8588 36.9972 53.9904 37.1576 54.083C37.318 54.1755 37.5082 54.2218 37.7283 54.2218C37.8743 54.2218 38.0079 54.2012 38.1292 54.1601C38.2506 54.1189 38.3544 54.0572 38.4408 53.975C38.5272 53.8927 38.593 53.792 38.6382 53.6727L39.8535 53.7529C39.7918 54.0449 39.6654 54.2999 39.4741 54.5179C39.2849 54.7338 39.0402 54.9024 38.74 55.0237C38.4418 55.143 38.0974 55.2026 37.7067 55.2026ZM42.0528 52.371V55.1101H40.7388V50.3722H41.9911V51.2082H42.0466C42.1515 50.9326 42.3273 50.7146 42.5741 50.5542C42.8208 50.3918 43.12 50.3105 43.4717 50.3105C43.8007 50.3105 44.0876 50.3825 44.3323 50.5265C44.577 50.6704 44.7672 50.876 44.9029 51.1434C45.0386 51.4086 45.1065 51.7253 45.1065 52.0934V55.1101H43.7925V52.3278C43.7945 52.0379 43.7205 51.8117 43.5704 51.6492C43.4203 51.4847 43.2136 51.4025 42.9504 51.4025C42.7736 51.4025 42.6173 51.4405 42.4815 51.5166C42.3479 51.5927 42.243 51.7037 42.1669 51.8497C42.0929 51.9937 42.0549 52.1674 42.0528 52.371ZM48.2828 55.2026C47.7975 55.2026 47.3801 55.0998 47.0305 54.8942C46.683 54.6865 46.4156 54.3986 46.2285 54.0305C46.0434 53.6624 45.9509 53.2388 45.9509 52.7597C45.9509 52.2744 46.0445 51.8487 46.2316 51.4827C46.4208 51.1146 46.6891 50.8277 47.0367 50.6221C47.3842 50.4144 47.7975 50.3105 48.2766 50.3105C48.69 50.3105 49.0519 50.3856 49.3624 50.5357C49.6729 50.6858 49.9187 50.8966 50.0996 51.1681C50.2806 51.4395 50.3803 51.7582 50.3988 52.1243H49.1588C49.1239 51.8878 49.0313 51.6976 48.8812 51.5536C48.7332 51.4076 48.5388 51.3346 48.2982 51.3346C48.0947 51.3346 47.9168 51.3901 47.7646 51.5012C47.6145 51.6102 47.4973 51.7695 47.413 51.9793C47.3287 52.189 47.2865 52.443 47.2865 52.7412C47.2865 53.0435 47.3276 53.3005 47.4099 53.5123C47.4942 53.7241 47.6124 53.8855 47.7646 53.9966C47.9168 54.1076 48.0947 54.1632 48.2982 54.1632C48.4483 54.1632 48.583 54.1323 48.7023 54.0706C48.8236 54.0089 48.9234 53.9195 49.0015 53.8023C49.0817 53.683 49.1341 53.5401 49.1588 53.3735H50.3988C50.3782 53.7354 50.2795 54.0542 50.1027 54.3297C49.9279 54.6032 49.6863 54.8171 49.3778 54.9713C49.0694 55.1255 48.7044 55.2026 48.2828 55.2026ZM53.3993 55.2026C52.912 55.2026 52.4925 55.1039 52.1408 54.9065C51.7912 54.7071 51.5218 54.4253 51.3327 54.0614C51.1435 53.6953 51.0489 53.2625 51.0489 52.7628C51.0489 52.2754 51.1435 51.8477 51.3327 51.4796C51.5218 51.1115 51.7881 50.8246 52.1316 50.619C52.477 50.4134 52.8821 50.3105 53.3469 50.3105C53.6594 50.3105 53.9504 50.3609 54.2198 50.4617C54.4912 50.5604 54.7277 50.7095 54.9292 50.909C55.1328 51.1084 55.2912 51.3593 55.4043 51.6616C55.5174 51.9618 55.5739 52.3134 55.5739 52.7165V53.0774H51.5733V52.2631H54.337C54.337 52.0739 54.2959 51.9063 54.2136 51.7603C54.1314 51.6143 54.0172 51.5002 53.8712 51.4179C53.7273 51.3336 53.5597 51.2914 53.3685 51.2914C53.169 51.2914 52.9921 51.3377 52.8379 51.4302C52.6858 51.5207 52.5665 51.6431 52.4801 51.7973C52.3937 51.9495 52.3495 52.1191 52.3475 52.3063V53.0805C52.3475 53.3149 52.3907 53.5175 52.477 53.6881C52.5655 53.8588 52.6899 53.9904 52.8503 54.083C53.0107 54.1755 53.2009 54.2218 53.4209 54.2218C53.5669 54.2218 53.7006 54.2012 53.8219 54.1601C53.9432 54.1189 54.0471 54.0572 54.1334 53.975C54.2198 53.8927 54.2856 53.792 54.3308 53.6727L55.5462 53.7529C55.4845 54.0449 55.358 54.2999 55.1668 54.5179C54.9776 54.7338 54.7329 54.9024 54.4326 55.0237C54.1345 55.143 53.79 55.2026 53.3993 55.2026ZM56.4314 55.1101V50.3722H57.7053V51.1989H57.7547C57.8411 50.9048 57.986 50.6828 58.1896 50.5326C58.3932 50.3805 58.6276 50.3044 58.8929 50.3044C58.9587 50.3044 59.0296 50.3085 59.1057 50.3167C59.1818 50.3249 59.2486 50.3363 59.3062 50.3506V51.5166C59.2445 51.4981 59.1592 51.4816 59.0502 51.4673C58.9412 51.4529 58.8415 51.4457 58.751 51.4457C58.5577 51.4457 58.385 51.4878 58.2328 51.5721C58.0827 51.6544 57.9634 51.7695 57.875 51.9176C57.7886 52.0657 57.7454 52.2363 57.7454 52.4296V55.1101H56.4314ZM63.9276 51.7233L62.7247 51.7973C62.7041 51.6945 62.6599 51.6019 62.592 51.5197C62.5242 51.4354 62.4347 51.3685 62.3237 51.3192C62.2147 51.2678 62.0841 51.2421 61.9319 51.2421C61.7284 51.2421 61.5567 51.2853 61.4168 51.3716C61.277 51.4559 61.2071 51.569 61.2071 51.7109C61.2071 51.824 61.2523 51.9197 61.3428 51.9978C61.4333 52.0759 61.5885 52.1387 61.8086 52.186L62.6661 52.3587C63.1267 52.4533 63.4701 52.6055 63.6963 52.8152C63.9225 53.025 64.0356 53.3005 64.0356 53.6419C64.0356 53.9524 63.9441 54.2248 63.7611 54.4593C63.5801 54.6937 63.3313 54.8767 63.0146 55.0083C62.7 55.1379 62.337 55.2026 61.9258 55.2026C61.2986 55.2026 60.7989 55.0721 60.4267 54.8109C60.0565 54.5477 59.8396 54.1899 59.7758 53.7375L61.0683 53.6696C61.1073 53.8609 61.2019 54.0069 61.352 54.1076C61.5022 54.2063 61.6944 54.2557 61.9289 54.2557C62.1592 54.2557 62.3442 54.2115 62.4841 54.1231C62.626 54.0326 62.6979 53.9164 62.7 53.7745C62.6979 53.6552 62.6476 53.5576 62.5489 53.4815C62.4501 53.4033 62.298 53.3437 62.0923 53.3026L61.2719 53.1391C60.8092 53.0465 60.4647 52.8861 60.2385 52.6579C60.0144 52.4296 59.9023 52.1387 59.9023 51.785C59.9023 51.4806 59.9846 51.2184 60.1491 50.9984C60.3156 50.7784 60.549 50.6087 60.8493 50.4895C61.1516 50.3702 61.5052 50.3105 61.9104 50.3105C62.5088 50.3105 62.9797 50.437 63.3231 50.6899C63.6685 50.9429 63.8701 51.2873 63.9276 51.7233ZM69.3935 50.3722V51.3593H66.5403V50.3722H69.3935ZM67.188 49.2371H68.502V53.6542C68.502 53.7755 68.5205 53.8701 68.5576 53.938C68.5946 54.0038 68.646 54.0501 68.7118 54.0768C68.7796 54.1035 68.8578 54.1169 68.9462 54.1169C69.0079 54.1169 69.0696 54.1117 69.1313 54.1015C69.193 54.0891 69.2403 54.0799 69.2732 54.0737L69.4798 55.0515C69.414 55.0721 69.3215 55.0957 69.2022 55.1224C69.083 55.1512 68.938 55.1687 68.7673 55.1749C68.4506 55.1872 68.173 55.1451 67.9345 55.0484C67.698 54.9518 67.5139 54.8017 67.3823 54.5981C67.2507 54.3945 67.186 54.1374 67.188 53.8269V49.2371ZM71.0607 56.8868C70.8941 56.8868 70.7378 56.8734 70.5918 56.8467C70.4479 56.822 70.3286 56.7902 70.234 56.7511L70.5301 55.7702C70.6844 55.8175 70.8232 55.8432 70.9465 55.8473C71.072 55.8514 71.1799 55.8226 71.2704 55.7609C71.363 55.6993 71.438 55.5944 71.4956 55.4463L71.5727 55.2458L69.8731 50.3722H71.255L72.2359 53.8516H72.2852L73.2754 50.3722H74.6665L72.825 55.6221C72.7366 55.8771 72.6163 56.0992 72.4641 56.2884C72.314 56.4796 72.1238 56.6267 71.8935 56.7295C71.6632 56.8344 71.3856 56.8868 71.0607 56.8868ZM75.3389 56.8868V50.3722H76.6344V51.1681H76.6931C76.7506 51.0406 76.8339 50.911 76.9429 50.7794C77.0539 50.6457 77.1979 50.5347 77.3747 50.4463C77.5536 50.3558 77.7757 50.3105 78.041 50.3105C78.3865 50.3105 78.7052 50.401 78.9972 50.582C79.2892 50.7609 79.5226 51.0313 79.6974 51.3932C79.8722 51.7531 79.9596 52.2045 79.9596 52.7473C79.9596 53.2758 79.8743 53.7221 79.7036 54.086C79.535 54.448 79.3046 54.7225 79.0126 54.9096C78.7227 55.0947 78.3978 55.1872 78.0379 55.1872C77.7829 55.1872 77.566 55.1451 77.3871 55.0608C77.2102 54.9764 77.0653 54.8705 76.9522 54.743C76.8391 54.6135 76.7527 54.4829 76.6931 54.3513H76.653V56.8868H75.3389ZM76.6252 52.7412C76.6252 53.0229 76.6643 53.2686 76.7424 53.4784C76.8205 53.6881 76.9336 53.8516 77.0817 53.9688C77.2298 54.084 77.4097 54.1416 77.6215 54.1416C77.8354 54.1416 78.0163 54.083 78.1644 53.9657C78.3124 53.8465 78.4245 53.682 78.5006 53.4722C78.5787 53.2604 78.6178 53.0167 78.6178 52.7412C78.6178 52.4677 78.5798 52.2271 78.5037 52.0194C78.4276 51.8117 78.3155 51.6492 78.1675 51.532C78.0194 51.4148 77.8374 51.3562 77.6215 51.3562C77.4076 51.3562 77.2267 51.4128 77.0786 51.5259C76.9326 51.639 76.8205 51.7994 76.7424 52.0071C76.6643 52.2147 76.6252 52.4595 76.6252 52.7412ZM82.9948 55.2026C82.5074 55.2026 82.0879 55.1039 81.7363 54.9065C81.3867 54.7071 81.1173 54.4253 80.9281 54.0614C80.739 53.6953 80.6444 53.2625 80.6444 52.7628C80.6444 52.2754 80.739 51.8477 80.9281 51.4796C81.1173 51.1115 81.3836 50.8246 81.727 50.619C82.0725 50.4134 82.4776 50.3105 82.9423 50.3105C83.2549 50.3105 83.5459 50.3609 83.8153 50.4617C84.0867 50.5604 84.3232 50.7095 84.5247 50.909C84.7283 51.1084 84.8866 51.3593 84.9997 51.6616C85.1128 51.9618 85.1694 52.3134 85.1694 52.7165V53.0774H81.1687V52.2631H83.9325C83.9325 52.0739 83.8914 51.9063 83.8091 51.7603C83.7269 51.6143 83.6127 51.5002 83.4667 51.4179C83.3228 51.3336 83.1552 51.2914 82.9639 51.2914C82.7645 51.2914 82.5876 51.3377 82.4334 51.4302C82.2812 51.5207 82.162 51.6431 82.0756 51.7973C81.9892 51.9495 81.945 52.1191 81.943 52.3063V53.0805C81.943 53.3149 81.9861 53.5175 82.0725 53.6881C82.1609 53.8588 82.2853 53.9904 82.4457 54.083C82.6061 54.1755 82.7963 54.2218 83.0164 54.2218C83.1624 54.2218 83.296 54.2012 83.4174 54.1601C83.5387 54.1189 83.6425 54.0572 83.7289 53.975C83.8153 53.8927 83.8811 53.792 83.9263 53.6727L85.1416 53.7529C85.0799 54.0449 84.9535 54.2999 84.7622 54.5179C84.573 54.7338 84.3283 54.9024 84.0281 55.0237C83.7299 55.143 83.3855 55.2026 82.9948 55.2026ZM89.969 51.7233L88.766 51.7973C88.7454 51.6945 88.7012 51.6019 88.6333 51.5197C88.5655 51.4354 88.476 51.3685 88.365 51.3192C88.256 51.2678 88.1254 51.2421 87.9732 51.2421C87.7697 51.2421 87.598 51.2853 87.4581 51.3716C87.3183 51.4559 87.2484 51.569 87.2484 51.7109C87.2484 51.824 87.2936 51.9197 87.3841 51.9978C87.4746 52.0759 87.6298 52.1387 87.8499 52.186L88.7074 52.3587C89.168 52.4533 89.5114 52.6055 89.7376 52.8152C89.9638 53.025 90.0769 53.3005 90.0769 53.6419C90.0769 53.9524 89.9854 54.2248 89.8024 54.4593C89.6214 54.6937 89.3726 54.8767 89.0559 55.0083C88.7413 55.1379 88.3784 55.2026 87.9671 55.2026C87.3399 55.2026 86.8402 55.0721 86.468 54.8109C86.0978 54.5477 85.8809 54.1899 85.8171 53.7375L87.1096 53.6696C87.1486 53.8609 87.2432 54.0069 87.3934 54.1076C87.5435 54.2063 87.7357 54.2557 87.9702 54.2557C88.2005 54.2557 88.3856 54.2115 88.5254 54.1231C88.6673 54.0326 88.7392 53.9164 88.7413 53.7745C88.7392 53.6552 88.6889 53.5576 88.5902 53.4815C88.4915 53.4033 88.3393 53.3437 88.1336 53.3026L87.3132 53.1391C86.8505 53.0465 86.506 52.8861 86.2798 52.6579C86.0557 52.4296 85.9436 52.1387 85.9436 51.785C85.9436 51.4806 86.0259 51.2184 86.1904 50.9984C86.3569 50.7784 86.5903 50.6087 86.8906 50.4895C87.1929 50.3702 87.5466 50.3105 87.9517 50.3105C88.5501 50.3105 89.021 50.437 89.3644 50.6899C89.7099 50.9429 89.9114 51.2873 89.969 51.7233Z" fill="#1E1B39"/>
<g filter="url(#filter1_d_203_2441)">
<rect x="155.5" y="3" width="172.657" height="158.616" rx="10.401" fill="white"/>
</g>
<path d="M285.452 144.229V136.664H285.936V144.229H285.452ZM287.083 138.934C287.047 138.634 286.904 138.402 286.652 138.236C286.399 138.071 286.09 137.988 285.724 137.988C285.456 137.988 285.221 138.031 285.02 138.118C284.821 138.205 284.666 138.324 284.554 138.476C284.443 138.627 284.388 138.8 284.388 138.993C284.388 139.154 284.427 139.293 284.503 139.409C284.582 139.524 284.683 139.619 284.805 139.696C284.927 139.771 285.055 139.833 285.189 139.882C285.323 139.929 285.446 139.968 285.558 139.997L286.173 140.163C286.33 140.204 286.506 140.261 286.699 140.334C286.894 140.407 287.08 140.507 287.257 140.633C287.437 140.757 287.584 140.916 287.7 141.111C287.817 141.306 287.875 141.546 287.875 141.829C287.875 142.156 287.789 142.452 287.618 142.716C287.448 142.98 287.2 143.19 286.873 143.345C286.548 143.501 286.153 143.579 285.688 143.579C285.255 143.579 284.88 143.509 284.562 143.369C284.247 143.229 283.999 143.034 283.818 142.784C283.639 142.534 283.537 142.243 283.513 141.912H284.27C284.29 142.141 284.366 142.33 284.5 142.479C284.636 142.627 284.808 142.738 285.015 142.81C285.223 142.881 285.448 142.917 285.688 142.917C285.968 142.917 286.219 142.871 286.442 142.781C286.664 142.688 286.841 142.56 286.971 142.397C287.101 142.231 287.166 142.038 287.166 141.818C287.166 141.617 287.11 141.453 286.997 141.327C286.885 141.201 286.737 141.099 286.554 141.02C286.371 140.941 286.173 140.872 285.96 140.813L285.215 140.6C284.743 140.464 284.368 140.27 284.093 140.018C283.817 139.766 283.679 139.436 283.679 139.028C283.679 138.689 283.771 138.394 283.954 138.142C284.139 137.888 284.387 137.691 284.698 137.551C285.012 137.409 285.361 137.338 285.747 137.338C286.137 137.338 286.484 137.408 286.787 137.548C287.091 137.686 287.331 137.875 287.508 138.115C287.688 138.355 287.782 138.628 287.792 138.934H287.083ZM290.864 143.555C290.518 143.555 290.205 143.486 289.928 143.348C289.65 143.21 289.427 143.021 289.26 142.781C289.092 142.541 289.001 142.267 288.985 141.959H289.694C289.722 142.233 289.846 142.46 290.067 142.639C290.289 142.816 290.555 142.905 290.864 142.905C291.113 142.905 291.333 142.847 291.526 142.731C291.721 142.614 291.874 142.455 291.984 142.252C292.097 142.047 292.153 141.816 292.153 141.558C292.153 141.294 292.095 141.058 291.978 140.851C291.864 140.643 291.707 140.478 291.506 140.358C291.305 140.238 291.075 140.177 290.817 140.175C290.632 140.173 290.442 140.201 290.247 140.26C290.052 140.318 289.891 140.391 289.765 140.482L289.08 140.399L289.446 137.421H292.59V138.071H290.061L289.848 139.856H289.883C290.007 139.757 290.163 139.675 290.35 139.61C290.537 139.545 290.732 139.513 290.935 139.513C291.306 139.513 291.636 139.601 291.925 139.779C292.217 139.954 292.445 140.194 292.611 140.5C292.778 140.805 292.862 141.154 292.862 141.546C292.862 141.932 292.775 142.277 292.602 142.58C292.43 142.881 292.194 143.12 291.893 143.295C291.591 143.468 291.249 143.555 290.864 143.555ZM294.86 142.645L294.813 142.964C294.779 143.189 294.728 143.429 294.659 143.685C294.592 143.941 294.522 144.182 294.449 144.409C294.376 144.636 294.316 144.816 294.269 144.95H293.737C293.763 144.824 293.796 144.657 293.838 144.45C293.879 144.244 293.92 144.012 293.962 143.756C294.005 143.502 294.041 143.242 294.068 142.976L294.104 142.645H294.86ZM297.938 143.555C297.69 143.551 297.442 143.504 297.194 143.413C296.945 143.323 296.719 143.17 296.514 142.955C296.309 142.739 296.145 142.446 296.021 142.078C295.896 141.707 295.834 141.242 295.834 140.683C295.834 140.147 295.885 139.672 295.985 139.259C296.086 138.843 296.231 138.493 296.422 138.21C296.614 137.924 296.844 137.707 297.114 137.56C297.386 137.412 297.692 137.338 298.033 137.338C298.372 137.338 298.673 137.406 298.937 137.542C299.203 137.676 299.42 137.863 299.587 138.103C299.755 138.344 299.863 138.62 299.912 138.934H299.191C299.124 138.662 298.994 138.436 298.801 138.257C298.608 138.078 298.352 137.988 298.033 137.988C297.564 137.988 297.195 138.192 296.925 138.6C296.657 139.008 296.522 139.58 296.52 140.317H296.567C296.678 140.149 296.809 140.006 296.96 139.888C297.114 139.768 297.283 139.675 297.468 139.61C297.654 139.545 297.85 139.513 298.056 139.513C298.403 139.513 298.72 139.599 299.008 139.773C299.296 139.944 299.526 140.182 299.699 140.485C299.873 140.786 299.959 141.132 299.959 141.522C299.959 141.896 299.876 142.239 299.708 142.55C299.541 142.86 299.305 143.106 299.002 143.289C298.701 143.47 298.346 143.559 297.938 143.555ZM297.938 142.905C298.186 142.905 298.409 142.843 298.606 142.719C298.805 142.595 298.962 142.428 299.076 142.219C299.192 142.011 299.25 141.778 299.25 141.522C299.25 141.272 299.194 141.044 299.082 140.84C298.971 140.633 298.819 140.468 298.624 140.346C298.431 140.224 298.21 140.163 297.962 140.163C297.775 140.163 297.6 140.2 297.439 140.275C297.277 140.348 297.136 140.449 297.013 140.577C296.893 140.705 296.799 140.851 296.73 141.017C296.661 141.18 296.626 141.353 296.626 141.534C296.626 141.774 296.682 141.999 296.795 142.208C296.909 142.416 297.065 142.585 297.262 142.713C297.461 142.841 297.686 142.905 297.938 142.905ZM303.131 143.555C302.882 143.551 302.634 143.504 302.386 143.413C302.138 143.323 301.911 143.17 301.706 142.955C301.502 142.739 301.337 142.446 301.213 142.078C301.089 141.707 301.027 141.242 301.027 140.683C301.027 140.147 301.077 139.672 301.178 139.259C301.278 138.843 301.424 138.493 301.615 138.21C301.806 137.924 302.036 137.707 302.306 137.56C302.578 137.412 302.884 137.338 303.225 137.338C303.564 137.338 303.865 137.406 304.129 137.542C304.395 137.676 304.612 137.863 304.779 138.103C304.947 138.344 305.055 138.62 305.104 138.934H304.384C304.317 138.662 304.187 138.436 303.993 138.257C303.8 138.078 303.544 137.988 303.225 137.988C302.756 137.988 302.387 138.192 302.117 138.6C301.849 139.008 301.714 139.58 301.712 140.317H301.76C301.87 140.149 302.001 140.006 302.153 139.888C302.306 139.768 302.476 139.675 302.661 139.61C302.846 139.545 303.042 139.513 303.249 139.513C303.596 139.513 303.913 139.599 304.2 139.773C304.488 139.944 304.718 140.182 304.892 140.485C305.065 140.786 305.152 141.132 305.152 141.522C305.152 141.896 305.068 142.239 304.901 142.55C304.733 142.86 304.498 143.106 304.194 143.289C303.893 143.47 303.538 143.559 303.131 143.555ZM303.131 142.905C303.379 142.905 303.601 142.843 303.798 142.719C303.997 142.595 304.154 142.428 304.268 142.219C304.385 142.011 304.443 141.778 304.443 141.522C304.443 141.272 304.386 141.044 304.274 140.84C304.164 140.633 304.011 140.468 303.816 140.346C303.623 140.224 303.403 140.163 303.154 140.163C302.967 140.163 302.793 140.2 302.631 140.275C302.47 140.348 302.328 140.449 302.206 140.577C302.086 140.705 301.991 140.851 301.922 141.017C301.853 141.18 301.819 141.353 301.819 141.534C301.819 141.774 301.875 141.999 301.987 142.208C302.101 142.416 302.257 142.585 302.454 142.713C302.653 142.841 302.879 142.905 303.131 142.905ZM306.314 143.472V142.94L308.311 140.754C308.546 140.498 308.739 140.275 308.89 140.086C309.042 139.895 309.154 139.716 309.227 139.548C309.302 139.379 309.34 139.202 309.34 139.016C309.34 138.804 309.288 138.619 309.186 138.464C309.085 138.308 308.948 138.188 308.772 138.103C308.597 138.019 308.4 137.976 308.181 137.976C307.949 137.976 307.746 138.025 307.573 138.121C307.401 138.216 307.268 138.349 307.174 138.52C307.081 138.691 307.035 138.892 307.035 139.123H306.337C306.337 138.768 306.419 138.457 306.583 138.189C306.746 137.921 306.969 137.712 307.25 137.563C307.534 137.413 307.852 137.338 308.205 137.338C308.559 137.338 308.874 137.413 309.147 137.563C309.421 137.712 309.636 137.914 309.792 138.168C309.947 138.422 310.025 138.705 310.025 139.016C310.025 139.239 309.985 139.457 309.904 139.669C309.825 139.88 309.687 140.116 309.49 140.376C309.295 140.634 309.024 140.949 308.678 141.321L307.318 142.775V142.822H310.131V143.472H306.314Z" fill="#9291A5"/>
<path d="M186.112 138.414C186.076 138.114 185.932 137.882 185.68 137.716C185.428 137.551 185.119 137.468 184.752 137.468C184.484 137.468 184.25 137.511 184.049 137.598C183.85 137.685 183.694 137.804 183.582 137.956C183.472 138.107 183.417 138.28 183.417 138.473C183.417 138.634 183.455 138.773 183.532 138.889C183.611 139.004 183.711 139.099 183.833 139.176C183.956 139.251 184.084 139.313 184.218 139.362C184.351 139.409 184.475 139.448 184.587 139.477L185.201 139.643C185.359 139.684 185.534 139.741 185.727 139.814C185.922 139.887 186.109 139.987 186.286 140.113C186.465 140.237 186.613 140.396 186.729 140.591C186.845 140.786 186.903 141.026 186.903 141.309C186.903 141.636 186.818 141.932 186.646 142.196C186.477 142.46 186.229 142.67 185.902 142.825C185.577 142.981 185.182 143.059 184.717 143.059C184.283 143.059 183.908 142.989 183.591 142.849C183.276 142.709 183.028 142.514 182.846 142.264C182.667 142.014 182.566 141.723 182.542 141.392H183.299C183.318 141.621 183.395 141.81 183.529 141.959C183.665 142.107 183.836 142.218 184.043 142.29C184.252 142.361 184.477 142.397 184.717 142.397C184.997 142.397 185.248 142.351 185.47 142.261C185.693 142.168 185.869 142.04 185.999 141.877C186.129 141.711 186.194 141.518 186.194 141.298C186.194 141.097 186.138 140.933 186.026 140.807C185.914 140.681 185.766 140.579 185.583 140.5C185.399 140.421 185.201 140.352 184.989 140.293L184.244 140.08C183.771 139.944 183.397 139.75 183.121 139.498C182.845 139.246 182.708 138.916 182.708 138.508C182.708 138.169 182.799 137.874 182.982 137.622C183.168 137.368 183.416 137.171 183.727 137.031C184.04 136.889 184.39 136.818 184.776 136.818C185.166 136.818 185.513 136.888 185.816 137.028C186.119 137.166 186.36 137.355 186.537 137.595C186.716 137.835 186.811 138.108 186.821 138.414H186.112ZM189.349 143.059C189.062 143.059 188.801 143.004 188.566 142.896C188.332 142.786 188.146 142.627 188.008 142.42C187.87 142.212 187.801 141.959 187.801 141.664C187.801 141.404 187.852 141.193 187.955 141.032C188.057 140.868 188.194 140.74 188.365 140.647C188.537 140.555 188.726 140.486 188.933 140.441C189.141 140.393 189.351 140.356 189.562 140.328C189.838 140.293 190.061 140.266 190.233 140.249C190.406 140.229 190.532 140.196 190.611 140.151C190.692 140.106 190.732 140.027 190.732 139.915V139.891C190.732 139.6 190.652 139.373 190.493 139.211C190.335 139.05 190.096 138.969 189.775 138.969C189.442 138.969 189.181 139.042 188.992 139.188C188.803 139.334 188.67 139.489 188.593 139.655L187.931 139.418C188.049 139.142 188.207 138.928 188.404 138.774C188.603 138.619 188.819 138.51 189.054 138.449C189.29 138.386 189.523 138.355 189.751 138.355C189.897 138.355 190.064 138.372 190.254 138.408C190.445 138.441 190.629 138.511 190.806 138.618C190.985 138.724 191.134 138.884 191.252 139.099C191.37 139.314 191.43 139.601 191.43 139.962V142.952H190.732V142.338H190.697C190.649 142.436 190.571 142.542 190.46 142.654C190.35 142.766 190.203 142.862 190.02 142.94C189.837 143.019 189.613 143.059 189.349 143.059ZM189.456 142.432C189.731 142.432 189.964 142.378 190.153 142.27C190.344 142.161 190.488 142.021 190.584 141.85C190.683 141.679 190.732 141.498 190.732 141.309V140.671C190.703 140.707 190.638 140.739 190.537 140.769C190.439 140.796 190.324 140.821 190.194 140.843C190.066 140.862 189.941 140.88 189.819 140.896C189.699 140.909 189.601 140.921 189.527 140.931C189.345 140.955 189.176 140.993 189.018 141.046C188.863 141.098 188.737 141.175 188.64 141.28C188.546 141.382 188.498 141.522 188.498 141.699C188.498 141.942 188.588 142.125 188.767 142.249C188.948 142.371 189.178 142.432 189.456 142.432ZM193.4 136.901V142.952H192.702V136.901H193.4ZM196.58 143.047C196.143 143.047 195.765 142.95 195.448 142.757C195.133 142.562 194.89 142.29 194.718 141.942C194.549 141.591 194.464 141.183 194.464 140.718C194.464 140.254 194.549 139.844 194.718 139.489C194.89 139.133 195.128 138.855 195.433 138.656C195.741 138.455 196.099 138.355 196.509 138.355C196.745 138.355 196.979 138.394 197.209 138.473C197.44 138.552 197.649 138.68 197.839 138.857C198.028 139.032 198.178 139.265 198.291 139.554C198.403 139.844 198.459 140.2 198.459 140.624V140.919H194.961V140.317H197.75C197.75 140.06 197.699 139.832 197.596 139.631C197.496 139.43 197.352 139.272 197.165 139.155C196.98 139.039 196.761 138.981 196.509 138.981C196.231 138.981 195.991 139.05 195.788 139.188C195.587 139.324 195.432 139.501 195.324 139.72C195.216 139.938 195.161 140.173 195.161 140.423V140.825C195.161 141.168 195.221 141.458 195.339 141.696C195.459 141.933 195.625 142.113 195.838 142.237C196.051 142.359 196.298 142.42 196.58 142.42C196.763 142.42 196.928 142.395 197.076 142.344C197.226 142.29 197.355 142.212 197.463 142.107C197.572 142.001 197.655 141.869 197.714 141.711L198.388 141.9C198.317 142.129 198.198 142.33 198.031 142.503C197.863 142.675 197.656 142.808 197.41 142.905C197.164 143 196.887 143.047 196.58 143.047ZM202.735 139.43L202.108 139.607C202.069 139.503 202.011 139.402 201.934 139.303C201.859 139.203 201.757 139.12 201.627 139.055C201.497 138.99 201.33 138.957 201.127 138.957C200.85 138.957 200.618 139.021 200.433 139.149C200.25 139.275 200.158 139.436 200.158 139.631C200.158 139.804 200.221 139.941 200.347 140.042C200.473 140.142 200.67 140.226 200.938 140.293L201.612 140.458C202.018 140.557 202.32 140.708 202.519 140.91C202.718 141.111 202.817 141.37 202.817 141.688C202.817 141.948 202.743 142.18 202.593 142.385C202.445 142.59 202.238 142.751 201.972 142.87C201.706 142.988 201.397 143.047 201.045 143.047C200.582 143.047 200.199 142.946 199.895 142.745C199.592 142.545 199.4 142.251 199.319 141.865L199.981 141.699C200.044 141.944 200.163 142.127 200.338 142.249C200.516 142.371 200.747 142.432 201.033 142.432C201.358 142.432 201.616 142.363 201.807 142.225C202 142.086 202.097 141.918 202.097 141.723C202.097 141.565 202.041 141.433 201.931 141.327C201.821 141.219 201.651 141.138 201.423 141.085L200.666 140.908C200.251 140.809 199.945 140.656 199.75 140.45C199.557 140.241 199.461 139.98 199.461 139.666C199.461 139.41 199.533 139.184 199.676 138.987C199.822 138.79 200.02 138.635 200.27 138.523C200.523 138.411 200.808 138.355 201.127 138.355C201.576 138.355 201.929 138.453 202.185 138.65C202.443 138.847 202.626 139.107 202.735 139.43Z" fill="#1E1B39"/>
<rect x="172.708" y="137.032" width="5.20052" height="5.20052" rx="2.60026" fill="#C893FD"/>
<path d="M287.661 127.587V120.023H288.145V127.587H287.661ZM289.292 122.292C289.257 121.993 289.113 121.76 288.861 121.595C288.608 121.429 288.299 121.347 287.933 121.347C287.665 121.347 287.43 121.39 287.229 121.477C287.031 121.563 286.875 121.682 286.763 121.834C286.652 121.986 286.597 122.158 286.597 122.351C286.597 122.513 286.636 122.652 286.712 122.768C286.791 122.882 286.892 122.978 287.014 123.054C287.136 123.129 287.264 123.191 287.398 123.241C287.532 123.288 287.655 123.326 287.767 123.356L288.382 123.521C288.539 123.563 288.715 123.62 288.908 123.693C289.103 123.766 289.289 123.865 289.466 123.991C289.646 124.115 289.793 124.275 289.91 124.47C290.026 124.665 290.084 124.904 290.084 125.188C290.084 125.515 289.998 125.81 289.827 126.074C289.657 126.338 289.409 126.548 289.082 126.704C288.757 126.859 288.362 126.937 287.897 126.937C287.464 126.937 287.089 126.867 286.771 126.727C286.456 126.587 286.208 126.392 286.027 126.142C285.848 125.892 285.746 125.601 285.723 125.271H286.479C286.499 125.499 286.575 125.688 286.709 125.838C286.845 125.986 287.017 126.096 287.224 126.169C287.432 126.24 287.657 126.275 287.897 126.275C288.177 126.275 288.428 126.23 288.651 126.139C288.873 126.047 289.05 125.919 289.18 125.755C289.31 125.59 289.375 125.397 289.375 125.176C289.375 124.975 289.319 124.812 289.206 124.685C289.094 124.559 288.946 124.457 288.763 124.378C288.58 124.299 288.382 124.23 288.169 124.171L287.425 123.959C286.952 123.823 286.577 123.629 286.302 123.376C286.026 123.124 285.888 122.794 285.888 122.387C285.888 122.048 285.98 121.752 286.163 121.5C286.348 121.246 286.596 121.049 286.907 120.909C287.221 120.767 287.57 120.696 287.956 120.696C288.346 120.696 288.693 120.766 288.996 120.906C289.3 121.044 289.54 121.233 289.717 121.474C289.897 121.714 289.991 121.987 290.001 122.292H289.292ZM291.371 126.831L294.078 121.477V121.429H290.958V120.779H294.835V121.465L292.14 126.831H291.371ZM295.948 126.003L295.9 126.322C295.867 126.547 295.816 126.787 295.747 127.043C295.68 127.3 295.61 127.541 295.537 127.767C295.464 127.994 295.404 128.174 295.357 128.308H294.825C294.851 128.182 294.884 128.016 294.925 127.809C294.967 127.602 295.008 127.37 295.049 127.114C295.093 126.86 295.128 126.6 295.156 126.334L295.191 126.003H295.948ZM297.228 126.831V126.299L299.225 124.112C299.46 123.856 299.653 123.634 299.805 123.444C299.956 123.253 300.069 123.074 300.141 122.907C300.216 122.737 300.254 122.56 300.254 122.375C300.254 122.162 300.202 121.978 300.1 121.822C300 121.667 299.862 121.546 299.686 121.462C299.511 121.377 299.314 121.335 299.095 121.335C298.863 121.335 298.66 121.383 298.487 121.479C298.315 121.574 298.182 121.707 298.088 121.878C297.995 122.05 297.949 122.251 297.949 122.481H297.252C297.252 122.127 297.333 121.815 297.497 121.547C297.66 121.28 297.883 121.071 298.165 120.921C298.448 120.771 298.766 120.696 299.119 120.696C299.474 120.696 299.788 120.771 300.062 120.921C300.335 121.071 300.55 121.273 300.706 121.527C300.861 121.781 300.939 122.064 300.939 122.375C300.939 122.597 300.899 122.815 300.818 123.028C300.739 123.239 300.601 123.474 300.404 123.734C300.209 123.992 299.939 124.307 299.592 124.68L298.233 126.133V126.181H301.046V126.831H297.228ZM304.393 120.779V126.831H303.661V121.547H303.625L302.148 122.528V121.784L303.661 120.779H304.393ZM308.179 126.913C307.789 126.913 307.441 126.846 307.136 126.712C306.832 126.579 306.591 126.392 306.412 126.154C306.234 125.914 306.138 125.635 306.122 125.318H306.867C306.882 125.513 306.949 125.681 307.068 125.823C307.186 125.963 307.34 126.071 307.531 126.148C307.723 126.225 307.934 126.263 308.167 126.263C308.427 126.263 308.657 126.218 308.858 126.127C309.059 126.037 309.217 125.911 309.331 125.749C309.445 125.588 309.502 125.401 309.502 125.188C309.502 124.965 309.447 124.769 309.337 124.6C309.227 124.428 309.065 124.294 308.852 124.198C308.64 124.101 308.379 124.053 308.072 124.053H307.588V123.403H308.072C308.313 123.403 308.523 123.36 308.705 123.273C308.888 123.186 309.031 123.064 309.133 122.907C309.237 122.749 309.29 122.564 309.29 122.351C309.29 122.146 309.244 121.968 309.154 121.816C309.063 121.665 308.935 121.546 308.77 121.462C308.606 121.377 308.413 121.335 308.19 121.335C307.982 121.335 307.785 121.373 307.599 121.45C307.416 121.525 307.267 121.634 307.15 121.778C307.034 121.92 306.971 122.091 306.961 122.292H306.252C306.264 121.975 306.359 121.697 306.539 121.459C306.718 121.218 306.952 121.031 307.242 120.897C307.533 120.763 307.854 120.696 308.202 120.696C308.576 120.696 308.898 120.772 309.165 120.924C309.433 121.074 309.639 121.272 309.783 121.518C309.927 121.764 309.999 122.03 309.999 122.316C309.999 122.656 309.909 122.947 309.73 123.187C309.553 123.428 309.311 123.594 309.006 123.687V123.734C309.388 123.797 309.687 123.96 309.901 124.222C310.116 124.482 310.223 124.804 310.223 125.188C310.223 125.517 310.134 125.812 309.954 126.074C309.777 126.334 309.535 126.539 309.228 126.689C308.92 126.839 308.571 126.913 308.179 126.913Z" fill="#9291A5"/>
<path d="M183.05 120.259L184.847 125.353H184.918L186.714 120.259H187.483L185.261 126.311H184.504L182.282 120.259H183.05ZM188.331 126.311V121.772H189.028V126.311H188.331ZM188.685 121.016C188.549 121.016 188.432 120.969 188.334 120.877C188.237 120.784 188.189 120.673 188.189 120.543C188.189 120.413 188.237 120.302 188.334 120.209C188.432 120.116 188.549 120.07 188.685 120.07C188.821 120.07 188.937 120.116 189.034 120.209C189.132 120.302 189.182 120.413 189.182 120.543C189.182 120.673 189.132 120.784 189.034 120.877C188.937 120.969 188.821 121.016 188.685 121.016ZM192.208 126.405C191.771 126.405 191.394 126.309 191.076 126.116C190.761 125.921 190.518 125.649 190.347 125.3C190.177 124.949 190.092 124.542 190.092 124.077C190.092 123.612 190.177 123.202 190.347 122.848C190.518 122.491 190.756 122.213 191.062 122.014C191.369 121.813 191.727 121.713 192.137 121.713C192.374 121.713 192.607 121.752 192.838 121.831C193.068 121.91 193.278 122.038 193.467 122.215C193.656 122.391 193.807 122.623 193.919 122.913C194.031 123.202 194.087 123.559 194.087 123.982V124.278H190.589V123.675H193.378C193.378 123.419 193.327 123.19 193.225 122.989C193.124 122.788 192.98 122.63 192.793 122.514C192.608 122.397 192.389 122.339 192.137 122.339C191.859 122.339 191.619 122.408 191.416 122.546C191.215 122.682 191.061 122.859 190.952 123.078C190.844 123.297 190.79 123.531 190.79 123.781V124.183C190.79 124.526 190.849 124.817 190.967 125.055C191.087 125.291 191.254 125.471 191.466 125.596C191.679 125.718 191.926 125.779 192.208 125.779C192.391 125.779 192.557 125.753 192.705 125.702C192.854 125.649 192.983 125.57 193.092 125.466C193.2 125.359 193.284 125.227 193.343 125.07L194.016 125.259C193.946 125.487 193.826 125.688 193.659 125.862C193.492 126.033 193.285 126.167 193.038 126.263C192.792 126.358 192.515 126.405 192.208 126.405ZM196.176 126.311L194.794 121.772H195.526L196.507 125.247H196.555L197.524 121.772H198.269L199.226 125.235H199.273L200.254 121.772H200.987L199.604 126.311H198.919L197.926 122.824H197.855L196.862 126.311H196.176ZM205.124 122.788L204.497 122.966C204.458 122.861 204.4 122.76 204.323 122.661C204.248 122.561 204.146 122.478 204.016 122.413C203.886 122.348 203.719 122.316 203.516 122.316C203.239 122.316 203.007 122.38 202.822 122.508C202.639 122.634 202.547 122.794 202.547 122.989C202.547 123.163 202.61 123.3 202.736 123.4C202.862 123.501 203.059 123.584 203.327 123.651L204.001 123.817C204.407 123.915 204.709 124.066 204.908 124.269C205.107 124.47 205.206 124.729 205.206 125.046C205.206 125.306 205.132 125.538 204.982 125.743C204.834 125.948 204.627 126.11 204.361 126.228C204.095 126.346 203.786 126.405 203.434 126.405C202.971 126.405 202.587 126.305 202.284 126.104C201.981 125.903 201.789 125.609 201.708 125.223L202.37 125.058C202.433 125.302 202.552 125.485 202.727 125.607C202.905 125.73 203.136 125.791 203.422 125.791C203.747 125.791 204.005 125.722 204.196 125.584C204.389 125.444 204.485 125.276 204.485 125.081C204.485 124.924 204.43 124.792 204.32 124.686C204.21 124.577 204.04 124.496 203.812 124.443L203.055 124.266C202.64 124.167 202.334 124.015 202.139 123.808C201.946 123.599 201.85 123.338 201.85 123.025C201.85 122.769 201.922 122.542 202.065 122.345C202.211 122.148 202.409 121.994 202.659 121.881C202.912 121.769 203.197 121.713 203.516 121.713C203.965 121.713 204.318 121.811 204.574 122.008C204.832 122.205 205.015 122.465 205.124 122.788Z" fill="#1E1B39"/>
<rect x="172.708" y="120.437" width="5.20052" height="5.20052" rx="2.60026" fill="#4A3AFF"/>
<rect x="245.696" y="64.4042" width="4.36464" height="7.19297" rx="2.18232" fill="#C893FD"/>
<rect x="245.696" y="76.0726" width="4.36464" height="26.6364" rx="2.18232" fill="#4A3AFF"/>
<rect x="257.838" y="73.4561" width="4.36464" height="8.89015" rx="2.18232" fill="#C893FD"/>
<rect x="257.837" y="85.7404" width="4.36464" height="16.9685" rx="2.18232" fill="#4A3AFF"/>
<rect x="269.979" y="62.7638" width="4.36464" height="8.89015" rx="2.18232" fill="#C893FD"/>
<rect x="269.979" y="74.7489" width="4.36464" height="27.9599" rx="2.18232" fill="#4A3AFF"/>
<rect x="282.12" y="55.0052" width="4.36464" height="2.69077" rx="1.34539" fill="#C893FD"/>
<rect x="282.12" y="60.929" width="4.36464" height="41.78" rx="2.18232" fill="#4A3AFF"/>
<rect x="294.261" y="62.2219" width="4.36464" height="4.36421" rx="2.18211" fill="#C893FD"/>
<rect x="294.262" y="69.2534" width="4.36464" height="33.4556" rx="2.18232" fill="#4A3AFF"/>
<rect x="306.403" y="72.3647" width="4.36464" height="7.91676" rx="2.18232" fill="#C893FD"/>
<rect x="306.403" y="84.1599" width="4.36464" height="18.5491" rx="2.18232" fill="#4A3AFF"/>
<rect x="233.555" y="57.6959" width="4.36464" height="24.65" rx="2.18232" fill="#C893FD"/>
<rect x="233.556" y="85.7404" width="4.36464" height="16.9685" rx="2.18232" fill="#4A3AFF"/>
<rect x="221.414" y="64.4042" width="4.36464" height="24.65" rx="2.18232" fill="#C893FD"/>
<rect x="221.414" y="93.014" width="4.36464" height="9.69473" rx="2.18232" fill="#4A3AFF"/>
<rect x="209.273" y="58.181" width="4.36464" height="25.054" rx="2.18232" fill="#C893FD"/>
<rect x="209.273" y="86.9269" width="4.36464" height="15.7821" rx="2.18232" fill="#4A3AFF"/>
<rect x="197.132" y="68.5579" width="4.36464" height="10.3809" rx="2.18232" fill="#C893FD"/>
<rect x="197.131" y="81.7676" width="4.36464" height="20.9413" rx="2.18232" fill="#4A3AFF"/>
<rect x="184.99" y="62.7638" width="4.36464" height="8.08727" rx="2.18232" fill="#C893FD"/>
<rect x="184.99" y="73.9795" width="4.36464" height="28.7293" rx="2.18232" fill="#4A3AFF"/>
<rect x="172.849" y="76.0726" width="4.36464" height="8.08727" rx="2.18232" fill="#C893FD"/>
<rect x="172.849" y="86.9269" width="4.36464" height="15.7821" rx="2.18232" fill="#4A3AFF"/>
<path d="M176.178 42.0828V31.6818H176.845V42.0828H176.178ZM177.946 35.1149C177.913 34.7872 177.774 34.5326 177.527 34.3511C177.281 34.1696 176.946 34.0789 176.524 34.0789C176.236 34.0789 175.994 34.1195 175.796 34.2008C175.599 34.2793 175.447 34.389 175.341 34.5299C175.238 34.6707 175.187 34.8305 175.187 35.0093C175.181 35.1583 175.213 35.2883 175.28 35.3993C175.351 35.5104 175.447 35.6066 175.569 35.6878C175.691 35.7664 175.832 35.8354 175.991 35.895C176.151 35.9519 176.322 36.0007 176.503 36.0413L177.251 36.2201C177.614 36.3013 177.947 36.4097 178.25 36.5451C178.554 36.6805 178.816 36.8471 179.039 37.0448C179.261 37.2426 179.433 37.4755 179.554 37.7436C179.679 38.0118 179.743 38.3192 179.745 38.6659C179.743 39.1751 179.613 39.6166 179.355 39.9904C179.101 40.3615 178.732 40.65 178.25 40.8558C177.771 41.059 177.193 41.1605 176.515 41.1605C175.844 41.1605 175.259 41.0576 174.76 40.8518C174.265 40.6459 173.877 40.3412 173.598 39.9376C173.322 39.5313 173.177 39.0289 173.164 38.4303H174.866C174.885 38.7093 174.965 38.9422 175.106 39.1291C175.249 39.3133 175.44 39.4528 175.678 39.5476C175.92 39.6397 176.192 39.6857 176.495 39.6857C176.793 39.6857 177.052 39.6424 177.271 39.5557C177.493 39.469 177.665 39.3485 177.787 39.1941C177.909 39.0397 177.97 38.8623 177.97 38.6619C177.97 38.475 177.914 38.3179 177.803 38.1906C177.695 38.0633 177.535 37.9549 177.324 37.8655C177.115 37.7761 176.859 37.6949 176.556 37.6218L175.65 37.3942C174.949 37.2236 174.395 36.9568 173.988 36.5938C173.582 36.2309 173.38 35.742 173.383 35.1271C173.38 34.6233 173.514 34.1832 173.785 33.8067C174.059 33.4302 174.434 33.1363 174.911 32.925C175.387 32.7138 175.929 32.6081 176.536 32.6081C177.153 32.6081 177.692 32.7138 178.153 32.925C178.616 33.1363 178.976 33.4302 179.234 33.8067C179.491 34.1832 179.624 34.6193 179.632 35.1149H177.946ZM184.5 32.7219V41.0427H182.741V34.3917H182.692L180.787 35.5862V34.0261L182.846 32.7219H184.5ZM186.478 41.0427V39.7751L189.44 37.0326C189.691 36.7889 189.903 36.5695 190.073 36.3744C190.247 36.1794 190.378 35.9885 190.467 35.8016C190.557 35.612 190.602 35.4075 190.602 35.1881C190.602 34.9443 190.546 34.7344 190.435 34.5583C190.324 34.3796 190.172 34.2428 189.98 34.148C189.788 34.0505 189.57 34.0017 189.326 34.0017C189.071 34.0017 188.849 34.0532 188.659 34.1561C188.47 34.259 188.324 34.4066 188.221 34.599C188.118 34.7913 188.066 35.0201 188.066 35.2856H186.396C186.396 34.7412 186.52 34.2685 186.766 33.8676C187.013 33.4668 187.358 33.1566 187.802 32.9372C188.246 32.7178 188.758 32.6081 189.338 32.6081C189.934 32.6081 190.453 32.7138 190.894 32.925C191.338 33.1336 191.684 33.4234 191.93 33.7945C192.177 34.1656 192.3 34.5908 192.3 35.0703C192.3 35.3845 192.238 35.6946 192.113 36.0007C191.991 36.3067 191.773 36.6467 191.459 37.0204C191.145 37.3915 190.702 37.8371 190.13 38.3571L188.915 39.5476V39.6045H192.41V41.0427H186.478ZM195.582 39.9051L195.537 40.352C195.502 40.7096 195.434 41.0657 195.334 41.4206C195.236 41.7781 195.133 42.1018 195.025 42.3916C194.919 42.6814 194.834 42.909 194.769 43.0742H193.648C193.688 42.9144 193.744 42.6909 193.814 42.4038C193.885 42.1194 193.951 41.7998 194.013 41.445C194.076 41.0901 194.115 40.7285 194.131 40.3602L194.151 39.9051H195.582ZM199.917 41.1565C199.291 41.1565 198.734 41.0549 198.247 40.8518C197.762 40.6459 197.382 40.3656 197.105 40.0107C196.829 39.6559 196.691 39.2537 196.691 38.8041C196.691 38.4574 196.769 38.1391 196.926 37.8493C197.086 37.5568 197.303 37.3143 197.577 37.122C197.85 36.927 198.156 36.8024 198.495 36.7482V36.6914C198.051 36.602 197.69 36.3866 197.414 36.0454C197.138 35.7014 197 35.3018 197 34.8468C197 34.4161 197.126 34.0329 197.377 33.697C197.629 33.3584 197.975 33.093 198.413 32.9007C198.855 32.7056 199.356 32.6081 199.917 32.6081C200.477 32.6081 200.977 32.7056 201.416 32.9007C201.857 33.0957 202.204 33.3625 202.456 33.7011C202.708 34.0369 202.835 34.4188 202.838 34.8468C202.835 35.3045 202.694 35.7041 202.415 36.0454C202.136 36.3866 201.779 36.602 201.343 36.6914V36.7482C201.676 36.8024 201.978 36.927 202.249 37.122C202.522 37.3143 202.739 37.5568 202.899 37.8493C203.061 38.1391 203.144 38.4574 203.147 38.8041C203.144 39.2537 203.005 39.6559 202.728 40.0107C202.452 40.3656 202.07 40.6459 201.583 40.8518C201.098 41.0549 200.542 41.1565 199.917 41.1565ZM199.917 39.8645C200.196 39.8645 200.44 39.8144 200.648 39.7142C200.857 39.6112 201.019 39.4704 201.136 39.2916C201.255 39.1101 201.314 38.9016 201.314 38.6659C201.314 38.4249 201.253 38.2122 201.132 38.028C201.01 37.8412 200.844 37.6949 200.636 37.5893C200.427 37.4809 200.188 37.4267 199.917 37.4267C199.649 37.4267 199.409 37.4809 199.198 37.5893C198.986 37.6949 198.82 37.8412 198.698 38.028C198.579 38.2122 198.519 38.4249 198.519 38.6659C198.519 38.9016 198.577 39.1101 198.694 39.2916C198.81 39.4704 198.974 39.6112 199.185 39.7142C199.397 39.8144 199.64 39.8645 199.917 39.8645ZM199.917 36.1469C200.15 36.1469 200.357 36.0995 200.538 36.0047C200.72 35.9099 200.862 35.7786 200.965 35.6106C201.068 35.4427 201.119 35.249 201.119 35.0296C201.119 34.8129 201.068 34.6233 200.965 34.4608C200.862 34.2956 200.721 34.1669 200.542 34.0748C200.364 33.98 200.155 33.9326 199.917 33.9326C199.681 33.9326 199.473 33.98 199.291 34.0748C199.11 34.1669 198.967 34.2956 198.864 34.4608C198.764 34.6233 198.714 34.8129 198.714 35.0296C198.714 35.249 198.766 35.4427 198.869 35.6106C198.971 35.7786 199.114 35.9099 199.295 36.0047C199.477 36.0995 199.684 36.1469 199.917 36.1469ZM204.706 41.0427L208.155 34.217V34.1602H204.137V32.7219H209.975V34.1805L206.522 41.0427H204.706ZM214.108 41.1565C213.534 41.1565 213.022 41.0509 212.573 40.8396C212.126 40.6283 211.771 40.3371 211.508 39.9661C211.245 39.595 211.109 39.1697 211.098 38.6903H212.804C212.823 39.0126 212.959 39.274 213.211 39.4744C213.462 39.6749 213.762 39.7751 214.108 39.7751C214.385 39.7751 214.629 39.7142 214.84 39.5923C215.054 39.4677 215.22 39.2957 215.34 39.0763C215.461 38.8542 215.522 38.5996 215.522 38.3125C215.522 38.0199 215.46 37.7626 215.335 37.5405C215.214 37.3184 215.044 37.145 214.828 37.0204C214.611 36.8959 214.363 36.8322 214.084 36.8295C213.84 36.8295 213.603 36.8796 213.373 36.9798C213.146 37.08 212.968 37.2168 212.841 37.3902L211.277 37.1098L211.671 32.7219H216.757V34.1602H213.121L212.906 36.2444H212.955C213.101 36.0386 213.322 35.8679 213.617 35.7325C213.912 35.5971 214.243 35.5294 214.608 35.5294C215.109 35.5294 215.556 35.6472 215.949 35.8828C216.342 36.1185 216.652 36.4422 216.879 36.8539C217.107 37.2629 217.219 37.7342 217.217 38.2678C217.219 38.8284 217.089 39.3268 216.827 39.7629C216.567 40.1963 216.202 40.5376 215.734 40.7868C215.268 41.0332 214.726 41.1565 214.108 41.1565Z" fill="#1E1B39"/>
<path d="M173.49 26.6417V21.3467H175.279C175.693 21.3467 176.033 21.4173 176.298 21.5587C176.564 21.6983 176.76 21.8905 176.888 22.1352C177.015 22.38 177.079 22.6584 177.079 22.9703C177.079 23.2823 177.015 23.559 176.888 23.8003C176.76 24.0416 176.564 24.2312 176.301 24.3691C176.037 24.5053 175.7 24.5733 175.29 24.5733H173.842V23.9942H175.269C175.552 23.9942 175.779 23.9528 175.952 23.8701C176.126 23.7873 176.252 23.6701 176.329 23.5185C176.408 23.3651 176.448 23.1823 176.448 22.9703C176.448 22.7583 176.408 22.573 176.329 22.4145C176.25 22.2559 176.123 22.1335 175.949 22.0473C175.775 21.9594 175.545 21.9155 175.259 21.9155H174.132V26.6417H173.49ZM175.983 24.2631L177.286 26.6417H176.541L175.259 24.2631H175.983ZM179.687 26.7245C179.304 26.7245 178.974 26.64 178.697 26.4711C178.421 26.3004 178.208 26.0626 178.058 25.7575C177.91 25.4507 177.836 25.0939 177.836 24.6871C177.836 24.2803 177.91 23.9218 178.058 23.6115C178.208 23.2996 178.417 23.0565 178.684 22.8824C178.953 22.7066 179.267 22.6187 179.625 22.6187C179.832 22.6187 180.036 22.6532 180.238 22.7221C180.439 22.7911 180.623 22.9031 180.788 23.0582C180.954 23.2116 181.086 23.415 181.184 23.6684C181.282 23.9218 181.331 24.2338 181.331 24.6044V24.8629H178.27V24.3355H180.711C180.711 24.1114 180.666 23.9115 180.576 23.7356C180.489 23.5598 180.363 23.4211 180.199 23.3194C180.037 23.2177 179.846 23.1668 179.625 23.1668C179.382 23.1668 179.172 23.2272 178.994 23.3478C178.818 23.4667 178.683 23.6219 178.588 23.8132C178.493 24.0045 178.446 24.2096 178.446 24.4285V24.7802C178.446 25.0801 178.498 25.3343 178.601 25.5429C178.706 25.7497 178.852 25.9074 179.038 26.016C179.224 26.1229 179.441 26.1763 179.687 26.1763C179.847 26.1763 179.992 26.1539 180.121 26.1091C180.252 26.0626 180.365 25.9936 180.46 25.9023C180.555 25.8092 180.628 25.6937 180.68 25.5558L181.269 25.7213C181.207 25.9212 181.103 26.097 180.957 26.2487C180.81 26.3987 180.629 26.5159 180.414 26.6004C180.198 26.6831 179.956 26.7245 179.687 26.7245ZM185.386 22.6704L183.918 26.6417H183.297L181.829 22.6704H182.49L183.587 25.8351H183.628L184.724 22.6704H185.386ZM187.714 26.7245C187.332 26.7245 187.002 26.64 186.724 26.4711C186.448 26.3004 186.235 26.0626 186.086 25.7575C185.937 25.4507 185.863 25.0939 185.863 24.6871C185.863 24.2803 185.937 23.9218 186.086 23.6115C186.235 23.2996 186.444 23.0565 186.711 22.8824C186.98 22.7066 187.294 22.6187 187.652 22.6187C187.859 22.6187 188.063 22.6532 188.265 22.7221C188.467 22.7911 188.65 22.9031 188.816 23.0582C188.981 23.2116 189.113 23.415 189.211 23.6684C189.31 23.9218 189.359 24.2338 189.359 24.6044V24.8629H186.298V24.3355H188.738C188.738 24.1114 188.693 23.9115 188.604 23.7356C188.516 23.5598 188.39 23.4211 188.226 23.3194C188.064 23.2177 187.873 23.1668 187.652 23.1668C187.409 23.1668 187.199 23.2272 187.021 23.3478C186.846 23.4667 186.71 23.6219 186.616 23.8132C186.521 24.0045 186.473 24.2096 186.473 24.4285V24.7802C186.473 25.0801 186.525 25.3343 186.628 25.5429C186.734 25.7497 186.879 25.9074 187.065 26.016C187.252 26.1229 187.468 26.1763 187.714 26.1763C187.875 26.1763 188.019 26.1539 188.149 26.1091C188.28 26.0626 188.393 25.9936 188.487 25.9023C188.582 25.8092 188.655 25.6937 188.707 25.5558L189.297 25.7213C189.235 25.9212 189.13 26.097 188.984 26.2487C188.837 26.3987 188.656 26.5159 188.441 26.6004C188.225 26.6831 187.983 26.7245 187.714 26.7245ZM190.897 24.2527V26.6417H190.287V22.6704H190.876V23.2909H190.928C191.021 23.0893 191.163 22.9272 191.352 22.8049C191.542 22.6808 191.787 22.6187 192.086 22.6187C192.355 22.6187 192.591 22.6739 192.792 22.7842C192.994 22.8928 193.151 23.0582 193.263 23.2806C193.375 23.5012 193.431 23.7805 193.431 24.1183V26.6417H192.821V24.1597C192.821 23.8477 192.74 23.6046 192.578 23.4306C192.416 23.2547 192.193 23.1668 191.911 23.1668C191.716 23.1668 191.542 23.2091 191.388 23.2935C191.237 23.378 191.117 23.5012 191.029 23.6632C190.941 23.8253 190.897 24.0218 190.897 24.2527ZM197.049 25.018V22.6704H197.659V26.6417H197.049V25.9695H197.007C196.914 26.1712 196.769 26.3427 196.573 26.484C196.376 26.6236 196.128 26.6934 195.828 26.6934C195.58 26.6934 195.359 26.6391 195.166 26.5305C194.973 26.4202 194.822 26.2548 194.711 26.0341C194.601 25.8118 194.546 25.5317 194.546 25.1939V22.6704H195.156V25.1525C195.156 25.4421 195.237 25.673 195.399 25.8454C195.563 26.0178 195.771 26.1039 196.025 26.1039C196.176 26.1039 196.331 26.0652 196.488 25.9876C196.646 25.91 196.779 25.7911 196.886 25.6308C196.994 25.4705 197.049 25.2662 197.049 25.018ZM200.441 26.7245C200.059 26.7245 199.729 26.64 199.451 26.4711C199.175 26.3004 198.963 26.0626 198.813 25.7575C198.664 25.4507 198.59 25.0939 198.59 24.6871C198.59 24.2803 198.664 23.9218 198.813 23.6115C198.963 23.2996 199.171 23.0565 199.438 22.8824C199.707 22.7066 200.021 22.6187 200.379 22.6187C200.586 22.6187 200.79 22.6532 200.992 22.7221C201.194 22.7911 201.377 22.9031 201.543 23.0582C201.708 23.2116 201.84 23.415 201.938 23.6684C202.037 23.9218 202.086 24.2338 202.086 24.6044V24.8629H199.025V24.3355H201.465C201.465 24.1114 201.42 23.9115 201.331 23.7356C201.243 23.5598 201.117 23.4211 200.953 23.3194C200.791 23.2177 200.6 23.1668 200.379 23.1668C200.136 23.1668 199.926 23.2272 199.749 23.3478C199.573 23.4667 199.437 23.6219 199.343 23.8132C199.248 24.0045 199.2 24.2096 199.2 24.4285V24.7802C199.2 25.0801 199.252 25.3343 199.356 25.5429C199.461 25.7497 199.606 25.9074 199.792 26.016C199.979 26.1229 200.195 26.1763 200.441 26.1763C200.602 26.1763 200.747 26.1539 200.876 26.1091C201.007 26.0626 201.12 25.9936 201.214 25.9023C201.309 25.8092 201.383 25.6937 201.434 25.5558L202.024 25.7213C201.962 25.9212 201.857 26.097 201.711 26.2487C201.564 26.3987 201.383 26.5159 201.168 26.6004C200.952 26.6831 200.71 26.7245 200.441 26.7245Z" fill="#9291A5"/>
<rect x="174.671" y="154" width="147" height="38" rx="12" transform="rotate(2.52007 174.671 154)" fill="#6C78FF"/>
<path d="M186.837 175.098L184.109 169.659L185.824 169.734L187.41 173C187.511 173.2 187.607 173.42 187.698 173.658C187.706 173.643 187.747 173.563 187.82 173.417C187.897 173.268 187.969 173.138 188.037 173.028L189.892 169.913L191.555 169.986L188.371 175.166L188.219 178.62L186.685 178.552L186.837 175.098ZM191.365 178.031C190.797 177.423 190.534 176.661 190.574 175.744C190.614 174.827 190.944 174.092 191.562 173.541C192.181 172.986 192.951 172.728 193.872 172.769C194.793 172.809 195.537 173.133 196.105 173.741C196.676 174.345 196.942 175.105 196.902 176.022C196.861 176.939 196.53 177.675 195.907 178.231C195.288 178.786 194.519 179.043 193.598 179.003C192.677 178.962 191.932 178.638 191.365 178.031ZM192.563 174.523C192.232 174.841 192.055 175.269 192.031 175.808C192.008 176.346 192.147 176.79 192.448 177.14C192.749 177.486 193.152 177.67 193.655 177.692C194.159 177.714 194.576 177.566 194.906 177.248C195.237 176.926 195.415 176.496 195.438 175.958C195.462 175.419 195.323 174.977 195.022 174.632C194.72 174.282 194.318 174.096 193.814 174.074C193.311 174.052 192.894 174.202 192.563 174.523ZM202.054 173.293L203.517 173.357L203.257 179.281L201.905 179.222L201.828 178.427C201.636 178.7 201.359 178.916 200.996 179.076C200.637 179.236 200.261 179.308 199.866 179.291C199.191 179.261 198.67 179.025 198.302 178.582C197.939 178.136 197.773 177.548 197.805 176.819L197.968 173.113L199.432 173.178L199.291 176.368C199.267 176.918 199.355 177.325 199.554 177.588C199.754 177.847 200.063 177.985 200.48 178.004C200.945 178.024 201.294 177.905 201.528 177.645C201.763 177.382 201.892 176.967 201.917 176.401L202.054 173.293ZM207.877 182.235L208.259 173.566L209.611 173.626L209.671 174.531C209.862 174.2 210.142 173.948 210.514 173.777C210.885 173.602 211.299 173.524 211.756 173.544C212.591 173.581 213.248 173.889 213.727 174.47C214.209 175.05 214.43 175.804 214.389 176.733C214.348 177.678 214.068 178.436 213.55 179.007C213.033 179.575 212.343 179.84 211.48 179.802C211.031 179.782 210.631 179.68 210.279 179.497C209.928 179.313 209.667 179.069 209.496 178.764L209.341 182.3L207.877 182.235ZM210.118 175.308C209.799 175.63 209.627 176.058 209.604 176.593C209.58 177.128 209.713 177.568 210.003 177.913C210.297 178.258 210.693 178.442 211.193 178.464C211.7 178.486 212.108 178.338 212.415 178.019C212.722 177.7 212.888 177.273 212.911 176.739C212.935 176.2 212.808 175.758 212.53 175.414C212.252 175.065 211.859 174.88 211.352 174.858C210.852 174.836 210.441 174.986 210.118 175.308ZM217.176 180.052C216.551 180.025 216.065 179.835 215.717 179.484C215.369 179.132 215.207 178.675 215.232 178.113C215.256 177.567 215.464 177.138 215.857 176.827C216.254 176.516 216.805 176.351 217.51 176.331L219.289 176.274L219.295 176.146C219.328 175.392 218.937 174.998 218.121 174.962C217.692 174.943 217.356 175.014 217.115 175.176C216.877 175.337 216.751 175.574 216.737 175.886L215.491 175.832C215.519 175.192 215.783 174.689 216.284 174.324C216.785 173.959 217.438 173.794 218.241 173.83C219.049 173.865 219.672 174.108 220.11 174.557C220.547 175.006 220.748 175.637 220.713 176.449L220.554 180.043L219.267 179.986L219.2 179.103C219.062 179.402 218.805 179.641 218.429 179.82C218.054 179.995 217.636 180.073 217.176 180.052ZM217.704 178.967C218.157 178.987 218.522 178.874 218.799 178.628C219.075 178.382 219.224 178.033 219.244 177.58L219.257 177.27L218.018 177.315C217.571 177.335 217.245 177.412 217.04 177.548C216.838 177.68 216.732 177.871 216.721 178.12C216.698 178.655 217.025 178.937 217.704 178.967ZM221.177 182.821L221.231 181.597L222.103 181.636C222.415 181.65 222.664 181.604 222.848 181.498C223.036 181.397 223.196 181.185 223.328 180.863L223.517 180.425L221.401 174.145L222.952 174.213L224.284 178.6L226.078 174.35L227.588 174.417L224.366 181.53C224.119 182.067 223.829 182.451 223.494 182.682C223.159 182.918 222.748 183.025 222.26 183.003C221.885 182.987 221.524 182.926 221.177 182.821ZM231.966 179.818C231.398 179.21 231.135 178.448 231.175 177.531C231.216 176.614 231.545 175.879 232.164 175.328C232.782 174.773 233.552 174.515 234.473 174.556C235.394 174.596 236.139 174.92 236.706 175.528C237.278 176.132 237.543 176.892 237.503 177.809C237.463 178.726 237.131 179.462 236.509 180.018C235.89 180.573 235.12 180.83 234.199 180.79C233.278 180.749 232.534 180.425 231.966 179.818ZM233.164 176.31C232.834 176.628 232.656 177.056 232.633 177.595C232.609 178.133 232.748 178.577 233.049 178.927C233.351 179.273 233.753 179.456 234.257 179.479C234.76 179.501 235.177 179.353 235.508 179.035C235.839 178.713 236.016 178.283 236.04 177.745C236.063 177.206 235.924 176.764 235.623 176.419C235.322 176.069 234.919 175.883 234.416 175.861C233.912 175.839 233.495 175.989 233.164 176.31ZM239.995 180.898L238.531 180.834L238.792 174.91L240.144 174.969L240.233 175.742C240.43 175.453 240.699 175.234 241.042 175.085C241.389 174.932 241.766 174.865 242.171 174.883C242.905 174.915 243.454 175.154 243.817 175.6C244.185 176.047 244.351 176.658 244.317 177.435L244.157 181.081L242.693 181.017L242.838 177.721C242.86 177.238 242.764 176.866 242.553 176.606C242.345 176.347 242.047 176.209 241.656 176.191C241.208 176.172 240.846 176.298 240.572 176.572C240.302 176.845 240.156 177.224 240.135 177.708L239.995 180.898ZM247.066 181.21L245.614 181.146L246.007 172.225L247.459 172.288L247.066 181.21ZM247.964 184L248.017 182.776L248.89 182.815C249.202 182.828 249.45 182.783 249.635 182.677C249.823 182.576 249.983 182.364 250.114 182.042L250.304 181.604L248.187 175.323L249.738 175.392L251.07 179.779L252.864 175.529L254.375 175.596L251.152 182.709C250.906 183.246 250.615 183.63 250.281 183.861C249.946 184.097 249.534 184.204 249.046 184.182C248.672 184.166 248.311 184.105 247.964 184ZM257.852 175.749L258.7 175.786L258.732 175.066C258.766 174.293 258.979 173.73 259.37 173.376C259.765 173.018 260.298 172.854 260.969 172.883C261.242 172.895 261.493 172.928 261.721 172.981L261.666 174.228L261.151 174.205C260.8 174.189 260.554 174.261 260.415 174.419C260.275 174.573 260.198 174.81 260.184 175.13L260.152 175.85L261.569 175.912L261.515 177.136L260.098 177.073L259.891 181.774L258.44 181.71L258.647 177.01L257.798 176.972L257.852 175.749ZM262.628 181.167C262.06 180.56 261.797 179.797 261.837 178.88C261.877 177.963 262.207 177.229 262.825 176.677C263.444 176.122 264.214 175.865 265.135 175.905C266.056 175.946 266.8 176.27 267.368 176.877C267.939 177.481 268.205 178.242 268.165 179.159C268.124 180.076 267.793 180.812 267.17 181.367C266.551 181.922 265.782 182.18 264.861 182.139C263.94 182.099 263.195 181.775 262.628 181.167ZM263.826 177.66C263.495 177.978 263.318 178.406 263.294 178.944C263.271 179.483 263.41 179.927 263.711 180.276C264.012 180.622 264.415 180.806 264.918 180.828C265.422 180.85 265.839 180.702 266.169 180.385C266.5 180.063 266.678 179.633 266.701 179.094C266.725 178.556 266.586 178.114 266.285 177.768C265.983 177.418 265.581 177.233 265.078 177.21C264.574 177.188 264.157 177.338 263.826 177.66ZM273.172 176.4L273.112 177.758L272.573 177.734C272.035 177.71 271.607 177.836 271.29 178.111C270.977 178.383 270.808 178.802 270.783 179.368L270.656 182.248L269.193 182.183L269.453 176.271L270.835 176.332L270.878 177.202C271.02 176.907 271.234 176.678 271.519 176.515C271.804 176.347 272.139 176.272 272.526 176.289C272.736 176.298 272.952 176.335 273.172 176.4ZM278.811 182.607L276.718 176.579L278.281 176.648L279.192 179.415C279.444 180.244 279.596 180.8 279.646 181.083C279.739 180.736 279.947 180.195 280.269 179.463L281.465 176.788L282.976 176.855L280.251 182.67L278.811 182.607ZM284.602 175.741C284.353 175.73 284.144 175.635 283.976 175.456C283.808 175.272 283.729 175.058 283.74 174.812C283.751 174.566 283.846 174.363 284.025 174.203C284.208 174.039 284.427 173.962 284.68 173.974C284.922 173.984 285.123 174.079 285.284 174.258C285.448 174.434 285.525 174.644 285.514 174.89C285.503 175.136 285.408 175.343 285.228 175.511C285.053 175.675 284.844 175.752 284.602 175.741ZM283.558 182.816L283.819 176.892L285.282 176.956L285.021 182.88L283.558 182.816ZM289.176 183.221C288.294 183.182 287.587 182.86 287.055 182.254C286.522 181.648 286.276 180.886 286.317 179.969C286.357 179.041 286.664 178.297 287.236 177.74C287.808 177.183 288.529 176.923 289.399 176.961C290.285 177 290.977 177.306 291.476 177.88C291.979 178.449 292.21 179.196 292.169 180.121L292.15 180.56L287.688 180.382C287.748 181.432 288.269 181.979 289.253 182.022C289.651 182.04 289.982 181.978 290.246 181.837C290.51 181.696 290.692 181.487 290.79 181.21L292.142 181.27C291.989 181.912 291.648 182.407 291.121 182.755C290.597 183.1 289.949 183.255 289.176 183.221ZM289.358 178.156C288.929 178.137 288.579 178.237 288.307 178.456C288.039 178.675 287.859 179.005 287.765 179.447L290.739 179.577C290.757 179.168 290.64 178.834 290.39 178.577C290.139 178.315 289.795 178.175 289.358 178.156ZM294.253 183.286L292.599 177.278L294.121 177.345L294.788 179.92C294.894 180.359 294.99 180.877 295.077 181.475C295.179 181.03 295.338 180.523 295.555 179.954L296.48 177.449L297.967 177.514L298.646 180.09C298.811 180.769 298.917 181.284 298.965 181.634C299.064 181.244 299.217 180.74 299.424 180.124L300.332 177.618L301.877 177.686L299.568 183.52L298.198 183.46L297.497 180.86C297.306 180.132 297.19 179.578 297.148 179.197C297.068 179.506 296.888 180.055 296.606 180.844L295.681 183.349L294.253 183.286ZM301.983 181.826L303.376 181.887C303.372 182.149 303.459 182.358 303.636 182.515C303.816 182.671 304.073 182.757 304.404 182.771C304.744 182.786 305.006 182.735 305.191 182.618C305.38 182.497 305.479 182.328 305.489 182.109C305.496 181.949 305.451 181.816 305.354 181.71C305.257 181.601 305.085 181.513 304.838 181.447L303.778 181.148C303.245 181.004 302.855 180.791 302.609 180.51C302.364 180.23 302.251 179.855 302.272 179.387C302.297 178.813 302.533 178.37 302.981 178.058C303.433 177.745 304.006 177.604 304.701 177.635C305.368 177.664 305.899 177.863 306.293 178.233C306.691 178.602 306.88 179.074 306.858 179.648L305.471 179.587C305.474 179.333 305.397 179.128 305.24 178.972C305.087 178.817 304.871 178.733 304.594 178.721C304.309 178.708 304.082 178.761 303.913 178.879C303.747 178.996 303.66 179.167 303.65 179.389C303.636 179.713 303.883 179.947 304.393 180.09L305.448 180.389C305.954 180.529 306.322 180.731 306.553 180.995C306.788 181.255 306.895 181.608 306.876 182.053C306.85 182.646 306.601 183.108 306.129 183.439C305.656 183.771 305.05 183.92 304.308 183.887C303.575 183.855 302.997 183.65 302.576 183.271C302.155 182.893 301.957 182.411 301.983 181.826ZM309.764 181.336L308.587 181.284C308.458 180.211 308.431 178.833 308.505 177.151L308.594 175.137L310.32 175.213L310.232 177.227C310.157 178.933 310.001 180.302 309.764 181.336ZM309.067 184.097C308.798 184.085 308.57 183.981 308.383 183.785C308.2 183.589 308.114 183.363 308.126 183.105C308.137 182.844 308.243 182.623 308.442 182.445C308.646 182.262 308.882 182.177 309.151 182.188C309.409 182.2 309.629 182.305 309.812 182.505C309.995 182.701 310.081 182.929 310.069 183.191C310.058 183.448 309.952 183.666 309.753 183.845C309.553 184.024 309.325 184.108 309.067 184.097Z" fill="white"/>
<defs>
<filter id="filter0_d_203_2441" x="0.631066" y="22.4207" width="206.097" height="193.295" filterUnits="userSpaceOnUse" color-interpolation-filters="sRGB">
<feFlood flood-opacity="0" result="BackgroundImageFix"/>
<feColorMatrix in="SourceAlpha" type="matrix" values="0 0 0 0 0 0 0 0 0 0 0 0 0 0 0 0 0 0 127 0" result="hardAlpha"/>
<feOffset dy="0.789645"/>
<feGaussianBlur stdDeviation="1.18447"/>
<feComposite in2="hardAlpha" operator="out"/>
<feColorMatrix type="matrix" values="0 0 0 0 0.0509804 0 0 0 0 0.0392157 0 0 0 0 0.172549 0 0 0 0.08 0"/>
<feBlend mode="normal" in2="BackgroundImageFix" result="effect1_dropShadow_203_2441"/>
<feBlend mode="normal" in="SourceGraphic" in2="effect1_dropShadow_203_2441" result="shape"/>
</filter>
<filter id="filter1_d_203_2441" x="152.38" y="0.919793" width="178.898" height="164.856" filterUnits="userSpaceOnUse" color-interpolation-filters="sRGB">
<feFlood flood-opacity="0" result="BackgroundImageFix"/>
<feColorMatrix in="SourceAlpha" type="matrix" values="0 0 0 0 0 0 0 0 0 0 0 0 0 0 0 0 0 0 127 0" result="hardAlpha"/>
<feOffset dy="1.0401"/>
<feGaussianBlur stdDeviation="1.56016"/>
<feComposite in2="hardAlpha" operator="out"/>
<feColorMatrix type="matrix" values="0 0 0 0 0.0509804 0 0 0 0 0.0392157 0 0 0 0 0.172549 0 0 0 0.08 0"/>
<feBlend mode="normal" in2="BackgroundImageFix" result="effect1_dropShadow_203_2441"/>
<feBlend mode="normal" in="SourceGraphic" in2="effect1_dropShadow_203_2441" result="shape"/>
</filter>
</defs>
</svg>
