<svg width="331" height="222" viewBox="0 0 331 222" fill="none" xmlns="http://www.w3.org/2000/svg">
<g filter="url(#filter0_d_2001_1660)">
<rect x="4.5" y="3" width="212.918" height="195.603" rx="12.8264" fill="white"/>
</g>
<path d="M75.9948 175.909C75.5144 175.909 75.1053 175.778 74.7673 175.516C74.4293 175.253 74.1711 174.871 73.9925 174.372C73.814 173.87 73.7247 173.264 73.7247 172.554C73.7247 171.849 73.814 171.246 73.9925 170.747C74.1732 170.245 74.4325 169.862 74.7705 169.599C75.1106 169.333 75.5187 169.2 75.9948 169.2C76.471 169.2 76.878 169.333 77.216 169.599C77.5561 169.862 77.8154 170.245 77.9939 170.747C78.1746 171.246 78.265 171.849 78.265 172.554C78.265 173.264 78.1757 173.87 77.9971 174.372C77.8186 174.871 77.5603 175.253 77.2224 175.516C76.8844 175.778 76.4752 175.909 75.9948 175.909ZM75.9948 175.207C76.471 175.207 76.8408 174.978 77.1044 174.518C77.368 174.059 77.4997 173.405 77.4997 172.554C77.4997 171.989 77.4392 171.508 77.318 171.11C77.199 170.713 77.0268 170.41 76.8015 170.201C76.5783 169.993 76.3094 169.889 75.9948 169.889C75.5229 169.889 75.1542 170.122 74.8885 170.587C74.6228 171.051 74.4899 171.706 74.4899 172.554C74.4899 173.12 74.5494 173.6 74.6685 173.996C74.7875 174.391 74.9586 174.692 75.1818 174.898C75.4071 175.104 75.6781 175.207 75.9948 175.207ZM82.8052 174.595V174.251C82.8052 174.013 82.8541 173.795 82.9519 173.597C83.0518 173.397 83.1963 173.238 83.3855 173.119C83.5768 172.998 83.8085 172.937 84.0806 172.937C84.3569 172.937 84.5886 172.998 84.7756 173.119C84.9627 173.238 85.104 173.397 85.1997 173.597C85.2953 173.795 85.3432 174.013 85.3432 174.251V174.595C85.3432 174.833 85.2943 175.052 85.1965 175.252C85.1008 175.449 84.9584 175.609 84.7693 175.73C84.5822 175.849 84.3526 175.909 84.0806 175.909C83.8042 175.909 83.5715 175.849 83.3823 175.73C83.1931 175.609 83.0497 175.449 82.9519 175.252C82.8541 175.052 82.8052 174.833 82.8052 174.595ZM83.4556 174.251V174.595C83.4556 174.793 83.5024 174.97 83.5959 175.127C83.6895 175.283 83.851 175.36 84.0806 175.36C84.3038 175.36 84.461 175.283 84.5524 175.127C84.646 174.97 84.6927 174.793 84.6927 174.595V174.251C84.6927 174.053 84.6481 173.877 84.5588 173.721C84.4695 173.564 84.3101 173.485 84.0806 173.485C83.8574 173.485 83.6969 173.564 83.5991 173.721C83.5035 173.877 83.4556 174.053 83.4556 174.251ZM79.5531 170.858V170.514C79.5531 170.276 79.6019 170.058 79.6997 169.86C79.7996 169.66 79.9442 169.501 80.1333 169.382C80.3246 169.261 80.5563 169.2 80.8284 169.2C81.1047 169.2 81.3364 169.261 81.5235 169.382C81.7105 169.501 81.8519 169.66 81.9475 169.86C82.0432 170.058 82.091 170.276 82.091 170.514V170.858C82.091 171.096 82.0421 171.315 81.9443 171.515C81.8487 171.713 81.7063 171.872 81.5171 171.993C81.3301 172.112 81.1005 172.172 80.8284 172.172C80.5521 172.172 80.3193 172.112 80.1302 171.993C79.941 171.872 79.7975 171.713 79.6997 171.515C79.6019 171.315 79.5531 171.096 79.5531 170.858ZM80.2035 170.514V170.858C80.2035 171.056 80.2503 171.233 80.3438 171.391C80.4373 171.546 80.5988 171.623 80.8284 171.623C81.0516 171.623 81.2089 171.546 81.3003 171.391C81.3938 171.233 81.4406 171.056 81.4406 170.858V170.514C81.4406 170.316 81.3959 170.14 81.3067 169.985C81.2174 169.827 81.058 169.749 80.8284 169.749C80.6052 169.749 80.4447 169.827 80.347 169.985C80.2513 170.14 80.2035 170.316 80.2035 170.514ZM79.7954 175.819L84.2846 169.29H85.0116L80.5223 175.819H79.7954Z" fill="#615E83"/>
<path d="M125.933 175.909C125.559 175.909 125.222 175.834 124.922 175.686C124.623 175.537 124.382 175.333 124.202 175.073C124.021 174.814 123.922 174.519 123.905 174.187H124.67C124.7 174.482 124.834 174.727 125.072 174.92C125.312 175.112 125.599 175.207 125.933 175.207C126.201 175.207 126.439 175.145 126.647 175.019C126.858 174.894 127.022 174.722 127.141 174.503C127.263 174.282 127.323 174.032 127.323 173.753C127.323 173.469 127.261 173.215 127.135 172.991C127.012 172.766 126.842 172.589 126.625 172.459C126.408 172.329 126.161 172.263 125.882 172.261C125.682 172.259 125.477 172.29 125.267 172.354C125.056 172.415 124.883 172.495 124.747 172.593L124.007 172.504L124.403 169.29H127.795V169.991H125.066L124.836 171.917H124.875C125.008 171.811 125.176 171.722 125.378 171.652C125.58 171.582 125.791 171.547 126.01 171.547C126.409 171.547 126.765 171.643 127.078 171.834C127.392 172.023 127.639 172.282 127.817 172.612C127.998 172.941 128.088 173.318 128.088 173.741C128.088 174.157 127.995 174.529 127.808 174.857C127.623 175.182 127.368 175.439 127.043 175.628C126.717 175.815 126.348 175.909 125.933 175.909ZM131.485 175.909C131.004 175.909 130.595 175.778 130.257 175.517C129.919 175.253 129.661 174.871 129.483 174.372C129.304 173.87 129.215 173.264 129.215 172.555C129.215 171.849 129.304 171.246 129.483 170.747C129.663 170.245 129.923 169.862 130.261 169.599C130.601 169.333 131.009 169.2 131.485 169.2C131.961 169.2 132.368 169.333 132.706 169.599C133.046 169.862 133.305 170.245 133.484 170.747C133.665 171.246 133.755 171.849 133.755 172.555C133.755 173.264 133.666 173.87 133.487 174.372C133.309 174.871 133.05 175.253 132.712 175.517C132.374 175.778 131.965 175.909 131.485 175.909ZM131.485 175.207C131.961 175.207 132.331 174.978 132.594 174.519C132.858 174.059 132.99 173.405 132.99 172.555C132.99 171.989 132.929 171.508 132.808 171.11C132.689 170.713 132.517 170.41 132.292 170.202C132.068 169.993 131.799 169.889 131.485 169.889C131.013 169.889 130.644 170.122 130.378 170.587C130.113 171.051 129.98 171.706 129.98 172.555C129.98 173.12 130.039 173.6 130.158 173.996C130.278 174.391 130.449 174.692 130.672 174.898C130.897 175.104 131.168 175.207 131.485 175.207ZM138.295 174.595V174.251C138.295 174.013 138.344 173.795 138.442 173.597C138.542 173.397 138.686 173.238 138.876 173.119C139.067 172.998 139.299 172.937 139.571 172.937C139.847 172.937 140.079 172.998 140.266 173.119C140.453 173.238 140.594 173.397 140.69 173.597C140.785 173.795 140.833 174.013 140.833 174.251V174.595C140.833 174.833 140.784 175.052 140.687 175.252C140.591 175.45 140.448 175.609 140.259 175.73C140.072 175.849 139.843 175.909 139.571 175.909C139.294 175.909 139.062 175.849 138.872 175.73C138.683 175.609 138.54 175.45 138.442 175.252C138.344 175.052 138.295 174.833 138.295 174.595ZM138.946 174.251V174.595C138.946 174.793 138.992 174.97 139.086 175.128C139.179 175.283 139.341 175.36 139.571 175.36C139.794 175.36 139.951 175.283 140.042 175.128C140.136 174.97 140.183 174.793 140.183 174.595V174.251C140.183 174.053 140.138 173.877 140.049 173.722C139.96 173.564 139.8 173.486 139.571 173.486C139.347 173.486 139.187 173.564 139.089 173.722C138.994 173.877 138.946 174.053 138.946 174.251ZM135.043 170.858V170.514C135.043 170.276 135.092 170.058 135.19 169.86C135.29 169.661 135.434 169.501 135.623 169.382C135.815 169.261 136.046 169.2 136.318 169.2C136.595 169.2 136.826 169.261 137.014 169.382C137.201 169.501 137.342 169.661 137.438 169.86C137.533 170.058 137.581 170.276 137.581 170.514V170.858C137.581 171.096 137.532 171.315 137.434 171.515C137.339 171.713 137.196 171.872 137.007 171.993C136.82 172.112 136.591 172.172 136.318 172.172C136.042 172.172 135.809 172.112 135.62 171.993C135.431 171.872 135.288 171.713 135.19 171.515C135.092 171.315 135.043 171.096 135.043 170.858ZM135.694 170.514V170.858C135.694 171.056 135.74 171.233 135.834 171.391C135.927 171.546 136.089 171.624 136.318 171.624C136.542 171.624 136.699 171.546 136.79 171.391C136.884 171.233 136.931 171.056 136.931 170.858V170.514C136.931 170.316 136.886 170.14 136.797 169.985C136.707 169.827 136.548 169.749 136.318 169.749C136.095 169.749 135.935 169.827 135.837 169.985C135.741 170.14 135.694 170.316 135.694 170.514ZM135.285 175.819L139.775 169.29H140.502L136.012 175.819H135.285Z" fill="#615E83"/>
<path d="M178.88 169.29V175.819H178.089V170.119H178.051L176.456 171.177V170.374L178.089 169.29H178.88ZM182.887 175.909C182.407 175.909 181.998 175.778 181.66 175.517C181.322 175.253 181.064 174.871 180.885 174.372C180.707 173.87 180.617 173.264 180.617 172.555C180.617 171.849 180.707 171.246 180.885 170.747C181.066 170.245 181.325 169.862 181.663 169.599C182.003 169.333 182.411 169.2 182.887 169.2C183.364 169.2 183.771 169.333 184.109 169.599C184.449 169.862 184.708 170.245 184.887 170.747C185.067 171.246 185.158 171.849 185.158 172.555C185.158 173.264 185.068 173.87 184.89 174.372C184.711 174.871 184.453 175.253 184.115 175.517C183.777 175.778 183.368 175.909 182.887 175.909ZM182.887 175.207C183.364 175.207 183.733 174.978 183.997 174.519C184.261 174.059 184.392 173.405 184.392 172.555C184.392 171.989 184.332 171.508 184.211 171.11C184.092 170.713 183.919 170.41 183.694 170.202C183.471 169.993 183.202 169.889 182.887 169.889C182.416 169.889 182.047 170.122 181.781 170.587C181.515 171.051 181.382 171.706 181.382 172.555C181.382 173.12 181.442 173.6 181.561 173.996C181.68 174.391 181.851 174.692 182.074 174.898C182.3 175.104 182.571 175.207 182.887 175.207ZM188.499 175.909C188.019 175.909 187.609 175.778 187.271 175.517C186.933 175.253 186.675 174.871 186.497 174.372C186.318 173.87 186.229 173.264 186.229 172.555C186.229 171.849 186.318 171.246 186.497 170.747C186.677 170.245 186.937 169.862 187.275 169.599C187.615 169.333 188.023 169.2 188.499 169.2C188.975 169.2 189.382 169.333 189.72 169.599C190.06 169.862 190.32 170.245 190.498 170.747C190.679 171.246 190.769 171.849 190.769 172.555C190.769 173.264 190.68 173.87 190.501 174.372C190.323 174.871 190.064 175.253 189.726 175.517C189.389 175.778 188.979 175.909 188.499 175.909ZM188.499 175.207C188.975 175.207 189.345 174.978 189.609 174.519C189.872 174.059 190.004 173.405 190.004 172.555C190.004 171.989 189.943 171.508 189.822 171.11C189.703 170.713 189.531 170.41 189.306 170.202C189.082 169.993 188.814 169.889 188.499 169.889C188.027 169.889 187.658 170.122 187.393 170.587C187.127 171.051 186.994 171.706 186.994 172.555C186.994 173.12 187.054 173.6 187.173 173.996C187.292 174.391 187.463 174.692 187.686 174.898C187.911 175.104 188.182 175.207 188.499 175.207ZM195.309 174.595V174.251C195.309 174.013 195.358 173.795 195.456 173.597C195.556 173.397 195.7 173.238 195.89 173.119C196.081 172.998 196.313 172.937 196.585 172.937C196.861 172.937 197.093 172.998 197.28 173.119C197.467 173.238 197.608 173.397 197.704 173.597C197.799 173.795 197.847 174.013 197.847 174.251V174.595C197.847 174.833 197.798 175.052 197.701 175.252C197.605 175.45 197.463 175.609 197.273 175.73C197.086 175.849 196.857 175.909 196.585 175.909C196.308 175.909 196.076 175.849 195.886 175.73C195.697 175.609 195.554 175.45 195.456 175.252C195.358 175.052 195.309 174.833 195.309 174.595ZM195.96 174.251V174.595C195.96 174.793 196.007 174.97 196.1 175.128C196.194 175.283 196.355 175.36 196.585 175.36C196.808 175.36 196.965 175.283 197.057 175.128C197.15 174.97 197.197 174.793 197.197 174.595V174.251C197.197 174.053 197.152 173.877 197.063 173.722C196.974 173.564 196.814 173.486 196.585 173.486C196.362 173.486 196.201 173.564 196.103 173.722C196.008 173.877 195.96 174.053 195.96 174.251ZM192.057 170.858V170.514C192.057 170.276 192.106 170.058 192.204 169.86C192.304 169.661 192.448 169.501 192.637 169.382C192.829 169.261 193.06 169.2 193.333 169.2C193.609 169.2 193.841 169.261 194.028 169.382C194.215 169.501 194.356 169.661 194.452 169.86C194.547 170.058 194.595 170.276 194.595 170.514V170.858C194.595 171.096 194.546 171.315 194.448 171.515C194.353 171.713 194.21 171.872 194.021 171.993C193.834 172.112 193.605 172.172 193.333 172.172C193.056 172.172 192.823 172.112 192.634 171.993C192.445 171.872 192.302 171.713 192.204 171.515C192.106 171.315 192.057 171.096 192.057 170.858ZM192.708 170.514V170.858C192.708 171.056 192.754 171.233 192.848 171.391C192.941 171.546 193.103 171.624 193.333 171.624C193.556 171.624 193.713 171.546 193.804 171.391C193.898 171.233 193.945 171.056 193.945 170.858V170.514C193.945 170.316 193.9 170.14 193.811 169.985C193.722 169.827 193.562 169.749 193.333 169.749C193.109 169.749 192.949 169.827 192.851 169.985C192.755 170.14 192.708 170.316 192.708 170.514ZM192.3 175.819L196.789 169.29H197.516L193.026 175.819H192.3Z" fill="#615E83"/>
<rect x="105.179" y="143.449" width="7.69585" height="31.7566" rx="2.56528" transform="rotate(90 105.179 143.449)" fill="#C6D2FD"/>
<rect x="136.473" y="119.059" width="7.69585" height="63.0498" rx="2.56528" transform="rotate(90 136.473 119.059)" fill="#962DFF"/>
<rect x="156.857" y="94.6602" width="7.69585" height="83.4346" rx="2.56528" transform="rotate(90 156.857 94.6602)" fill="#E0C6FD"/>
<rect x="185.751" y="69.6196" width="7.69585" height="112.328" rx="2.56528" transform="rotate(90 185.751 69.6196)" fill="#4A3AFF"/>
<path d="M26.9526 150.167H26.1236L28.5213 143.637H29.3375L31.7352 150.167H30.9062L28.9549 144.67H28.9039L26.9526 150.167ZM27.2587 147.616H30.6001V148.317H27.2587V147.616ZM35.7366 148.164V145.269H36.489V150.167H35.7366V149.338H35.6856C35.5708 149.586 35.3922 149.798 35.1499 149.972C34.9076 150.144 34.6015 150.231 34.2317 150.231C33.9256 150.231 33.6535 150.164 33.4154 150.03C33.1774 149.894 32.9903 149.69 32.8543 149.417C32.7182 149.143 32.6502 148.798 32.6502 148.381V145.269H33.4027V148.33C33.4027 148.687 33.5026 148.972 33.7024 149.185C33.9043 149.397 34.1615 149.504 34.474 149.504C34.661 149.504 34.8513 149.456 35.0447 149.36C35.2403 149.264 35.4039 149.118 35.5357 148.92C35.6696 148.722 35.7366 148.471 35.7366 148.164ZM41.3362 146.366L40.6602 146.557C40.6177 146.445 40.555 146.335 40.4721 146.229C40.3914 146.121 40.2808 146.031 40.1405 145.961C40.0002 145.891 39.8206 145.856 39.6017 145.856C39.302 145.856 39.0522 145.925 38.8524 146.063C38.6548 146.199 38.5559 146.373 38.5559 146.583C38.5559 146.77 38.6239 146.918 38.76 147.026C38.896 147.135 39.1086 147.225 39.3976 147.297L40.1246 147.476C40.5625 147.582 40.8887 147.745 41.1034 147.964C41.3181 148.18 41.4255 148.46 41.4255 148.802C41.4255 149.083 41.3447 149.334 41.1831 149.555C41.0237 149.776 40.8005 149.95 40.5136 150.077C40.2266 150.205 39.8929 150.269 39.5124 150.269C39.0129 150.269 38.5995 150.16 38.2721 149.944C37.9448 149.727 37.7376 149.41 37.6504 148.993L38.3646 148.815C38.4326 149.078 38.5612 149.276 38.7504 149.408C38.9417 149.54 39.1915 149.606 39.4997 149.606C39.8504 149.606 40.1288 149.531 40.335 149.382C40.5433 149.231 40.6475 149.051 40.6475 148.84C40.6475 148.67 40.588 148.528 40.4689 148.413C40.3499 148.296 40.1671 148.209 39.9205 148.152L39.1043 147.96C38.6558 147.854 38.3263 147.689 38.1159 147.466C37.9076 147.241 37.8035 146.959 37.8035 146.621C37.8035 146.345 37.881 146.1 38.0362 145.888C38.1935 145.675 38.4071 145.509 38.6771 145.387C38.9491 145.266 39.2574 145.206 39.6017 145.206C40.0863 145.206 40.4668 145.312 40.7431 145.524C41.0216 145.737 41.2193 146.018 41.3362 146.366ZM44.688 145.269V145.907H42.15V145.269H44.688ZM42.8897 144.096H43.6422V148.764C43.6422 148.976 43.673 149.136 43.7346 149.242C43.7984 149.346 43.8792 149.416 43.977 149.453C44.0769 149.487 44.1821 149.504 44.2926 149.504C44.3755 149.504 44.4435 149.499 44.4967 149.491C44.5498 149.48 44.5923 149.472 44.6242 149.465L44.7772 150.141C44.7262 150.16 44.655 150.18 44.5636 150.199C44.4722 150.22 44.3564 150.231 44.2161 150.231C44.0035 150.231 43.7952 150.185 43.5912 150.093C43.3892 150.002 43.2213 149.863 43.0874 149.676C42.9556 149.489 42.8897 149.253 42.8897 148.968V144.096ZM45.8198 150.167V145.269H46.5468V146.009H46.5978C46.6871 145.767 46.8486 145.57 47.0824 145.419C47.3163 145.268 47.5798 145.193 47.8732 145.193C47.9284 145.193 47.9975 145.194 48.0804 145.196C48.1633 145.198 48.226 145.201 48.2685 145.206V145.971C48.243 145.964 48.1846 145.955 48.0932 145.942C48.0039 145.927 47.9093 145.92 47.8094 145.92C47.5713 145.92 47.3588 145.97 47.1717 146.07C46.9868 146.167 46.8401 146.303 46.7317 146.478C46.6254 146.65 46.5723 146.847 46.5723 147.068V150.167H45.8198ZM50.6016 150.282C50.2913 150.282 50.0097 150.223 49.7567 150.106C49.5038 149.987 49.3029 149.816 49.1541 149.593C49.0053 149.368 48.9309 149.095 48.9309 148.777C48.9309 148.496 48.9862 148.269 49.0967 148.094C49.2072 147.918 49.355 147.78 49.5399 147.68C49.7248 147.58 49.9289 147.506 50.1521 147.457C50.3774 147.406 50.6038 147.365 50.8312 147.335C51.1288 147.297 51.37 147.269 51.555 147.249C51.742 147.228 51.878 147.193 51.9631 147.144C52.0502 147.095 52.0938 147.01 52.0938 146.889V146.864C52.0938 146.549 52.0077 146.305 51.8355 146.13C51.6655 145.956 51.4072 145.869 51.0608 145.869C50.7015 145.869 50.4199 145.947 50.2158 146.105C50.0118 146.262 49.8683 146.43 49.7854 146.609L49.0712 146.353C49.1987 146.056 49.3688 145.824 49.5813 145.658C49.796 145.49 50.0298 145.374 50.2828 145.308C50.5379 145.24 50.7887 145.206 51.0352 145.206C51.1925 145.206 51.3732 145.225 51.5773 145.263C51.7835 145.299 51.9822 145.375 52.1735 145.489C52.3669 145.604 52.5274 145.777 52.6549 146.009C52.7825 146.241 52.8462 146.551 52.8462 146.94V150.167H52.0938V149.504H52.0555C52.0045 149.61 51.9195 149.724 51.8005 149.845C51.6814 149.966 51.5231 150.069 51.3254 150.154C51.1277 150.239 50.8865 150.282 50.6016 150.282ZM50.7164 149.606C51.014 149.606 51.2648 149.547 51.4689 149.43C51.675 149.313 51.8302 149.162 51.9344 148.977C52.0407 148.793 52.0938 148.598 52.0938 148.394V147.705C52.0619 147.744 51.9918 147.779 51.8834 147.811C51.7771 147.84 51.6538 147.867 51.5135 147.89C51.3753 147.911 51.2404 147.931 51.1086 147.948C50.9789 147.963 50.8737 147.975 50.7929 147.986C50.5974 148.011 50.4146 148.053 50.2445 148.11C50.0766 148.166 49.9406 148.249 49.8364 148.362C49.7344 148.473 49.6834 148.624 49.6834 148.815C49.6834 149.076 49.7801 149.274 49.9735 149.408C50.1691 149.54 50.4167 149.606 50.7164 149.606ZM54.9721 143.637V150.167H54.2196V143.637H54.9721ZM56.3503 150.167V145.269H57.1027V150.167H56.3503ZM56.7329 144.453C56.5862 144.453 56.4597 144.403 56.3535 144.303C56.2493 144.203 56.1972 144.083 56.1972 143.943C56.1972 143.803 56.2493 143.683 56.3535 143.583C56.4597 143.483 56.5862 143.433 56.7329 143.433C56.8796 143.433 57.005 143.483 57.1091 143.583C57.2154 143.683 57.2685 143.803 57.2685 143.943C57.2685 144.083 57.2154 144.203 57.1091 144.303C57.005 144.403 56.8796 144.453 56.7329 144.453ZM59.9221 150.282C59.6117 150.282 59.3301 150.223 59.0771 150.106C58.8242 149.987 58.6233 149.816 58.4745 149.593C58.3258 149.368 58.2514 149.095 58.2514 148.777C58.2514 148.496 58.3066 148.269 58.4172 148.094C58.5277 147.918 58.6754 147.78 58.8603 147.68C59.0453 147.58 59.2493 147.506 59.4725 147.457C59.6978 147.406 59.9242 147.365 60.1516 147.335C60.4492 147.297 60.6905 147.269 60.8754 147.249C61.0624 147.228 61.1985 147.193 61.2835 147.144C61.3707 147.095 61.4142 147.01 61.4142 146.889V146.864C61.4142 146.549 61.3281 146.305 61.156 146.13C60.9859 145.956 60.7277 145.869 60.3812 145.869C60.022 145.869 59.7403 145.947 59.5363 146.105C59.3322 146.262 59.1887 146.43 59.1058 146.609L58.3916 146.353C58.5192 146.056 58.6892 145.824 58.9018 145.658C59.1165 145.49 59.3503 145.374 59.6032 145.308C59.8583 145.24 60.1091 145.206 60.3557 145.206C60.513 145.206 60.6937 145.225 60.8977 145.263C61.1039 145.299 61.3026 145.375 61.4939 145.489C61.6874 145.604 61.8479 145.777 61.9754 146.009C62.1029 146.241 62.1667 146.551 62.1667 146.94V150.167H61.4142V149.504H61.376C61.325 149.61 61.2399 149.724 61.1209 149.845C61.0019 149.966 60.8435 150.069 60.6458 150.154C60.4482 150.239 60.2069 150.282 59.9221 150.282ZM60.0369 149.606C60.3344 149.606 60.5853 149.547 60.7893 149.43C60.9955 149.313 61.1507 149.162 61.2548 148.977C61.3611 148.793 61.4142 148.598 61.4142 148.394V147.705C61.3823 147.744 61.3122 147.779 61.2038 147.811C61.0975 147.84 60.9742 147.867 60.8339 147.89C60.6958 147.911 60.5608 147.931 60.429 147.948C60.2994 147.963 60.1941 147.975 60.1134 147.986C59.9178 148.011 59.735 148.053 59.565 148.11C59.397 148.166 59.261 148.249 59.1569 148.362C59.0548 148.473 59.0038 148.624 59.0038 148.815C59.0038 149.076 59.1005 149.274 59.294 149.408C59.4895 149.54 59.7371 149.606 60.0369 149.606Z" fill="#615E83"/>
<path d="M30.97 119.246H31.7607V123.57C31.7607 124.016 31.6555 124.415 31.445 124.765C31.2367 125.114 30.9423 125.389 30.5618 125.591C30.1814 125.791 29.735 125.891 29.2227 125.891C28.7104 125.891 28.2641 125.791 27.8836 125.591C27.5031 125.389 27.2077 125.114 26.9972 124.765C26.7889 124.415 26.6848 124.016 26.6848 123.57V119.246H27.4755V123.506C27.4755 123.825 27.5456 124.109 27.6859 124.357C27.8262 124.604 28.026 124.798 28.2853 124.941C28.5468 125.081 28.8592 125.151 29.2227 125.151C29.5862 125.151 29.8987 125.081 30.1601 124.941C30.4215 124.798 30.6214 124.604 30.7595 124.357C30.8998 124.109 30.97 123.825 30.97 123.506V119.246ZM33.3397 125.776V119.246H34.1304V122.486H34.207L37.1403 119.246H38.1733L35.4313 122.192L38.1733 125.776H37.2168L34.9467 122.741L34.1304 123.659V125.776H33.3397Z" fill="#615E83"/>
<path d="M31.9392 96.8882H31.1485C31.1017 96.6608 31.0199 96.461 30.903 96.2888C30.7882 96.1166 30.6479 95.9721 30.4821 95.8552C30.3185 95.7361 30.1367 95.6469 29.9369 95.5873C29.7371 95.5278 29.5288 95.4981 29.312 95.4981C28.9166 95.4981 28.5585 95.598 28.2375 95.7978C27.9187 95.9976 27.6647 96.292 27.4755 96.681C27.2884 97.0699 27.1949 97.5471 27.1949 98.1125C27.1949 98.6779 27.2884 99.1551 27.4755 99.5441C27.6647 99.9331 27.9187 100.227 28.2375 100.427C28.5585 100.627 28.9166 100.727 29.312 100.727C29.5288 100.727 29.7371 100.697 29.9369 100.638C30.1367 100.578 30.3185 100.49 30.4821 100.373C30.6479 100.254 30.7882 100.108 30.903 99.9363C31.0199 99.762 31.1017 99.5622 31.1485 99.3369H31.9392C31.8797 99.6706 31.7713 99.9692 31.614 100.233C31.4567 100.496 31.2612 100.721 31.0273 100.906C30.7935 101.088 30.531 101.228 30.2398 101.323C29.9507 101.419 29.6415 101.467 29.312 101.467C28.7551 101.467 28.2598 101.331 27.8262 101.059C27.3926 100.787 27.0514 100.4 26.8027 99.898C26.554 99.3964 26.4297 98.8012 26.4297 98.1125C26.4297 97.4238 26.554 96.8287 26.8027 96.327C27.0514 95.8254 27.3926 95.4385 27.8262 95.1665C28.2598 94.8944 28.7551 94.7584 29.312 94.7584C29.6415 94.7584 29.9507 94.8062 30.2398 94.9018C30.531 94.9975 30.7935 95.1378 31.0273 95.3227C31.2612 95.5055 31.4567 95.7287 31.614 95.9923C31.7713 96.2537 31.8797 96.5524 31.9392 96.8882ZM34.5561 101.492C34.2457 101.492 33.9641 101.434 33.7112 101.317C33.4582 101.198 33.2573 101.027 33.1086 100.804C32.9598 100.578 32.8854 100.306 32.8854 99.9873C32.8854 99.7067 32.9406 99.4793 33.0512 99.305C33.1617 99.1286 33.3094 98.9904 33.4944 98.8905C33.6793 98.7906 33.8833 98.7162 34.1065 98.6673C34.3318 98.6163 34.5582 98.5759 34.7856 98.5462C35.0832 98.5079 35.3245 98.4792 35.5094 98.4601C35.6965 98.4388 35.8325 98.4037 35.9175 98.3549C36.0047 98.306 36.0482 98.2209 36.0482 98.0998V98.0743C36.0482 97.7597 35.9622 97.5152 35.79 97.3409C35.6199 97.1666 35.3617 97.0795 35.0152 97.0795C34.656 97.0795 34.3743 97.1581 34.1703 97.3154C33.9662 97.4727 33.8228 97.6407 33.7399 97.8192L33.0257 97.5641C33.1532 97.2666 33.3232 97.0349 33.5358 96.8691C33.7505 96.7011 33.9843 96.5842 34.2372 96.5183C34.4923 96.4503 34.7431 96.4163 34.9897 96.4163C35.147 96.4163 35.3277 96.4354 35.5317 96.4737C35.7379 96.5098 35.9367 96.5853 36.128 96.7001C36.3214 96.8149 36.4819 96.9881 36.6094 97.2198C36.7369 97.4515 36.8007 97.7618 36.8007 98.1508V101.377H36.0482V100.714H36.01C35.959 100.821 35.874 100.934 35.7549 101.055C35.6359 101.177 35.4775 101.28 35.2798 101.365C35.0822 101.45 34.8409 101.492 34.5561 101.492ZM34.6709 100.816C34.9684 100.816 35.2193 100.758 35.4233 100.641C35.6295 100.524 35.7847 100.373 35.8888 100.188C35.9951 100.003 36.0482 99.8088 36.0482 99.6047V98.916C36.0164 98.9543 35.9462 98.9893 35.8378 99.0212C35.7315 99.051 35.6083 99.0776 35.468 99.1009C35.3298 99.1222 35.1948 99.1413 35.063 99.1583C34.9334 99.1732 34.8282 99.186 34.7474 99.1966C34.5518 99.2221 34.369 99.2635 34.199 99.3209C34.0311 99.3762 33.895 99.4602 33.7909 99.5728C33.6888 99.6833 33.6378 99.8343 33.6378 100.026C33.6378 100.287 33.7345 100.485 33.928 100.619C34.1235 100.75 34.3712 100.816 34.6709 100.816ZM38.9266 98.4314V101.377H38.1741V96.4801H38.9011V97.2453H38.9648C39.0796 96.9966 39.2539 96.7968 39.4877 96.6459C39.7215 96.4928 40.0234 96.4163 40.3932 96.4163C40.7248 96.4163 41.015 96.4843 41.2636 96.6204C41.5123 96.7543 41.7058 96.9583 41.8439 97.2325C41.9821 97.5046 42.0512 97.849 42.0512 98.2656V101.377H41.2987V98.3166C41.2987 97.9319 41.1988 97.6322 40.999 97.4175C40.7992 97.2007 40.525 97.0923 40.1764 97.0923C39.9362 97.0923 39.7215 97.1443 39.5324 97.2485C39.3453 97.3526 39.1976 97.5046 39.0892 97.7044C38.9808 97.9042 38.9266 98.1465 38.9266 98.4314ZM44.8673 101.492C44.557 101.492 44.2753 101.434 44.0224 101.317C43.7694 101.198 43.5686 101.027 43.4198 100.804C43.271 100.578 43.1966 100.306 43.1966 99.9873C43.1966 99.7067 43.2519 99.4793 43.3624 99.305C43.4729 99.1286 43.6207 98.9904 43.8056 98.8905C43.9905 98.7906 44.1946 98.7162 44.4178 98.6673C44.6431 98.6163 44.8694 98.5759 45.0969 98.5462C45.3945 98.5079 45.6357 98.4792 45.8206 98.4601C46.0077 98.4388 46.1437 98.4037 46.2288 98.3549C46.3159 98.306 46.3595 98.2209 46.3595 98.0998V98.0743C46.3595 97.7597 46.2734 97.5152 46.1012 97.3409C45.9312 97.1666 45.6729 97.0795 45.3264 97.0795C44.9672 97.0795 44.6856 97.1581 44.4815 97.3154C44.2775 97.4727 44.134 97.6407 44.0511 97.8192L43.3369 97.5641C43.4644 97.2666 43.6345 97.0349 43.847 96.8691C44.0617 96.7011 44.2955 96.5842 44.5485 96.5183C44.8035 96.4503 45.0544 96.4163 45.3009 96.4163C45.4582 96.4163 45.6389 96.4354 45.843 96.4737C46.0491 96.5098 46.2479 96.5853 46.4392 96.7001C46.6326 96.8149 46.7931 96.9881 46.9206 97.2198C47.0482 97.4515 47.1119 97.7618 47.1119 98.1508V101.377H46.3595V100.714H46.3212C46.2702 100.821 46.1852 100.934 46.0661 101.055C45.9471 101.177 45.7888 101.28 45.5911 101.365C45.3934 101.45 45.1521 101.492 44.8673 101.492ZM44.9821 100.816C45.2797 100.816 45.5305 100.758 45.7346 100.641C45.9407 100.524 46.0959 100.373 46.2001 100.188C46.3063 100.003 46.3595 99.8088 46.3595 99.6047V98.916C46.3276 98.9543 46.2575 98.9893 46.149 99.0212C46.0428 99.051 45.9195 99.0776 45.7792 99.1009C45.641 99.1222 45.5061 99.1413 45.3743 99.1583C45.2446 99.1732 45.1394 99.186 45.0586 99.1966C44.8631 99.2221 44.6803 99.2635 44.5102 99.3209C44.3423 99.3762 44.2063 99.4602 44.1021 99.5728C44.0001 99.6833 43.9491 99.8343 43.9491 100.026C43.9491 100.287 44.0458 100.485 44.2392 100.619C44.4348 100.75 44.6824 100.816 44.9821 100.816ZM50.3346 101.479C49.9265 101.479 49.5662 101.376 49.2537 101.17C48.9413 100.962 48.6968 100.669 48.5204 100.29C48.344 99.9097 48.2558 99.4602 48.2558 98.9415C48.2558 98.4271 48.344 97.9807 48.5204 97.6024C48.6968 97.224 48.9423 96.9318 49.2569 96.7256C49.5715 96.5194 49.935 96.4163 50.3474 96.4163C50.6662 96.4163 50.9181 96.4695 51.103 96.5757C51.2901 96.6799 51.4325 96.7989 51.5302 96.9328C51.6301 97.0646 51.7077 97.173 51.763 97.258H51.8268V94.8476H52.5792V101.377H51.8523V100.625H51.763C51.7077 100.714 51.6291 100.827 51.5271 100.963C51.425 101.097 51.2794 101.217 51.0902 101.323C50.9011 101.427 50.6492 101.479 50.3346 101.479ZM50.4366 100.804C50.7385 100.804 50.9935 100.725 51.2018 100.568C51.4101 100.408 51.5685 100.188 51.6769 99.9076C51.7853 99.6249 51.8395 99.2986 51.8395 98.9288C51.8395 98.5632 51.7864 98.2433 51.6801 97.9691C51.5738 97.6927 51.4165 97.478 51.2082 97.325C50.9999 97.1698 50.7427 97.0923 50.4366 97.0923C50.1178 97.0923 49.8521 97.1741 49.6395 97.3378C49.4291 97.4993 49.2707 97.7193 49.1645 97.9978C49.0603 98.2741 49.0082 98.5844 49.0082 98.9288C49.0082 99.2774 49.0614 99.5941 49.1677 99.8789C49.2761 100.162 49.4355 100.387 49.6459 100.555C49.8585 100.721 50.122 100.804 50.4366 100.804ZM55.503 101.492C55.1926 101.492 54.911 101.434 54.658 101.317C54.4051 101.198 54.2042 101.027 54.0554 100.804C53.9067 100.578 53.8323 100.306 53.8323 99.9873C53.8323 99.7067 53.8875 99.4793 53.9981 99.305C54.1086 99.1286 54.2563 98.9904 54.4412 98.8905C54.6262 98.7906 54.8302 98.7162 55.0534 98.6673C55.2787 98.6163 55.5051 98.5759 55.7325 98.5462C56.0301 98.5079 56.2714 98.4792 56.4563 98.4601C56.6433 98.4388 56.7794 98.4037 56.8644 98.3549C56.9516 98.306 56.9951 98.2209 56.9951 98.0998V98.0743C56.9951 97.7597 56.909 97.5152 56.7369 97.3409C56.5668 97.1666 56.3086 97.0795 55.9621 97.0795C55.6029 97.0795 55.3212 97.1581 55.1172 97.3154C54.9131 97.4727 54.7696 97.6407 54.6867 97.8192L53.9725 97.5641C54.1001 97.2666 54.2701 97.0349 54.4827 96.8691C54.6974 96.7011 54.9312 96.5842 55.1841 96.5183C55.4392 96.4503 55.69 96.4163 55.9366 96.4163C56.0939 96.4163 56.2746 96.4354 56.4786 96.4737C56.6848 96.5098 56.8835 96.5853 57.0748 96.7001C57.2683 96.8149 57.4288 96.9881 57.5563 97.2198C57.6838 97.4515 57.7476 97.7618 57.7476 98.1508V101.377H56.9951V100.714H56.9569C56.9059 100.821 56.8208 100.934 56.7018 101.055C56.5828 101.177 56.4244 101.28 56.2267 101.365C56.0291 101.45 55.7878 101.492 55.503 101.492ZM55.6178 100.816C55.9153 100.816 56.1662 100.758 56.3702 100.641C56.5764 100.524 56.7316 100.373 56.8357 100.188C56.942 100.003 56.9951 99.8088 56.9951 99.6047V98.916C56.9632 98.9543 56.8931 98.9893 56.7847 99.0212C56.6784 99.051 56.5551 99.0776 56.4148 99.1009C56.2767 99.1222 56.1417 99.1413 56.0099 99.1583C55.8803 99.1732 55.775 99.186 55.6943 99.1966C55.4987 99.2221 55.3159 99.2635 55.1459 99.3209C54.9779 99.3762 54.8419 99.4602 54.7378 99.5728C54.6357 99.6833 54.5847 99.8343 54.5847 100.026C54.5847 100.287 54.6814 100.485 54.8749 100.619C55.0704 100.75 55.318 100.816 55.6178 100.816Z" fill="#615E83"/>
<path d="M30.9697 69.8072H31.7604V74.1307C31.7604 74.577 31.6552 74.9756 31.4448 75.3263C31.2365 75.6749 30.9421 75.9502 30.5616 76.1521C30.1811 76.3519 29.7347 76.4518 29.2225 76.4518C28.7102 76.4518 28.2638 76.3519 27.8834 76.1521C27.5029 75.9502 27.2074 75.6749 26.997 75.3263C26.7887 74.9756 26.6845 74.577 26.6845 74.1307V69.8072H27.4752V74.0669C27.4752 74.3857 27.5454 74.6695 27.6857 74.9182C27.826 75.1648 28.0258 75.3593 28.2851 75.5017C28.5465 75.642 28.859 75.7121 29.2225 75.7121C29.5859 75.7121 29.8984 75.642 30.1599 75.5017C30.4213 75.3593 30.6211 75.1648 30.7593 74.9182C30.8996 74.6695 30.9697 74.3857 30.9697 74.0669V69.8072ZM36.9105 71.4397C36.8722 71.1166 36.717 70.8658 36.445 70.6872C36.1729 70.5087 35.8392 70.4194 35.4438 70.4194C35.1547 70.4194 34.9018 70.4662 34.685 70.5597C34.4703 70.6532 34.3024 70.7818 34.1812 70.9455C34.0622 71.1091 34.0027 71.2951 34.0027 71.5034C34.0027 71.6777 34.0441 71.8276 34.127 71.953C34.212 72.0763 34.3204 72.1794 34.4522 72.2623C34.584 72.3431 34.7222 72.41 34.8667 72.4631C35.0112 72.5142 35.1441 72.5556 35.2653 72.5875L35.9284 72.766C36.0985 72.8107 36.2877 72.8723 36.496 72.951C36.7064 73.0296 36.9073 73.137 37.0986 73.273C37.292 73.4069 37.4514 73.5791 37.5768 73.7895C37.7022 74 37.7649 74.2582 37.7649 74.5643C37.7649 74.9171 37.6725 75.236 37.4876 75.5208C37.3048 75.8056 37.0369 76.032 36.6841 76.1999C36.3334 76.3679 35.9072 76.4518 35.4055 76.4518C34.9379 76.4518 34.533 76.3764 34.1908 76.2254C33.8507 76.0745 33.5829 75.8641 33.3873 75.5941C33.1939 75.3242 33.0844 75.0107 33.0589 74.6536H33.8751C33.8964 74.9001 33.9793 75.1042 34.1238 75.2657C34.2705 75.4252 34.4554 75.5442 34.6786 75.6228C34.9039 75.6994 35.1462 75.7376 35.4055 75.7376C35.7074 75.7376 35.9784 75.6887 36.2186 75.591C36.4588 75.4911 36.649 75.3529 36.7893 75.1765C36.9296 74.9979 36.9997 74.7896 36.9997 74.5515C36.9997 74.3347 36.9392 74.1583 36.818 74.0223C36.6968 73.8862 36.5374 73.7757 36.3397 73.6907C36.1421 73.6057 35.9284 73.5313 35.6989 73.4675L34.8954 73.2379C34.3853 73.0913 33.9814 72.8819 33.6838 72.6098C33.3862 72.3377 33.2374 71.9817 33.2374 71.5417C33.2374 71.1761 33.3363 70.8573 33.534 70.5852C33.7338 70.311 34.0016 70.0984 34.3374 69.9475C34.6754 69.7945 35.0527 69.718 35.4693 69.718C35.8902 69.718 36.2643 69.7934 36.5916 69.9443C36.919 70.0931 37.1783 70.2972 37.3696 70.5565C37.563 70.8158 37.665 71.1102 37.6757 71.4397H36.9105ZM39.3328 76.337H38.5039L40.9015 69.8072H41.7177L44.1154 76.337H43.2864L41.3351 70.8403H41.2841L39.3328 76.337ZM39.6389 73.7863H42.9803V74.4878H39.6389V73.7863Z" fill="#615E83"/>
<path d="M26.6237 48.3485V39.953H29.936C30.5728 39.953 31.1152 40.0747 31.5634 40.3179C32.0116 40.5584 32.3533 40.8932 32.5883 41.3222C32.826 41.7486 32.9449 42.2405 32.9449 42.798C32.9449 43.3555 32.8247 43.8474 32.5842 44.2738C32.3437 44.7001 31.9952 45.0321 31.5388 45.2699C31.0852 45.5077 30.5359 45.6265 29.8909 45.6265H27.7797V44.2041H29.604C29.9456 44.2041 30.2271 44.1453 30.4484 44.0278C30.6725 43.9075 30.8392 43.7422 30.9485 43.5318C31.0606 43.3186 31.1166 43.074 31.1166 42.798C31.1166 42.5192 31.0606 42.276 30.9485 42.0683C30.8392 41.8579 30.6725 41.6953 30.4484 41.5805C30.2243 41.463 29.9401 41.4042 29.5958 41.4042H28.3987V48.3485H26.6237ZM36.8086 48.4715C36.1718 48.4715 35.6211 48.3362 35.1565 48.0657C34.6947 47.7924 34.338 47.4125 34.0866 46.926C33.8352 46.4368 33.7095 45.8698 33.7095 45.2248C33.7095 44.5744 33.8352 44.0059 34.0866 43.5195C34.338 43.0303 34.6947 42.6504 35.1565 42.3799C35.6211 42.1066 36.1718 41.9699 36.8086 41.9699C37.4453 41.9699 37.9946 42.1066 38.4565 42.3799C38.9211 42.6504 39.2791 43.0303 39.5305 43.5195C39.782 44.0059 39.9077 44.5744 39.9077 45.2248C39.9077 45.8698 39.782 46.4368 39.5305 46.926C39.2791 47.4125 38.9211 47.7924 38.4565 48.0657C37.9946 48.3362 37.4453 48.4715 36.8086 48.4715ZM36.8168 47.1187C37.1064 47.1187 37.3483 47.0367 37.5423 46.8727C37.7364 46.706 37.8826 46.4792 37.981 46.1923C38.0821 45.9053 38.1327 45.5787 38.1327 45.2125C38.1327 44.8463 38.0821 44.5197 37.981 44.2328C37.8826 43.9458 37.7364 43.719 37.5423 43.5523C37.3483 43.3856 37.1064 43.3022 36.8168 43.3022C36.5243 43.3022 36.2784 43.3856 36.0789 43.5523C35.8821 43.719 35.7332 43.9458 35.632 44.2328C35.5337 44.5197 35.4845 44.8463 35.4845 45.2125C35.4845 45.5787 35.5337 45.9053 35.632 46.1923C35.7332 46.4792 35.8821 46.706 36.0789 46.8727C36.2784 47.0367 36.5243 47.1187 36.8168 47.1187ZM41.0432 50.7097V42.0519H42.7649V43.1095H42.8428C42.9193 42.9401 43.03 42.7679 43.1749 42.593C43.3224 42.4154 43.5137 42.2678 43.7488 42.1503C43.9865 42.03 44.2817 41.9699 44.6342 41.9699C45.0933 41.9699 45.5169 42.0902 45.905 42.3307C46.2931 42.5684 46.6033 42.9278 46.8356 43.4088C47.0679 43.8871 47.184 44.4869 47.184 45.2084C47.184 45.9108 47.0706 46.5038 46.8438 46.9875C46.6197 47.4685 46.3136 47.8334 45.9255 48.0821C45.5402 48.328 45.1084 48.451 44.6301 48.451C44.2912 48.451 44.0029 48.395 43.7652 48.2829C43.5301 48.1709 43.3375 48.0301 43.1872 47.8607C43.0368 47.6885 42.9221 47.515 42.8428 47.3401H42.7895V50.7097H41.0432ZM42.7526 45.2002C42.7526 45.5746 42.8045 45.9012 42.9084 46.18C43.0122 46.4587 43.1626 46.676 43.3593 46.8318C43.5561 46.9848 43.7952 47.0613 44.0767 47.0613C44.3609 47.0613 44.6014 46.9834 44.7982 46.8277C44.995 46.6691 45.1439 46.4505 45.245 46.1718C45.3489 45.8903 45.4008 45.5664 45.4008 45.2002C45.4008 44.8367 45.3502 44.517 45.2491 44.241C45.148 43.9649 44.9991 43.749 44.8023 43.5933C44.6055 43.4375 44.3637 43.3596 44.0767 43.3596C43.7925 43.3596 43.552 43.4348 43.3552 43.5851C43.1612 43.7354 43.0122 43.9485 42.9084 44.2246C42.8045 44.5006 42.7526 44.8258 42.7526 45.2002ZM52.3861 45.6675V42.0519H54.1324V48.3485H52.4558V47.2048H52.3902C52.2481 47.5737 52.0117 47.8703 51.681 48.0944C51.3531 48.3184 50.9527 48.4305 50.4799 48.4305C50.059 48.4305 49.6887 48.3348 49.369 48.1435C49.0492 47.9522 48.7992 47.6803 48.6188 47.3278C48.4412 46.9752 48.351 46.553 48.3482 46.0611V42.0519H50.0946V45.7495C50.0973 46.1212 50.197 46.415 50.3938 46.6309C50.5906 46.8468 50.8543 46.9547 51.185 46.9547C51.3954 46.9547 51.5922 46.9069 51.7753 46.8113C51.9584 46.7129 52.106 46.568 52.218 46.3767C52.3328 46.1854 52.3888 45.949 52.3861 45.6675ZM57.2756 39.953V48.3485H55.5293V39.953H57.2756ZM60.47 48.4674C60.0683 48.4674 59.7103 48.3977 59.396 48.2583C59.0817 48.1162 58.833 47.9071 58.6499 47.6311C58.4695 47.3524 58.3793 47.0053 58.3793 46.5899C58.3793 46.2401 58.4436 45.9463 58.572 45.7085C58.7005 45.4708 58.8754 45.2795 59.0967 45.1346C59.3181 44.9898 59.5695 44.8805 59.851 44.8067C60.1352 44.7329 60.4331 44.681 60.7447 44.6509C61.1109 44.6126 61.406 44.5771 61.6301 44.5443C61.8542 44.5088 62.0168 44.4569 62.118 44.3885C62.2191 44.3202 62.2696 44.2191 62.2696 44.0852V44.0606C62.2696 43.801 62.1876 43.6001 62.0237 43.458C61.8624 43.3159 61.6329 43.2448 61.335 43.2448C61.0207 43.2448 60.7706 43.3145 60.5848 43.4539C60.399 43.5905 60.276 43.7627 60.2159 43.9704L58.6007 43.8392C58.6827 43.4566 58.8439 43.1259 59.0844 42.8472C59.3249 42.5657 59.6351 42.3498 60.015 42.1995C60.3976 42.0464 60.8403 41.9699 61.3432 41.9699C61.693 41.9699 62.0278 42.0109 62.3475 42.0929C62.67 42.1749 62.9556 42.302 63.2043 42.4741C63.4557 42.6463 63.6538 42.8677 63.7987 43.1382C63.9435 43.4061 64.016 43.7272 64.016 44.1016V48.3485H62.3598V47.4753H62.3106C62.2095 47.6721 62.0742 47.8457 61.9048 47.996C61.7353 48.1435 61.5317 48.2597 61.294 48.3444C61.0562 48.4264 60.7816 48.4674 60.47 48.4674ZM60.9701 47.2622C61.227 47.2622 61.4539 47.2116 61.6506 47.1105C61.8474 47.0067 62.0018 46.8673 62.1139 46.6924C62.2259 46.5175 62.2819 46.3193 62.2819 46.098V45.4298C62.2273 45.4653 62.1521 45.4981 62.0565 45.5282C61.9635 45.5555 61.8583 45.5814 61.7408 45.606C61.6233 45.6279 61.5058 45.6484 61.3883 45.6675C61.2708 45.6839 61.1642 45.699 61.0685 45.7126C60.8636 45.7427 60.6845 45.7905 60.5315 45.8561C60.3785 45.9217 60.2596 46.0105 60.1749 46.1226C60.0901 46.2319 60.0478 46.3685 60.0478 46.5325C60.0478 46.7703 60.1339 46.952 60.306 47.0777C60.4809 47.2007 60.7023 47.2622 60.9701 47.2622ZM65.3708 48.3485V42.0519H67.0638V43.1505H67.1294C67.2442 42.7597 67.4369 42.4646 67.7074 42.2651C67.978 42.0628 68.2895 41.9617 68.6421 41.9617C68.7295 41.9617 68.8238 41.9672 68.9249 41.9781C69.026 41.9891 69.1149 42.0041 69.1914 42.0232V43.5728C69.1094 43.5482 68.996 43.5263 68.8511 43.5072C68.7063 43.488 68.5737 43.4785 68.4535 43.4785C68.1966 43.4785 67.967 43.5345 67.7648 43.6466C67.5653 43.7559 67.4068 43.9089 67.2893 44.1057C67.1745 44.3025 67.1171 44.5293 67.1171 44.7862V48.3485H65.3708ZM75.611 48.4715C74.966 48.4715 74.4112 48.3348 73.9466 48.0616C73.4848 47.7855 73.1295 47.4029 72.8808 46.9137C72.6348 46.4245 72.5119 45.8616 72.5119 45.2248C72.5119 44.5798 72.6362 44.0141 72.8849 43.5277C73.1363 43.0385 73.493 42.6572 73.9548 42.384C74.4167 42.1079 74.966 41.9699 75.6028 41.9699C76.1521 41.9699 76.6331 42.0697 77.0457 42.2692C77.4584 42.4687 77.785 42.7488 78.0255 43.1095C78.266 43.4703 78.3985 43.8939 78.4231 44.3803H76.7752C76.7287 44.0661 76.6057 43.8133 76.4062 43.622C76.2095 43.4279 75.9512 43.3309 75.6315 43.3309C75.3609 43.3309 75.1245 43.4047 74.9223 43.5523C74.7228 43.6971 74.567 43.9089 74.4549 44.1877C74.3429 44.4664 74.2869 44.8039 74.2869 45.2002C74.2869 45.6019 74.3415 45.9436 74.4508 46.225C74.5629 46.5065 74.72 46.7211 74.9223 46.8686C75.1245 47.0162 75.3609 47.09 75.6315 47.09C75.831 47.09 76.01 47.049 76.1685 46.967C76.3297 46.885 76.4623 46.7662 76.5661 46.6104C76.6727 46.4519 76.7424 46.2619 76.7752 46.0406H78.4231C78.3958 46.5216 78.2646 46.9452 78.0296 47.3114C77.7973 47.6749 77.4762 47.9591 77.0662 48.164C76.6563 48.369 76.1712 48.4715 75.611 48.4715ZM82.3862 48.4715C81.7494 48.4715 81.1987 48.3362 80.7341 48.0657C80.2723 47.7924 79.9156 47.4125 79.6642 46.926C79.4128 46.4368 79.2871 45.8698 79.2871 45.2248C79.2871 44.5744 79.4128 44.0059 79.6642 43.5195C79.9156 43.0303 80.2723 42.6504 80.7341 42.3799C81.1987 42.1066 81.7494 41.9699 82.3862 41.9699C83.0229 41.9699 83.5722 42.1066 84.0341 42.3799C84.4987 42.6504 84.8567 43.0303 85.1081 43.5195C85.3596 44.0059 85.4853 44.5744 85.4853 45.2248C85.4853 45.8698 85.3596 46.4368 85.1081 46.926C84.8567 47.4125 84.4987 47.7924 84.0341 48.0657C83.5722 48.3362 83.0229 48.4715 82.3862 48.4715ZM82.3944 47.1187C82.684 47.1187 82.9259 47.0367 83.1199 46.8727C83.314 46.706 83.4602 46.4792 83.5586 46.1923C83.6597 45.9053 83.7103 45.5787 83.7103 45.2125C83.7103 44.8463 83.6597 44.5197 83.5586 44.2328C83.4602 43.9458 83.314 43.719 83.1199 43.5523C82.9259 43.3856 82.684 43.3022 82.3944 43.3022C82.1019 43.3022 81.856 43.3856 81.6565 43.5523C81.4597 43.719 81.3108 43.9458 81.2096 44.2328C81.1113 44.5197 81.0621 44.8463 81.0621 45.2125C81.0621 45.5787 81.1113 45.9053 81.2096 46.1923C81.3108 46.4792 81.4597 46.706 81.6565 46.8727C81.856 47.0367 82.1019 47.1187 82.3944 47.1187ZM90.6586 45.6675V42.0519H92.405V48.3485H90.7283V47.2048H90.6627C90.5206 47.5737 90.2842 47.8703 89.9536 48.0944C89.6256 48.3184 89.2252 48.4305 88.7525 48.4305C88.3316 48.4305 87.9613 48.3348 87.6415 48.1435C87.3218 47.9522 87.0717 47.6803 86.8913 47.3278C86.7137 46.9752 86.6235 46.553 86.6208 46.0611V42.0519H88.3671V45.7495C88.3698 46.1212 88.4696 46.415 88.6664 46.6309C88.8631 46.8468 89.1269 46.9547 89.4575 46.9547C89.668 46.9547 89.8647 46.9069 90.0478 46.8113C90.231 46.7129 90.3785 46.568 90.4906 46.3767C90.6054 46.1854 90.6614 45.949 90.6586 45.6675ZM95.5481 44.7083V48.3485H93.8018V42.0519H95.4662V43.1628H95.5399C95.6793 42.7966 95.913 42.5069 96.2409 42.2938C96.5689 42.0779 96.9665 41.9699 97.4338 41.9699C97.8711 41.9699 98.2524 42.0656 98.5776 42.2569C98.9028 42.4482 99.1556 42.7215 99.3359 43.0767C99.5163 43.4293 99.6065 43.8502 99.6065 44.3393V48.3485H97.8602V44.6509C97.8629 44.2656 97.7645 43.9649 97.565 43.749C97.3655 43.5304 97.0909 43.4211 96.7411 43.4211C96.506 43.4211 96.2983 43.4717 96.118 43.5728C95.9403 43.6739 95.8009 43.8215 95.6998 44.0155C95.6014 44.2068 95.5509 44.4377 95.5481 44.7083ZM104.332 42.0519V43.3637H100.54V42.0519H104.332ZM101.401 40.5433H103.147V46.4136C103.147 46.5749 103.172 46.7006 103.221 46.7908C103.27 46.8782 103.339 46.9397 103.426 46.9752C103.516 47.0108 103.62 47.0285 103.738 47.0285C103.82 47.0285 103.902 47.0217 103.984 47.008C104.066 46.9916 104.128 46.9793 104.172 46.9711L104.447 48.2706C104.359 48.298 104.236 48.3294 104.078 48.3649C103.919 48.4032 103.727 48.4264 103.5 48.4346C103.079 48.451 102.71 48.395 102.393 48.2665C102.079 48.1381 101.834 47.9386 101.659 47.668C101.484 47.3975 101.398 47.0558 101.401 46.6432V40.5433ZM105.47 48.3485V42.0519H107.163V43.1505H107.228C107.343 42.7597 107.536 42.4646 107.806 42.2651C108.077 42.0628 108.388 41.9617 108.741 41.9617C108.828 41.9617 108.923 41.9672 109.024 41.9781C109.125 41.9891 109.214 42.0041 109.29 42.0232V43.5728C109.208 43.5482 109.095 43.5263 108.95 43.5072C108.805 43.488 108.673 43.4785 108.552 43.4785C108.295 43.4785 108.066 43.5345 107.864 43.6466C107.664 43.7559 107.506 43.9089 107.388 44.1057C107.273 44.3025 107.216 44.5293 107.216 44.7862V48.3485H105.47ZM110.193 48.3485V42.0519H111.939V48.3485H110.193ZM111.07 41.2402C110.811 41.2402 110.588 41.1542 110.402 40.982C110.219 40.8071 110.127 40.598 110.127 40.3548C110.127 40.1143 110.219 39.9079 110.402 39.7358C110.588 39.5609 110.811 39.4734 111.07 39.4734C111.33 39.4734 111.551 39.5609 111.734 39.7358C111.92 39.9079 112.013 40.1143 112.013 40.3548C112.013 40.598 111.92 40.8071 111.734 40.982C111.551 41.1542 111.33 41.2402 111.07 41.2402ZM116.208 48.4715C115.56 48.4715 115.003 48.3403 114.535 48.078C114.071 47.8129 113.713 47.4385 113.461 46.9547C113.21 46.4683 113.084 45.893 113.084 45.2289C113.084 44.5812 113.21 44.0128 113.461 43.5236C113.713 43.0344 114.067 42.6531 114.523 42.3799C114.982 42.1066 115.521 41.9699 116.138 41.9699C116.554 41.9699 116.94 42.0369 117.298 42.1708C117.659 42.302 117.973 42.5001 118.241 42.7652C118.512 43.0303 118.722 43.3637 118.872 43.7654C119.023 44.1644 119.098 44.6318 119.098 45.1674V45.647H113.781V44.5648H117.454C117.454 44.3134 117.399 44.0907 117.29 43.8966C117.181 43.7026 117.029 43.5509 116.835 43.4416C116.644 43.3295 116.421 43.2735 116.167 43.2735C115.902 43.2735 115.667 43.335 115.462 43.458C115.26 43.5782 115.101 43.7408 114.986 43.9458C114.871 44.148 114.813 44.3735 114.81 44.6222V45.6511C114.81 45.9627 114.867 46.2319 114.982 46.4587C115.1 46.6855 115.265 46.8604 115.478 46.9834C115.691 47.1064 115.944 47.1679 116.237 47.1679C116.431 47.1679 116.608 47.1406 116.769 47.0859C116.931 47.0313 117.069 46.9493 117.183 46.8399C117.298 46.7306 117.386 46.5967 117.446 46.4382L119.061 46.5448C118.979 46.9329 118.811 47.2717 118.557 47.5614C118.305 47.8484 117.98 48.0725 117.581 48.2337C117.185 48.3922 116.727 48.4715 116.208 48.4715ZM125.476 43.8474L123.878 43.9458C123.85 43.8092 123.792 43.6862 123.701 43.5769C123.611 43.4648 123.492 43.376 123.345 43.3104C123.2 43.2421 123.026 43.2079 122.824 43.2079C122.554 43.2079 122.325 43.2653 122.14 43.3801C121.954 43.4921 121.861 43.6425 121.861 43.831C121.861 43.9813 121.921 44.1084 122.041 44.2123C122.161 44.3161 122.368 44.3995 122.66 44.4623L123.8 44.6919C124.412 44.8176 124.868 45.0198 125.169 45.2986C125.47 45.5773 125.62 45.9436 125.62 46.3972C125.62 46.8099 125.498 47.172 125.255 47.4835C125.015 47.7951 124.684 48.0383 124.263 48.2132C123.845 48.3854 123.363 48.4715 122.816 48.4715C121.982 48.4715 121.318 48.298 120.824 47.9509C120.332 47.6011 120.043 47.1255 119.959 46.5243L121.676 46.4341C121.728 46.6883 121.854 46.8823 122.054 47.0162C122.253 47.1474 122.509 47.213 122.82 47.213C123.126 47.213 123.372 47.1542 123.558 47.0367C123.747 46.9165 123.842 46.7621 123.845 46.5735C123.842 46.415 123.775 46.2852 123.644 46.1841C123.513 46.0802 123.311 46.0009 123.037 45.9463L121.947 45.729C121.332 45.606 120.874 45.3929 120.574 45.0895C120.276 44.7862 120.127 44.3995 120.127 43.9294C120.127 43.5249 120.236 43.1765 120.455 42.8841C120.676 42.5917 120.986 42.3662 121.385 42.2077C121.787 42.0492 122.257 41.9699 122.796 41.9699C123.591 41.9699 124.217 42.138 124.673 42.4741C125.132 42.8103 125.4 43.268 125.476 43.8474Z" fill="#1E1B39"/>
<path d="M30.2555 26.625C30.2172 26.3019 30.0621 26.0511 29.79 25.8725C29.5179 25.694 29.1842 25.6047 28.7889 25.6047C28.4998 25.6047 28.2468 25.6515 28.03 25.745C27.8153 25.8385 27.6474 25.9671 27.5263 26.1308C27.4072 26.2945 27.3477 26.4804 27.3477 26.6887C27.3477 26.863 27.3892 27.0129 27.472 27.1383C27.5571 27.2616 27.6655 27.3647 27.7973 27.4476C27.9291 27.5284 28.0672 27.5953 28.2118 27.6485C28.3563 27.6995 28.4891 27.7409 28.6103 27.7728L29.2735 27.9513C29.4435 27.996 29.6327 28.0576 29.841 28.1363C30.0515 28.2149 30.2523 28.3223 30.4436 28.4583C30.6371 28.5922 30.7965 28.7644 30.9219 28.9748C31.0473 29.1853 31.11 29.4435 31.11 29.7496C31.11 30.1024 31.0175 30.4213 30.8326 30.7061C30.6498 30.9909 30.382 31.2173 30.0291 31.3852C29.6784 31.5532 29.2522 31.6371 28.7506 31.6371C28.283 31.6371 27.878 31.5617 27.5358 31.4107C27.1957 31.2598 26.9279 31.0494 26.7323 30.7794C26.5389 30.5095 26.4294 30.196 26.4039 29.8389H27.2202C27.2414 30.0854 27.3243 30.2895 27.4689 30.451C27.6155 30.6105 27.8005 30.7295 28.0236 30.8081C28.249 30.8847 28.4913 30.9229 28.7506 30.9229C29.0524 30.9229 29.3234 30.874 29.5636 30.7763C29.8038 30.6764 29.9941 30.5382 30.1343 30.3618C30.2746 30.1832 30.3448 29.9749 30.3448 29.7368C30.3448 29.52 30.2842 29.3436 30.163 29.2076C30.0419 29.0715 29.8825 28.961 29.6848 28.876C29.4871 28.791 29.2735 28.7166 29.0439 28.6528L28.2404 28.4232C27.7303 28.2766 27.3264 28.0672 27.0289 27.7951C26.7313 27.523 26.5825 27.167 26.5825 26.727C26.5825 26.3614 26.6813 26.0426 26.879 25.7705C27.0788 25.4963 27.3466 25.2837 27.6825 25.1328C28.0205 24.9798 28.3977 24.9033 28.8144 24.9033C29.2352 24.9033 29.6093 24.9787 29.9367 25.1296C30.264 25.2784 30.5233 25.4825 30.7146 25.7418C30.9081 26.0011 31.0101 26.2955 31.0207 26.625H30.2555ZM34.4379 26.625V27.2627H31.8999V26.625H34.4379ZM32.6396 25.4517H33.3921V30.1194C33.3921 30.332 33.4229 30.4914 33.4845 30.5977C33.5483 30.7019 33.6291 30.772 33.7269 30.8081C33.8268 30.8422 33.932 30.8592 34.0425 30.8592C34.1254 30.8592 34.1934 30.8549 34.2466 30.8464C34.2997 30.8358 34.3422 30.8273 34.3741 30.8209L34.5271 31.4968C34.4761 31.516 34.4049 31.5351 34.3135 31.5542C34.2221 31.5755 34.1063 31.5861 33.966 31.5861C33.7534 31.5861 33.5451 31.5404 33.3411 31.449C33.1391 31.3576 32.9712 31.2184 32.8373 31.0313C32.7055 30.8443 32.6396 30.6083 32.6396 30.3235V25.4517ZM37.0109 31.6371C36.7006 31.6371 36.4189 31.5787 36.166 31.4618C35.913 31.3427 35.7122 31.1716 35.5634 30.9484C35.4146 30.7231 35.3402 30.451 35.3402 30.1322C35.3402 29.8516 35.3954 29.6242 35.506 29.4499C35.6165 29.2735 35.7642 29.1353 35.9492 29.0354C36.1341 28.9355 36.3381 28.8611 36.5613 28.8122C36.7866 28.7612 37.013 28.7208 37.2405 28.6911C37.538 28.6528 37.7793 28.6241 37.9642 28.605C38.1513 28.5837 38.2873 28.5486 38.3723 28.4998C38.4595 28.4509 38.5031 28.3658 38.5031 28.2447V28.2192C38.5031 27.9046 38.417 27.6601 38.2448 27.4858C38.0748 27.3115 37.8165 27.2244 37.47 27.2244C37.1108 27.2244 36.8292 27.303 36.6251 27.4603C36.421 27.6176 36.2776 27.7856 36.1947 27.9641L35.4805 27.709C35.608 27.4114 35.7781 27.1798 35.9906 27.014C36.2053 26.846 36.4391 26.7291 36.6921 26.6632C36.9471 26.5952 37.1979 26.5612 37.4445 26.5612C37.6018 26.5612 37.7825 26.5803 37.9865 26.6186C38.1927 26.6547 38.3915 26.7302 38.5828 26.845C38.7762 26.9598 38.9367 27.133 39.0642 27.3647C39.1918 27.5964 39.2555 27.9067 39.2555 28.2957V31.5223H38.5031V30.8592H38.4648C38.4138 30.9654 38.3288 31.0792 38.2097 31.2003C38.0907 31.3215 37.9323 31.4246 37.7347 31.5096C37.537 31.5946 37.2957 31.6371 37.0109 31.6371ZM37.1257 30.9612C37.4233 30.9612 37.6741 30.9027 37.8781 30.7858C38.0843 30.6689 38.2395 30.518 38.3436 30.3331C38.4499 30.1481 38.5031 29.9537 38.5031 29.7496V29.0609C38.4712 29.0992 38.401 29.1342 38.2926 29.1661C38.1863 29.1959 38.0631 29.2225 37.9228 29.2458C37.7846 29.2671 37.6496 29.2862 37.5178 29.3032C37.3882 29.3181 37.283 29.3309 37.2022 29.3415C37.0066 29.367 36.8238 29.4084 36.6538 29.4658C36.4859 29.5211 36.3498 29.6051 36.2457 29.7177C36.1437 29.8282 36.0926 29.9792 36.0926 30.1705C36.0926 30.4319 36.1894 30.6296 36.3828 30.7635C36.5783 30.8953 36.826 30.9612 37.1257 30.9612ZM42.7588 26.625V27.2627H40.2208V26.625H42.7588ZM40.9605 25.4517H41.713V30.1194C41.713 30.332 41.7438 30.4914 41.8054 30.5977C41.8692 30.7019 41.95 30.772 42.0477 30.8081C42.1476 30.8422 42.2529 30.8592 42.3634 30.8592C42.4463 30.8592 42.5143 30.8549 42.5675 30.8464C42.6206 30.8358 42.6631 30.8273 42.695 30.8209L42.848 31.4968C42.797 31.516 42.7258 31.5351 42.6344 31.5542C42.543 31.5755 42.4272 31.5861 42.2869 31.5861C42.0743 31.5861 41.866 31.5404 41.662 31.449C41.46 31.3576 41.2921 31.2184 41.1582 31.0313C41.0264 30.8443 40.9605 30.6083 40.9605 30.3235V25.4517ZM43.8906 31.5223V26.625H44.6431V31.5223H43.8906ZM44.2732 25.8088C44.1266 25.8088 44.0001 25.7588 43.8938 25.6589C43.7897 25.559 43.7376 25.4389 43.7376 25.2986C43.7376 25.1583 43.7897 25.0382 43.8938 24.9383C44.0001 24.8384 44.1266 24.7885 44.2732 24.7885C44.4199 24.7885 44.5453 24.8384 44.6495 24.9383C44.7557 25.0382 44.8089 25.1583 44.8089 25.2986C44.8089 25.4389 44.7557 25.559 44.6495 25.6589C44.5453 25.7588 44.4199 25.8088 44.2732 25.8088ZM49.4902 27.7218L48.8143 27.9131C48.7718 27.8004 48.7091 27.691 48.6262 27.5847C48.5454 27.4763 48.4349 27.387 48.2946 27.3169C48.1543 27.2467 47.9747 27.2116 47.7557 27.2116C47.456 27.2116 47.2063 27.2807 47.0065 27.4189C46.8088 27.5549 46.71 27.7282 46.71 27.9386C46.71 28.1256 46.778 28.2734 46.914 28.3818C47.0501 28.4902 47.2626 28.5805 47.5517 28.6528L48.2786 28.8313C48.7165 28.9376 49.0428 29.1002 49.2575 29.3192C49.4722 29.536 49.5795 29.8155 49.5795 30.1577C49.5795 30.4383 49.4987 30.6891 49.3372 30.9102C49.1778 31.1312 48.9546 31.3055 48.6676 31.4331C48.3807 31.5606 48.047 31.6244 47.6665 31.6244C47.167 31.6244 46.7535 31.516 46.4262 31.2992C46.0989 31.0823 45.8916 30.7656 45.8045 30.349L46.5187 30.1705C46.5867 30.434 46.7153 30.6317 46.9045 30.7635C47.0958 30.8953 47.3455 30.9612 47.6537 30.9612C48.0044 30.9612 48.2829 30.8868 48.4891 30.738C48.6974 30.5871 48.8015 30.4064 48.8015 30.196C48.8015 30.0259 48.742 29.8835 48.623 29.7687C48.504 29.6518 48.3212 29.5647 48.0746 29.5073L47.2584 29.316C46.8099 29.2097 46.4804 29.045 46.27 28.8218C46.0617 28.5965 45.9575 28.3148 45.9575 27.9769C45.9575 27.7005 46.0351 27.4561 46.1903 27.2435C46.3475 27.031 46.5612 26.8641 46.8311 26.743C47.1032 26.6218 47.4114 26.5612 47.7557 26.5612C48.2404 26.5612 48.6209 26.6675 48.8972 26.8801C49.1756 27.0926 49.3733 27.3732 49.4902 27.7218ZM52.842 26.625V27.2627H50.3041V26.625H52.842ZM51.0438 25.4517H51.7962V30.1194C51.7962 30.332 51.827 30.4914 51.8887 30.5977C51.9525 30.7019 52.0332 30.772 52.131 30.8081C52.2309 30.8422 52.3361 30.8592 52.4467 30.8592C52.5296 30.8592 52.5976 30.8549 52.6507 30.8464C52.7039 30.8358 52.7464 30.8273 52.7783 30.8209L52.9313 31.4968C52.8803 31.516 52.8091 31.5351 52.7177 31.5542C52.6263 31.5755 52.5104 31.5861 52.3701 31.5861C52.1576 31.5861 51.9493 31.5404 51.7452 31.449C51.5433 31.3576 51.3754 31.2184 51.2414 31.0313C51.1097 30.8443 51.0438 30.6083 51.0438 30.3235V25.4517ZM53.9739 31.5223V26.625H54.7264V31.5223H53.9739ZM54.3565 25.8088C54.2098 25.8088 54.0834 25.7588 53.9771 25.6589C53.8729 25.559 53.8209 25.4389 53.8209 25.2986C53.8209 25.1583 53.8729 25.0382 53.9771 24.9383C54.0834 24.8384 54.2098 24.7885 54.3565 24.7885C54.5032 24.7885 54.6286 24.8384 54.7327 24.9383C54.839 25.0382 54.8921 25.1583 54.8921 25.2986C54.8921 25.4389 54.839 25.559 54.7327 25.6589C54.6286 25.7588 54.5032 25.8088 54.3565 25.8088ZM58.0941 31.6244C57.635 31.6244 57.2396 31.516 56.908 31.2992C56.5764 31.0823 56.3213 30.7837 56.1428 30.4032C55.9642 30.0227 55.875 29.5881 55.875 29.0992C55.875 28.6018 55.9664 28.1628 56.1492 27.7824C56.3341 27.3998 56.5913 27.1011 56.9208 26.8864C57.2524 26.6696 57.6392 26.5612 58.0813 26.5612C58.4257 26.5612 58.736 26.625 59.0123 26.7525C59.2887 26.8801 59.515 27.0586 59.6915 27.2882C59.8679 27.5177 59.9774 27.7856 60.0199 28.0916H59.2674C59.21 27.8685 59.0825 27.6708 58.8848 27.4986C58.6892 27.3243 58.4257 27.2372 58.0941 27.2372C57.8008 27.2372 57.5436 27.3137 57.3225 27.4667C57.1036 27.6176 56.9324 27.8313 56.8092 28.1076C56.688 28.3818 56.6274 28.7038 56.6274 29.0737C56.6274 29.452 56.6869 29.7815 56.806 30.0621C56.9271 30.3426 57.0972 30.5605 57.3161 30.7157C57.5372 30.8708 57.7965 30.9484 58.0941 30.9484C58.2896 30.9484 58.4671 30.9144 58.6265 30.8464C58.786 30.7784 58.9209 30.6806 59.0315 30.5531C59.142 30.4255 59.2206 30.2725 59.2674 30.0939H60.0199C59.9774 30.383 59.8721 30.6434 59.7042 30.8751C59.5384 31.1047 59.3184 31.2875 59.0442 31.4235C58.7721 31.5574 58.4554 31.6244 58.0941 31.6244ZM64.5888 27.7218L63.9129 27.9131C63.8704 27.8004 63.8077 27.691 63.7248 27.5847C63.644 27.4763 63.5335 27.387 63.3932 27.3169C63.2529 27.2467 63.0733 27.2116 62.8543 27.2116C62.5546 27.2116 62.3049 27.2807 62.1051 27.4189C61.9074 27.5549 61.8085 27.7282 61.8085 27.9386C61.8085 28.1256 61.8766 28.2734 62.0126 28.3818C62.1486 28.4902 62.3612 28.5805 62.6503 28.6528L63.3772 28.8313C63.8151 28.9376 64.1414 29.1002 64.3561 29.3192C64.5708 29.536 64.6781 29.8155 64.6781 30.1577C64.6781 30.4383 64.5973 30.6891 64.4358 30.9102C64.2764 31.1312 64.0532 31.3055 63.7662 31.4331C63.4793 31.5606 63.1455 31.6244 62.7651 31.6244C62.2656 31.6244 61.8521 31.516 61.5248 31.2992C61.1974 31.0823 60.9902 30.7656 60.903 30.349L61.6172 30.1705C61.6853 30.434 61.8139 30.6317 62.003 30.7635C62.1943 30.8953 62.4441 30.9612 62.7523 30.9612C63.103 30.9612 63.3815 30.8868 63.5877 30.738C63.796 30.5871 63.9001 30.4064 63.9001 30.196C63.9001 30.0259 63.8406 29.8835 63.7216 29.7687C63.6025 29.6518 63.4197 29.5647 63.1732 29.5073L62.357 29.316C61.9085 29.2097 61.579 29.045 61.3686 28.8218C61.1602 28.5965 61.0561 28.3148 61.0561 27.9769C61.0561 27.7005 61.1337 27.4561 61.2888 27.2435C61.4461 27.031 61.6598 26.8641 61.9297 26.743C62.2018 26.6218 62.51 26.5612 62.8543 26.5612C63.339 26.5612 63.7195 26.6675 63.9958 26.8801C64.2742 27.0926 64.4719 27.3732 64.5888 27.7218Z" fill="#9291A5"/>
<g filter="url(#filter1_d_2001_1660)">
<rect x="129.5" y="83" width="197.357" height="133.882" rx="11.889" fill="white"/>
</g>
<path d="M220.965 191.234L231.215 181.234L235.59 169.984L242.09 185.86L246.465 178.359L251.09 131.234L262.965 177.36L271.59 161.984L288.09 191.234L293.215 183.86L296.34 171.609L305.965 161.984" stroke="#2D5BFF" stroke-width="1.78335" stroke-linecap="round" stroke-linejoin="round"/>
<path d="M187.709 180.057C187.237 180.529 186.787 180.981 186.335 181.434C185.949 181.82 185.563 182.206 185.176 182.591C185.05 182.716 184.897 182.755 184.726 182.705C184.554 182.654 184.451 182.532 184.414 182.36C184.377 182.192 184.441 182.055 184.558 181.936C185.094 181.401 185.629 180.865 186.164 180.329C186.561 179.933 186.958 179.537 187.355 179.141C187.573 178.925 187.825 178.923 188.042 179.137C188.343 179.435 188.642 179.734 188.94 180.036C188.973 180.07 188.994 180.116 189.018 180.151L191.523 177.645C191.487 177.643 191.453 177.639 191.418 177.639C191.128 177.639 190.839 177.641 190.549 177.637C190.357 177.634 190.213 177.541 190.135 177.367C190.059 177.201 190.084 177.039 190.201 176.897C190.243 176.845 190.297 176.803 190.358 176.774C190.419 176.746 190.485 176.731 190.552 176.733C191.246 176.731 191.941 176.73 192.636 176.733C192.898 176.735 193.092 176.934 193.093 177.196C193.095 177.887 193.095 178.578 193.093 179.268C193.093 179.531 192.888 179.737 192.638 179.734C192.389 179.732 192.197 179.536 192.193 179.273C192.188 178.991 192.191 178.708 192.191 178.426V178.309L192.151 178.282C192.126 178.322 192.098 178.36 192.067 178.395C191.18 179.284 190.292 180.172 189.404 181.059C189.173 181.289 188.923 181.29 188.693 181.061C188.391 180.76 188.089 180.458 187.788 180.155C187.762 180.129 187.741 180.097 187.709 180.057Z" fill="#04CE00"/>
<path d="M151.704 181.982V177.986H152.499V181.982H151.704ZM150.105 180.38V179.588H154.101V180.38H150.105ZM157.752 176.946V182.998H156.836V177.862H156.8L155.352 178.808V177.933L156.863 176.946H157.752ZM161.497 183.081C161.091 183.081 160.728 183.011 160.409 182.871C160.092 182.731 159.841 182.537 159.655 182.289C159.472 182.039 159.374 181.749 159.36 181.42H160.288C160.3 181.6 160.36 181.755 160.468 181.887C160.578 182.017 160.722 182.118 160.9 182.189C161.077 182.26 161.274 182.295 161.491 182.295C161.729 182.295 161.94 182.254 162.123 182.171C162.308 182.088 162.453 181.973 162.558 181.825C162.662 181.675 162.714 181.503 162.714 181.308C162.714 181.105 162.662 180.927 162.558 180.773C162.455 180.617 162.304 180.495 162.105 180.407C161.908 180.318 161.67 180.274 161.39 180.274H160.879V179.529H161.39C161.615 179.529 161.812 179.488 161.981 179.408C162.153 179.327 162.287 179.215 162.383 179.071C162.48 178.925 162.528 178.755 162.528 178.559C162.528 178.372 162.486 178.21 162.401 178.072C162.318 177.932 162.2 177.823 162.046 177.744C161.895 177.665 161.715 177.626 161.508 177.626C161.311 177.626 161.127 177.662 160.956 177.735C160.786 177.806 160.648 177.908 160.542 178.042C160.436 178.174 160.378 178.333 160.371 178.518H159.487C159.497 178.191 159.593 177.903 159.777 177.655C159.962 177.407 160.206 177.213 160.509 177.073C160.813 176.933 161.15 176.863 161.52 176.863C161.908 176.863 162.243 176.939 162.525 177.091C162.809 177.24 163.027 177.44 163.181 177.691C163.337 177.941 163.414 178.215 163.412 178.512C163.414 178.851 163.319 179.139 163.128 179.375C162.939 179.612 162.687 179.77 162.371 179.851V179.898C162.773 179.959 163.085 180.119 163.305 180.377C163.528 180.635 163.638 180.955 163.636 181.337C163.638 181.67 163.546 181.969 163.358 182.233C163.173 182.497 162.92 182.705 162.599 182.857C162.278 183.006 161.91 183.081 161.497 183.081ZM165.169 183.055C165.007 183.055 164.868 182.997 164.752 182.883C164.636 182.767 164.578 182.627 164.578 182.463C164.578 182.302 164.636 182.164 164.752 182.05C164.868 181.933 165.007 181.875 165.169 181.875C165.33 181.875 165.469 181.933 165.585 182.05C165.702 182.164 165.76 182.302 165.76 182.463C165.76 182.572 165.732 182.671 165.677 182.762C165.624 182.851 165.553 182.922 165.464 182.975C165.375 183.028 165.277 183.055 165.169 183.055ZM166.804 181.816V181.077L169.42 176.946H170.002V178.033H169.633L167.762 180.995V181.042H171.347V181.816H166.804ZM169.674 182.998V181.592L169.68 181.255V176.946H170.546V182.998H169.674ZM172.25 181.816V181.077L174.865 176.946H175.447V178.033H175.078L173.207 180.995V181.042H176.792V181.816H172.25ZM175.119 182.998V181.592L175.125 181.255V176.946H175.991V182.998H175.119ZM180.981 181.864V181.544C180.981 181.316 181.029 181.107 181.123 180.918C181.22 180.727 181.36 180.574 181.543 180.46C181.728 180.344 181.952 180.285 182.214 180.285C182.482 180.285 182.706 180.343 182.887 180.457C183.069 180.571 183.206 180.724 183.298 180.915C183.393 181.106 183.44 181.316 183.44 181.544V181.864C183.44 182.092 183.393 182.302 183.298 182.493C183.204 182.682 183.065 182.835 182.882 182.951C182.7 183.065 182.478 183.123 182.214 183.123C181.948 183.123 181.723 183.065 181.54 182.951C181.357 182.835 181.218 182.682 181.123 182.493C181.029 182.302 180.981 182.092 180.981 181.864ZM181.67 181.544V181.864C181.67 182.033 181.71 182.187 181.791 182.325C181.872 182.463 182.013 182.531 182.214 182.531C182.413 182.531 182.552 182.463 182.63 182.325C182.709 182.187 182.749 182.033 182.749 181.864V181.544C182.749 181.375 182.71 181.221 182.633 181.083C182.558 180.945 182.419 180.876 182.214 180.876C182.017 180.876 181.877 180.945 181.794 181.083C181.711 181.221 181.67 181.375 181.67 181.544ZM177.937 178.4V178.081C177.937 177.852 177.985 177.642 178.079 177.451C178.176 177.26 178.316 177.107 178.499 176.993C178.684 176.879 178.908 176.822 179.17 176.822C179.438 176.822 179.662 176.879 179.843 176.993C180.025 177.107 180.162 177.26 180.254 177.451C180.347 177.642 180.393 177.852 180.393 178.081V178.4C180.393 178.628 180.346 178.838 180.251 179.029C180.159 179.219 180.021 179.371 179.838 179.487C179.656 179.602 179.434 179.659 179.17 179.659C178.902 179.659 178.676 179.602 178.493 179.487C178.312 179.371 178.174 179.219 178.079 179.029C177.985 178.838 177.937 178.628 177.937 178.4ZM178.629 178.081V178.4C178.629 178.569 178.668 178.723 178.747 178.861C178.828 178.999 178.969 179.068 179.17 179.068C179.367 179.068 179.505 178.999 179.583 178.861C179.664 178.723 179.705 178.569 179.705 178.4V178.081C179.705 177.911 179.666 177.758 179.589 177.62C179.512 177.482 179.373 177.413 179.17 177.413C178.973 177.413 178.833 177.482 178.75 177.62C178.669 177.758 178.629 177.911 178.629 178.081ZM178.218 182.998L182.379 176.946H183.085L178.924 182.998H178.218Z" fill="#04CE00"/>
<path d="M158.013 166.969C157.034 166.963 156.09 166.799 155.18 166.477C154.276 166.155 153.464 165.632 152.746 164.907C152.028 164.183 151.458 163.223 151.037 162.028C150.622 160.833 150.415 159.365 150.415 157.625C150.421 156.028 150.604 154.6 150.963 153.343C151.328 152.08 151.848 151.009 152.523 150.13C153.204 149.25 154.019 148.582 154.966 148.123C155.913 147.659 156.975 147.427 158.152 147.427C159.421 147.427 160.542 147.674 161.514 148.17C162.486 148.659 163.267 149.325 163.855 150.167C164.449 151.009 164.809 151.953 164.932 153H160.966C160.811 152.337 160.486 151.817 159.991 151.439C159.496 151.062 158.883 150.873 158.152 150.873C156.913 150.873 155.972 151.411 155.328 152.489C154.691 153.566 154.365 155.031 154.353 156.882H154.483C154.768 156.319 155.152 155.839 155.635 155.443C156.124 155.04 156.678 154.734 157.297 154.523C157.923 154.306 158.582 154.198 159.276 154.198C160.403 154.198 161.406 154.464 162.285 154.997C163.165 155.523 163.858 156.248 164.366 157.17C164.874 158.093 165.127 159.149 165.127 160.337C165.127 161.625 164.827 162.771 164.226 163.774C163.632 164.777 162.799 165.564 161.728 166.133C160.663 166.697 159.424 166.975 158.013 166.969ZM157.994 163.811C158.613 163.811 159.167 163.663 159.657 163.365C160.146 163.068 160.53 162.666 160.808 162.158C161.087 161.65 161.226 161.081 161.226 160.449C161.226 159.817 161.087 159.251 160.808 158.749C160.536 158.248 160.158 157.848 159.675 157.551C159.192 157.254 158.641 157.105 158.022 157.105C157.557 157.105 157.127 157.192 156.731 157.365C156.341 157.539 155.997 157.78 155.7 158.09C155.409 158.399 155.18 158.758 155.012 159.167C154.845 159.57 154.762 160 154.762 160.458C154.762 161.071 154.901 161.632 155.18 162.139C155.465 162.647 155.848 163.053 156.331 163.356C156.821 163.66 157.375 163.811 157.994 163.811ZM175.01 166.969C173.623 166.969 172.388 166.731 171.304 166.254C170.227 165.771 169.375 165.109 168.75 164.266C168.131 163.418 167.812 162.44 167.793 161.331H171.843C171.868 161.796 172.019 162.204 172.298 162.557C172.583 162.904 172.961 163.173 173.431 163.365C173.902 163.557 174.431 163.653 175.019 163.653C175.632 163.653 176.174 163.545 176.645 163.328C177.116 163.112 177.484 162.811 177.75 162.427C178.016 162.043 178.15 161.601 178.15 161.099C178.15 160.591 178.007 160.142 177.722 159.752C177.444 159.356 177.041 159.046 176.515 158.823C175.995 158.601 175.376 158.489 174.657 158.489H172.883V155.535H174.657C175.264 155.535 175.8 155.43 176.264 155.22C176.735 155.009 177.1 154.718 177.36 154.347C177.62 153.969 177.75 153.529 177.75 153.028C177.75 152.551 177.636 152.133 177.407 151.774C177.184 151.408 176.868 151.123 176.459 150.919C176.057 150.715 175.586 150.613 175.047 150.613C174.502 150.613 174.004 150.712 173.552 150.91C173.1 151.102 172.738 151.377 172.465 151.737C172.193 152.096 172.047 152.517 172.029 153H168.174C168.193 151.904 168.505 150.938 169.112 150.102C169.719 149.266 170.536 148.613 171.564 148.142C172.598 147.665 173.766 147.427 175.066 147.427C176.379 147.427 177.527 147.665 178.512 148.142C179.496 148.619 180.261 149.263 180.806 150.074C181.357 150.879 181.63 151.783 181.623 152.786C181.63 153.851 181.298 154.74 180.63 155.452C179.967 156.164 179.103 156.616 178.038 156.808V156.957C179.438 157.136 180.503 157.622 181.233 158.415C181.97 159.201 182.336 160.186 182.329 161.368C182.336 162.452 182.023 163.415 181.391 164.257C180.766 165.099 179.902 165.762 178.8 166.245C177.698 166.728 176.434 166.969 175.01 166.969ZM192.168 166.969C190.855 166.969 189.685 166.728 188.657 166.245C187.635 165.762 186.824 165.096 186.223 164.248C185.623 163.4 185.31 162.427 185.285 161.331H189.186C189.23 162.068 189.539 162.666 190.115 163.124C190.691 163.582 191.375 163.811 192.168 163.811C192.8 163.811 193.357 163.672 193.84 163.393C194.329 163.108 194.71 162.715 194.982 162.214C195.261 161.706 195.4 161.124 195.4 160.468C195.4 159.799 195.258 159.21 194.973 158.703C194.694 158.195 194.307 157.799 193.812 157.514C193.317 157.229 192.75 157.083 192.112 157.077C191.555 157.077 191.013 157.192 190.487 157.421C189.967 157.65 189.561 157.963 189.27 158.359L185.694 157.718L186.595 147.687H198.224V150.975H189.911L189.419 155.74H189.53C189.864 155.269 190.369 154.879 191.044 154.569C191.719 154.26 192.474 154.105 193.31 154.105C194.456 154.105 195.478 154.374 196.376 154.913C197.273 155.452 197.982 156.192 198.503 157.133C199.023 158.068 199.28 159.145 199.273 160.365C199.28 161.647 198.982 162.786 198.382 163.783C197.787 164.774 196.955 165.554 195.883 166.124C194.818 166.688 193.58 166.969 192.168 166.969Z" fill="#1E1B39"/>
<path d="M149.846 124.911V117.129H152.916C153.504 117.129 154.006 117.235 154.421 117.445C154.839 117.653 155.157 117.948 155.375 118.33C155.595 118.71 155.705 119.157 155.705 119.672C155.705 120.188 155.594 120.633 155.371 121.005C155.148 121.375 154.825 121.659 154.402 121.856C153.982 122.054 153.473 122.153 152.875 122.153H150.819V120.83H152.609C152.923 120.83 153.184 120.787 153.391 120.701C153.599 120.615 153.754 120.486 153.855 120.314C153.959 120.141 154.011 119.927 154.011 119.672C154.011 119.413 153.959 119.195 153.855 119.018C153.754 118.841 153.598 118.706 153.388 118.615C153.18 118.521 152.918 118.475 152.601 118.475H151.492V124.911H149.846ZM154.049 121.37L155.983 124.911H154.167L152.274 121.37H154.049ZM159.404 125.025C158.803 125.025 158.286 124.904 157.853 124.661C157.423 124.415 157.091 124.068 156.858 123.619C156.625 123.169 156.508 122.635 156.508 122.02C156.508 121.419 156.625 120.893 156.858 120.439C157.091 119.986 157.419 119.632 157.842 119.379C158.267 119.126 158.767 118.999 159.339 118.999C159.724 118.999 160.082 119.061 160.414 119.185C160.749 119.307 161.04 119.49 161.288 119.736C161.539 119.982 161.734 120.291 161.873 120.663C162.013 121.033 162.082 121.466 162.082 121.963V122.407H157.154V121.404H160.559C160.559 121.171 160.508 120.965 160.407 120.785C160.305 120.605 160.165 120.464 159.985 120.363C159.808 120.259 159.601 120.207 159.366 120.207C159.12 120.207 158.902 120.264 158.712 120.378C158.525 120.49 158.378 120.64 158.271 120.83C158.165 121.018 158.11 121.227 158.108 121.457V122.411C158.108 122.7 158.161 122.949 158.267 123.16C158.376 123.37 158.53 123.532 158.727 123.646C158.925 123.76 159.159 123.817 159.43 123.817C159.61 123.817 159.775 123.792 159.924 123.741C160.074 123.69 160.202 123.614 160.308 123.513C160.414 123.412 160.495 123.288 160.551 123.141L162.048 123.239C161.972 123.599 161.816 123.913 161.581 124.182C161.348 124.448 161.046 124.656 160.677 124.805C160.309 124.952 159.885 125.025 159.404 125.025ZM164.803 125.022C164.431 125.022 164.099 124.957 163.808 124.828C163.516 124.696 163.286 124.502 163.116 124.246C162.949 123.988 162.865 123.666 162.865 123.281C162.865 122.957 162.925 122.685 163.044 122.464C163.163 122.244 163.325 122.067 163.53 121.932C163.735 121.798 163.968 121.697 164.229 121.628C164.493 121.56 164.769 121.512 165.058 121.484C165.397 121.449 165.671 121.416 165.878 121.385C166.086 121.352 166.237 121.304 166.331 121.241C166.424 121.177 166.471 121.084 166.471 120.96V120.937C166.471 120.696 166.395 120.51 166.243 120.378C166.094 120.247 165.881 120.181 165.605 120.181C165.313 120.181 165.082 120.245 164.909 120.374C164.737 120.501 164.623 120.661 164.567 120.853L163.07 120.732C163.146 120.377 163.296 120.07 163.519 119.812C163.742 119.551 164.029 119.351 164.381 119.212C164.736 119.07 165.146 118.999 165.612 118.999C165.937 118.999 166.247 119.037 166.543 119.113C166.842 119.189 167.107 119.307 167.337 119.466C167.571 119.626 167.754 119.831 167.888 120.082C168.023 120.33 168.09 120.628 168.09 120.975V124.911H166.555V124.102H166.509C166.415 124.284 166.29 124.445 166.133 124.585C165.976 124.721 165.787 124.829 165.567 124.908C165.346 124.984 165.092 125.022 164.803 125.022ZM165.267 123.904C165.505 123.904 165.715 123.858 165.897 123.764C166.08 123.668 166.223 123.538 166.327 123.376C166.431 123.214 166.483 123.03 166.483 122.825V122.206C166.432 122.239 166.362 122.269 166.274 122.297C166.187 122.322 166.09 122.347 165.981 122.369C165.872 122.39 165.763 122.409 165.654 122.426C165.545 122.442 165.446 122.455 165.358 122.468C165.168 122.496 165.002 122.54 164.86 122.601C164.718 122.662 164.608 122.744 164.529 122.848C164.451 122.949 164.412 123.076 164.412 123.228C164.412 123.448 164.491 123.617 164.651 123.733C164.813 123.847 165.018 123.904 165.267 123.904ZM170.964 117.129V124.911H169.346V117.129H170.964ZM175.365 119.075V120.291H171.851V119.075H175.365ZM172.649 117.677H174.267V123.118C174.267 123.267 174.29 123.384 174.336 123.467C174.381 123.549 174.445 123.606 174.526 123.638C174.609 123.671 174.706 123.688 174.814 123.688C174.89 123.688 174.966 123.682 175.042 123.669C175.118 123.654 175.177 123.642 175.217 123.635L175.472 124.839C175.391 124.865 175.277 124.894 175.13 124.927C174.983 124.962 174.804 124.984 174.594 124.991C174.204 125.006 173.862 124.954 173.568 124.835C173.277 124.716 173.05 124.531 172.888 124.281C172.726 124.03 172.646 123.713 172.649 123.331V117.677ZM176.42 124.911V119.075H178.039V124.911H176.42ZM177.233 118.323C176.992 118.323 176.786 118.243 176.614 118.083C176.444 117.921 176.359 117.727 176.359 117.502C176.359 117.279 176.444 117.088 176.614 116.928C176.786 116.766 176.992 116.685 177.233 116.685C177.474 116.685 177.679 116.766 177.849 116.928C178.021 117.088 178.107 117.279 178.107 117.502C178.107 117.727 178.021 117.921 177.849 118.083C177.679 118.243 177.474 118.323 177.233 118.323ZM179.335 124.911V119.075H180.878V120.105H180.946C181.068 119.763 181.271 119.493 181.554 119.295C181.838 119.098 182.177 118.999 182.573 118.999C182.973 118.999 183.314 119.099 183.595 119.299C183.876 119.497 184.063 119.765 184.157 120.105H184.218C184.337 119.77 184.552 119.503 184.864 119.303C185.178 119.1 185.549 118.999 185.977 118.999C186.522 118.999 186.964 119.172 187.303 119.52C187.645 119.864 187.816 120.353 187.816 120.986V124.911H186.201V121.305C186.201 120.981 186.115 120.738 185.943 120.576C185.771 120.414 185.555 120.333 185.297 120.333C185.003 120.333 184.774 120.426 184.609 120.614C184.445 120.799 184.362 121.043 184.362 121.347V124.911H182.793V121.271C182.793 120.985 182.711 120.757 182.546 120.587C182.384 120.418 182.17 120.333 181.904 120.333C181.724 120.333 181.562 120.378 181.417 120.469C181.276 120.558 181.163 120.684 181.079 120.846C180.996 121.005 180.954 121.193 180.954 121.408V124.911H179.335ZM191.755 125.025C191.154 125.025 190.638 124.904 190.204 124.661C189.774 124.415 189.442 124.068 189.209 123.619C188.976 123.169 188.859 122.635 188.859 122.02C188.859 121.419 188.976 120.893 189.209 120.439C189.442 119.986 189.77 119.632 190.193 119.379C190.619 119.126 191.118 118.999 191.69 118.999C192.075 118.999 192.434 119.061 192.765 119.185C193.1 119.307 193.391 119.49 193.639 119.736C193.89 119.982 194.085 120.291 194.225 120.663C194.364 121.033 194.434 121.466 194.434 121.963V122.407H189.505V121.404H192.91C192.91 121.171 192.859 120.965 192.758 120.785C192.656 120.605 192.516 120.464 192.336 120.363C192.159 120.259 191.952 120.207 191.717 120.207C191.471 120.207 191.253 120.264 191.063 120.378C190.876 120.49 190.729 120.64 190.622 120.83C190.516 121.018 190.462 121.227 190.459 121.457V122.411C190.459 122.7 190.512 122.949 190.619 123.16C190.727 123.37 190.881 123.532 191.078 123.646C191.276 123.76 191.51 123.817 191.781 123.817C191.961 123.817 192.126 123.792 192.275 123.741C192.425 123.69 192.553 123.614 192.659 123.513C192.765 123.412 192.846 123.288 192.902 123.141L194.399 123.239C194.323 123.599 194.168 123.913 193.932 124.182C193.699 124.448 193.397 124.656 193.028 124.805C192.66 124.952 192.236 125.025 191.755 125.025ZM201.709 122.426V119.075H203.328V124.911H201.774V123.851H201.713C201.581 124.193 201.362 124.468 201.056 124.676C200.752 124.884 200.38 124.987 199.942 124.987C199.552 124.987 199.209 124.899 198.912 124.721C198.616 124.544 198.384 124.292 198.217 123.965C198.052 123.638 197.969 123.247 197.966 122.791V119.075H199.585V122.502C199.588 122.847 199.68 123.119 199.862 123.319C200.045 123.519 200.289 123.619 200.596 123.619C200.791 123.619 200.973 123.575 201.143 123.486C201.313 123.395 201.449 123.261 201.553 123.084C201.66 122.906 201.712 122.687 201.709 122.426ZM209.479 120.739L207.997 120.83C207.971 120.704 207.917 120.59 207.833 120.488C207.75 120.385 207.64 120.302 207.503 120.241C207.369 120.178 207.208 120.146 207.02 120.146C206.769 120.146 206.558 120.2 206.386 120.306C206.213 120.41 206.127 120.549 206.127 120.724C206.127 120.863 206.183 120.981 206.294 121.077C206.406 121.174 206.597 121.251 206.868 121.309L207.925 121.522C208.492 121.639 208.915 121.826 209.194 122.084C209.472 122.343 209.612 122.682 209.612 123.103C209.612 123.485 209.499 123.821 209.273 124.11C209.051 124.398 208.744 124.624 208.354 124.786C207.966 124.946 207.519 125.025 207.013 125.025C206.24 125.025 205.624 124.865 205.166 124.543C204.71 124.219 204.443 123.778 204.364 123.22L205.956 123.137C206.004 123.372 206.121 123.552 206.306 123.676C206.491 123.798 206.728 123.859 207.016 123.859C207.3 123.859 207.528 123.804 207.7 123.695C207.875 123.584 207.964 123.441 207.966 123.266C207.964 123.119 207.902 122.999 207.78 122.905C207.659 122.809 207.471 122.735 207.218 122.685L206.207 122.483C205.637 122.369 205.213 122.172 204.934 121.891C204.658 121.609 204.52 121.251 204.52 120.815C204.52 120.44 204.621 120.117 204.824 119.846C205.029 119.575 205.317 119.366 205.686 119.219C206.059 119.072 206.495 118.999 206.994 118.999C207.731 118.999 208.311 119.155 208.734 119.466C209.159 119.778 209.408 120.202 209.479 120.739ZM213.291 125.025C212.69 125.025 212.174 124.904 211.74 124.661C211.31 124.415 210.978 124.068 210.745 123.619C210.512 123.169 210.395 122.635 210.395 122.02C210.395 121.419 210.512 120.893 210.745 120.439C210.978 119.986 211.306 119.632 211.729 119.379C212.155 119.126 212.654 118.999 213.226 118.999C213.611 118.999 213.97 119.061 214.301 119.185C214.636 119.307 214.927 119.49 215.175 119.736C215.426 119.982 215.621 120.291 215.761 120.663C215.9 121.033 215.97 121.466 215.97 121.963V122.407H211.041V121.404H214.446C214.446 121.171 214.395 120.965 214.294 120.785C214.193 120.605 214.052 120.464 213.872 120.363C213.695 120.259 213.488 120.207 213.253 120.207C213.007 120.207 212.789 120.264 212.599 120.378C212.412 120.49 212.265 120.64 212.158 120.83C212.052 121.018 211.998 121.227 211.995 121.457V122.411C211.995 122.7 212.048 122.949 212.155 123.16C212.264 123.37 212.417 123.532 212.614 123.646C212.812 123.76 213.046 123.817 213.317 123.817C213.497 123.817 213.662 123.792 213.811 123.741C213.961 123.69 214.089 123.614 214.195 123.513C214.301 123.412 214.383 123.288 214.438 123.141L215.935 123.239C215.859 123.599 215.704 123.913 215.468 124.182C215.235 124.448 214.933 124.656 214.564 124.805C214.196 124.952 213.772 125.025 213.291 125.025ZM217.026 124.911V119.075H218.595V120.093H218.656C218.762 119.731 218.941 119.457 219.192 119.273C219.443 119.085 219.731 118.991 220.058 118.991C220.139 118.991 220.227 118.996 220.32 119.007C220.414 119.017 220.496 119.031 220.567 119.048V120.485C220.491 120.462 220.386 120.442 220.252 120.424C220.118 120.406 219.995 120.397 219.883 120.397C219.645 120.397 219.432 120.449 219.245 120.553C219.06 120.654 218.913 120.796 218.804 120.979C218.698 121.161 218.645 121.371 218.645 121.609V124.911H217.026ZM226.26 120.739L224.778 120.83C224.753 120.704 224.699 120.59 224.615 120.488C224.531 120.385 224.421 120.302 224.284 120.241C224.15 120.178 223.989 120.146 223.802 120.146C223.551 120.146 223.339 120.2 223.167 120.306C222.995 120.41 222.909 120.549 222.909 120.724C222.909 120.863 222.965 120.981 223.076 121.077C223.188 121.174 223.379 121.251 223.65 121.309L224.706 121.522C225.274 121.639 225.697 121.826 225.975 122.084C226.254 122.343 226.393 122.682 226.393 123.103C226.393 123.485 226.281 123.821 226.055 124.11C225.832 124.398 225.526 124.624 225.136 124.786C224.748 124.946 224.301 125.025 223.794 125.025C223.022 125.025 222.406 124.865 221.948 124.543C221.492 124.219 221.224 123.778 221.146 123.22L222.738 123.137C222.786 123.372 222.903 123.552 223.087 123.676C223.272 123.798 223.509 123.859 223.798 123.859C224.082 123.859 224.31 123.804 224.482 123.695C224.657 123.584 224.745 123.441 224.748 123.266C224.745 123.119 224.683 122.999 224.562 122.905C224.44 122.809 224.253 122.735 223.999 122.685L222.989 122.483C222.419 122.369 221.994 122.172 221.716 121.891C221.44 121.609 221.302 121.251 221.302 120.815C221.302 120.44 221.403 120.117 221.606 119.846C221.811 119.575 222.098 119.366 222.468 119.219C222.84 119.072 223.276 118.999 223.775 118.999C224.512 118.999 225.092 119.155 225.515 119.466C225.941 119.778 226.189 120.202 226.26 120.739Z" fill="#1E1B39"/>
<path d="M153.374 105.483C153.338 105.184 153.194 104.951 152.942 104.786C152.69 104.62 152.381 104.537 152.014 104.537C151.746 104.537 151.512 104.581 151.311 104.667C151.112 104.754 150.956 104.873 150.844 105.025C150.734 105.177 150.678 105.349 150.678 105.542C150.678 105.704 150.717 105.843 150.794 105.959C150.873 106.073 150.973 106.169 151.095 106.246C151.217 106.32 151.345 106.382 151.479 106.432C151.613 106.479 151.736 106.517 151.849 106.547L152.463 106.712C152.621 106.754 152.796 106.811 152.99 106.884C153.185 106.957 153.371 107.056 153.548 107.182C153.727 107.306 153.875 107.466 153.991 107.661C154.108 107.856 154.166 108.096 154.166 108.379C154.166 108.706 154.08 109.002 153.909 109.266C153.739 109.53 153.491 109.74 153.164 109.895C152.839 110.051 152.444 110.129 151.979 110.129C151.545 110.129 151.17 110.059 150.853 109.919C150.538 109.779 150.289 109.584 150.108 109.334C149.929 109.084 149.827 108.793 149.804 108.462H150.56C150.58 108.691 150.657 108.88 150.791 109.029C150.927 109.177 151.098 109.288 151.305 109.36C151.514 109.431 151.738 109.467 151.979 109.467C152.259 109.467 152.51 109.422 152.732 109.331C152.955 109.238 153.131 109.11 153.261 108.947C153.391 108.781 153.456 108.588 153.456 108.367C153.456 108.166 153.4 108.003 153.288 107.877C153.176 107.751 153.028 107.648 152.845 107.57C152.662 107.491 152.463 107.422 152.251 107.363L151.506 107.15C151.033 107.014 150.659 106.82 150.383 106.568C150.107 106.315 149.969 105.985 149.969 105.578C149.969 105.239 150.061 104.943 150.244 104.691C150.429 104.437 150.677 104.24 150.989 104.1C151.302 103.958 151.652 103.887 152.038 103.887C152.428 103.887 152.775 103.957 153.078 104.097C153.382 104.235 153.622 104.424 153.799 104.664C153.979 104.905 154.073 105.178 154.083 105.483H153.374ZM157.25 105.483V106.074H154.898V105.483H157.25ZM155.584 104.395H156.281V108.722C156.281 108.919 156.31 109.067 156.367 109.165C156.426 109.262 156.501 109.327 156.591 109.36C156.684 109.392 156.782 109.408 156.884 109.408C156.961 109.408 157.024 109.404 157.073 109.396C157.122 109.386 157.162 109.378 157.191 109.372L157.333 109.999C157.286 110.017 157.22 110.034 157.135 110.052C157.05 110.072 156.943 110.082 156.813 110.082C156.616 110.082 156.423 110.039 156.234 109.954C156.047 109.87 155.891 109.741 155.767 109.567C155.645 109.394 155.584 109.175 155.584 108.911V104.395ZM159.635 110.129C159.348 110.129 159.087 110.075 158.852 109.966C158.618 109.856 158.432 109.697 158.294 109.49C158.156 109.282 158.087 109.029 158.087 108.734C158.087 108.474 158.138 108.263 158.24 108.101C158.343 107.938 158.48 107.81 158.651 107.717C158.823 107.625 159.012 107.556 159.219 107.51C159.428 107.463 159.637 107.426 159.848 107.398C160.124 107.363 160.348 107.336 160.519 107.318C160.692 107.299 160.819 107.266 160.897 107.221C160.978 107.175 161.019 107.097 161.019 106.984V106.961C161.019 106.669 160.939 106.443 160.779 106.281C160.622 106.119 160.382 106.039 160.061 106.039C159.728 106.039 159.467 106.112 159.278 106.257C159.089 106.403 158.956 106.559 158.879 106.724L158.217 106.488C158.335 106.212 158.493 105.997 158.69 105.844C158.889 105.688 159.105 105.58 159.34 105.518C159.576 105.455 159.809 105.424 160.037 105.424C160.183 105.424 160.351 105.442 160.54 105.477C160.731 105.511 160.915 105.581 161.092 105.687C161.272 105.793 161.42 105.954 161.539 106.169C161.657 106.383 161.716 106.671 161.716 107.032V110.022H161.019V109.408H160.983C160.936 109.506 160.857 109.612 160.747 109.724C160.636 109.836 160.49 109.932 160.306 110.011C160.123 110.089 159.899 110.129 159.635 110.129ZM159.742 109.502C160.018 109.502 160.25 109.448 160.439 109.34C160.63 109.231 160.774 109.092 160.871 108.92C160.969 108.749 161.019 108.568 161.019 108.379V107.741C160.989 107.776 160.924 107.809 160.823 107.838C160.725 107.866 160.611 107.891 160.481 107.912C160.353 107.932 160.227 107.95 160.105 107.966C159.985 107.979 159.888 107.991 159.813 108.001C159.631 108.025 159.462 108.063 159.304 108.116C159.149 108.167 159.023 108.245 158.926 108.35C158.832 108.452 158.784 108.592 158.784 108.769C158.784 109.012 158.874 109.195 159.053 109.319C159.234 109.441 159.464 109.502 159.742 109.502ZM164.963 105.483V106.074H162.611V105.483H164.963ZM163.296 104.395H163.994V108.722C163.994 108.919 164.022 109.067 164.08 109.165C164.139 109.262 164.214 109.327 164.304 109.36C164.397 109.392 164.494 109.408 164.597 109.408C164.674 109.408 164.737 109.404 164.786 109.396C164.835 109.386 164.875 109.378 164.904 109.372L165.046 109.999C164.999 110.017 164.933 110.034 164.848 110.052C164.763 110.072 164.656 110.082 164.526 110.082C164.329 110.082 164.136 110.039 163.947 109.954C163.759 109.87 163.604 109.741 163.48 109.567C163.357 109.394 163.296 109.175 163.296 108.911V104.395ZM166.012 110.022V105.483H166.71V110.022H166.012ZM166.367 104.726C166.231 104.726 166.114 104.68 166.015 104.588C165.919 104.495 165.87 104.384 165.87 104.254C165.87 104.124 165.919 104.012 166.015 103.92C166.114 103.827 166.231 103.781 166.367 103.781C166.503 103.781 166.619 103.827 166.716 103.92C166.814 104.012 166.863 104.124 166.863 104.254C166.863 104.384 166.814 104.495 166.716 104.588C166.619 104.68 166.503 104.726 166.367 104.726ZM171.203 106.5L170.576 106.677C170.537 106.573 170.479 106.471 170.402 106.373C170.327 106.272 170.224 106.189 170.094 106.124C169.964 106.059 169.798 106.027 169.595 106.027C169.317 106.027 169.086 106.091 168.9 106.219C168.717 106.345 168.626 106.506 168.626 106.701C168.626 106.874 168.689 107.011 168.815 107.111C168.941 107.212 169.138 107.296 169.406 107.363L170.08 107.528C170.486 107.627 170.788 107.777 170.987 107.98C171.186 108.181 171.285 108.44 171.285 108.758C171.285 109.018 171.211 109.25 171.061 109.455C170.913 109.66 170.706 109.821 170.44 109.94C170.174 110.058 169.865 110.117 169.512 110.117C169.049 110.117 168.666 110.017 168.363 109.816C168.059 109.615 167.867 109.321 167.786 108.935L168.448 108.769C168.511 109.014 168.631 109.197 168.806 109.319C168.983 109.441 169.215 109.502 169.5 109.502C169.826 109.502 170.084 109.433 170.275 109.295C170.468 109.156 170.564 108.988 170.564 108.793C170.564 108.635 170.509 108.503 170.399 108.397C170.289 108.289 170.119 108.208 169.891 108.155L169.134 107.977C168.718 107.879 168.413 107.726 168.218 107.519C168.025 107.31 167.928 107.049 167.928 106.736C167.928 106.48 168 106.253 168.144 106.056C168.29 105.859 168.488 105.705 168.738 105.592C168.99 105.48 169.276 105.424 169.595 105.424C170.044 105.424 170.397 105.522 170.653 105.719C170.911 105.916 171.094 106.177 171.203 106.5ZM174.31 105.483V106.074H171.957V105.483H174.31ZM172.643 104.395H173.34V108.722C173.34 108.919 173.369 109.067 173.426 109.165C173.485 109.262 173.56 109.327 173.65 109.36C173.743 109.392 173.841 109.408 173.943 109.408C174.02 109.408 174.083 109.404 174.132 109.396C174.181 109.386 174.221 109.378 174.25 109.372L174.392 109.999C174.345 110.017 174.279 110.034 174.194 110.052C174.11 110.072 174.002 110.082 173.872 110.082C173.675 110.082 173.482 110.039 173.293 109.954C173.106 109.87 172.95 109.741 172.826 109.567C172.704 109.394 172.643 109.175 172.643 108.911V104.395ZM175.359 110.022V105.483H176.056V110.022H175.359ZM175.713 104.726C175.577 104.726 175.46 104.68 175.362 104.588C175.265 104.495 175.217 104.384 175.217 104.254C175.217 104.124 175.265 104.012 175.362 103.92C175.46 103.827 175.577 103.781 175.713 103.781C175.849 103.781 175.966 103.827 176.062 103.92C176.161 104.012 176.21 104.124 176.21 104.254C176.21 104.384 176.161 104.495 176.062 104.588C175.966 104.68 175.849 104.726 175.713 104.726ZM179.178 110.117C178.752 110.117 178.386 110.017 178.078 109.816C177.771 109.615 177.535 109.338 177.369 108.985C177.204 108.632 177.121 108.23 177.121 107.776C177.121 107.315 177.206 106.908 177.375 106.556C177.546 106.201 177.785 105.924 178.09 105.725C178.398 105.524 178.756 105.424 179.166 105.424C179.485 105.424 179.773 105.483 180.029 105.601C180.285 105.719 180.495 105.885 180.658 106.098C180.822 106.311 180.923 106.559 180.963 106.842H180.265C180.212 106.636 180.094 106.452 179.911 106.293C179.729 106.131 179.485 106.05 179.178 106.05C178.906 106.05 178.667 106.121 178.463 106.263C178.26 106.403 178.101 106.601 177.987 106.857C177.874 107.111 177.818 107.41 177.818 107.753C177.818 108.103 177.873 108.409 177.984 108.669C178.096 108.929 178.254 109.131 178.457 109.275C178.662 109.419 178.902 109.49 179.178 109.49C179.359 109.49 179.524 109.459 179.671 109.396C179.819 109.333 179.944 109.242 180.047 109.124C180.149 109.006 180.222 108.864 180.265 108.698H180.963C180.923 108.966 180.826 109.208 180.67 109.423C180.517 109.635 180.313 109.805 180.058 109.931C179.806 110.055 179.513 110.117 179.178 110.117ZM185.198 106.5L184.571 106.677C184.532 106.573 184.474 106.471 184.397 106.373C184.322 106.272 184.22 106.189 184.09 106.124C183.96 106.059 183.793 106.027 183.59 106.027C183.312 106.027 183.081 106.091 182.896 106.219C182.712 106.345 182.621 106.506 182.621 106.701C182.621 106.874 182.684 107.011 182.81 107.111C182.936 107.212 183.133 107.296 183.401 107.363L184.075 107.528C184.481 107.627 184.783 107.777 184.982 107.98C185.181 108.181 185.281 108.44 185.281 108.758C185.281 109.018 185.206 109.25 185.056 109.455C184.908 109.66 184.701 109.821 184.435 109.94C184.169 110.058 183.86 110.117 183.507 110.117C183.044 110.117 182.661 110.017 182.358 109.816C182.054 109.615 181.862 109.321 181.781 108.935L182.443 108.769C182.506 109.014 182.626 109.197 182.801 109.319C182.978 109.441 183.21 109.502 183.496 109.502C183.821 109.502 184.079 109.433 184.27 109.295C184.463 109.156 184.559 108.988 184.559 108.793C184.559 108.635 184.504 108.503 184.394 108.397C184.284 108.289 184.114 108.208 183.886 108.155L183.129 107.977C182.713 107.879 182.408 107.726 182.213 107.519C182.02 107.31 181.923 107.049 181.923 106.736C181.923 106.48 181.995 106.253 182.139 106.056C182.285 105.859 182.483 105.705 182.733 105.592C182.985 105.48 183.271 105.424 183.59 105.424C184.039 105.424 184.392 105.522 184.648 105.719C184.906 105.916 185.089 106.177 185.198 106.5Z" fill="#9291A5"/>
<defs>
<filter id="filter0_d_2001_1660" x="0.652076" y="0.434717" width="220.614" height="203.299" filterUnits="userSpaceOnUse" color-interpolation-filters="sRGB">
<feFlood flood-opacity="0" result="BackgroundImageFix"/>
<feColorMatrix in="SourceAlpha" type="matrix" values="0 0 0 0 0 0 0 0 0 0 0 0 0 0 0 0 0 0 127 0" result="hardAlpha"/>
<feOffset dy="1.28264"/>
<feGaussianBlur stdDeviation="1.92396"/>
<feComposite in2="hardAlpha" operator="out"/>
<feColorMatrix type="matrix" values="0 0 0 0 0.0509804 0 0 0 0 0.0392157 0 0 0 0 0.172549 0 0 0 0.08 0"/>
<feBlend mode="normal" in2="BackgroundImageFix" result="effect1_dropShadow_2001_1660"/>
<feBlend mode="normal" in="SourceGraphic" in2="effect1_dropShadow_2001_1660" result="shape"/>
</filter>
<filter id="filter1_d_2001_1660" x="125.933" y="80.6222" width="204.491" height="141.015" filterUnits="userSpaceOnUse" color-interpolation-filters="sRGB">
<feFlood flood-opacity="0" result="BackgroundImageFix"/>
<feColorMatrix in="SourceAlpha" type="matrix" values="0 0 0 0 0 0 0 0 0 0 0 0 0 0 0 0 0 0 127 0" result="hardAlpha"/>
<feOffset dy="1.1889"/>
<feGaussianBlur stdDeviation="1.78335"/>
<feComposite in2="hardAlpha" operator="out"/>
<feColorMatrix type="matrix" values="0 0 0 0 0.0509804 0 0 0 0 0.0392157 0 0 0 0 0.172549 0 0 0 0.08 0"/>
<feBlend mode="normal" in2="BackgroundImageFix" result="effect1_dropShadow_2001_1660"/>
<feBlend mode="normal" in="SourceGraphic" in2="effect1_dropShadow_2001_1660" result="shape"/>
</filter>
</defs>
</svg>
