<svg width="327" height="213" viewBox="0 0 327 213" fill="none" xmlns="http://www.w3.org/2000/svg">
<g filter="url(#filter0_d_203_2332)">
<rect x="8.29468" y="7.39319" width="279" height="166" rx="10.9726" transform="rotate(1.58499 8.29468 7.39319)" fill="white"/>
</g>
<path d="M51.3999 149.884L52.2069 149.907L53.9763 154.594L54.0418 154.596L56.0677 150.013L56.8747 150.036L56.7202 155.62L56.0877 155.602L56.205 151.36L56.1505 151.358L54.2882 155.552L53.6774 155.535L52.0498 151.245L51.9953 151.243L51.8779 155.486L51.2454 155.468L51.3999 149.884Z" fill="#615E83"/>
<path d="M86.155 151.446L86.1716 150.846L90.3596 150.962L90.343 151.562L88.5871 151.513L88.4492 156.497L87.773 156.479L87.9109 151.495L86.155 151.446Z" fill="#615E83"/>
<path d="M120.312 157.379L118.939 151.753L119.626 151.772L120.667 156.352L120.722 156.353L122.036 151.839L122.8 151.86L123.863 156.44L123.917 156.442L125.21 151.926L125.897 151.945L124.216 157.487L123.518 157.468L122.409 152.984L122.365 152.983L121.009 157.398L120.312 157.379Z" fill="#615E83"/>
<path d="M154.21 153.329L154.226 152.729L158.414 152.845L158.398 153.445L156.642 153.396L156.504 158.38L155.828 158.362L155.966 153.378L154.21 153.329Z" fill="#615E83"/>
<path d="M188.614 159.269L188.769 153.685L192.117 153.778L192.101 154.378L189.429 154.304L189.376 156.19L191.797 156.257L191.781 156.857L189.36 156.79L189.291 159.288L188.614 159.269Z" fill="#615E83"/>
<path d="M225.617 156.102C225.592 155.825 225.465 155.606 225.236 155.447C225.008 155.288 224.725 155.204 224.387 155.195C224.139 155.188 223.922 155.222 223.734 155.297C223.549 155.371 223.402 155.477 223.294 155.615C223.189 155.752 223.134 155.909 223.129 156.087C223.124 156.237 223.156 156.366 223.224 156.475C223.294 156.582 223.384 156.673 223.495 156.747C223.606 156.819 223.722 156.88 223.845 156.929C223.967 156.976 224.08 157.014 224.183 157.044L224.746 157.213C224.89 157.255 225.05 157.312 225.226 157.384C225.405 157.457 225.574 157.553 225.734 157.674C225.896 157.793 226.029 157.944 226.131 158.127C226.233 158.31 226.281 158.532 226.273 158.794C226.265 159.096 226.178 159.366 226.014 159.605C225.851 159.845 225.616 160.032 225.31 160.167C225.007 160.302 224.64 160.364 224.211 160.352C223.811 160.341 223.467 160.267 223.178 160.13C222.89 159.993 222.666 159.807 222.506 159.571C222.347 159.336 222.26 159.065 222.247 158.759L222.945 158.778C222.957 158.99 223.023 159.166 223.143 159.308C223.265 159.447 223.42 159.554 223.609 159.626C223.8 159.697 224.006 159.735 224.228 159.741C224.486 159.749 224.719 159.713 224.927 159.635C225.135 159.556 225.301 159.442 225.425 159.294C225.549 159.145 225.614 158.969 225.619 158.765C225.625 158.58 225.577 158.427 225.477 158.308C225.376 158.189 225.242 158.091 225.075 158.013C224.908 157.936 224.727 157.867 224.533 157.807L223.851 157.592C223.418 157.454 223.078 157.266 222.83 157.026C222.582 156.786 222.463 156.478 222.473 156.102C222.482 155.789 222.574 155.519 222.75 155.291C222.927 155.061 223.161 154.886 223.452 154.765C223.744 154.642 224.069 154.585 224.425 154.595C224.785 154.605 225.103 154.679 225.379 154.815C225.656 154.95 225.873 155.131 226.03 155.357C226.189 155.584 226.27 155.838 226.271 156.12L225.617 156.102Z" fill="#615E83"/>
<path d="M259.644 157.043C259.619 156.766 259.492 156.548 259.264 156.389C259.035 156.23 258.752 156.145 258.414 156.136C258.167 156.129 257.949 156.163 257.762 156.238C257.576 156.313 257.429 156.419 257.322 156.556C257.216 156.693 257.161 156.851 257.156 157.029C257.152 157.178 257.184 157.307 257.252 157.416C257.321 157.524 257.412 157.615 257.522 157.689C257.633 157.761 257.75 157.821 257.872 157.87C257.995 157.917 258.107 157.956 258.21 157.986L258.773 158.154C258.917 158.196 259.078 158.254 259.254 158.326C259.432 158.398 259.601 158.495 259.762 158.615C259.924 158.735 260.056 158.886 260.158 159.068C260.261 159.251 260.308 159.474 260.301 159.735C260.292 160.037 260.206 160.308 260.041 160.547C259.878 160.786 259.644 160.973 259.338 161.109C259.034 161.244 258.667 161.306 258.239 161.294C257.839 161.283 257.494 161.209 257.205 161.071C256.918 160.934 256.694 160.748 256.533 160.513C256.374 160.277 256.288 160.006 256.274 159.7L256.972 159.72C256.985 159.931 257.051 160.108 257.171 160.249C257.292 160.389 257.447 160.495 257.636 160.568C257.827 160.638 258.034 160.677 258.255 160.683C258.514 160.69 258.746 160.655 258.954 160.577C259.162 160.497 259.328 160.383 259.452 160.236C259.576 160.087 259.641 159.91 259.647 159.706C259.652 159.521 259.604 159.369 259.504 159.25C259.403 159.13 259.27 159.032 259.103 158.955C258.936 158.877 258.755 158.809 258.56 158.749L257.878 158.533C257.446 158.396 257.105 158.207 256.857 157.968C256.609 157.728 256.49 157.42 256.501 157.044C256.509 156.731 256.601 156.461 256.777 156.233C256.954 156.003 257.188 155.828 257.479 155.706C257.772 155.584 258.096 155.527 258.452 155.537C258.812 155.547 259.13 155.62 259.407 155.757C259.683 155.892 259.9 156.073 260.058 156.299C260.217 156.525 260.297 156.779 260.298 157.061L259.644 157.043Z" fill="#615E83"/>
<path d="M25.0782 128.066L24.9237 133.65L24.2475 133.632L24.3824 128.757L24.3497 128.756L22.9614 129.623L22.9804 128.936L24.402 128.048L25.0782 128.066ZM29.4131 131.253L29.3433 133.773L28.6999 133.755L28.8544 128.171L29.4979 128.189L29.4411 130.239L29.4957 130.241C29.5998 130.027 29.7518 129.859 29.9516 129.737C30.1533 129.614 30.4187 129.557 30.7477 129.566C31.033 129.574 31.2814 129.638 31.4927 129.758C31.7041 129.877 31.8656 130.055 31.9772 130.293C32.0908 130.529 32.1425 130.827 32.1326 131.187L32.059 133.848L31.4155 133.83L31.4879 131.212C31.4971 130.88 31.4179 130.62 31.2503 130.434C31.0845 130.245 30.8498 130.147 30.5463 130.139C30.3354 130.133 30.1451 130.172 29.9754 130.257C29.8076 130.341 29.6731 130.467 29.572 130.636C29.4728 130.804 29.4198 131.01 29.4131 131.253ZM33.2361 133.88L33.352 129.692L33.9737 129.71L33.9562 130.342L33.9998 130.343C34.0819 130.138 34.2246 129.974 34.4282 129.85C34.6317 129.727 34.8589 129.669 35.1097 129.676C35.157 129.677 35.216 129.679 35.2868 129.683C35.3577 129.687 35.4112 129.691 35.4475 129.696L35.4294 130.35C35.4077 130.344 35.358 130.335 35.2801 130.321C35.2041 130.307 35.1234 130.298 35.038 130.296C34.8344 130.29 34.6514 130.328 34.4891 130.409C34.3287 130.488 34.2 130.601 34.1032 130.747C34.0082 130.892 33.9581 131.059 33.9529 131.248L33.8796 133.898L33.2361 133.88Z" fill="#615E83"/>
<path d="M22.0437 89.5641L22.0591 89.0079L24.6204 85.1933L25.0239 85.2044L25 86.066L24.7274 86.0585L22.7922 88.9409L22.791 88.9845L26.0955 89.076L26.0789 89.6758L22.0437 89.5641ZM24.6404 90.782L24.6767 89.4678L24.6839 89.2088L24.7949 85.1981L25.4383 85.2159L25.2838 90.7998L24.6404 90.782ZM29.9525 88.4078L29.8828 90.9271L29.2393 90.9093L29.3938 85.3253L30.0373 85.3432L29.9805 87.3935L30.0351 87.395C30.1392 87.1814 30.2912 87.0137 30.491 86.8919C30.6927 86.7683 30.9581 86.7111 31.2871 86.7202C31.5724 86.7281 31.8208 86.7923 32.0321 86.9127C32.2435 87.0314 32.405 87.2095 32.5166 87.4473C32.6302 87.6833 32.682 87.9812 32.672 88.3411L32.5984 91.0022L31.9549 90.9844L32.0273 88.3669C32.0365 88.0343 31.9573 87.7747 31.7897 87.5882C31.6239 87.3999 31.3892 87.3015 31.0857 87.2931C30.8748 87.2873 30.6845 87.3266 30.5149 87.411C30.347 87.4955 30.2125 87.6218 30.1114 87.79C30.0122 87.9583 29.9592 88.1642 29.9525 88.4078ZM33.7755 91.0348L33.8914 86.8468L34.5131 86.864L34.4956 87.4966L34.5392 87.4978C34.6213 87.2927 34.7641 87.1284 34.9676 87.0049C35.1711 86.8813 35.3983 86.8231 35.6491 86.83C35.6964 86.8313 35.7554 86.8338 35.8263 86.8376C35.8971 86.8414 35.9506 86.8456 35.9869 86.8503L35.9688 87.5046C35.9471 87.4986 35.8974 87.489 35.8195 87.4759C35.7435 87.4611 35.6628 87.4525 35.5774 87.4501C35.3738 87.4445 35.1908 87.4822 35.0285 87.5632C34.8681 87.6424 34.7394 87.7553 34.6426 87.9018C34.5477 88.0465 34.4976 88.2134 34.4923 88.4024L34.419 91.0526L33.7755 91.0348Z" fill="#615E83"/>
<path d="M25.2642 49.6615C24.8897 49.6511 24.5608 49.5756 24.2772 49.435C23.9956 49.2926 23.778 49.1019 23.6246 48.863C23.4711 48.6223 23.3995 48.3511 23.4097 48.0494C23.4144 47.8131 23.4668 47.5962 23.5668 47.3989C23.6669 47.1998 23.8006 47.0352 23.968 46.9052C24.1371 46.7735 24.324 46.6922 24.5286 46.6615L24.5295 46.6288C24.2642 46.5523 24.0557 46.3965 23.904 46.1613C23.7523 45.9242 23.6814 45.6576 23.6914 45.3614C23.6975 45.0778 23.7763 44.8262 23.9279 44.6066C24.0795 44.3871 24.2843 44.2163 24.5423 44.0943C24.8022 43.9723 25.0957 43.9159 25.4229 43.9249C25.7465 43.9339 26.0337 44.0064 26.2846 44.1425C26.5355 44.2786 26.7306 44.4604 26.8698 44.688C27.0108 44.9157 27.0783 45.1713 27.0723 45.4549C27.0623 45.7511 26.9741 46.0134 26.8077 46.2416C26.6432 46.4681 26.4291 46.6122 26.1654 46.6741L26.1645 46.7068C26.3653 46.7487 26.5447 46.8401 26.7027 46.9809C26.8607 47.1199 26.9851 47.2916 27.0759 47.496C27.1667 47.6986 27.2097 47.9181 27.205 48.1544C27.1948 48.4561 27.1056 48.7229 26.9373 48.9547C26.7708 49.1848 26.5431 49.3631 26.254 49.4897C25.9667 49.6145 25.6368 49.6718 25.2642 49.6615ZM25.2808 49.0617C25.5334 49.0687 25.7527 49.0338 25.9385 48.9571C26.1244 48.8804 26.2694 48.7689 26.3735 48.6226C26.4776 48.4763 26.5333 48.3032 26.5406 48.1033C26.5446 47.8924 26.4953 47.7046 26.3925 47.5399C26.2897 47.3751 26.1469 47.2438 25.9641 47.146C25.7831 47.0482 25.5744 46.9961 25.3381 46.9895C25.1 46.9829 24.8861 47.0234 24.6963 47.1109C24.5083 47.1985 24.3585 47.3217 24.2467 47.4805C24.1368 47.6393 24.0799 47.8242 24.0759 48.0351C24.0685 48.235 24.1118 48.4108 24.2059 48.5626C24.3017 48.7144 24.4412 48.8338 24.6244 48.9207C24.8075 49.0076 25.0263 49.0546 25.2808 49.0617ZM25.3541 46.4115C25.5541 46.417 25.7324 46.3819 25.8891 46.3062C26.0476 46.2306 26.1734 46.1222 26.2665 45.9811C26.3595 45.8399 26.4096 45.6731 26.4167 45.4804C26.4202 45.2913 26.3802 45.1256 26.2968 44.9832C26.2135 44.839 26.0956 44.7266 25.9432 44.646C25.7909 44.5636 25.612 44.5195 25.4066 44.5138C25.1976 44.5081 25.0138 44.5421 24.8553 44.6159C24.6969 44.6879 24.573 44.7936 24.4837 44.9331C24.3944 45.0707 24.348 45.234 24.3446 45.4231C24.3374 45.6157 24.3755 45.785 24.4588 45.931C24.5439 46.0771 24.6635 46.1923 24.8176 46.2766C24.9717 46.3609 25.1505 46.4059 25.3541 46.4115ZM31.0924 47.2251L31.0227 49.7444L30.3792 49.7266L30.5337 44.1427L31.1772 44.1605L31.1204 46.2109L31.175 46.2124C31.2791 45.9988 31.4311 45.8311 31.6309 45.7093C31.8326 45.5857 32.098 45.5285 32.427 45.5376C32.7123 45.5455 32.9607 45.6097 33.172 45.7301C33.3834 45.8487 33.5449 46.0269 33.6565 46.2647C33.7701 46.5007 33.8219 46.7986 33.8119 47.1585L33.7383 49.8196L33.0948 49.8018L33.1672 47.1843C33.1764 46.8517 33.0972 46.5921 32.9296 46.4055C32.7638 46.2172 32.5291 46.1189 32.2256 46.1105C32.0147 46.1046 31.8244 46.1439 31.6547 46.2284C31.4869 46.3129 31.3524 46.4392 31.2513 46.6074C31.1521 46.7757 31.0991 46.9816 31.0924 47.2251ZM34.9154 49.8522L35.0313 45.6642L35.653 45.6814L35.6355 46.314L35.6791 46.3152C35.7612 46.1101 35.904 45.9458 36.1075 45.8222C36.311 45.6987 36.5382 45.6404 36.789 45.6474C36.8363 45.6487 36.8953 45.6512 36.9661 45.655C37.037 45.6588 37.0905 45.663 37.1268 45.6676L37.1087 46.322C37.087 46.3159 37.0373 46.3064 36.9594 46.2933C36.8834 46.2785 36.8027 46.2699 36.7173 46.2675C36.5137 46.2619 36.3307 46.2996 36.1684 46.3806C36.008 46.4598 35.8793 46.5727 35.7825 46.7192C35.6875 46.8639 35.6375 47.0307 35.6322 47.2198L35.5589 49.87L34.9154 49.8522Z" fill="#615E83"/>
<line x1="48.2308" y1="134.798" x2="265.432" y2="140.808" stroke="#E5E5EF" stroke-width="0.822943" stroke-linecap="round"/>
<line x1="49.4908" y1="89.2558" x2="266.692" y2="95.2658" stroke="#E5E5EF" stroke-width="0.822943" stroke-linecap="round" stroke-dasharray="2.19 3.84"/>
<line x1="50.6529" y1="47.264" x2="267.854" y2="53.274" stroke="#E5E5EF" stroke-width="0.822943" stroke-linecap="round" stroke-dasharray="2.19 3.84"/>
<line x1="49.6917" y1="82.0014" x2="266.893" y2="88.0115" stroke="#93AAFD" stroke-width="0.822943" stroke-linecap="round" stroke-dasharray="2.19 3.84"/>
<path d="M49.7888 50.7697C49.8475 48.6495 51.6138 46.9783 53.734 47.037L60.367 47.2205C62.4871 47.2792 64.1583 49.0455 64.0997 51.1657L61.7854 134.802L47.4745 134.407L49.7888 50.7697Z" fill="#E5EAFC"/>
<path d="M81.9072 120.701C81.9659 118.581 83.7322 116.91 85.8524 116.968L92.4854 117.152C94.6056 117.21 96.2767 118.977 96.2181 121.097L95.8128 135.744L81.5019 135.348L81.9072 120.701Z" fill="#E5EAFC"/>
<path d="M116.543 99.6527C116.602 97.5325 118.368 95.8613 120.488 95.9199L127.121 96.1035C129.241 96.1621 130.912 97.9285 130.854 100.049L129.84 136.686L115.529 136.29L116.543 99.6527Z" fill="#E5EAFC"/>
<path d="M150.137 116.246C150.196 114.126 151.962 112.455 154.083 112.514L160.716 112.697C162.836 112.756 164.507 114.522 164.448 116.642L163.868 137.627L149.557 137.231L150.137 116.246Z" fill="#E5EAFC"/>
<path d="M185.441 71.0674C185.5 68.9473 187.266 67.2761 189.386 67.3347L196.019 67.5183C198.139 67.5769 199.81 69.3433 199.752 71.4634L197.895 138.569L183.584 138.173L185.441 71.0674Z" fill="#4A3AFF"/>
<path d="M218.048 123.338C218.107 121.218 219.873 119.547 221.993 119.605L228.626 119.789C230.746 119.848 232.418 121.614 232.359 123.734L231.922 139.51L217.612 139.114L218.048 123.338Z" fill="#E5EAFC"/>
<path d="M252.954 92.5329C253.013 90.4127 254.779 88.7415 256.899 88.8002L263.532 88.9837C265.652 89.0424 267.323 90.8087 267.265 92.9289L265.95 140.452L251.639 140.056L252.954 92.5329Z" fill="#E5EAFC"/>
<path d="M212.749 40.5803C215.172 40.6476 217.081 42.6659 217.015 45.0887L216.707 56.2016C216.64 58.6245 214.621 60.534 212.199 60.4672L196.934 60.0448L193.546 62.794C193.125 63.1355 192.518 63.1187 192.117 62.7544L188.886 59.8222L173.622 59.3998C171.199 59.3326 169.289 57.3143 169.356 54.8914L169.664 43.7785C169.731 41.3557 171.749 39.446 174.172 39.5129L212.749 40.5803Z" fill="#1E1B39"/>
<path d="M178.719 52.1917C178.457 52.1803 178.197 52.1232 177.937 52.0204C177.678 51.9176 177.444 51.75 177.234 51.5176C177.024 51.2831 176.859 50.9699 176.739 50.5778C176.619 50.1836 176.567 49.6915 176.584 49.1016C176.599 48.5365 176.666 48.0374 176.784 47.6041C176.902 47.1687 177.066 46.8042 177.276 46.5106C177.486 46.215 177.735 45.9932 178.024 45.8453C178.315 45.6974 178.64 45.6285 179 45.6384C179.357 45.6483 179.673 45.7287 179.947 45.8798C180.224 46.0288 180.447 46.2325 180.616 46.4908C180.786 46.7491 180.892 47.0442 180.935 47.3759L180.175 47.3548C180.112 47.0662 179.981 46.8246 179.783 46.6299C179.585 46.4352 179.317 46.3332 178.981 46.3239C178.486 46.3102 178.091 46.5145 177.794 46.9366C177.5 47.3588 177.341 47.9583 177.317 48.7352L177.367 48.7366C177.488 48.5632 177.631 48.4164 177.794 48.2962C177.96 48.174 178.141 48.0813 178.338 48.0181C178.535 47.955 178.743 47.9264 178.961 47.9325C179.327 47.9426 179.659 48.0433 179.957 48.2345C180.255 48.4236 180.491 48.6806 180.665 49.0056C180.839 49.3285 180.921 49.6956 180.909 50.1069C180.898 50.5016 180.8 50.8606 180.614 51.1839C180.429 51.5052 180.173 51.758 179.848 51.9423C179.525 52.1247 179.148 52.2078 178.719 52.1917ZM178.738 51.5062C178.999 51.5135 179.236 51.4545 179.447 51.3294C179.661 51.2043 179.831 51.0334 179.957 50.8165C180.086 50.5997 180.154 50.3563 180.161 50.0862C180.169 49.8224 180.116 49.5808 180.004 49.3615C179.893 49.1401 179.737 48.9622 179.535 48.8277C179.335 48.6933 179.104 48.6225 178.842 48.6152C178.645 48.6098 178.46 48.6442 178.288 48.7184C178.115 48.7905 177.963 48.8923 177.83 49.0238C177.7 49.1553 177.596 49.3073 177.518 49.4798C177.441 49.6502 177.399 49.831 177.394 50.0221C177.387 50.2755 177.44 50.514 177.552 50.7375C177.666 50.961 177.826 51.1432 178.03 51.2839C178.236 51.4248 178.472 51.4989 178.738 51.5062ZM182.905 49.3389L182.826 52.2181L182.09 52.1977L182.267 45.8161L183.002 45.8365L182.937 48.1797L183 48.1814C183.119 47.9373 183.292 47.7457 183.521 47.6065C183.751 47.4652 184.054 47.3998 184.43 47.4102C184.757 47.4193 185.04 47.4926 185.282 47.6303C185.523 47.7658 185.708 47.9695 185.836 48.2412C185.965 48.5109 186.025 48.8514 186.013 49.2627L185.929 52.3039L185.194 52.2836L185.276 49.2922C185.287 48.9121 185.196 48.6154 185.005 48.4022C184.815 48.187 184.547 48.0746 184.2 48.065C183.959 48.0583 183.742 48.1032 183.548 48.1997C183.356 48.2963 183.202 48.4407 183.087 48.6329C182.973 48.8252 182.913 49.0605 182.905 49.3389ZM187.274 52.3412L187.407 47.555L188.117 47.5746L188.097 48.2975L188.147 48.2989C188.241 48.0645 188.404 47.8767 188.637 47.7356C188.869 47.5944 189.129 47.5278 189.416 47.5357C189.47 47.5372 189.537 47.5401 189.618 47.5444C189.699 47.5487 189.76 47.5536 189.802 47.5589L189.781 48.3067C189.756 48.2998 189.699 48.2889 189.61 48.2739C189.524 48.257 189.431 48.2471 189.334 48.2444C189.101 48.238 188.892 48.2811 188.706 48.3736C188.523 48.4642 188.376 48.5932 188.265 48.7606C188.157 48.926 188.1 49.1167 188.094 49.3327L188.01 52.3615L187.274 52.3412ZM192.881 51.1866L192.899 50.5509L195.826 46.1913L196.287 46.2041L196.26 47.1887L195.948 47.1801L193.737 50.4743L193.735 50.5242L197.512 50.6287L197.493 51.3142L192.881 51.1866ZM195.849 52.5784L195.89 51.0765L195.899 50.7805L196.026 46.1968L196.761 46.2172L196.584 52.5988L195.849 52.5784ZM200.778 52.8021C200.367 52.7908 200.002 52.71 199.684 52.5598C199.368 52.4097 199.119 52.2064 198.937 51.9498C198.757 51.6912 198.664 51.3944 198.656 51.0595L199.441 51.0812C199.452 51.2873 199.518 51.4669 199.639 51.6199C199.759 51.7709 199.919 51.8896 200.118 51.9762C200.318 52.0628 200.54 52.1095 200.785 52.1163C201.059 52.1239 201.303 52.0828 201.518 51.9931C201.733 51.9034 201.902 51.7751 202.028 51.6081C202.153 51.4411 202.219 51.2454 202.225 51.021C202.231 50.7863 202.179 50.578 202.067 50.3961C201.956 50.2122 201.79 50.0662 201.568 49.9582C201.347 49.8502 201.074 49.7917 200.75 49.7827L200.239 49.7686L200.258 49.0831L200.769 49.0972C201.022 49.1042 201.246 49.0647 201.439 48.9786C201.635 48.8925 201.789 48.7679 201.902 48.6047C202.016 48.4415 202.077 48.2478 202.083 48.0234C202.089 47.8074 202.047 47.6181 201.955 47.4555C201.864 47.2929 201.733 47.1645 201.561 47.0703C201.391 46.9762 201.188 46.9259 200.954 46.9194C200.733 46.9134 200.525 46.9481 200.327 47.0237C200.132 47.0973 199.971 47.2082 199.844 47.3565C199.717 47.5027 199.646 47.6816 199.629 47.8932L198.882 47.8725C198.903 47.5384 199.012 47.2482 199.208 47.0021C199.404 46.7539 199.657 46.5634 199.966 46.4306C200.278 46.2978 200.617 46.2366 200.985 46.2467C201.379 46.2577 201.716 46.347 201.994 46.5148C202.272 46.6805 202.483 46.8952 202.628 47.1591C202.772 47.423 202.84 47.7055 202.832 48.0067C202.822 48.3661 202.719 48.6699 202.523 48.9181C202.329 49.1664 202.07 49.3349 201.745 49.4236L201.744 49.4735C202.145 49.5511 202.455 49.7312 202.674 50.0137C202.892 50.2942 202.996 50.637 202.985 51.0421C202.975 51.389 202.872 51.698 202.676 51.969C202.481 52.238 202.22 52.447 201.891 52.5959C201.563 52.7448 201.192 52.8136 200.778 52.8021ZM204.224 52.8102L204.356 48.024L205.067 48.0436L205.046 48.7915L205.109 48.7932C205.215 48.5404 205.382 48.3465 205.608 48.2114C205.834 48.0742 206.103 48.0099 206.415 48.0186C206.73 48.0273 206.991 48.1062 207.197 48.2554C207.405 48.4025 207.565 48.6054 207.676 48.8642L207.726 48.8656C207.855 48.6218 208.045 48.4306 208.294 48.292C208.543 48.1512 208.839 48.0856 209.182 48.0951C209.61 48.107 209.956 48.2506 210.221 48.5261C210.486 48.7996 210.61 49.2178 210.595 49.7807L210.506 52.984L209.771 52.9636L209.859 49.7604C209.869 49.4072 209.779 49.1522 209.59 48.9952C209.401 48.8382 209.176 48.7561 208.914 48.7488C208.578 48.7395 208.314 48.8341 208.124 49.0325C207.933 49.2289 207.834 49.4819 207.825 49.7914L207.739 52.9074L206.991 52.8867L207.082 49.6087C207.089 49.3366 207.007 49.1149 206.835 48.9439C206.663 48.7707 206.438 48.6803 206.16 48.6726C205.969 48.6673 205.788 48.7133 205.619 48.8104C205.453 48.9077 205.316 49.0453 205.209 49.2232C205.104 49.3991 205.049 49.6044 205.042 49.8391L204.959 52.8305L204.224 52.8102Z" fill="white"/>
<line x1="25.7141" y1="21.2702" x2="268.965" y2="28.0011" stroke="#E5E5EF" stroke-width="0.548629"/>
<rect x="99.113" y="144.885" width="225" height="65.708" rx="15.062" transform="rotate(-1.91054 99.113 144.885)" fill="#08205F"/>
<rect x="109.345" y="156.054" width="42.7007" height="42.7007" rx="11.064" transform="rotate(-1.91054 109.345 156.054)" fill="#6C78FF"/>
<g clip-path="url(#clip0_203_2332)">
<path d="M136.713 170.996L125.711 171.363C125.18 171.381 124.678 171.609 124.316 171.996C123.953 172.384 123.759 172.9 123.777 173.43L124.01 180.432C124.028 180.963 124.256 181.464 124.644 181.827C125.031 182.19 125.547 182.383 126.078 182.366L137.08 181.999C137.611 181.981 138.113 181.753 138.475 181.366C138.838 180.978 139.032 180.462 139.014 179.932L138.781 172.93C138.763 172.399 138.535 171.897 138.147 171.535C137.76 171.172 137.244 170.978 136.713 170.996ZM128.878 176.264L133.879 176.097C134.012 176.093 134.141 176.141 134.238 176.232C134.335 176.323 134.392 176.448 134.396 176.581C134.401 176.713 134.352 176.842 134.262 176.939C134.171 177.036 134.045 177.093 133.913 177.098L128.912 177.264C128.779 177.269 128.65 177.22 128.553 177.13C128.456 177.039 128.399 176.914 128.395 176.781C128.39 176.648 128.439 176.519 128.529 176.422C128.62 176.326 128.746 176.269 128.878 176.264ZM135.997 179.531L126.995 179.832C126.862 179.836 126.733 179.788 126.636 179.697C126.539 179.606 126.482 179.481 126.478 179.348C126.473 179.216 126.522 179.087 126.612 178.99C126.703 178.893 126.829 178.836 126.961 178.832L135.963 178.531C136.096 178.527 136.225 178.575 136.322 178.666C136.419 178.757 136.476 178.882 136.48 179.015C136.485 179.147 136.436 179.276 136.345 179.373C136.255 179.47 136.129 179.527 135.997 179.531Z" fill="white"/>
</g>
<path d="M167.245 170.482L162.925 170.627L162.525 158.628L166.725 158.488C167.895 158.449 168.943 158.668 169.868 159.146C170.793 159.618 171.522 160.305 172.055 161.207C172.593 162.104 172.882 163.14 172.921 164.315C172.96 165.48 172.749 166.525 172.287 167.45C171.826 168.369 171.155 169.095 170.274 169.627C169.398 170.159 168.389 170.444 167.245 170.482ZM166.597 160.434L164.69 160.498L164.961 168.617L166.98 168.55C168.177 168.51 169.106 168.12 169.766 167.381C170.431 166.637 170.743 165.64 170.701 164.39C170.659 163.118 170.273 162.13 169.543 161.427C168.819 160.724 167.837 160.393 166.597 160.434ZM178.417 170.326C177.21 170.367 176.211 170.001 175.42 169.231C174.629 168.46 174.213 167.447 174.171 166.191C174.129 164.92 174.468 163.873 175.19 163.052C175.911 162.231 176.868 161.801 178.059 161.761C179.272 161.721 180.249 162.065 180.99 162.795C181.737 163.519 182.131 164.514 182.173 165.78L182.193 166.381L176.087 166.609C176.279 168.036 177.048 168.727 178.394 168.682C178.939 168.664 179.385 168.545 179.73 168.325C180.076 168.105 180.301 167.8 180.406 167.412L182.257 167.35C182.116 168.243 181.704 168.954 181.021 169.485C180.343 170.011 179.475 170.291 178.417 170.326ZM178.13 163.395C177.542 163.415 177.074 163.589 176.727 163.916C176.385 164.243 176.173 164.712 176.092 165.325L180.163 165.189C180.145 164.628 179.951 164.185 179.582 163.861C179.212 163.531 178.728 163.376 178.13 163.395ZM184.041 173.685L183.646 161.815L185.497 161.754L185.674 162.983C185.899 162.51 186.256 162.138 186.744 161.864C187.232 161.586 187.789 161.436 188.414 161.416C189.558 161.377 190.487 161.729 191.202 162.47C191.922 163.211 192.303 164.217 192.345 165.489C192.389 166.782 192.087 167.846 191.441 168.68C190.795 169.51 189.881 169.944 188.7 169.983C188.086 170.004 187.529 169.907 187.03 169.694C186.53 169.481 186.148 169.175 185.884 168.777L186.045 173.618L184.041 173.685ZM186.366 163.995C185.965 164.469 185.776 165.071 185.801 165.803C185.825 166.535 186.053 167.122 186.485 167.562C186.922 168.002 187.483 168.211 188.167 168.188C188.861 168.165 189.402 167.919 189.787 167.452C190.173 166.984 190.353 166.384 190.329 165.652C190.304 164.915 190.084 164.326 189.668 163.885C189.252 163.439 188.697 163.228 188.002 163.251C187.318 163.274 186.773 163.522 186.366 163.995ZM194.791 168.569C193.952 167.8 193.512 166.787 193.47 165.532C193.428 164.276 193.8 163.239 194.586 162.421C195.372 161.598 196.395 161.165 197.656 161.123C198.917 161.081 199.967 161.445 200.805 162.214C201.649 162.977 202.092 163.987 202.134 165.243C202.176 166.498 201.801 167.538 201.01 168.361C200.225 169.184 199.202 169.617 197.941 169.659C196.68 169.701 195.63 169.338 194.791 168.569ZM196.055 163.656C195.638 164.125 195.441 164.728 195.466 165.465C195.49 166.202 195.727 166.794 196.175 167.239C196.623 167.678 197.191 167.887 197.881 167.864C198.57 167.841 199.123 167.595 199.541 167.126C199.959 166.652 200.155 166.047 200.13 165.309C200.106 164.572 199.87 163.984 199.422 163.544C198.973 163.099 198.405 162.888 197.715 162.911C197.026 162.934 196.473 163.182 196.055 163.656ZM203.15 166.821L205.057 166.758C205.08 167.115 205.22 167.392 205.478 167.586C205.741 167.781 206.1 167.87 206.554 167.855C207.019 167.84 207.371 167.742 207.611 167.563C207.857 167.379 207.974 167.137 207.964 166.837C207.957 166.618 207.882 166.442 207.738 166.307C207.594 166.168 207.35 166.066 207.006 166.003L205.528 165.707C204.785 165.566 204.231 165.317 203.866 164.96C203.501 164.603 203.308 164.104 203.286 163.463C203.26 162.678 203.536 162.048 204.114 161.574C204.697 161.1 205.464 160.847 206.415 160.815C207.329 160.785 208.075 161 208.652 161.463C209.234 161.925 209.541 162.548 209.573 163.334L207.673 163.397C207.651 163.05 207.524 162.779 207.293 162.583C207.067 162.387 206.764 162.296 206.385 162.309C205.995 162.322 205.691 162.417 205.472 162.596C205.259 162.774 205.157 163.015 205.167 163.32C205.182 163.764 205.545 164.056 206.256 164.198L207.726 164.494C208.431 164.631 208.955 164.868 209.298 165.204C209.646 165.535 209.83 166.005 209.85 166.614C209.878 167.426 209.587 168.083 208.977 168.585C208.368 169.087 207.556 169.354 206.541 169.388C205.536 169.422 204.727 169.203 204.112 168.731C203.497 168.259 203.176 167.623 203.15 166.821ZM212.132 159.244C211.79 159.256 211.495 159.148 211.247 158.921C210.998 158.688 210.868 158.404 210.857 158.067C210.846 157.731 210.954 157.444 211.181 157.206C211.414 156.963 211.704 156.835 212.051 156.824C212.383 156.813 212.667 156.921 212.905 157.148C213.147 157.37 213.274 157.65 213.286 157.986C213.297 158.323 213.189 158.615 212.962 158.864C212.74 159.106 212.463 159.233 212.132 159.244ZM211.455 169.008L211.184 160.897L213.188 160.83L213.458 168.941L211.455 169.008ZM218.283 168.78L216.28 168.847L216.065 162.411L214.51 162.463L214.454 160.788L216.009 160.736L215.925 158.211L217.929 158.144L218.013 160.669L219.592 160.616L219.648 162.291L218.069 162.344L218.283 168.78ZM224.848 159.903C224.812 158.851 225.179 157.98 225.948 157.291C226.717 156.602 227.731 156.237 228.992 156.195C230.205 156.154 231.183 156.437 231.925 157.044C232.673 157.65 233.081 158.495 233.149 159.578L231.049 159.648C231.011 159.136 230.81 158.742 230.448 158.465C230.091 158.183 229.616 158.051 229.023 158.071C228.371 158.093 227.858 158.257 227.483 158.564C227.108 158.865 226.928 159.267 226.945 159.769C226.959 160.191 227.088 160.524 227.332 160.767C227.575 161.005 227.95 161.175 228.456 161.275L230.361 161.621C231.399 161.806 232.179 162.16 232.699 162.682C233.219 163.205 233.494 163.913 233.524 164.805C233.561 165.922 233.19 166.828 232.411 167.522C231.637 168.217 230.588 168.586 229.263 168.63C227.98 168.673 226.939 168.39 226.137 167.78C225.341 167.17 224.915 166.328 224.858 165.255L226.965 165.185C226.988 165.692 227.196 166.084 227.59 166.359C227.99 166.635 228.526 166.761 229.2 166.739C229.9 166.715 230.451 166.553 230.852 166.25C231.254 165.948 231.447 165.549 231.43 165.052C231.417 164.646 231.294 164.326 231.061 164.093C230.834 163.86 230.476 163.698 229.986 163.607L228.064 163.246C227.036 163.061 226.251 162.686 225.708 162.121C225.165 161.556 224.878 160.817 224.848 159.903ZM240.47 159.92L242.474 159.853L242.744 167.964L240.893 168.026L240.705 166.949C240.472 167.342 240.116 167.666 239.638 167.923C239.165 168.18 238.659 168.317 238.119 168.335C237.195 168.366 236.458 168.099 235.91 167.534C235.367 166.964 235.078 166.179 235.045 165.18L234.876 160.106L236.88 160.04L237.025 164.408C237.05 165.161 237.213 165.707 237.513 166.044C237.813 166.377 238.249 166.533 238.821 166.514C239.456 166.493 239.921 166.293 240.213 165.914C240.505 165.53 240.638 164.95 240.612 164.176L240.47 159.92ZM244.043 163.845C244.001 162.589 244.341 161.551 245.063 160.729C245.789 159.903 246.751 159.47 247.948 159.43C249.054 159.393 249.969 159.648 250.694 160.197C251.423 160.745 251.858 161.506 251.997 162.48L249.994 162.547C249.861 162.097 249.63 161.759 249.302 161.535C248.979 161.305 248.577 161.198 248.096 161.214C247.449 161.236 246.938 161.48 246.564 161.947C246.189 162.409 246.014 163.019 246.039 163.778C246.064 164.542 246.269 165.14 246.652 165.571C247.041 166.002 247.556 166.207 248.197 166.185C248.7 166.169 249.112 166.037 249.436 165.791C249.765 165.539 249.975 165.19 250.067 164.743L252.087 164.676C251.995 165.631 251.596 166.414 250.889 167.026C250.188 167.638 249.31 167.962 248.258 167.997C247.029 168.038 246.03 167.681 245.261 166.925C244.492 166.165 244.086 165.138 244.043 163.845ZM253.068 163.544C253.026 162.288 253.366 161.25 254.087 160.428C254.814 159.602 255.776 159.169 256.973 159.129C258.079 159.092 258.994 159.347 259.718 159.896C260.448 160.444 260.882 161.205 261.022 162.179L259.018 162.246C258.886 161.796 258.655 161.458 258.327 161.234C258.003 161.004 257.601 160.897 257.12 160.913C256.474 160.935 255.963 161.179 255.588 161.646C255.213 162.108 255.038 162.718 255.064 163.477C255.089 164.241 255.294 164.839 255.677 165.27C256.066 165.701 256.581 165.906 257.222 165.884C257.724 165.868 258.137 165.736 258.461 165.49C258.789 165.238 258.999 164.889 259.092 164.442L261.111 164.374C261.02 165.33 260.621 166.113 259.914 166.725C259.212 167.337 258.335 167.661 257.282 167.696C256.053 167.737 255.055 167.379 254.286 166.624C253.517 165.863 253.111 164.837 253.068 163.544ZM266.339 167.394C265.132 167.434 264.132 167.069 263.342 166.298C262.551 165.527 262.135 164.514 262.093 163.259C262.051 161.987 262.39 160.94 263.112 160.119C263.833 159.298 264.79 158.868 265.981 158.828C267.194 158.788 268.171 159.132 268.912 159.862C269.658 160.586 270.053 161.581 270.095 162.847L270.115 163.448L264.009 163.676C264.201 165.103 264.97 165.794 266.316 165.749C266.861 165.731 267.307 165.612 267.652 165.392C267.998 165.172 268.223 164.867 268.328 164.479L270.179 164.417C270.038 165.31 269.626 166.021 268.943 166.552C268.265 167.078 267.397 167.358 266.339 167.394ZM266.052 160.463C265.464 160.482 264.996 160.656 264.649 160.983C264.307 161.31 264.095 161.78 264.014 162.392L268.085 162.256C268.067 161.695 267.873 161.252 267.503 160.928C267.134 160.598 266.65 160.443 266.052 160.463ZM271.131 164.554L273.038 164.49C273.061 164.848 273.201 165.124 273.459 165.319C273.722 165.513 274.081 165.603 274.535 165.588C275 165.572 275.353 165.475 275.593 165.296C275.838 165.111 275.955 164.869 275.946 164.57C275.938 164.351 275.863 164.174 275.719 164.04C275.575 163.9 275.331 163.799 274.987 163.735L273.509 163.439C272.766 163.298 272.212 163.049 271.847 162.692C271.482 162.336 271.289 161.837 271.267 161.195C271.241 160.41 271.517 159.78 272.095 159.306C272.678 158.832 273.446 158.579 274.397 158.547C275.31 158.517 276.056 158.733 276.633 159.195C277.215 159.657 277.522 160.281 277.554 161.066L275.654 161.129C275.632 160.782 275.505 160.511 275.274 160.315C275.048 160.12 274.746 160.028 274.366 160.041C273.976 160.054 273.672 160.15 273.453 160.328C273.24 160.506 273.138 160.748 273.148 161.052C273.163 161.496 273.526 161.789 274.237 161.931L275.707 162.227C276.412 162.364 276.936 162.6 277.279 162.937C277.627 163.267 277.811 163.737 277.832 164.346C277.859 165.158 277.568 165.815 276.959 166.317C276.35 166.819 275.537 167.087 274.522 167.121C273.518 167.154 272.708 166.935 272.093 166.463C271.478 165.992 271.158 165.355 271.131 164.554ZM278.729 164.3L280.636 164.237C280.659 164.594 280.799 164.87 281.057 165.065C281.32 165.26 281.679 165.349 282.133 165.334C282.598 165.319 282.951 165.221 283.191 165.042C283.436 164.857 283.553 164.615 283.544 164.316C283.536 164.097 283.461 163.92 283.317 163.786C283.173 163.647 282.929 163.545 282.585 163.482L281.107 163.186C280.364 163.045 279.81 162.796 279.445 162.439C279.08 162.082 278.887 161.583 278.865 160.942C278.839 160.156 279.115 159.527 279.693 159.053C280.276 158.579 281.044 158.326 281.995 158.294C282.908 158.264 283.654 158.479 284.231 158.942C284.813 159.404 285.12 160.027 285.152 160.812L283.252 160.876C283.23 160.529 283.103 160.258 282.872 160.062C282.646 159.866 282.344 159.775 281.964 159.787C281.574 159.8 281.27 159.896 281.051 160.075C280.838 160.253 280.736 160.494 280.746 160.799C280.761 161.242 281.124 161.535 281.835 161.677L283.305 161.973C284.01 162.11 284.534 162.347 284.877 162.683C285.225 163.014 285.409 163.484 285.43 164.093C285.457 164.905 285.166 165.562 284.557 166.064C283.947 166.565 283.135 166.833 282.12 166.867C281.116 166.901 280.306 166.682 279.691 166.21C279.076 165.738 278.755 165.102 278.729 164.3ZM285.962 158.402L287.124 158.364L287.091 157.378C287.056 156.32 287.286 155.528 287.782 155.004C288.283 154.474 288.994 154.193 289.913 154.162C290.287 154.15 290.632 154.168 290.949 154.216L291.006 155.923L290.301 155.947C289.82 155.963 289.493 156.086 289.318 156.317C289.144 156.542 289.064 156.873 289.079 157.311L289.112 158.297L291.051 158.233L291.107 159.908L289.168 159.972L289.382 166.408L287.395 166.475L287.18 160.039L286.018 160.077L285.962 158.402ZM297.824 158.007L299.827 157.94L300.098 166.051L298.247 166.113L298.058 165.036C297.825 165.429 297.47 165.753 296.992 166.01C296.519 166.266 296.012 166.404 295.473 166.422C294.548 166.453 293.812 166.186 293.264 165.621C292.72 165.051 292.432 164.266 292.399 163.267L292.229 158.193L294.233 158.126L294.379 162.494C294.404 163.248 294.567 163.793 294.867 164.131C295.167 164.463 295.603 164.62 296.174 164.601C296.81 164.58 297.274 164.38 297.566 164.001C297.858 163.617 297.992 163.037 297.966 162.263L297.824 158.007ZM304.186 165.914L302.198 165.981L301.79 153.766L303.778 153.7L304.186 165.914Z" fill="#F5F5F5"/>
<path d="M165.283 192.677L165.25 191.69C164.486 191.67 163.865 191.465 163.388 191.072C162.914 190.676 162.649 190.144 162.593 189.476L163.738 189.437C163.761 189.804 163.904 190.098 164.166 190.322C164.428 190.542 164.778 190.666 165.217 190.697L165.122 187.835L164.709 187.759C163.326 187.495 162.615 186.768 162.575 185.578C162.553 184.924 162.76 184.374 163.194 183.929C163.629 183.484 164.219 183.217 164.965 183.128L164.932 182.13L165.667 182.105L165.699 183.093C166.401 183.133 166.966 183.348 167.395 183.738C167.827 184.128 168.073 184.655 168.133 185.32L167.022 185.357C166.987 184.991 166.858 184.7 166.633 184.483C166.409 184.262 166.109 184.131 165.733 184.091L165.828 186.941L166.28 187.027C167.655 187.289 168.362 187.993 168.401 189.142C168.423 189.822 168.216 190.387 167.778 190.836C167.343 191.281 166.746 191.552 165.985 191.648L166.018 192.653L165.283 192.677ZM164.906 186.753L165.087 186.792L164.998 184.116C164.573 184.186 164.243 184.345 164.008 184.593C163.777 184.836 163.667 185.141 163.679 185.508C163.702 186.17 164.11 186.585 164.906 186.753ZM166.083 188.034L165.863 187.996L165.952 190.65C166.384 190.579 166.719 190.422 166.958 190.178C167.197 189.934 167.311 189.633 167.299 189.274C167.276 188.604 166.871 188.191 166.083 188.034ZM170.832 184.073L169.087 184.131L169.053 183.116L171.875 183.021L172.152 191.33L171.075 191.366L170.832 184.073ZM173.535 187.134C173.491 185.84 173.767 184.786 174.361 183.972C174.96 183.158 175.779 182.734 176.818 182.699C177.503 182.676 178.109 182.838 178.637 183.183C179.169 183.525 179.585 184.019 179.883 184.664C180.182 185.306 180.345 186.053 180.374 186.905C180.417 188.211 180.147 189.265 179.564 190.067C178.984 190.865 178.164 191.281 177.106 191.317C176.399 191.34 175.78 191.183 175.248 190.845C174.72 190.503 174.308 190.015 174.014 189.381C173.723 188.743 173.563 187.994 173.535 187.134ZM174.651 187.096C174.685 188.125 174.916 188.922 175.343 189.488C175.77 190.055 176.346 190.326 177.072 190.301C177.798 190.277 178.351 189.968 178.732 189.375C179.116 188.782 179.291 187.971 179.257 186.943C179.222 185.903 178.993 185.098 178.57 184.528C178.15 183.958 177.578 183.685 176.852 183.709C176.123 183.734 175.564 184.046 175.176 184.647C174.791 185.244 174.616 186.06 174.651 187.096ZM181.501 186.868C181.458 185.574 181.734 184.52 182.328 183.706C182.926 182.892 183.745 182.468 184.785 182.434C185.47 182.411 186.076 182.572 186.604 182.918C187.136 183.259 187.551 183.753 187.85 184.398C188.148 185.04 188.312 185.787 188.34 186.64C188.384 187.945 188.114 188.999 187.53 189.801C186.95 190.599 186.131 191.016 185.073 191.051C184.366 191.075 183.746 190.917 183.215 190.579C182.686 190.238 182.275 189.75 181.981 189.115C181.69 188.477 181.53 187.728 181.501 186.868ZM182.618 186.831C182.652 187.859 182.883 188.657 183.31 189.223C183.737 189.789 184.313 190.06 185.039 190.036C185.764 190.011 186.317 189.703 186.698 189.11C187.083 188.516 187.258 187.706 187.224 186.677C187.189 185.637 186.96 184.832 186.537 184.262C186.117 183.692 185.544 183.419 184.819 183.443C184.089 183.468 183.531 183.78 183.143 184.381C182.758 184.978 182.583 185.795 182.618 186.831ZM189.468 186.602C189.425 185.308 189.7 184.254 190.295 183.44C190.893 182.627 191.712 182.203 192.752 182.168C193.436 182.145 194.043 182.306 194.571 182.652C195.103 182.994 195.518 183.487 195.817 184.132C196.115 184.774 196.278 185.521 196.307 186.374C196.35 187.679 196.08 188.733 195.497 189.535C194.917 190.333 194.098 190.75 193.039 190.785C192.332 190.809 191.713 190.652 191.181 190.314C190.653 189.972 190.242 189.484 189.947 188.85C189.656 188.212 189.497 187.462 189.468 186.602ZM190.584 186.565C190.619 187.593 190.849 188.391 191.276 188.957C191.703 189.523 192.28 189.794 193.005 189.77C193.731 189.746 194.284 189.437 194.665 188.844C195.05 188.251 195.225 187.44 195.19 186.411C195.156 185.371 194.927 184.567 194.503 183.997C194.084 183.426 193.511 183.153 192.785 183.178C192.056 183.202 191.497 183.515 191.109 184.115C190.725 184.712 190.55 185.529 190.584 186.565ZM202.582 190.456C201.987 190.476 201.513 190.336 201.158 190.037C200.808 189.738 200.624 189.33 200.606 188.814C200.589 188.298 200.759 187.881 201.115 187.562C201.471 187.239 201.979 187.04 202.64 186.966L204.402 186.767L204.397 186.61C204.382 186.161 204.253 185.839 204.011 185.645C203.769 185.451 203.444 185.361 203.036 185.374C202.583 185.39 202.235 185.497 201.991 185.696C201.75 185.895 201.636 186.164 201.647 186.505L200.705 186.536C200.685 185.953 200.89 185.476 201.32 185.106C201.749 184.736 202.327 184.539 203.052 184.515C203.77 184.491 204.345 184.662 204.777 185.03C205.208 185.397 205.437 185.95 205.461 186.686L205.579 190.215L204.659 190.246L204.511 189.341C204.379 189.668 204.139 189.932 203.79 190.135C203.441 190.333 203.038 190.441 202.582 190.456ZM202.863 189.604C203.371 189.587 203.766 189.418 204.048 189.098C204.333 188.778 204.466 188.354 204.449 187.827L204.439 187.529L203.006 187.689C202.115 187.802 201.68 188.153 201.699 188.744C201.709 189.036 201.816 189.255 202.019 189.402C202.226 189.548 202.507 189.616 202.863 189.604ZM209.331 190.231C208.527 190.257 207.88 190.008 207.391 189.481C206.902 188.954 206.642 188.255 206.613 187.384C206.584 186.505 206.799 185.781 207.26 185.211C207.72 184.638 208.36 184.338 209.179 184.31C209.613 184.296 210.003 184.374 210.349 184.546C210.699 184.718 210.976 184.973 211.178 185.311L211.053 181.569L212.125 181.533L212.407 189.988L211.442 190.02L211.312 189.002C211.142 189.386 210.882 189.683 210.533 189.893C210.188 190.103 209.788 190.215 209.331 190.231ZM209.517 189.241C210.063 189.223 210.489 189.027 210.795 188.654C211.105 188.277 211.249 187.791 211.23 187.196C211.21 186.613 211.033 186.143 210.699 185.787C210.369 185.431 209.931 185.262 209.385 185.281C208.843 185.299 208.421 185.496 208.119 185.873C207.82 186.246 207.681 186.727 207.701 187.314C207.72 187.905 207.892 188.378 208.214 188.735C208.541 189.091 208.975 189.26 209.517 189.241ZM216.221 190.001C215.417 190.028 214.77 189.778 214.28 189.251C213.791 188.724 213.532 188.025 213.503 187.154C213.474 186.275 213.689 185.551 214.149 184.981C214.609 184.408 215.249 184.108 216.068 184.08C216.502 184.066 216.892 184.145 217.239 184.317C217.589 184.488 217.865 184.743 218.067 185.081L217.943 181.339L219.014 181.303L219.296 189.758L218.331 189.79L218.202 188.772C218.031 189.156 217.771 189.453 217.423 189.663C217.078 189.873 216.677 189.986 216.221 190.001ZM216.407 189.012C216.953 188.993 217.379 188.798 217.685 188.424C217.994 188.047 218.139 187.561 218.119 186.966C218.1 186.383 217.923 185.913 217.589 185.557C217.259 185.201 216.821 185.033 216.275 185.051C215.732 185.069 215.31 185.266 215.008 185.643C214.71 186.017 214.571 186.497 214.59 187.084C214.61 187.675 214.781 188.149 215.104 188.505C215.43 188.861 215.864 189.03 216.407 189.012ZM223.279 189.765C222.452 189.793 221.771 189.542 221.237 189.013C220.703 188.485 220.421 187.784 220.392 186.913C220.363 186.034 220.591 185.311 221.078 184.745C221.568 184.174 222.221 183.875 223.036 183.848C223.837 183.821 224.485 184.052 224.98 184.541C225.48 185.03 225.743 185.692 225.771 186.526L225.784 186.93L221.442 187.086C221.503 187.679 221.691 188.13 222.004 188.437C222.318 188.741 222.74 188.885 223.271 188.867C224.131 188.838 224.646 188.492 224.815 187.827L225.824 187.793C225.706 188.4 225.426 188.876 224.985 189.22C224.543 189.56 223.974 189.742 223.279 189.765ZM223.067 184.757C222.595 184.773 222.22 184.92 221.941 185.199C221.662 185.478 221.495 185.865 221.441 186.361L224.683 186.253C224.668 185.786 224.513 185.416 224.22 185.145C223.926 184.87 223.542 184.741 223.067 184.757ZM229.338 189.563C228.534 189.59 227.887 189.34 227.397 188.814C226.908 188.287 226.649 187.588 226.62 186.716C226.59 185.837 226.806 185.113 227.266 184.544C227.726 183.97 228.366 183.67 229.185 183.643C229.619 183.628 230.009 183.707 230.356 183.879C230.706 184.051 230.982 184.306 231.184 184.643L231.059 180.901L232.131 180.865L232.413 189.32L231.448 189.352L231.319 188.335C231.148 188.718 230.888 189.015 230.54 189.225C230.195 189.435 229.794 189.548 229.338 189.563ZM229.524 188.574C230.07 188.556 230.496 188.36 230.802 187.987C231.111 187.609 231.256 187.123 231.236 186.529C231.216 185.945 231.04 185.476 230.706 185.12C230.376 184.764 229.938 184.595 229.392 184.613C228.849 184.631 228.427 184.829 228.125 185.206C227.827 185.579 227.687 186.059 227.707 186.646C227.727 187.237 227.898 187.711 228.221 188.067C228.547 188.423 228.981 188.592 229.524 188.574ZM238.697 189.111L237.614 189.147L237.457 184.434L236.357 184.471L236.327 183.567L237.427 183.531L237.368 181.769L238.451 181.733L238.509 183.495L239.609 183.458L239.639 184.361L238.539 184.398L238.697 189.111ZM241.148 188.338C240.58 187.803 240.281 187.103 240.252 186.239C240.223 185.375 240.475 184.659 241.006 184.091C241.541 183.519 242.233 183.219 243.082 183.19C243.924 183.162 244.629 183.416 245.197 183.951C245.769 184.483 246.069 185.18 246.098 186.044C246.127 186.908 245.874 187.626 245.339 188.198C244.807 188.77 244.121 189.07 243.279 189.098C242.43 189.126 241.72 188.873 241.148 188.338ZM241.803 184.755C241.475 185.133 241.321 185.616 241.341 186.203C241.36 186.79 241.546 187.263 241.899 187.622C242.252 187.981 242.701 188.151 243.247 188.133C243.79 188.115 244.225 187.915 244.553 187.534C244.884 187.152 245.041 186.667 245.021 186.08C245.001 185.493 244.813 185.022 244.457 184.667C244.104 184.308 243.657 184.137 243.114 184.155C242.568 184.174 242.131 184.374 241.803 184.755ZM252.117 188.663L251.034 188.699L250.877 183.986L249.777 184.023L249.747 183.12L250.846 183.083L250.788 181.322L251.87 181.285L251.929 183.047L253.029 183.01L253.059 183.914L251.959 183.95L252.117 188.663ZM255.269 188.547L254.186 188.583L253.905 180.139L254.988 180.103L255.111 183.8C255.284 183.48 255.532 183.223 255.855 183.028C256.181 182.834 256.558 182.73 256.984 182.716C257.687 182.692 258.224 182.882 258.593 183.285C258.966 183.685 259.164 184.253 259.189 184.99L259.303 188.423L258.221 188.459L258.114 185.267C258.096 184.721 257.963 184.323 257.715 184.073C257.47 183.819 257.137 183.699 256.714 183.713C256.209 183.73 255.82 183.906 255.547 184.241C255.277 184.572 255.15 184.988 255.167 185.489L255.269 188.547ZM263.224 188.433C262.398 188.46 261.717 188.21 261.183 187.681C260.648 187.152 260.367 186.452 260.338 185.58C260.308 184.701 260.537 183.979 261.023 183.412C261.514 182.842 262.166 182.543 262.982 182.515C263.782 182.489 264.43 182.72 264.926 183.209C265.425 183.698 265.689 184.359 265.717 185.193L265.73 185.597L261.388 185.753C261.449 186.347 261.636 186.797 261.95 187.105C262.263 187.409 262.685 187.552 263.217 187.534C264.077 187.506 264.591 187.159 264.76 186.494L265.77 186.461C265.652 187.068 265.372 187.543 264.93 187.887C264.488 188.228 263.92 188.41 263.224 188.433ZM263.012 183.424C262.541 183.44 262.166 183.587 261.887 183.866C261.608 184.145 261.441 184.533 261.386 185.029L264.629 184.921C264.613 184.453 264.459 184.084 264.165 183.813C263.871 183.538 263.487 183.408 263.012 183.424ZM272.425 188.126C271.621 188.153 270.974 187.903 270.485 187.376C269.995 186.85 269.736 186.151 269.707 185.279C269.678 184.4 269.893 183.676 270.354 183.106C270.814 182.533 271.453 182.233 272.272 182.206C272.706 182.191 273.097 182.27 273.443 182.442C273.793 182.614 274.069 182.868 274.272 183.206L274.147 179.464L275.218 179.428L275.5 187.883L274.535 187.915L274.406 186.897C274.235 187.281 273.976 187.578 273.627 187.788C273.282 187.998 272.881 188.111 272.425 188.126ZM272.611 187.137C273.157 187.119 273.583 186.923 273.889 186.549C274.198 186.172 274.343 185.686 274.323 185.091C274.304 184.508 274.127 184.038 273.793 183.683C273.463 183.327 273.025 183.158 272.479 183.176C271.937 183.194 271.514 183.392 271.213 183.769C270.914 184.142 270.775 184.622 270.794 185.209C270.814 185.8 270.985 186.274 271.308 186.63C271.634 186.986 272.069 187.155 272.611 187.137ZM279.483 187.891C278.656 187.918 277.976 187.667 277.441 187.139C276.907 186.61 276.625 185.91 276.596 185.038C276.567 184.159 276.796 183.436 277.282 182.87C277.772 182.299 278.425 182 279.241 181.973C280.041 181.946 280.689 182.178 281.185 182.666C281.684 183.155 281.947 183.817 281.975 184.651L281.989 185.055L277.647 185.211C277.708 185.804 277.895 186.255 278.209 186.563C278.522 186.867 278.944 187.01 279.475 186.992C280.336 186.963 280.85 186.617 281.019 185.952L282.029 185.918C281.91 186.525 281.631 187.001 281.189 187.345C280.747 187.685 280.179 187.867 279.483 187.891ZM279.271 182.882C278.8 182.898 278.424 183.045 278.145 183.324C277.866 183.603 277.7 183.99 277.645 184.486L280.888 184.378C280.872 183.911 280.718 183.541 280.424 183.27C280.13 182.996 279.746 182.866 279.271 182.882ZM283.366 190.142L283.095 182.007L284.071 181.975L284.189 182.982C284.363 182.598 284.625 182.299 284.973 182.085C285.322 181.871 285.724 181.757 286.18 181.742C286.977 181.715 287.62 181.965 288.11 182.492C288.599 183.015 288.858 183.712 288.887 184.583C288.916 185.462 288.708 186.19 288.263 186.766C287.818 187.343 287.19 187.645 286.378 187.672C285.926 187.687 285.521 187.609 285.163 187.437C284.805 187.262 284.529 187.005 284.334 186.667L284.449 190.106L283.366 190.142ZM284.282 184.782C284.302 185.369 284.477 185.84 284.807 186.196C285.137 186.552 285.573 186.721 286.116 186.703C286.658 186.685 287.08 186.488 287.382 186.111C287.688 185.733 287.831 185.251 287.811 184.664C287.792 184.073 287.617 183.6 287.287 183.244C286.96 182.888 286.526 182.719 285.983 182.737C285.437 182.755 285.011 182.953 284.706 183.33C284.404 183.703 284.263 184.187 284.282 184.782ZM290.608 186.688C290.04 186.153 289.742 185.453 289.713 184.589C289.684 183.725 289.935 183.009 290.467 182.441C291.002 181.869 291.694 181.569 292.543 181.541C293.385 181.513 294.089 181.766 294.658 182.301C295.23 182.833 295.53 183.53 295.559 184.394C295.588 185.258 295.334 185.976 294.799 186.548C294.268 187.12 293.582 187.42 292.74 187.448C291.891 187.477 291.18 187.223 290.608 186.688ZM291.264 183.105C290.936 183.483 290.782 183.966 290.801 184.553C290.821 185.14 291.007 185.613 291.36 185.972C291.712 186.331 292.162 186.502 292.708 186.483C293.25 186.465 293.685 186.265 294.013 185.884C294.345 185.502 294.501 185.017 294.482 184.43C294.462 183.843 294.274 183.372 293.918 183.017C293.565 182.658 293.118 182.487 292.575 182.506C292.029 182.524 291.592 182.724 291.264 183.105ZM296.333 185.554L297.371 185.519C297.381 185.807 297.489 186.03 297.697 186.188C297.908 186.342 298.191 186.413 298.546 186.401C298.924 186.388 299.215 186.306 299.42 186.153C299.624 186 299.722 185.794 299.714 185.536C299.707 185.338 299.644 185.183 299.524 185.071C299.408 184.955 299.207 184.864 298.92 184.799L297.925 184.602C297.419 184.499 297.043 184.324 296.795 184.078C296.547 183.832 296.416 183.503 296.403 183.091C296.386 182.579 296.568 182.163 296.951 181.843C297.333 181.523 297.837 181.353 298.462 181.332C299.075 181.311 299.572 181.454 299.953 181.76C300.338 182.065 300.544 182.485 300.573 183.019L299.541 183.054C299.52 182.77 299.416 182.549 299.227 182.39C299.038 182.232 298.781 182.158 298.456 182.169C298.119 182.18 297.86 182.262 297.678 182.414C297.499 182.562 297.414 182.765 297.423 183.023C297.435 183.394 297.72 183.641 298.279 183.764L299.274 183.973C299.764 184.072 300.129 184.238 300.369 184.47C300.609 184.698 300.736 185.017 300.749 185.429C300.767 185.96 300.574 186.391 300.169 186.723C299.764 187.055 299.226 187.232 298.552 187.254C297.894 187.276 297.363 187.133 296.96 186.824C296.56 186.512 296.351 186.088 296.333 185.554ZM302.792 179.806C302.658 179.949 302.492 180.024 302.294 180.03C302.095 180.037 301.925 179.973 301.782 179.84C301.639 179.702 301.564 179.536 301.557 179.342C301.551 179.14 301.614 178.969 301.748 178.83C301.882 178.687 302.048 178.612 302.246 178.605C302.444 178.599 302.615 178.662 302.758 178.796C302.901 178.926 302.976 179.092 302.982 179.294C302.989 179.488 302.925 179.659 302.792 179.806ZM301.998 186.999L301.811 181.383L302.893 181.347L303.081 186.963L301.998 186.999ZM306.234 186.858L305.151 186.894L304.994 182.181L303.894 182.218L303.864 181.315L304.964 181.278L304.905 179.516L305.988 179.48L306.046 181.242L307.146 181.205L307.176 182.108L306.077 182.145L306.234 186.858Z" fill="#F5F5F5" fill-opacity="0.8"/>
<defs>
<filter id="filter0_d_203_2332" x="0.710668" y="5.49787" width="289.47" height="179.639" filterUnits="userSpaceOnUse" color-interpolation-filters="sRGB">
<feFlood flood-opacity="0" result="BackgroundImageFix"/>
<feColorMatrix in="SourceAlpha" type="matrix" values="0 0 0 0 0 0 0 0 0 0 0 0 0 0 0 0 0 0 127 0" result="hardAlpha"/>
<feOffset dy="1.09726"/>
<feGaussianBlur stdDeviation="1.64589"/>
<feComposite in2="hardAlpha" operator="out"/>
<feColorMatrix type="matrix" values="0 0 0 0 0.0509804 0 0 0 0 0.0392157 0 0 0 0 0.172549 0 0 0 0.08 0"/>
<feBlend mode="normal" in2="BackgroundImageFix" result="effect1_dropShadow_203_2332"/>
<feBlend mode="normal" in="SourceGraphic" in2="effect1_dropShadow_203_2332" result="shape"/>
</filter>
<clipPath id="clip0_203_2332">
<rect width="21.3504" height="21.3504" fill="white" transform="translate(120.37 166.368) rotate(-1.91054)"/>
</clipPath>
</defs>
</svg>
