<svg width="53" height="52" viewBox="0 0 53 52" fill="none" xmlns="http://www.w3.org/2000/svg">
<rect x="0.666504" width="52" height="52" rx="18" fill="#6C78FF"/>
<path d="M22.2517 28.4979C23.2587 29.7621 23.8032 30.7442 23.8032 32.3067C23.8032 32.6114 24.0518 32.8599 24.3564 32.8599H28.5162C28.6631 32.8599 28.8036 32.8015 28.9062 32.6967C29.011 32.5919 29.0694 32.4536 29.0694 32.3067C29.0694 30.7497 29.6193 29.759 30.635 28.4819C31.4809 27.4144 31.844 26.455 31.844 25.2795C31.844 23.6447 31.1168 22.1149 29.8473 21.083C28.5778 20.0511 26.9129 19.6524 25.2801 19.9928C22.7746 20.5157 20.9874 22.7781 21.0338 25.3723C21.0544 26.5176 21.4198 27.4488 22.2517 28.4979Z" fill="white"/>
<path d="M26.0657 36.8728H26.8068C27.2131 36.8728 27.5426 36.5432 27.5426 36.137V35.9047H27.7198C28.3087 35.9047 28.7873 35.426 28.7873 34.8372V33.6919H24.0852V34.8372C24.0852 35.426 24.5639 35.9047 25.1527 35.9047H25.3299V36.137C25.331 36.5443 25.6626 36.8728 26.0657 36.8728Z" fill="white"/>
<path d="M19.3843 25.394C19.3843 25.0893 19.1358 24.8408 18.8311 24.8408H16.3418C16.0371 24.8408 15.7886 25.0893 15.7886 25.394C15.7886 25.6987 16.0371 25.9472 16.3418 25.9472H18.8311C19.138 25.9472 19.3843 25.6987 19.3843 25.394Z" fill="white"/>
<path d="M36.2567 24.8408H33.7673C33.4626 24.8408 33.2141 25.0893 33.2141 25.394C33.2141 25.6987 33.4626 25.9472 33.7673 25.9472H36.2567C36.5614 25.9472 36.8099 25.6987 36.8099 25.394C36.8099 25.0904 36.5635 24.8408 36.2567 24.8408Z" fill="white"/>
<path d="M19.6101 32.7269L21.3691 30.9679C21.5852 30.7518 21.5852 30.4006 21.3691 30.1856C21.153 29.9695 20.8018 29.9695 20.5868 30.1856L18.8278 31.9446C18.6117 32.1607 18.6117 32.5119 18.8278 32.7269C18.9359 32.8349 19.0763 32.89 19.2179 32.89C19.3584 32.89 19.5031 32.8349 19.6101 32.7269Z" fill="white"/>
<path d="M31.6204 20.764C31.762 20.764 31.9024 20.7089 32.0105 20.6009L33.7695 18.8419C33.9855 18.6258 33.9855 18.2746 33.7695 18.0597C33.5534 17.8436 33.2022 17.8436 32.9872 18.0597L31.2282 19.8186C31.0121 20.0347 31.0121 20.3859 31.2282 20.6009C31.3384 20.7089 31.4789 20.764 31.6204 20.764Z" fill="white"/>
<path d="M32.0127 30.1847C31.7966 29.9686 31.4454 29.9686 31.2304 30.1847C31.0143 30.4007 31.0143 30.7519 31.2304 30.9669L32.9894 32.7259C33.0975 32.8339 33.2379 32.889 33.3795 32.889C33.521 32.889 33.6615 32.8339 33.7695 32.7259C33.9856 32.5098 33.9856 32.1586 33.7695 31.9436L32.0127 30.1847Z" fill="white"/>
<path d="M20.587 20.6009C20.695 20.7089 20.8355 20.764 20.9771 20.764C21.1186 20.764 21.259 20.7089 21.3671 20.6009C21.5832 20.3848 21.5832 20.0336 21.3671 19.8186L19.6081 18.0597C19.392 17.8436 19.0409 17.8436 18.8259 18.0597C18.6098 18.2757 18.6098 18.6269 18.8259 18.8419L20.587 20.6009Z" fill="white"/>
<path d="M26.4375 18.6174C26.7422 18.6174 26.9907 18.3688 26.9907 18.0642V15.5748C26.9907 15.2701 26.7422 15.0216 26.4375 15.0216C26.1328 15.0216 25.8843 15.2701 25.8843 15.5748V18.0642C25.8843 18.3689 26.1328 18.6174 26.4375 18.6174Z" fill="white"/>
</svg>
