<svg width="52" height="52" viewBox="0 0 52 52" fill="none" xmlns="http://www.w3.org/2000/svg">
<rect width="52" height="52" rx="18" fill="#6C78FF"/>
<path fill-rule="evenodd" clip-rule="evenodd" d="M26.3598 25.9415V30.7233L27.3759 29.7071C27.5168 29.5663 27.7464 29.5663 27.8873 29.7071C28.0281 29.848 28.0281 30.0776 27.8873 30.2163L26.2536 31.85C26.1128 31.9908 25.8831 31.9908 25.7423 31.85L24.1086 30.2163C23.9678 30.0754 23.9678 29.8458 24.1086 29.7071C24.2494 29.5663 24.4791 29.5663 24.6178 29.7071L25.6339 30.7233V25.9415C25.6339 25.7421 25.7964 25.5796 25.9958 25.5796C26.1951 25.5796 26.3598 25.7421 26.3598 25.9415ZM36.7988 35.7435L33.9908 29.6855C33.9604 29.6205 33.9171 29.5706 33.8651 29.5381C33.8153 29.5056 33.7503 29.4883 33.6788 29.4883H28.6066C28.8038 29.8913 28.7344 30.3918 28.3986 30.7276L26.7649 32.3613C26.7129 32.4133 26.6566 32.4588 26.5981 32.4978H30.5544C30.7538 32.4978 30.9163 32.6603 30.9163 32.8596C30.9163 33.059 30.7538 33.2215 30.5544 33.2215H21.4436C21.2443 33.2215 21.0818 33.059 21.0818 32.8596C21.0818 32.6603 21.2421 32.4978 21.4436 32.4978H25.3999C25.3414 32.4588 25.2851 32.4133 25.2353 32.3613L23.6016 30.7276C23.2679 30.394 23.1964 29.8913 23.3936 29.4883H18.3193C18.2478 29.4883 18.1828 29.5056 18.1329 29.5381C18.0809 29.5706 18.0376 29.6205 18.0094 29.6855L15.2014 35.7435C15.1754 35.7998 15.1646 35.8561 15.1668 35.9125C15.1711 35.9666 15.1884 36.0208 15.2209 36.0728C15.2556 36.1248 15.2968 36.1638 15.3444 36.1898C15.3921 36.2158 15.4484 36.2288 15.5091 36.2288H36.4868C36.5496 36.2288 36.6059 36.2158 36.6514 36.1898C36.7013 36.1638 36.7424 36.1248 36.7749 36.0728C36.8074 36.0208 36.8269 35.9666 36.8291 35.9125C36.8356 35.8561 36.8248 35.7998 36.7988 35.7435ZM22.9776 23.0663C22.2041 22.2928 21.7274 21.2246 21.7274 20.0438C21.7274 18.8651 22.2063 17.7948 22.9776 17.0235C23.7511 16.25 24.8214 15.7711 26.0001 15.7711C27.1809 15.7711 28.2491 16.25 29.0226 17.0235C29.7961 17.797 30.2728 18.8651 30.2728 20.0438C30.2728 21.2246 29.7939 22.2928 29.0226 23.0663C28.2491 23.8398 27.1809 24.3165 26.0001 24.3165C24.8214 24.3165 23.7511 23.8398 22.9776 23.0663ZM24.5138 21.0816C24.5658 21.203 24.6243 21.3135 24.6893 21.4131C24.9384 21.7945 25.2808 22.022 25.6383 22.1238V22.6026C25.6383 22.802 25.8008 22.9645 26.0001 22.9645C26.1994 22.9645 26.3619 22.802 26.3619 22.6026V22.1693C26.4919 22.1498 26.6154 22.1151 26.7324 22.0653C26.8169 22.0306 26.8949 21.9895 26.9686 21.9396C27.0423 21.8898 27.1116 21.8335 27.1766 21.7685C27.3543 21.5843 27.4713 21.3503 27.5059 21.1033C27.5384 20.8498 27.4886 20.5833 27.3348 20.3471C27.2893 20.2756 27.2308 20.2085 27.1636 20.1435C26.9209 19.9051 26.5938 19.8271 26.2493 19.747C25.9568 19.6776 25.6469 19.6061 25.4736 19.4263C25.4346 19.3851 25.4043 19.3331 25.3848 19.2768C25.3566 19.1966 25.3523 19.1056 25.3718 19.019C25.3913 18.9345 25.4324 18.8543 25.4974 18.7915C25.5473 18.7416 25.6144 18.7005 25.6968 18.6723C25.7249 18.6636 25.7509 18.655 25.7769 18.6485C25.9741 18.5986 26.1973 18.6051 26.3879 18.6745C26.5504 18.7351 26.6826 18.8456 26.7411 19.0125C26.7454 19.0298 26.7498 19.045 26.7541 19.0601C26.8018 19.253 26.9968 19.3721 27.1918 19.3245C27.3846 19.2768 27.5016 19.0818 27.4561 18.889C27.4474 18.85 27.4366 18.8153 27.4258 18.7828C27.2893 18.3841 26.9924 18.1306 26.6393 17.9985C26.5526 17.966 26.4616 17.9421 26.3684 17.9248V17.485C26.3684 17.2856 26.2059 17.1231 26.0066 17.1231C25.8073 17.1231 25.6448 17.2835 25.6448 17.485V17.9421L25.6058 17.9508C25.5581 17.9638 25.5104 17.9768 25.4671 17.9898C25.2786 18.0548 25.1226 18.1523 24.9991 18.2736C24.8258 18.4426 24.7174 18.6485 24.6698 18.8651C24.6221 19.0796 24.6373 19.3028 24.7066 19.5065C24.7586 19.6603 24.8453 19.8055 24.9623 19.9268C25.2829 20.2561 25.6989 20.3558 26.0889 20.4468C26.3338 20.5053 26.5656 20.5595 26.6674 20.657C26.6934 20.683 26.7151 20.709 26.7368 20.7393C26.7909 20.8238 26.8104 20.917 26.7974 21.0036C26.7844 21.099 26.7389 21.19 26.6674 21.2636C26.6436 21.2896 26.6133 21.3135 26.5808 21.3351C26.5439 21.359 26.5049 21.3806 26.4616 21.398C26.2861 21.4716 26.0673 21.489 25.8593 21.4326C25.6513 21.3763 25.4498 21.2441 25.3003 21.0166C25.2591 20.9516 25.2201 20.8801 25.1876 20.8021C25.1118 20.618 24.8994 20.5313 24.7153 20.6071C24.5246 20.6873 24.4358 20.8975 24.5138 21.0816Z" fill="white"/>
</svg>
