<svg width="53" height="52" viewBox="0 0 53 52" fill="none" xmlns="http://www.w3.org/2000/svg">
<rect x="0.333496" width="52" height="52" rx="18" fill="#6C78FF"/>
<path fill-rule="evenodd" clip-rule="evenodd" d="M19.6417 28.3584C19.8503 28.8206 19.8903 29.3414 19.7545 29.83C19.6187 30.3185 19.3159 30.744 18.8987 31.0323C18.4816 31.3206 17.9765 31.4535 17.4714 31.4077C16.9664 31.362 16.4934 31.1405 16.1348 30.782C15.7763 30.4234 15.5548 29.9504 15.5091 29.4454C15.4633 28.9403 15.5962 28.4353 15.8845 28.0181C16.1728 27.6009 16.5983 27.2981 17.0869 27.1623C17.5754 27.0266 18.0962 27.0665 18.5584 27.2751L21.1085 24.7249C20.9596 24.395 20.8958 24.0329 20.9228 23.6719C20.9499 23.3109 21.067 22.9624 21.2634 22.6583C21.4598 22.3542 21.7293 22.1041 22.0472 21.931C22.3652 21.7578 22.7214 21.6671 23.0834 21.6671C23.4455 21.6671 23.8017 21.7578 24.1197 21.931C24.4376 22.1041 24.7071 22.3542 24.9035 22.6583C25.0999 22.9624 25.217 23.3109 25.2441 23.6719C25.2711 24.0329 25.2073 24.395 25.0584 24.7249L27.6085 27.2751C27.8887 27.1486 28.1927 27.0832 28.5001 27.0832C28.8076 27.0832 29.1115 27.1486 29.3917 27.2751L33.0252 23.6416C32.8166 23.1794 32.7766 22.6587 32.9124 22.1701C33.0482 21.6815 33.351 21.256 33.7682 20.9677C34.1853 20.6794 34.6904 20.5466 35.1955 20.5923C35.7005 20.6381 36.1735 20.8595 36.532 21.2181C36.8906 21.5767 37.1121 22.0497 37.1578 22.5547C37.2036 23.0597 37.0707 23.5648 36.7824 23.982C36.4941 24.3991 36.0686 24.702 35.58 24.8377C35.0914 24.9735 34.5707 24.9336 34.1085 24.7249L30.475 28.3584C30.6239 28.6884 30.6878 29.0505 30.6607 29.4115C30.6337 29.7725 30.5166 30.121 30.3202 30.4251C30.1238 30.7292 29.8543 30.9793 29.5363 31.1524C29.2184 31.3256 28.8621 31.4163 28.5001 31.4163C28.1381 31.4163 27.7818 31.3256 27.4639 31.1524C27.146 30.9793 26.8765 30.7292 26.68 30.4251C26.4836 30.121 26.3666 29.7725 26.3395 29.4115C26.3125 29.0505 26.3763 28.6884 26.5252 28.3584L23.975 25.8083C23.6948 25.9348 23.3909 26.0002 23.0834 26.0002C22.776 26.0002 22.4721 25.9348 22.1919 25.8083L19.6417 28.3584Z" fill="white"/>
</svg>
