<svg width="24" height="24" viewBox="0 0 24 24" fill="none" xmlns="http://www.w3.org/2000/svg">
<path d="M10.923 21.1666C10.5105 21.1666 10.1555 21.0291 9.85785 20.7541C9.56024 20.4791 9.38058 20.143 9.31885 19.7458L9.1126 18.2333C8.91399 18.1569 8.72699 18.0652 8.5516 17.9583C8.37622 17.8513 8.20419 17.7367 8.03552 17.6145L6.61469 18.2103C6.23274 18.3784 5.8508 18.3937 5.46885 18.2562C5.08691 18.1187 4.78899 17.8742 4.5751 17.5228L3.49802 15.6437C3.28413 15.2923 3.22302 14.918 3.31469 14.5208C3.40635 14.1235 3.6126 13.7951 3.93344 13.5353L5.14802 12.6187C5.13274 12.5117 5.1251 12.4084 5.1251 12.3088V11.6901C5.1251 11.5911 5.13274 11.4881 5.14802 11.3812L3.93344 10.4645C3.6126 10.2048 3.40635 9.87631 3.31469 9.47908C3.22302 9.08186 3.28413 8.70756 3.49802 8.35617L4.5751 6.477C4.78899 6.12561 5.08691 5.88117 5.46885 5.74367C5.8508 5.60617 6.23274 5.62145 6.61469 5.7895L8.03552 6.38534C8.20358 6.26311 8.37927 6.14853 8.5626 6.04159C8.74594 5.93464 8.92927 5.84297 9.1126 5.76658L9.31885 4.25409C9.37997 3.85686 9.55963 3.52075 9.85785 3.24575C10.1561 2.97075 10.5111 2.83325 10.923 2.83325H13.0772C13.4897 2.83325 13.845 2.97075 14.1433 3.24575C14.4415 3.52075 14.6209 3.85686 14.6814 4.25409L14.8876 5.76658C15.0862 5.84297 15.2735 5.93464 15.4495 6.04159C15.6255 6.14853 15.7972 6.26311 15.9647 6.38534L17.3855 5.7895C17.7675 5.62145 18.1494 5.60617 18.5314 5.74367C18.9133 5.88117 19.2112 6.12561 19.4251 6.477L20.5022 8.35617C20.7161 8.70756 20.7772 9.08186 20.6855 9.47908C20.5939 9.87631 20.3876 10.2048 20.0668 10.4645L18.8522 11.3812C18.8675 11.4881 18.8751 11.5914 18.8751 11.691V12.3088C18.8751 12.4084 18.8598 12.5117 18.8293 12.6187L20.0439 13.5353C20.3647 13.7951 20.5709 14.1235 20.6626 14.5208C20.7543 14.918 20.6932 15.2923 20.4793 15.6437L19.3793 17.5228C19.1654 17.8742 18.8675 18.1187 18.4855 18.2562C18.1036 18.3937 17.7216 18.3784 17.3397 18.2103L15.9647 17.6145C15.7966 17.7367 15.6209 17.8513 15.4376 17.9583C15.2543 18.0652 15.0709 18.1569 14.8876 18.2333L14.6814 19.7458C14.6202 20.143 14.4409 20.4791 14.1433 20.7541C13.8457 21.0291 13.4903 21.1666 13.0772 21.1666H10.923ZM12.0459 15.2083C12.932 15.2083 13.6883 14.8951 14.3147 14.2687C14.9411 13.6423 15.2543 12.886 15.2543 11.9999C15.2543 11.1138 14.9411 10.3576 14.3147 9.73117C13.6883 9.10478 12.932 8.79158 12.0459 8.79158C11.1445 8.79158 10.3843 9.10478 9.76527 9.73117C9.14622 10.3576 8.83699 11.1138 8.8376 11.9999C8.83822 12.886 9.14774 13.6423 9.76619 14.2687C10.3846 14.8951 11.1445 15.2083 12.0459 15.2083Z" fill="#6C78FF"/>
</svg>
