<svg width="24" height="24" viewBox="0 0 24 24" fill="none" xmlns="http://www.w3.org/2000/svg">
<path d="M22.2784 2.50482C22.3038 2.32671 22.2874 2.14513 22.2305 1.97445C22.1736 1.80376 22.0777 1.64866 21.9506 1.52142C21.8348 1.41037 21.6958 1.32649 21.5436 1.27588C21.3913 1.22527 21.2298 1.20919 21.0706 1.22882C14.4442 2.03402 10.6492 5.00182 8.47995 7.92342L7.46575 7.87062C7.10082 7.85177 6.73599 7.90979 6.39491 8.04092C6.05382 8.17205 5.74408 8.37336 5.48575 8.63182L3.90175 10.2158C3.8827 10.235 3.86864 10.2585 3.86081 10.2843C3.85297 10.3102 3.8516 10.3376 3.85682 10.3641C3.86203 10.3906 3.87367 10.4154 3.89071 10.4363C3.90775 10.4573 3.92967 10.4737 3.95455 10.4842L6.48015 11.5314C6.19522 12.25 5.96791 12.99 5.80035 13.7446C5.77114 13.8784 5.77597 14.0174 5.81441 14.1489C5.85284 14.2803 5.92366 14.4 6.02035 14.497L9.01675 17.4846C9.11374 17.5813 9.23345 17.6521 9.3649 17.6906C9.49635 17.729 9.63535 17.7338 9.76915 17.7046C10.5237 17.537 11.2638 17.3097 11.9824 17.0248L13.0296 19.5504C13.0401 19.5753 13.0565 19.5972 13.0775 19.6143C13.0984 19.6313 13.1232 19.6429 13.1497 19.6482C13.1762 19.6534 13.2036 19.652 13.2294 19.6442C13.2553 19.6363 13.2788 19.6223 13.298 19.6032L14.882 18.0192C15.1403 17.7608 15.3415 17.4511 15.4727 17.11C15.6038 16.7689 15.6619 16.4041 15.6432 16.0392L15.5904 15.025C18.5054 12.88 21.46 9.09162 22.2784 2.50482ZM13.9184 11.6018C13.7199 11.8003 13.4671 11.9355 13.1918 11.9903C12.9165 12.0451 12.6312 12.017 12.3719 11.9097C12.1126 11.8023 11.8909 11.6204 11.735 11.387C11.579 11.1537 11.4958 10.8793 11.4958 10.5986C11.4958 10.3179 11.579 10.0436 11.735 9.81021C11.8909 9.57685 12.1126 9.39497 12.3719 9.28759C12.6312 9.1802 12.9165 9.15213 13.1918 9.20692C13.4671 9.26172 13.7199 9.39692 13.9184 9.59542C14.184 9.86114 14.3334 10.2214 14.3338 10.5971C14.3342 10.9728 14.1856 11.3333 13.9206 11.5996L13.9184 11.6018ZM14.7984 8.72422C14.5369 8.46309 14.3588 8.13028 14.2866 7.76791C14.2144 7.40553 14.2512 7.02987 14.3925 6.68846C14.5338 6.34704 14.7732 6.05521 15.0804 5.84988C15.3876 5.64455 15.7488 5.53495 16.1184 5.53495C16.4879 5.53495 16.8491 5.64455 17.1563 5.84988C17.4635 6.05521 17.7029 6.34704 17.8442 6.68846C17.9855 7.02987 18.0224 7.40553 17.9501 7.76791C17.8779 8.13028 17.6998 8.46309 17.4384 8.72422C17.2647 8.89829 17.0583 9.03635 16.8312 9.13048C16.604 9.22461 16.3605 9.27296 16.1146 9.27276C15.8687 9.27255 15.6253 9.2238 15.3983 9.12929C15.1713 9.03478 14.9651 8.89638 14.7918 8.72202L14.7984 8.72422ZM3.39795 18.0258C2.95447 17.8713 2.4787 17.8334 2.01635 17.9158C1.9769 17.9229 1.93634 17.9203 1.89806 17.9085C1.85978 17.8966 1.82491 17.8757 1.79635 17.8476C1.7592 17.8112 1.7342 17.7641 1.72475 17.713C1.7153 17.6618 1.72187 17.6089 1.74355 17.5616C2.22315 16.499 3.54315 14.3628 5.90815 16.0876C5.92043 16.0988 5.93025 16.1123 5.93696 16.1275C5.94368 16.1426 5.94714 16.159 5.94714 16.1756C5.94714 16.1922 5.94368 16.2086 5.93696 16.2237C5.93025 16.2389 5.92043 16.2525 5.90815 16.2636C5.58883 16.5139 5.33312 16.836 5.16185 17.2038C4.99058 17.5715 4.90859 17.9746 4.92255 18.38C4.9242 18.4273 4.94373 18.4723 4.97721 18.5058C5.01069 18.5392 5.05563 18.5588 5.10295 18.5604C5.50566 18.5765 5.90652 18.498 6.27333 18.331C6.64014 18.164 6.96265 17.9133 7.21495 17.599C7.2261 17.5856 7.24006 17.5749 7.25584 17.5675C7.27162 17.5601 7.28883 17.5562 7.30625 17.5562C7.32368 17.5562 7.34089 17.5601 7.35667 17.5675C7.37245 17.5749 7.3864 17.5856 7.39755 17.599C7.72755 17.9928 8.63395 19.271 7.63075 20.5074C7.18899 21.0356 6.55636 21.3677 5.87075 21.4314C4.89175 21.5392 3.09215 21.8472 2.35075 22.6942C2.32143 22.7302 2.28277 22.7574 2.239 22.7729C2.19523 22.7884 2.14805 22.7916 2.10261 22.782C2.05718 22.7725 2.01525 22.7506 1.98141 22.7188C1.94756 22.687 1.92312 22.6466 1.91075 22.6018C1.65995 21.713 1.26615 19.733 3.39795 18.0258Z" fill="#6C78FF"/>
</svg>
