<svg width="20" height="21" viewBox="0 0 20 21" fill="none" xmlns="http://www.w3.org/2000/svg">
<path d="M16.4719 15.1781C16.0531 14.8219 15.4563 14.7875 15 15.0563L14.15 14.2063C14.8719 13.3813 15.3125 12.3063 15.3125 11.125C15.3125 8.54062 13.2094 6.4375 10.625 6.4375C8.04063 6.4375 5.9375 8.54062 5.9375 11.125C5.9375 13.7094 8.04063 15.8125 10.625 15.8125C11.8063 15.8125 12.8813 15.3719 13.7063 14.65L14.5563 15.5C14.2875 15.9563 14.3188 16.5531 14.6781 16.975L16.7719 19.4313C17 19.7 17.3344 19.8625 17.6906 19.8781H17.7406C18.0781 19.8781 18.4031 19.7437 18.6406 19.5063L19 19.1469C19.25 18.8969 19.3844 18.55 19.3719 18.1969C19.3594 17.8438 19.1938 17.5094 18.925 17.2781L16.4688 15.1844L16.4719 15.1781ZM10.625 15.1875C8.38438 15.1875 6.5625 13.3656 6.5625 11.125C6.5625 8.88438 8.38438 7.0625 10.625 7.0625C12.8656 7.0625 14.6875 8.88438 14.6875 11.125C14.6875 13.3656 12.8656 15.1875 10.625 15.1875Z" fill="#3A4DE9"/>
<path d="M0.978516 12.5844L5.26602 16.4125C5.55977 16.6719 6.00352 16.6719 6.30039 16.4125L7.45352 15.3812C6.43164 14.6187 5.69102 13.4969 5.42539 12.2031H1.87539C1.52539 12.2031 1.20664 12.35 0.978516 12.5844Z" fill="#3A4DE9"/>
<path d="M7.99375 15.7344L6.71562 16.8781C6.44688 17.1156 6.11562 17.2312 5.78125 17.2312C5.44688 17.2312 5.11563 17.1156 4.85 16.8812L0.66875 13.1437C0.64375 13.2437 0.625 13.3469 0.625 13.4531V18.625C0.625 19.3156 1.18437 19.875 1.875 19.875H9.6875C10.3781 19.875 10.9375 19.3156 10.9375 18.625V16.4281C10.8344 16.4344 10.7312 16.4375 10.625 16.4375C9.66875 16.4375 8.76875 16.1812 7.99375 15.7344Z" fill="#3A4DE9"/>
<path d="M18.4375 1.125H12.1875C11.6719 1.125 11.25 1.54688 11.25 2.0625V5.85C13.0094 6.05625 14.5094 7.12813 15.3094 8.625H18.4375C18.9531 8.625 19.375 8.20312 19.375 7.6875V2.0625C19.375 1.54688 18.9531 1.125 18.4375 1.125ZM17.3281 5.15313L14.2031 6.71562C14.1594 6.7375 14.1094 6.75 14.0625 6.75C14.0062 6.75 13.9469 6.73438 13.8969 6.70312C13.8063 6.64687 13.75 6.54688 13.75 6.4375V3.3125C13.75 3.20312 13.8063 3.10312 13.8969 3.04687C13.9906 2.99062 14.1063 2.98437 14.2031 3.03437L17.3281 4.59687C17.4344 4.65 17.5 4.75625 17.5 4.875C17.5 4.99375 17.4344 5.1 17.3281 5.15313Z" fill="#3A4DE9"/>
<path d="M4.0625 8C5.95937 8 7.5 6.45937 7.5 4.5625C7.5 2.66562 5.95937 1.125 4.0625 1.125C2.16562 1.125 0.625 2.66562 0.625 4.5625C0.625 6.45937 2.16562 8 4.0625 8ZM2.50937 3.34063C2.91875 2.9125 3.63438 2.89687 4.0625 3.30625C4.26875 3.10937 4.5375 3 4.82188 3C5.12188 3 5.40312 3.12188 5.61562 3.34063C6.04375 3.7875 6.04375 4.5125 5.61562 4.95938L4.2875 6.34063C4.22813 6.40313 4.14687 6.4375 4.0625 6.4375C3.97813 6.4375 3.89687 6.40313 3.8375 6.34063L2.50937 4.95938C2.08125 4.5125 2.08125 3.7875 2.50937 3.34063Z" fill="#3A4DE9"/>
<path d="M12.8118 9.25H11.5618C11.3899 9.25 11.2493 9.39062 11.2493 9.5625C11.2493 9.73438 11.3899 9.875 11.5618 9.875H12.1336L10.9211 11.2906L10.2211 10.5906C10.1586 10.5281 10.0743 10.4937 9.98676 10.5C9.89926 10.5031 9.81801 10.5438 9.76176 10.6125L8.19926 12.4875C8.08989 12.6188 8.10551 12.8188 8.23989 12.9281C8.29926 12.9781 8.36801 13 8.43989 13C8.53051 13 8.61801 12.9625 8.68051 12.8875L10.0243 11.275L10.7211 11.9719C10.7836 12.0344 10.8649 12.0687 10.9555 12.0625C11.043 12.0594 11.1243 12.0188 11.1805 11.9531L12.5055 10.4063V10.8125C12.5055 10.9844 12.6461 11.125 12.818 11.125C12.9899 11.125 13.1305 10.9844 13.1305 10.8125V9.5625C13.1305 9.39062 12.9899 9.25 12.818 9.25H12.8118Z" fill="#3A4DE9"/>
</svg>
