<svg width="417" height="258" viewBox="0 0 417 258" fill="none" xmlns="http://www.w3.org/2000/svg">
<rect x="1.51824" y="1.69354" width="414.197" height="254.507" rx="23.1683" fill="white"/>
<rect x="1.51824" y="1.69354" width="414.197" height="254.507" rx="23.1683" stroke="#F7F7F7" stroke-width="1.66344"/>
<circle cx="23.5114" cy="23.415" r="5.53191" fill="#FF4C4C"/>
<circle cx="42.8727" cy="23.415" r="5.53191" fill="#E1E1E1"/>
<circle cx="62.2331" cy="23.415" r="5.53191" fill="#E1E1E1"/>
<rect x="314.575" y="25.968" width="84.2553" height="96.1702" rx="4.15712" stroke="#EAEAEA" stroke-width="0.851064"/>
<rect x="314.575" y="136.606" width="84.2553" height="96.1702" rx="4.15712" stroke="#EAEAEA" stroke-width="0.851064"/>
<rect x="215.001" y="25.968" width="84.2553" height="96.1702" rx="4.15712" stroke="#EAEAEA" stroke-width="0.851064"/>
<circle cx="257.128" cy="61.2873" r="20.4255" fill="#EEEEEE"/>
<circle cx="257.128" cy="173.628" r="20.4255" fill="#EEEEEE"/>
<circle cx="356.703" cy="61.2873" r="20.4255" fill="#EEEEEE"/>
<circle cx="356.703" cy="173.628" r="20.4255" fill="#EEEEEE"/>
<rect x="115.426" y="25.968" width="84.2553" height="96.1702" rx="4.15712" stroke="#EAEAEA" stroke-width="0.851064"/>
<rect x="215.001" y="136.606" width="84.2553" height="96.1702" rx="4.15712" stroke="#EAEAEA" stroke-width="0.851064"/>
<rect x="115.426" y="136.606" width="84.2553" height="96.1702" rx="4.15712" stroke="#EAEAEA" stroke-width="0.851064"/>
<rect x="17.9795" y="49.3723" width="80.8511" height="10.2128" rx="4.58265" fill="#EEEEEE"/>
<rect x="132.022" y="93.6277" width="50.2128" height="5.10638" rx="2.55319" fill="#4C9AFF"/>
<rect x="132.022" y="207.67" width="50.2128" height="5.10638" rx="2.55319" fill="#4C9AFF"/>
<rect x="231.596" y="93.6277" width="50.2128" height="5.10638" rx="2.55319" fill="#4C9AFF"/>
<rect x="231.596" y="207.67" width="50.2128" height="5.10638" rx="2.55319" fill="#4C9AFF"/>
<rect x="331.171" y="93.6277" width="50.2128" height="5.10638" rx="2.55319" fill="#4C9AFF"/>
<rect x="331.171" y="207.67" width="50.2128" height="5.10638" rx="2.55319" fill="#4C9AFF"/>
<rect x="17.9795" y="74.0532" width="80.8511" height="10.2128" rx="4.58265" fill="#EEEEEE"/>
<rect x="17.9795" y="98.7341" width="80.8511" height="10.2128" rx="4.58265" fill="#EEEEEE"/>
<rect x="17.9795" y="123.415" width="80.8511" height="10.2128" rx="4.58265" fill="#EEEEEE"/>
<rect x="17.9795" y="148.096" width="80.8511" height="10.2128" rx="4.58265" fill="#EEEEEE"/>
<rect x="17.9795" y="172.777" width="80.8511" height="10.2128" rx="4.58265" fill="#EEEEEE"/>
<rect x="17.9795" y="197.458" width="80.8511" height="10.2128" rx="4.58265" fill="#EEEEEE"/>
<rect x="17.9795" y="222.138" width="80.8511" height="10.2128" rx="4.58265" fill="#EEEEEE"/>
<circle cx="157.554" cy="61.2873" r="20.4255" fill="#EEEEEE"/>
<circle cx="157.554" cy="173.628" r="20.4255" fill="#EEEEEE"/>
</svg>
