<svg width="27" height="26" viewBox="0 0 27 26" fill="none" xmlns="http://www.w3.org/2000/svg">
<path d="M13.5 15.635C13.3467 15.635 13.223 15.5113 13.223 15.358V12.7727C13.223 12.6194 13.3467 12.4957 13.5 12.4957C13.6533 12.4957 13.777 12.6194 13.777 12.7727V15.358C13.777 15.5113 13.6533 15.635 13.5 15.635Z" fill="white"/>
<path d="M18.8681 15.7699H8.13197C7.97963 15.7699 7.85498 15.6462 7.85498 15.4929C7.85498 15.3397 7.97962 15.2159 8.13197 15.2159H18.8681C19.0204 15.2159 19.1451 15.3397 19.1451 15.4929C19.1451 15.6462 19.0204 15.7699 18.8681 15.7699Z" fill="white"/>
<path d="M8.00262 15.4856C8.00262 16.7329 6.9907 17.744 5.74331 17.744C4.49593 17.744 3.48401 16.733 3.48401 15.4856C3.48401 14.2373 4.49593 13.2253 5.74331 13.2253C6.9907 13.2253 8.00262 14.2373 8.00262 15.4856Z" fill="white"/>
<path d="M8.035 22.8644H3.45262C2.76383 22.8644 2.20618 22.3067 2.20618 21.6179C2.20618 20.8313 2.51917 20.076 3.075 19.5193C3.63176 18.9625 4.38701 18.6495 5.17457 18.6495H6.31668C7.10332 18.6495 7.85858 18.9625 8.41533 19.5193C8.97209 20.076 9.28508 20.8313 9.28416 21.6179C9.28508 21.9494 9.15305 22.267 8.91853 22.5015C8.68401 22.7351 8.36555 22.8662 8.035 22.8644Z" fill="white"/>
<path d="M23.5159 15.4856C23.5159 16.7329 22.504 17.744 21.2566 17.744C20.0092 17.744 18.9973 16.733 18.9973 15.4856C18.9973 14.2373 20.0092 13.2253 21.2566 13.2253C22.504 13.2253 23.5159 14.2373 23.5159 15.4856Z" fill="white"/>
<path d="M23.5474 22.8644H18.9659C18.2771 22.8644 17.7195 22.3067 17.7195 21.6179C17.7186 20.8313 18.0316 20.076 18.5883 19.5193C19.1451 18.9625 19.9003 18.6495 20.687 18.6495H21.8291C22.6166 18.6495 23.3719 18.9625 23.9286 19.5193C24.4845 20.076 24.7975 20.8313 24.7975 21.6179C24.7975 21.9494 24.6654 22.267 24.4309 22.5015C24.1964 22.7351 23.8788 22.8662 23.5474 22.8644Z" fill="white"/>
<path d="M15.7594 5.39382C15.7594 6.6421 14.7475 7.65405 13.5001 7.65405C12.2527 7.65405 11.2408 6.64213 11.2408 5.39382C11.2408 4.14646 12.2527 3.13544 13.5001 3.13544C14.7475 3.13451 15.7594 4.14644 15.7594 5.39382Z" fill="white"/>
<path d="M15.7906 12.7748H11.2092C10.8786 12.7748 10.561 12.6427 10.3274 12.4082C10.0929 12.1737 9.96179 11.8561 9.96271 11.5255C9.96271 10.738 10.2757 9.98271 10.8325 9.42595C11.3892 8.87012 12.1445 8.55713 12.932 8.55713H14.0732H14.0723C14.8599 8.55713 15.6151 8.87012 16.1719 9.42595C16.7286 9.98271 17.0416 10.738 17.0416 11.5255C17.0425 11.857 16.9105 12.1755 16.676 12.41C16.4405 12.6446 16.1221 12.7757 15.7906 12.7748Z" fill="white"/>
</svg>
