<svg width="27" height="26" viewBox="0 0 27 26" fill="none" xmlns="http://www.w3.org/2000/svg">
<path d="M20.7617 5.73828H6.23828C5.53794 5.73828 4.86629 6.01649 4.37108 6.5117C3.87586 7.00692 3.59766 7.67857 3.59766 8.37891V17.6211C3.59766 18.3214 3.87586 18.9931 4.37108 19.4883C4.86629 19.9835 5.53794 20.2617 6.23828 20.2617H20.7617C21.4621 20.2617 22.1337 19.9835 22.6289 19.4883C23.1241 18.9931 23.4023 18.3214 23.4023 17.6211V8.37891C23.4023 7.67857 23.1241 7.00692 22.6289 6.5117C22.1337 6.01649 21.4621 5.73828 20.7617 5.73828ZM10.1992 12.3398H16.8008C16.9759 12.3398 17.1438 12.4094 17.2676 12.5332C17.3914 12.657 17.4609 12.8249 17.4609 13C17.4609 13.1751 17.3914 13.343 17.2676 13.4668C17.1438 13.5906 16.9759 13.6602 16.8008 13.6602H10.1992C10.0241 13.6602 9.85622 13.5906 9.73242 13.4668C9.60861 13.343 9.53906 13.1751 9.53906 13C9.53906 12.8249 9.60861 12.657 9.73242 12.5332C9.85622 12.4094 10.0241 12.3398 10.1992 12.3398ZM19.4414 16.9609H7.55859C7.38351 16.9609 7.2156 16.8914 7.09179 16.7676C6.96799 16.6438 6.89844 16.4759 6.89844 16.3008C6.89844 16.1257 6.96799 15.9578 7.09179 15.834C7.2156 15.7102 7.38351 15.6406 7.55859 15.6406H19.4414C19.6165 15.6406 19.7844 15.7102 19.9082 15.834C20.032 15.9578 20.1016 16.1257 20.1016 16.3008C20.1016 16.4759 20.032 16.6438 19.9082 16.7676C19.7844 16.8914 19.6165 16.9609 19.4414 16.9609Z" fill="white"/>
</svg>
