<svg width="550" height="260" viewBox="0 0 550 260" fill="none" xmlns="http://www.w3.org/2000/svg">
<g filter="url(#filter0_d_2001_1605)">
<rect x="233" y="3" width="313" height="251.627" rx="12.2745" fill="white"/>
</g>
<mask id="mask0_2001_1605" style="mask-type:alpha" maskUnits="userSpaceOnUse" x="279" y="141" width="221" height="114">
<rect x="279.195" y="141.697" width="220.611" height="112.931" fill="#D9D9D9"/>
</mask>
<g mask="url(#mask0_2001_1605)">
<mask id="path-3-inside-1_2001_1605" fill="white">
<path d="M279.195 254.565C279.195 237.517 283.19 220.707 290.86 205.482C298.53 190.257 309.661 177.042 323.361 166.896L351.467 204.846C343.697 210.6 337.385 218.095 333.035 226.729C328.685 235.363 326.419 244.897 326.419 254.565L279.195 254.565Z"/>
</mask>
<path d="M279.195 254.565C279.195 237.517 283.19 220.707 290.86 205.482C298.53 190.257 309.661 177.042 323.361 166.896L351.467 204.846C343.697 210.6 337.385 218.095 333.035 226.729C328.685 235.363 326.419 244.897 326.419 254.565L279.195 254.565Z" stroke="#F0E5FC" stroke-width="61.3726" mask="url(#path-3-inside-1_2001_1605)"/>
<mask id="path-4-inside-2_2001_1605" fill="white">
<path d="M325.357 165.218C342.604 152.799 363.103 145.689 384.335 144.76C405.567 143.831 426.608 149.123 444.874 159.988L420.732 200.575C410.373 194.414 398.441 191.412 386.399 191.939C374.358 192.466 362.733 196.498 352.952 203.541L325.357 165.218Z"/>
</mask>
<path d="M325.357 165.218C342.604 152.799 363.103 145.689 384.335 144.76C405.567 143.831 426.608 149.123 444.874 159.988L420.732 200.575C410.373 194.414 398.441 191.412 386.399 191.939C374.358 192.466 362.733 196.498 352.952 203.541L325.357 165.218Z" stroke="#C893FD" stroke-width="61.3726" mask="url(#path-4-inside-2_2001_1605)"/>
<mask id="path-5-inside-3_2001_1605" fill="white">
<path d="M446.376 161.07C459.375 168.866 470.607 179.285 479.355 191.664L440.79 218.919C435.828 211.899 429.459 205.99 422.087 201.569L446.376 161.07Z"/>
</mask>
<path d="M446.376 161.07C459.375 168.866 470.607 179.285 479.355 191.664L440.79 218.919C435.828 211.899 429.459 205.99 422.087 201.569L446.376 161.07Z" stroke="#E5EAFC" stroke-width="61.3726" mask="url(#path-5-inside-3_2001_1605)"/>
<mask id="path-6-inside-4_2001_1605" fill="white">
<path d="M480.616 193.744C492.816 211.493 499.489 232.456 499.795 253.992L452.576 254.662C452.402 242.449 448.618 230.56 441.699 220.494L480.616 193.744Z"/>
</mask>
<path d="M480.616 193.744C492.816 211.493 499.489 232.456 499.795 253.992L452.576 254.662C452.402 242.449 448.618 230.56 441.699 220.494L480.616 193.744Z" stroke="#C6D2FD" stroke-width="61.3726" mask="url(#path-6-inside-4_2001_1605)"/>
</g>
<path d="M414.07 128.814C418.477 128.814 422.049 132.386 422.049 136.792V155.377C422.049 159.784 418.477 163.356 414.07 163.356H396.488L390.299 168.669C389.839 169.064 389.16 169.064 388.7 168.669L382.511 163.356H364.929C360.522 163.356 356.95 159.784 356.95 155.377V136.792C356.95 132.386 360.522 128.814 364.929 128.814H414.07Z" fill="#1E1B39"/>
<path d="M374.049 151.627C373.333 151.627 372.695 151.504 372.136 151.258C371.58 151.008 371.14 150.666 370.817 150.232C370.498 149.794 370.333 149.289 370.323 148.717H372.414C372.427 148.956 372.505 149.167 372.649 149.349C372.796 149.528 372.991 149.667 373.234 149.767C373.477 149.866 373.75 149.915 374.054 149.915C374.37 149.915 374.65 149.859 374.893 149.747C375.136 149.636 375.326 149.48 375.463 149.282C375.601 149.084 375.67 148.856 375.67 148.597C375.67 148.335 375.596 148.103 375.449 147.901C375.305 147.697 375.097 147.537 374.826 147.422C374.557 147.307 374.238 147.249 373.867 147.249H372.951V145.725H373.867C374.18 145.725 374.456 145.67 374.696 145.562C374.939 145.453 375.128 145.303 375.262 145.111C375.396 144.916 375.463 144.689 375.463 144.43C375.463 144.184 375.404 143.968 375.286 143.783C375.171 143.594 375.008 143.447 374.797 143.342C374.589 143.236 374.346 143.183 374.068 143.183C373.787 143.183 373.529 143.235 373.296 143.337C373.063 143.436 372.876 143.578 372.735 143.764C372.595 143.949 372.519 144.166 372.51 144.416H370.52C370.53 143.85 370.691 143.351 371.004 142.92C371.318 142.488 371.739 142.151 372.27 141.908C372.804 141.662 373.406 141.539 374.078 141.539C374.755 141.539 375.348 141.662 375.857 141.908C376.365 142.154 376.76 142.487 377.041 142.905C377.325 143.321 377.466 143.788 377.463 144.305C377.466 144.855 377.295 145.314 376.95 145.681C376.608 146.049 376.162 146.282 375.612 146.381V146.458C376.334 146.551 376.884 146.802 377.261 147.211C377.642 147.617 377.83 148.125 377.827 148.736C377.83 149.295 377.669 149.792 377.343 150.227C377.02 150.662 376.574 151.004 376.005 151.253C375.436 151.502 374.784 151.627 374.049 151.627ZM381.282 150.15L381.229 150.678C381.187 151.1 381.108 151.52 380.989 151.939C380.874 152.361 380.753 152.743 380.625 153.085C380.5 153.427 380.4 153.695 380.323 153.89H378.999C379.047 153.701 379.113 153.438 379.196 153.099C379.279 152.763 379.357 152.386 379.431 151.967C379.505 151.549 379.551 151.122 379.57 150.687L379.594 150.15H381.282ZM382.982 149.767V148.132L387.081 141.673H388.491V143.936H387.656L385.072 148.026V148.103H390.898V149.767H382.982ZM387.695 151.493V149.268L387.733 148.544V141.673H389.68V151.493H387.695ZM395.867 151.627C395.19 151.627 394.586 151.502 394.055 151.253C393.528 151.004 393.109 150.66 392.799 150.222C392.489 149.784 392.327 149.282 392.314 148.717H394.328C394.351 149.097 394.51 149.405 394.808 149.642C395.105 149.878 395.458 149.997 395.867 149.997C396.193 149.997 396.481 149.925 396.73 149.781C396.983 149.634 397.18 149.431 397.32 149.172C397.464 148.91 397.536 148.609 397.536 148.271C397.536 147.925 397.462 147.622 397.315 147.36C397.172 147.098 396.972 146.893 396.716 146.746C396.46 146.599 396.168 146.524 395.839 146.521C395.551 146.521 395.271 146.58 394.999 146.698C394.731 146.816 394.522 146.978 394.371 147.182L392.525 146.851L392.991 141.673H398.994V143.37H394.702L394.448 145.83H394.506C394.678 145.587 394.939 145.386 395.287 145.226C395.636 145.066 396.026 144.986 396.457 144.986C397.048 144.986 397.576 145.125 398.039 145.403C398.503 145.681 398.869 146.063 399.137 146.549C399.406 147.032 399.539 147.588 399.535 148.218C399.539 148.88 399.385 149.468 399.075 149.982C398.768 150.494 398.338 150.897 397.785 151.191C397.235 151.481 396.596 151.627 395.867 151.627ZM404.833 151.708C404.009 151.705 403.299 151.502 402.705 151.1C402.113 150.697 401.658 150.113 401.338 149.349C401.022 148.585 400.865 147.666 400.868 146.592C400.868 145.522 401.026 144.609 401.343 143.855C401.663 143.1 402.118 142.527 402.709 142.133C403.304 141.737 404.012 141.539 404.833 141.539C405.655 141.539 406.361 141.737 406.953 142.133C407.547 142.53 408.004 143.105 408.324 143.859C408.644 144.611 408.802 145.522 408.799 146.592C408.799 147.67 408.639 148.59 408.319 149.354C408.003 150.118 407.549 150.702 406.958 151.104C406.366 151.507 405.658 151.708 404.833 151.708ZM404.833 149.987C405.396 149.987 405.845 149.704 406.181 149.138C406.516 148.573 406.683 147.724 406.679 146.592C406.679 145.848 406.603 145.228 406.449 144.732C406.299 144.237 406.085 143.864 405.807 143.615C405.532 143.366 405.207 143.241 404.833 143.241C404.274 143.241 403.827 143.521 403.491 144.08C403.155 144.639 402.986 145.477 402.983 146.592C402.983 147.347 403.058 147.977 403.208 148.482C403.362 148.983 403.577 149.361 403.855 149.613C404.133 149.862 404.46 149.987 404.833 149.987Z" fill="white"/>
<path d="M267.476 84.2541V83.3911H273.502V84.2541H270.975V91.4253H270.003V84.2541H267.476ZM274.878 91.4253V85.3996H275.804V91.4253H274.878ZM275.349 84.3953C275.168 84.3953 275.012 84.3339 274.882 84.211C274.754 84.088 274.689 83.9403 274.689 83.7677C274.689 83.5951 274.754 83.4473 274.882 83.3244C275.012 83.2015 275.168 83.14 275.349 83.14C275.529 83.14 275.683 83.2015 275.811 83.3244C275.942 83.4473 276.008 83.5951 276.008 83.7677C276.008 83.9403 275.942 84.088 275.811 84.211C275.683 84.3339 275.529 84.3953 275.349 84.3953ZM278.362 89.2284L278.347 88.0829H278.535L281.171 85.3996H282.317L279.508 88.2398H279.429L278.362 89.2284ZM277.499 91.4253V83.3911H278.425V91.4253H277.499ZM281.328 91.4253L278.974 88.4438L279.633 87.8005L282.505 91.4253H281.328ZM282.569 84.2541V83.3911H288.594V84.2541H286.068V91.4253H285.095V84.2541H282.569ZM291.544 91.5508C291.001 91.5508 290.523 91.4214 290.113 91.1625C289.705 90.9035 289.386 90.5413 289.155 90.0758C288.928 89.6103 288.814 89.0663 288.814 88.4438C288.814 87.8162 288.928 87.2683 289.155 86.8001C289.386 86.332 289.705 85.9685 290.113 85.7095C290.523 85.4506 291.001 85.3212 291.544 85.3212C292.088 85.3212 292.564 85.4506 292.972 85.7095C293.383 85.9685 293.702 86.332 293.93 86.8001C294.16 87.2683 294.275 87.8162 294.275 88.4438C294.275 89.0663 294.16 89.6103 293.93 90.0758C293.702 90.5413 293.383 90.9035 292.972 91.1625C292.564 91.4214 292.088 91.5508 291.544 91.5508ZM291.544 90.7192C291.958 90.7192 292.298 90.6132 292.564 90.4014C292.831 90.1896 293.029 89.911 293.157 89.5658C293.285 89.2206 293.349 88.8466 293.349 88.4438C293.349 88.0411 293.285 87.6658 293.157 87.318C293.029 86.9701 292.831 86.689 292.564 86.4745C292.298 86.2601 291.958 86.1528 291.544 86.1528C291.131 86.1528 290.791 86.2601 290.525 86.4745C290.258 86.689 290.06 86.9701 289.932 87.318C289.804 87.6658 289.74 88.0411 289.74 88.4438C289.74 88.8466 289.804 89.2206 289.932 89.5658C290.06 89.911 290.258 90.1896 290.525 90.4014C290.791 90.6132 291.131 90.7192 291.544 90.7192ZM296.551 89.2284L296.535 88.0829H296.724L299.36 85.3996H300.506L297.697 88.2398H297.618L296.551 89.2284ZM295.688 91.4253V83.3911H296.614V91.4253H295.688ZM299.517 91.4253L297.163 88.4438L297.822 87.8005L300.694 91.4253H299.517Z" fill="#615E83"/>
<circle cx="257.67" cy="87.5625" r="4.36231" fill="#F0E5FC"/>
<path d="M334.972 83.3911V91.4253H333.999V83.3911H334.972ZM337.723 87.8005V91.4253H336.797V85.3996H337.691V86.3411H337.77C337.911 86.0351 338.126 85.7893 338.413 85.6036C338.701 85.4153 339.072 85.3212 339.527 85.3212C339.935 85.3212 340.292 85.4049 340.598 85.5722C340.904 85.737 341.142 85.9881 341.312 86.3254C341.482 86.6602 341.567 87.0839 341.567 87.5965V91.4253H340.641V87.6593C340.641 87.1859 340.519 86.8171 340.273 86.553C340.027 86.2862 339.69 86.1528 339.261 86.1528C338.965 86.1528 338.701 86.2169 338.468 86.3451C338.238 86.4732 338.056 86.6602 337.923 86.906C337.789 87.1519 337.723 87.45 337.723 87.8005ZM347.527 86.7491L346.696 86.9845C346.643 86.8459 346.566 86.7112 346.464 86.5804C346.365 86.4471 346.229 86.3372 346.056 86.2509C345.884 86.1646 345.663 86.1214 345.393 86.1214C345.024 86.1214 344.717 86.2064 344.471 86.3764C344.228 86.5438 344.106 86.757 344.106 87.0159C344.106 87.246 344.19 87.4278 344.358 87.5612C344.525 87.6946 344.786 87.8057 345.142 87.8946L346.037 88.1143C346.575 88.2451 346.977 88.4451 347.241 88.7145C347.505 88.9813 347.637 89.3252 347.637 89.7463C347.637 90.0915 347.538 90.4001 347.339 90.6721C347.143 90.9441 346.868 91.1585 346.515 91.3155C346.162 91.4724 345.751 91.5508 345.283 91.5508C344.669 91.5508 344.16 91.4174 343.757 91.1507C343.355 90.8839 343.1 90.4942 342.992 89.9816L343.871 89.762C343.955 90.0863 344.113 90.3295 344.346 90.4916C344.581 90.6538 344.888 90.7349 345.268 90.7349C345.699 90.7349 346.042 90.6433 346.295 90.4602C346.552 90.2746 346.68 90.0523 346.68 89.7933C346.68 89.5841 346.607 89.4089 346.46 89.2677C346.314 89.1238 346.089 89.0166 345.785 88.946L344.781 88.7106C344.229 88.5798 343.824 88.3772 343.565 88.1025C343.309 87.8253 343.181 87.4788 343.181 87.063C343.181 86.723 343.276 86.4222 343.467 86.1607C343.661 85.8991 343.923 85.6938 344.256 85.5448C344.59 85.3957 344.969 85.3212 345.393 85.3212C345.989 85.3212 346.458 85.4519 346.798 85.7135C347.14 85.975 347.383 86.3202 347.527 86.7491ZM351.651 85.3996V86.1842H348.529V85.3996H351.651ZM349.439 83.956H350.365V89.6992C350.365 89.9607 350.402 90.1569 350.478 90.2876C350.557 90.4158 350.656 90.5021 350.776 90.5465C350.899 90.5884 351.029 90.6093 351.165 90.6093C351.267 90.6093 351.351 90.6041 351.416 90.5936C351.481 90.5805 351.534 90.5701 351.573 90.5622L351.761 91.3939C351.698 91.4174 351.611 91.441 351.498 91.4645C351.386 91.4907 351.243 91.5038 351.071 91.5038C350.809 91.5038 350.553 91.4475 350.302 91.3351C350.053 91.2226 349.847 91.0513 349.682 90.8212C349.52 90.591 349.439 90.3007 349.439 89.9503V83.956ZM354.817 91.5665C354.435 91.5665 354.089 91.4946 353.778 91.3508C353.466 91.2043 353.219 90.9938 353.036 90.7192C352.853 90.4419 352.761 90.1072 352.761 89.7149C352.761 89.3697 352.829 89.0898 352.965 88.8754C353.101 88.6583 353.283 88.4883 353.511 88.3654C353.738 88.2425 353.989 88.1509 354.264 88.0908C354.541 88.028 354.82 87.9783 355.1 87.9417C355.466 87.8946 355.763 87.8593 355.99 87.8358C356.22 87.8096 356.388 87.7665 356.492 87.7063C356.599 87.6462 356.653 87.5416 356.653 87.3925V87.3611C356.653 86.974 356.547 86.6733 356.335 86.4588C356.126 86.2444 355.808 86.1371 355.382 86.1371C354.94 86.1371 354.593 86.2339 354.342 86.4274C354.091 86.621 353.915 86.8276 353.813 87.0473L352.934 86.7334C353.091 86.3673 353.3 86.0822 353.562 85.8782C353.826 85.6716 354.114 85.5278 354.425 85.4467C354.739 85.363 355.047 85.3212 355.351 85.3212C355.544 85.3212 355.766 85.3447 356.018 85.3918C356.271 85.4362 356.516 85.5291 356.751 85.6703C356.989 85.8115 357.187 86.0247 357.343 86.3098C357.5 86.5948 357.579 86.9767 357.579 87.4553V91.4253H356.653V90.6093H356.606C356.543 90.7401 356.439 90.88 356.292 91.0291C356.146 91.1781 355.951 91.305 355.708 91.4096C355.464 91.5142 355.168 91.5665 354.817 91.5665ZM354.958 90.7349C355.324 90.7349 355.633 90.6629 355.884 90.5191C356.138 90.3752 356.329 90.1896 356.457 89.962C356.588 89.7345 356.653 89.4952 356.653 89.2441V88.3968C356.614 88.4438 356.528 88.487 356.394 88.5262C356.263 88.5628 356.112 88.5955 355.939 88.6243C355.769 88.6505 355.603 88.674 355.441 88.6949C355.281 88.7132 355.152 88.7289 355.052 88.742C354.812 88.7734 354.587 88.8244 354.378 88.895C354.171 88.963 354.004 89.0663 353.876 89.2049C353.75 89.3409 353.687 89.5266 353.687 89.762C353.687 90.0836 353.806 90.3269 354.044 90.4916C354.285 90.6538 354.59 90.7349 354.958 90.7349ZM361.701 93.8105C361.254 93.8105 360.869 93.7529 360.548 93.6378C360.226 93.5254 359.958 93.3763 359.743 93.1906C359.532 93.0076 359.363 92.8114 359.237 92.6022L359.975 92.0844C360.059 92.1942 360.164 92.3197 360.293 92.461C360.421 92.6048 360.596 92.729 360.818 92.8336C361.043 92.9409 361.337 92.9945 361.701 92.9945C362.187 92.9945 362.589 92.8768 362.905 92.6414C363.222 92.406 363.38 92.0373 363.38 91.5351V90.3112H363.301C363.233 90.421 363.137 90.557 363.011 90.7192C362.888 90.8787 362.71 91.0212 362.478 91.1468C362.248 91.2697 361.936 91.3311 361.544 91.3311C361.058 91.3311 360.621 91.2161 360.234 90.9859C359.849 90.7558 359.545 90.421 359.32 89.9816C359.097 89.5423 358.986 89.0087 358.986 88.3811C358.986 87.7639 359.095 87.2264 359.312 86.7687C359.529 86.3084 359.831 85.9528 360.218 85.7017C360.605 85.448 361.052 85.3212 361.56 85.3212C361.952 85.3212 362.263 85.3865 362.493 85.5173C362.726 85.6455 362.904 85.7919 363.027 85.9567C363.152 86.1188 363.249 86.2522 363.317 86.3568H363.411V85.3996H364.306V91.5979C364.306 92.1157 364.188 92.5368 363.953 92.8611C363.72 93.188 363.406 93.4273 363.011 93.579C362.619 93.7333 362.182 93.8105 361.701 93.8105ZM361.67 90.4995C362.041 90.4995 362.355 90.4145 362.611 90.2445C362.867 90.0745 363.062 89.83 363.196 89.5109C363.329 89.1918 363.396 88.81 363.396 88.3654C363.396 87.9312 363.33 87.5481 363.199 87.216C363.069 86.8838 362.875 86.6236 362.619 86.4353C362.363 86.247 362.046 86.1528 361.67 86.1528C361.277 86.1528 360.95 86.2522 360.689 86.451C360.43 86.6497 360.235 86.9165 360.104 87.2513C359.976 87.586 359.912 87.9574 359.912 88.3654C359.912 88.7838 359.977 89.1539 360.108 89.4756C360.242 89.7946 360.438 90.0457 360.697 90.2288C360.958 90.4092 361.282 90.4995 361.67 90.4995ZM366 91.4253V85.3996H366.895V86.3098H366.958C367.068 86.0116 367.266 85.7697 367.554 85.584C367.842 85.3983 368.166 85.3055 368.527 85.3055C368.595 85.3055 368.68 85.3068 368.782 85.3094C368.884 85.312 368.961 85.3159 369.013 85.3212V86.2627C368.982 86.2548 368.91 86.2431 368.798 86.2274C368.688 86.2091 368.571 86.1999 368.448 86.1999C368.155 86.1999 367.894 86.2614 367.664 86.3843C367.436 86.5046 367.256 86.672 367.122 86.8864C366.992 87.0983 366.926 87.3402 366.926 87.6122V91.4253H366ZM371.884 91.5665C371.502 91.5665 371.156 91.4946 370.844 91.3508C370.533 91.2043 370.286 90.9938 370.103 90.7192C369.92 90.4419 369.828 90.1072 369.828 89.7149C369.828 89.3697 369.896 89.0898 370.032 88.8754C370.168 88.6583 370.35 88.4883 370.578 88.3654C370.805 88.2425 371.056 88.1509 371.331 88.0908C371.608 88.028 371.887 87.9783 372.166 87.9417C372.533 87.8946 372.829 87.8593 373.057 87.8358C373.287 87.8096 373.454 87.7665 373.559 87.7063C373.666 87.6462 373.72 87.5416 373.72 87.3925V87.3611C373.72 86.974 373.614 86.6733 373.402 86.4588C373.193 86.2444 372.875 86.1371 372.449 86.1371C372.007 86.1371 371.66 86.2339 371.409 86.4274C371.158 86.621 370.982 86.8276 370.88 87.0473L370.001 86.7334C370.158 86.3673 370.367 86.0822 370.629 85.8782C370.893 85.6716 371.18 85.5278 371.492 85.4467C371.805 85.363 372.114 85.3212 372.417 85.3212C372.611 85.3212 372.833 85.3447 373.084 85.3918C373.338 85.4362 373.583 85.5291 373.818 85.6703C374.056 85.8115 374.253 86.0247 374.41 86.3098C374.567 86.5948 374.646 86.9767 374.646 87.4553V91.4253H373.72V90.6093H373.673C373.61 90.7401 373.505 90.88 373.359 91.0291C373.213 91.1781 373.018 91.305 372.774 91.4096C372.531 91.5142 372.234 91.5665 371.884 91.5665ZM372.025 90.7349C372.391 90.7349 372.7 90.6629 372.951 90.5191C373.205 90.3752 373.396 90.1896 373.524 89.962C373.655 89.7345 373.72 89.4952 373.72 89.2441V88.3968C373.681 88.4438 373.594 88.487 373.461 88.5262C373.33 88.5628 373.179 88.5955 373.006 88.6243C372.836 88.6505 372.67 88.674 372.508 88.6949C372.348 88.7132 372.219 88.7289 372.119 88.742C371.879 88.7734 371.654 88.8244 371.445 88.895C371.238 88.963 371.071 89.0663 370.942 89.2049C370.817 89.3409 370.754 89.5266 370.754 89.762C370.754 90.0836 370.873 90.3269 371.111 90.4916C371.352 90.6538 371.656 90.7349 372.025 90.7349ZM376.336 91.4253V85.3996H377.23V86.3411H377.308C377.434 86.0195 377.637 85.7697 377.916 85.5918C378.196 85.4114 378.532 85.3212 378.925 85.3212C379.322 85.3212 379.653 85.4114 379.917 85.5918C380.184 85.7697 380.392 86.0195 380.541 86.3411H380.604C380.758 86.0299 380.989 85.7828 381.298 85.5997C381.607 85.414 381.977 85.3212 382.408 85.3212C382.947 85.3212 383.388 85.4899 383.73 85.8272C384.073 86.162 384.244 86.6837 384.244 87.3925V91.4253H383.318V87.3925C383.318 86.9479 383.197 86.6301 382.954 86.4392C382.71 86.2483 382.424 86.1528 382.094 86.1528C381.671 86.1528 381.343 86.281 381.11 86.5373C380.877 86.791 380.761 87.1127 380.761 87.5023V91.4253H379.819V87.2983C379.819 86.9557 379.708 86.6798 379.486 86.4706C379.263 86.2588 378.977 86.1528 378.627 86.1528C378.386 86.1528 378.161 86.2169 377.952 86.3451C377.745 86.4732 377.578 86.651 377.45 86.8786C377.324 87.1035 377.261 87.3637 377.261 87.6593V91.4253H376.336Z" fill="#615E83"/>
<circle cx="323.754" cy="87.5625" r="4.36231" fill="#C893FD"/>
<path d="M405.607 91.4253V83.3911H410.425V84.2541H406.58V86.9688H410.064V87.8319H406.58V91.4253H405.607ZM413.739 91.5665C413.357 91.5665 413.01 91.4946 412.699 91.3508C412.388 91.2043 412.141 90.9938 411.958 90.7192C411.775 90.4419 411.683 90.1072 411.683 89.7149C411.683 89.3697 411.751 89.0898 411.887 88.8754C412.023 88.6583 412.205 88.4883 412.432 88.3654C412.66 88.2425 412.911 88.1509 413.186 88.0908C413.463 88.028 413.741 87.9783 414.021 87.9417C414.387 87.8946 414.684 87.8593 414.912 87.8358C415.142 87.8096 415.309 87.7665 415.414 87.7063C415.521 87.6462 415.575 87.5416 415.575 87.3925V87.3611C415.575 86.974 415.469 86.6733 415.257 86.4588C415.048 86.2444 414.73 86.1371 414.304 86.1371C413.862 86.1371 413.515 86.2339 413.264 86.4274C413.013 86.621 412.836 86.8276 412.734 87.0473L411.856 86.7334C412.013 86.3673 412.222 86.0822 412.483 85.8782C412.748 85.6716 413.035 85.5278 413.346 85.4467C413.66 85.363 413.969 85.3212 414.272 85.3212C414.466 85.3212 414.688 85.3447 414.939 85.3918C415.193 85.4362 415.437 85.5291 415.673 85.6703C415.911 85.8115 416.108 86.0247 416.265 86.3098C416.422 86.5948 416.5 86.9767 416.5 87.4553V91.4253H415.575V90.6093H415.528C415.465 90.7401 415.36 90.88 415.214 91.0291C415.067 91.1781 414.872 91.305 414.629 91.4096C414.386 91.5142 414.089 91.5665 413.739 91.5665ZM413.88 90.7349C414.246 90.7349 414.555 90.6629 414.806 90.5191C415.059 90.3752 415.25 90.1896 415.379 89.962C415.509 89.7345 415.575 89.4952 415.575 89.2441V88.3968C415.535 88.4438 415.449 88.487 415.316 88.5262C415.185 88.5628 415.033 88.5955 414.861 88.6243C414.691 88.6505 414.525 88.674 414.362 88.6949C414.203 88.7132 414.073 88.7289 413.974 88.742C413.734 88.7734 413.509 88.8244 413.299 88.895C413.093 88.963 412.925 89.0663 412.797 89.2049C412.672 89.3409 412.609 89.5266 412.609 89.762C412.609 90.0836 412.728 90.3269 412.966 90.4916C413.207 90.6538 413.511 90.7349 413.88 90.7349ZM420.638 91.5508C420.073 91.5508 419.587 91.4174 419.179 91.1507C418.771 90.8839 418.457 90.5165 418.237 90.0483C418.018 89.5802 417.908 89.0454 417.908 88.4438C417.908 87.8319 418.02 87.2918 418.245 86.8237C418.473 86.3529 418.789 85.9855 419.195 85.7213C419.603 85.4545 420.079 85.3212 420.623 85.3212C421.046 85.3212 421.428 85.3996 421.768 85.5565C422.108 85.7135 422.387 85.9331 422.604 86.2156C422.821 86.4981 422.955 86.8276 423.008 87.2042H422.082C422.011 86.9296 421.854 86.6864 421.611 86.4745C421.371 86.2601 421.046 86.1528 420.638 86.1528C420.277 86.1528 419.961 86.247 419.689 86.4353C419.42 86.621 419.209 86.8838 419.057 87.2238C418.908 87.5612 418.834 87.9574 418.834 88.4125C418.834 88.878 418.907 89.2834 419.053 89.6286C419.202 89.9738 419.412 90.2419 419.681 90.4328C419.953 90.6237 420.272 90.7192 420.638 90.7192C420.879 90.7192 421.097 90.6773 421.293 90.5936C421.49 90.5099 421.656 90.3896 421.792 90.2327C421.928 90.0758 422.024 89.8875 422.082 89.6678H423.008C422.955 90.0235 422.826 90.3439 422.619 90.6289C422.415 90.9114 422.145 91.1363 421.807 91.3037C421.473 91.4684 421.083 91.5508 420.638 91.5508ZM426.888 91.5508C426.307 91.5508 425.806 91.4227 425.385 91.1664C424.967 90.9075 424.644 90.5465 424.416 90.0836C424.191 89.6181 424.079 89.0767 424.079 88.4595C424.079 87.8423 424.191 87.2983 424.416 86.8276C424.644 86.3542 424.96 85.9855 425.365 85.7213C425.773 85.4545 426.249 85.3212 426.793 85.3212C427.107 85.3212 427.417 85.3735 427.723 85.4781C428.029 85.5827 428.308 85.7527 428.559 85.9881C428.81 86.2208 429.01 86.5294 429.159 86.9139C429.308 87.2983 429.383 87.7717 429.383 88.334V88.7263H424.738V87.926H428.441C428.441 87.586 428.373 87.2826 428.237 87.0159C428.104 86.7491 427.913 86.5386 427.664 86.3843C427.418 86.23 427.128 86.1528 426.793 86.1528C426.425 86.1528 426.106 86.2444 425.836 86.4274C425.569 86.6079 425.364 86.8433 425.22 87.1336C425.076 87.4239 425.004 87.7351 425.004 88.0672V88.6008C425.004 89.0558 425.083 89.4416 425.24 89.758C425.399 90.0719 425.62 90.3112 425.903 90.4759C426.185 90.6381 426.514 90.7192 426.888 90.7192C427.131 90.7192 427.35 90.6852 427.547 90.6172C427.745 90.5465 427.917 90.4419 428.06 90.3033C428.204 90.1621 428.315 89.9869 428.394 89.7776L429.288 90.0287C429.194 90.3321 429.036 90.5989 428.814 90.829C428.591 91.0565 428.317 91.2344 427.99 91.3625C427.663 91.4881 427.296 91.5508 426.888 91.5508ZM430.916 91.4253V83.3911H431.842V86.3568H431.921C431.989 86.2522 432.083 86.1188 432.203 85.9567C432.326 85.7919 432.501 85.6455 432.729 85.5173C432.959 85.3865 433.27 85.3212 433.662 85.3212C434.17 85.3212 434.617 85.448 435.004 85.7017C435.391 85.9554 435.693 86.315 435.91 86.7805C436.127 87.246 436.236 87.7952 436.236 88.4282C436.236 89.0663 436.127 89.6194 435.91 90.0876C435.693 90.5531 435.393 90.914 435.008 91.1703C434.624 91.424 434.18 91.5508 433.678 91.5508C433.291 91.5508 432.981 91.4868 432.748 91.3586C432.516 91.2278 432.337 91.0801 432.211 90.9153C432.085 90.7479 431.989 90.6093 431.921 90.4995H431.811V91.4253H430.916ZM431.827 88.4125C431.827 88.8675 431.893 89.269 432.027 89.6168C432.16 89.962 432.355 90.2327 432.611 90.4289C432.867 90.6224 433.181 90.7192 433.553 90.7192C433.94 90.7192 434.263 90.6172 434.522 90.4132C434.783 90.2066 434.979 89.9293 435.11 89.5815C435.243 89.231 435.31 88.8414 435.31 88.4125C435.31 87.9888 435.245 87.6069 435.114 87.267C434.986 86.9243 434.791 86.6537 434.529 86.4549C434.271 86.2535 433.945 86.1528 433.553 86.1528C433.176 86.1528 432.86 86.2483 432.603 86.4392C432.347 86.6275 432.153 86.8917 432.023 87.2316C431.892 87.569 431.827 87.9626 431.827 88.4125ZM440.1 91.5508C439.556 91.5508 439.079 91.4214 438.668 91.1625C438.26 90.9035 437.941 90.5413 437.711 90.0758C437.483 89.6103 437.37 89.0663 437.37 88.4438C437.37 87.8162 437.483 87.2683 437.711 86.8001C437.941 86.332 438.26 85.9685 438.668 85.7095C439.079 85.4506 439.556 85.3212 440.1 85.3212C440.644 85.3212 441.12 85.4506 441.528 85.7095C441.939 85.9685 442.258 86.332 442.485 86.8001C442.715 87.2683 442.83 87.8162 442.83 88.4438C442.83 89.0663 442.715 89.6103 442.485 90.0758C442.258 90.5413 441.939 90.9035 441.528 91.1625C441.12 91.4214 440.644 91.5508 440.1 91.5508ZM440.1 90.7192C440.513 90.7192 440.853 90.6132 441.12 90.4014C441.387 90.1896 441.584 89.911 441.712 89.5658C441.841 89.2206 441.905 88.8466 441.905 88.4438C441.905 88.0411 441.841 87.6658 441.712 87.318C441.584 86.9701 441.387 86.689 441.12 86.4745C440.853 86.2601 440.513 86.1528 440.1 86.1528C439.687 86.1528 439.347 86.2601 439.08 86.4745C438.813 86.689 438.616 86.9701 438.488 87.318C438.36 87.6658 438.295 88.0411 438.295 88.4438C438.295 88.8466 438.36 89.2206 438.488 89.5658C438.616 89.911 438.813 90.1896 439.08 90.4014C439.347 90.6132 439.687 90.7192 440.1 90.7192ZM446.692 91.5508C446.148 91.5508 445.67 91.4214 445.26 91.1625C444.852 90.9035 444.533 90.5413 444.303 90.0758C444.075 89.6103 443.961 89.0663 443.961 88.4438C443.961 87.8162 444.075 87.2683 444.303 86.8001C444.533 86.332 444.852 85.9685 445.26 85.7095C445.67 85.4506 446.148 85.3212 446.692 85.3212C447.236 85.3212 447.712 85.4506 448.12 85.7095C448.53 85.9685 448.849 86.332 449.077 86.8001C449.307 87.2683 449.422 87.8162 449.422 88.4438C449.422 89.0663 449.307 89.6103 449.077 90.0758C448.849 90.5413 448.53 90.9035 448.12 91.1625C447.712 91.4214 447.236 91.5508 446.692 91.5508ZM446.692 90.7192C447.105 90.7192 447.445 90.6132 447.712 90.4014C447.978 90.1896 448.176 89.911 448.304 89.5658C448.432 89.2206 448.496 88.8466 448.496 88.4438C448.496 88.0411 448.432 87.6658 448.304 87.318C448.176 86.9701 447.978 86.689 447.712 86.4745C447.445 86.2601 447.105 86.1528 446.692 86.1528C446.278 86.1528 445.938 86.2601 445.672 86.4745C445.405 86.689 445.207 86.9701 445.079 87.318C444.951 87.6658 444.887 88.0411 444.887 88.4438C444.887 88.8466 444.951 89.2206 445.079 89.5658C445.207 89.911 445.405 90.1896 445.672 90.4014C445.938 90.6132 446.278 90.7192 446.692 90.7192ZM451.698 89.2284L451.683 88.0829H451.871L454.507 85.3996H455.653L452.844 88.2398H452.765L451.698 89.2284ZM450.835 91.4253V83.3911H451.761V91.4253H450.835ZM454.664 91.4253L452.31 88.4438L452.969 87.8005L455.841 91.4253H454.664Z" fill="#615E83"/>
<circle cx="395.362" cy="87.5625" r="4.36231" fill="#E5EAFC"/>
<path d="M482.917 83.3911H484.031L486.259 87.1414H486.353L488.582 83.3911H489.696L486.793 88.1143V91.4253H485.82V88.1143L482.917 83.3911ZM492.424 91.5508C491.88 91.5508 491.403 91.4214 490.992 91.1625C490.584 90.9035 490.265 90.5413 490.035 90.0758C489.807 89.6103 489.694 89.0663 489.694 88.4438C489.694 87.8162 489.807 87.2683 490.035 86.8001C490.265 86.332 490.584 85.9685 490.992 85.7095C491.403 85.4506 491.88 85.3212 492.424 85.3212C492.968 85.3212 493.444 85.4506 493.852 85.7095C494.263 85.9685 494.582 86.332 494.809 86.8001C495.039 87.2683 495.154 87.8162 495.154 88.4438C495.154 89.0663 495.039 89.6103 494.809 90.0758C494.582 90.5413 494.263 90.9035 493.852 91.1625C493.444 91.4214 492.968 91.5508 492.424 91.5508ZM492.424 90.7192C492.837 90.7192 493.177 90.6132 493.444 90.4014C493.711 90.1896 493.908 89.911 494.036 89.5658C494.165 89.2206 494.229 88.8466 494.229 88.4438C494.229 88.0411 494.165 87.6658 494.036 87.318C493.908 86.9701 493.711 86.689 493.444 86.4745C493.177 86.2601 492.837 86.1528 492.424 86.1528C492.011 86.1528 491.671 86.2601 491.404 86.4745C491.137 86.689 490.94 86.9701 490.812 87.318C490.684 87.6658 490.62 88.0411 490.62 88.4438C490.62 88.8466 490.684 89.2206 490.812 89.5658C490.94 89.911 491.137 90.1896 491.404 90.4014C491.671 90.6132 492.011 90.7192 492.424 90.7192ZM500.365 88.9617V85.3996H501.291V91.4253H500.365V90.4053H500.302C500.161 90.7113 499.941 90.9715 499.643 91.186C499.345 91.3978 498.969 91.5038 498.514 91.5038C498.137 91.5038 497.802 91.4214 497.509 91.2566C497.216 91.0892 496.986 90.8382 496.819 90.5034C496.651 90.166 496.568 89.741 496.568 89.2284V85.3996H497.494V89.1657C497.494 89.605 497.616 89.9555 497.862 90.217C498.111 90.4786 498.427 90.6093 498.812 90.6093C499.042 90.6093 499.276 90.5505 499.514 90.4328C499.754 90.3151 499.956 90.1346 500.118 89.8914C500.283 89.6482 500.365 89.3383 500.365 88.9617ZM502.112 84.2541V83.3911H508.138V84.2541H505.611V91.4253H504.638V84.2541H502.112ZM512.491 88.9617V85.3996H513.417V91.4253H512.491V90.4053H512.428C512.287 90.7113 512.067 90.9715 511.769 91.186C511.471 91.3978 511.094 91.5038 510.639 91.5038C510.263 91.5038 509.928 91.4214 509.635 91.2566C509.342 91.0892 509.112 90.8382 508.945 90.5034C508.777 90.166 508.694 89.741 508.694 89.2284V85.3996H509.619V89.1657C509.619 89.605 509.742 89.9555 509.988 90.217C510.237 90.4786 510.553 90.6093 510.938 90.6093C511.168 90.6093 511.402 90.5505 511.64 90.4328C511.88 90.3151 512.082 90.1346 512.244 89.8914C512.409 89.6482 512.491 89.3383 512.491 88.9617ZM515.238 91.4253V83.3911H516.164V86.3568H516.242C516.31 86.2522 516.404 86.1188 516.525 85.9567C516.648 85.7919 516.823 85.6455 517.05 85.5173C517.281 85.3865 517.592 85.3212 517.984 85.3212C518.492 85.3212 518.939 85.448 519.326 85.7017C519.713 85.9554 520.015 86.315 520.232 86.7805C520.449 87.246 520.558 87.7952 520.558 88.4282C520.558 89.0663 520.449 89.6194 520.232 90.0876C520.015 90.5531 519.714 90.914 519.33 91.1703C518.945 91.424 518.502 91.5508 518 91.5508C517.613 91.5508 517.303 91.4868 517.07 91.3586C516.837 91.2278 516.658 91.0801 516.533 90.9153C516.407 90.7479 516.31 90.6093 516.242 90.4995H516.133V91.4253H515.238ZM516.148 88.4125C516.148 88.8675 516.215 89.269 516.348 89.6168C516.482 89.962 516.676 90.2327 516.933 90.4289C517.189 90.6224 517.503 90.7192 517.874 90.7192C518.261 90.7192 518.584 90.6172 518.843 90.4132C519.105 90.2066 519.301 89.9293 519.432 89.5815C519.565 89.231 519.632 88.8414 519.632 88.4125C519.632 87.9888 519.566 87.6069 519.436 87.267C519.307 86.9243 519.113 86.6537 518.851 86.4549C518.592 86.2535 518.267 86.1528 517.874 86.1528C517.498 86.1528 517.181 86.2483 516.925 86.4392C516.669 86.6275 516.475 86.8917 516.344 87.2316C516.214 87.569 516.148 87.9626 516.148 88.4125ZM524.5 91.5508C523.92 91.5508 523.419 91.4227 522.998 91.1664C522.579 90.9075 522.256 90.5465 522.029 90.0836C521.804 89.6181 521.691 89.0767 521.691 88.4595C521.691 87.8423 521.804 87.2983 522.029 86.8276C522.256 86.3542 522.573 85.9855 522.978 85.7213C523.386 85.4545 523.862 85.3212 524.406 85.3212C524.72 85.3212 525.03 85.3735 525.336 85.4781C525.642 85.5827 525.92 85.7527 526.171 85.9881C526.422 86.2208 526.623 86.5294 526.772 86.9139C526.921 87.2983 526.995 87.7717 526.995 88.334V88.7263H522.35V87.926H526.054C526.054 87.586 525.986 87.2826 525.85 87.0159C525.716 86.7491 525.525 86.5386 525.277 86.3843C525.031 86.23 524.741 86.1528 524.406 86.1528C524.037 86.1528 523.718 86.2444 523.449 86.4274C523.182 86.6079 522.977 86.8433 522.833 87.1336C522.689 87.4239 522.617 87.7351 522.617 88.0672V88.6008C522.617 89.0558 522.696 89.4416 522.853 89.758C523.012 90.0719 523.233 90.3112 523.516 90.4759C523.798 90.6381 524.126 90.7192 524.5 90.7192C524.743 90.7192 524.963 90.6852 525.159 90.6172C525.358 90.5465 525.529 90.4419 525.673 90.3033C525.817 90.1621 525.928 89.9869 526.007 89.7776L526.901 90.0287C526.807 90.3321 526.649 90.5989 526.426 90.829C526.204 91.0565 525.929 91.2344 525.603 91.3625C525.276 91.4881 524.908 91.5508 524.5 91.5508Z" fill="#615E83"/>
<circle cx="473.362" cy="87.5625" r="4.36231" fill="#C6D2FD"/>
<line x1="253.308" y1="67.7483" x2="525.526" y2="67.7483" stroke="#E5E5EF" stroke-width="0.613726"/>
<path d="M458.569 42.8024L460.424 48.0627H460.497L462.352 42.8024H463.146L460.851 49.0513H460.07L457.775 42.8024H458.569ZM468.052 44.3646C468.015 44.0555 467.867 43.8154 467.606 43.6446C467.346 43.4737 467.027 43.3883 466.648 43.3883C466.372 43.3883 466.129 43.433 465.922 43.5225C465.717 43.612 465.556 43.7351 465.44 43.8917C465.326 44.0483 465.269 44.2263 465.269 44.4257C465.269 44.5925 465.309 44.7359 465.388 44.8559C465.469 44.9739 465.573 45.0725 465.699 45.1518C465.825 45.2291 465.958 45.2932 466.096 45.3441C466.234 45.3929 466.361 45.4326 466.477 45.4631L467.112 45.6339C467.275 45.6767 467.456 45.7356 467.655 45.8109C467.856 45.8862 468.049 45.9889 468.232 46.1191C468.417 46.2472 468.569 46.412 468.689 46.6134C468.809 46.8147 468.869 47.0619 468.869 47.3548C468.869 47.6925 468.781 47.9976 468.604 48.2702C468.429 48.5427 468.173 48.7594 467.835 48.9201C467.499 49.0808 467.092 49.1611 466.612 49.1611C466.164 49.1611 465.777 49.0889 465.449 48.9445C465.124 48.8001 464.867 48.5987 464.68 48.3403C464.495 48.082 464.39 47.782 464.366 47.4402H465.147C465.167 47.6762 465.247 47.8715 465.385 48.0261C465.525 48.1786 465.702 48.2925 465.916 48.3678C466.131 48.441 466.363 48.4776 466.612 48.4776C466.9 48.4776 467.16 48.4309 467.39 48.3373C467.619 48.2417 467.802 48.1095 467.936 47.9406C468.07 47.7698 468.137 47.5704 468.137 47.3426C468.137 47.1351 468.079 46.9663 467.963 46.8361C467.847 46.7059 467.695 46.6001 467.506 46.5188C467.316 46.4374 467.112 46.3662 466.892 46.3052L466.123 46.0855C465.635 45.9452 465.249 45.7448 464.964 45.4844C464.679 45.2241 464.537 44.8833 464.537 44.4623C464.537 44.1124 464.631 43.8073 464.82 43.5469C465.012 43.2845 465.268 43.0811 465.589 42.9367C465.913 42.7902 466.274 42.717 466.673 42.717C467.075 42.717 467.433 42.7892 467.747 42.9336C468.06 43.076 468.308 43.2713 468.491 43.5195C468.676 43.7676 468.774 44.0493 468.784 44.3646H468.052ZM473.561 49.0513V42.8024H474.318V48.38H477.223V49.0513H473.561ZM479.56 49.0513H478.767L481.062 42.8024H481.843L484.137 49.0513H483.344L481.477 43.791H481.428L479.56 49.0513ZM479.853 46.6103H483.051V47.2816H479.853V46.6103ZM489.043 44.3646C489.007 44.0555 488.858 43.8154 488.598 43.6446C488.338 43.4737 488.018 43.3883 487.64 43.3883C487.363 43.3883 487.121 43.433 486.914 43.5225C486.708 43.612 486.548 43.7351 486.432 43.8917C486.318 44.0483 486.261 44.2263 486.261 44.4257C486.261 44.5925 486.3 44.7359 486.38 44.8559C486.461 44.9739 486.565 45.0725 486.691 45.1518C486.817 45.2291 486.949 45.2932 487.088 45.3441C487.226 45.3929 487.353 45.4326 487.469 45.4631L488.104 45.6339C488.266 45.6767 488.447 45.7356 488.647 45.8109C488.848 45.8862 489.04 45.9889 489.223 46.1191C489.409 46.2472 489.561 46.412 489.681 46.6134C489.801 46.8147 489.861 47.0619 489.861 47.3548C489.861 47.6925 489.773 47.9976 489.596 48.2702C489.421 48.5427 489.164 48.7594 488.827 48.9201C488.491 49.0808 488.083 49.1611 487.603 49.1611C487.156 49.1611 486.768 49.0889 486.441 48.9445C486.115 48.8001 485.859 48.5987 485.672 48.3403C485.487 48.082 485.382 47.782 485.358 47.4402H486.139C486.159 47.6762 486.238 47.8715 486.377 48.0261C486.517 48.1786 486.694 48.2925 486.908 48.3678C487.123 48.441 487.355 48.4776 487.603 48.4776C487.892 48.4776 488.151 48.4309 488.381 48.3373C488.611 48.2417 488.793 48.1095 488.927 47.9406C489.062 47.7698 489.129 47.5704 489.129 47.3426C489.129 47.1351 489.071 46.9663 488.955 46.8361C488.839 46.7059 488.686 46.6001 488.497 46.5188C488.308 46.4374 488.104 46.3662 487.884 46.3052L487.115 46.0855C486.627 45.9452 486.24 45.7448 485.956 45.4844C485.671 45.2241 485.528 44.8833 485.528 44.4623C485.528 44.1124 485.623 43.8073 485.812 43.5469C486.003 43.2845 486.26 43.0811 486.581 42.9367C486.905 42.7902 487.266 42.717 487.664 42.717C488.067 42.717 488.425 42.7892 488.738 42.9336C489.052 43.076 489.3 43.2713 489.483 43.5195C489.668 43.7676 489.766 44.0493 489.776 44.3646H489.043ZM491.279 43.4737V42.8024H495.966V43.4737H494.001V49.0513H493.244V43.4737H491.279ZM501.716 49.0513L500.008 42.8024H500.776L502.082 47.8918H502.143L503.474 42.8024H504.328L505.658 47.8918H505.719L507.025 42.8024H507.794L506.085 49.0513H505.304L503.925 44.0717H503.876L502.497 49.0513H501.716ZM509.253 49.0513V42.8024H513.024V43.4737H510.009V45.5851H512.829V46.2564H510.009V48.38H513.073V49.0513H509.253ZM514.903 49.0513V42.8024H518.674V43.4737H515.66V45.5851H518.479V46.2564H515.66V48.38H518.723V49.0513H514.903ZM520.554 49.0513V42.8024H521.311V45.9024H521.384L524.191 42.8024H525.179L522.555 45.6217L525.179 49.0513H524.264L522.092 46.1465L521.311 47.0253V49.0513H520.554Z" fill="#615E83"/>
<path d="M490.15 28.255V35.3965H488.64V29.6881H488.599L486.963 30.7133V29.3743L488.731 28.255H490.15ZM492.346 35.4871C492.116 35.4871 491.918 35.4058 491.753 35.2431C491.591 35.078 491.509 34.8804 491.509 34.6502C491.509 34.4224 491.591 34.2272 491.753 34.0644C491.918 33.9017 492.116 33.8203 492.346 33.8203C492.569 33.8203 492.765 33.9017 492.932 34.0644C493.099 34.2272 493.183 34.4224 493.183 34.6502C493.183 34.8037 493.144 34.9443 493.065 35.0722C492.988 35.1977 492.887 35.2988 492.761 35.3756C492.636 35.45 492.497 35.4871 492.346 35.4871ZM496.798 35.4941C496.278 35.4941 495.814 35.4046 495.407 35.2256C495.003 35.0443 494.683 34.7955 494.448 34.4794C494.216 34.1609 494.096 33.7936 494.089 33.3775H495.609C495.619 33.5518 495.676 33.7053 495.78 33.8378C495.887 33.9679 496.029 34.0691 496.206 34.1411C496.382 34.2132 496.581 34.2492 496.802 34.2492C497.032 34.2492 497.235 34.2086 497.412 34.1272C497.589 34.0458 497.727 33.9331 497.827 33.7889C497.927 33.6448 497.977 33.4786 497.977 33.2903C497.977 33.0997 497.924 32.9311 497.817 32.7847C497.712 32.6359 497.561 32.5196 497.363 32.436C497.168 32.3523 496.936 32.3104 496.666 32.3104H496V31.2015H496.666C496.894 31.2015 497.095 31.162 497.269 31.083C497.446 31.0039 497.583 30.8947 497.681 30.7552C497.778 30.6134 497.827 30.4483 497.827 30.26C497.827 30.081 497.784 29.9241 497.698 29.7893C497.614 29.6521 497.496 29.5452 497.342 29.4685C497.191 29.3917 497.015 29.3534 496.812 29.3534C496.608 29.3534 496.421 29.3906 496.251 29.465C496.081 29.537 495.945 29.6405 495.843 29.7753C495.741 29.9101 495.686 30.0682 495.679 30.2496H494.232C494.239 29.8381 494.356 29.4754 494.584 29.1616C494.812 28.8478 495.119 28.6025 495.505 28.4258C495.893 28.2468 496.331 28.1573 496.819 28.1573C497.312 28.1573 497.743 28.2468 498.113 28.4258C498.483 28.6048 498.77 28.8466 498.974 29.1511C499.181 29.4533 499.283 29.7928 499.281 30.1694C499.283 30.5692 499.159 30.9028 498.908 31.1701C498.659 31.4375 498.335 31.6072 497.935 31.6793V31.7351C498.461 31.8025 498.86 31.985 499.135 32.2825C499.411 32.5778 499.549 32.9474 499.546 33.3914C499.549 33.7982 499.431 34.1597 499.194 34.4759C498.959 34.7921 498.635 35.0408 498.221 35.2221C497.807 35.4035 497.333 35.4941 496.798 35.4941ZM504.541 34.0574V33.6808C504.541 33.3949 504.601 33.1322 504.722 32.8928C504.845 32.651 505.023 32.458 505.255 32.3139C505.49 32.1675 505.776 32.0942 506.113 32.0942C506.455 32.0942 506.742 32.1663 506.975 32.3104C507.209 32.4546 507.386 32.6475 507.505 32.8893C507.625 33.1287 507.686 33.3926 507.686 33.6808V34.0574C507.686 34.3434 507.625 34.6072 507.505 34.849C507.384 35.0885 507.206 35.2802 506.971 35.4244C506.736 35.5708 506.45 35.6441 506.113 35.6441C505.771 35.6441 505.484 35.5708 505.252 35.4244C505.019 35.2802 504.843 35.0885 504.722 34.849C504.601 34.6072 504.541 34.3434 504.541 34.0574ZM505.555 33.6808V34.0574C505.555 34.2225 505.595 34.3783 505.674 34.5247C505.755 34.6712 505.902 34.7444 506.113 34.7444C506.325 34.7444 506.469 34.6723 506.546 34.5282C506.625 34.3841 506.664 34.2272 506.664 34.0574V33.6808C506.664 33.5111 506.627 33.3531 506.553 33.2066C506.478 33.0601 506.332 32.9869 506.113 32.9869C505.904 32.9869 505.759 33.0601 505.677 33.2066C505.596 33.3531 505.555 33.5111 505.555 33.6808ZM500.876 29.9706V29.594C500.876 29.3057 500.937 29.0419 501.06 28.8024C501.184 28.5607 501.362 28.3677 501.594 28.2236C501.829 28.0794 502.112 28.0074 502.445 28.0074C502.789 28.0074 503.077 28.0794 503.31 28.2236C503.542 28.3677 503.719 28.5607 503.84 28.8024C503.961 29.0419 504.021 29.3057 504.021 29.594V29.9706C504.021 30.2589 503.959 30.5227 503.836 30.7622C503.715 31.0016 503.537 31.1934 503.303 31.3375C503.07 31.4793 502.784 31.5502 502.445 31.5502C502.105 31.5502 501.818 31.4782 501.584 31.334C501.351 31.1876 501.174 30.9958 501.053 30.7587C500.935 30.5192 500.876 30.2565 500.876 29.9706ZM501.897 29.594V29.9706C501.897 30.1403 501.937 30.2972 502.016 30.4413C502.097 30.5855 502.24 30.6575 502.445 30.6575C502.659 30.6575 502.804 30.5855 502.881 30.4413C502.96 30.2972 502.999 30.1403 502.999 29.9706V29.594C502.999 29.4243 502.962 29.2662 502.888 29.1197C502.813 28.9733 502.666 28.9001 502.445 28.9001C502.238 28.9001 502.095 28.9745 502.016 29.1232C501.937 29.272 501.897 29.4289 501.897 29.594ZM501.336 35.3965L506.246 28.255H507.159L502.25 35.3965H501.336Z" fill="#1E1B39"/>
<circle cx="518.85" cy="31.9203" r="6.67614" fill="#04CE00"/>
<path d="M520.349 31.2086L520.169 31.3878C519.211 32.3464 518.252 33.3051 517.293 34.2639C517.099 34.4578 516.87 34.5003 516.641 34.3944C516.421 34.2907 516.3 34.1009 516.332 33.8715C516.361 33.7057 516.439 33.5525 516.556 33.4319C517.483 32.4881 518.422 31.5563 519.358 30.6209L519.535 30.4437C519.478 30.434 519.42 30.4272 519.362 30.4236C518.987 30.4219 518.612 30.4256 518.237 30.4208C517.94 30.4175 517.735 30.2132 517.732 29.9292C517.728 29.6196 517.913 29.4119 518.224 29.41C519.087 29.4044 519.949 29.4037 520.81 29.408C521.159 29.41 521.355 29.5983 521.362 29.9429C521.377 30.7983 521.387 31.6538 521.39 32.5093C521.391 32.8229 521.187 33.0073 520.875 33.0048C520.581 33.002 520.388 32.8131 520.379 32.5085C520.369 32.1468 520.369 31.7849 520.363 31.423C520.362 31.366 520.355 31.3101 520.349 31.2086Z" fill="white"/>
<path d="M306.042 47.9739V44.4118H306.967V50.4375H306.042V49.4175H305.979C305.838 49.7235 305.618 49.9837 305.32 50.1982C305.022 50.41 304.645 50.516 304.19 50.516C303.813 50.516 303.479 50.4336 303.186 50.2688C302.893 50.1014 302.663 49.8504 302.495 49.5156C302.328 49.1782 302.244 48.7532 302.244 48.2406V44.4118H303.17V48.1779C303.17 48.6172 303.293 48.9677 303.539 49.2292C303.787 49.4908 304.104 49.6215 304.488 49.6215C304.718 49.6215 304.952 49.5627 305.19 49.445C305.431 49.3273 305.632 49.1468 305.794 48.9036C305.959 48.6604 306.042 48.3505 306.042 47.9739ZM312.931 45.7613L312.1 45.9967C312.047 45.8581 311.97 45.7234 311.868 45.5926C311.769 45.4593 311.633 45.3494 311.46 45.2631C311.288 45.1768 311.067 45.1337 310.797 45.1337C310.428 45.1337 310.121 45.2187 309.875 45.3886C309.632 45.556 309.511 45.7692 309.511 46.0281C309.511 46.2582 309.594 46.44 309.762 46.5734C309.929 46.7068 310.19 46.8179 310.546 46.9068L311.441 47.1265C311.979 47.2573 312.381 47.4574 312.645 47.7267C312.909 47.9935 313.041 48.3374 313.041 48.7585C313.041 49.1037 312.942 49.4123 312.743 49.6843C312.547 49.9563 312.272 50.1707 311.919 50.3277C311.566 50.4846 311.156 50.563 310.687 50.563C310.073 50.563 309.564 50.4297 309.161 50.1629C308.759 49.8961 308.504 49.5065 308.396 48.9939L309.275 48.7742C309.359 49.0985 309.517 49.3417 309.75 49.5038C309.985 49.666 310.292 49.7471 310.672 49.7471C311.103 49.7471 311.446 49.6555 311.7 49.4725C311.956 49.2868 312.084 49.0645 312.084 48.8055C312.084 48.5963 312.011 48.4211 311.864 48.2799C311.718 48.136 311.493 48.0288 311.19 47.9582L310.185 47.7228C309.633 47.592 309.228 47.3894 308.969 47.1148C308.713 46.8375 308.585 46.491 308.585 46.0752C308.585 45.7352 308.68 45.4344 308.871 45.1729C309.065 44.9114 309.327 44.7061 309.66 44.557C309.994 44.4079 310.374 44.3334 310.797 44.3334C311.394 44.3334 311.862 44.4641 312.202 44.7257C312.544 44.9872 312.787 45.3324 312.931 45.7613ZM316.961 50.563C316.381 50.563 315.88 50.4349 315.459 50.1786C315.04 49.9197 314.717 49.5588 314.49 49.0958C314.265 48.6303 314.152 48.089 314.152 47.4717C314.152 46.8545 314.265 46.3105 314.49 45.8398C314.717 45.3664 315.034 44.9977 315.439 44.7335C315.847 44.4668 316.323 44.3334 316.867 44.3334C317.181 44.3334 317.491 44.3857 317.797 44.4903C318.103 44.5949 318.381 44.7649 318.632 45.0003C318.883 45.233 319.084 45.5416 319.233 45.9261C319.382 46.3105 319.456 46.7839 319.456 47.3462V47.7385H314.811V46.9382H318.515C318.515 46.5982 318.447 46.2949 318.311 46.0281C318.177 45.7613 317.986 45.5508 317.738 45.3965C317.492 45.2422 317.202 45.165 316.867 45.165C316.498 45.165 316.179 45.2566 315.91 45.4396C315.643 45.6201 315.438 45.8555 315.294 46.1458C315.15 46.4361 315.078 46.7473 315.078 47.0794V47.613C315.078 48.068 315.157 48.4538 315.314 48.7702C315.473 49.0841 315.694 49.3234 315.977 49.4881C316.259 49.6503 316.587 49.7314 316.961 49.7314C317.204 49.7314 317.424 49.6974 317.62 49.6294C317.819 49.5588 317.99 49.4541 318.134 49.3155C318.278 49.1743 318.389 48.9991 318.468 48.7899L319.362 49.0409C319.268 49.3443 319.11 49.6111 318.887 49.8412C318.665 50.0687 318.39 50.2466 318.064 50.3747C317.737 50.5003 317.369 50.563 316.961 50.563ZM320.865 50.4375V44.4118H321.759V45.322H321.822C321.932 45.0238 322.13 44.7819 322.418 44.5962C322.706 44.4105 323.03 44.3177 323.391 44.3177C323.459 44.3177 323.544 44.319 323.646 44.3216C323.748 44.3242 323.825 44.3281 323.877 44.3334V45.2749C323.846 45.267 323.774 45.2553 323.662 45.2396C323.552 45.2213 323.435 45.2121 323.312 45.2121C323.02 45.2121 322.758 45.2736 322.528 45.3965C322.3 45.5168 322.12 45.6842 321.987 45.8986C321.856 46.1105 321.79 46.3524 321.79 46.6244V50.4375H320.865ZM329.243 45.7613L328.411 45.9967C328.359 45.8581 328.282 45.7234 328.18 45.5926C328.081 45.4593 327.945 45.3494 327.772 45.2631C327.599 45.1768 327.378 45.1337 327.109 45.1337C326.74 45.1337 326.433 45.2187 326.187 45.3886C325.944 45.556 325.822 45.7692 325.822 46.0281C325.822 46.2582 325.906 46.44 326.073 46.5734C326.241 46.7068 326.502 46.8179 326.858 46.9068L327.752 47.1265C328.291 47.2573 328.692 47.4574 328.957 47.7267C329.221 47.9935 329.353 48.3374 329.353 48.7585C329.353 49.1037 329.253 49.4123 329.055 49.6843C328.859 49.9563 328.584 50.1707 328.231 50.3277C327.878 50.4846 327.467 50.563 326.999 50.563C326.384 50.563 325.876 50.4297 325.473 50.1629C325.07 49.8961 324.815 49.5065 324.708 48.9939L325.587 48.7742C325.671 49.0985 325.829 49.3417 326.061 49.5038C326.297 49.666 326.604 49.7471 326.983 49.7471C327.415 49.7471 327.758 49.6555 328.011 49.4725C328.268 49.2868 328.396 49.0645 328.396 48.8055C328.396 48.5963 328.322 48.4211 328.176 48.2799C328.03 48.136 327.805 48.0288 327.501 47.9582L326.497 47.7228C325.945 47.592 325.54 47.3894 325.281 47.1148C325.025 46.8375 324.896 46.491 324.896 46.0752C324.896 45.7352 324.992 45.4344 325.183 45.1729C325.376 44.9114 325.639 44.7061 325.971 44.557C326.306 44.4079 326.685 44.3334 327.109 44.3334C327.705 44.3334 328.173 44.4641 328.513 44.7257C328.856 44.9872 329.099 45.3324 329.243 45.7613Z" fill="#615E83"/>
<path d="M258.376 41.549V51.3687H256.3V43.5197H256.243L253.994 44.9293V43.0882L256.425 41.549H258.376ZM260.71 51.3687V49.8727L264.205 46.6363C264.503 46.3486 264.752 46.0897 264.953 45.8595C265.158 45.6294 265.313 45.404 265.418 45.1834C265.524 44.9597 265.577 44.7184 265.577 44.4594C265.577 44.1718 265.511 43.924 265.38 43.7163C265.249 43.5053 265.07 43.3439 264.843 43.232C264.616 43.1169 264.359 43.0594 264.071 43.0594C263.771 43.0594 263.509 43.1201 263.285 43.2416C263.061 43.3631 262.888 43.5373 262.767 43.7642C262.646 43.9912 262.585 44.2613 262.585 44.5745H260.614C260.614 43.932 260.76 43.3742 261.05 42.9012C261.341 42.4281 261.749 42.0621 262.273 41.8032C262.797 41.5442 263.401 41.4148 264.086 41.4148C264.789 41.4148 265.401 41.5395 265.922 41.7888C266.446 42.0349 266.854 42.3769 267.145 42.8149C267.435 43.2528 267.581 43.7546 267.581 44.3204C267.581 44.6912 267.507 45.0572 267.36 45.4184C267.216 45.7796 266.959 46.1808 266.588 46.6219C266.218 47.0598 265.695 47.5856 265.02 48.1993L263.587 49.6042V49.6713H267.71V51.3687H260.71ZM271.454 50.0261L271.401 50.5535C271.36 50.9755 271.28 51.3958 271.161 51.8146C271.046 52.2365 270.925 52.6185 270.797 52.9605C270.672 53.3025 270.572 53.571 270.495 53.766H269.172C269.219 53.5774 269.285 53.3137 269.368 52.9749C269.451 52.6393 269.53 52.2621 269.603 51.8433C269.677 51.4246 269.723 50.9979 269.742 50.5631L269.766 50.0261H271.454ZM276.81 51.5029C276.132 51.5029 275.528 51.3782 274.997 51.1289C274.47 50.8796 274.051 50.536 273.741 50.098C273.431 49.6601 273.269 49.1583 273.257 48.5925H275.27C275.293 48.9729 275.453 49.2813 275.75 49.5179C276.047 49.7544 276.4 49.8727 276.81 49.8727C277.136 49.8727 277.423 49.8008 277.673 49.6569C277.925 49.5099 278.122 49.3069 278.262 49.048C278.406 48.7859 278.478 48.4854 278.478 48.1466C278.478 47.8014 278.405 47.4977 278.258 47.2356C278.114 46.9735 277.914 46.7689 277.658 46.6219C277.402 46.4748 277.11 46.3997 276.781 46.3965C276.493 46.3965 276.213 46.4557 275.942 46.5739C275.673 46.6922 275.464 46.8536 275.314 47.0582L273.468 46.7274L273.933 41.549H279.936V43.2464H275.644L275.39 45.7061H275.448C275.62 45.4631 275.881 45.2618 276.229 45.1019C276.578 44.9421 276.968 44.8622 277.399 44.8622C277.991 44.8622 278.518 45.0012 278.982 45.2793C279.445 45.5574 279.811 45.9394 280.08 46.4253C280.348 46.908 280.481 47.4641 280.478 48.0939C280.481 48.7555 280.327 49.3437 280.017 49.8583C279.71 50.3698 279.28 50.7725 278.727 51.0666C278.178 51.3575 277.538 51.5029 276.81 51.5029ZM285.694 51.5029C285.189 51.4997 284.702 51.415 284.232 51.2488C283.765 51.0826 283.346 50.8125 282.976 50.4385C282.605 50.0645 282.311 49.569 282.093 48.9521C281.879 48.3352 281.772 47.5776 281.772 46.6794C281.775 45.8547 281.87 45.1179 282.055 44.469C282.244 43.817 282.512 43.264 282.86 42.8101C283.212 42.3562 283.632 42.0109 284.122 41.7744C284.611 41.5347 285.159 41.4148 285.766 41.4148C286.421 41.4148 287 41.5427 287.502 41.7984C288.004 42.0509 288.406 42.3945 288.71 42.8292C289.017 43.264 289.202 43.7514 289.266 44.2916H287.219C287.139 43.9496 286.971 43.6811 286.715 43.4861C286.46 43.2911 286.143 43.1936 285.766 43.1936C285.127 43.1936 284.641 43.4717 284.308 44.0279C283.979 44.5841 283.811 45.3401 283.805 46.2958H283.872C284.019 46.0049 284.217 45.7572 284.467 45.5526C284.719 45.3449 285.005 45.1866 285.325 45.078C285.648 44.9661 285.988 44.9101 286.346 44.9101C286.928 44.9101 287.446 45.0476 287.9 45.3225C288.354 45.5942 288.712 45.9682 288.974 46.4445C289.236 46.9207 289.367 47.4657 289.367 48.0795C289.367 48.7443 289.212 49.3357 288.902 49.8535C288.595 50.3713 288.165 50.7773 287.612 51.0714C287.062 51.3623 286.423 51.5061 285.694 51.5029ZM285.685 49.8727C286.004 49.8727 286.29 49.796 286.543 49.6425C286.795 49.4891 286.994 49.2813 287.137 49.0192C287.281 48.7571 287.353 48.463 287.353 48.137C287.353 47.811 287.281 47.5185 287.137 47.2596C286.997 47.0007 286.802 46.7945 286.552 46.641C286.303 46.4876 286.019 46.4109 285.699 46.4109C285.459 46.4109 285.237 46.4557 285.033 46.5452C284.831 46.6347 284.654 46.7593 284.5 46.9191C284.35 47.079 284.232 47.2644 284.145 47.4753C284.059 47.6831 284.016 47.9053 284.016 48.1418C284.016 48.4583 284.088 48.7475 284.232 49.0096C284.379 49.2718 284.577 49.4811 284.826 49.6378C285.079 49.7944 285.365 49.8727 285.685 49.8727ZM294.469 51.5029C293.753 51.5029 293.115 51.3798 292.555 51.1337C291.999 50.8844 291.56 50.5424 291.237 50.1076C290.917 49.6697 290.753 49.1647 290.743 48.5925H292.834C292.846 48.8322 292.925 49.0432 293.068 49.2254C293.216 49.4044 293.41 49.5435 293.653 49.6425C293.896 49.7416 294.17 49.7912 294.473 49.7912C294.79 49.7912 295.069 49.7352 295.312 49.6234C295.555 49.5115 295.746 49.3565 295.883 49.1583C296.02 48.9601 296.089 48.7316 296.089 48.4726C296.089 48.2105 296.016 47.9788 295.869 47.7774C295.725 47.5728 295.517 47.413 295.245 47.2979C294.977 47.1829 294.657 47.1253 294.286 47.1253H293.371V45.6006H294.286C294.6 45.6006 294.876 45.5463 295.116 45.4376C295.359 45.3289 295.547 45.1787 295.682 44.9869C295.816 44.7919 295.883 44.5649 295.883 44.306C295.883 44.0599 295.824 43.8441 295.706 43.6587C295.59 43.4701 295.427 43.3231 295.217 43.2176C295.009 43.1121 294.766 43.0594 294.488 43.0594C294.206 43.0594 293.949 43.1105 293.716 43.2128C293.482 43.3119 293.295 43.4541 293.155 43.6395C293.014 43.8249 292.939 44.0423 292.929 44.2916H290.94C290.949 43.7259 291.111 43.2272 291.424 42.7957C291.737 42.3641 292.159 42.0269 292.69 41.784C293.224 41.5379 293.826 41.4148 294.497 41.4148C295.175 41.4148 295.768 41.5379 296.276 41.784C296.784 42.0301 297.179 42.3625 297.46 42.7813C297.745 43.1968 297.886 43.6635 297.882 44.1814C297.886 44.7311 297.715 45.1898 297.369 45.5574C297.027 45.925 296.581 46.1584 296.032 46.2575V46.3342C296.754 46.4269 297.304 46.6778 297.681 47.087C298.061 47.4929 298.25 48.0012 298.247 48.6117C298.25 49.1711 298.089 49.6681 297.763 50.1028C297.44 50.5376 296.994 50.8796 296.425 51.1289C295.856 51.3782 295.204 51.5029 294.469 51.5029Z" fill="#1E1B39"/>
<path d="M254.611 24.6054L256.996 31.3686H257.09L259.475 24.6054H260.495L257.545 32.6396H256.541L253.591 24.6054H254.611ZM261.621 32.6396V26.614H262.547V32.6396H261.621ZM262.092 25.6097C261.911 25.6097 261.756 25.5482 261.625 25.4253C261.497 25.3024 261.433 25.1546 261.433 24.982C261.433 24.8094 261.497 24.6617 261.625 24.5387C261.756 24.4158 261.911 24.3544 262.092 24.3544C262.272 24.3544 262.426 24.4158 262.555 24.5387C262.685 24.6617 262.751 24.8094 262.751 24.982C262.751 25.1546 262.685 25.3024 262.555 25.4253C262.426 25.5482 262.272 25.6097 262.092 25.6097ZM268.511 27.9635L267.679 28.1989C267.627 28.0602 267.549 27.9256 267.447 27.7948C267.348 27.6614 267.212 27.5516 267.039 27.4653C266.867 27.379 266.646 27.3358 266.377 27.3358C266.008 27.3358 265.7 27.4208 265.455 27.5908C265.211 27.7582 265.09 27.9713 265.09 28.2302C265.09 28.4604 265.173 28.6422 265.341 28.7755C265.508 28.9089 265.77 29.0201 266.125 29.109L267.02 29.3287C267.559 29.4594 267.96 29.6595 268.224 29.9289C268.488 30.1956 268.62 30.5396 268.62 30.9606C268.62 31.3058 268.521 31.6144 268.322 31.8864C268.126 32.1584 267.852 32.3729 267.498 32.5298C267.145 32.6867 266.735 32.7652 266.267 32.7652C265.652 32.7652 265.143 32.6318 264.741 32.365C264.338 32.0983 264.083 31.7086 263.976 31.196L264.854 30.9763C264.938 31.3006 265.096 31.5438 265.329 31.706C265.564 31.8681 265.872 31.9492 266.251 31.9492C266.682 31.9492 267.025 31.8577 267.279 31.6746C267.535 31.4889 267.663 31.2666 267.663 31.0077C267.663 30.7985 267.59 30.6232 267.444 30.482C267.297 30.3382 267.072 30.231 266.769 30.1603L265.765 29.925C265.213 29.7942 264.807 29.5915 264.548 29.3169C264.292 29.0397 264.164 28.6931 264.164 28.2773C264.164 27.9373 264.259 27.6366 264.45 27.375C264.644 27.1135 264.907 26.9082 265.239 26.7591C265.574 26.6101 265.953 26.5355 266.377 26.5355C266.973 26.5355 267.441 26.6663 267.781 26.9278C268.124 27.1893 268.367 27.5346 268.511 27.9635ZM270.014 32.6396V26.614H270.94V32.6396H270.014ZM270.485 25.6097C270.304 25.6097 270.149 25.5482 270.018 25.4253C269.89 25.3024 269.826 25.1546 269.826 24.982C269.826 24.8094 269.89 24.6617 270.018 24.5387C270.149 24.4158 270.304 24.3544 270.485 24.3544C270.665 24.3544 270.82 24.4158 270.948 24.5387C271.078 24.6617 271.144 24.8094 271.144 24.982C271.144 25.1546 271.078 25.3024 270.948 25.4253C270.82 25.5482 270.665 25.6097 270.485 25.6097ZM275.256 26.614V27.3986H272.133V26.614H275.256ZM273.044 25.1703H273.969V30.9135C273.969 31.1751 274.007 31.3712 274.083 31.502C274.162 31.6301 274.261 31.7164 274.381 31.7609C274.504 31.8027 274.634 31.8237 274.77 31.8237C274.872 31.8237 274.955 31.8184 275.021 31.808C275.086 31.7949 275.138 31.7844 275.178 31.7766L275.366 32.6083C275.303 32.6318 275.216 32.6553 275.103 32.6789C274.991 32.705 274.848 32.7181 274.676 32.7181C274.414 32.7181 274.158 32.6619 273.907 32.5494C273.658 32.437 273.452 32.2657 273.287 32.0355C273.125 31.8054 273.044 31.5151 273.044 31.1646V25.1703ZM280.809 27.9635L279.977 28.1989C279.925 28.0602 279.848 27.9256 279.746 27.7948C279.647 27.6614 279.511 27.5516 279.338 27.4653C279.165 27.379 278.944 27.3358 278.675 27.3358C278.306 27.3358 277.999 27.4208 277.753 27.5908C277.51 27.7582 277.388 27.9713 277.388 28.2302C277.388 28.4604 277.472 28.6422 277.639 28.7755C277.807 28.9089 278.068 29.0201 278.424 29.109L279.318 29.3287C279.857 29.4594 280.259 29.6595 280.523 29.9289C280.787 30.1956 280.919 30.5396 280.919 30.9606C280.919 31.3058 280.82 31.6144 280.621 31.8864C280.425 32.1584 280.15 32.3729 279.797 32.5298C279.444 32.6867 279.033 32.7652 278.565 32.7652C277.951 32.7652 277.442 32.6318 277.039 32.365C276.636 32.0983 276.381 31.7086 276.274 31.196L277.153 30.9763C277.237 31.3006 277.395 31.5438 277.628 31.706C277.863 31.8681 278.17 31.9492 278.549 31.9492C278.981 31.9492 279.324 31.8577 279.577 31.6746C279.834 31.4889 279.962 31.2666 279.962 31.0077C279.962 30.7985 279.888 30.6232 279.742 30.482C279.596 30.3382 279.371 30.231 279.067 30.1603L278.063 29.925C277.511 29.7942 277.106 29.5915 276.847 29.3169C276.591 29.0397 276.462 28.6931 276.462 28.2773C276.462 27.9373 276.558 27.6366 276.749 27.375C276.942 27.1135 277.205 26.9082 277.537 26.7591C277.872 26.6101 278.251 26.5355 278.675 26.5355C279.271 26.5355 279.739 26.6663 280.079 26.9278C280.422 27.1893 280.665 27.5346 280.809 27.9635Z" fill="#9291A5"/>
<g filter="url(#filter1_d_2001_1605)">
<rect x="5" y="57.6309" width="262" height="177.734" rx="15.7831" fill="white"/>
</g>
<path d="M126.423 201.316L140.031 188.041L145.839 173.106L154.468 194.181L160.276 184.224L166.416 121.664L182.18 182.897L193.631 162.486L215.535 201.316L222.339 191.526L226.487 175.263L239.265 162.486" stroke="#2D5BFF" stroke-width="2.36747" stroke-linecap="round" stroke-linejoin="round"/>
<path d="M82.275 186.478C81.6492 187.105 81.0506 187.705 80.4515 188.306C79.9386 188.819 79.4257 189.331 78.9129 189.842C78.7451 190.009 78.5427 190.06 78.3146 189.993C78.0865 189.926 77.9506 189.764 77.9003 189.535C77.8518 189.313 77.9367 189.13 78.0924 188.973C78.8037 188.262 79.5144 187.551 80.2245 186.84C80.751 186.313 81.2779 185.787 81.8051 185.262C82.0942 184.975 82.4288 184.973 82.7167 185.257C83.1168 185.652 83.5141 186.049 83.9089 186.45C83.9535 186.495 83.9816 186.556 84.0133 186.603L87.3379 183.276C87.2905 183.273 87.2449 183.268 87.1991 183.267C86.8144 183.267 86.4298 183.271 86.0451 183.265C85.791 183.261 85.5995 183.138 85.4951 182.907C85.3954 182.686 85.4285 182.472 85.5839 182.284C85.6396 182.214 85.7106 182.158 85.7914 182.12C85.8722 182.082 85.9606 182.063 86.0499 182.065C86.9707 182.063 87.8938 182.061 88.8158 182.066C89.1641 182.067 89.4218 182.332 89.4229 182.679C89.4259 183.597 89.4259 184.514 89.4229 185.431C89.4229 185.78 89.1498 186.053 88.8191 186.05C88.4883 186.047 88.2332 185.786 88.2273 185.437C88.2217 185.062 88.2258 184.687 88.2258 184.312V184.157L88.172 184.122C88.1385 184.175 88.1011 184.225 88.0601 184.272C86.8829 185.452 85.7048 186.63 84.5258 187.808C84.2189 188.114 83.8873 188.115 83.5816 187.81C83.1802 187.411 82.7795 187.01 82.3794 186.608C82.3451 186.573 82.3176 186.53 82.275 186.478Z" fill="#04CE00"/>
<path d="M34.477 188.413V183.108H35.5324V188.413H34.477ZM32.3545 186.286V185.235H37.6589V186.286H32.3545ZM39.1341 189.762V188.883L41.853 186.066C42.1433 185.76 42.3826 185.492 42.5709 185.262C42.7619 185.029 42.9044 184.808 42.9986 184.599C43.0927 184.39 43.1398 184.167 43.1398 183.932C43.1398 183.665 43.0771 183.435 42.9515 183.242C42.826 183.045 42.6546 182.895 42.4375 182.79C42.2205 182.683 41.9759 182.63 41.7039 182.63C41.4162 182.63 41.1651 182.688 40.9506 182.806C40.7361 182.924 40.5713 183.09 40.4562 183.304C40.3412 183.519 40.2836 183.77 40.2836 184.058H39.1262C39.1262 183.569 39.2387 183.141 39.4636 182.775C39.6886 182.409 39.9972 182.125 40.3895 181.923C40.7819 181.719 41.2278 181.617 41.7274 181.617C42.2322 181.617 42.6769 181.718 43.0614 181.919C43.4485 182.118 43.7506 182.39 43.9677 182.735C44.1847 183.078 44.2933 183.465 44.2933 183.897C44.2933 184.195 44.2371 184.487 44.1246 184.772C44.0147 185.057 43.8225 185.375 43.5479 185.725C43.2732 186.073 42.8913 186.495 42.4022 186.992L40.8054 188.664V188.723H44.4228V189.762H39.1341ZM48.9582 181.727V189.762H47.7419V182.943H47.6949L45.7724 184.199V183.038L47.7772 181.727H48.9582ZM51.4564 189.837C51.2419 189.837 51.0575 189.761 50.9032 189.609C50.7489 189.455 50.6717 189.269 50.6717 189.052C50.6717 188.838 50.7489 188.655 50.9032 188.503C51.0575 188.348 51.2419 188.271 51.4564 188.271C51.6709 188.271 51.8553 188.348 52.0096 188.503C52.1639 188.655 52.241 188.838 52.241 189.052C52.241 189.196 52.2044 189.328 52.1312 189.448C52.0606 189.566 51.9664 189.66 51.8487 189.731C51.731 189.801 51.6002 189.837 51.4564 189.837ZM56.3027 189.896C55.6828 189.893 55.1532 189.73 54.7137 189.405C54.2743 189.081 53.9382 188.609 53.7054 187.989C53.4727 187.369 53.3563 186.622 53.3563 185.749C53.3563 184.878 53.4727 184.133 53.7054 183.516C53.9408 182.899 54.2783 182.428 54.7177 182.104C55.1597 181.779 55.6881 181.617 56.3027 181.617C56.9174 181.617 57.4444 181.781 57.8838 182.108C58.3232 182.432 58.6593 182.903 58.8921 183.52C59.1275 184.135 59.2452 184.878 59.2452 185.749C59.2452 186.625 59.1288 187.373 58.8961 187.993C58.6633 188.61 58.3272 189.082 57.8878 189.409C57.4483 189.733 56.92 189.896 56.3027 189.896ZM56.3027 188.848C56.8468 188.848 57.2718 188.583 57.5778 188.052C57.8864 187.521 58.0408 186.753 58.0408 185.749C58.0408 185.082 57.9701 184.518 57.8289 184.058C57.6903 183.595 57.4902 183.244 57.2286 183.006C56.9697 182.766 56.661 182.645 56.3027 182.645C55.7613 182.645 55.3363 182.912 55.0276 183.446C54.719 183.979 54.5634 184.747 54.5607 185.749C54.5607 186.418 54.6301 186.984 54.7687 187.447C54.9099 187.908 55.11 188.257 55.369 188.495C55.6279 188.73 55.9391 188.848 56.3027 188.848ZM63.6855 181.727V189.762H62.4693V182.943H62.4222L60.4997 184.199V183.038L62.5046 181.727H63.6855ZM70.0531 188.256V187.832C70.0531 187.529 70.1159 187.251 70.2414 187C70.3696 186.746 70.5553 186.544 70.7986 186.392C71.0444 186.238 71.3413 186.161 71.6892 186.161C72.0449 186.161 72.3431 186.236 72.5837 186.388C72.8243 186.54 73.0061 186.743 73.129 186.996C73.2546 187.25 73.3174 187.529 73.3174 187.832V188.256C73.3174 188.559 73.2546 188.838 73.129 189.091C73.0035 189.342 72.8191 189.545 72.5758 189.699C72.3352 189.851 72.0397 189.927 71.6892 189.927C71.3361 189.927 71.0379 189.851 70.7946 189.699C70.5514 189.545 70.367 189.342 70.2414 189.091C70.1159 188.838 70.0531 188.559 70.0531 188.256ZM70.9673 187.832V188.256C70.9673 188.481 71.0209 188.685 71.1281 188.868C71.2354 189.051 71.4224 189.142 71.6892 189.142C71.9533 189.142 72.1377 189.051 72.2424 188.868C72.347 188.685 72.3993 188.481 72.3993 188.256V187.832C72.3993 187.607 72.3483 187.403 72.2463 187.22C72.1469 187.037 71.9612 186.945 71.6892 186.945C71.4276 186.945 71.2419 187.037 71.132 187.22C71.0222 187.403 70.9673 187.607 70.9673 187.832ZM66.0121 183.657V183.234C66.0121 182.93 66.0748 182.652 66.2004 182.398C66.3285 182.144 66.5142 181.942 66.7575 181.79C67.0034 181.638 67.3002 181.562 67.6481 181.562C68.0038 181.562 68.302 181.638 68.5426 181.79C68.7833 181.942 68.965 182.144 69.088 182.398C69.2109 182.652 69.2724 182.93 69.2724 183.234V183.657C69.2724 183.961 69.2096 184.239 69.0841 184.493C68.9611 184.744 68.778 184.947 68.5348 185.101C68.2941 185.253 67.9986 185.329 67.6481 185.329C67.2924 185.329 66.9929 185.253 66.7496 185.101C66.509 184.947 66.3259 184.744 66.2004 184.493C66.0748 184.239 66.0121 183.961 66.0121 183.657ZM66.9301 183.234V183.657C66.9301 183.882 66.9824 184.086 67.0871 184.269C67.1943 184.453 67.3813 184.544 67.6481 184.544C67.9097 184.544 68.0927 184.453 68.1974 184.269C68.3046 184.086 68.3582 183.882 68.3582 183.657V183.234C68.3582 183.009 68.3072 182.805 68.2052 182.622C68.1032 182.439 67.9175 182.347 67.6481 182.347C67.3865 182.347 67.2008 182.439 67.091 182.622C66.9837 182.805 66.9301 183.009 66.9301 183.234ZM66.3848 189.762L71.9089 181.727H72.8466L67.3225 189.762H66.3848Z" fill="#04CE00"/>
<path d="M42.8518 168.915C41.553 168.907 40.2993 168.689 39.0909 168.262C37.8908 167.834 36.8139 167.139 35.8603 166.178C34.9068 165.216 34.1505 163.942 33.5915 162.355C33.0407 160.769 32.7654 158.82 32.7654 156.511C32.7736 154.39 33.0161 152.495 33.4929 150.826C33.9779 149.149 34.6684 147.727 35.5644 146.56C36.4686 145.392 37.5496 144.505 38.8073 143.896C40.0651 143.28 41.4749 142.972 43.0367 142.972C44.7219 142.972 46.2098 143.3 47.5004 143.958C48.791 144.607 49.8268 145.491 50.6077 146.609C51.3969 147.727 51.8736 148.981 52.0381 150.37H46.7729C46.5674 149.49 46.1358 148.8 45.4782 148.298C44.8206 147.797 44.0067 147.546 43.0367 147.546C41.3927 147.546 40.1432 148.261 39.2882 149.692C38.4415 151.122 38.01 153.066 37.9935 155.524H38.1662C38.5443 154.776 39.054 154.139 39.6951 153.613C40.3446 153.079 41.0803 152.672 41.9023 152.392C42.7326 152.104 43.608 151.961 44.5287 151.961C46.0248 151.961 47.3565 152.314 48.5238 153.021C49.6911 153.72 50.6118 154.681 51.2859 155.906C51.96 157.131 52.297 158.533 52.297 160.111C52.297 161.821 51.8983 163.342 51.1009 164.673C50.3118 166.005 49.2061 167.049 47.784 167.805C46.3701 168.553 44.726 168.923 42.8518 168.915ZM42.8271 164.723C43.6492 164.723 44.3849 164.525 45.0343 164.131C45.6837 163.736 46.1934 163.202 46.5633 162.528C46.9332 161.854 47.1182 161.097 47.1182 160.259C47.1182 159.421 46.9332 158.668 46.5633 158.003C46.2016 157.337 45.7001 156.806 45.0589 156.412C44.4178 156.017 43.6861 155.82 42.8641 155.82C42.2476 155.82 41.6763 155.935 41.1502 156.165C40.6323 156.395 40.176 156.716 39.7815 157.127C39.3951 157.538 39.0909 158.015 38.869 158.557C38.647 159.092 38.5361 159.663 38.5361 160.271C38.5361 161.085 38.721 161.829 39.0909 162.503C39.4691 163.177 39.9787 163.716 40.6199 164.118C41.2693 164.521 42.0051 164.723 42.8271 164.723ZM65.4167 168.915C63.5754 168.915 61.9354 168.599 60.4968 167.966C59.0665 167.324 57.9362 166.445 57.1059 165.327C56.2839 164.201 55.8605 162.902 55.8359 161.43H61.212C61.2449 162.047 61.4463 162.589 61.8162 163.058C62.1943 163.518 62.6958 163.876 63.3205 164.131C63.9453 164.386 64.6481 164.513 65.4291 164.513C66.2429 164.513 66.9622 164.369 67.5869 164.081C68.2117 163.794 68.7008 163.395 69.0542 162.885C69.4077 162.376 69.5845 161.788 69.5845 161.122C69.5845 160.448 69.3954 159.852 69.0172 159.334C68.6473 158.808 68.113 158.397 67.4143 158.101C66.7238 157.805 65.9017 157.657 64.9482 157.657H62.593V153.736H64.9482C65.7538 153.736 66.4648 153.596 67.0813 153.317C67.7061 153.037 68.1911 152.651 68.5364 152.158C68.8816 151.656 69.0542 151.073 69.0542 150.407C69.0542 149.774 68.9022 149.219 68.598 148.742C68.3021 148.257 67.8828 147.879 67.3403 147.608C66.806 147.337 66.1812 147.201 65.466 147.201C64.7426 147.201 64.0809 147.332 63.4808 147.596C62.8807 147.85 62.3998 148.216 62.0381 148.693C61.6764 149.17 61.4833 149.729 61.4586 150.37H56.3414C56.3661 148.915 56.7812 147.633 57.5868 146.523C58.3924 145.413 59.4775 144.546 60.8421 143.921C62.2149 143.288 63.7644 142.972 65.4907 142.972C67.2334 142.972 68.7583 143.288 70.0653 143.921C71.3724 144.554 72.3876 145.409 73.111 146.486C73.8426 147.554 74.2043 148.755 74.1961 150.086C74.2043 151.5 73.7645 152.68 72.8767 153.625C71.9971 154.571 70.8504 155.171 69.4365 155.425V155.623C71.2943 155.861 72.7082 156.506 73.6782 157.559C74.6564 158.603 75.1414 159.91 75.1332 161.48C75.1414 162.918 74.7263 164.197 73.8878 165.315C73.0576 166.433 71.9108 167.312 70.4476 167.953C68.9844 168.594 67.3074 168.915 65.4167 168.915ZM88.1944 168.915C86.4517 168.915 84.898 168.594 83.5334 167.953C82.1771 167.312 81.1002 166.428 80.3028 165.302C79.5054 164.176 79.0903 162.885 79.0574 161.43H84.2363C84.2938 162.409 84.7048 163.202 85.4693 163.81C86.2338 164.419 87.1422 164.723 88.1944 164.723C89.0329 164.723 89.7727 164.538 90.4139 164.168C91.0633 163.79 91.5688 163.268 91.9305 162.602C92.3005 161.928 92.4854 161.155 92.4854 160.284C92.4854 159.396 92.2963 158.615 91.9182 157.941C91.5483 157.267 91.0345 156.741 90.3769 156.363C89.7193 155.984 88.9671 155.791 88.1204 155.783C87.3806 155.783 86.6613 155.935 85.9625 156.239C85.272 156.543 84.7336 156.959 84.3472 157.485L79.6 156.634L80.796 143.317H96.2339V147.682H85.198L84.5445 154.007H84.6925C85.1364 153.383 85.8064 152.865 86.7024 152.454C87.5984 152.043 88.6013 151.837 89.711 151.837C91.2318 151.837 92.5882 152.195 93.7801 152.91C94.9721 153.625 95.9133 154.608 96.6038 155.857C97.2943 157.098 97.6355 158.529 97.6273 160.148C97.6355 161.85 97.2409 163.362 96.4435 164.686C95.6544 166.001 94.5487 167.037 93.1266 167.793C91.7127 168.541 90.0686 168.915 88.1944 168.915Z" fill="#1E1B39"/>
<path d="M32.011 113.667V103.336H36.0868C36.867 103.336 37.5328 103.476 38.0844 103.755C38.6392 104.031 39.0613 104.422 39.3505 104.93C39.6431 105.435 39.7893 106.028 39.7893 106.711C39.7893 107.397 39.6414 107.987 39.3454 108.481C39.0495 108.972 38.6207 109.349 38.0591 109.611C37.5009 109.874 36.825 110.005 36.0313 110.005H33.3023V108.249H35.6782C36.0952 108.249 36.4416 108.192 36.7173 108.078C36.9931 107.964 37.1982 107.792 37.3328 107.563C37.4706 107.335 37.5396 107.051 37.5396 106.711C37.5396 106.368 37.4706 106.079 37.3328 105.843C37.1982 105.608 36.9914 105.43 36.7123 105.309C36.4365 105.184 36.0885 105.122 35.6681 105.122H34.1952V113.667H32.011ZM37.59 108.966L40.1576 113.667H37.7464L35.2343 108.966H37.59ZM44.6987 113.818C43.9017 113.818 43.2157 113.657 42.6406 113.334C42.069 113.008 41.6284 112.547 41.319 111.952C41.0096 111.353 40.855 110.645 40.855 109.828C40.855 109.031 41.0096 108.332 41.319 107.73C41.6284 107.128 42.0639 106.659 42.6255 106.322C43.1905 105.986 43.853 105.818 44.613 105.818C45.1241 105.818 45.6 105.9 46.0405 106.065C46.4844 106.227 46.8711 106.47 47.2007 106.797C47.5336 107.123 47.7926 107.533 47.9775 108.027C48.1625 108.518 48.255 109.093 48.255 109.753V110.343H41.7125V109.011H46.2322C46.2322 108.702 46.1649 108.428 46.0304 108.189C45.8959 107.95 45.7093 107.763 45.4705 107.629C45.2351 107.491 44.961 107.422 44.6483 107.422C44.3221 107.422 44.0329 107.498 43.7807 107.649C43.5318 107.797 43.3368 107.997 43.1955 108.249C43.0543 108.498 42.982 108.776 42.9786 109.082V110.348C42.9786 110.731 43.0492 111.062 43.1905 111.342C43.3351 111.621 43.5385 111.836 43.8008 111.987C44.0631 112.139 44.3742 112.214 44.734 112.214C44.9728 112.214 45.1914 112.181 45.3898 112.113C45.5882 112.046 45.758 111.945 45.8993 111.811C46.0405 111.676 46.1481 111.511 46.2221 111.316L48.2096 111.447C48.1087 111.925 47.9019 112.342 47.5891 112.698C47.2797 113.052 46.8796 113.327 46.3886 113.526C45.901 113.721 45.3377 113.818 44.6987 113.818ZM51.8667 113.813C51.3724 113.813 50.9318 113.728 50.5451 113.556C50.1584 113.381 49.8523 113.124 49.627 112.784C49.4051 112.441 49.2941 112.014 49.2941 111.503C49.2941 111.073 49.3731 110.711 49.5312 110.418C49.6892 110.126 49.9045 109.89 50.1769 109.712C50.4493 109.534 50.7586 109.399 51.105 109.309C51.4548 109.218 51.8213 109.154 52.2047 109.117C52.6553 109.07 53.0185 109.026 53.2943 108.986C53.57 108.942 53.7701 108.878 53.8945 108.794C54.019 108.71 54.0812 108.586 54.0812 108.421V108.391C54.0812 108.071 53.9803 107.824 53.7785 107.649C53.5801 107.474 53.2976 107.387 52.9311 107.387C52.5443 107.387 52.2366 107.473 52.008 107.644C51.7793 107.812 51.6279 108.024 51.554 108.28L49.5665 108.118C49.6674 107.647 49.8658 107.241 50.1617 106.898C50.4577 106.551 50.8394 106.285 51.3068 106.101C51.7776 105.912 52.3224 105.818 52.9412 105.818C53.3716 105.818 53.7836 105.868 54.177 105.969C54.5738 106.07 54.9253 106.227 55.2313 106.438C55.5407 106.65 55.7845 106.923 55.9627 107.256C56.1409 107.585 56.2301 107.98 56.2301 108.441V113.667H54.1921V112.593H54.1316C54.0072 112.835 53.8407 113.048 53.6322 113.233C53.4237 113.415 53.1732 113.558 52.8806 113.662C52.5881 113.763 52.2501 113.813 51.8667 113.813ZM52.4821 112.33C52.7982 112.33 53.0774 112.268 53.3195 112.144C53.5616 112.016 53.7516 111.844 53.8895 111.629C54.0274 111.414 54.0963 111.17 54.0963 110.898V110.075C54.029 110.119 53.9366 110.16 53.8189 110.196C53.7045 110.23 53.5751 110.262 53.4305 110.292C53.2858 110.319 53.1412 110.344 52.9966 110.368C52.852 110.388 52.7209 110.407 52.6032 110.423C52.351 110.46 52.1307 110.519 51.9424 110.6C51.7541 110.681 51.6078 110.79 51.5035 110.928C51.3993 111.062 51.3471 111.231 51.3471 111.432C51.3471 111.725 51.4531 111.949 51.6649 112.103C51.8802 112.255 52.1526 112.33 52.4821 112.33ZM60.0461 103.336V113.667H57.8972V103.336H60.0461ZM65.8887 105.919V107.533H61.2227V105.919H65.8887ZM62.282 104.063H64.4309V111.286C64.4309 111.484 64.4611 111.639 64.5217 111.75C64.5822 111.858 64.6663 111.933 64.7739 111.977C64.8849 112.021 65.0126 112.043 65.1572 112.043C65.2581 112.043 65.359 112.034 65.4599 112.017C65.5608 111.997 65.6381 111.982 65.6919 111.972L66.0299 113.571C65.9223 113.605 65.771 113.643 65.5759 113.687C65.3809 113.734 65.1438 113.763 64.8647 113.773C64.3468 113.793 63.8928 113.724 63.5027 113.566C63.116 113.408 62.815 113.163 62.5998 112.83C62.3845 112.497 62.2786 112.076 62.282 111.569V104.063ZM67.2885 113.667V105.919H69.4374V113.667H67.2885ZM68.368 104.92C68.0485 104.92 67.7744 104.814 67.5457 104.602C67.3204 104.387 67.2078 104.13 67.2078 103.831C67.2078 103.535 67.3204 103.281 67.5457 103.069C67.7744 102.854 68.0485 102.746 68.368 102.746C68.6874 102.746 68.9598 102.854 69.1851 103.069C69.4138 103.281 69.5282 103.535 69.5282 103.831C69.5282 104.13 69.4138 104.387 69.1851 104.602C68.9598 104.814 68.6874 104.92 68.368 104.92ZM71.1587 113.667V105.919H73.2067V107.286H73.2975C73.4589 106.832 73.728 106.474 74.1046 106.211C74.4813 105.949 74.9319 105.818 75.4565 105.818C75.9878 105.818 76.4401 105.951 76.8134 106.217C77.1867 106.479 77.4356 106.835 77.56 107.286H77.6407C77.7987 106.842 78.0846 106.487 78.4982 106.222C78.9152 105.953 79.4079 105.818 79.9762 105.818C80.6992 105.818 81.2861 106.048 81.7367 106.509C82.1907 106.966 82.4177 107.615 82.4177 108.456V113.667H80.2738V108.88C80.2738 108.449 80.1595 108.127 79.9308 107.911C79.7021 107.696 79.4163 107.589 79.0733 107.589C78.6832 107.589 78.3788 107.713 78.1603 107.962C77.9417 108.207 77.8324 108.532 77.8324 108.935V113.667H75.7491V108.835C75.7491 108.455 75.6398 108.152 75.4212 107.927C75.206 107.701 74.9218 107.589 74.5687 107.589C74.3299 107.589 74.1147 107.649 73.923 107.77C73.7347 107.888 73.5851 108.054 73.4741 108.27C73.3631 108.481 73.3076 108.73 73.3076 109.016V113.667H71.1587ZM87.6461 113.818C86.8491 113.818 86.1631 113.657 85.588 113.334C85.0163 113.008 84.5758 112.547 84.2664 111.952C83.957 111.353 83.8023 110.645 83.8023 109.828C83.8023 109.031 83.957 108.332 84.2664 107.73C84.5758 107.128 85.0113 106.659 85.5729 106.322C86.1379 105.986 86.8003 105.818 87.5604 105.818C88.0715 105.818 88.5474 105.9 88.9879 106.065C89.4318 106.227 89.8185 106.47 90.1481 106.797C90.481 107.123 90.74 107.533 90.9249 108.027C91.1099 108.518 91.2024 109.093 91.2024 109.753V110.343H84.6599V109.011H89.1796C89.1796 108.702 89.1123 108.428 88.9778 108.189C88.8433 107.95 88.6567 107.763 88.4179 107.629C88.1825 107.491 87.9084 107.422 87.5957 107.422C87.2695 107.422 86.9803 107.498 86.728 107.649C86.4792 107.797 86.2841 107.997 86.1429 108.249C86.0017 108.498 85.9294 108.776 85.926 109.082V110.348C85.926 110.731 85.9966 111.062 86.1379 111.342C86.2825 111.621 86.4859 111.836 86.7482 111.987C87.0105 112.139 87.3216 112.214 87.6814 112.214C87.9202 112.214 88.1388 112.181 88.3372 112.113C88.5356 112.046 88.7054 111.945 88.8467 111.811C88.9879 111.676 89.0955 111.511 89.1695 111.316L91.157 111.447C91.0561 111.925 90.8493 112.342 90.5365 112.698C90.2271 113.052 89.8269 113.327 89.336 113.526C88.8483 113.721 88.2851 113.818 87.6461 113.818ZM100.861 110.368V105.919H103.01V113.667H100.947V112.26H100.866C100.691 112.714 100.4 113.078 99.9934 113.354C99.5898 113.63 99.0971 113.768 98.5154 113.768C97.9975 113.768 97.5418 113.65 97.1484 113.415C96.7549 113.179 96.4472 112.845 96.2252 112.411C96.0067 111.977 95.8957 111.458 95.8923 110.852V105.919H98.0412V110.469C98.0446 110.926 98.1673 111.288 98.4094 111.553C98.6516 111.819 98.9761 111.952 99.383 111.952C99.6419 111.952 99.8841 111.893 100.109 111.775C100.335 111.654 100.516 111.476 100.654 111.241C100.795 111.005 100.864 110.714 100.861 110.368ZM111.175 108.128L109.208 108.249C109.174 108.081 109.102 107.93 108.991 107.795C108.88 107.658 108.734 107.548 108.552 107.468C108.374 107.383 108.161 107.341 107.912 107.341C107.579 107.341 107.298 107.412 107.069 107.553C106.841 107.691 106.726 107.876 106.726 108.108C106.726 108.293 106.8 108.449 106.948 108.577C107.096 108.705 107.35 108.808 107.71 108.885L109.112 109.167C109.866 109.322 110.427 109.571 110.797 109.914C111.167 110.257 111.352 110.708 111.352 111.266C111.352 111.774 111.202 112.219 110.903 112.603C110.607 112.986 110.2 113.285 109.682 113.501C109.168 113.712 108.574 113.818 107.902 113.818C106.876 113.818 106.059 113.605 105.45 113.178C104.845 112.747 104.49 112.162 104.386 111.422L106.499 111.311C106.563 111.624 106.718 111.863 106.963 112.028C107.209 112.189 107.523 112.27 107.907 112.27C108.283 112.27 108.586 112.197 108.815 112.053C109.047 111.905 109.164 111.715 109.168 111.483C109.164 111.288 109.082 111.128 108.921 111.004C108.759 110.876 108.51 110.778 108.174 110.711L106.832 110.444C106.076 110.292 105.512 110.03 105.142 109.657C104.776 109.283 104.593 108.808 104.593 108.229C104.593 107.732 104.727 107.303 104.996 106.943C105.268 106.583 105.65 106.306 106.141 106.111C106.635 105.916 107.214 105.818 107.876 105.818C108.855 105.818 109.625 106.025 110.187 106.438C110.752 106.852 111.081 107.415 111.175 108.128ZM116.236 113.818C115.439 113.818 114.753 113.657 114.178 113.334C113.606 113.008 113.166 112.547 112.856 111.952C112.547 111.353 112.392 110.645 112.392 109.828C112.392 109.031 112.547 108.332 112.856 107.73C113.166 107.128 113.601 106.659 114.163 106.322C114.728 105.986 115.39 105.818 116.15 105.818C116.661 105.818 117.137 105.9 117.578 106.065C118.022 106.227 118.409 106.47 118.738 106.797C119.071 107.123 119.33 107.533 119.515 108.027C119.7 108.518 119.792 109.093 119.792 109.753V110.343H113.25V109.011H117.77C117.77 108.702 117.702 108.428 117.568 108.189C117.433 107.95 117.247 107.763 117.008 107.629C116.772 107.491 116.498 107.422 116.186 107.422C115.859 107.422 115.57 107.498 115.318 107.649C115.069 107.797 114.874 107.997 114.733 108.249C114.592 108.498 114.519 108.776 114.516 109.082V110.348C114.516 110.731 114.587 111.062 114.728 111.342C114.872 111.621 115.076 111.836 115.338 111.987C115.6 112.139 115.912 112.214 116.271 112.214C116.51 112.214 116.729 112.181 116.927 112.113C117.126 112.046 117.295 111.945 117.437 111.811C117.578 111.676 117.685 111.511 117.759 111.316L119.747 111.447C119.646 111.925 119.439 112.342 119.126 112.698C118.817 113.052 118.417 113.327 117.926 113.526C117.438 113.721 116.875 113.818 116.236 113.818ZM121.195 113.667V105.919H123.278V107.271H123.359C123.5 106.79 123.737 106.427 124.07 106.181C124.403 105.932 124.786 105.808 125.22 105.808C125.328 105.808 125.444 105.815 125.568 105.828C125.693 105.842 125.802 105.86 125.896 105.884V107.79C125.795 107.76 125.656 107.733 125.477 107.71C125.299 107.686 125.136 107.674 124.988 107.674C124.672 107.674 124.389 107.743 124.141 107.881C123.895 108.016 123.7 108.204 123.555 108.446C123.414 108.688 123.344 108.967 123.344 109.283V113.667H121.195ZM133.454 108.128L131.486 108.249C131.453 108.081 131.38 107.93 131.269 107.795C131.158 107.658 131.012 107.548 130.831 107.468C130.652 107.383 130.439 107.341 130.19 107.341C129.857 107.341 129.576 107.412 129.348 107.553C129.119 107.691 129.005 107.876 129.005 108.108C129.005 108.293 129.079 108.449 129.226 108.577C129.374 108.705 129.628 108.808 129.988 108.885L131.39 109.167C132.144 109.322 132.705 109.571 133.075 109.914C133.445 110.257 133.63 110.708 133.63 111.266C133.63 111.774 133.481 112.219 133.181 112.603C132.885 112.986 132.478 113.285 131.96 113.501C131.446 113.712 130.852 113.818 130.18 113.818C129.154 113.818 128.337 113.605 127.728 113.178C127.123 112.747 126.768 112.162 126.664 111.422L128.778 111.311C128.841 111.624 128.996 111.863 129.242 112.028C129.487 112.189 129.802 112.27 130.185 112.27C130.562 112.27 130.864 112.197 131.093 112.053C131.325 111.905 131.443 111.715 131.446 111.483C131.443 111.288 131.36 111.128 131.199 111.004C131.037 110.876 130.789 110.778 130.452 110.711L129.11 110.444C128.354 110.292 127.791 110.03 127.421 109.657C127.054 109.283 126.871 108.808 126.871 108.229C126.871 107.732 127.005 107.303 127.274 106.943C127.547 106.583 127.928 106.306 128.419 106.111C128.914 105.916 129.492 105.818 130.155 105.818C131.133 105.818 131.903 106.025 132.465 106.438C133.03 106.852 133.359 107.415 133.454 108.128Z" fill="#1E1B39"/>
<path d="M36.6937 86.8575C36.6467 86.4599 36.4557 86.1513 36.1209 85.9316C35.7861 85.7119 35.3755 85.602 34.889 85.602C34.5333 85.602 34.222 85.6596 33.9552 85.7747C33.6911 85.8897 33.4844 86.048 33.3353 86.2494C33.1889 86.4508 33.1156 86.6796 33.1156 86.936C33.1156 87.1504 33.1666 87.3348 33.2686 87.4892C33.3733 87.6409 33.5067 87.7677 33.6688 87.8697C33.831 87.9691 34.001 88.0515 34.1789 88.1169C34.3567 88.1797 34.5202 88.2307 34.6693 88.2699L35.4853 88.4896C35.6946 88.5445 35.9274 88.6204 36.1837 88.7172C36.4426 88.814 36.6898 88.946 36.9252 89.1134C37.1632 89.2782 37.3594 89.4901 37.5137 89.749C37.668 90.008 37.7452 90.3258 37.7452 90.7024C37.7452 91.1366 37.6314 91.5289 37.4039 91.8794C37.1789 92.2299 36.8494 92.5085 36.4152 92.7151C35.9836 92.9217 35.4592 93.025 34.8419 93.025C34.2665 93.025 33.7682 92.9322 33.3471 92.7465C32.9286 92.5608 32.5991 92.3018 32.3584 91.9696C32.1204 91.6375 31.9857 91.2517 31.9543 90.8123H32.9587C32.9849 91.1157 33.0869 91.3668 33.2647 91.5655C33.4452 91.7617 33.6727 91.9082 33.9474 92.005C34.2246 92.0991 34.5228 92.1462 34.8419 92.1462C35.2133 92.1462 35.5468 92.086 35.8424 91.9657C36.1379 91.8428 36.372 91.6728 36.5447 91.4557C36.7173 91.236 36.8036 90.9796 36.8036 90.6867C36.8036 90.4199 36.729 90.2028 36.58 90.0354C36.4309 89.868 36.2347 89.732 35.9915 89.6274C35.7482 89.5228 35.4853 89.4312 35.2029 89.3528L34.2142 89.0703C33.5864 88.8898 33.0895 88.6322 32.7233 88.2974C32.3571 87.9626 32.174 87.5245 32.174 86.983C32.174 86.5332 32.2956 86.1408 32.5389 85.806C32.7848 85.4686 33.1143 85.2071 33.5276 85.0214C33.9435 84.833 34.4077 84.7389 34.9204 84.7389C35.4383 84.7389 35.8986 84.8317 36.3014 85.0174C36.7042 85.2005 37.0233 85.4516 37.2587 85.7707C37.4967 86.0898 37.6223 86.4521 37.6353 86.8575H36.6937ZM41.8402 86.8575V87.6422H38.7172V86.8575H41.8402ZM39.6274 85.4137H40.5533V91.1575C40.5533 91.4191 40.5913 91.6152 40.6671 91.746C40.7456 91.8742 40.845 91.9605 40.9653 92.005C41.0882 92.0468 41.2177 92.0677 41.3537 92.0677C41.4557 92.0677 41.5394 92.0625 41.6048 92.052C41.6702 92.039 41.7225 92.0285 41.7617 92.0206L41.9501 92.8524C41.8873 92.8759 41.7997 92.8995 41.6872 92.923C41.5747 92.9492 41.4322 92.9623 41.2596 92.9623C40.998 92.9623 40.7417 92.906 40.4906 92.7936C40.2421 92.6811 40.0355 92.5098 39.8707 92.2796C39.7085 92.0494 39.6274 91.7591 39.6274 91.4086V85.4137ZM45.0064 93.025C44.6245 93.025 44.2779 92.9531 43.9667 92.8092C43.6554 92.6628 43.4082 92.4522 43.2252 92.1776C43.0421 91.9003 42.9505 91.5655 42.9505 91.1732C42.9505 90.8279 43.0185 90.5481 43.1545 90.3336C43.2905 90.1165 43.4723 89.9465 43.6999 89.8236C43.9274 89.7006 44.1785 89.6091 44.4532 89.5489C44.7304 89.4862 45.009 89.4365 45.2888 89.3998C45.655 89.3528 45.9519 89.3175 46.1795 89.2939C46.4096 89.2678 46.577 89.2246 46.6816 89.1644C46.7889 89.1043 46.8425 88.9997 46.8425 88.8506V88.8192C46.8425 88.4321 46.7366 88.1313 46.5247 87.9168C46.3155 87.7023 45.9977 87.5951 45.5713 87.5951C45.1293 87.5951 44.7827 87.6919 44.5316 87.8854C44.2805 88.079 44.104 88.2856 44.002 88.5053L43.1232 88.1914C43.2801 87.8253 43.4893 87.5402 43.7509 87.3362C44.0151 87.1295 44.3028 86.9857 44.614 86.9046C44.9279 86.8209 45.2365 86.779 45.5399 86.779C45.7335 86.779 45.9558 86.8026 46.2069 86.8497C46.4606 86.8941 46.7052 86.987 46.9406 87.1282C47.1786 87.2695 47.3761 87.4826 47.533 87.7677C47.6899 88.0528 47.7684 88.4347 47.7684 88.9133V92.8838H46.8425V92.0677H46.7954C46.7326 92.1985 46.628 92.3384 46.4816 92.4875C46.3351 92.6366 46.1402 92.7635 45.897 92.8681C45.6537 92.9727 45.3569 93.025 45.0064 93.025ZM45.1476 92.1933C45.5138 92.1933 45.8224 92.1213 46.0735 91.9775C46.3272 91.8336 46.5182 91.6479 46.6463 91.4204C46.7771 91.1928 46.8425 90.9535 46.8425 90.7024V89.855C46.8033 89.902 46.717 89.9452 46.5836 89.9844C46.4528 90.021 46.3011 90.0537 46.1284 90.0825C45.9584 90.1087 45.7923 90.1322 45.6302 90.1531C45.4706 90.1714 45.3412 90.1871 45.2418 90.2002C45.0011 90.2316 44.7762 90.2826 44.5669 90.3532C44.3603 90.4212 44.1929 90.5245 44.0648 90.6632C43.9392 90.7992 43.8764 90.9849 43.8764 91.2203C43.8764 91.542 43.9954 91.7852 44.2335 91.95C44.4741 92.1122 44.7788 92.1933 45.1476 92.1933ZM52.0792 86.8575V87.6422H48.9562V86.8575H52.0792ZM49.8664 85.4137H50.7923V91.1575C50.7923 91.4191 50.8303 91.6152 50.9061 91.746C50.9846 91.8742 51.084 91.9605 51.2043 92.005C51.3272 92.0468 51.4567 92.0677 51.5927 92.0677C51.6947 92.0677 51.7784 92.0625 51.8438 92.052C51.9092 92.039 51.9615 92.0285 52.0007 92.0206L52.1891 92.8524C52.1263 92.8759 52.0387 92.8995 51.9262 92.923C51.8137 92.9492 51.6712 92.9623 51.4986 92.9623C51.237 92.9623 50.9807 92.906 50.7296 92.7936C50.4811 92.6811 50.2745 92.5098 50.1097 92.2796C49.9475 92.0494 49.8664 91.7591 49.8664 91.4086V85.4137ZM53.472 92.8838V86.8575H54.3979V92.8838H53.472ZM53.9428 85.8531C53.7623 85.8531 53.6067 85.7917 53.4759 85.6687C53.3478 85.5458 53.2837 85.398 53.2837 85.2254C53.2837 85.0528 53.3478 84.905 53.4759 84.782C53.6067 84.6591 53.7623 84.5976 53.9428 84.5976C54.1233 84.5976 54.2776 84.6591 54.4058 84.782C54.5365 84.905 54.6019 85.0528 54.6019 85.2254C54.6019 85.398 54.5365 85.5458 54.4058 85.6687C54.2776 85.7917 54.1233 85.8531 53.9428 85.8531ZM60.3624 88.2071L59.5307 88.4425C59.4783 88.3039 59.4012 88.1692 59.2992 88.0384C59.1998 87.905 59.0638 87.7952 58.8912 87.7089C58.7185 87.6226 58.4975 87.5794 58.2281 87.5794C57.8593 87.5794 57.552 87.6644 57.3061 87.8344C57.0629 88.0018 56.9412 88.215 56.9412 88.4739C56.9412 88.7041 57.0249 88.8859 57.1923 89.0193C57.3597 89.1527 57.6213 89.2638 57.977 89.3528L58.8715 89.5725C59.4103 89.7032 59.8118 89.9033 60.076 90.1727C60.3402 90.4395 60.4723 90.7835 60.4723 91.2046C60.4723 91.5498 60.3729 91.8585 60.1741 92.1305C59.9779 92.4025 59.7033 92.617 59.3502 92.7739C58.9971 92.9309 58.5864 93.0093 58.1182 93.0093C57.5036 93.0093 56.9949 92.8759 56.5921 92.6092C56.1893 92.3424 55.9342 91.9526 55.827 91.44L56.7058 91.2203C56.7895 91.5446 56.9478 91.7879 57.1806 91.95C57.416 92.1122 57.7233 92.1933 58.1026 92.1933C58.5341 92.1933 58.8768 92.1017 59.1305 91.9186C59.3868 91.7329 59.515 91.5106 59.515 91.2517C59.515 91.0424 59.4417 90.8672 59.2953 90.7259C59.1488 90.5821 58.9238 90.4748 58.6204 90.4042L57.6161 90.1688C57.0642 90.038 56.6588 89.8353 56.3998 89.5607C56.1435 89.2834 56.0153 88.9369 56.0153 88.521C56.0153 88.181 56.1108 87.8802 56.3017 87.6186C56.4953 87.3571 56.7581 87.1518 57.0903 87.0027C57.4251 86.8536 57.8044 86.779 58.2281 86.779C58.8245 86.779 59.2926 86.9098 59.6327 87.1714C59.9753 87.4329 60.2186 87.7782 60.3624 88.2071ZM64.4868 86.8575V87.6422H61.3639V86.8575H64.4868ZM62.2741 85.4137H63.2V91.1575C63.2 91.4191 63.2379 91.6152 63.3138 91.746C63.3922 91.8742 63.4916 91.9605 63.6119 92.005C63.7349 92.0468 63.8643 92.0677 64.0004 92.0677C64.1024 92.0677 64.1861 92.0625 64.2514 92.052C64.3168 92.039 64.3691 92.0285 64.4084 92.0206L64.5967 92.8524C64.5339 92.8759 64.4463 92.8995 64.3338 92.923C64.2214 92.9492 64.0788 92.9623 63.9062 92.9623C63.6446 92.9623 63.3883 92.906 63.1372 92.7936C62.8887 92.6811 62.6821 92.5098 62.5173 92.2796C62.3552 92.0494 62.2741 91.7591 62.2741 91.4086V85.4137ZM65.8796 92.8838V86.8575H66.8056V92.8838H65.8796ZM66.3504 85.8531C66.17 85.8531 66.0143 85.7917 65.8836 85.6687C65.7554 85.5458 65.6913 85.398 65.6913 85.2254C65.6913 85.0528 65.7554 84.905 65.8836 84.782C66.0143 84.6591 66.17 84.5976 66.3504 84.5976C66.5309 84.5976 66.6852 84.6591 66.8134 84.782C66.9442 84.905 67.0096 85.0528 67.0096 85.2254C67.0096 85.398 66.9442 85.5458 66.8134 85.6687C66.6852 85.7917 66.5309 85.8531 66.3504 85.8531ZM70.9496 93.0093C70.3846 93.0093 69.8981 92.8759 69.4901 92.6092C69.0821 92.3424 68.7682 91.9749 68.5485 91.5067C68.3288 91.0385 68.2189 90.5036 68.2189 89.902C68.2189 89.29 68.3314 88.7499 68.5564 88.2817C68.7839 87.8109 69.1004 87.4434 69.5058 87.1792C69.9138 86.9124 70.3899 86.779 70.9339 86.779C71.3576 86.779 71.7395 86.8575 72.0795 87.0144C72.4196 87.1714 72.6981 87.3911 72.9152 87.6736C73.1323 87.956 73.267 88.2856 73.3193 88.6622H72.3934C72.3228 88.3876 72.1659 88.1444 71.9226 87.9325C71.682 87.718 71.3576 87.6108 70.9496 87.6108C70.5887 87.6108 70.2722 87.7049 70.0002 87.8933C69.7308 88.079 69.5202 88.3418 69.3685 88.6819C69.2194 89.0193 69.1449 89.4155 69.1449 89.8706C69.1449 90.3362 69.2181 90.7416 69.3646 91.0869C69.5137 91.4321 69.7229 91.7002 69.9923 91.8912C70.2643 92.0821 70.5834 92.1776 70.9496 92.1776C71.1902 92.1776 71.4086 92.1357 71.6048 92.052C71.801 91.9683 71.9671 91.848 72.1031 91.6911C72.2391 91.5342 72.3359 91.3458 72.3934 91.1261H73.3193C73.267 91.4818 73.1375 91.8022 72.9309 92.0873C72.7269 92.3698 72.4562 92.5948 72.1188 92.7622C71.784 92.9269 71.3943 93.0093 70.9496 93.0093ZM78.9415 88.2071L78.1097 88.4425C78.0574 88.3039 77.9803 88.1692 77.8783 88.0384C77.7789 87.905 77.6429 87.7952 77.4702 87.7089C77.2976 87.6226 77.0766 87.5794 76.8072 87.5794C76.4384 87.5794 76.1311 87.6644 75.8852 87.8344C75.642 88.0018 75.5203 88.215 75.5203 88.4739C75.5203 88.7041 75.604 88.8859 75.7714 89.0193C75.9388 89.1527 76.2004 89.2638 76.5561 89.3528L77.4506 89.5725C77.9894 89.7032 78.3909 89.9033 78.6551 90.1727C78.9193 90.4395 79.0514 90.7835 79.0514 91.2046C79.0514 91.5498 78.952 91.8585 78.7532 92.1305C78.557 92.4025 78.2824 92.617 77.9293 92.7739C77.5762 92.9309 77.1655 93.0093 76.6973 93.0093C76.0827 93.0093 75.5739 92.8759 75.1711 92.6092C74.7684 92.3424 74.5133 91.9526 74.4061 91.44L75.2849 91.2203C75.3686 91.5446 75.5269 91.7879 75.7597 91.95C75.9951 92.1122 76.3024 92.1933 76.6816 92.1933C77.1132 92.1933 77.4559 92.1017 77.7096 91.9186C77.9659 91.7329 78.0941 91.5106 78.0941 91.2517C78.0941 91.0424 78.0208 90.8672 77.8743 90.7259C77.7279 90.5821 77.5029 90.4748 77.1995 90.4042L76.1951 90.1688C75.6433 90.038 75.2378 89.8353 74.9789 89.5607C74.7226 89.2834 74.5944 88.9369 74.5944 88.521C74.5944 88.181 74.6899 87.8802 74.8808 87.6186C75.0744 87.3571 75.3372 87.1518 75.6694 87.0027C76.0042 86.8536 76.3835 86.779 76.8072 86.779C77.4035 86.779 77.8717 86.9098 78.2118 87.1714C78.5544 87.4329 78.7976 87.7782 78.9415 88.2071Z" fill="#9291A5"/>
<defs>
<filter id="filter0_d_2001_1605" x="229.318" y="0.545098" width="320.365" height="258.992" filterUnits="userSpaceOnUse" color-interpolation-filters="sRGB">
<feFlood flood-opacity="0" result="BackgroundImageFix"/>
<feColorMatrix in="SourceAlpha" type="matrix" values="0 0 0 0 0 0 0 0 0 0 0 0 0 0 0 0 0 0 127 0" result="hardAlpha"/>
<feOffset dy="1.22745"/>
<feGaussianBlur stdDeviation="1.84118"/>
<feComposite in2="hardAlpha" operator="out"/>
<feColorMatrix type="matrix" values="0 0 0 0 0.0509804 0 0 0 0 0.0392157 0 0 0 0 0.172549 0 0 0 0.08 0"/>
<feBlend mode="normal" in2="BackgroundImageFix" result="effect1_dropShadow_2001_1605"/>
<feBlend mode="normal" in="SourceGraphic" in2="effect1_dropShadow_2001_1605" result="shape"/>
</filter>
<filter id="filter1_d_2001_1605" x="0.26506" y="54.4742" width="271.47" height="187.204" filterUnits="userSpaceOnUse" color-interpolation-filters="sRGB">
<feFlood flood-opacity="0" result="BackgroundImageFix"/>
<feColorMatrix in="SourceAlpha" type="matrix" values="0 0 0 0 0 0 0 0 0 0 0 0 0 0 0 0 0 0 127 0" result="hardAlpha"/>
<feOffset dy="1.57831"/>
<feGaussianBlur stdDeviation="2.36747"/>
<feComposite in2="hardAlpha" operator="out"/>
<feColorMatrix type="matrix" values="0 0 0 0 0.0509804 0 0 0 0 0.0392157 0 0 0 0 0.172549 0 0 0 0.08 0"/>
<feBlend mode="normal" in2="BackgroundImageFix" result="effect1_dropShadow_2001_1605"/>
<feBlend mode="normal" in="SourceGraphic" in2="effect1_dropShadow_2001_1605" result="shape"/>
</filter>
</defs>
</svg>
