<svg width="375" height="351" viewBox="0 0 375 351" fill="none" xmlns="http://www.w3.org/2000/svg">
<g filter="url(#filter0_d_61_351)">
<g filter="url(#filter1_d_61_351)">
<rect x="38.6331" y="2" width="332" height="305" rx="20" transform="rotate(6.14203 38.6331 2)" fill="white"/>
</g>
<path d="M258.225 298.38L259.781 283.918L260.708 284.017L259.151 298.479L258.225 298.38ZM262.433 288.592C262.427 288.012 262.199 287.538 261.751 287.17C261.303 286.802 260.729 286.58 260.029 286.504C259.516 286.449 259.059 286.484 258.657 286.608C258.259 286.733 257.937 286.929 257.691 287.196C257.449 287.463 257.308 287.781 257.268 288.15C257.235 288.459 257.28 288.733 257.403 288.971C257.53 289.205 257.703 289.409 257.92 289.581C258.138 289.749 258.37 289.894 258.616 290.016C258.863 290.134 259.09 290.232 259.299 290.312L260.44 290.755C260.733 290.866 261.056 291.011 261.41 291.191C261.768 291.37 262.103 291.599 262.416 291.876C262.734 292.15 262.983 292.486 263.165 292.882C263.347 293.279 263.409 293.749 263.351 294.291C263.284 294.916 263.059 295.463 262.677 295.933C262.299 296.403 261.781 296.753 261.124 296.983C260.471 297.214 259.699 297.281 258.811 297.185C257.982 297.096 257.279 296.885 256.701 296.553C256.128 296.221 255.693 295.797 255.398 295.281C255.107 294.766 254.973 294.189 254.996 293.552L256.442 293.708C256.433 294.148 256.541 294.526 256.766 294.84C256.995 295.15 257.3 295.396 257.681 295.578C258.065 295.757 258.487 295.871 258.947 295.92C259.482 295.978 259.971 295.943 260.415 295.815C260.86 295.684 261.223 295.475 261.506 295.19C261.788 294.9 261.952 294.544 261.998 294.123C262.039 293.738 261.965 293.414 261.776 293.15C261.588 292.886 261.326 292.66 260.992 292.471C260.658 292.283 260.294 292.11 259.899 291.954L258.52 291.394C257.644 291.037 256.968 290.589 256.493 290.05C256.017 289.511 255.821 288.852 255.905 288.072C255.975 287.425 256.211 286.878 256.613 286.434C257.019 285.986 257.534 285.661 258.158 285.457C258.786 285.251 259.469 285.187 260.208 285.267C260.953 285.347 261.602 285.552 262.153 285.882C262.705 286.208 263.125 286.619 263.415 287.115C263.708 287.611 263.832 288.152 263.789 288.738L262.433 288.592ZM268.711 298.205C268.049 298.134 267.466 297.938 266.963 297.617C266.461 297.296 266.074 296.889 265.803 296.395C265.533 295.901 265.414 295.359 265.447 294.768L266.803 294.914C266.799 295.443 266.99 295.902 267.375 296.29C267.764 296.675 268.254 296.899 268.845 296.962C269.32 297.013 269.754 296.948 270.147 296.765C270.543 296.583 270.868 296.31 271.121 295.944C271.377 295.576 271.532 295.145 271.585 294.651C271.64 294.147 271.577 293.685 271.397 293.265C271.222 292.843 270.955 292.496 270.595 292.225C270.236 291.954 269.81 291.79 269.317 291.733C268.963 291.691 268.594 291.706 268.209 291.779C267.824 291.848 267.502 291.957 267.242 292.104L265.949 291.805L267.262 286.186L273.273 286.832L273.139 288.075L268.303 287.555L267.529 290.923L267.597 290.931C267.855 290.768 268.169 290.644 268.54 290.558C268.911 290.472 269.291 290.45 269.679 290.492C270.387 290.568 270.999 290.805 271.516 291.204C272.038 291.599 272.425 292.105 272.679 292.723C272.936 293.341 273.024 294.025 272.944 294.775C272.864 295.513 272.628 296.154 272.234 296.698C271.844 297.239 271.343 297.646 270.731 297.92C270.119 298.189 269.446 298.284 268.711 298.205ZM276.538 297.287L276.382 297.888C276.272 298.31 276.124 298.759 275.94 299.234C275.759 299.71 275.576 300.157 275.39 300.575C275.204 300.993 275.052 301.326 274.934 301.572L273.917 301.463C273.992 301.227 274.09 300.916 274.212 300.529C274.333 300.142 274.46 299.708 274.592 299.227C274.727 298.75 274.848 298.26 274.956 297.757L275.092 297.132L276.538 297.287ZM282.236 299.661C281.762 299.602 281.297 299.46 280.841 299.236C280.385 299.012 279.984 298.673 279.636 298.221C279.289 297.764 279.035 297.171 278.873 296.441C278.712 295.708 278.689 294.806 278.804 293.737C278.915 292.712 279.108 291.815 279.385 291.045C279.663 290.271 280.014 289.632 280.437 289.129C280.861 288.622 281.347 288.256 281.893 288.029C282.443 287.802 283.044 287.724 283.696 287.794C284.343 287.864 284.906 288.056 285.382 288.37C285.863 288.681 286.239 289.083 286.51 289.577C286.78 290.071 286.93 290.622 286.96 291.231L285.582 291.083C285.51 290.549 285.307 290.091 284.975 289.709C284.643 289.327 284.172 289.103 283.562 289.037C282.665 288.94 281.917 289.254 281.317 289.978C280.721 290.703 280.346 291.769 280.19 293.177L280.281 293.187C280.526 292.89 280.806 292.643 281.12 292.449C281.439 292.251 281.782 292.108 282.149 292.022C282.516 291.936 282.898 291.914 283.293 291.957C283.956 292.028 284.545 292.259 285.059 292.65C285.573 293.036 285.965 293.538 286.234 294.153C286.504 294.765 286.598 295.444 286.518 296.19C286.441 296.905 286.21 297.543 285.826 298.104C285.442 298.661 284.942 299.083 284.324 299.371C283.711 299.655 283.014 299.752 282.236 299.661ZM282.369 298.418C282.844 298.469 283.282 298.396 283.684 298.199C284.09 298.003 284.424 297.717 284.685 297.341C284.951 296.966 285.109 296.533 285.162 296.044C285.214 295.566 285.153 295.119 284.981 294.704C284.812 294.286 284.554 293.94 284.206 293.667C283.863 293.393 283.453 293.231 282.979 293.18C282.621 293.142 282.28 293.177 281.956 293.287C281.632 293.393 281.34 293.556 281.08 293.776C280.824 293.996 280.613 294.257 280.447 294.559C280.282 294.858 280.181 295.18 280.143 295.527C280.094 295.986 280.155 296.427 280.327 296.849C280.502 297.272 280.765 297.626 281.115 297.911C281.469 298.197 281.887 298.366 282.369 298.418ZM292.163 300.729C291.689 300.67 291.224 300.529 290.768 300.304C290.312 300.08 289.911 299.742 289.563 299.289C289.216 298.833 288.962 298.239 288.8 297.51C288.639 296.776 288.616 295.875 288.731 294.805C288.842 293.781 289.035 292.883 289.313 292.113C289.59 291.339 289.941 290.701 290.364 290.198C290.789 289.691 291.274 289.324 291.82 289.097C292.37 288.87 292.971 288.792 293.623 288.862C294.27 288.932 294.833 289.124 295.309 289.438C295.79 289.749 296.166 290.151 296.437 290.645C296.707 291.139 296.857 291.691 296.887 292.3L295.509 292.151C295.437 291.618 295.235 291.16 294.902 290.777C294.57 290.395 294.099 290.171 293.489 290.105C292.592 290.009 291.844 290.323 291.245 291.047C290.648 291.771 290.273 292.837 290.117 294.245L290.208 294.255C290.453 293.958 290.733 293.712 291.047 293.517C291.366 293.319 291.709 293.177 292.076 293.09C292.443 293.004 292.825 292.982 293.22 293.025C293.883 293.096 294.472 293.327 294.986 293.718C295.5 294.105 295.892 294.606 296.161 295.222C296.431 295.833 296.525 296.512 296.445 297.258C296.368 297.974 296.137 298.612 295.753 299.172C295.37 299.729 294.869 300.151 294.251 300.439C293.638 300.724 292.942 300.82 292.163 300.729ZM292.296 299.486C292.771 299.537 293.209 299.464 293.612 299.267C294.017 299.071 294.351 298.785 294.612 298.409C294.878 298.034 295.037 297.602 295.089 297.112C295.141 296.634 295.08 296.187 294.908 295.772C294.739 295.354 294.481 295.008 294.134 294.735C293.79 294.462 293.38 294.299 292.906 294.248C292.548 294.21 292.207 294.246 291.883 294.355C291.559 294.462 291.267 294.624 291.007 294.844C290.751 295.064 290.54 295.325 290.374 295.628C290.209 295.926 290.108 296.248 290.07 296.595C290.021 297.054 290.082 297.495 290.254 297.918C290.429 298.34 290.692 298.694 291.042 298.98C291.396 299.265 291.814 299.434 292.296 299.486ZM298.265 301.226L298.375 300.209L302.644 296.439C303.144 295.998 303.559 295.612 303.888 295.282C304.217 294.948 304.469 294.628 304.643 294.323C304.821 294.014 304.929 293.683 304.967 293.329C305.011 292.922 304.951 292.56 304.787 292.241C304.627 291.923 304.388 291.665 304.07 291.467C303.752 291.269 303.384 291.147 302.966 291.102C302.522 291.054 302.124 291.105 301.773 291.254C301.426 291.399 301.144 291.626 300.928 291.934C300.716 292.243 300.586 292.618 300.539 293.058L299.205 292.915C299.278 292.237 299.499 291.659 299.866 291.18C300.234 290.701 300.703 290.348 301.272 290.12C301.845 289.892 302.469 289.814 303.143 289.887C303.821 289.96 304.406 290.168 304.899 290.51C305.391 290.853 305.76 291.283 306.006 291.801C306.251 292.319 306.342 292.875 306.278 293.47C306.232 293.896 306.11 294.303 305.912 294.694C305.718 295.08 305.405 295.502 304.975 295.959C304.549 296.412 303.967 296.959 303.227 297.599L300.33 300.099L300.32 300.189L305.698 300.768L305.564 302.011L298.265 301.226Z" fill="#9291A5"/>
<path d="M69.3393 266.807C69.3331 266.227 69.106 265.753 68.6579 265.385C68.2099 265.017 67.6357 264.795 66.9352 264.72C66.423 264.665 65.9659 264.699 65.5639 264.824C65.1657 264.948 64.8436 265.144 64.5978 265.411C64.3557 265.678 64.2147 265.997 64.175 266.366C64.1418 266.675 64.1867 266.948 64.3096 267.186C64.4368 267.421 64.6092 267.624 64.8269 267.796C65.045 267.964 65.277 268.109 65.523 268.231C65.7693 268.349 65.9968 268.448 66.2054 268.527L67.3464 268.97C67.6392 269.082 67.9626 269.227 68.3167 269.406C68.6746 269.585 69.01 269.814 69.323 270.091C69.6402 270.365 69.8898 270.701 70.0719 271.098C70.254 271.494 70.3158 271.964 70.2575 272.506C70.1902 273.132 69.9656 273.679 69.5836 274.148C69.2054 274.618 68.6877 274.968 68.0305 275.198C67.3771 275.429 66.606 275.496 65.7172 275.401C64.8886 275.312 64.1856 275.101 63.608 274.768C63.0342 274.436 62.5998 274.012 62.3048 273.496C62.0135 272.981 61.8793 272.405 61.9022 271.767L63.3484 271.923C63.3391 272.364 63.4471 272.741 63.6724 273.055C63.9018 273.365 64.2068 273.611 64.5872 273.793C64.9718 273.972 65.3939 274.086 65.8534 274.135C66.3882 274.193 66.8777 274.158 67.3219 274.031C67.7665 273.899 68.1299 273.691 68.4121 273.405C68.6947 273.115 68.8587 272.76 68.9041 272.338C68.9454 271.954 68.8717 271.63 68.683 271.365C68.4943 271.101 68.2329 270.875 67.8989 270.687C67.5648 270.498 67.2005 270.326 66.8059 270.169L65.4261 269.609C64.5502 269.252 63.8745 268.804 63.3992 268.265C62.9238 267.726 62.728 267.067 62.8119 266.288C62.8816 265.64 63.1175 265.094 63.5197 264.649C63.926 264.202 64.441 263.876 65.0649 263.673C65.6929 263.466 66.3759 263.402 67.1141 263.482C67.8598 263.562 68.5082 263.767 69.0594 264.097C69.6111 264.423 70.0316 264.834 70.3211 265.33C70.6144 265.826 70.7391 266.367 70.6951 266.953L69.3393 266.807ZM74.5737 276.354C74.0239 276.295 73.536 276.137 73.1101 275.882C72.6846 275.623 72.3614 275.281 72.1403 274.858C71.9196 274.43 71.8397 273.934 71.9005 273.369C71.954 272.872 72.0953 272.479 72.3243 272.192C72.5538 271.9 72.8419 271.683 73.1886 271.542C73.5353 271.4 73.911 271.307 74.3158 271.263C74.7247 271.216 75.1335 271.187 75.5422 271.178C76.0767 271.167 76.5097 271.162 76.841 271.163C77.1764 271.161 77.4242 271.125 77.5841 271.055C77.7479 270.985 77.8413 270.842 77.8644 270.628L77.8692 270.582C77.9292 270.025 77.8233 269.576 77.5515 269.234C77.2834 268.893 76.8424 268.689 76.2286 268.623C75.5921 268.554 75.0781 268.64 74.6865 268.88C74.295 269.12 74.0088 269.39 73.8278 269.69L72.6111 269.102C72.8938 268.599 73.2392 268.221 73.6475 267.968C74.0599 267.711 74.4964 267.549 74.9572 267.48C75.4221 267.408 75.8729 267.396 76.3098 267.443C76.5885 267.473 76.905 267.541 77.2592 267.648C77.6177 267.751 77.9554 267.923 78.2725 268.163C78.5933 268.403 78.8446 268.741 79.0264 269.175C79.2082 269.61 79.262 270.172 79.1879 270.861L78.5726 276.578L77.2394 276.435L77.3659 275.26L77.2981 275.253C77.1874 275.431 77.0151 275.617 76.7811 275.808C76.5471 276 76.2469 276.153 75.8804 276.266C75.5139 276.379 75.0784 276.408 74.5737 276.354ZM74.906 275.178C75.4332 275.235 75.8888 275.179 76.2726 275.011C76.6602 274.843 76.9639 274.605 77.1837 274.297C77.4073 273.99 77.5385 273.656 77.5774 273.294L77.7087 272.074C77.645 272.136 77.514 272.184 77.3158 272.22C77.1219 272.253 76.8984 272.276 76.6453 272.291C76.3965 272.302 76.1537 272.31 75.9169 272.315C75.6844 272.317 75.4955 272.319 75.3504 272.323C74.999 272.331 74.6672 272.369 74.355 272.439C74.0469 272.505 73.7899 272.627 73.5839 272.807C73.382 272.984 73.2629 273.241 73.2264 273.58C73.1765 274.043 73.3102 274.412 73.6274 274.686C73.9488 274.957 74.375 275.121 74.906 275.178ZM83.5843 265.414L82.3393 276.984L81.006 276.84L82.2511 265.271L83.5843 265.414ZM88.3998 277.819C87.5637 277.729 86.8623 277.467 86.2957 277.032C85.7332 276.595 85.324 276.025 85.0681 275.323C84.8164 274.618 84.7383 273.821 84.834 272.932C84.9296 272.043 85.1759 271.277 85.5727 270.634C85.9737 269.988 86.4865 269.506 87.1112 269.188C87.7401 268.867 88.4462 268.749 89.2295 268.833C89.6815 268.882 90.1197 269.005 90.5441 269.203C90.9685 269.401 91.3433 269.689 91.6683 270.067C91.9938 270.441 92.2341 270.917 92.3892 271.493C92.5443 272.07 92.5783 272.763 92.4911 273.573L92.4303 274.138L85.7417 273.418L85.8657 272.266L91.1986 272.84C91.2512 272.35 91.2003 271.903 91.0458 271.497C90.8951 271.093 90.6528 270.76 90.3189 270.499C89.9888 270.239 89.5827 270.083 89.1007 270.031C88.5696 269.974 88.096 270.056 87.6797 270.278C87.2676 270.497 86.9355 270.804 86.6834 271.199C86.4312 271.595 86.2794 272.032 86.228 272.511L86.1453 273.279C86.0748 273.934 86.128 274.502 86.3049 274.982C86.486 275.458 86.7672 275.837 87.1484 276.118C87.53 276.396 87.9901 276.563 88.5286 276.621C88.8789 276.659 89.2005 276.644 89.4935 276.576C89.7907 276.506 90.0536 276.381 90.2822 276.204C90.5112 276.023 90.6984 275.788 90.8438 275.499L92.0929 275.999C91.9103 276.421 91.6412 276.781 91.2854 277.078C90.93 277.371 90.507 277.585 90.0164 277.718C89.5261 277.849 88.9873 277.882 88.3998 277.819ZM100.911 272.17L99.677 272.381C99.6232 272.173 99.533 271.967 99.4063 271.763C99.2839 271.555 99.1051 271.376 98.8699 271.225C98.6347 271.074 98.3231 270.978 97.9352 270.936C97.4042 270.879 96.9485 270.954 96.5682 271.16C96.192 271.364 95.9838 271.652 95.9437 272.025C95.908 272.356 96.0004 272.631 96.2207 272.849C96.4411 273.067 96.8005 273.267 97.2989 273.45L98.5529 273.905C99.3084 274.177 99.8555 274.528 100.194 274.956C100.533 275.381 100.67 275.897 100.605 276.504C100.551 277.001 100.36 277.43 100.032 277.791C99.7074 278.152 99.2788 278.418 98.746 278.589C98.2133 278.761 97.6098 278.81 96.9357 278.737C96.0507 278.642 95.3388 278.371 94.8002 277.925C94.2615 277.478 93.9547 276.877 93.8797 276.123L95.1792 275.943C95.2495 276.422 95.4396 276.797 95.7497 277.067C96.0635 277.337 96.4935 277.501 97.0396 277.56C97.661 277.627 98.1685 277.548 98.5622 277.324C98.9601 277.096 99.179 276.796 99.2192 276.423C99.2516 276.122 99.1733 275.858 98.9843 275.632C98.7957 275.402 98.4884 275.213 98.0625 275.064L96.6527 274.57C95.8783 274.296 95.326 273.941 94.9957 273.505C94.6696 273.067 94.5387 272.548 94.6032 271.949C94.6559 271.459 94.8399 271.041 95.1554 270.694C95.4746 270.347 95.8849 270.092 96.3863 269.929C96.8915 269.766 97.4491 269.718 98.0593 269.783C98.9179 269.876 99.5718 270.137 100.021 270.566C100.474 270.996 100.77 271.531 100.911 272.17Z" fill="#1E1B39"/>
<rect x="43.9578" y="261.79" width="10" height="10" rx="5" transform="rotate(6.14203 43.9578 261.79)" fill="#C893FD"/>
<path d="M265.719 267.001L267.275 252.539L268.201 252.639L266.645 267.101L265.719 267.001ZM269.926 257.214C269.92 256.634 269.693 256.16 269.245 255.792C268.797 255.423 268.223 255.202 267.522 255.126C267.01 255.071 266.553 255.106 266.151 255.23C265.753 255.355 265.431 255.551 265.185 255.818C264.943 256.085 264.802 256.403 264.762 256.772C264.729 257.081 264.774 257.354 264.897 257.592C265.024 257.827 265.196 258.03 265.414 258.202C265.632 258.371 265.864 258.516 266.11 258.637C266.356 258.755 266.584 258.854 266.792 258.934L267.933 259.376C268.226 259.488 268.55 259.633 268.904 259.812C269.262 259.992 269.597 260.22 269.91 260.498C270.227 260.772 270.477 261.107 270.659 261.504C270.841 261.901 270.903 262.37 270.845 262.913C270.777 263.538 270.553 264.085 270.171 264.555C269.792 265.024 269.275 265.374 268.618 265.605C267.964 265.835 267.193 265.903 266.304 265.807C265.476 265.718 264.773 265.507 264.195 265.174C263.621 264.842 263.187 264.418 262.892 263.903C262.601 263.388 262.466 262.811 262.489 262.174L263.935 262.329C263.926 262.77 264.034 263.148 264.259 263.461C264.489 263.772 264.794 264.018 265.174 264.2C265.559 264.378 265.981 264.492 266.44 264.542C266.975 264.599 267.465 264.564 267.909 264.437C268.354 264.306 268.717 264.097 268.999 263.811C269.282 263.522 269.446 263.166 269.491 262.744C269.532 262.36 269.459 262.036 269.27 261.772C269.081 261.508 268.82 261.281 268.486 261.093C268.152 260.905 267.788 260.732 267.393 260.575L266.013 260.016C265.137 259.658 264.462 259.21 263.986 258.672C263.511 258.133 263.315 257.474 263.399 256.694C263.469 256.046 263.705 255.5 264.107 255.056C264.513 254.608 265.028 254.283 265.652 254.079C266.28 253.872 266.963 253.809 267.701 253.888C268.447 253.968 269.095 254.174 269.646 254.503C270.198 254.829 270.619 255.24 270.908 255.736C271.201 256.233 271.326 256.774 271.282 257.359L269.926 257.214ZM272.968 266.319L279.244 256.639L279.254 256.549L273.289 255.907L273.422 254.664L280.834 255.461L280.693 256.772L274.437 266.477L272.968 266.319ZM281.888 265.678L281.732 266.279C281.621 266.701 281.474 267.15 281.289 267.625C281.109 268.101 280.925 268.548 280.739 268.966C280.553 269.384 280.402 269.717 280.284 269.963L279.267 269.854C279.342 269.618 279.44 269.307 279.562 268.92C279.683 268.533 279.81 268.099 279.942 267.618C280.077 267.141 280.198 266.651 280.306 266.148L280.441 265.523L281.888 265.678ZM284.165 267.523L284.274 266.507L288.543 262.737C289.044 262.296 289.459 261.91 289.788 261.58C290.117 261.245 290.369 260.926 290.542 260.621C290.72 260.312 290.828 259.981 290.866 259.627C290.91 259.22 290.85 258.858 290.686 258.539C290.526 258.221 290.287 257.963 289.97 257.765C289.652 257.567 289.284 257.445 288.866 257.4C288.422 257.352 288.024 257.403 287.672 257.552C287.325 257.697 287.044 257.924 286.828 258.232C286.615 258.541 286.486 258.916 286.438 259.356L285.105 259.213C285.178 258.535 285.398 257.957 285.766 257.478C286.134 256.999 286.602 256.646 287.172 256.418C287.745 256.19 288.368 256.112 289.042 256.185C289.72 256.258 290.306 256.465 290.798 256.808C291.291 257.151 291.66 257.581 291.905 258.099C292.15 258.617 292.241 259.173 292.177 259.768C292.131 260.194 292.009 260.601 291.811 260.992C291.617 261.378 291.305 261.8 290.875 262.257C290.449 262.71 289.866 263.257 289.127 263.897L286.229 266.397L286.219 266.487L291.597 267.066L291.464 268.309L284.165 267.523ZM299.109 257.428L297.864 268.998L296.463 268.847L297.55 258.746L297.482 258.739L294.456 260.31L294.609 258.887L297.708 257.277L299.109 257.428ZM305.084 269.935C304.338 269.854 303.687 269.655 303.131 269.336C302.579 269.017 302.156 268.612 301.862 268.119C301.572 267.623 301.445 267.07 301.48 266.461L302.904 266.614C302.894 266.99 302.987 267.326 303.184 267.621C303.381 267.913 303.655 268.152 304.004 268.338C304.354 268.525 304.751 268.642 305.195 268.689C305.692 268.743 306.142 268.704 306.545 268.572C306.948 268.44 307.275 268.231 307.527 267.946C307.778 267.661 307.926 267.315 307.97 266.908C308.015 266.482 307.95 266.096 307.774 265.75C307.599 265.399 307.317 265.11 306.931 264.882C306.544 264.653 306.056 264.507 305.469 264.444L304.542 264.345L304.676 263.102L305.603 263.201C306.062 263.251 306.474 263.211 306.838 263.083C307.206 262.955 307.505 262.751 307.733 262.471C307.965 262.191 308.103 261.848 308.147 261.441C308.189 261.049 308.139 260.699 307.997 260.39C307.855 260.082 307.634 259.829 307.335 259.633C307.04 259.438 306.68 259.317 306.254 259.271C305.855 259.228 305.47 259.261 305.101 259.37C304.735 259.475 304.426 259.654 304.174 259.905C303.923 260.152 303.767 260.467 303.707 260.849L302.351 260.703C302.439 260.099 302.679 259.588 303.071 259.169C303.463 258.746 303.95 258.437 304.531 258.24C305.116 258.044 305.741 257.982 306.408 258.054C307.124 258.131 307.722 258.342 308.203 258.687C308.684 259.028 309.037 259.449 309.261 259.949C309.486 260.45 309.568 260.973 309.51 261.519C309.44 262.17 309.208 262.708 308.816 263.13C308.428 263.553 307.932 263.822 307.329 263.936L307.32 264.026C308.037 264.225 308.575 264.598 308.931 265.143C309.288 265.684 309.427 266.322 309.348 267.056C309.28 267.685 309.048 268.232 308.652 268.696C308.259 269.156 307.754 269.498 307.135 269.721C306.517 269.944 305.833 270.015 305.084 269.935Z" fill="#9291A5"/>
<path d="M67.2217 231.469L69.6084 241.577L69.744 241.592L74.2267 232.222L75.6955 232.381L70.2023 243.493L68.7561 243.337L65.7529 231.311L67.2217 231.469ZM76.0718 244.125L77.0056 235.447L78.3388 235.591L77.405 244.268L76.0718 244.125ZM77.8391 234.074C77.5792 234.046 77.3647 233.934 77.1954 233.736C77.0299 233.539 76.9606 233.317 76.9873 233.068C77.0141 232.82 77.1292 232.617 77.3328 232.46C77.5402 232.303 77.7738 232.238 78.0336 232.266C78.2935 232.294 78.5062 232.407 78.6717 232.604C78.8409 232.801 78.9122 233.024 78.8854 233.272C78.8587 233.521 78.7416 233.724 78.5343 233.88C78.3307 234.038 78.099 234.102 77.8391 234.074ZM83.4655 245.103C82.6294 245.013 81.9281 244.751 81.3615 244.317C80.799 243.879 80.3898 243.309 80.1339 242.607C79.8821 241.902 79.8041 241.105 79.8997 240.216C79.9954 239.327 80.2416 238.561 80.6385 237.918C81.0395 237.272 81.5523 236.79 82.177 236.472C82.8059 236.152 83.512 236.033 84.2953 236.118C84.7473 236.166 85.1854 236.29 85.6099 236.488C86.0343 236.686 86.409 236.974 86.7341 237.351C87.0596 237.726 87.2999 238.201 87.455 238.778C87.6101 239.354 87.644 240.048 87.5569 240.857L87.4961 241.422L80.8075 240.703L80.9315 239.55L86.2643 240.124C86.317 239.634 86.2661 239.187 86.1116 238.782C85.9609 238.377 85.7186 238.044 85.3847 237.783C85.0546 237.523 84.6485 237.367 84.1664 237.315C83.6354 237.258 83.1618 237.34 82.7455 237.562C82.3334 237.781 82.0013 238.088 81.7491 238.484C81.497 238.879 81.3452 239.316 81.2937 239.795L81.2111 240.563C81.1405 241.218 81.1938 241.786 81.3707 242.266C81.5518 242.743 81.8329 243.122 82.2141 243.403C82.5958 243.68 83.0558 243.847 83.5944 243.905C83.9447 243.943 84.2663 243.928 84.5593 243.861C84.8564 243.79 85.1193 243.666 85.348 243.488C85.577 243.307 85.7642 243.072 85.9096 242.783L87.1587 243.283C86.9761 243.706 86.7069 244.065 86.3511 244.362C85.9958 244.655 85.5728 244.869 85.0821 245.003C84.5919 245.133 84.053 245.166 83.4655 245.103ZM91.0719 245.739L89.3618 236.777L90.7628 236.928L91.9234 243.773L92.0138 243.783L94.5817 237.339L96.0053 237.492L97.1231 244.31L97.2135 244.32L99.8015 237.9L101.203 238.051L97.6249 246.444L96.3143 246.303L95.1335 239.433L94.998 239.418L92.3825 245.88L91.0719 245.739ZM108.902 240.846L107.668 241.056C107.614 240.848 107.524 240.642 107.397 240.438C107.275 240.231 107.096 240.051 106.861 239.9C106.626 239.749 106.314 239.653 105.926 239.611C105.395 239.554 104.94 239.629 104.559 239.835C104.183 240.039 103.975 240.327 103.935 240.7C103.899 241.031 103.992 241.306 104.212 241.524C104.432 241.742 104.792 241.942 105.29 242.126L106.544 242.581C107.3 242.852 107.847 243.203 108.185 243.632C108.524 244.057 108.661 244.572 108.596 245.179C108.543 245.676 108.352 246.105 108.023 246.466C107.699 246.827 107.27 247.093 106.737 247.264C106.204 247.436 105.601 247.485 104.927 247.413C104.042 247.317 103.33 247.046 102.791 246.6C102.253 246.153 101.946 245.553 101.871 244.798L103.17 244.618C103.241 245.098 103.431 245.472 103.741 245.742C104.055 246.012 104.485 246.176 105.031 246.235C105.652 246.302 106.16 246.223 106.553 245.999C106.951 245.771 107.17 245.471 107.21 245.098C107.243 244.797 107.164 244.533 106.975 244.307C106.787 244.077 106.48 243.888 106.054 243.739L104.644 243.245C103.869 242.971 103.317 242.616 102.987 242.181C102.661 241.742 102.53 241.223 102.594 240.624C102.647 240.134 102.831 239.716 103.147 239.369C103.466 239.022 103.876 238.768 104.377 238.604C104.883 238.442 105.44 238.393 106.05 238.459C106.909 238.551 107.563 238.812 108.012 239.241C108.465 239.671 108.762 240.206 108.902 240.846Z" fill="#1E1B39"/>
<rect x="47.3723" y="230.062" width="10" height="10" rx="5" transform="rotate(6.14203 47.3723 230.062)" fill="#4A3AFF"/>
<rect x="198.442" y="137.952" width="8.3927" height="13.8313" rx="4.19635" transform="rotate(6.14203 198.442 137.952)" fill="#C893FD"/>
<rect x="196.041" y="160.26" width="8.3927" height="51.2187" rx="4.19635" transform="rotate(6.14203 196.041 160.26)" fill="#4A3AFF"/>
<rect x="219.791" y="157.756" width="8.3927" height="17.0947" rx="4.19635" transform="rotate(6.14203 219.791 157.756)" fill="#C893FD"/>
<rect x="217.264" y="181.241" width="8.3927" height="32.6284" rx="4.19635" transform="rotate(6.14203 217.264 181.241)" fill="#4A3AFF"/>
<rect x="245.203" y="139.812" width="8.3927" height="17.0947" rx="4.19635" transform="rotate(6.14203 245.203 139.812)" fill="#C893FD"/>
<rect x="242.738" y="162.725" width="8.3927" height="53.7637" rx="4.19635" transform="rotate(6.14203 242.738 162.725)" fill="#4A3AFF"/>
<rect x="270.011" y="127.476" width="8.3927" height="5.17404" rx="2.58702" transform="rotate(6.14203 270.011 127.476)" fill="#C893FD"/>
<rect x="268.792" y="138.802" width="8.3927" height="80.3381" rx="4.19635" transform="rotate(6.14203 268.792 138.802)" fill="#4A3AFF"/>
<rect x="291.739" y="143.771" width="8.3927" height="8.39188" rx="4.19594" transform="rotate(6.14203 291.739 143.771)" fill="#C893FD"/>
<rect x="290.292" y="157.214" width="8.3927" height="64.3314" rx="4.19635" transform="rotate(6.14203 290.292 157.214)" fill="#4A3AFF"/>
<rect x="312.865" y="165.661" width="8.3927" height="15.223" rx="4.19635" transform="rotate(6.14203 312.865 165.661)" fill="#C893FD"/>
<rect x="310.438" y="188.211" width="8.3927" height="35.6677" rx="4.19635" transform="rotate(6.14203 310.438 188.211)" fill="#4A3AFF"/>
<rect x="176.609" y="122.629" width="8.3927" height="47.399" rx="4.19635" transform="rotate(6.14203 176.609 122.629)" fill="#C893FD"/>
<rect x="170.839" y="176.246" width="8.3927" height="32.6284" rx="4.19635" transform="rotate(6.14203 170.839 176.246)" fill="#4A3AFF"/>
<rect x="152.017" y="132.956" width="8.3927" height="47.399" rx="4.19635" transform="rotate(6.14203 152.017 132.956)" fill="#C893FD"/>
<rect x="146.131" y="187.654" width="8.3927" height="18.6418" rx="4.19635" transform="rotate(6.14203 146.131 187.654)" fill="#4A3AFF"/>
<rect x="130.086" y="118.561" width="8.3927" height="48.176" rx="4.19635" transform="rotate(6.14203 130.086 118.561)" fill="#C893FD"/>
<rect x="124.172" y="173.518" width="8.3927" height="30.3471" rx="4.19635" transform="rotate(6.14203 124.172 173.518)" fill="#4A3AFF"/>
<rect x="104.739" y="135.902" width="8.3927" height="19.9613" rx="4.19635" transform="rotate(6.14203 104.739 135.902)" fill="#C893FD"/>
<rect x="102.022" y="161.157" width="8.3927" height="40.2678" rx="4.19635" transform="rotate(6.14203 102.022 161.157)" fill="#4A3AFF"/>
<rect x="82.718" y="122.327" width="8.3927" height="15.5509" rx="4.19635" transform="rotate(6.14203 82.718 122.327)" fill="#C893FD"/>
<rect x="80.4106" y="143.769" width="8.3927" height="55.2431" rx="4.19635" transform="rotate(6.14203 80.4106 143.769)" fill="#4A3AFF"/>
<rect x="56.7678" y="145.273" width="8.3927" height="15.5509" rx="4.19635" transform="rotate(6.14203 56.7678 145.273)" fill="#C893FD"/>
<rect x="54.5354" y="166.025" width="8.3927" height="30.3471" rx="4.19635" transform="rotate(6.14203 54.5354 166.025)" fill="#4A3AFF"/>
<path d="M70.0355 81.818L72.1753 61.9328L73.4492 62.0699L71.3094 81.955L70.0355 81.818ZM74.8479 68.86C74.8532 68.2268 74.6389 67.7113 74.205 67.3136C73.7711 66.916 73.1502 66.6737 72.3424 66.5867C71.7935 66.5277 71.3217 66.5555 70.9269 66.6701C70.5327 66.7796 70.2202 66.9582 69.9892 67.2057C69.7635 67.4538 69.6322 67.7487 69.5954 68.0905C69.5544 68.3742 69.5872 68.6292 69.6938 68.8554C69.8056 69.0822 69.9697 69.2859 70.186 69.4663C70.4029 69.6415 70.6579 69.8026 70.9512 69.9494C71.245 70.091 71.5612 70.2193 71.8998 70.3343L73.2923 70.8299C73.9695 71.0599 74.5842 71.3356 75.1363 71.657C75.6884 71.9783 76.1564 72.3508 76.5404 72.7745C76.9243 73.1983 77.2052 73.679 77.3831 74.2167C77.5661 74.755 77.6246 75.3559 77.5584 76.0193C77.4485 76.9923 77.1091 77.8096 76.5402 78.4713C75.9771 79.1283 75.2135 79.6041 74.2494 79.8984C73.291 80.1882 72.1645 80.2634 70.8699 80.1241C69.5857 79.9859 68.4883 79.6687 67.5778 79.1726C66.6725 78.6771 65.9947 78.0148 65.5443 77.1859C65.0997 76.3522 64.9261 75.3618 65.0233 74.2146L68.278 74.5648C68.2568 75.1021 68.3617 75.5639 68.5925 75.9502C68.8291 76.3319 69.1654 76.6378 69.6016 76.8681C70.0436 77.0938 70.5545 77.2378 71.1345 77.3002C71.7041 77.3615 72.2076 77.3319 72.6449 77.2113C73.0873 77.0913 73.441 76.8963 73.7058 76.6262C73.9706 76.3561 74.1236 76.0294 74.1648 75.6462C74.2033 75.2889 74.1294 74.9771 73.9433 74.7109C73.7624 74.4452 73.4791 74.2052 73.0936 73.9909C72.7132 73.7771 72.2406 73.569 71.6757 73.3668L69.9903 72.7454C68.6842 72.2749 67.6801 71.6508 66.978 70.8733C66.2759 70.0958 65.9907 69.1196 66.1224 67.9446C66.2208 66.9809 66.5677 66.167 67.163 65.5029C67.7635 64.8394 68.5412 64.3547 69.496 64.0489C70.4509 63.743 71.5083 63.6525 72.6683 63.7774C73.849 63.9044 74.8578 64.2173 75.6946 64.7159C76.5367 65.2151 77.1649 65.8511 77.5794 66.6238C77.9939 67.3966 78.158 68.2576 78.0715 69.2069L74.8479 68.86ZM87.8714 65.6334L86.1595 81.5415L82.7962 81.1796L84.1645 68.464L84.0713 68.4539L80.1825 70.3456L80.5035 67.3628L84.71 65.2932L87.8714 65.6334ZM89.9405 81.9484L90.2012 79.5249L96.4281 74.8911C96.9598 74.4769 97.4089 74.1009 97.7753 73.7631C98.1468 73.426 98.4372 73.0879 98.6466 72.749C98.8565 72.4049 98.984 72.0231 99.0291 71.6036C99.0793 71.1376 99.0163 70.7248 98.8402 70.3654C98.6647 70.0008 98.4028 69.708 98.0547 69.4872C97.7071 69.2612 97.3002 69.1232 96.8342 69.073C96.3474 69.0206 95.9122 69.0733 95.5285 69.2311C95.1448 69.3889 94.8348 69.641 94.5985 69.9875C94.3621 70.334 94.2167 70.761 94.1621 71.2685L90.9695 70.9249C91.0816 69.8841 91.4144 69.0058 91.9681 68.2901C92.5218 67.5744 93.2459 67.0525 94.1403 66.7244C95.0347 66.3964 96.036 66.292 97.1442 66.4112C98.2834 66.5338 99.2534 66.8425 100.054 67.3372C100.86 67.8274 101.461 68.4525 101.856 69.2127C102.251 69.9728 102.399 70.8112 102.3 71.7278C102.236 72.3285 102.053 72.9086 101.752 73.4681C101.456 74.0282 100.969 74.6332 100.291 75.2832C99.6141 75.928 98.6757 76.6888 97.4761 77.5655L94.9087 79.5914L94.8969 79.7002L101.577 80.4191L101.281 83.1688L89.9405 81.9484ZM107.58 81.6465L107.402 82.4917C107.262 83.168 107.059 83.8351 106.794 84.4928C106.534 85.1563 106.271 85.754 106.004 86.2858C105.743 86.8181 105.533 87.2356 105.374 87.5381L103.23 87.3074C103.341 87.0102 103.493 86.5944 103.687 86.06C103.88 85.5307 104.073 84.9333 104.265 84.2678C104.457 83.6022 104.606 82.919 104.713 82.218L104.846 81.3522L107.58 81.6465ZM115.611 84.9308C114.414 84.8021 113.371 84.4934 112.481 84.0047C111.596 83.5114 110.926 82.8971 110.471 82.1619C110.016 81.4267 109.834 80.6293 109.927 79.7696C109.998 79.1068 110.214 78.5145 110.574 77.9927C110.94 77.4663 111.404 77.0474 111.966 76.7361C112.53 76.4195 113.14 76.2443 113.799 76.2103L113.81 76.1016C112.98 75.8393 112.335 75.3535 111.877 74.6442C111.42 73.9297 111.238 73.1375 111.331 72.2675C111.42 71.4441 111.74 70.7373 112.29 70.147C112.842 69.5515 113.557 69.1151 114.435 68.8377C115.319 68.5556 116.297 68.4723 117.369 68.5877C118.441 68.703 119.377 68.9923 120.175 69.4554C120.979 69.9191 121.587 70.5005 121.999 71.1996C122.412 71.8935 122.576 72.6499 122.494 73.4686C122.394 74.3432 122.043 75.0781 121.439 75.6732C120.836 76.2683 120.108 76.6064 119.256 76.6876L119.244 76.7963C119.87 76.9684 120.421 77.2688 120.899 77.6973C121.383 78.1213 121.747 78.6293 121.992 79.2215C122.243 79.809 122.336 80.4345 122.27 81.0979C122.172 81.9569 121.823 82.6972 121.221 83.3188C120.62 83.9403 119.832 84.3977 118.858 84.6909C117.889 84.9796 116.807 85.0595 115.611 84.9308ZM115.876 82.4607C116.41 82.5181 116.886 82.4724 117.305 82.3238C117.725 82.1699 118.065 81.934 118.324 81.6162C118.59 81.2938 118.746 80.9073 118.795 80.4568C118.845 79.9959 118.772 79.5769 118.577 79.1996C118.382 78.8173 118.096 78.5036 117.719 78.2588C117.343 78.0087 116.896 77.8558 116.378 77.8001C115.865 77.7449 115.396 77.7992 114.97 77.9629C114.544 78.1214 114.195 78.3667 113.924 78.699C113.658 79.0266 113.5 79.4208 113.451 79.8817C113.402 80.3322 113.471 80.7429 113.656 81.1139C113.842 81.4796 114.126 81.7826 114.509 82.0228C114.892 82.2579 115.348 82.4039 115.876 82.4607ZM116.641 75.3533C117.086 75.4012 117.492 75.3532 117.859 75.2093C118.225 75.0654 118.524 74.8435 118.756 74.5436C118.987 74.2437 119.125 73.8841 119.17 73.4646C119.215 73.0503 119.155 72.6773 118.992 72.3454C118.829 72.0083 118.587 71.7334 118.264 71.5205C117.941 71.3025 117.552 71.169 117.097 71.1199C116.646 71.0714 116.238 71.1192 115.871 71.2631C115.505 71.4018 115.207 71.6185 114.976 71.9132C114.751 72.2033 114.616 72.5555 114.572 72.9698C114.527 73.3892 114.585 73.7701 114.747 74.1123C114.91 74.4545 115.155 74.735 115.482 74.9535C115.809 75.1721 116.196 75.3054 116.641 75.3533ZM124.79 85.6986L132.789 73.3586L132.801 73.2499L125.119 72.4232L125.414 69.6734L136.577 70.8746L136.276 73.6632L128.262 86.0723L124.79 85.6986ZM142.743 87.8506C141.645 87.7324 140.688 87.4251 139.872 86.9287C139.061 86.4329 138.442 85.8032 138.017 85.0397C137.591 84.2762 137.417 83.435 137.494 82.5162L140.757 82.8673C140.727 83.4874 140.932 84.015 141.372 84.45C141.813 84.885 142.364 85.1382 143.027 85.2096C143.555 85.2664 144.034 85.2 144.463 85.0105C144.898 84.8163 145.252 84.5217 145.524 84.1268C145.803 83.7272 145.972 83.253 146.031 82.7041C146.091 82.1448 146.025 81.64 145.833 81.1898C145.645 80.7401 145.357 80.3738 144.969 80.091C144.58 79.8083 144.119 79.6356 143.587 79.573C143.12 79.5228 142.657 79.5699 142.196 79.7141C141.741 79.8589 141.373 80.0839 141.094 80.3891L138.161 79.5314L139.818 71.2234L149.543 72.2699L149.247 75.0197L142.295 74.2715L141.454 78.212L141.547 78.2221C141.869 77.8586 142.327 77.5778 142.919 77.3796C143.511 77.1814 144.157 77.1199 144.856 77.1952C145.814 77.2983 146.644 77.6155 147.347 78.1468C148.049 78.6781 148.575 79.3608 148.926 80.1947C149.277 81.0234 149.394 81.9476 149.279 82.9672C149.169 84.0397 148.818 84.9658 148.226 85.7455C147.64 86.5205 146.873 87.098 145.926 87.4781C144.985 87.8534 143.924 87.9776 142.743 87.8506Z" fill="#1E1B39"/>
<path d="M68.2131 50.4429L69.3025 40.3195L72.7231 40.6876C73.514 40.7727 74.1487 40.9777 74.6271 41.3025C75.1058 41.6241 75.442 42.0319 75.6355 42.5261C75.829 43.0203 75.8936 43.5656 75.8294 44.1621C75.7652 44.7586 75.5864 45.2743 75.2929 45.7095C74.9994 46.1446 74.5864 46.4668 74.0538 46.6762C73.5216 46.8823 72.8633 46.9431 72.079 46.8587L69.3109 46.5608L69.4301 45.4536L72.1587 45.7472C72.6991 45.8054 73.1426 45.7731 73.4891 45.6504C73.839 45.528 74.1037 45.3298 74.2832 45.0558C74.4663 44.7788 74.5797 44.4376 74.6233 44.0323C74.6669 43.627 74.6293 43.2646 74.5103 42.9451C74.3913 42.6256 74.1743 42.3656 73.8592 42.165C73.5445 41.9611 73.1136 41.8297 72.5665 41.7709L70.4114 41.5389L69.439 50.5748L68.2131 50.4429ZM73.4676 46.4081L75.4695 51.2238L74.0459 51.0706L72.0836 46.2591L73.4676 46.4081ZM80.0434 51.876C79.3118 51.7973 78.6981 51.5679 78.2023 51.1878C77.7102 50.8049 77.3521 50.3063 77.1282 49.6922C76.9079 49.0751 76.8396 48.3777 76.9233 47.6C77.007 46.8223 77.2225 46.1521 77.5697 45.5894C77.9206 45.0238 78.3693 44.6021 78.9159 44.3242C79.4662 44.0434 80.084 43.9399 80.7694 44.0137C81.1649 44.0562 81.5483 44.1641 81.9197 44.3374C82.291 44.5107 82.619 44.7627 82.9034 45.0933C83.1882 45.4207 83.3984 45.8367 83.5341 46.3413C83.6698 46.8459 83.6996 47.4525 83.6233 48.161L83.5701 48.6553L77.7176 48.0255L77.8261 47.0171L82.4923 47.5193C82.5384 47.0909 82.4939 46.6994 82.3587 46.3448C82.2268 45.9906 82.0148 45.6994 81.7226 45.4713C81.4338 45.2435 81.0785 45.107 80.6567 45.0616C80.192 45.0116 79.7776 45.0837 79.4133 45.2778C79.0527 45.469 78.7621 45.7378 78.5415 46.084C78.3209 46.4303 78.1881 46.8127 78.1431 47.2312L78.0707 47.9035C78.009 48.4769 78.0556 48.9736 78.2104 49.3936C78.3688 49.8107 78.6149 50.1422 78.9484 50.3881C79.2823 50.6307 79.6849 50.7774 80.1561 50.8281C80.4626 50.861 80.744 50.848 81.0004 50.7889C81.2604 50.7269 81.4905 50.6183 81.6905 50.4631C81.8909 50.3047 82.0547 50.099 82.1819 49.846L83.2749 50.2836C83.1151 50.6531 82.8796 50.9678 82.5683 51.2276C82.2573 51.4842 81.8872 51.671 81.4579 51.7882C81.029 51.902 80.5575 51.9313 80.0434 51.876ZM91.7732 45.2978L88.1485 52.5882L86.9621 52.4605L84.9715 44.5659L86.2369 44.702L87.6817 50.9779L87.7608 50.9864L90.5077 45.1616L91.7732 45.2978ZM95.3903 53.5275C94.6587 53.4488 94.0451 53.2194 93.5493 52.8393C93.0571 52.4564 92.6991 51.9578 92.4751 51.3437C92.2549 50.7266 92.1866 50.0292 92.2703 49.2515C92.3539 48.4738 92.5694 47.8036 92.9166 47.2409C93.2675 46.6753 93.7163 46.2536 94.2629 45.9757C94.8131 45.6949 95.4309 45.5914 96.1164 45.6652C96.5118 45.7077 96.8952 45.8156 97.2666 45.9889C97.638 46.1623 97.9659 46.4142 98.2503 46.7448C98.5351 47.0722 98.7454 47.4882 98.8811 47.9928C99.0168 48.4974 99.0465 49.104 98.9703 49.8125L98.9171 50.3068L93.0645 49.677L93.173 48.6686L97.8393 49.1708C97.8854 48.7424 97.8408 48.3509 97.7056 47.9963C97.5737 47.6421 97.3617 47.3509 97.0696 47.1228C96.7807 46.8951 96.4254 46.7585 96.0036 46.7131C95.539 46.6631 95.1245 46.7352 94.7603 46.9293C94.3997 47.1205 94.1091 47.3893 93.8885 47.7355C93.6679 48.0818 93.535 48.4642 93.49 48.8827L93.4177 49.555C93.356 50.1284 93.4025 50.6251 93.5573 51.0451C93.7158 51.4622 93.9618 51.7937 94.2954 52.0396C94.6293 52.2822 95.0318 52.4289 95.5031 52.4796C95.8096 52.5125 96.091 52.4995 96.3474 52.4404C96.6074 52.3784 96.8374 52.2698 97.0374 52.1146C97.2378 51.9562 97.4017 51.7505 97.5289 51.4975L98.6219 51.9351C98.4621 52.3046 98.2265 52.6193 97.9152 52.8791C97.6043 53.1357 97.2341 53.3226 96.8048 53.4397C96.3759 53.5535 95.9044 53.5828 95.3903 53.5275ZM101.984 49.4567L101.492 54.0241L100.326 53.8986L101.143 46.3061L102.27 46.4273L102.142 47.6137L102.241 47.6243C102.46 47.2579 102.764 46.9772 103.152 46.7822C103.54 46.584 104.02 46.5157 104.594 46.5774C105.108 46.6327 105.546 46.7866 105.909 47.039C106.272 47.2881 106.538 47.6367 106.707 48.0849C106.875 48.5297 106.925 49.0751 106.856 49.721L106.336 54.5454L105.17 54.4199L105.681 49.6745C105.745 49.0781 105.64 48.5968 105.366 48.2306C105.092 47.8611 104.685 47.6473 104.145 47.5892C103.772 47.5491 103.431 47.594 103.12 47.7239C102.813 47.8542 102.559 48.0652 102.357 48.3568C102.156 48.6485 102.031 49.0152 101.984 49.4567ZM113.587 52.1855L114.07 47.6972L115.237 47.8227L114.42 55.4152L113.253 55.2897L113.391 54.0045L113.312 53.996C113.093 54.3624 112.781 54.6605 112.376 54.8903C111.972 55.1168 111.483 55.1992 110.909 55.1375C110.435 55.0864 110.024 54.9372 109.677 54.6899C109.331 54.4393 109.075 54.0917 108.909 53.6472C108.744 53.1994 108.696 52.6526 108.766 52.0067L109.285 47.1823L110.452 47.3078L109.941 52.0531C109.881 52.6068 109.989 53.065 110.263 53.4279C110.541 53.7911 110.922 53.9988 111.406 54.0509C111.696 54.0821 111.999 54.0397 112.315 53.9237C112.634 53.808 112.912 53.6079 113.15 53.3235C113.39 53.0393 113.536 52.66 113.587 52.1855ZM119.722 56.1459C118.991 56.0672 118.377 55.8378 117.881 55.4578C117.389 55.0748 117.031 54.5762 116.807 53.9621C116.587 53.345 116.519 52.6476 116.602 51.8699C116.686 51.0922 116.902 50.422 117.249 49.8594C117.6 49.2937 118.048 48.872 118.595 48.5941C119.145 48.3133 119.763 48.2098 120.449 48.2836C120.844 48.3261 121.227 48.4341 121.599 48.6074C121.97 48.7807 122.298 49.0326 122.583 49.3633C122.867 49.6906 123.078 50.1066 123.213 50.6112C123.349 51.1158 123.379 51.7224 123.302 52.4309L123.249 52.9252L117.397 52.2954L117.505 51.287L122.171 51.7892C122.218 51.3608 122.173 50.9693 122.038 50.6147C121.906 50.2605 121.694 49.9693 121.402 49.7412C121.113 49.5135 120.758 49.3769 120.336 49.3315C119.871 49.2815 119.457 49.3536 119.092 49.5477C118.732 49.7389 118.441 50.0077 118.221 50.354C118 50.7002 117.867 51.0826 117.822 51.5011L117.75 52.1734C117.688 52.7468 117.735 53.2435 117.89 53.6635C118.048 54.0806 118.294 54.4121 118.628 54.658C118.961 54.9006 119.364 55.0473 119.835 55.098C120.142 55.131 120.423 55.1179 120.68 55.0588C120.94 54.9968 121.17 54.8882 121.37 54.7331C121.57 54.5746 121.734 54.3689 121.861 54.1159L122.954 54.5535C122.794 54.923 122.559 55.2377 122.247 55.4976C121.936 55.7541 121.566 55.941 121.137 56.0581C120.708 56.172 120.237 56.2012 119.722 56.1459Z" fill="#9291A5"/>
</g>
<defs>
<filter id="filter0_d_61_351" x="0.0234375" y="0.0233765" width="374.68" height="350.724" filterUnits="userSpaceOnUse" color-interpolation-filters="sRGB">
<feFlood flood-opacity="0" result="BackgroundImageFix"/>
<feColorMatrix in="SourceAlpha" type="matrix" values="0 0 0 0 0 0 0 0 0 0 0 0 0 0 0 0 0 0 127 0" result="hardAlpha"/>
<feOffset dy="4"/>
<feGaussianBlur stdDeviation="4"/>
<feComposite in2="hardAlpha" operator="out"/>
<feColorMatrix type="matrix" values="0 0 0 0 0.792342 0 0 0 0 0.797855 0 0 0 0 0.888822 0 0 0 1 0"/>
<feBlend mode="normal" in2="BackgroundImageFix" result="effect1_dropShadow_61_351"/>
<feBlend mode="normal" in="SourceGraphic" in2="effect1_dropShadow_61_351" result="shape"/>
</filter>
<filter id="filter1_d_61_351" x="2.02344" y="0.0233765" width="370.68" height="346.724" filterUnits="userSpaceOnUse" color-interpolation-filters="sRGB">
<feFlood flood-opacity="0" result="BackgroundImageFix"/>
<feColorMatrix in="SourceAlpha" type="matrix" values="0 0 0 0 0 0 0 0 0 0 0 0 0 0 0 0 0 0 127 0" result="hardAlpha"/>
<feOffset dy="2"/>
<feGaussianBlur stdDeviation="3"/>
<feComposite in2="hardAlpha" operator="out"/>
<feColorMatrix type="matrix" values="0 0 0 0 0.0509804 0 0 0 0 0.0392157 0 0 0 0 0.172549 0 0 0 0.08 0"/>
<feBlend mode="normal" in2="BackgroundImageFix" result="effect1_dropShadow_61_351"/>
<feBlend mode="normal" in="SourceGraphic" in2="effect1_dropShadow_61_351" result="shape"/>
</filter>
</defs>
</svg>
