<svg width="25" height="16" viewBox="0 0 25 16" fill="none" xmlns="http://www.w3.org/2000/svg">
<path fill-rule="evenodd" clip-rule="evenodd" d="M3.71092 2.66473C4.77818 1.59746 6.40749 1.29639 7.79099 1.93756C6.70573 3.89103 6.92878 6.37663 8.46115 8.11093C7.01981 9.20618 4.99025 9.06616 3.71097 7.78686C2.29664 6.37253 2.29659 4.07997 3.71092 2.66473ZM9.76726 1.81852C8.25791 3.32787 8.25791 5.77338 9.76726 7.28286C11.2766 8.79233 13.7221 8.7922 15.2316 7.28286C16.7411 5.77351 16.7409 3.328 15.2316 1.81852C13.7222 0.309045 11.2757 0.309173 9.76726 1.81852ZM18.4252 15.3147L18.4242 13.4433C18.4242 12.7111 18.1551 12.0699 17.636 11.5578C14.2842 8.25309 10.6993 8.26615 7.36055 11.5838C6.84843 12.0929 6.58438 12.7271 6.58036 13.4523L6.57235 15.3147L18.4252 15.3147ZM19.9455 15.3147L19.9445 13.4433C19.9435 12.305 19.5134 11.2747 18.7032 10.4755C18.3741 10.1505 18.0401 9.85337 17.704 9.5833C19.6635 9.18521 21.643 9.92138 23.5414 11.7938C24.0295 12.2739 24.2816 12.8741 24.2816 13.5612V15.3157H19.9455L19.9455 15.3147ZM0.715906 15.3147H5.05204L5.06104 13.4443C5.06604 12.319 5.49014 11.2988 6.28933 10.5055C6.62641 10.1704 6.96749 9.8643 7.31158 9.58725C5.34611 9.18116 3.36056 9.91531 1.45522 11.7938C0.968114 12.2739 0.717047 12.874 0.716048 13.5612L0.715048 15.3156L0.715906 15.3147ZM17.2088 1.93657C18.5921 1.29641 20.2216 1.59649 21.2888 2.66373C22.7042 4.07805 22.7042 6.37148 21.2888 7.78596C20.0095 9.06527 17.98 9.20631 16.5387 8.11003C18.07 6.37563 18.294 3.89005 17.2088 1.93657Z" fill="white"/>
</svg>
