<svg width="24" height="24" viewBox="0 0 24 24" fill="none" xmlns="http://www.w3.org/2000/svg">
<path d="M12 17.2752L7.85002 19.7752C7.66669 19.8919 7.47502 19.9419 7.27502 19.9252C7.07502 19.9085 6.90002 19.8419 6.75002 19.7252C6.60002 19.6085 6.48336 19.4629 6.40002 19.2882C6.31669 19.1135 6.30002 18.9175 6.35002 18.7002L7.45002 13.9752L3.77502 10.8002C3.60836 10.6502 3.50436 10.4792 3.46302 10.2872C3.42169 10.0952 3.43402 9.90786 3.50002 9.7252C3.56602 9.54253 3.66602 9.39253 3.80002 9.2752C3.93402 9.15786 4.11736 9.08286 4.35002 9.0502L9.20002 8.6252L11.075 4.1752C11.1584 3.9752 11.2877 3.8252 11.463 3.7252C11.6384 3.6252 11.8174 3.5752 12 3.5752C12.1827 3.5752 12.3617 3.6252 12.537 3.7252C12.7124 3.8252 12.8417 3.9752 12.925 4.1752L14.8 8.6252L19.65 9.0502C19.8834 9.08353 20.0667 9.15853 20.2 9.2752C20.3334 9.39186 20.4334 9.54186 20.5 9.7252C20.5667 9.90853 20.5794 10.0962 20.538 10.2882C20.4967 10.4802 20.3924 10.6509 20.225 10.8002L16.55 13.9752L17.65 18.7002C17.7 18.9169 17.6834 19.1129 17.6 19.2882C17.5167 19.4635 17.4 19.6092 17.25 19.7252C17.1 19.8412 16.925 19.9079 16.725 19.9252C16.525 19.9425 16.3334 19.8925 16.15 19.7752L12 17.2752Z" fill="#6C78FF"/>
</svg>
