<svg width="191" height="83" viewBox="0 0 191 83" fill="none" xmlns="http://www.w3.org/2000/svg">
<g filter="url(#filter0_d_77_749)">
<rect x="12.2749" y="3" width="172.502" height="51.6578" rx="12" transform="rotate(5.86078 12.2749 3)" fill="white" shape-rendering="crispEdges"/>
<path d="M30.3264 26.8927L26.9846 26.5497L27.2807 23.6645L33.7021 24.3236L32.1903 39.0509L29.1108 38.7348L30.3264 26.8927ZM38.7737 38.7057C38.6759 39.6578 38.2917 40.4364 37.6209 41.0416C36.9566 41.6475 36.1499 41.9509 35.2009 41.9516L35.3126 40.8636C35.8335 40.8254 36.2666 40.6866 36.6119 40.4472C36.963 40.2149 37.1717 39.9026 37.2382 39.5102C37.0748 39.5719 36.8797 39.5912 36.6531 39.5679C36.1868 39.52 35.8106 39.3276 35.5245 38.9907C35.2384 38.6537 35.1179 38.265 35.1631 37.8246C35.2196 37.2741 35.4203 36.8497 35.765 36.5513C36.1169 36.2471 36.5487 36.1213 37.0604 36.1738C37.6368 36.233 38.084 36.4981 38.4022 36.9693C38.7203 37.4404 38.8441 38.0192 38.7737 38.7057ZM40.7624 32.5289C40.9167 31.0263 41.3192 29.7195 41.9699 28.6082C42.6271 27.4977 43.4743 26.6716 44.5116 26.1302C45.5553 25.5894 46.7087 25.3838 47.9716 25.5135C48.9171 25.6105 49.7689 25.8878 50.5269 26.3452C51.2915 26.8032 51.918 27.3944 52.4065 28.1186C52.9014 28.8435 53.2555 29.698 53.4686 30.6819C53.6818 31.6658 53.7305 32.7212 53.6148 33.8481C53.4593 35.3636 53.0704 36.6653 52.4482 37.7533C51.8261 38.8413 50.9935 39.6525 49.9504 40.1868C48.9144 40.7153 47.7326 40.9114 46.405 40.7751C45.0773 40.6388 43.96 40.2067 43.053 39.4788C42.1467 38.7444 41.4995 37.7813 41.1113 36.5896C40.7232 35.3979 40.6069 34.0443 40.7624 32.5289ZM43.9391 32.8549C43.7789 34.4157 43.939 35.6298 44.4193 36.4972C44.9003 37.3581 45.6589 37.8418 46.6952 37.9481C47.7314 38.0545 48.5724 37.7351 49.2183 36.9898C49.8649 36.2381 50.2682 35.0819 50.4285 33.5211C50.5933 31.9149 50.4356 30.6782 49.9552 29.8108C49.482 28.9376 48.7241 28.4475 47.6814 28.3404C46.6387 28.2334 45.7937 28.559 45.1465 29.3172C44.5064 30.0695 44.104 31.2488 43.9391 32.8549ZM65.0199 42.3815L54.5047 41.3415L54.75 38.9517L60.0221 35.409C60.893 34.8308 61.5231 34.3032 61.9124 33.8262C62.3082 33.3498 62.5366 32.8136 62.5978 32.2178C62.6742 31.473 62.5543 30.8881 62.238 30.4629C61.9282 30.0384 61.4429 29.7923 60.7824 29.7245C60.0959 29.654 59.5383 29.8258 59.1096 30.24C58.6881 30.6483 58.4352 31.2637 58.3508 32.0862L55.1449 31.7571C55.3145 30.1056 55.9358 28.8343 57.009 27.9431C58.0886 27.0526 59.438 26.6905 61.0571 26.8567C62.741 27.0295 64.0111 27.5984 64.8676 28.5633C65.7305 29.5289 66.0816 30.7953 65.9207 32.3626C65.823 33.3146 65.4689 34.1814 64.8586 34.963C64.2554 35.7388 63.419 36.4907 62.3495 37.2186L59.9539 38.8477L65.326 39.3992L65.0199 42.3815ZM67.2271 27.7649L78.156 28.8867L77.8488 31.8788L71.5635 43.0925L68.2217 42.7495L74.6042 31.5458L66.9199 30.757L67.2271 27.7649Z" fill="#1E1B39"/>
<path d="M124.001 35.6716L122.961 45.8002L121.735 45.6743L122.643 36.8315L122.583 36.8254L119.942 38.2136L120.07 36.9673L122.775 35.5457L124.001 35.6716ZM125.874 46.0992L125.966 45.209L129.685 41.8924C130.121 41.5041 130.482 41.1647 130.769 40.8742C131.055 40.5804 131.274 40.2997 131.425 40.032C131.579 39.7613 131.672 39.471 131.704 39.1611C131.741 38.805 131.687 38.4879 131.542 38.2098C131.401 37.9321 131.19 37.7073 130.912 37.5354C130.633 37.3635 130.31 37.2588 129.944 37.2212C129.555 37.1813 129.207 37.2272 128.901 37.359C128.597 37.4878 128.352 37.6875 128.164 37.9581C127.98 38.229 127.868 38.5574 127.828 38.9431L126.661 38.8233C126.722 38.2298 126.912 37.723 127.232 37.3026C127.552 36.8823 127.96 36.5711 128.457 36.3689C128.958 36.1671 129.503 36.0964 130.093 36.157C130.687 36.2179 131.2 36.3972 131.633 36.6948C132.065 36.9924 132.39 37.3673 132.607 37.8193C132.823 38.2714 132.905 38.7579 132.852 39.2788C132.813 39.6514 132.708 40.0088 132.537 40.351C132.369 40.6902 132.097 41.0606 131.723 41.4619C131.352 41.8603 130.845 42.3413 130.2 42.9049L127.676 45.1046L127.668 45.1838L132.376 45.667L132.264 46.7551L125.874 46.0992ZM135.169 47.1332C134.925 47.1082 134.725 46.9993 134.568 46.8066C134.411 46.6139 134.345 46.3956 134.37 46.1516C134.395 45.9076 134.504 45.7073 134.697 45.5504C134.889 45.3936 135.108 45.3278 135.352 45.3528C135.596 45.3778 135.796 45.4867 135.953 45.6794C136.11 45.8721 136.176 46.0904 136.151 46.3344C136.134 46.4959 136.077 46.6401 135.981 46.7668C135.888 46.8939 135.77 46.9917 135.626 47.0602C135.486 47.1258 135.334 47.1501 135.169 47.1332ZM138.254 47.37L143.704 38.8736L143.713 38.7944L138.49 38.2583L138.602 37.1703L145.09 37.8364L144.973 38.9837L139.54 47.502L138.254 47.37ZM148.909 48.6036C148.329 48.544 147.818 48.375 147.377 48.0965C146.936 47.818 146.596 47.4632 146.357 47.0322C146.118 46.6012 146.011 46.1272 146.038 45.6101L147.225 45.7319C147.224 46.195 147.393 46.5955 147.731 46.9334C148.073 47.2684 148.503 47.4624 149.021 47.5156C149.436 47.5582 149.816 47.4988 150.159 47.3375C150.505 47.1765 150.788 46.9356 151.007 46.615C151.231 46.2914 151.364 45.9136 151.409 45.4817C151.454 45.0399 151.397 44.6359 151.238 44.2698C151.083 43.9006 150.847 43.5983 150.532 43.3626C150.216 43.127 149.842 42.9853 149.411 42.9377C149.101 42.9026 148.778 42.9177 148.442 42.9831C148.105 43.0453 147.824 43.1413 147.597 43.2713L146.464 43.0151L147.589 38.0928L152.851 38.633L152.74 39.721L148.506 39.2865L147.843 42.2371L147.903 42.2432C148.127 42.0996 148.402 41.9895 148.726 41.9129C149.051 41.8362 149.383 41.8153 149.722 41.8502C150.342 41.9138 150.879 42.1189 151.333 42.4654C151.791 42.8089 152.132 43.2504 152.357 43.7899C152.585 44.3297 152.665 44.9276 152.598 45.5838C152.531 46.23 152.327 46.7921 151.985 47.2701C151.646 47.7451 151.209 48.1034 150.675 48.345C150.141 48.5834 149.552 48.6696 148.909 48.6036ZM159.589 47.6408L159.644 47.1067C159.682 46.7374 159.793 46.4073 159.976 46.1162C160.163 45.8222 160.412 45.5979 160.725 45.4434C161.041 45.286 161.41 45.2289 161.832 45.2722C162.26 45.3162 162.61 45.447 162.881 45.6648C163.152 45.8792 163.346 46.149 163.462 46.4741C163.579 46.796 163.619 47.1415 163.581 47.5108L163.526 48.0449C163.488 48.4142 163.377 48.746 163.194 49.0404C163.014 49.3318 162.768 49.5564 162.455 49.7142C162.146 49.8691 161.78 49.9248 161.358 49.8815C160.93 49.8375 160.578 49.7081 160.304 49.4934C160.03 49.2753 159.832 49.0052 159.712 48.683C159.592 48.3575 159.551 48.0101 159.589 47.6408ZM160.653 47.2103L160.598 47.7444C160.567 48.051 160.611 48.3338 160.731 48.5927C160.851 48.8482 161.09 48.9943 161.446 49.0309C161.792 49.0664 162.048 48.9711 162.215 48.745C162.385 48.5159 162.486 48.248 162.517 47.9414L162.572 47.4073C162.603 47.1006 162.562 46.8199 162.449 46.565C162.335 46.3068 162.1 46.1594 161.744 46.1228C161.398 46.0873 161.137 46.1837 160.96 46.4122C160.787 46.6376 160.685 46.9037 160.653 47.2103ZM155.14 41.3268L155.195 40.7927C155.233 40.4234 155.343 40.0932 155.526 39.8022C155.713 39.5081 155.963 39.2839 156.275 39.1294C156.591 38.9719 156.96 38.9148 157.382 38.9581C157.811 39.0021 158.16 39.133 158.431 39.3507C158.702 39.5651 158.896 39.8349 159.013 40.1601C159.13 40.4819 159.169 40.8275 159.131 41.1968L159.077 41.7309C159.039 42.1002 158.928 42.432 158.744 42.7263C158.565 43.0177 158.318 43.2423 158.006 43.4001C157.696 43.555 157.331 43.6108 156.909 43.5674C156.48 43.5234 156.129 43.3941 155.854 43.1793C155.58 42.9613 155.383 42.6911 155.263 42.3689C155.143 42.0434 155.102 41.6961 155.14 41.3268ZM156.204 40.8962L156.149 41.4303C156.117 41.737 156.162 42.0197 156.282 42.2786C156.402 42.5342 156.64 42.6802 156.996 42.7168C157.342 42.7523 157.599 42.657 157.765 42.4309C157.935 42.2018 158.036 41.9339 158.068 41.6273L158.122 41.0932C158.154 40.7866 158.113 40.5058 157.999 40.2509C157.886 39.9927 157.651 39.8453 157.295 39.8088C156.949 39.7732 156.687 39.8697 156.51 40.0981C156.337 40.3236 156.235 40.5896 156.204 40.8962ZM154.726 49.0607L162.729 39.6469L163.856 39.7627L155.853 49.1765L154.726 49.0607Z" fill="#04CE00"/>
<circle cx="101.302" cy="38.1031" r="10.8781" transform="rotate(5.86078 101.302 38.1031)" fill="#E1F6E3"/>
<path d="M103.849 37.1995L103.529 37.46C101.816 38.8543 100.103 40.2487 98.389 41.6433C98.0424 41.9254 97.6639 41.9561 97.3105 41.7463C96.9703 41.5416 96.8058 41.2139 96.896 40.8473C96.9704 40.5834 97.1227 40.3481 97.3329 40.1721C98.9925 38.7966 100.67 37.4425 102.341 36.082L102.658 35.8243C102.567 35.7989 102.475 35.7784 102.381 35.7629C101.774 35.6978 101.165 35.6412 100.558 35.5712C100.078 35.5164 99.7796 35.1512 99.8205 34.6903C99.8657 34.1877 100.201 33.882 100.705 33.9305C102.104 34.065 103.502 34.2074 104.898 34.3577C105.462 34.4189 105.749 34.7568 105.702 35.3164C105.586 36.7055 105.458 38.0937 105.321 39.4809C105.271 39.9894 104.909 40.2544 104.405 40.1985C103.928 40.1451 103.646 39.8067 103.683 39.3114C103.727 38.7237 103.786 38.1369 103.838 37.5494C103.845 37.4568 103.843 37.365 103.849 37.1995Z" fill="#04CE00"/>
</g>
<defs>
<filter id="filter0_d_77_749" x="-0.999939" y="-1" width="192.875" height="85.0022" filterUnits="userSpaceOnUse" color-interpolation-filters="sRGB">
<feFlood flood-opacity="0" result="BackgroundImageFix"/>
<feColorMatrix in="SourceAlpha" type="matrix" values="0 0 0 0 0 0 0 0 0 0 0 0 0 0 0 0 0 0 127 0" result="hardAlpha"/>
<feOffset dy="4"/>
<feGaussianBlur stdDeviation="4"/>
<feComposite in2="hardAlpha" operator="out"/>
<feColorMatrix type="matrix" values="0 0 0 0 0.792342 0 0 0 0 0.797855 0 0 0 0 0.888822 0 0 0 0.47 0"/>
<feBlend mode="normal" in2="BackgroundImageFix" result="effect1_dropShadow_77_749"/>
<feBlend mode="normal" in="SourceGraphic" in2="effect1_dropShadow_77_749" result="shape"/>
</filter>
</defs>
</svg>
