<svg width="231" height="103" viewBox="0 0 231 103" fill="none" xmlns="http://www.w3.org/2000/svg">
<rect x="6.49628" y="0.802246" width="224.961" height="84.9774" rx="15.0594" transform="rotate(4.24339 6.49628 0.802246)" fill="white"/>
<rect x="15.5924" y="11.3567" width="42.6933" height="42.6933" rx="11.0621" transform="rotate(4.24339 15.5924 11.3567)" fill="#6C78FF"/>
<g clip-path="url(#clip0_77_697)">
<path d="M41.1965 29.1432L30.2199 28.3287C29.6905 28.2895 29.1673 28.4621 28.7653 28.8086C28.3632 29.1551 28.1153 29.6471 28.076 30.1764L27.5577 37.1616C27.5185 37.6909 27.6911 38.2141 28.0376 38.6162C28.3841 39.0182 28.8761 39.2662 29.4054 39.3054L40.3821 40.1199C40.9114 40.1591 41.4346 39.9865 41.8367 39.64C42.2387 39.2935 42.4867 38.8015 42.5259 38.2722L43.0442 31.287C43.0835 30.7577 42.9109 30.2345 42.5644 29.8324C42.2179 29.4304 41.7258 29.1825 41.1965 29.1432ZM32.8433 33.5403L37.8327 33.9105C37.965 33.9203 38.088 33.9823 38.1747 34.0828C38.2613 34.1833 38.3044 34.3141 38.2946 34.4464C38.2848 34.5788 38.2228 34.7018 38.1223 34.7884C38.0218 34.875 37.891 34.9182 37.7587 34.9083L32.7693 34.5381C32.6369 34.5283 32.5139 34.4663 32.4273 34.3658C32.3407 34.2653 32.2975 34.1345 32.3073 34.0022C32.3172 33.8699 32.3791 33.7469 32.4796 33.6602C32.5802 33.5736 32.711 33.5304 32.8433 33.5403ZM39.5693 37.5511L30.5884 36.8848C30.4561 36.875 30.3331 36.813 30.2464 36.7125C30.1598 36.6119 30.1167 36.4811 30.1265 36.3488C30.1363 36.2165 30.1983 36.0935 30.2988 36.0068C30.3993 35.9202 30.5301 35.8771 30.6624 35.8869L39.6434 36.5532C39.7757 36.5631 39.8987 36.625 39.9853 36.7256C40.072 36.8261 40.1151 36.9569 40.1053 37.0892C40.0955 37.2215 40.0335 37.3445 39.933 37.4312C39.8325 37.5178 39.7017 37.5609 39.5693 37.5511Z" fill="white"/>
</g>
<path d="M70.3938 52.1366L71.6881 34.6913L72.8057 34.7742L71.5113 52.2195L70.3938 52.1366ZM74.2252 40.6696C74.2115 40.1158 74.0092 39.6714 73.6184 39.3363C73.2275 39.0013 72.6778 38.8075 71.9691 38.7549C71.4875 38.7191 71.0758 38.7571 70.7341 38.8688C70.3927 38.9759 70.1246 39.1411 69.9299 39.3642C69.7397 39.5876 69.6335 39.8492 69.6113 40.1491C69.5837 40.3983 69.6197 40.6202 69.7195 40.8149C69.8238 41.0099 69.9731 41.1832 70.1674 41.3346C70.3621 41.4815 70.5897 41.6149 70.8503 41.7347C71.1113 41.85 71.3914 41.953 71.6908 42.0438L72.9224 42.4366C73.5211 42.6181 74.0664 42.8413 74.5583 43.1062C75.0503 43.3711 75.4702 43.6832 75.8182 44.0425C76.1661 44.4018 76.4256 44.8139 76.5966 45.2788C76.7722 45.7441 76.8408 46.2676 76.8021 46.8495C76.7342 47.7032 76.4612 48.4275 75.9831 49.0225C75.5099 49.6132 74.8561 50.0512 74.0219 50.3364C73.1925 50.6175 72.2099 50.7159 71.0741 50.6316C69.9475 50.548 68.979 50.3026 68.1687 49.8953C67.3629 49.4883 66.7512 48.929 66.3335 48.2174C65.9207 47.5016 65.7401 46.6408 65.7919 45.6351L68.6472 45.847C68.6443 46.3173 68.7493 46.7179 68.9623 47.0489C69.1802 47.3757 69.4831 47.6334 69.8711 47.8221C70.2639 48.0066 70.7148 48.1177 71.2236 48.1554C71.7233 48.1925 72.1626 48.152 72.5414 48.0339C72.9247 47.9162 73.2282 47.7354 73.4518 47.4916C73.6755 47.2479 73.7998 46.9579 73.8247 46.6217C73.848 46.3082 73.7744 46.0378 73.604 45.8105C73.4381 45.5835 73.1835 45.3819 72.8403 45.2056C72.5016 45.0298 72.0824 44.8616 71.5827 44.7012L70.0913 44.2068C68.9359 43.8333 68.0401 43.3169 67.4038 42.6576C66.7675 41.9982 66.4899 41.1531 66.571 40.1222C66.6291 39.2768 66.9088 38.5553 67.4099 37.9575C67.9156 37.3601 68.5814 36.9138 69.4073 36.6188C70.2331 36.3238 71.1549 36.214 72.1725 36.2895C73.2083 36.3664 74.0993 36.6106 74.8453 37.0223C75.5959 37.4343 76.1635 37.972 76.5482 38.6355C76.933 39.2991 77.1013 40.047 77.0533 40.8794L74.2252 40.6696ZM85.5166 37.4715L84.4811 51.4277L81.5304 51.2087L82.3581 40.0533L82.2763 40.0473L78.9316 41.8136L79.1258 39.1968L82.7431 37.2657L85.5166 37.4715ZM87.7981 51.6738L87.9558 49.5476L93.2649 45.3164C93.7178 44.9389 94.0994 44.5972 94.4099 44.2913C94.7249 43.9858 94.969 43.6819 95.1422 43.3795C95.3157 43.0726 95.4161 42.7352 95.4434 42.3672C95.4738 41.9583 95.4068 41.5993 95.2424 41.2902C95.0784 40.9766 94.841 40.7283 94.5302 40.5453C94.2198 40.3578 93.8602 40.2489 93.4513 40.2186C93.0243 40.1869 92.6453 40.2456 92.3145 40.3946C91.9837 40.5437 91.72 40.7731 91.5234 41.0828C91.3268 41.3926 91.212 41.77 91.179 42.2153L88.3782 42.0074C88.446 41.0943 88.7115 40.3169 89.1748 39.6752C89.6381 39.0335 90.256 38.5563 91.0283 38.2436C91.8007 37.9309 92.673 37.8106 93.6452 37.8827C94.6446 37.9569 95.5015 38.1986 96.2157 38.6079C96.9348 39.013 97.478 39.5421 97.8452 40.1952C98.2124 40.8482 98.3662 41.5768 98.3066 42.3809C98.2675 42.9079 98.1244 43.4204 97.8773 43.9182C97.6348 44.4164 97.2268 44.9594 96.6533 45.5473C96.0801 46.1306 95.2819 46.8228 94.2586 47.6239L92.0729 49.4694L92.0658 49.5648L97.9263 49.9996L97.7473 52.412L87.7981 51.6738ZM103.209 50.8987L103.079 51.6427C102.975 52.238 102.817 52.827 102.605 53.4096C102.397 53.9972 102.184 54.5273 101.966 54.9999C101.753 55.4729 101.582 55.8439 101.452 56.1129L99.5712 55.9733C99.6593 55.7104 99.7802 55.3425 99.9341 54.8697C100.088 54.4014 100.239 53.8736 100.387 53.2862C100.536 52.6988 100.647 52.0972 100.72 51.4814L100.811 50.7207L103.209 50.8987ZM110.325 53.537C109.275 53.4592 108.354 53.2195 107.562 52.8181C106.774 52.4125 106.171 51.895 105.752 51.2654C105.332 50.6359 105.151 49.9441 105.207 49.19C105.25 48.6084 105.421 48.0844 105.721 47.6179C106.025 47.1471 106.419 46.7675 106.902 46.479C107.385 46.1859 107.914 46.015 108.488 45.9663L108.495 45.8709C107.761 45.6657 107.184 45.2597 106.763 44.6529C106.342 44.0415 106.16 43.3542 106.217 42.591C106.271 41.8687 106.53 41.2415 106.994 40.7095C107.459 40.173 108.071 39.7707 108.831 39.5028C109.596 39.2306 110.448 39.1295 111.389 39.1992C112.329 39.269 113.155 39.4947 113.867 39.8765C114.583 40.2585 115.131 40.7491 115.512 41.3484C115.892 41.943 116.058 42.5995 116.01 43.3176C115.948 44.085 115.662 44.7376 115.152 45.2753C114.641 45.813 114.015 46.1297 113.272 46.2253L113.265 46.3207C113.817 46.453 114.308 46.6996 114.738 47.0604C115.173 47.417 115.507 47.8506 115.738 48.3611C115.975 48.8674 116.074 49.4115 116.035 49.9934C115.975 50.7472 115.691 51.4045 115.183 51.9652C114.675 52.526 114 52.9487 113.157 53.2333C112.318 53.5136 111.374 53.6149 110.325 53.537ZM110.486 51.37C110.953 51.4047 111.369 51.351 111.731 51.2089C112.093 51.0622 112.384 50.8462 112.601 50.5608C112.824 50.2713 112.95 49.9289 112.979 49.5337C113.009 49.1293 112.933 48.7651 112.752 48.441C112.57 48.1124 112.311 47.8465 111.975 47.6434C111.639 47.4357 111.243 47.315 110.789 47.2813C110.339 47.2479 109.93 47.3089 109.562 47.4644C109.195 47.6153 108.897 47.8399 108.67 48.1382C108.447 48.4322 108.32 48.7815 108.29 49.1858C108.261 49.581 108.333 49.9381 108.506 50.257C108.679 50.5713 108.936 50.8279 109.278 51.0269C109.619 51.2212 110.022 51.3356 110.486 51.37ZM110.948 45.1347C111.339 45.1637 111.692 45.11 112.008 44.9736C112.325 44.8371 112.58 44.6345 112.773 44.3656C112.967 44.0968 113.077 43.7783 113.104 43.4104C113.131 43.0469 113.069 42.7225 112.916 42.4371C112.764 42.1472 112.544 41.9139 112.255 41.7371C111.967 41.5559 111.623 41.4504 111.224 41.4208C110.828 41.3914 110.473 41.445 110.157 41.5814C109.841 41.7133 109.586 41.9114 109.393 42.1757C109.205 42.4358 109.097 42.7476 109.07 43.111C109.043 43.479 109.105 43.8103 109.257 44.1047C109.408 44.3992 109.631 44.6372 109.923 44.8188C110.216 45.0004 110.557 45.1057 110.948 45.1347ZM118.372 53.9422L125.007 42.9231L125.014 42.8277L118.274 42.3276L118.453 39.9152L128.245 40.6418L128.064 43.0882L121.418 54.1682L118.372 53.9422ZM134.128 55.3032C133.165 55.2317 132.319 54.9908 131.591 54.5805C130.868 54.1705 130.309 53.638 129.915 52.9829C129.52 52.3278 129.344 51.5975 129.385 50.7921L132.247 51.0044C132.239 51.5474 132.434 52.0027 132.831 52.3702C133.229 52.7377 133.718 52.9431 134.3 52.9862C134.763 53.0206 135.18 52.9487 135.549 52.7706C135.924 52.5882 136.224 52.3205 136.452 51.9673C136.684 51.61 136.818 51.1905 136.853 50.7089C136.89 50.2183 136.817 49.7789 136.636 49.3909C136.459 49.0032 136.197 48.6914 135.849 48.4554C135.501 48.2195 135.093 48.0819 134.626 48.0426C134.217 48.0123 133.813 48.0668 133.414 48.2063C133.02 48.3461 132.706 48.5534 132.471 48.8283L129.882 48.1635L131.089 40.8528L139.621 41.4858L139.442 43.8982L133.343 43.4456L132.722 46.9147L132.804 46.9208C133.075 46.5937 133.466 46.335 133.978 46.1446C134.49 45.9542 135.053 45.8817 135.666 45.9272C136.507 45.9896 137.242 46.2428 137.871 46.6869C138.501 47.131 138.981 47.7125 139.311 48.4314C139.642 49.1457 139.772 49.9502 139.701 50.8448C139.635 51.7856 139.355 52.6053 138.86 53.304C138.37 53.9986 137.717 54.5256 136.9 54.8853C136.088 55.2407 135.164 55.38 134.128 55.3032Z" fill="#1E1B39"/>
<path d="M67.4151 25.2291L68.0154 17.1386L70.7491 17.3414C71.3812 17.3883 71.892 17.5348 72.2816 17.7808C72.6713 18.0242 72.9498 18.3402 73.1169 18.7286C73.284 19.117 73.3499 19.5496 73.3146 20.0263C73.2792 20.503 73.1504 20.9185 72.9281 21.2727C72.7059 21.627 72.3855 21.8945 71.9669 22.0753C71.5485 22.2534 71.0259 22.3193 70.3991 22.2728L68.1869 22.1086L68.2525 21.2237L70.4332 21.3855C70.8651 21.4176 71.2174 21.3801 71.4902 21.2733C71.7655 21.1666 71.9711 21.0018 72.1068 20.7788C72.2453 20.5534 72.3266 20.2787 72.3507 19.9548C72.3747 19.6308 72.3351 19.3432 72.2319 19.0919C72.1288 18.8407 71.9491 18.6393 71.6929 18.4879C71.4368 18.3338 71.0902 18.2406 70.653 18.2082L68.9306 18.0804L68.3948 25.3018L67.4151 25.2291ZM71.493 21.8773L73.2144 25.6594L72.0766 25.575L70.3869 21.7952L71.493 21.8773ZM76.874 26.058C76.2893 26.0147 75.7946 25.8482 75.3897 25.5586C74.9877 25.2666 74.6894 24.8791 74.4948 24.3959C74.3031 23.9103 74.2303 23.3568 74.2764 22.7352C74.3226 22.1137 74.4764 21.5743 74.7381 21.117C75.0026 20.6573 75.3488 20.3096 75.7768 20.0739C76.2076 19.8358 76.6968 19.737 77.2446 19.7777C77.5607 19.8011 77.8689 19.877 78.1692 20.0052C78.4695 20.1334 78.7373 20.3254 78.9725 20.5812C79.208 20.8343 79.3864 21.16 79.5078 21.5583C79.6292 21.9566 79.6689 22.4389 79.6268 23.0051L79.5975 23.4001L74.9202 23.0531L74.98 22.2472L78.7092 22.5239C78.7346 22.1815 78.6888 21.8709 78.5718 21.5921C78.4574 21.3135 78.2809 21.0873 78.0422 20.9133C77.8062 20.7396 77.5196 20.6402 77.1825 20.6152C76.8112 20.5876 76.483 20.656 76.1981 20.8202C75.916 20.982 75.6916 21.2037 75.5251 21.4853C75.3585 21.7668 75.2629 22.0749 75.2381 22.4093L75.1982 22.9466C75.1642 23.4049 75.2144 23.7992 75.3488 24.1296C75.486 24.4575 75.6906 24.715 75.9627 24.902C76.2351 25.0864 76.5595 25.1926 76.9361 25.2205C77.1811 25.2387 77.4048 25.2209 77.6074 25.1671C77.8129 25.1108 77.9932 25.0183 78.1484 24.8894C78.3038 24.758 78.4288 24.5898 78.5235 24.385L79.4054 24.7047C79.2879 25.0031 79.1087 25.2599 78.8676 25.4751C78.6267 25.6876 78.3369 25.8462 77.9981 25.9508C77.6596 26.0528 77.2848 26.0885 76.874 26.058ZM86.0414 20.5098L83.3473 26.4112L82.3992 26.3409L80.6056 20.1065L81.6169 20.1815L82.9331 25.1412L82.9963 25.1459L85.0301 20.4348L86.0414 20.5098ZM89.1392 26.9681C88.5545 26.9247 88.0598 26.7582 87.6549 26.4687C87.2528 26.1767 86.9546 25.7891 86.76 25.306C86.5683 24.8204 86.4955 24.2668 86.5416 23.6453C86.5877 23.0237 86.7416 22.4843 87.0033 22.0271C87.2678 21.5674 87.614 21.2197 88.042 20.984C88.4728 20.7458 88.962 20.6471 89.5098 20.6877C89.8259 20.7112 90.1341 20.787 90.4344 20.9152C90.7347 21.0434 91.0025 21.2354 91.2377 21.4912C91.4732 21.7444 91.6516 22.0701 91.773 22.4684C91.8944 22.8666 91.934 23.3489 91.892 23.9151L91.8627 24.3102L87.1854 23.9631L87.2452 23.1572L90.9744 23.4339C90.9998 23.0916 90.954 22.781 90.837 22.5022C90.7226 22.2236 90.5461 21.9973 90.3074 21.8234C90.0714 21.6496 89.7848 21.5502 89.4477 21.5252C89.0764 21.4977 88.7482 21.566 88.4633 21.7302C88.1812 21.892 87.9568 22.1137 87.7903 22.3953C87.6237 22.6769 87.5281 22.9849 87.5033 23.3194L87.4634 23.8566C87.4294 24.3149 87.4796 24.7092 87.6139 25.0396C87.7511 25.3676 87.9558 25.6251 88.2279 25.8121C88.5003 25.9965 88.8247 26.1026 89.2013 26.1306C89.4463 26.1488 89.67 26.1309 89.8726 26.0771C90.0781 26.0209 90.2584 25.9283 90.4136 25.7995C90.569 25.668 90.694 25.4999 90.7887 25.295L91.6706 25.6147C91.5531 25.9132 91.3739 26.17 91.1328 26.3851C90.8919 26.5976 90.6021 26.7562 90.2633 26.8608C89.9248 26.9628 89.55 26.9986 89.1392 26.9681ZM94.2824 23.5523L94.0116 27.2025L93.0793 27.1333L93.5295 21.0654L94.4302 21.1322L94.3599 22.0803L94.4389 22.0862C94.6039 21.7886 94.8383 21.5571 95.1418 21.3916C95.4456 21.2235 95.8266 21.1564 96.2849 21.1904C96.6957 21.2209 97.049 21.3318 97.3446 21.5233C97.6404 21.712 97.8613 21.9826 98.0073 22.3351C98.1535 22.6849 98.2074 23.1179 98.1691 23.6341L97.883 27.4897L96.9507 27.4206L97.2321 23.6281C97.2675 23.1514 97.1713 22.7709 96.9434 22.4865C96.7158 22.1995 96.386 22.04 95.9541 22.008C95.6565 21.9859 95.3857 22.0307 95.1418 22.1423C94.9004 22.2542 94.7034 22.4289 94.5507 22.6665C94.398 22.9041 94.3086 23.1994 94.2824 23.5523ZM103.595 25.419L103.861 21.832L104.793 21.9011L104.343 27.9691L103.411 27.8999L103.487 26.8728L103.424 26.8681C103.259 27.1657 103.018 27.4113 102.702 27.605C102.386 27.796 101.998 27.8745 101.54 27.8405C101.161 27.8124 100.83 27.7044 100.547 27.5166C100.265 27.3262 100.052 27.0562 99.9084 26.7065C99.765 26.3543 99.7125 25.9201 99.7508 25.4039L100.037 21.5482L100.969 21.6174L100.688 25.4099C100.655 25.8523 100.753 26.2144 100.981 26.4961C101.211 26.7781 101.52 26.9334 101.907 26.9621C102.139 26.9793 102.379 26.9375 102.628 26.8368C102.879 26.7363 103.095 26.5696 103.276 26.3368C103.461 26.1042 103.567 25.7982 103.595 25.419ZM108.585 28.4109C108.001 28.3675 107.506 28.2011 107.101 27.9115C106.699 27.6195 106.401 27.232 106.206 26.7488C106.014 26.2632 105.942 25.7096 105.988 25.0881C106.034 24.4666 106.188 23.9272 106.449 23.4699C106.714 23.0102 107.06 22.6625 107.488 22.4268C107.919 22.1887 108.408 22.0899 108.956 22.1306C109.272 22.154 109.58 22.2298 109.881 22.358C110.181 22.4863 110.449 22.6783 110.684 22.934C110.919 23.1872 111.098 23.5129 111.219 23.9112C111.341 24.3095 111.38 24.7917 111.338 25.358L111.309 25.753L106.632 25.406L106.691 24.6001L110.421 24.8768C110.446 24.5344 110.4 24.2238 110.283 23.945C110.169 23.6664 109.992 23.4402 109.754 23.2662C109.518 23.0925 109.231 22.9931 108.894 22.9681C108.523 22.9405 108.194 23.0088 107.909 23.1731C107.627 23.3349 107.403 23.5565 107.236 23.8381C107.07 24.1197 106.974 24.4278 106.949 24.7622L106.91 25.2995C106.876 25.7577 106.926 26.1521 107.06 26.4825C107.197 26.8104 107.402 27.0679 107.674 27.2549C107.946 27.4393 108.271 27.5455 108.647 27.5734C108.892 27.5916 109.116 27.5738 109.319 27.52C109.524 27.4637 109.705 27.3712 109.86 27.2423C110.015 27.1109 110.14 26.9427 110.235 26.7379L111.117 27.0575C110.999 27.356 110.82 27.6128 110.579 27.828C110.338 28.0405 110.048 28.199 109.709 28.3037C109.371 28.4057 108.996 28.4414 108.585 28.4109Z" fill="#9291A5"/>
<path d="M81.1927 72.0269C81.1748 71.6182 81.0036 71.2893 80.679 71.0401C80.3545 70.7909 79.9443 70.6479 79.4486 70.6111C79.0861 70.5842 78.7645 70.6193 78.484 70.7164C78.2061 70.8137 77.9835 70.9593 77.8164 71.1533C77.6519 71.3475 77.56 71.5751 77.5406 71.8364C77.5244 72.0549 77.5624 72.2467 77.6547 72.4116C77.7498 72.5741 77.8762 72.7135 78.0337 72.8297C78.1914 72.9433 78.3585 73.0401 78.5348 73.1202C78.7113 73.1976 78.874 73.2619 79.023 73.3132L79.8379 73.5988C80.047 73.6705 80.2785 73.7654 80.5324 73.8834C80.7889 74.0016 81.0308 74.1549 81.2581 74.3433C81.4881 74.5292 81.672 74.76 81.8097 75.0355C81.9474 75.311 82.002 75.6407 81.9735 76.0245C81.9407 76.467 81.7951 76.8582 81.5367 77.1981C81.281 77.5383 80.9241 77.7972 80.466 77.975C80.0106 78.1529 79.4684 78.2185 78.8393 78.1719C78.253 78.1284 77.7522 77.9961 77.3371 77.775C76.9247 77.5541 76.6085 77.2653 76.3884 76.9086C76.1709 76.5521 76.0628 76.1488 76.0641 75.6986L77.0876 75.7746C77.0913 76.0857 77.1763 76.3493 77.3425 76.5653C77.5115 76.7789 77.7324 76.9453 78.0049 77.0647C78.2803 77.1816 78.5806 77.2522 78.9058 77.2763C79.2843 77.3044 79.6287 77.2683 79.9389 77.168C80.2494 77.0651 80.5008 76.9096 80.6932 76.7014C80.8857 76.4905 80.993 76.2359 81.0152 75.9373C81.0353 75.6655 80.9758 75.4386 80.8365 75.2568C80.6972 75.0749 80.5076 74.9215 80.2677 74.7965C80.0277 74.6715 79.7667 74.5583 79.4848 74.457L78.4987 74.0944C77.8726 73.863 77.3857 73.5629 77.0378 73.194C76.69 72.8252 76.5366 72.3649 76.5775 71.8131C76.6115 71.3547 76.7651 70.9641 77.0383 70.6413C77.3144 70.3161 77.67 70.0744 78.1051 69.9164C78.5432 69.756 79.0234 69.6951 79.5458 69.7339C80.0736 69.7731 80.5356 69.9025 80.9321 70.1222C81.3287 70.3392 81.6349 70.6192 81.8506 70.9622C82.0691 71.3054 82.1696 71.684 82.1523 72.0981L81.1927 72.0269ZM87.3673 76.1353L87.6366 72.505L88.5802 72.5751L88.1245 78.7161L87.181 78.6461L87.2581 77.6066L87.1941 77.6018C87.0271 77.903 86.7835 78.1516 86.4634 78.3476C86.1435 78.5409 85.7517 78.6204 85.288 78.586C84.9041 78.5575 84.5692 78.4483 84.2831 78.2582C83.9973 78.0655 83.7817 77.7922 83.6364 77.4384C83.4914 77.0819 83.4382 76.6424 83.477 76.12L83.7665 72.2179L84.71 72.2879L84.4253 76.126C84.392 76.5738 84.4908 76.9403 84.7216 77.2254C84.955 77.5107 85.2676 77.6679 85.6594 77.697C85.894 77.7144 86.137 77.6721 86.3884 77.5702C86.6426 77.4684 86.8614 77.2998 87.0451 77.0641C87.2314 76.8287 87.3388 76.5191 87.3673 76.1353ZM89.9806 78.8538L90.5881 70.6658L91.5317 70.7358L91.3074 73.7583L91.3874 73.7642C91.4646 73.6628 91.5706 73.5339 91.7055 73.3778C91.8432 73.2192 92.0329 73.0832 92.2745 72.9698C92.5189 72.8539 92.841 72.8108 93.2408 72.8405C93.7579 72.8788 94.2041 73.0419 94.5794 73.3297C94.9547 73.6175 95.2353 74.0069 95.4214 74.4977C95.6074 74.9886 95.6765 75.5565 95.6286 76.2015C95.5804 76.8519 95.4279 77.4074 95.1713 77.8681C94.9149 78.3261 94.5811 78.6712 94.1699 78.9033C93.7589 79.1328 93.2975 79.2285 92.7857 79.1906C92.3913 79.1613 92.0803 79.0726 91.8527 78.9244C91.6254 78.7735 91.454 78.6093 91.3385 78.4319C91.2232 78.2519 91.1351 78.1033 91.0741 77.9862L90.9622 77.9779L90.8922 78.9214L89.9806 78.8538ZM91.136 75.8521C91.1016 76.3159 91.1392 76.7301 91.2488 77.0946C91.3586 77.4565 91.5367 77.7471 91.7831 77.9664C92.0297 78.183 92.3422 78.3054 92.7207 78.3335C93.1152 78.3627 93.4521 78.2832 93.7314 78.0949C94.0135 77.9041 94.2344 77.6364 94.394 77.2918C94.5564 76.9447 94.6538 76.5526 94.6863 76.1155C94.7183 75.6837 94.6805 75.2896 94.573 74.9333C94.4683 74.5744 94.2902 74.2838 94.0387 74.0615C93.79 73.8366 93.4658 73.7094 93.066 73.6797C92.6822 73.6513 92.3524 73.7246 92.0768 73.8998C91.8014 74.0723 91.5841 74.3269 91.4252 74.6635C91.2664 74.9975 91.17 75.3937 91.136 75.8521ZM101.549 74.9202L100.683 75.0972C100.641 74.952 100.572 74.8089 100.478 74.6679C100.387 74.5244 100.257 74.4022 100.087 74.3012C99.9178 74.2002 99.6958 74.1395 99.4213 74.1191C99.0455 74.0912 98.7258 74.1546 98.4624 74.3093C98.2019 74.4615 98.0619 74.6695 98.0423 74.9334C98.0249 75.1679 98.0964 75.3595 98.2569 75.5081C98.4174 75.6567 98.6755 75.7897 99.0313 75.9073L99.9263 76.1988C100.465 76.3728 100.859 76.607 101.108 76.9016C101.357 77.1934 101.466 77.5539 101.434 77.983C101.408 78.3348 101.283 78.6418 101.06 78.904C100.84 79.1664 100.544 79.3642 100.172 79.4974C99.8003 79.6306 99.3759 79.6795 98.8988 79.6441C98.2724 79.5977 97.7641 79.4233 97.3738 79.1209C96.9835 78.8186 96.7531 78.4022 96.6826 77.8717L97.5947 77.7142C97.6555 78.0511 97.7984 78.3109 98.0233 78.4938C98.251 78.6768 98.558 78.7827 98.9445 78.8113C99.3843 78.844 99.7404 78.7766 100.013 78.6092C100.288 78.4393 100.435 78.2225 100.455 77.9586C100.471 77.7454 100.409 77.5613 100.271 77.4063C100.132 77.2486 99.9113 77.1223 99.6075 77.0274L98.6018 76.7116C98.0493 76.5366 97.6515 76.2993 97.4084 75.9999C97.1681 75.698 97.0637 75.3351 97.0952 74.9113C97.1209 74.5649 97.2409 74.2656 97.4553 74.0135C97.6723 73.7615 97.9557 73.5722 98.3054 73.4454C98.6579 73.3188 99.05 73.2715 99.4818 73.3035C100.089 73.3486 100.557 73.5173 100.883 73.8095C101.213 74.102 101.435 74.4722 101.549 74.9202ZM105.213 80.1126C104.637 80.0699 104.151 79.8972 103.756 79.5944C103.36 79.2917 103.068 78.8935 102.88 78.3998C102.691 77.9061 102.62 77.3527 102.665 76.7397C102.711 76.116 102.867 75.5741 103.131 75.114C103.399 74.6514 103.749 74.3009 104.182 74.0623C104.618 73.8213 105.113 73.7214 105.668 73.7625C106.1 73.7945 106.483 73.9034 106.817 74.089C107.152 74.2746 107.419 74.5196 107.619 74.8239C107.819 75.1281 107.931 75.4742 107.956 75.8619L107.013 75.7919C106.961 75.5067 106.82 75.247 106.588 75.0127C106.359 74.7759 106.037 74.6421 105.621 74.6113C105.253 74.584 104.923 74.656 104.632 74.8273C104.343 74.9962 104.109 75.2482 103.929 75.5832C103.751 75.9158 103.645 76.3139 103.611 76.7777C103.576 77.2521 103.62 77.6708 103.743 78.0337C103.869 78.3968 104.062 78.6858 104.322 78.9008C104.584 79.1159 104.902 79.2373 105.276 79.265C105.521 79.2832 105.747 79.2571 105.953 79.1866C106.159 79.1162 106.337 79.0061 106.488 78.8565C106.638 78.7068 106.751 78.5222 106.826 78.3027L107.77 78.3727C107.69 78.7312 107.534 79.048 107.301 79.3229C107.072 79.5953 106.779 79.8041 106.423 79.9491C106.069 80.0917 105.666 80.1462 105.213 80.1126ZM109.016 80.2662L109.472 74.1252L110.384 74.1928L110.315 75.1203L110.379 75.1251C110.513 74.8295 110.734 74.598 111.041 74.4305C111.349 74.2631 111.686 74.193 112.054 74.2202C112.123 74.2254 112.21 74.2331 112.313 74.2435C112.417 74.2539 112.496 74.2637 112.548 74.273L112.477 75.2326C112.446 75.2222 112.373 75.2048 112.26 75.1803C112.149 75.1533 112.032 75.1352 111.906 75.1259C111.608 75.1037 111.337 75.1466 111.093 75.2545C110.852 75.3599 110.655 75.5168 110.503 75.7253C110.354 75.9313 110.269 76.1729 110.248 76.4501L109.96 80.3362L109.016 80.2662ZM113.205 80.577L113.661 74.436L114.605 74.506L114.149 80.647L113.205 80.577ZM114.217 73.4481C114.033 73.4344 113.879 73.36 113.755 73.2249C113.634 73.0899 113.579 72.9345 113.592 72.7585C113.606 72.5826 113.682 72.4369 113.822 72.3213C113.964 72.2059 114.128 72.155 114.312 72.1687C114.496 72.1823 114.648 72.2566 114.769 72.3916C114.893 72.5268 114.949 72.6823 114.936 72.8582C114.923 73.0341 114.845 73.1798 114.702 73.2952C114.562 73.4107 114.401 73.4617 114.217 73.4481ZM115.706 83.0781L116.333 74.6342L117.244 74.7018L117.172 75.6774L117.284 75.6857C117.361 75.5842 117.467 75.4554 117.602 75.2992C117.74 75.1406 117.929 75.0046 118.171 74.8912C118.415 74.7753 118.737 74.7322 119.137 74.7619C119.654 74.8003 120.101 74.9633 120.476 75.2512C120.851 75.539 121.132 75.9283 121.318 76.4191C121.504 76.91 121.573 77.4779 121.525 78.123C121.477 78.7733 121.324 79.3288 121.068 79.7895C120.811 80.2475 120.477 80.5926 120.066 80.8247C119.655 81.0542 119.194 81.15 118.682 81.112C118.288 81.0827 117.977 80.994 117.749 80.8458C117.522 80.6949 117.35 80.5308 117.235 80.3534C117.12 80.1733 117.032 80.0247 116.971 79.9076L116.891 79.9017L116.65 83.1481L115.706 83.0781ZM117.032 77.7735C116.998 78.2373 117.036 78.6515 117.145 79.0161C117.255 79.378 117.433 79.6686 117.68 79.8879C117.926 80.1045 118.239 80.2268 118.617 80.2549C119.012 80.2842 119.348 80.2047 119.628 80.0163C119.91 79.8255 120.131 79.5578 120.29 79.2132C120.453 78.8662 120.55 78.4741 120.583 78.0369C120.615 77.6052 120.577 77.2111 120.469 76.8547C120.365 76.4958 120.187 76.2052 119.935 75.9829C119.686 75.7581 119.362 75.6308 118.962 75.6012C118.579 75.5727 118.249 75.6461 117.973 75.8212C117.698 75.9938 117.481 76.2483 117.322 76.5849C117.163 76.9189 117.066 77.3151 117.032 77.7735ZM125.864 75.3414L125.805 76.141L122.622 75.9049L122.682 75.1053L125.864 75.3414ZM123.718 73.7028L124.662 73.7728L124.228 79.626C124.208 79.8925 124.232 80.0953 124.299 80.2343C124.369 80.3708 124.464 80.4663 124.583 80.5207C124.705 80.5726 124.836 80.6038 124.974 80.614C125.078 80.6217 125.164 80.6227 125.231 80.617C125.299 80.6086 125.353 80.6019 125.394 80.5969L125.523 81.4587C125.457 81.478 125.366 81.4953 125.249 81.5108C125.133 81.529 124.987 81.5315 124.811 81.5185C124.544 81.4987 124.287 81.422 124.04 81.2884C123.795 81.155 123.598 80.9648 123.447 80.7178C123.299 80.471 123.239 80.169 123.265 79.8118L123.718 73.7028ZM126.828 81.5877L127.283 75.4467L128.227 75.5167L127.771 81.6577L126.828 81.5877ZM127.839 74.4588C127.655 74.4452 127.501 74.3708 127.377 74.2356C127.256 74.1006 127.202 73.9452 127.215 73.7693C127.228 73.5934 127.304 73.4476 127.444 73.332C127.587 73.2166 127.75 73.1658 127.934 73.1794C128.118 73.1931 128.27 73.2674 128.392 73.4023C128.516 73.5375 128.571 73.693 128.558 73.8689C128.545 74.0449 128.467 74.1905 128.325 74.3059C128.185 74.4215 128.023 74.4724 127.839 74.4588ZM131.985 82.099C131.43 82.0579 130.954 81.8898 130.555 81.5949C130.159 81.3002 129.861 80.9069 129.661 80.4151C129.465 79.9234 129.39 79.3604 129.437 78.7261C129.484 78.0864 129.642 77.5366 129.909 77.0767C130.179 76.617 130.532 76.2706 130.967 76.0376C131.405 75.8048 131.901 75.7089 132.456 75.7501C133.01 75.7912 133.485 75.9591 133.882 76.2539C134.281 76.5488 134.578 76.9434 134.775 77.4377C134.974 77.9322 135.05 78.4993 135.002 79.139C134.955 79.7734 134.797 80.3191 134.527 80.7761C134.26 81.2333 133.907 81.5783 133.469 81.8112C133.034 82.0442 132.539 82.1401 131.985 82.099ZM132.048 81.2514C132.469 81.2827 132.823 81.2004 133.111 81.0047C133.399 80.809 133.621 80.54 133.778 80.1979C133.935 79.8558 134.028 79.4795 134.059 79.069C134.089 78.6585 134.052 78.2712 133.948 77.907C133.844 77.5428 133.664 77.2414 133.408 77.0026C133.152 76.7639 132.814 76.6289 132.393 76.5977C131.972 76.5664 131.617 76.65 131.329 76.8484C131.041 77.0468 130.818 77.3184 130.662 77.6632C130.505 78.008 130.411 78.3856 130.381 78.7961C130.35 79.2065 130.387 79.5925 130.492 79.9541C130.596 80.3156 130.776 80.6144 131.032 80.8504C131.288 81.0865 131.626 81.2202 132.048 81.2514ZM137.435 78.6602L137.161 82.3544L136.217 82.2844L136.673 76.1434L137.584 76.211L137.513 77.1705L137.593 77.1765C137.76 76.8753 137.997 76.641 138.305 76.4735C138.612 76.3033 138.998 76.2355 139.461 76.2699C139.877 76.3007 140.235 76.413 140.534 76.6067C140.833 76.7978 141.057 77.0717 141.205 77.4284C141.352 77.7824 141.407 78.2206 141.368 78.743L141.079 82.6451L140.135 82.5751L140.42 78.737C140.456 78.2545 140.358 77.8694 140.128 77.5816C139.897 77.2912 139.564 77.1297 139.127 77.0973C138.825 77.0749 138.551 77.1203 138.304 77.2333C138.06 77.3465 137.861 77.5233 137.706 77.7638C137.552 78.0042 137.461 78.303 137.435 78.6602ZM147.506 78.3301L146.641 78.5071C146.598 78.3619 146.53 78.2188 146.436 78.0778C146.345 77.9343 146.214 77.8121 146.045 77.7111C145.875 77.6101 145.653 77.5494 145.379 77.529C145.003 77.5012 144.684 77.5645 144.42 77.7192C144.16 77.8714 144.02 78.0794 144 78.3433C143.983 78.5778 144.054 78.7694 144.215 78.918C144.375 79.0666 144.633 79.1997 144.989 79.3172L145.884 79.6087C146.423 79.7827 146.817 80.017 147.066 80.3115C147.315 80.6033 147.424 80.9638 147.392 81.3929C147.366 81.7447 147.241 82.0517 147.018 82.3139C146.797 82.5763 146.501 82.7741 146.13 82.9073C145.758 83.0405 145.334 83.0894 144.856 83.054C144.23 83.0076 143.722 82.8332 143.331 82.5308C142.941 82.2285 142.711 81.8121 142.64 81.2816L143.552 81.1241C143.613 81.461 143.756 81.7208 143.981 81.9037C144.209 82.0867 144.516 82.1926 144.902 82.2213C145.342 82.2539 145.698 82.1865 145.97 82.0191C146.246 81.8493 146.393 81.6324 146.413 81.3685C146.428 81.1553 146.367 80.9712 146.229 80.8162C146.09 80.6585 145.869 80.5322 145.565 80.4373L144.559 80.1215C144.007 79.9465 143.609 79.7093 143.366 79.4098C143.126 79.1079 143.021 78.7451 143.053 78.3213C143.079 77.9748 143.199 77.6755 143.413 77.4234C143.63 77.1715 143.913 76.9821 144.263 76.8553C144.616 76.7287 145.008 76.6814 145.439 76.7134C146.047 76.7585 146.514 76.9272 146.841 77.2194C147.17 77.5119 147.392 77.8821 147.506 78.3301Z" fill="#1E1B39"/>
<rect x="63.133" y="69.6643" width="7.05592" height="7.05592" rx="3.52796" transform="rotate(4.24339 63.133 69.6643)" fill="#6C78FF"/>
<path d="M177.583 86.3826L178.343 76.1476L178.998 76.1963L178.239 86.4313L177.583 86.3826ZM180.322 79.3819C180.304 78.9732 180.133 78.6442 179.808 78.395C179.484 78.1458 179.073 78.0028 178.578 77.966C178.215 77.9391 177.894 77.9742 177.613 78.0713C177.335 78.1686 177.113 78.3143 176.945 78.5082C176.781 78.7024 176.689 78.9301 176.67 79.1913C176.653 79.4098 176.692 79.6016 176.784 79.7666C176.879 79.9291 177.005 80.0684 177.163 80.1847C177.321 80.2982 177.488 80.395 177.664 80.4751C177.84 80.5525 178.003 80.6168 178.152 80.6681L178.967 80.9537C179.176 81.0255 179.408 81.1204 179.661 81.2384C179.918 81.3566 180.16 81.5099 180.387 81.6983C180.617 81.8842 180.801 82.1149 180.939 82.3904C181.077 82.666 181.131 82.9956 181.103 83.3795C181.07 83.8219 180.924 84.2131 180.666 84.5531C180.41 84.8932 180.053 85.1522 179.595 85.3299C179.14 85.5078 178.597 85.5735 177.968 85.5268C177.382 85.4833 176.881 85.351 176.466 85.1299C176.054 84.909 175.738 84.6202 175.517 84.2635C175.3 83.907 175.192 83.5037 175.193 83.0536L176.217 83.1295C176.22 83.4407 176.305 83.7043 176.472 83.9203C176.641 84.1338 176.861 84.3003 177.134 84.4197C177.409 84.5366 177.71 84.6071 178.035 84.6312C178.413 84.6593 178.758 84.6232 179.068 84.523C179.379 84.42 179.63 84.2645 179.822 84.0563C180.015 83.8455 180.122 83.5908 180.144 83.2923C180.164 83.0204 180.105 82.7935 179.966 82.6117C179.826 82.4298 179.637 82.2764 179.397 82.1514C179.157 82.0264 178.896 81.9132 178.614 81.8119L177.628 81.4493C177.002 81.2179 176.515 80.9178 176.167 80.549C175.819 80.1801 175.666 79.7198 175.707 79.1681C175.741 78.7096 175.894 78.319 176.167 77.9962C176.443 77.671 176.799 77.4294 177.234 77.2714C177.672 77.1109 178.153 77.0501 178.675 77.0888C179.203 77.128 179.665 77.2574 180.061 77.4771C180.458 77.6941 180.764 77.9741 180.98 78.3171C181.198 78.6603 181.299 79.0389 181.281 79.4531L180.322 79.3819ZM184.974 86.0145C184.505 85.9797 184.09 85.855 183.728 85.6406C183.366 85.4261 183.084 85.1479 182.881 84.8059C182.679 84.4639 182.582 84.0842 182.592 83.6668L183.551 83.738C183.561 84.1113 183.706 84.4303 183.987 84.695C184.27 84.9572 184.621 85.1038 185.04 85.1349C185.376 85.1598 185.68 85.1033 185.953 84.9654C186.228 84.8278 186.451 84.6272 186.621 84.3637C186.793 84.0978 186.892 83.7903 186.918 83.4411C186.945 83.0839 186.89 82.7596 186.753 82.4681C186.619 82.1741 186.423 81.9357 186.163 81.7529C185.903 81.5702 185.599 81.4645 185.25 81.4359C184.999 81.4147 184.739 81.4342 184.47 81.4946C184.2 81.5523 183.975 81.6362 183.796 81.7461L182.876 81.5654L183.671 77.5721L187.925 77.8877L187.86 78.7673L184.438 78.5134L183.97 80.9068L184.018 80.9104C184.196 80.7896 184.415 80.6946 184.675 80.6254C184.935 80.5563 185.202 80.5319 185.476 80.5522C185.977 80.5894 186.415 80.7425 186.789 81.0114C187.166 81.2779 187.451 81.626 187.644 82.0558C187.84 82.4857 187.918 82.9659 187.879 83.4963C187.84 84.0187 187.688 84.4765 187.423 84.8695C187.161 85.2601 186.817 85.5589 186.392 85.7659C185.967 85.9702 185.494 86.053 184.974 86.0145ZM190.472 85.1842L190.376 85.6112C190.308 85.9117 190.215 86.2318 190.096 86.5713C189.98 86.9111 189.861 87.2306 189.739 87.5298C189.618 87.829 189.519 88.0668 189.441 88.2433L188.722 88.19C188.769 88.0219 188.831 87.8001 188.908 87.5244C188.984 87.2487 189.064 86.9396 189.145 86.5973C189.229 86.2578 189.303 85.9095 189.367 85.5525L189.449 85.1083L190.472 85.1842ZM194.546 86.7246C194.21 86.6944 193.879 86.6055 193.552 86.458C193.226 86.3104 192.935 86.0811 192.679 85.77C192.423 85.4563 192.23 85.044 192.099 84.5331C191.969 84.0195 191.931 83.3843 191.987 82.6273C192.041 81.9023 192.157 81.265 192.334 80.7154C192.512 80.1631 192.744 79.7046 193.031 79.34C193.319 78.9727 193.652 78.7026 194.032 78.5298C194.415 78.3572 194.837 78.288 195.298 78.3222C195.756 78.3562 196.157 78.4784 196.501 78.6888C196.847 78.8968 197.122 79.1717 197.324 79.5137C197.526 79.8557 197.645 80.2411 197.68 80.6698L196.705 80.5974C196.642 80.2229 196.488 79.9047 196.245 79.6427C196.002 79.3808 195.664 79.2338 195.233 79.2018C194.598 79.1547 194.078 79.3935 193.672 79.9181C193.268 80.443 193.028 81.2037 192.952 82.2004L193.016 82.2051C193.182 81.9896 193.373 81.8095 193.591 81.6648C193.811 81.5177 194.049 81.4094 194.306 81.34C194.563 81.2707 194.832 81.2464 195.111 81.2671C195.581 81.302 196.001 81.4511 196.373 81.7145C196.745 81.9753 197.033 82.3196 197.237 82.7474C197.441 83.1726 197.524 83.6491 197.485 84.1769C197.447 84.6833 197.299 85.1387 197.041 85.543C196.784 85.9446 196.441 86.2542 196.012 86.4716C195.586 86.6865 195.097 86.7709 194.546 86.7246ZM194.611 85.845C194.947 85.87 195.254 85.8084 195.533 85.6602C195.815 85.5123 196.044 85.3028 196.219 85.0317C196.397 84.7608 196.499 84.4522 196.525 84.1057C196.55 83.7672 196.497 83.4537 196.366 83.1652C196.237 82.8743 196.047 82.6364 195.795 82.4516C195.547 82.2669 195.254 82.1621 194.918 82.1372C194.665 82.1184 194.425 82.1516 194.199 82.2366C193.973 82.319 193.771 82.4407 193.593 82.6017C193.418 82.7629 193.275 82.952 193.165 83.169C193.056 83.3833 192.992 83.613 192.974 83.8582C192.949 84.1834 193.003 84.4929 193.134 84.7867C193.267 85.0807 193.461 85.3242 193.715 85.5172C193.971 85.7105 194.27 85.8197 194.611 85.845ZM201.571 87.2459C201.236 87.2156 200.905 87.1268 200.578 86.9792C200.251 86.8317 199.96 86.6024 199.705 86.2913C199.449 85.9776 199.256 85.5652 199.125 85.0543C198.994 84.5408 198.957 83.9055 199.013 83.1486C199.067 82.4236 199.182 81.7863 199.36 81.2366C199.538 80.6843 199.77 80.2259 200.057 79.8612C200.344 79.4939 200.678 79.2239 201.058 79.0511C201.44 78.8785 201.862 78.8093 202.323 78.8435C202.782 78.8775 203.183 78.9997 203.526 79.2101C203.873 79.4181 204.147 79.693 204.35 80.035C204.552 80.377 204.671 80.7624 204.706 81.1911L203.73 81.1187C203.667 80.7442 203.514 80.4259 203.271 80.164C203.027 79.9021 202.69 79.7551 202.258 79.723C201.624 79.676 201.104 79.9148 200.697 80.4394C200.294 80.9642 200.054 81.725 199.977 82.7216L200.041 82.7264C200.207 82.5109 200.399 82.3308 200.616 82.1861C200.836 82.039 201.075 81.9307 201.332 81.8613C201.589 81.792 201.857 81.7677 202.137 81.7884C202.606 81.8232 203.027 81.9723 203.398 82.2358C203.77 82.4965 204.058 82.8408 204.262 83.2687C204.467 83.6939 204.549 84.1704 204.51 84.6981C204.473 85.2046 204.325 85.6599 204.067 86.0642C203.809 86.4659 203.466 86.7754 203.037 86.9929C202.611 87.2078 202.123 87.2922 201.571 87.2459ZM201.637 86.3663C201.972 86.3912 202.28 86.3296 202.559 86.1815C202.841 86.0335 203.069 85.824 203.245 85.553C203.423 85.2821 203.525 84.9734 203.551 84.6269C203.576 84.2884 203.523 83.975 203.391 83.6865C203.263 83.3955 203.073 83.1577 202.821 82.9728C202.572 82.7882 202.28 82.6834 201.944 82.6585C201.691 82.6397 201.451 82.6729 201.225 82.7579C200.999 82.8403 200.797 82.962 200.619 83.123C200.444 83.2842 200.301 83.4733 200.191 83.6902C200.081 83.9045 200.017 84.1343 199.999 84.3795C199.975 84.7047 200.028 85.0142 200.159 85.308C200.293 85.602 200.487 85.8455 200.74 86.0385C200.997 86.2317 201.295 86.341 201.637 86.3663ZM205.887 87.4535L205.94 86.7339L208.862 83.9758C209.205 83.6529 209.489 83.3711 209.713 83.1304C209.937 82.8871 210.107 82.6558 210.223 82.4366C210.341 82.2149 210.409 81.9787 210.428 81.7282C210.449 81.4403 210.398 81.186 210.275 80.9651C210.155 80.7445 209.981 80.5681 209.752 80.4358C209.523 80.3036 209.261 80.2266 208.965 80.2046C208.651 80.1813 208.371 80.2262 208.127 80.3394C207.886 80.4501 207.692 80.6167 207.547 80.8391C207.405 81.0617 207.322 81.3289 207.299 81.6408L206.355 81.5707C206.391 81.091 206.533 80.6781 206.781 80.332C207.029 79.9859 207.351 79.7257 207.747 79.5514C208.146 79.3773 208.584 79.308 209.061 79.3434C209.541 79.379 209.959 79.5118 210.314 79.7419C210.669 79.9719 210.94 80.2667 211.125 80.6261C211.31 80.9856 211.387 81.3759 211.355 81.797C211.333 82.0982 211.257 82.3887 211.126 82.6684C210.998 82.9457 210.788 83.2504 210.495 83.5824C210.206 83.912 209.807 84.3113 209.301 84.7802L207.316 86.6108L207.311 86.6748L211.117 86.9572L211.052 87.8368L205.887 87.4535Z" fill="#9291A5"/>
<defs>
<clipPath id="clip0_77_697">
<rect width="21.3466" height="21.3466" fill="white" transform="translate(25.4467 22.7905) rotate(4.24339)"/>
</clipPath>
</defs>
</svg>
