<svg width="230" height="83" viewBox="0 0 230 83" fill="none" xmlns="http://www.w3.org/2000/svg">
<rect x="0.146786" y="16.9351" width="225" height="65.708" rx="15.062" transform="rotate(-4.20892 0.146786 16.9351)" fill="#08205F"/>
<rect x="10.8185" y="27.6846" width="42.7007" height="42.7007" rx="11.064" transform="rotate(-4.20892 10.8185 27.6846)" fill="#6C78FF"/>
<g clip-path="url(#clip0_52_8552)">
<path d="M38.7638 41.5168L27.7847 42.3248C27.2553 42.3637 26.763 42.6114 26.4162 43.0133C26.0694 43.4152 25.8964 43.9385 25.9354 44.4679L26.4496 51.4546C26.4885 51.984 26.7362 52.4763 27.1381 52.8231C27.54 53.1699 28.0632 53.3428 28.5927 53.3039L39.5718 52.4959C40.1012 52.4569 40.5934 52.2093 40.9402 51.8073C41.2871 51.4054 41.46 50.8822 41.421 50.3528L40.9069 43.3661C40.8679 42.8367 40.6202 42.3444 40.2183 41.9976C39.8164 41.6508 39.2932 41.4778 38.7638 41.5168ZM31.1462 47.0949L36.1367 46.7277C36.2691 46.7179 36.3999 46.7612 36.5004 46.8479C36.6009 46.9346 36.6628 47.0576 36.6725 47.19C36.6823 47.3223 36.639 47.4531 36.5523 47.5536C36.4656 47.6541 36.3425 47.716 36.2102 47.7258L31.2197 48.093C31.0873 48.1028 30.9565 48.0595 30.8561 47.9728C30.7556 47.8861 30.6937 47.763 30.6839 47.6307C30.6742 47.4983 30.7174 47.3675 30.8041 47.2671C30.8908 47.1666 31.0139 47.1047 31.1462 47.0949ZM38.39 50.0741L29.4071 50.7352C29.2748 50.7449 29.144 50.7017 29.0435 50.615C28.943 50.5283 28.8811 50.4052 28.8714 50.2728C28.8616 50.1405 28.9048 50.0097 28.9916 49.9092C29.0783 49.8087 29.2013 49.7468 29.3337 49.7371L38.3166 49.076C38.4489 49.0663 38.5797 49.1095 38.6802 49.1962C38.7807 49.2829 38.8426 49.406 38.8523 49.5383C38.8621 49.6707 38.8188 49.8015 38.7321 49.902C38.6454 50.0024 38.5224 50.0644 38.39 50.0741Z" fill="white"/>
</g>
<path d="M69.2509 39.779L64.9402 40.0962L64.0592 28.1238L68.2499 27.8154C69.4175 27.7295 70.4732 27.9064 71.4169 28.3462C72.3601 28.7807 73.1161 29.438 73.6848 30.3182C74.2584 31.1926 74.5884 32.2164 74.6747 33.3893C74.7602 34.5517 74.5911 35.6041 74.1673 36.5465C73.7431 37.4837 73.1015 38.2358 72.2427 38.8029C71.3892 39.3696 70.3919 39.695 69.2509 39.779ZM68.2004 29.7649L66.297 29.905L66.8932 38.0066L68.9086 37.8583C70.1029 37.7704 71.015 37.3441 71.6448 36.5794C72.2797 35.809 72.5512 34.8 72.4594 33.5524C72.366 32.2834 71.9407 31.3123 71.1835 30.639C70.4317 29.9652 69.4373 29.6739 68.2004 29.7649ZM80.4075 39.175C79.2025 39.2637 78.1896 38.9389 77.3687 38.2006C76.5478 37.4622 76.0912 36.4666 75.999 35.2137C75.9056 33.9447 76.2029 32.8855 76.8909 32.0362C77.5789 31.1868 78.5173 30.7184 79.7063 30.6309C80.9166 30.5418 81.9067 30.8469 82.6764 31.5461C83.4511 32.2396 83.885 33.2181 83.978 34.4817L84.0221 35.0815L77.9297 35.554C78.1788 36.9723 78.9752 37.632 80.3188 37.5332C80.8626 37.4931 81.3028 37.3562 81.6394 37.1224C81.976 36.8885 82.1888 36.5754 82.2779 36.1829L84.1253 36.0469C84.0199 36.9445 83.6365 37.6723 82.9753 38.2302C82.3191 38.7824 81.4631 39.0973 80.4075 39.175ZM79.8424 32.2612C79.2559 32.3044 78.7956 32.4964 78.4615 32.8373C78.1328 33.1777 77.9401 33.6556 77.8836 34.2709L81.9463 33.9719C81.9051 33.4121 81.6936 32.9773 81.3116 32.6677C80.9293 32.3528 80.4395 32.2173 79.8424 32.2612ZM86.1619 42.3056L85.2903 30.4612L87.1377 30.3252L87.3643 31.5469C87.5701 31.0653 87.9115 30.6784 88.3885 30.386C88.8652 30.0882 89.4154 29.9164 90.0392 29.8705C91.1802 29.7865 92.1226 30.1004 92.8665 30.8123C93.6158 31.5237 94.0371 32.5139 94.1305 33.7828C94.2254 35.0731 93.9668 36.1482 93.3547 37.008C92.7421 37.8626 91.8467 38.3332 90.6684 38.4199C90.0552 38.465 89.495 38.391 88.9876 38.1978C88.4802 38.0047 88.0863 37.7147 87.8059 37.3279L88.1613 42.1585L86.1619 42.3056ZM88.0961 32.5303C87.7139 33.0194 87.5497 33.6292 87.6035 34.3597C87.6573 35.0901 87.9087 35.6666 88.358 36.0892C88.8125 36.5114 89.381 36.6974 90.0635 36.6472C90.7566 36.5962 91.2864 36.3294 91.653 35.8467C92.0195 35.3641 92.1759 34.7576 92.1221 34.0271C92.068 33.2913 91.8243 32.7116 91.3911 32.2878C90.9574 31.8587 90.3941 31.6697 89.7009 31.7207C89.0185 31.7709 88.4835 32.0408 88.0961 32.5303ZM96.6977 36.762C95.8288 36.0272 95.3482 35.0334 95.256 33.7804C95.1638 32.5275 95.4939 31.4766 96.2462 30.6279C96.9982 29.7738 98.0033 29.3005 99.2616 29.2079C100.52 29.1153 101.583 29.4364 102.452 30.1711C103.326 30.9002 103.809 31.8912 103.901 33.1442C103.994 34.3971 103.661 35.4508 102.904 36.3053C102.152 37.1594 101.147 37.6327 99.8884 37.7253C98.6301 37.8179 97.5665 37.4968 96.6977 36.762ZM97.764 31.8027C97.3654 32.2877 97.1933 32.8981 97.2474 33.6339C97.3016 34.3696 97.5614 34.9509 98.0271 35.3776C98.4923 35.7991 99.0688 35.9845 99.7566 35.9338C100.444 35.8832 100.988 35.6154 101.386 35.1304C101.784 34.6401 101.956 34.0271 101.902 33.2913C101.848 32.5555 101.588 31.9769 101.123 31.5555C100.657 31.1288 100.081 30.9407 99.3928 30.9913C98.7051 31.0419 98.1621 31.3124 97.764 31.8027ZM104.979 34.6811L106.883 34.541C106.92 34.8974 107.071 35.1677 107.337 35.3519C107.607 35.5357 107.969 35.6109 108.423 35.5775C108.886 35.5434 109.235 35.432 109.467 35.2433C109.705 35.0489 109.813 34.8025 109.791 34.5039C109.775 34.2853 109.692 34.1118 109.544 33.9833C109.394 33.8496 109.146 33.7579 108.8 33.7084L107.311 33.4722C106.563 33.3611 105.999 33.1345 105.62 32.7925C105.241 32.4505 105.028 31.9596 104.981 31.3198C104.924 30.5361 105.174 29.8958 105.733 29.3991C106.296 28.9019 107.053 28.6184 108.002 28.5486C108.914 28.4815 109.667 28.6673 110.262 29.1059C110.863 29.5442 111.194 30.155 111.257 30.9384L109.362 31.0779C109.326 30.7321 109.188 30.4661 108.949 30.28C108.716 30.0935 108.41 30.0142 108.031 30.042C107.642 30.0707 107.342 30.1785 107.13 30.3656C106.924 30.5523 106.833 30.7976 106.855 31.1015C106.887 31.5441 107.262 31.8221 107.978 31.9356L109.459 32.1724C110.169 32.2809 110.702 32.4963 111.058 32.8185C111.419 33.135 111.622 33.5972 111.667 34.205C111.726 35.0154 111.462 35.6835 110.873 36.2093C110.285 36.7351 109.484 37.0352 108.471 37.1098C107.469 37.1835 106.651 36.9971 106.018 36.5506C105.384 36.104 105.038 35.4808 104.979 34.6811ZM113.651 26.7498C113.31 26.7749 113.01 26.679 112.753 26.4621C112.496 26.2398 112.354 25.9607 112.33 25.6248C112.305 25.2889 112.402 24.9977 112.619 24.7512C112.842 24.4989 113.127 24.3601 113.473 24.3345C113.804 24.3102 114.092 24.4069 114.339 24.6246C114.59 24.8366 114.728 25.1106 114.753 25.4465C114.778 25.7824 114.682 26.0789 114.465 26.3361C114.253 26.5876 113.981 26.7255 113.651 26.7498ZM113.366 36.5325L112.77 28.4389L114.769 28.2918L115.365 36.3853L113.366 36.5325ZM120.18 36.031L118.18 36.1782L117.708 29.7561L116.156 29.8703L116.033 28.1988L117.585 28.0846L117.399 25.5654L119.399 25.4182L119.584 27.9375L121.159 27.8215L121.282 29.493L119.707 29.6089L120.18 36.031ZM126.382 26.8984C126.305 25.848 126.637 24.9633 127.377 24.2441C128.118 23.5249 129.117 23.119 130.375 23.0264C131.586 22.9373 132.574 23.1808 133.34 23.757C134.111 24.3328 134.553 25.1607 134.664 26.2407L132.569 26.3949C132.51 25.8846 132.294 25.4984 131.921 25.2364C131.553 24.9687 131.073 24.8566 130.481 24.9001C129.831 24.948 129.324 25.1327 128.962 25.4542C128.599 25.7704 128.436 26.179 128.473 26.6802C128.504 27.1014 128.646 27.4287 128.899 27.662C129.152 27.89 129.533 28.0442 130.043 28.1246L131.96 28.3936C133.005 28.5365 133.798 28.8587 134.339 29.3603C134.88 29.862 135.183 30.558 135.249 31.4484C135.331 32.5627 134.996 33.4825 134.246 34.2079C133.5 34.9328 132.466 35.3439 131.144 35.4412C129.865 35.5354 128.812 35.2939 127.987 34.7167C127.167 34.1391 126.707 33.3153 126.607 32.2451L128.71 32.0904C128.753 32.5965 128.977 32.9794 129.382 33.239C129.792 33.4983 130.333 33.6032 131.005 33.5538C131.704 33.5024 132.248 33.3176 132.637 32.9995C133.026 32.6814 133.203 32.2744 133.166 31.7785C133.136 31.3733 133.001 31.059 132.759 30.8355C132.523 30.6117 132.158 30.4643 131.665 30.3934L129.731 30.1096C128.696 29.9659 127.896 29.6227 127.331 29.08C126.766 28.5373 126.45 27.8101 126.382 26.8984ZM141.993 26.2883L143.993 26.1412L144.588 34.2347L142.741 34.3707L142.509 33.3022C142.292 33.7041 141.95 34.0429 141.483 34.3185C141.02 34.5938 140.52 34.7512 139.982 34.7909C139.059 34.8587 138.313 34.6215 137.742 34.0792C137.176 33.5312 136.857 32.7586 136.783 31.7616L136.411 26.6991L138.41 26.552L138.731 30.9107C138.786 31.6624 138.971 32.201 139.284 32.5264C139.597 32.8464 140.039 32.9855 140.609 32.9435C141.244 32.8968 141.7 32.6783 141.976 32.2881C142.253 31.8925 142.363 31.3081 142.306 30.535L141.993 26.2883ZM145.721 30.0666C145.629 28.8136 145.926 27.7625 146.614 26.9131C147.307 26.058 148.251 25.5866 149.445 25.4987C150.549 25.4174 151.474 25.6362 152.219 26.1549C152.971 26.6732 153.435 27.4163 153.614 28.3841L151.614 28.5313C151.464 28.0867 151.22 27.7589 150.883 27.5479C150.55 27.3311 150.144 27.2403 149.665 27.2757C149.019 27.3231 148.519 27.5878 148.163 28.0696C147.807 28.5461 147.656 29.1629 147.712 29.9201C147.768 30.6825 147.997 31.2714 148.397 31.6869C148.803 32.102 149.326 32.286 149.965 32.2389C150.467 32.202 150.874 32.0541 151.187 31.7952C151.505 31.5305 151.702 31.173 151.776 30.7226L153.791 30.5743C153.738 31.5324 153.371 32.3313 152.689 32.9712C152.012 33.6107 151.149 33.969 150.098 34.0463C148.872 34.1366 147.86 33.8197 147.061 33.0959C146.263 32.3666 145.816 31.3569 145.721 30.0666ZM154.726 29.4039C154.634 28.1509 154.932 27.0998 155.62 26.2504C156.313 25.3953 157.256 24.9238 158.451 24.836C159.554 24.7547 160.479 24.9735 161.225 25.4922C161.976 26.0105 162.441 26.7536 162.619 27.7214L160.62 27.8686C160.469 27.424 160.225 27.0962 159.888 26.8851C159.556 26.6684 159.15 26.5776 158.67 26.6129C158.025 26.6604 157.524 26.9251 157.168 27.4069C156.812 27.8834 156.662 28.5002 156.717 29.2573C156.774 30.0198 157.002 30.6087 157.402 31.0242C157.808 31.4392 158.331 31.6232 158.971 31.5762C159.472 31.5393 159.879 31.3914 160.192 31.1324C160.511 30.8678 160.707 30.5103 160.781 30.0599L162.796 29.9116C162.744 30.8697 162.376 31.6686 161.694 32.3085C161.018 32.9479 160.154 33.3063 159.104 33.3836C157.877 33.4739 156.865 33.157 156.067 32.4331C155.268 31.7039 154.821 30.6942 154.726 29.4039ZM168.141 32.7185C166.936 32.8072 165.923 32.4824 165.102 31.7441C164.281 31.0058 163.825 30.0101 163.733 28.7572C163.639 27.4882 163.936 26.4291 164.624 25.5797C165.312 24.7303 166.251 24.2619 167.44 24.1744C168.65 24.0853 169.64 24.3904 170.41 25.0896C171.185 25.7831 171.619 26.7616 171.712 28.0252L171.756 28.6251L165.663 29.0975C165.912 30.5158 166.709 31.1756 168.052 31.0767C168.596 31.0367 169.036 30.8997 169.373 30.6659C169.71 30.4321 169.922 30.1189 170.011 29.7264L171.859 29.5904C171.753 30.488 171.37 31.2158 170.709 31.7737C170.053 32.3259 169.197 32.6408 168.141 32.7185ZM167.576 25.8047C166.989 25.8479 166.529 26.0399 166.195 26.3808C165.866 26.7212 165.674 27.1991 165.617 27.8144L169.68 27.5154C169.639 26.9556 169.427 26.5208 169.045 26.2112C168.663 25.8963 168.173 25.7608 167.576 25.8047ZM172.815 29.6889L174.718 29.5488C174.755 29.9053 174.907 30.1756 175.172 30.3597C175.443 30.5435 175.805 30.6187 176.258 30.5854C176.722 30.5512 177.07 30.4398 177.303 30.2512C177.541 30.0568 177.648 29.8103 177.626 29.5117C177.61 29.2931 177.528 29.1196 177.379 28.9912C177.23 28.8574 176.982 28.7658 176.635 28.7163L175.146 28.4801C174.398 28.3689 173.835 28.1424 173.456 27.8004C173.077 27.4584 172.864 26.9675 172.817 26.3277C172.759 25.5439 173.01 24.9037 173.568 24.4069C174.132 23.9098 174.888 23.6263 175.837 23.5564C176.749 23.4893 177.503 23.6751 178.098 24.1138C178.698 24.552 179.03 25.1628 179.093 25.9462L177.197 26.0857C177.161 25.7399 177.024 25.474 176.785 25.2879C176.551 25.1013 176.245 25.022 175.867 25.0499C175.478 25.0785 175.177 25.1864 174.966 25.3735C174.76 25.5602 174.668 25.8055 174.69 26.1094C174.723 26.5519 175.097 26.8299 175.813 26.9434L177.294 27.1802C178.004 27.2888 178.537 27.5041 178.894 27.8264C179.255 28.1429 179.457 28.6051 179.502 29.2129C179.562 30.0233 179.297 30.6914 178.709 31.2172C178.12 31.7429 177.32 32.0431 176.307 32.1176C175.304 32.1914 174.486 32.005 173.853 31.5584C173.22 31.1118 172.874 30.4887 172.815 29.6889ZM180.397 29.131L182.3 28.9909C182.337 29.3473 182.488 29.6176 182.754 29.8018C183.025 29.9856 183.387 30.0608 183.84 30.0274C184.304 29.9933 184.652 29.8819 184.885 29.6932C185.122 29.4988 185.23 29.2523 185.208 28.9538C185.192 28.7352 185.11 28.5617 184.961 28.4332C184.812 28.2995 184.564 28.2078 184.217 28.1583L182.728 27.9221C181.98 27.811 181.417 27.5844 181.038 27.2424C180.659 26.9004 180.446 26.4095 180.399 25.7697C180.341 24.986 180.591 24.3457 181.15 23.849C181.714 23.3518 182.47 23.0683 183.419 22.9985C184.331 22.9314 185.084 23.1172 185.679 23.5558C186.28 23.9941 186.612 24.6049 186.675 25.3883L184.779 25.5278C184.743 25.182 184.605 24.916 184.367 24.7299C184.133 24.5434 183.827 24.4641 183.449 24.4919C183.059 24.5206 182.759 24.6284 182.548 24.8155C182.342 25.0022 182.25 25.2475 182.272 25.5514C182.305 25.994 182.679 26.272 183.395 26.3855L184.876 26.6222C185.586 26.7308 186.119 26.9462 186.475 27.2684C186.836 27.5849 187.039 28.0471 187.084 28.6549C187.143 29.4653 186.879 30.1334 186.291 30.6592C185.702 31.185 184.901 31.4851 183.888 31.5597C182.886 31.6334 182.068 31.447 181.435 31.0005C180.802 30.5539 180.456 29.9307 180.397 29.131ZM187.388 22.9477L188.547 22.8623L188.475 21.8786C188.397 20.8229 188.596 20.023 189.07 19.4788C189.55 18.9289 190.248 18.6202 191.165 18.5527C191.538 18.5253 191.884 18.5293 192.203 18.5648L192.328 20.2683L191.625 20.3201C191.145 20.3554 190.823 20.4917 190.658 20.7289C190.493 20.9609 190.426 21.2954 190.458 21.7326L190.531 22.7163L192.466 22.5739L192.589 24.2454L190.654 24.3878L191.126 30.8099L189.143 30.9559L188.67 24.5338L187.511 24.6191L187.388 22.9477ZM199.224 22.0766L201.223 21.9294L201.819 30.023L199.972 30.159L199.74 29.0905C199.523 29.4924 199.181 29.8312 198.713 30.1068C198.251 30.3821 197.751 30.5395 197.212 30.5791C196.29 30.647 195.543 30.4098 194.973 29.8675C194.407 29.3194 194.088 28.5469 194.014 27.5499L193.642 22.4874L195.641 22.3403L195.962 26.6989C196.017 27.4507 196.201 27.9893 196.515 28.3147C196.828 28.6347 197.27 28.7737 197.84 28.7318C198.475 28.6851 198.93 28.4666 199.207 28.0763C199.484 27.6807 199.593 27.0964 199.536 26.3233L199.224 22.0766ZM205.898 29.7228L203.914 29.8688L203.017 17.6805L205.001 17.5345L205.898 29.7228Z" fill="#F5F5F5"/>
<path d="M68.1806 62.0346L68.1081 61.0493C67.3434 61.0606 66.7147 60.8798 66.222 60.5071C65.7327 60.1303 65.4467 59.6091 65.3639 58.9435L66.506 58.8595C66.5441 59.2244 66.6986 59.5132 66.9694 59.726C67.2399 59.935 67.5952 60.0458 68.0352 60.0584L67.825 57.2033L67.4098 57.1438C66.0173 56.9348 65.2773 56.2369 65.19 55.0501C65.1419 54.3969 65.326 53.8393 65.7423 53.3771C66.1586 52.9149 66.7376 52.6247 67.4794 52.5063L67.406 51.5098L68.1394 51.4558L68.2119 52.4411C68.9145 52.4532 69.4878 52.6456 69.9317 53.0181C70.3794 53.3905 70.6463 53.9074 70.7326 54.569L69.6241 54.6506C69.5748 54.2865 69.4336 54.0004 69.2007 53.7924C68.9675 53.5807 68.6623 53.4624 68.2853 53.4376L68.4946 56.2816L68.9498 56.3494C70.3346 56.5552 71.0692 57.231 71.1535 58.3767C71.2035 59.056 71.0186 59.6287 70.5989 60.0949C70.1826 60.5571 69.5964 60.8516 68.8402 60.9786L68.914 61.9807L68.1806 62.0346ZM67.566 56.1304L67.7484 56.162L67.5519 53.4916C67.1305 53.5789 66.8074 53.7509 66.5823 54.0076C66.3608 54.2603 66.2635 54.5696 66.2904 54.9353C66.339 55.5959 66.7642 55.9943 67.566 56.1304ZM68.7936 57.3628L68.572 57.3341L68.7669 59.9821C69.1957 59.8942 69.5246 59.7237 69.7536 59.4704C69.9827 59.2171 70.084 58.9114 70.0576 58.5531C70.0085 57.885 69.5871 57.4882 68.7936 57.3628ZM73.3797 53.2147L71.6386 53.3428L71.564 52.3295L74.38 52.1223L74.9901 60.4134L73.9152 60.4925L73.3797 53.2147ZM76.2028 56.1646C76.1078 54.8733 76.3409 53.8092 76.9022 52.9723C77.4673 52.1353 78.2686 51.6785 79.3061 51.6022C79.9891 51.5519 80.6015 51.6888 81.1432 52.013C81.6883 52.3331 82.123 52.8095 82.4473 53.4423C82.7712 54.0714 82.9645 54.8114 83.0271 55.6624C83.123 56.9649 82.8955 58.0286 82.3445 58.8534C81.797 59.6742 80.9952 60.1235 79.939 60.2012C79.2336 60.2531 78.6084 60.1209 78.0636 59.8045C77.5222 59.4841 77.0916 59.0129 76.7719 58.3911C76.4557 57.7652 76.266 57.023 76.2028 56.1646ZM77.3169 56.0826C77.3924 57.109 77.6549 57.8964 78.1042 58.445C78.5536 58.9935 79.1403 59.2412 79.8644 59.1879C80.5884 59.1346 81.1288 58.804 81.4856 58.1961C81.8461 57.588 81.9886 56.7707 81.9131 55.7444C81.8367 54.7068 81.5756 53.9118 81.1297 53.3592C80.6875 52.8064 80.1043 52.5566 79.3803 52.6099C78.6525 52.6634 78.1068 52.9982 77.7431 53.614C77.3829 54.2259 77.2408 55.0488 77.3169 56.0826ZM84.1524 55.5796C84.0574 54.2882 84.2905 53.2241 84.8518 52.3873C85.4169 51.5502 86.2182 51.0935 87.2557 51.0171C87.9387 50.9669 88.5511 51.1038 89.0928 51.4279C89.6379 51.748 90.0726 52.2245 90.3969 52.8573C90.7208 53.4864 90.9141 54.2264 90.9768 55.0774C91.0726 56.3799 90.8451 57.4436 90.2941 58.2684C89.7466 59.0892 88.9448 59.5384 87.8886 59.6162C87.1832 59.6681 86.558 59.5358 86.0132 59.2194C85.4718 58.8991 85.0412 58.4279 84.7215 57.806C84.4053 57.1801 84.2156 56.438 84.1524 55.5796ZM85.2665 55.4976C85.342 56.5239 85.6045 57.3114 86.0538 57.86C86.5032 58.4085 87.0899 58.6561 87.814 58.6029C88.538 58.5496 89.0785 58.219 89.4352 57.6111C89.7957 57.003 89.9382 56.1857 89.8627 55.1593C89.7863 54.1218 89.5252 53.3267 89.0793 52.7742C88.6371 52.2213 88.054 51.9716 87.3299 52.0248C86.6021 52.0784 86.0564 52.4131 85.6927 53.029C85.3325 53.6409 85.1904 54.4638 85.2665 55.4976ZM92.102 54.9945C92.007 53.7032 92.2401 52.6391 92.8014 51.8023C93.3665 50.9652 94.1678 50.5085 95.2054 50.4321C95.8883 50.3819 96.5007 50.5188 97.0424 50.8429C97.5875 51.163 98.0222 51.6395 98.3465 52.2723C98.6704 52.9014 98.8637 53.6414 98.9264 54.4923C99.0222 55.7949 98.7947 56.8585 98.2437 57.6833C97.6962 58.5041 96.8944 58.9534 95.8382 59.0311C95.1328 59.083 94.5077 58.9508 93.9628 58.6344C93.4214 58.314 92.9908 57.8429 92.6711 57.221C92.3549 56.5951 92.1652 55.853 92.102 54.9945ZM93.2161 54.9126C93.2916 55.9389 93.5541 56.7264 94.0035 57.2749C94.4528 57.8235 95.0396 58.0711 95.7636 58.0178C96.4876 57.9645 97.0281 57.634 97.3848 57.0261C97.7453 56.4179 97.8878 55.6007 97.8123 54.5743C97.7359 53.5368 97.4748 52.7417 97.0289 52.1891C96.5867 51.6363 96.0036 51.3865 95.2795 51.4398C94.5517 51.4934 94.006 51.8281 93.6423 52.444C93.2821 53.0559 93.14 53.8787 93.2161 54.9126ZM105.36 58.3191C104.767 58.3628 104.287 58.2424 103.921 57.9579C103.558 57.6731 103.358 57.2732 103.32 56.7581C103.282 56.2431 103.435 55.8191 103.778 55.4861C104.121 55.1495 104.621 54.9307 105.278 54.8298L107.031 54.5601L107.019 54.4033C106.986 53.9555 106.845 53.6394 106.595 53.4552C106.345 53.2709 106.017 53.1938 105.61 53.2237C105.158 53.257 104.814 53.3779 104.578 53.5867C104.346 53.7952 104.242 54.0692 104.267 54.4088L103.327 54.4781C103.284 53.8958 103.47 53.4112 103.884 53.0243C104.298 52.6373 104.868 52.4172 105.592 52.3639C106.308 52.3111 106.89 52.4597 107.336 52.8097C107.782 53.1596 108.032 53.7022 108.086 54.4374L108.345 57.9588L107.427 58.0263L107.242 57.1281C107.124 57.4595 106.895 57.7334 106.554 57.9498C106.213 58.1625 105.815 58.2856 105.36 58.3191ZM105.606 57.4567C106.114 57.4194 106.502 57.2351 106.77 56.9039C107.042 56.5724 107.159 56.1436 107.12 55.6173L107.098 55.3206L105.673 55.5381C104.787 55.6858 104.366 56.0545 104.409 56.6442C104.431 56.9353 104.546 57.1501 104.755 57.2886C104.968 57.4268 105.252 57.4828 105.606 57.4567ZM112.095 57.8235C111.292 57.8826 110.636 57.6588 110.126 57.1522C109.616 56.6457 109.329 55.9576 109.265 55.088C109.2 54.2109 109.387 53.4786 109.824 52.8911C110.261 52.2998 110.888 51.9741 111.705 51.914C112.138 51.8821 112.531 51.9451 112.884 52.103C113.241 52.2606 113.527 52.5041 113.743 52.8335L113.468 49.0994L114.537 49.0207L115.158 57.4574L114.195 57.5282L114.025 56.5163C113.87 56.9068 113.622 57.2139 113.282 57.4378C112.946 57.6614 112.55 57.79 112.095 57.8235ZM112.241 56.8277C112.786 56.7876 113.204 56.5749 113.494 56.1895C113.788 55.8002 113.914 55.3088 113.87 54.7153C113.827 54.1331 113.632 53.6709 113.284 53.3288C112.94 52.9864 112.495 52.8352 111.95 52.8753C111.409 52.9152 110.995 53.1295 110.709 53.5183C110.425 53.9031 110.305 54.3885 110.349 54.9745C110.392 55.5642 110.582 56.0305 110.919 56.3734C111.259 56.7161 111.7 56.8676 112.241 56.8277ZM118.97 57.3176C118.167 57.3766 117.511 57.1529 117.001 56.6463C116.491 56.1398 116.204 55.4517 116.14 54.5821C116.075 53.705 116.261 52.9727 116.698 52.3852C117.135 51.7939 117.762 51.4682 118.58 51.4081C119.013 51.3762 119.406 51.4392 119.759 51.5971C120.116 51.7547 120.402 51.9982 120.617 52.3275L120.343 48.5935L121.412 48.5148L122.033 56.9514L121.07 57.0223L120.9 56.0104C120.745 56.4008 120.497 56.708 120.157 56.9319C119.821 57.1555 119.425 57.2841 118.97 57.3176ZM119.116 56.3218C119.661 56.2817 120.078 56.069 120.369 55.6836C120.663 55.2942 120.788 54.8028 120.745 54.2094C120.702 53.6272 120.506 53.165 120.159 52.8229C119.814 52.4805 119.37 52.3293 118.825 52.3694C118.284 52.4092 117.87 52.6236 117.583 53.0124C117.3 53.3972 117.18 53.8826 117.223 54.4685C117.267 55.0582 117.457 55.5246 117.793 55.8675C118.134 56.2102 118.575 56.3616 119.116 56.3218ZM126.012 56.7993C125.187 56.86 124.497 56.6368 123.942 56.1298C123.387 55.6228 123.078 54.9345 123.014 54.0649C122.949 53.1879 123.149 52.4565 123.612 51.8708C124.079 51.281 124.719 50.9562 125.533 50.8964C126.332 50.8376 126.988 51.0426 127.503 51.5112C128.022 51.9797 128.311 52.63 128.373 53.4623L128.402 53.8654L124.07 54.1954C124.155 54.7858 124.36 55.2285 124.686 55.5235C125.011 55.8148 125.439 55.9409 125.969 55.9019C126.827 55.8387 127.327 55.4717 127.469 54.8008L128.477 54.7267C128.383 55.3377 128.123 55.8241 127.695 56.1858C127.267 56.5437 126.706 56.7482 126.012 56.7993ZM125.6 51.8033C125.129 51.8379 124.76 52.0001 124.493 52.29C124.225 52.5799 124.074 52.9737 124.039 53.4716L127.275 53.2335C127.241 52.767 127.072 52.4042 126.767 52.1451C126.463 51.8824 126.074 51.7684 125.6 51.8033ZM132.058 56.3543C131.256 56.4134 130.6 56.1896 130.09 55.6831C129.58 55.1765 129.293 54.4884 129.229 53.6188C129.164 52.7418 129.35 52.0095 129.787 51.4219C130.224 50.8307 130.851 50.505 131.669 50.4448C132.102 50.413 132.495 50.476 132.848 50.6339C133.204 50.7915 133.491 51.035 133.706 51.3643L133.431 47.6302L134.501 47.5515L135.122 55.9882L134.159 56.0591L133.989 55.0472C133.833 55.4376 133.586 55.7447 133.246 55.9686C132.91 56.1923 132.514 56.3208 132.058 56.3543ZM132.205 55.3586C132.75 55.3185 133.167 55.1057 133.458 54.7204C133.752 54.331 133.877 53.8396 133.833 53.2462C133.791 52.6639 133.595 52.2018 133.247 51.8596C132.903 51.5172 132.459 51.3661 131.914 51.4062C131.373 51.446 130.959 51.6603 130.672 52.0491C130.389 52.434 130.269 52.9194 130.312 53.5053C130.356 54.095 130.546 54.5613 130.882 54.9043C131.223 55.247 131.663 55.3984 132.205 55.3586ZM141.392 55.5268L140.311 55.6063L139.965 50.9037L138.868 50.9845L138.802 50.0831L139.899 50.0024L139.769 48.2445L140.85 48.165L140.979 49.9229L142.077 49.8421L142.143 50.7434L141.046 50.8242L141.392 55.5268ZM143.81 54.6565C143.221 54.1445 142.894 53.4574 142.831 52.5953C142.767 51.7332 142.99 51.0076 143.498 50.4186C144.01 49.8256 144.689 49.4979 145.536 49.4355C146.376 49.3737 147.091 49.5988 147.68 50.1108C148.273 50.6188 148.601 51.3039 148.664 52.166C148.728 53.0281 148.504 53.7557 147.992 54.3487C147.484 54.9415 146.81 55.2688 145.97 55.3305C145.123 55.3929 144.403 55.1682 143.81 54.6565ZM144.321 51.0503C144.009 51.4411 143.874 51.9294 143.917 52.5154C143.96 53.1013 144.165 53.5666 144.532 53.911C144.899 54.2555 145.354 54.4077 145.899 54.3676C146.441 54.3278 146.867 54.1107 147.18 53.7162C147.496 53.3214 147.632 52.8311 147.589 52.2451C147.546 51.6591 147.34 51.1959 146.969 50.8554C146.602 50.5109 146.148 50.3586 145.607 50.3984C145.062 50.4385 144.634 50.6558 144.321 51.0503ZM154.783 54.5413L153.702 54.6208L153.356 49.9182L152.259 49.999L152.193 49.0976L153.29 49.0169L153.161 47.259L154.241 47.1795L154.37 48.9374L155.468 48.8566L155.534 49.758L154.437 49.8387L154.783 54.5413ZM157.928 54.2986L156.848 54.3781L156.228 45.9526L157.308 45.8731L157.58 49.5624C157.74 49.2354 157.977 48.9684 158.292 48.7614C158.611 48.554 158.983 48.4347 159.408 48.4034C160.11 48.3518 160.653 48.5201 161.038 48.9082C161.427 49.2924 161.648 49.8521 161.702 50.5874L161.954 54.0135L160.874 54.093L160.639 50.9076C160.599 50.3627 160.45 49.9703 160.193 49.7303C159.938 49.4864 159.6 49.3799 159.178 49.411C158.675 49.448 158.293 49.6394 158.033 49.9849C157.777 50.3265 157.667 50.7474 157.704 51.2475L157.928 54.2986ZM165.872 53.8659C165.047 53.9266 164.357 53.7035 163.802 53.1965C163.247 52.6895 162.938 52.0012 162.874 51.1316C162.809 50.2545 163.009 49.5231 163.472 48.9374C163.939 48.3477 164.579 48.0229 165.393 47.963C166.192 47.9042 166.848 48.1092 167.363 48.5779C167.882 49.0463 168.171 49.6966 168.233 50.5289L168.262 50.932L163.93 51.2621C164.015 51.8525 164.22 52.2952 164.546 52.5902C164.871 52.8814 165.299 53.0075 165.829 52.9685C166.687 52.9054 167.187 52.5383 167.329 51.8675L168.337 51.7933C168.243 52.4044 167.983 52.8907 167.555 53.2524C167.127 53.6103 166.566 53.8148 165.872 53.8659ZM165.46 48.8699C164.989 48.9045 164.62 49.0668 164.353 49.3566C164.085 49.6465 163.934 50.0404 163.899 50.5382L167.135 50.3001C167.101 49.8336 166.932 49.4708 166.627 49.2118C166.323 48.949 165.934 48.835 165.46 48.8699ZM175.053 53.1903C174.251 53.2493 173.595 53.0256 173.085 52.519C172.575 52.0124 172.288 51.3243 172.224 50.4547C172.159 49.5777 172.345 48.8454 172.782 48.2578C173.219 47.6666 173.846 47.3409 174.664 47.2807C175.097 47.2489 175.49 47.3119 175.843 47.4698C176.199 47.6274 176.486 47.8709 176.701 48.2002L176.427 44.4661L177.496 44.3875L178.117 52.8241L177.154 52.895L176.984 51.8831C176.828 52.2735 176.581 52.5807 176.241 52.8046C175.905 53.0282 175.509 53.1567 175.053 53.1903ZM175.2 52.1945C175.745 52.1544 176.162 51.9416 176.453 51.5563C176.747 51.1669 176.872 50.6755 176.829 50.0821C176.786 49.4999 176.59 49.0377 176.242 48.6955C175.898 48.3531 175.454 48.202 174.909 48.2421C174.368 48.2819 173.954 48.4962 173.667 48.8851C173.384 49.2699 173.264 49.7553 173.307 50.3412C173.351 50.9309 173.541 51.3972 173.877 51.7402C174.218 52.0829 174.659 52.2343 175.2 52.1945ZM182.096 52.672C181.271 52.7327 180.581 52.5095 180.026 52.0025C179.471 51.4955 179.161 50.8072 179.098 49.9376C179.033 49.0605 179.232 48.3292 179.696 47.7434C180.163 47.1537 180.803 46.8289 181.617 46.769C182.415 46.7103 183.072 46.9152 183.587 47.3839C184.105 47.8523 184.395 48.5027 184.457 49.335L184.486 49.738L180.154 50.0681C180.239 50.6585 180.444 51.1012 180.77 51.3962C181.095 51.6875 181.523 51.8136 182.053 51.7746C182.911 51.7114 183.411 51.3444 183.553 50.6735L184.561 50.5994C184.467 51.2104 184.206 51.6968 183.779 52.0584C183.351 52.4164 182.79 52.6209 182.096 52.672ZM181.683 47.676C181.213 47.7106 180.844 47.8728 180.577 48.1627C180.309 48.4526 180.158 48.8464 180.123 49.3443L183.359 49.1062C183.325 48.6396 183.155 48.2769 182.851 48.0178C182.547 47.755 182.157 47.6411 181.683 47.676ZM186.066 54.7663L185.469 46.6488L186.443 46.5771L186.601 47.5786C186.76 47.1879 187.01 46.8788 187.349 46.6511C187.689 46.4235 188.086 46.2929 188.542 46.2594C189.337 46.2009 189.989 46.4249 190.499 46.9315C191.009 47.4343 191.296 48.1206 191.36 48.9902C191.425 49.8672 191.246 50.6027 190.825 51.1966C190.403 51.7905 189.787 52.1172 188.977 52.1768C188.526 52.2101 188.118 52.1482 187.753 51.9911C187.389 51.8303 187.103 51.585 186.894 51.255L187.147 54.6868L186.066 54.7663ZM186.767 49.3732C186.81 49.9591 187.004 50.4233 187.348 50.7657C187.692 51.1082 188.135 51.2594 188.676 51.2196C189.217 51.1798 189.631 50.9655 189.918 50.5766C190.208 50.1875 190.332 49.7 190.289 49.114C190.245 48.5244 190.051 48.0583 189.707 47.7159C189.367 47.3732 188.926 47.2218 188.385 47.2616C187.84 47.3017 187.422 47.5163 187.132 47.9054C186.845 48.2905 186.724 48.7798 186.767 49.3732ZM193.165 51.0244C192.575 50.5124 192.249 49.8253 192.186 48.9632C192.122 48.101 192.344 47.3755 192.853 46.7865C193.364 46.1934 194.044 45.8658 194.891 45.8034C195.731 45.7416 196.445 45.9667 197.035 46.4787C197.627 46.9867 197.956 47.6718 198.019 48.5339C198.082 49.396 197.858 50.1236 197.347 50.7166C196.839 51.3094 196.165 51.6366 195.325 51.6984C194.478 51.7608 193.758 51.5361 193.165 51.0244ZM193.676 47.4182C193.363 47.8089 193.228 48.2973 193.272 48.8833C193.315 49.4692 193.52 49.9344 193.887 50.2789C194.253 50.6234 194.709 50.7756 195.254 50.7355C195.795 50.6957 196.222 50.4785 196.535 50.0841C196.851 49.6893 196.987 49.1989 196.944 48.613C196.901 48.027 196.694 47.5638 196.324 47.2233C195.957 46.8788 195.503 46.7265 194.962 46.7663C194.417 46.8064 193.988 47.0237 193.676 47.4182ZM198.839 49.6612L199.875 49.5849C199.896 49.8723 200.014 50.0907 200.227 50.2401C200.444 50.3855 200.73 50.4451 201.085 50.419C201.462 50.3913 201.749 50.2969 201.947 50.136C202.146 49.9751 202.235 49.7658 202.216 49.5083C202.202 49.3105 202.133 49.158 202.008 49.0508C201.888 48.9396 201.683 48.8572 201.393 48.8034L200.391 48.6464C199.882 48.5637 199.499 48.4043 199.242 48.1681C198.984 47.9319 198.84 47.6085 198.81 47.198C198.772 46.6867 198.938 46.2636 199.308 45.9287C199.677 45.5938 200.173 45.4034 200.797 45.3576C201.409 45.3125 201.911 45.435 202.304 45.7251C202.7 46.0148 202.924 46.4262 202.974 46.959L201.944 47.0349C201.912 46.752 201.799 46.5352 201.604 46.3845C201.409 46.2337 201.149 46.1703 200.824 46.1942C200.488 46.2189 200.233 46.3109 200.057 46.4702C199.884 46.6255 199.807 46.8319 199.826 47.0894C199.854 47.4589 200.149 47.6942 200.711 47.7954L201.714 47.9636C202.208 48.0436 202.579 48.1945 202.828 48.4164C203.077 48.6345 203.217 48.9488 203.247 49.3593C203.286 49.8893 203.11 50.3281 202.719 50.6759C202.328 51.0236 201.797 51.2222 201.125 51.2716C200.468 51.32 199.932 51.1981 199.516 50.9059C199.104 50.6098 198.879 50.1949 198.839 49.6612ZM205.062 43.659C204.934 43.8073 204.771 43.8887 204.573 43.9032C204.375 43.9178 204.202 43.8611 204.054 43.7332C203.906 43.6015 203.824 43.4387 203.81 43.2446C203.795 43.043 203.852 42.87 203.98 42.7255C204.108 42.5772 204.271 42.4958 204.469 42.4813C204.666 42.4667 204.839 42.5234 204.988 42.6513C205.136 42.7755 205.217 42.9384 205.232 43.1399C205.246 43.334 205.19 43.507 205.062 43.659ZM204.557 50.8783L204.145 45.2744L205.226 45.1949L205.638 50.7988L204.557 50.8783ZM208.784 50.5672L207.704 50.6467L207.358 45.9442L206.26 46.0249L206.194 45.1236L207.291 45.0428L207.162 43.285L208.242 43.2054L208.372 44.9633L209.469 44.8826L209.535 45.7839L208.438 45.8646L208.784 50.5672Z" fill="#F5F5F5" fill-opacity="0.8"/>
<defs>
<clipPath id="clip0_52_8552">
<rect width="21.3504" height="21.3504" fill="white" transform="translate(22.2484 37.5474) rotate(-4.20892)"/>
</clipPath>
</defs>
</svg>
