<svg width="24" height="24" viewBox="0 0 24 24" fill="none" xmlns="http://www.w3.org/2000/svg">
<path d="M18.4719 16.6781C18.0531 16.3219 17.4563 16.2875 17 16.5563L16.15 15.7063C16.8719 14.8813 17.3125 13.8063 17.3125 12.625C17.3125 10.0406 15.2094 7.9375 12.625 7.9375C10.0406 7.9375 7.9375 10.0406 7.9375 12.625C7.9375 15.2094 10.0406 17.3125 12.625 17.3125C13.8063 17.3125 14.8813 16.8719 15.7063 16.15L16.5563 17C16.2875 17.4563 16.3188 18.0531 16.6781 18.475L18.7719 20.9313C19 21.2 19.3344 21.3625 19.6906 21.3781H19.7406C20.0781 21.3781 20.4031 21.2437 20.6406 21.0063L21 20.6469C21.25 20.3969 21.3844 20.05 21.3719 19.6969C21.3594 19.3438 21.1938 19.0094 20.925 18.7781L18.4688 16.6844L18.4719 16.6781ZM12.625 16.6875C10.3844 16.6875 8.5625 14.8656 8.5625 12.625C8.5625 10.3844 10.3844 8.5625 12.625 8.5625C14.8656 8.5625 16.6875 10.3844 16.6875 12.625C16.6875 14.8656 14.8656 16.6875 12.625 16.6875Z" fill="#6C78FF"/>
<path d="M2.97852 14.0844L7.26602 17.9125C7.55977 18.1719 8.00352 18.1719 8.30039 17.9125L9.45352 16.8812C8.43164 16.1187 7.69102 14.9969 7.42539 13.7031H3.87539C3.52539 13.7031 3.20664 13.85 2.97852 14.0844Z" fill="#6C78FF"/>
<path d="M9.99375 17.2344L8.71562 18.3781C8.44688 18.6156 8.11562 18.7312 7.78125 18.7312C7.44688 18.7312 7.11563 18.6156 6.85 18.3812L2.66875 14.6437C2.64375 14.7437 2.625 14.8469 2.625 14.9531V20.125C2.625 20.8156 3.18437 21.375 3.875 21.375H11.6875C12.3781 21.375 12.9375 20.8156 12.9375 20.125V17.9281C12.8344 17.9344 12.7312 17.9375 12.625 17.9375C11.6687 17.9375 10.7688 17.6812 9.99375 17.2344Z" fill="#6C78FF"/>
<path d="M20.4375 2.625H14.1875C13.6719 2.625 13.25 3.04688 13.25 3.5625V7.35C15.0094 7.55625 16.5094 8.62813 17.3094 10.125H20.4375C20.9531 10.125 21.375 9.70312 21.375 9.1875V3.5625C21.375 3.04688 20.9531 2.625 20.4375 2.625ZM19.3281 6.65313L16.2031 8.21562C16.1594 8.2375 16.1094 8.25 16.0625 8.25C16.0062 8.25 15.9469 8.23438 15.8969 8.20312C15.8063 8.14687 15.75 8.04688 15.75 7.9375V4.8125C15.75 4.70312 15.8063 4.60312 15.8969 4.54687C15.9906 4.49062 16.1063 4.48437 16.2031 4.53437L19.3281 6.09687C19.4344 6.15 19.5 6.25625 19.5 6.375C19.5 6.49375 19.4344 6.6 19.3281 6.65313Z" fill="#6C78FF"/>
<path d="M6.0625 9.5C7.95937 9.5 9.5 7.95937 9.5 6.0625C9.5 4.16562 7.95937 2.625 6.0625 2.625C4.16562 2.625 2.625 4.16562 2.625 6.0625C2.625 7.95937 4.16562 9.5 6.0625 9.5ZM4.50937 4.84063C4.91875 4.4125 5.63438 4.39687 6.0625 4.80625C6.26875 4.60937 6.5375 4.5 6.82188 4.5C7.12188 4.5 7.40312 4.62188 7.61562 4.84063C8.04375 5.2875 8.04375 6.0125 7.61562 6.45938L6.2875 7.84063C6.22813 7.90313 6.14687 7.9375 6.0625 7.9375C5.97813 7.9375 5.89687 7.90313 5.8375 7.84063L4.50937 6.45938C4.08125 6.0125 4.08125 5.2875 4.50937 4.84063Z" fill="#6C78FF"/>
<path d="M14.8125 10.75H13.5625C13.3906 10.75 13.25 10.8906 13.25 11.0625C13.25 11.2344 13.3906 11.375 13.5625 11.375H14.1344L12.9219 12.7906L12.2219 12.0906C12.1594 12.0281 12.075 11.9937 11.9875 12C11.9 12.0031 11.8187 12.0438 11.7625 12.1125L10.2 13.9875C10.0906 14.1188 10.1062 14.3188 10.2406 14.4281C10.3 14.4781 10.3687 14.5 10.4406 14.5C10.5312 14.5 10.6187 14.4625 10.6812 14.3875L12.025 12.775L12.7219 13.4719C12.7844 13.5344 12.8656 13.5687 12.9562 13.5625C13.0437 13.5594 13.125 13.5188 13.1812 13.4531L14.5062 11.9063V12.3125C14.5062 12.4844 14.6469 12.625 14.8187 12.625C14.9906 12.625 15.1312 12.4844 15.1312 12.3125V11.0625C15.1312 10.8906 14.9906 10.75 14.8187 10.75H14.8125Z" fill="#6C78FF"/>
</svg>
