<svg width="25" height="24" viewBox="0 0 25 24" fill="none" xmlns="http://www.w3.org/2000/svg">
<path d="M22.7784 2.50482C22.8038 2.32671 22.7874 2.14513 22.7305 1.97445C22.6736 1.80376 22.5777 1.64866 22.4506 1.52142C22.3348 1.41037 22.1958 1.32649 22.0436 1.27588C21.8913 1.22527 21.7298 1.20919 21.5706 1.22882C14.9442 2.03402 11.1492 5.00182 8.97995 7.92342L7.96575 7.87062C7.60082 7.85177 7.23599 7.90979 6.89491 8.04092C6.55382 8.17205 6.24408 8.37336 5.98575 8.63182L4.40175 10.2158C4.3827 10.235 4.36864 10.2585 4.36081 10.2843C4.35297 10.3102 4.3516 10.3376 4.35682 10.3641C4.36203 10.3906 4.37367 10.4154 4.39071 10.4363C4.40775 10.4573 4.42967 10.4737 4.45455 10.4842L6.98015 11.5314C6.69522 12.25 6.46791 12.99 6.30035 13.7446C6.27114 13.8784 6.27597 14.0174 6.31441 14.1489C6.35284 14.2803 6.42366 14.4 6.52035 14.497L9.51675 17.4846C9.61374 17.5813 9.73345 17.6521 9.8649 17.6906C9.99635 17.729 10.1353 17.7338 10.2692 17.7046C11.0237 17.537 11.7638 17.3097 12.4824 17.0248L13.5296 19.5504C13.5401 19.5753 13.5565 19.5972 13.5775 19.6143C13.5984 19.6313 13.6232 19.6429 13.6497 19.6482C13.6762 19.6534 13.7036 19.652 13.7294 19.6442C13.7553 19.6363 13.7788 19.6223 13.798 19.6032L15.382 18.0192C15.6403 17.7608 15.8415 17.4511 15.9727 17.11C16.1038 16.7689 16.1619 16.4041 16.1432 16.0392L16.0904 15.025C19.0054 12.88 21.96 9.09162 22.7784 2.50482ZM14.4184 11.6018C14.2199 11.8003 13.9671 11.9355 13.6918 11.9903C13.4165 12.0451 13.1312 12.017 12.8719 11.9097C12.6126 11.8023 12.3909 11.6204 12.235 11.387C12.079 11.1537 11.9958 10.8793 11.9958 10.5986C11.9958 10.3179 12.079 10.0436 12.235 9.81021C12.3909 9.57685 12.6126 9.39497 12.8719 9.28759C13.1312 9.1802 13.4165 9.15213 13.6918 9.20692C13.9671 9.26172 14.2199 9.39692 14.4184 9.59542C14.684 9.86114 14.8334 10.2214 14.8338 10.5971C14.8342 10.9728 14.6856 11.3333 14.4206 11.5996L14.4184 11.6018ZM15.2984 8.72422C15.0369 8.46309 14.8588 8.13028 14.7866 7.76791C14.7144 7.40553 14.7512 7.02987 14.8925 6.68846C15.0338 6.34704 15.2732 6.05521 15.5804 5.84988C15.8876 5.64455 16.2488 5.53495 16.6184 5.53495C16.9879 5.53495 17.3491 5.64455 17.6563 5.84988C17.9635 6.05521 18.2029 6.34704 18.3442 6.68846C18.4855 7.02987 18.5224 7.40553 18.4501 7.76791C18.3779 8.13028 18.1998 8.46309 17.9384 8.72422C17.7647 8.89829 17.5583 9.03635 17.3312 9.13048C17.104 9.22461 16.8605 9.27296 16.6146 9.27276C16.3687 9.27255 16.1253 9.2238 15.8983 9.12929C15.6713 9.03478 15.4651 8.89638 15.2918 8.72202L15.2984 8.72422ZM3.89795 18.0258C3.45447 17.8713 2.9787 17.8334 2.51635 17.9158C2.4769 17.9229 2.43634 17.9203 2.39806 17.9085C2.35978 17.8966 2.32491 17.8757 2.29635 17.8476C2.2592 17.8112 2.2342 17.7641 2.22475 17.713C2.2153 17.6618 2.22187 17.6089 2.24355 17.5616C2.72315 16.499 4.04315 14.3628 6.40815 16.0876C6.42043 16.0988 6.43025 16.1123 6.43696 16.1275C6.44368 16.1426 6.44714 16.159 6.44714 16.1756C6.44714 16.1922 6.44368 16.2086 6.43696 16.2237C6.43025 16.2389 6.42043 16.2525 6.40815 16.2636C6.08883 16.5139 5.83312 16.836 5.66185 17.2038C5.49058 17.5715 5.40859 17.9746 5.42255 18.38C5.4242 18.4273 5.44373 18.4723 5.47721 18.5058C5.51069 18.5392 5.55563 18.5588 5.60295 18.5604C6.00566 18.5765 6.40652 18.498 6.77333 18.331C7.14014 18.164 7.46265 17.9133 7.71495 17.599C7.7261 17.5856 7.74006 17.5749 7.75584 17.5675C7.77162 17.5601 7.78883 17.5562 7.80625 17.5562C7.82368 17.5562 7.84089 17.5601 7.85667 17.5675C7.87245 17.5749 7.8864 17.5856 7.89755 17.599C8.22755 17.9928 9.13395 19.271 8.13075 20.5074C7.68899 21.0356 7.05636 21.3677 6.37075 21.4314C5.39175 21.5392 3.59215 21.8472 2.85075 22.6942C2.82143 22.7302 2.78277 22.7574 2.739 22.7729C2.69523 22.7884 2.64805 22.7916 2.60261 22.782C2.55718 22.7725 2.51525 22.7506 2.48141 22.7188C2.44756 22.687 2.42312 22.6466 2.41075 22.6018C2.15995 21.713 1.76615 19.733 3.89795 18.0258Z" fill="#6C78FF"/>
</svg>
