<svg width="26" height="26" viewBox="0 0 26 26" fill="none" xmlns="http://www.w3.org/2000/svg">
<path d="M8.58527 15.4978C9.59224 16.762 10.1368 17.7441 10.1368 19.3066C10.1368 19.6112 10.3853 19.8597 10.69 19.8597H14.8497C14.9967 19.8597 15.1371 19.8014 15.2398 19.6966C15.3446 19.5918 15.4029 19.4535 15.4029 19.3065C15.4029 17.7496 15.9529 16.7588 16.9685 15.4818C17.8145 14.4143 18.1775 13.4549 18.1775 12.2793C18.1775 10.6446 17.4504 9.11482 16.1808 8.08284C14.9113 7.051 13.2464 6.65231 11.6137 6.99266C9.10813 7.51559 7.32093 9.77798 7.3674 12.3722C7.38793 13.5174 7.75332 14.4486 8.58527 15.4978Z" fill="white"/>
<path d="M12.3993 23.8728H13.1405C13.5467 23.8728 13.8763 23.5432 13.8763 23.137V22.9047H14.0535C14.6423 22.9047 15.121 22.426 15.121 21.8372V20.6919H10.4188V21.8372C10.4188 22.426 10.8975 22.9047 11.4863 22.9047H11.6635V23.137C11.6646 23.5443 11.9962 23.8728 12.3993 23.8728Z" fill="white"/>
<path d="M5.71782 12.394C5.71782 12.0893 5.46931 11.8408 5.16462 11.8408H2.67526C2.37056 11.8408 2.12207 12.0893 2.12207 12.394C2.12207 12.6987 2.37057 12.9472 2.67526 12.9472H5.16462C5.47148 12.9472 5.71782 12.6987 5.71782 12.394Z" fill="white"/>
<path d="M22.5901 11.8408H20.1007C19.796 11.8408 19.5475 12.0893 19.5475 12.394C19.5475 12.6987 19.7961 12.9472 20.1007 12.9472H22.5901C22.8948 12.9472 23.1433 12.6987 23.1433 12.394C23.1433 12.0904 22.8969 11.8408 22.5901 11.8408Z" fill="white"/>
<path d="M5.94351 19.7267L7.7025 17.9677C7.91859 17.7517 7.91859 17.4005 7.7025 17.1855C7.48641 16.9694 7.13526 16.9694 6.92026 17.1855L5.16127 18.9445C4.94518 19.1606 4.94518 19.5117 5.16127 19.7267C5.26932 19.8348 5.40978 19.8899 5.55133 19.8899C5.69179 19.8899 5.83653 19.8348 5.94351 19.7267Z" fill="white"/>
<path d="M17.9539 7.76414C18.0954 7.76414 18.2358 7.70904 18.3439 7.601L20.1029 5.84201C20.319 5.62592 20.319 5.27477 20.1029 5.05977C19.8868 4.84368 19.5356 4.84368 19.3206 5.05977L17.5617 6.81876C17.3456 7.03485 17.3456 7.386 17.5617 7.601C17.6719 7.70904 17.8123 7.76414 17.9539 7.76414Z" fill="white"/>
<path d="M18.346 17.1845C18.13 16.9684 17.7788 16.9684 17.5638 17.1845C17.3477 17.4006 17.3477 17.7518 17.5638 17.9668L19.3228 19.7258C19.4308 19.8338 19.5713 19.8889 19.7128 19.8889C19.8544 19.8889 19.9948 19.8338 20.1029 19.7258C20.319 19.5097 20.319 19.1585 20.1029 18.9435L18.346 17.1845Z" fill="white"/>
<path d="M6.92043 7.60075C7.02848 7.7088 7.16894 7.7639 7.31049 7.7639C7.45203 7.7639 7.59248 7.7088 7.70054 7.60075C7.91663 7.38466 7.91663 7.03351 7.70054 6.81851L5.94156 5.05953C5.72547 4.84344 5.37432 4.84344 5.15932 5.05953C4.94323 5.27562 4.94323 5.62677 5.15932 5.84177L6.92043 7.60075Z" fill="white"/>
<path d="M12.771 5.61747C13.0757 5.61747 13.3242 5.36897 13.3242 5.06428V2.57492C13.3242 2.27022 13.0757 2.02173 12.771 2.02173C12.4663 2.02173 12.2178 2.27023 12.2178 2.57492V5.06428C12.2178 5.36898 12.4663 5.61747 12.771 5.61747Z" fill="white"/>
</svg>
