<svg width="26" height="26" viewBox="0 0 26 26" fill="none" xmlns="http://www.w3.org/2000/svg">
<path d="M24.7444 22.186C24.7444 22.6243 24.3843 22.9829 23.9442 22.9829H4.73968C3.41938 22.9829 2.33911 21.9071 2.33911 20.5922V6.24807C2.33911 5.80976 2.69918 5.45117 3.1393 5.45117C3.57942 5.45117 3.93949 5.80976 3.93949 6.24807V20.5922C3.93949 21.0305 4.29956 21.3891 4.73968 21.3891H23.9442C24.3843 21.3891 24.7444 21.7477 24.7444 22.186ZM7.14025 20.5922H8.74063C9.62083 20.5922 10.341 19.875 10.341 18.9984V15.8108C10.341 14.9342 9.62083 14.217 8.74063 14.217H7.14025C6.26004 14.217 5.53987 14.9342 5.53987 15.8108V18.9984C5.53987 19.875 6.26004 20.5922 7.14025 20.5922ZM13.5418 20.5922H15.1421C16.0223 20.5922 16.7425 19.875 16.7425 18.9984V12.6232C16.7425 11.7467 16.0223 11.0294 15.1421 11.0294H13.5418C12.6616 11.0294 11.9414 11.7467 11.9414 12.6232V18.9984C11.9414 19.875 12.6616 20.5922 13.5418 20.5922ZM19.9433 20.5922H21.5437C22.4239 20.5922 23.144 19.875 23.144 18.9984V8.63876C23.144 7.76217 22.4239 7.04496 21.5437 7.04496H19.9433C19.0631 7.04496 18.3429 7.76217 18.3429 8.63876V18.9984C18.3429 19.875 19.0631 20.5922 19.9433 20.5922Z" fill="white"/>
</svg>
