<svg width="24" height="24" viewBox="0 0 24 24" fill="none" xmlns="http://www.w3.org/2000/svg">
<path d="M12 1.5C6.21375 1.5 1.5 6.21375 1.5 12C1.5 17.79 6.21375 22.5 12 22.5C17.79 22.5 22.5 17.79 22.5 12C22.5 6.21375 17.79 1.5 12 1.5ZM11.25 17.5163V17.4412C11.25 17.025 11.5875 16.6912 12 16.6912C12.4163 16.6912 12.75 17.025 12.75 17.4412V17.5163C12.75 17.9287 12.4163 18.2663 12 18.2663C11.5875 18.2663 11.25 17.9287 11.25 17.5163ZM12.75 13.6763V15.2025C12.75 15.615 12.4163 15.9525 12 15.9525C11.5875 15.9525 11.25 15.615 11.25 15.2025V12.9975C11.25 12.5813 11.5875 12.2475 12 12.2475C13.3837 12.2475 14.505 11.1225 14.505 9.7425C14.505 8.3625 13.3837 7.2375 12 7.2375C10.62 7.2375 9.49875 8.3625 9.49875 9.7425C9.49875 10.1587 9.16125 10.4925 8.74875 10.4925C8.3325 10.4925 7.99875 10.1587 7.99875 9.7425C7.99875 7.53375 9.795 5.7375 12 5.7375C14.2087 5.7375 16.005 7.53375 16.005 9.7425C16.005 11.6962 14.6025 13.3238 12.75 13.6763Z" fill="#6C78FF"/>
</svg>
