<svg width="24" height="24" viewBox="0 0 24 24" fill="none" xmlns="http://www.w3.org/2000/svg">
<path d="M13.7801 16.7601H10.2201C9.18005 16.7601 8.32005 16.5201 8.06005 15.5801H3.68005V20.3201C3.68005 20.9801 4.22005 21.5001 4.86005 21.5001H19.1201C19.7801 21.5001 20.3001 20.9601 20.3001 20.3201V15.5601H15.9401C15.6801 16.5201 14.8201 16.7601 13.7801 16.7601Z" fill="#6C78FF"/>
<path d="M20.32 7.24H16.76V4.88C16.76 3.56 15.7 2.5 14.38 2.5H9.62C8.32 2.5 7.24 3.56 7.24 4.88V7.26H3.68C3.02 7.26 2.5 7.8 2.5 8.44V13.18C2.5 13.84 3.04 14.36 3.68 14.36H8.42V13.76C8.42 12.52 8.96 11.98 10.2 11.98H13.76C15 11.98 15.54 12.52 15.54 13.76V14.36H20.3C20.96 14.36 21.48 13.82 21.48 13.18V8.44C21.5 7.78 20.96 7.24 20.32 7.24ZM14.38 7.24H9.62V4.88H14.36V7.24H14.38Z" fill="#6C78FF"/>
<path d="M13.78 15.5599C14.1 15.5599 14.38 15.2999 14.38 14.9599V13.7799C14.38 13.4599 14.12 13.1799 13.78 13.1799H10.22C9.9 13.1799 9.62 13.4399 9.62 13.7799V14.9599C9.62 15.2799 9.88 15.5599 10.22 15.5599H13.78Z" fill="#6C78FF"/>
</svg>
