<svg width="417" height="257" viewBox="0 0 417 257" fill="none" xmlns="http://www.w3.org/2000/svg">
<rect x="1.51824" y="0.842464" width="414.197" height="254.507" rx="23.1683" fill="white"/>
<rect x="1.51824" y="0.842464" width="414.197" height="254.507" rx="23.1683" stroke="#F7F7F7" stroke-width="1.66344"/>
<circle cx="23.5114" cy="22.5639" r="5.53191" fill="#FF4C4C"/>
<circle cx="42.8727" cy="22.5638" r="5.53191" fill="#E1E1E1"/>
<circle cx="62.2331" cy="22.5639" r="5.53191" fill="#E1E1E1"/>
<rect x="17.9795" y="43.4148" width="145.532" height="10.2128" rx="4.58265" fill="#EEEEEE"/>
<rect x="17.9795" y="85.968" width="382.979" height="10.2128" rx="4.58265" fill="#EEEEEE"/>
<rect x="17.9795" y="111.5" width="382.979" height="10.2128" rx="4.58265" fill="#EEEEEE"/>
<rect x="17.9795" y="64.6914" width="382.979" height="10.2128" rx="4.58265" fill="#EEEEEE"/>
<rect x="29.0429" y="145.543" width="74.0426" height="6.80851" rx="3.40426" fill="#4C9AFF"/>
<rect x="18.405" y="133.202" width="182.128" height="31.4894" rx="4.15712" stroke="#EAEAEA" stroke-width="0.851064"/>
<rect x="229.043" y="145.543" width="74.0426" height="6.80851" rx="3.40426" fill="#4C9AFF"/>
<rect x="218.405" y="133.202" width="182.128" height="31.4894" rx="4.15712" stroke="#EAEAEA" stroke-width="0.851064"/>
<rect x="29.0429" y="188.947" width="74.0426" height="6.80851" rx="3.40426" fill="#4C9AFF"/>
<rect x="18.405" y="176.606" width="182.128" height="31.4894" rx="4.15712" stroke="#EAEAEA" stroke-width="0.851064"/>
<rect x="229.043" y="188.947" width="74.0426" height="6.80851" rx="3.40426" fill="#4C9AFF"/>
<rect x="218.405" y="176.606" width="182.128" height="31.4894" rx="4.15712" stroke="#EAEAEA" stroke-width="0.851064"/>
</svg>
