<svg width="21" height="15" viewBox="0 0 21 15" fill="none" xmlns="http://www.w3.org/2000/svg">
<path d="M20.8298 7.3562C18.6952 3.1273 14.7367 0.5 10.5 0.5C6.26461 0.5 2.30611 3.1273 0.170206 7.3562C0.0766061 7.5408 0.0766061 7.7579 0.170206 7.9425C2.30611 12.1727 6.26461 14.8 10.5 14.8C14.7367 14.8 18.6952 12.1727 20.8298 7.9438C20.9234 7.7579 20.9234 7.5421 20.8298 7.3562ZM7.67771 10.0602C7.94811 10.2968 7.97671 10.7063 7.74011 10.9767C7.61141 11.1236 7.43071 11.199 7.25001 11.199C7.09791 11.199 6.94711 11.147 6.82231 11.0391C5.85511 10.1967 5.30001 8.9617 5.30001 7.65C5.30001 6.3396 5.85511 5.1046 6.82231 4.2609C7.09271 4.0256 7.50351 4.0529 7.74011 4.3233C7.97671 4.5937 7.94811 5.0045 7.67771 5.2411C6.99261 5.8365 6.60001 6.7153 6.60001 7.65C6.60001 8.586 6.99261 9.4635 7.67771 10.0602ZM10.5 7C11.5751 7 12.45 7.8749 12.45 8.95C12.45 9.7963 11.9053 10.5113 11.15 10.7804V11.55C11.15 11.9088 10.8588 12.2 10.5 12.2C10.1412 12.2 9.85001 11.9088 9.85001 11.55V10.9H9.20001C8.84121 10.9 8.55001 10.6088 8.55001 10.25C8.55001 9.8912 8.84121 9.6 9.20001 9.6H10.5C10.8588 9.6 11.15 9.3075 11.15 8.95C11.15 8.5925 10.8588 8.3 10.5 8.3C9.42491 8.3 8.55001 7.4251 8.55001 6.35C8.55001 5.5037 9.09471 4.7887 9.85001 4.5196V3.75C9.85001 3.3912 10.1412 3.1 10.5 3.1C10.8588 3.1 11.15 3.3912 11.15 3.75V4.4H11.8C12.1588 4.4 12.45 4.6912 12.45 5.05C12.45 5.4088 12.1588 5.7 11.8 5.7H10.5C10.1412 5.7 9.85001 5.9912 9.85001 6.35C9.85001 6.7088 10.1412 7 10.5 7ZM14.1764 11.0391C14.0529 11.147 13.9008 11.199 13.75 11.199C13.568 11.199 13.3886 11.1236 13.2599 10.9754C13.0233 10.705 13.0532 10.2955 13.3236 10.0589C14.0074 9.4635 14.4 8.586 14.4 7.65C14.4 6.7153 14.0074 5.8365 13.3236 5.2411C13.0532 5.0058 13.0246 4.595 13.2599 4.3233C13.4965 4.0529 13.906 4.0243 14.1764 4.2609C15.1449 5.1046 15.7 6.3396 15.7 7.65C15.7 8.9617 15.1449 10.1967 14.1764 11.0391Z" fill="white"/>
</svg>
