<svg width="416" height="258" viewBox="0 0 416 258" fill="none" xmlns="http://www.w3.org/2000/svg">
<rect x="0.831721" y="1.70428" width="414.197" height="254.507" rx="23.1683" fill="white"/>
<rect x="0.831721" y="1.70428" width="414.197" height="254.507" rx="23.1683" stroke="#F7F7F7" stroke-width="1.66344"/>
<circle cx="22.8241" cy="23.4258" r="5.53191" fill="#FF4C4C"/>
<circle cx="42.186" cy="23.426" r="5.53191" fill="#E1E1E1"/>
<circle cx="61.5469" cy="23.426" r="5.53191" fill="#E1E1E1"/>
<rect x="17.2922" y="47.6812" width="85.1064" height="12.766" rx="6.38298" fill="#EEEEEE"/>
<rect x="17.2922" y="66.4045" width="139.574" height="6.80851" rx="3.40426" fill="#EEEEEE"/>
<rect x="17.2924" y="122.111" width="31.4894" height="5.72534" rx="2.86267" fill="#4C9AFF"/>
<rect x="17.2926" y="129.538" width="31.4894" height="5.72534" rx="2.86267" fill="#4C9AFF"/>
<rect x="17.2926" y="136.966" width="31.4894" height="5.72534" rx="2.86267" fill="#4C9AFF"/>
<rect x="17.2926" y="144.393" width="31.4894" height="5.72534" rx="2.86267" fill="#4C9AFF"/>
<rect x="17.2926" y="151.821" width="31.4894" height="5.72534" rx="2.86267" fill="#4C9AFF"/>
<rect x="17.2926" y="159.248" width="31.4894" height="5.72534" rx="2.86267" fill="#4C9AFF"/>
<rect x="17.2926" y="166.675" width="31.4894" height="5.72534" rx="2.86267" fill="#4C9AFF"/>
<rect x="17.2926" y="174.103" width="31.4894" height="5.72534" rx="2.86267" fill="#4C9AFF"/>
<rect x="17.2926" y="181.53" width="31.4894" height="5.72534" rx="2.86267" fill="#4C9AFF"/>
<rect x="17.2926" y="188.958" width="31.4894" height="5.72534" rx="2.86267" fill="#4C9AFF"/>
<rect x="17.2926" y="196.385" width="31.4894" height="5.72534" rx="2.86267" fill="#4C9AFF"/>
<rect x="17.2926" y="203.813" width="31.4894" height="5.72534" rx="2.86267" fill="#4C9AFF"/>
<rect x="17.2926" y="211.24" width="31.4894" height="5.72534" rx="2.86267" fill="#4C9AFF"/>
<rect x="17.2926" y="218.668" width="31.4894" height="5.72534" rx="2.86267" fill="#4C9AFF"/>
<rect x="17.2926" y="226.095" width="31.4894" height="5.72534" rx="2.86267" fill="#4C9AFF"/>
<rect x="53.8882" y="107.256" width="31.4894" height="5.72534" rx="2.86267" fill="#97A0FF"/>
<rect x="53.8879" y="114.683" width="31.4894" height="5.72534" rx="2.86267" fill="#97A0FF"/>
<rect x="53.8879" y="122.111" width="31.4894" height="5.72534" rx="2.86267" fill="#97A0FF"/>
<rect x="53.8879" y="129.538" width="31.4894" height="5.72534" rx="2.86267" fill="#97A0FF"/>
<rect x="53.8879" y="136.966" width="31.4894" height="5.72534" rx="2.86267" fill="#97A0FF"/>
<rect x="53.8879" y="144.393" width="31.4894" height="5.72534" rx="2.86267" fill="#97A0FF"/>
<rect x="53.8879" y="151.82" width="31.4894" height="5.72534" rx="2.86267" fill="#97A0FF"/>
<rect x="53.8879" y="159.248" width="31.4894" height="5.72534" rx="2.86267" fill="#97A0FF"/>
<rect x="53.8879" y="166.675" width="31.4894" height="5.72534" rx="2.86267" fill="#97A0FF"/>
<rect x="53.8879" y="174.103" width="31.4894" height="5.72534" rx="2.86267" fill="#97A0FF"/>
<rect x="53.8879" y="181.53" width="31.4894" height="5.72534" rx="2.86267" fill="#97A0FF"/>
<rect x="53.8879" y="188.958" width="31.4894" height="5.72534" rx="2.86267" fill="#97A0FF"/>
<rect x="53.8879" y="196.385" width="31.4894" height="5.72534" rx="2.86267" fill="#97A0FF"/>
<rect x="53.8879" y="203.813" width="31.4894" height="5.72534" rx="2.86267" fill="#97A0FF"/>
<rect x="53.8879" y="211.24" width="31.4894" height="5.72534" rx="2.86267" fill="#97A0FF"/>
<rect x="53.8879" y="218.668" width="31.4894" height="5.72534" rx="2.86267" fill="#97A0FF"/>
<rect x="53.8879" y="226.095" width="31.4894" height="5.72534" rx="2.86267" fill="#97A0FF"/>
<rect x="122.824" y="121.724" width="31.4894" height="5.72534" rx="2.86267" fill="#4C9AFF"/>
<rect x="122.824" y="129.151" width="31.4894" height="5.72534" rx="2.86267" fill="#4C9AFF"/>
<rect x="122.824" y="136.579" width="31.4894" height="5.72534" rx="2.86267" fill="#4C9AFF"/>
<rect x="122.824" y="144.006" width="31.4894" height="5.72534" rx="2.86267" fill="#4C9AFF"/>
<rect x="122.824" y="151.434" width="31.4894" height="5.72534" rx="2.86267" fill="#4C9AFF"/>
<rect x="122.824" y="158.861" width="31.4894" height="5.72534" rx="2.86267" fill="#4C9AFF"/>
<rect x="122.824" y="166.288" width="31.4894" height="5.72534" rx="2.86267" fill="#4C9AFF"/>
<rect x="122.824" y="173.716" width="31.4894" height="5.72534" rx="2.86267" fill="#4C9AFF"/>
<rect x="122.824" y="181.143" width="31.4894" height="5.72534" rx="2.86267" fill="#4C9AFF"/>
<rect x="122.824" y="188.571" width="31.4894" height="5.72534" rx="2.86267" fill="#4C9AFF"/>
<rect x="122.824" y="195.998" width="31.4894" height="5.72534" rx="2.86267" fill="#4C9AFF"/>
<rect x="122.824" y="203.426" width="31.4894" height="5.72534" rx="2.86267" fill="#4C9AFF"/>
<rect x="122.824" y="210.853" width="31.4894" height="5.72534" rx="2.86267" fill="#4C9AFF"/>
<rect x="122.824" y="218.281" width="31.4894" height="5.72534" rx="2.86267" fill="#4C9AFF"/>
<rect x="122.824" y="225.708" width="31.4894" height="5.72534" rx="2.86267" fill="#4C9AFF"/>
<rect x="159.42" y="151.434" width="31.4894" height="5.72534" rx="2.86267" fill="#97A0FF"/>
<rect x="159.42" y="158.861" width="31.4894" height="5.72534" rx="2.86267" fill="#97A0FF"/>
<rect x="159.42" y="166.289" width="31.4894" height="5.72534" rx="2.86267" fill="#97A0FF"/>
<rect x="159.42" y="173.716" width="31.4894" height="5.72534" rx="2.86267" fill="#97A0FF"/>
<rect x="159.42" y="181.144" width="31.4894" height="5.72534" rx="2.86267" fill="#97A0FF"/>
<rect x="159.42" y="188.571" width="31.4894" height="5.72534" rx="2.86267" fill="#97A0FF"/>
<rect x="159.42" y="195.998" width="31.4894" height="5.72534" rx="2.86267" fill="#97A0FF"/>
<rect x="159.42" y="203.426" width="31.4894" height="5.72534" rx="2.86267" fill="#97A0FF"/>
<rect x="159.42" y="210.853" width="31.4894" height="5.72534" rx="2.86267" fill="#97A0FF"/>
<rect x="159.42" y="218.281" width="31.4894" height="5.72534" rx="2.86267" fill="#97A0FF"/>
<rect x="159.42" y="225.708" width="31.4894" height="5.72534" rx="2.86267" fill="#97A0FF"/>
<rect x="228.356" y="166.134" width="31.4894" height="5.72534" rx="2.86267" fill="#4C9AFF"/>
<rect x="228.356" y="173.561" width="31.4894" height="5.72534" rx="2.86267" fill="#4C9AFF"/>
<rect x="228.356" y="180.989" width="31.4894" height="5.72534" rx="2.86267" fill="#4C9AFF"/>
<rect x="228.356" y="188.416" width="31.4894" height="5.72534" rx="2.86267" fill="#4C9AFF"/>
<rect x="228.356" y="195.844" width="31.4894" height="5.72534" rx="2.86267" fill="#4C9AFF"/>
<rect x="228.356" y="203.271" width="31.4894" height="5.72534" rx="2.86267" fill="#4C9AFF"/>
<rect x="228.356" y="210.698" width="31.4894" height="5.72534" rx="2.86267" fill="#4C9AFF"/>
<rect x="228.356" y="218.126" width="31.4894" height="5.72534" rx="2.86267" fill="#4C9AFF"/>
<rect x="228.356" y="225.553" width="31.4894" height="5.72534" rx="2.86267" fill="#4C9AFF"/>
<rect x="264.952" y="143.851" width="31.4894" height="5.72534" rx="2.86267" fill="#97A0FF"/>
<rect x="264.952" y="151.279" width="31.4894" height="5.72534" rx="2.86267" fill="#97A0FF"/>
<rect x="264.952" y="158.706" width="31.4894" height="5.72534" rx="2.86267" fill="#97A0FF"/>
<rect x="264.952" y="166.134" width="31.4894" height="5.72534" rx="2.86267" fill="#97A0FF"/>
<rect x="264.952" y="173.561" width="31.4894" height="5.72534" rx="2.86267" fill="#97A0FF"/>
<rect x="264.952" y="180.989" width="31.4894" height="5.72534" rx="2.86267" fill="#97A0FF"/>
<rect x="264.952" y="188.416" width="31.4894" height="5.72534" rx="2.86267" fill="#97A0FF"/>
<rect x="264.952" y="195.844" width="31.4894" height="5.72534" rx="2.86267" fill="#97A0FF"/>
<rect x="264.952" y="203.271" width="31.4894" height="5.72534" rx="2.86267" fill="#97A0FF"/>
<rect x="264.952" y="210.698" width="31.4894" height="5.72534" rx="2.86267" fill="#97A0FF"/>
<rect x="264.952" y="218.126" width="31.4894" height="5.72534" rx="2.86267" fill="#97A0FF"/>
<rect x="264.952" y="225.553" width="31.4894" height="5.72534" rx="2.86267" fill="#97A0FF"/>
<rect x="330.483" y="136.347" width="31.4894" height="5.72534" rx="2.86267" fill="#4C9AFF"/>
<rect x="330.483" y="143.774" width="31.4894" height="5.72534" rx="2.86267" fill="#4C9AFF"/>
<rect x="330.483" y="151.202" width="31.4894" height="5.72534" rx="2.86267" fill="#4C9AFF"/>
<rect x="330.483" y="158.629" width="31.4894" height="5.72534" rx="2.86267" fill="#4C9AFF"/>
<rect x="330.483" y="166.056" width="31.4894" height="5.72534" rx="2.86267" fill="#4C9AFF"/>
<rect x="330.483" y="173.484" width="31.4894" height="5.72534" rx="2.86267" fill="#4C9AFF"/>
<rect x="330.483" y="180.911" width="31.4894" height="5.72534" rx="2.86267" fill="#4C9AFF"/>
<rect x="330.483" y="188.339" width="31.4894" height="5.72534" rx="2.86267" fill="#4C9AFF"/>
<rect x="330.483" y="195.766" width="31.4894" height="5.72534" rx="2.86267" fill="#4C9AFF"/>
<rect x="330.483" y="203.194" width="31.4894" height="5.72534" rx="2.86267" fill="#4C9AFF"/>
<rect x="330.483" y="210.621" width="31.4894" height="5.72534" rx="2.86267" fill="#4C9AFF"/>
<rect x="330.483" y="218.049" width="31.4894" height="5.72534" rx="2.86267" fill="#4C9AFF"/>
<rect x="330.483" y="225.476" width="31.4894" height="5.72534" rx="2.86267" fill="#4C9AFF"/>
<rect x="367.079" y="114.064" width="31.4894" height="5.72534" rx="2.86267" fill="#97A0FF"/>
<rect x="367.079" y="121.492" width="31.4894" height="5.72534" rx="2.86267" fill="#97A0FF"/>
<rect x="367.079" y="128.919" width="31.4894" height="5.72534" rx="2.86267" fill="#97A0FF"/>
<rect x="367.079" y="136.347" width="31.4894" height="5.72534" rx="2.86267" fill="#97A0FF"/>
<rect x="367.079" y="143.774" width="31.4894" height="5.72534" rx="2.86267" fill="#97A0FF"/>
<rect x="367.079" y="151.202" width="31.4894" height="5.72534" rx="2.86267" fill="#97A0FF"/>
<rect x="367.079" y="158.629" width="31.4894" height="5.72534" rx="2.86267" fill="#97A0FF"/>
<rect x="367.079" y="166.057" width="31.4894" height="5.72534" rx="2.86267" fill="#97A0FF"/>
<rect x="367.079" y="173.484" width="31.4894" height="5.72534" rx="2.86267" fill="#97A0FF"/>
<rect x="367.079" y="180.911" width="31.4894" height="5.72534" rx="2.86267" fill="#97A0FF"/>
<rect x="367.079" y="188.339" width="31.4894" height="5.72534" rx="2.86267" fill="#97A0FF"/>
<rect x="367.079" y="195.766" width="31.4894" height="5.72534" rx="2.86267" fill="#97A0FF"/>
<rect x="367.079" y="203.194" width="31.4894" height="5.72534" rx="2.86267" fill="#97A0FF"/>
<rect x="367.079" y="210.621" width="31.4894" height="5.72534" rx="2.86267" fill="#97A0FF"/>
<rect x="367.079" y="218.049" width="31.4894" height="5.72534" rx="2.86267" fill="#97A0FF"/>
<rect x="367.079" y="225.476" width="31.4894" height="5.72534" rx="2.86267" fill="#97A0FF"/>
</svg>
