<svg width="417" height="257" viewBox="0 0 417 257" fill="none" xmlns="http://www.w3.org/2000/svg">
<rect x="1.51824" y="1.14032" width="414.197" height="254.507" rx="23.1683" fill="white"/>
<rect x="1.51824" y="1.14032" width="414.197" height="254.507" rx="23.1683" stroke="#F7F7F7" stroke-width="1.66344"/>
<circle cx="23.5106" cy="22.8617" r="5.53191" fill="#FF4C4C"/>
<circle cx="42.8725" cy="22.8617" r="5.53191" fill="#E1E1E1"/>
<circle cx="62.2334" cy="22.8617" r="5.53191" fill="#E1E1E1"/>
<rect x="17.9787" y="50.5212" width="68.0851" height="12.766" rx="6.38298" fill="#EEEEEE"/>
<rect x="17.9787" y="85.415" width="68.0851" height="12.766" rx="6.38298" fill="#EEEEEE"/>
<rect x="17.9787" y="120.309" width="68.0851" height="12.766" rx="6.38298" fill="#EEEEEE"/>
<rect x="105.639" y="50.5212" width="293.617" height="12.766" rx="6.38298" fill="#4C9AFF"/>
<rect x="105.639" y="85.415" width="293.617" height="12.766" rx="6.38298" fill="#97A0FF"/>
<rect x="105.639" y="120.309" width="293.617" height="12.766" rx="6.38298" fill="#4C9AFF"/>
<path d="M17.9787 193.442L41.499 213.853L73.6847 204.091L100.919 186.786L123.201 163.713L151.673 193.442L179.526 184.124L207.07 215.628L229.662 203.647L242.66 186.786L294.342 213.409H320.338L340.764 190.78L372.021 196.992L399.255 173.475" stroke="#4C9AFF" stroke-width="3.40426" stroke-linecap="round"/>
</svg>
