<svg width="24" height="24" viewBox="0 0 24 24" fill="none" xmlns="http://www.w3.org/2000/svg">
<path d="M12 10.7602C13.4586 10.7602 14.6418 9.57312 14.6418 8.11456C14.6418 6.65601 13.4587 5.47278 12 5.47278C10.5413 5.47278 9.35822 6.6599 9.35822 8.11456C9.35822 9.56923 10.5413 10.7602 12 10.7602Z" fill="#6C78FF"/>
<path d="M17.0523 16.7365L16.7242 14.9092C16.6391 14.2771 16.3879 13.6977 16.0151 13.2237C15.845 13.009 15.6505 12.8145 15.4357 12.6484C14.8401 12.1743 14.0946 11.8948 13.2884 11.8948H10.7116C9.90528 11.8948 9.15574 12.1743 8.56014 12.6484C8.34541 12.8145 8.15093 13.009 7.9848 13.2237C7.61205 13.6937 7.36086 14.265 7.2798 14.8889L6.94758 16.7365L6.79768 17.5468L6.70854 18.0492C6.68828 18.1667 6.72069 18.2882 6.79768 18.3814C6.87466 18.4746 6.9881 18.5273 7.10964 18.5273H16.8903C17.0119 18.5273 17.1253 18.4746 17.2023 18.3814C17.2793 18.2882 17.3117 18.1667 17.2914 18.0492L17.2023 17.5468L17.0523 16.7365Z" fill="#6C78FF"/>
<path d="M5.60245 10.5819C6.8706 10.5819 7.90377 9.55273 7.90377 8.28458C7.90377 7.01643 6.8706 5.9873 5.60245 5.9873C4.3343 5.9873 3.30518 7.01643 3.30518 8.28458C3.30518 9.55273 4.33835 10.5819 5.60245 10.5819Z" fill="#6C78FF"/>
<path d="M7.3486 12.7211C7.48635 12.5388 7.64436 12.3686 7.81858 12.2147C7.47013 12.0688 7.08929 11.9918 6.69629 11.9918H4.51246C3.01742 11.9918 1.74102 13.1141 1.5507 14.5727L1.06855 17.0645C1.04424 17.1819 1.07665 17.3035 1.15363 17.3967C1.23061 17.4898 1.34406 17.5466 1.4656 17.5466H5.97515L5.99946 17.4048L6.12101 16.7363L6.14937 16.5904L6.48159 14.7469C6.56667 14.0906 6.82597 13.4342 7.23518 12.871C7.27164 12.8183 7.30808 12.7697 7.3486 12.7211Z" fill="#6C78FF"/>
<path d="M18.3975 10.5819C19.6616 10.5819 20.6948 9.55273 20.6948 8.28458C20.6948 7.01643 19.6616 5.9873 18.3975 5.9873C17.1334 5.9873 16.0962 7.01643 16.0962 8.28458C16.0962 9.55273 17.1294 10.5819 18.3975 10.5819Z" fill="#6C78FF"/>
<path d="M22.4531 14.5972C22.2586 13.1143 20.9823 11.9919 19.4871 11.9919H17.3033C16.9103 11.9919 16.5294 12.0689 16.1769 12.2148C16.3431 12.3647 16.5051 12.5349 16.651 12.7212C16.6874 12.7698 16.728 12.8185 16.7604 12.8711C17.1696 13.4384 17.433 14.0988 17.5261 14.7997L17.8502 16.5946L17.8786 16.7364L18.0002 17.4009L18.0245 17.5467H22.534C22.6556 17.5467 22.769 17.49 22.846 17.3968C22.923 17.3036 22.9554 17.1821 22.9311 17.0646L22.4531 14.5972Z" fill="#6C78FF"/>
</svg>
