<svg width="392" height="242" viewBox="0 0 392 242" fill="none" xmlns="http://www.w3.org/2000/svg">
<g filter="url(#filter0_dd_129_1062)">
<g filter="url(#filter1_d_129_1062)">
<rect x="32.5986" y="8" width="377" height="303.078" rx="14.7843" transform="rotate(3.13954 32.5986 8)" fill="white"/>
</g>
<path d="M48.6537 212.527C48.1616 212.5 47.7238 212.378 47.3403 212.161C46.9569 211.943 46.6557 211.657 46.4367 211.303C46.2178 210.949 46.1091 210.553 46.1106 210.116L47.1171 210.171C47.135 210.562 47.2935 210.893 47.5927 211.165C47.8948 211.434 48.2653 211.58 48.7043 211.604C49.0566 211.624 49.3742 211.558 49.6573 211.408C49.9431 211.259 50.1722 211.044 50.3446 210.765C50.5199 210.483 50.6176 210.159 50.6377 209.792C50.6582 209.418 50.5941 209.079 50.4452 208.776C50.2993 208.471 50.0884 208.225 49.8126 208.039C49.5368 207.853 49.2158 207.749 48.8497 207.726C48.5871 207.708 48.315 207.734 48.0337 207.803C47.7524 207.869 47.5188 207.961 47.3328 208.08L46.3663 207.909L47.1182 203.71L51.5804 203.955L51.5298 204.878L47.9399 204.681L47.499 207.197L47.5493 207.2C47.7331 207.07 47.9604 206.966 48.231 206.888C48.5017 206.811 48.781 206.78 49.069 206.795C49.5946 206.824 50.056 206.976 50.4532 207.25C50.8534 207.521 51.159 207.88 51.37 208.327C51.5839 208.773 51.6756 209.274 51.6451 209.831C51.615 210.379 51.4652 210.861 51.1955 211.278C50.9288 211.693 50.5748 212.013 50.1334 212.238C49.6921 212.461 49.1989 212.557 48.6537 212.527ZM55.9561 212.928C55.3242 212.893 54.7955 212.691 54.3698 212.323C53.9443 211.952 53.6321 211.432 53.4333 210.762C53.2346 210.089 53.1609 209.286 53.2121 208.352C53.263 207.424 53.4239 206.637 53.6948 205.993C53.9687 205.347 54.3374 204.862 54.8009 204.54C55.2674 204.215 55.8138 204.069 56.4401 204.104C57.0664 204.138 57.5922 204.342 58.0175 204.716C58.4459 205.087 58.7594 205.609 58.958 206.282C59.1596 206.952 59.235 207.751 59.1841 208.679C59.1328 209.613 58.9717 210.404 58.7007 211.051C58.4298 211.695 58.0626 212.178 57.599 212.5C57.1356 212.82 56.588 212.962 55.9561 212.928ZM56.0067 212.005C56.633 212.039 57.136 211.764 57.5158 211.179C57.8956 210.594 58.1162 209.743 58.1776 208.624C58.2183 207.881 58.1734 207.243 58.0427 206.711C57.9148 206.18 57.7102 205.769 57.4289 205.479C57.1503 205.189 56.8042 205.032 56.3904 205.01C55.7697 204.976 55.2678 205.255 54.8848 205.848C54.5019 206.439 54.2798 207.292 54.2186 208.407C54.1778 209.151 54.2215 209.787 54.3495 210.316C54.4775 210.844 54.6809 211.252 54.9596 211.539C55.2411 211.827 55.5901 211.982 56.0067 212.005ZM61.6104 210.764L61.6608 209.539L61.8621 209.55L64.8376 206.836L66.0622 206.903L62.8929 209.775L62.8091 209.77L61.6104 210.764ZM60.5589 213.062L61.03 204.473L62.0198 204.528L61.5487 213.117L60.5589 213.062ZM64.6521 213.287L62.3106 209.961L63.0529 209.312L65.9102 213.356L64.6521 213.287Z" fill="#615E83"/>
<path d="M51.8964 159.553L51.4253 168.142L50.3852 168.085L50.7965 160.586L50.7462 160.583L48.5729 161.861L48.6309 160.804L50.8563 159.496L51.8964 159.553ZM56.6904 168.548C56.0586 168.514 55.5298 168.312 55.1041 167.944C54.6786 167.573 54.3664 167.052 54.1676 166.382C53.969 165.71 53.8952 164.906 53.9465 163.973C53.9974 163.044 54.1583 162.258 54.4292 161.614C54.703 160.967 55.0717 160.483 55.5353 160.16C56.0018 159.835 56.5482 159.69 57.1744 159.724C57.8007 159.759 58.3265 159.963 58.7519 160.337C59.1802 160.708 59.4937 161.23 59.6924 161.903C59.894 162.573 59.9693 163.372 59.9184 164.3C59.8672 165.234 59.7061 166.024 59.435 166.671C59.1641 167.315 58.7969 167.799 58.3334 168.121C57.8699 168.44 57.3223 168.583 56.6904 168.548ZM56.7411 167.626C57.3673 167.66 57.8704 167.385 58.2502 166.8C58.63 166.215 58.8506 165.363 58.9119 164.245C58.9527 163.501 58.9078 162.864 58.7771 162.332C58.6492 161.801 58.4446 161.39 58.1632 161.099C57.8847 160.809 57.5385 160.653 57.1247 160.63C56.5041 160.596 56.0022 160.876 55.6191 161.469C55.2362 162.059 55.0142 162.912 54.953 164.028C54.9122 164.771 54.9558 165.408 55.0839 165.936C55.2119 166.465 55.4153 166.873 55.694 167.16C55.9754 167.448 56.3245 167.603 56.7411 167.626ZM64.0715 168.953C63.4396 168.918 62.9109 168.717 62.4852 168.349C62.0597 167.978 61.7475 167.457 61.5487 166.787C61.35 166.114 61.2763 165.311 61.3275 164.377C61.3784 163.449 61.5393 162.663 61.8102 162.019C62.0841 161.372 62.4528 160.887 62.9163 160.565C63.3828 160.24 63.9292 160.095 64.5555 160.129C65.1818 160.164 65.7076 160.368 66.133 160.742C66.5613 161.113 66.8748 161.635 67.0734 162.308C67.275 162.978 67.3504 163.777 67.2995 164.705C67.2483 165.639 67.0871 166.429 66.8161 167.076C66.5452 167.72 66.178 168.203 65.7144 168.526C65.251 168.845 64.7034 168.988 64.0715 168.953ZM64.1221 168.03C64.7484 168.065 65.2514 167.789 65.6312 167.205C66.0111 166.62 66.2316 165.768 66.293 164.65C66.3338 163.906 66.2888 163.268 66.1581 162.737C66.0302 162.205 65.8256 161.795 65.5443 161.504C65.2658 161.214 64.9196 161.058 64.5058 161.035C63.8851 161.001 63.3833 161.281 63.0002 161.874C62.6173 162.464 62.3952 163.317 62.334 164.433C62.2932 165.176 62.3369 165.812 62.4649 166.341C62.593 166.87 62.7963 167.278 63.075 167.565C63.3565 167.852 63.7055 168.008 64.1221 168.03ZM69.7258 166.79L69.7762 165.564L69.9775 165.575L72.953 162.861L74.1776 162.929L71.0083 165.8L70.9245 165.796L69.7258 166.79ZM68.6743 169.088L69.1454 160.499L70.1352 160.553L69.6641 169.142L68.6743 169.088ZM72.7675 169.312L70.426 165.987L71.1683 165.338L74.0256 169.381L72.7675 169.312Z" fill="#615E83"/>
<path d="M53.5951 122.451C53.103 122.424 52.6652 122.302 52.2817 122.085C51.8983 121.867 51.5971 121.582 51.3781 121.227C51.1592 120.873 51.0505 120.478 51.052 120.04L52.0586 120.095C52.0764 120.486 52.2349 120.817 52.5341 121.089C52.8362 121.358 53.2067 121.504 53.6457 121.528C53.998 121.548 54.3156 121.482 54.5987 121.333C54.8845 121.183 55.1136 120.968 55.286 120.689C55.4613 120.407 55.559 120.083 55.5791 119.716C55.5996 119.342 55.5355 119.003 55.3866 118.7C55.2407 118.395 55.0298 118.15 54.754 117.963C54.4782 117.777 54.1572 117.673 53.7911 117.65C53.5285 117.632 53.2564 117.658 52.9751 117.727C52.6938 117.793 52.4602 117.885 52.2742 118.004L51.3077 117.833L52.0596 113.634L56.5218 113.879L56.4712 114.802L52.8813 114.605L52.4404 117.121L52.4907 117.124C52.6745 116.994 52.9018 116.89 53.1724 116.812C53.4431 116.735 53.7224 116.704 54.0104 116.719C54.536 116.748 54.9974 116.9 55.3946 117.174C55.7948 117.446 56.1004 117.804 56.3115 118.251C56.5253 118.697 56.617 119.198 56.5865 119.755C56.5564 120.303 56.4066 120.785 56.1369 121.202C55.8702 121.617 55.5162 121.937 55.0748 122.162C54.6335 122.385 54.1403 122.481 53.5951 122.451ZM60.8975 122.852C60.2656 122.817 59.7369 122.615 59.3112 122.247C58.8857 121.876 58.5735 121.356 58.3747 120.686C58.176 120.013 58.1023 119.21 58.1535 118.276C58.2044 117.348 58.3653 116.562 58.6362 115.917C58.9101 115.271 59.2788 114.786 59.7423 114.464C60.2088 114.139 60.7552 113.994 61.3815 114.028C62.0078 114.062 62.5336 114.266 62.959 114.64C63.3873 115.011 63.7008 115.533 63.8994 116.206C64.101 116.876 64.1764 117.675 64.1255 118.604C64.0743 119.537 63.9131 120.328 63.6421 120.975C63.3712 121.619 63.004 122.102 62.5404 122.424C62.077 122.744 61.5294 122.886 60.8975 122.852ZM60.9481 121.929C61.5744 121.963 62.0774 121.688 62.4572 121.103C62.837 120.518 63.0576 119.667 63.119 118.548C63.1598 117.805 63.1148 117.167 62.9841 116.635C62.8562 116.104 62.6516 115.693 62.3703 115.403C62.0918 115.113 61.7456 114.956 61.3318 114.934C60.7111 114.9 60.2092 115.179 59.8262 115.772C59.4433 116.363 59.2212 117.216 59.16 118.331C59.1192 119.075 59.1629 119.711 59.2909 120.24C59.419 120.768 59.6223 121.176 59.901 121.464C60.1825 121.751 60.5315 121.906 60.9481 121.929ZM68.2786 123.256C67.6467 123.222 67.1179 123.02 66.6923 122.652C66.2667 122.281 65.9546 121.761 65.7557 121.091C65.5571 120.418 65.4834 119.615 65.5346 118.681C65.5855 117.753 65.7464 116.966 66.0173 116.322C66.2911 115.675 66.6598 115.191 67.1234 114.869C67.5899 114.544 68.1363 114.398 68.7626 114.433C69.3888 114.467 69.9146 114.671 70.34 115.045C70.7683 115.416 71.0818 115.938 71.2805 116.611C71.4821 117.281 71.5574 118.08 71.5065 119.008C71.4553 119.942 71.2942 120.733 71.0231 121.38C70.7522 122.024 70.385 122.507 69.9215 122.829C69.4581 123.149 68.9104 123.291 68.2786 123.256ZM68.3292 122.334C68.9554 122.368 69.4585 122.093 69.8383 121.508C70.2181 120.923 70.4387 120.072 70.5 118.953C70.5408 118.209 70.4959 117.572 70.3652 117.04C70.2373 116.509 70.0327 116.098 69.7513 115.808C69.4728 115.518 69.1267 115.361 68.7129 115.339C68.0922 115.305 67.5903 115.584 67.2072 116.177C66.8243 116.768 66.6023 117.62 66.5411 118.736C66.5003 119.48 66.5439 120.116 66.672 120.645C66.8 121.173 67.0034 121.581 67.2821 121.868C67.5636 122.156 67.9126 122.311 68.3292 122.334ZM73.9328 121.093L73.9832 119.868L74.1845 119.879L77.1601 117.165L78.3847 117.232L75.2154 120.104L75.1315 120.099L73.9328 121.093ZM72.8814 123.391L73.3525 114.802L74.3422 114.857L73.8711 123.445L72.8814 123.391ZM76.9745 123.616L74.6331 120.29L75.3754 119.641L78.2327 123.685L76.9745 123.616Z" fill="#615E83"/>
<path d="M90.3588 172.193C93.8491 168.491 105.162 164.44 122.489 177.848C144.148 194.607 172.626 219.526 198.941 193.979C225.257 168.432 262.962 110.292 370.438 213.767" stroke="#FF718B" stroke-width="2.21765" stroke-linecap="round"/>
<path d="M88.1315 198.657C98.3809 184.505 128.524 164.107 167.101 195.733C215.323 235.264 240.491 218.7 273.537 203.897C306.583 189.094 333.782 208.198 347.851 218.275C361.92 228.351 363.139 229.747 372.764 230.275" stroke="#4A3AFF" stroke-width="2.21765" stroke-linecap="round"/>
<line x1="92.7584" y1="119.758" x2="378.109" y2="135.409" stroke="#E5E5EF" stroke-width="0.739216" stroke-linecap="round"/>
<line x1="90.1676" y1="166.996" x2="375.518" y2="182.648" stroke="#E5E5EF" stroke-width="0.739216" stroke-linecap="round"/>
<line x1="87.5768" y1="214.235" x2="372.927" y2="229.887" stroke="#E5E5EF" stroke-width="0.739216" stroke-linecap="round"/>
<line x1="259.46" y1="129.641" x2="251.727" y2="270.62" stroke="#9291A5" stroke-width="0.739216" stroke-linecap="round" stroke-dasharray="5.91 5.91"/>
<g filter="url(#filter2_d_129_1062)">
<circle cx="258.118" cy="155.574" r="6.98339" transform="rotate(3.13954 258.118 155.574)" fill="#FF718B"/>
<circle cx="258.118" cy="155.574" r="6.24417" transform="rotate(3.13954 258.118 155.574)" stroke="white" stroke-width="1.47843"/>
</g>
<line x1="52.7517" y1="87.2098" x2="380.139" y2="105.167" stroke="#E5E5EF" stroke-width="0.739216"/>
<rect x="302.078" y="74.6901" width="5.91373" height="5.91373" rx="2.95686" transform="rotate(3.13954 302.078 74.6901)" fill="#4A3AFF"/>
<path d="M319.574 76.9636C319.551 76.5893 319.388 76.2909 319.086 76.0682C318.784 75.8455 318.406 75.7217 317.951 75.6968C317.618 75.6785 317.324 75.7164 317.069 75.8103C316.816 75.9044 316.614 76.0418 316.464 76.2225C316.317 76.4034 316.237 76.6137 316.224 76.8534C316.213 77.054 316.251 77.2291 316.338 77.3787C316.429 77.526 316.547 77.6514 316.693 77.7552C316.84 77.8565 316.995 77.9422 317.158 78.0125C317.321 78.0804 317.471 78.1365 317.608 78.1808L318.36 78.4282C318.553 78.4903 318.767 78.5732 319.002 78.6768C319.239 78.7806 319.464 78.9168 319.675 79.0855C319.889 79.2518 320.062 79.46 320.193 79.7101C320.324 79.9603 320.38 80.2614 320.361 80.6137C320.338 81.0198 320.212 81.3809 319.981 81.6971C319.753 82.0134 319.43 82.257 319.013 82.428C318.599 82.5991 318.103 82.6688 317.526 82.6372C316.988 82.6076 316.526 82.4952 316.142 82.2999C315.76 82.1048 315.465 81.8457 315.257 81.5226C315.052 81.1997 314.946 80.832 314.939 80.4194L315.878 80.4709C315.887 80.756 315.97 80.9961 316.126 81.1912C316.284 81.3839 316.49 81.5326 316.742 81.6372C316.996 81.7395 317.273 81.7988 317.571 81.8152C317.918 81.8342 318.233 81.7951 318.516 81.6977C318.799 81.5979 319.026 81.4509 319.199 81.2567C319.372 81.06 319.466 80.8247 319.481 80.5507C319.494 80.3012 319.436 80.0943 319.305 79.9301C319.174 79.7659 318.998 79.6286 318.775 79.5183C318.553 79.408 318.312 79.3089 318.052 79.221L317.142 78.906C316.564 78.705 316.112 78.4386 315.787 78.1066C315.462 77.7747 315.313 77.3556 315.341 76.8492C315.364 76.4284 315.498 76.0677 315.742 75.767C315.99 75.464 316.311 75.2363 316.707 75.0838C317.106 74.929 317.545 74.8648 318.024 74.8911C318.509 74.9176 318.935 75.0281 319.302 75.2225C319.669 75.4144 319.955 75.6656 320.159 75.9761C320.365 76.2868 320.464 76.6321 320.455 77.0119L319.574 76.9636ZM325.306 80.62L325.489 77.288L326.355 77.3355L326.046 82.972L325.18 82.9245L325.232 81.9704L325.173 81.9672C325.025 82.2461 324.807 82.4783 324.517 82.6636C324.227 82.8464 323.869 82.9262 323.444 82.9029C323.091 82.8835 322.782 82.7893 322.517 82.6201C322.251 82.4485 322.049 82.2019 321.91 81.8802C321.77 81.556 321.714 81.1542 321.74 80.6747L321.937 77.0932L322.803 77.1407L322.609 80.6635C322.587 81.0745 322.684 81.4086 322.9 81.6658C323.119 81.9232 323.409 82.0618 323.768 82.0815C323.984 82.0933 324.206 82.0503 324.434 81.9524C324.665 81.8546 324.863 81.6962 325.027 81.477C325.194 81.2579 325.287 80.9723 325.306 80.62ZM327.749 83.0654L328.161 75.5501L329.028 75.5976L328.875 78.3718L328.949 78.3759C329.018 78.2815 329.113 78.1616 329.233 78.0161C329.357 77.8682 329.528 77.7402 329.748 77.632C329.97 77.5215 330.264 77.4763 330.631 77.4965C331.106 77.5225 331.518 77.6641 331.867 77.9212C332.216 78.1784 332.48 78.5303 332.659 78.9769C332.838 79.4235 332.911 79.9428 332.879 80.5348C332.846 81.1317 332.716 81.6435 332.489 82.0703C332.262 82.4946 331.962 82.8168 331.59 83.0368C331.217 83.2544 330.796 83.3503 330.326 83.3245C329.964 83.3047 329.678 83.2288 329.466 83.097C329.255 82.9628 329.095 82.8153 328.986 82.6548C328.878 82.4918 328.794 82.3572 328.736 82.2509L328.633 82.2453L328.586 83.1113L327.749 83.0654ZM328.755 80.2939C328.732 80.7195 328.774 81.0985 328.881 81.4307C328.988 81.7605 329.156 82.0237 329.386 82.2203C329.615 82.4145 329.904 82.5211 330.251 82.5401C330.614 82.56 330.921 82.4812 331.174 82.3036C331.429 82.1238 331.626 81.8745 331.767 81.5559C331.909 81.2349 331.992 80.8738 332.014 80.4726C332.036 80.0763 331.994 79.7158 331.889 79.391C331.787 79.064 331.618 78.8008 331.384 78.6014C331.152 78.3998 330.853 78.2889 330.486 78.2688C330.133 78.2495 329.833 78.3225 329.583 78.4879C329.334 78.6509 329.139 78.8881 328.999 79.1994C328.86 79.5083 328.778 79.8731 328.755 80.2939ZM338.282 79.2559L337.492 79.4334C337.45 79.301 337.385 79.1711 337.297 79.0435C337.21 78.9137 337.089 78.8039 336.932 78.7144C336.775 78.6248 336.57 78.5731 336.318 78.5592C335.973 78.5403 335.682 78.6041 335.443 78.7505C335.207 78.8946 335.082 79.0877 335.069 79.3299C335.057 79.5452 335.126 79.7195 335.276 79.8528C335.425 79.9862 335.664 80.1036 335.992 80.205L336.818 80.4564C337.315 80.6064 337.68 80.8141 337.914 81.0796C338.147 81.3427 338.253 81.6712 338.231 82.0651C338.214 82.388 338.105 82.6715 337.905 82.9158C337.707 83.1601 337.44 83.3466 337.101 83.4753C336.763 83.604 336.375 83.6563 335.937 83.6323C335.362 83.6008 334.893 83.4499 334.53 83.1797C334.167 82.9095 333.948 82.5319 333.874 82.0469L334.708 81.8865C334.769 82.1941 334.905 82.4298 335.114 82.5934C335.326 82.7571 335.609 82.8488 335.964 82.8682C336.368 82.8903 336.693 82.8223 336.94 82.6641C337.189 82.5035 337.32 82.3022 337.334 82.06C337.344 81.8643 337.285 81.6966 337.155 81.557C337.025 81.4149 336.82 81.3031 336.54 81.2215L335.613 80.9498C335.104 80.7991 334.735 80.5887 334.507 80.3186C334.281 80.0461 334.179 79.7154 334.2 79.3264C334.218 79.0084 334.323 78.732 334.515 78.4971C334.709 78.2624 334.965 78.0839 335.284 77.9614C335.604 77.8392 335.963 77.7889 336.359 77.8107C336.917 77.8412 337.348 77.9876 337.653 78.2497C337.96 78.5119 338.17 78.8473 338.282 79.2559ZM341.732 83.9501C341.204 83.9212 340.756 83.7714 340.388 83.501C340.02 83.2305 339.745 82.8707 339.563 82.4215C339.382 81.9724 339.307 81.4664 339.338 80.9038C339.369 80.3313 339.502 79.8319 339.736 79.4055C339.973 78.9769 340.288 78.6494 340.681 78.4231C341.076 78.1945 341.528 78.0942 342.037 78.1221C342.433 78.1438 342.787 78.2368 343.097 78.401C343.406 78.5653 343.656 78.785 343.844 79.0604C344.033 79.3357 344.142 79.6509 344.172 80.0058L343.306 79.9583C343.254 79.6979 343.119 79.4623 342.903 79.2517C342.689 79.0387 342.391 78.9218 342.009 78.9008C341.671 78.8823 341.371 78.9541 341.107 79.1163C340.845 79.2762 340.635 79.5113 340.475 79.8215C340.319 80.1294 340.228 80.4962 340.205 80.9219C340.181 81.3574 340.229 81.7403 340.348 82.0707C340.47 82.4013 340.652 82.6628 340.894 82.8552C341.139 83.0478 341.432 83.1534 341.775 83.1722C342 83.1845 342.206 83.1566 342.394 83.0884C342.582 83.0202 342.743 82.9162 342.879 82.7764C343.014 82.6365 343.114 82.4654 343.179 82.2628L344.045 82.3103C343.978 82.6404 343.84 82.9334 343.633 83.1894C343.427 83.4432 343.163 83.6397 342.838 83.7789C342.517 83.9159 342.148 83.973 341.732 83.9501ZM345.221 84.0237L345.53 78.3873L346.367 78.4332L346.32 79.2845L346.379 79.2877C346.497 79.0145 346.695 78.7984 346.974 78.6395C347.252 78.4805 347.561 78.4103 347.898 78.4288C347.962 78.4323 348.041 78.4379 348.136 78.4456C348.232 78.4533 348.304 78.4609 348.352 78.4685L348.304 79.3492C348.275 79.3402 348.208 79.3255 348.104 79.3051C348.002 79.2823 347.894 79.2678 347.779 79.2615C347.505 79.2464 347.257 79.2905 347.036 79.3937C346.817 79.4945 346.639 79.6419 346.503 79.8356C346.37 80.0271 346.297 80.25 346.283 80.5044L346.087 84.0712L345.221 84.0237ZM349.066 84.2346L349.375 78.5982L350.241 78.6457L349.932 84.2821L349.066 84.2346ZM349.867 77.6829C349.698 77.6737 349.556 77.6082 349.44 77.4865C349.326 77.3649 349.274 77.2234 349.283 77.062C349.291 76.9005 349.359 76.7656 349.485 76.6572C349.614 76.5489 349.762 76.4994 349.931 76.5087C350.1 76.5179 350.241 76.5833 350.355 76.7049C350.471 76.8266 350.524 76.9681 350.515 77.1296C350.507 77.2911 350.438 77.4259 350.309 77.5342C350.183 77.6426 350.036 77.6922 349.867 77.6829ZM351.402 86.4828L351.827 78.7327L352.664 78.7786L352.615 79.6739L352.717 79.6796C352.786 79.5852 352.881 79.4653 353.002 79.3198C353.126 79.172 353.297 79.044 353.516 78.9358C353.738 78.8252 354.033 78.7801 354.4 78.8002C354.874 78.8262 355.286 78.9678 355.635 79.225C355.984 79.4821 356.248 79.834 356.428 80.2806C356.607 80.7272 356.68 81.2465 356.648 81.8385C356.615 82.4354 356.485 82.9473 356.258 83.374C356.031 83.7983 355.731 84.1205 355.358 84.3405C354.986 84.5581 354.565 84.654 354.095 84.6282C353.733 84.6084 353.446 84.5326 353.235 84.4007C353.024 84.2665 352.864 84.1191 352.755 83.9585C352.646 83.7955 352.563 83.6609 352.505 83.5546L352.431 83.5506L352.268 86.5303L351.402 86.4828ZM352.524 81.5976C352.501 82.0233 352.542 82.4022 352.649 82.7344C352.756 83.0642 352.925 83.3274 353.154 83.524C353.384 83.7182 353.673 83.8248 354.02 83.8439C354.382 83.8637 354.69 83.7849 354.942 83.6073C355.197 83.4275 355.395 83.1783 355.535 82.8596C355.678 82.5386 355.76 82.1775 355.782 81.7763C355.804 81.38 355.763 81.0195 355.658 80.6948C355.555 80.3677 355.387 80.1045 355.153 79.9052C354.921 79.7035 354.621 79.5926 354.254 79.5725C353.902 79.5532 353.601 79.6262 353.352 79.7917C353.102 79.9546 352.908 80.1918 352.768 80.5031C352.628 80.812 352.547 81.1768 352.524 81.5976ZM360.575 79.2125L360.535 79.9464L357.614 79.7862L357.654 79.0523L360.575 79.2125ZM358.58 77.7486L359.446 77.7961L359.151 83.1683C359.138 83.413 359.163 83.5984 359.227 83.7246C359.294 83.8485 359.383 83.9343 359.493 83.9821C359.606 84.0275 359.726 84.0538 359.853 84.0607C359.948 84.066 360.027 84.0654 360.089 84.0589C360.151 84.0501 360.2 84.043 360.237 84.0376L360.371 84.8252C360.311 84.844 360.227 84.8616 360.121 84.8778C360.015 84.8965 359.881 84.9014 359.719 84.8926C359.474 84.8791 359.238 84.8134 359.008 84.6953C358.782 84.5774 358.597 84.4065 358.455 84.1828C358.315 83.9592 358.254 83.6835 358.272 83.3557L358.58 77.7486ZM361.569 84.9204L361.878 79.284L362.744 79.3315L362.435 84.9679L361.569 84.9204ZM362.37 78.3687C362.201 78.3595 362.059 78.294 361.943 78.1723C361.829 78.0507 361.777 77.9092 361.786 77.7478C361.794 77.5863 361.862 77.4514 361.988 77.343C362.117 77.2347 362.266 77.1852 362.434 77.1945C362.603 77.2037 362.744 77.2691 362.858 77.3907C362.974 77.5124 363.027 77.6539 363.019 77.8154C363.01 77.9769 362.941 78.1117 362.812 78.22C362.686 78.3284 362.539 78.378 362.37 78.3687ZM366.304 85.2979C365.796 85.27 365.356 85.1244 364.985 84.8612C364.617 84.5981 364.337 84.2429 364.145 83.7956C363.956 83.3485 363.878 82.8338 363.91 82.2516C363.942 81.6644 364.077 81.1578 364.313 80.7315C364.553 80.3054 364.87 79.9818 365.265 79.7605C365.662 79.5394 366.115 79.4428 366.624 79.4707C367.133 79.4986 367.572 79.6441 367.94 79.9072C368.311 80.1705 368.59 80.5269 368.779 80.9765C368.971 81.4262 369.05 81.9446 369.018 82.5317C368.986 83.114 368.85 83.6169 368.611 84.0406C368.374 84.4643 368.057 84.7868 367.66 85.0079C367.265 85.2292 366.813 85.3259 366.304 85.2979ZM366.347 84.52C366.734 84.5412 367.057 84.4596 367.317 84.2751C367.578 84.0906 367.777 83.8402 367.914 83.5239C368.052 83.2075 368.131 82.861 368.152 82.4842C368.173 82.1075 368.132 81.7532 368.03 81.4212C367.928 81.0893 367.757 80.8162 367.519 80.6019C367.28 80.3876 366.968 80.2698 366.581 80.2486C366.195 80.2274 365.871 80.3103 365.611 80.4972C365.35 80.6841 365.151 80.937 365.013 81.2558C364.876 81.5746 364.797 81.9223 364.776 82.2991C364.755 82.6758 364.796 83.0289 364.898 83.3584C365 83.6879 365.171 83.9586 365.409 84.1704C365.648 84.3823 365.961 84.4988 366.347 84.52ZM371.239 82.0499L371.053 85.4406L370.187 85.3931L370.496 79.7567L371.333 79.8026L371.284 80.6833L371.358 80.6873C371.506 80.4083 371.719 80.1893 371.997 80.0304C372.276 79.869 372.628 79.8 373.054 79.8234C373.436 79.8443 373.765 79.9409 374.043 80.1132C374.321 80.283 374.53 80.53 374.672 80.8544C374.814 81.1762 374.872 81.5769 374.845 82.0564L374.649 85.6379L373.783 85.5904L373.976 82.0676C374.001 81.6248 373.904 81.2735 373.688 81.0138C373.472 80.7517 373.163 80.6096 372.762 80.5876C372.485 80.5725 372.235 80.6188 372.011 80.7268C371.789 80.8348 371.609 81.0004 371.472 81.2235C371.335 81.4467 371.257 81.7221 371.239 82.0499ZM380.464 81.5695L379.674 81.747C379.632 81.6147 379.567 81.4848 379.478 81.3572C379.392 81.2273 379.27 81.1176 379.113 81.028C378.956 80.9384 378.752 80.8867 378.5 80.8729C378.155 80.854 377.863 80.9177 377.624 81.0641C377.388 81.2082 377.264 81.4014 377.25 81.6436C377.239 81.8588 377.308 82.0332 377.457 82.1665C377.607 82.2999 377.846 82.4172 378.174 82.5187L378.999 82.7701C379.497 82.92 379.862 83.1278 380.095 83.3933C380.329 83.6564 380.435 83.9849 380.413 84.3787C380.395 84.7016 380.286 84.9852 380.087 85.2294C379.889 85.4738 379.621 85.6603 379.283 85.789C378.945 85.9176 378.556 85.97 378.119 85.946C377.544 85.9144 377.075 85.7636 376.712 85.4934C376.349 85.2232 376.13 84.8456 376.056 84.3606L376.889 84.2002C376.951 84.5078 377.086 84.7434 377.296 84.9071C377.508 85.0708 377.791 85.1624 378.146 85.1819C378.549 85.204 378.875 85.136 379.121 84.9777C379.371 84.8172 379.502 84.6158 379.515 84.3736C379.526 84.1779 379.466 84.0103 379.337 83.8706C379.207 83.7286 379.002 83.6167 378.722 83.5351L377.795 83.2634C377.285 83.1128 376.916 82.9024 376.688 82.6322C376.463 82.3598 376.361 82.0291 376.382 81.6401C376.399 81.3221 376.504 81.0456 376.696 80.8108C376.891 80.5761 377.147 80.3975 377.465 80.2751C377.786 80.1528 378.145 80.1026 378.541 80.1243C379.099 80.1549 379.53 80.3013 379.835 80.5633C380.142 80.8256 380.351 81.161 380.464 81.5695Z" fill="#615E83"/>
<rect x="233.191" y="70.6973" width="5.91373" height="5.91373" rx="2.95686" transform="rotate(3.13954 233.191 70.6973)" fill="#FF718B"/>
<path d="M245.53 78.3413L245.943 70.826L248.482 70.9653C249.071 70.9977 249.548 71.1305 249.91 71.3639C250.275 71.5949 250.539 71.8952 250.7 72.2648C250.861 72.6343 250.93 73.0405 250.905 73.4833C250.881 73.9261 250.769 74.3235 250.568 74.6757C250.369 75.0279 250.077 75.3015 249.691 75.4962C249.305 75.6885 248.82 75.7686 248.235 75.7366L246.415 75.6367L246.459 74.8294L248.25 74.9276C248.653 74.9498 248.981 74.8978 249.234 74.7718C249.486 74.6458 249.674 74.4672 249.797 74.2359C249.923 74.0023 249.994 73.7351 250.01 73.4342C250.027 73.1333 249.985 72.8611 249.886 72.6176C249.789 72.3743 249.62 72.1786 249.38 72.0305C249.141 71.8799 248.817 71.7934 248.408 71.771L246.808 71.6833L246.44 78.3912L245.53 78.3413ZM251.972 78.6946L252.281 73.0582L253.118 73.1041L253.071 73.9554L253.13 73.9586C253.248 73.6854 253.446 73.4693 253.725 73.3104C254.004 73.1514 254.312 73.0812 254.649 73.0997C254.713 73.1032 254.792 73.1088 254.888 73.1165C254.983 73.1242 255.055 73.1318 255.104 73.1394L255.055 74.0201C255.026 74.0111 254.96 73.9964 254.855 73.976C254.754 73.9532 254.645 73.9387 254.53 73.9324C254.256 73.9174 254.008 73.9614 253.787 74.0646C253.568 74.1655 253.39 74.3128 253.255 74.5065C253.121 74.698 253.048 74.9209 253.034 75.1753L252.838 78.7421L251.972 78.6946ZM257.929 79.1391C257.42 79.1112 256.98 78.9656 256.609 78.7024C256.241 78.4393 255.961 78.0841 255.77 77.6368C255.581 77.1897 255.502 76.675 255.534 76.0928C255.566 75.5056 255.701 74.999 255.938 74.5727C256.177 74.1466 256.494 73.823 256.889 73.6017C257.287 73.3806 257.74 73.284 258.248 73.3119C258.757 73.3398 259.196 73.4853 259.564 73.7484C259.935 74.0117 260.215 74.3681 260.404 74.8177C260.595 75.2674 260.674 75.7858 260.642 76.3729C260.61 76.9552 260.475 77.4581 260.236 77.8818C259.999 78.3055 259.682 78.628 259.285 78.8491C258.89 79.0704 258.438 79.1671 257.929 79.1391ZM257.972 78.3612C258.358 78.3824 258.682 78.3008 258.942 78.1163C259.202 77.9318 259.401 77.6814 259.539 77.3651C259.676 77.0487 259.756 76.7022 259.776 76.3254C259.797 75.9487 259.756 75.5944 259.654 75.2624C259.552 74.9305 259.382 74.6574 259.143 74.4431C258.905 74.2288 258.592 74.111 258.206 74.0898C257.819 74.0686 257.496 74.1515 257.235 74.3384C256.975 74.5253 256.776 74.7782 256.638 75.097C256.5 75.4158 256.421 75.7635 256.4 76.1403C256.38 76.517 256.42 76.8701 256.523 77.1996C256.625 77.5291 256.795 77.7998 257.034 78.0116C257.272 78.2235 257.585 78.34 257.972 78.3612ZM263.933 79.4685C263.463 79.4427 263.055 79.3013 262.709 79.0443C262.362 78.7848 262.099 78.4318 261.92 77.9852C261.741 77.5362 261.668 77.0132 261.701 76.4163C261.733 75.8243 261.863 75.3161 262.09 74.8918C262.317 74.4675 262.618 74.1466 262.993 73.9291C263.368 73.7117 263.793 73.616 264.267 73.642C264.634 73.6621 264.921 73.7392 265.127 73.8732C265.336 74.0049 265.492 74.1509 265.596 74.3112C265.703 74.4691 265.785 74.5988 265.844 74.7002L265.917 74.7042L266.069 71.93L266.935 71.9775L266.523 79.4928L265.686 79.4469L265.734 78.5808L265.631 78.5752C265.562 78.6745 265.464 78.7992 265.338 78.9493C265.212 79.097 265.037 79.226 264.813 79.3364C264.588 79.4443 264.295 79.4883 263.933 79.4685ZM264.093 78.697C264.441 78.716 264.739 78.6416 264.989 78.4737C265.239 78.3034 265.435 78.0602 265.577 77.7441C265.72 77.4256 265.803 77.0535 265.826 76.6278C265.849 76.2071 265.808 75.8355 265.703 75.5132C265.598 75.1885 265.431 74.9315 265.201 74.7422C264.971 74.5505 264.68 74.4449 264.328 74.4256C263.961 74.4055 263.65 74.4829 263.395 74.6578C263.142 74.8305 262.946 75.0737 262.806 75.3875C262.669 75.6989 262.589 76.0528 262.568 76.4491C262.546 76.8503 262.587 77.2182 262.691 77.5527C262.798 77.8849 262.967 78.1543 263.199 78.3608C263.433 78.5651 263.731 78.6771 264.093 78.697ZM271.908 77.4767L272.091 74.1447L272.957 74.1922L272.647 79.8287L271.781 79.7812L271.834 78.8271L271.775 78.8239C271.627 79.1029 271.408 79.335 271.119 79.5203C270.829 79.7032 270.471 79.7829 270.045 79.7596C269.693 79.7402 269.384 79.646 269.119 79.4769C268.853 79.3053 268.651 79.0586 268.511 78.7369C268.372 78.4127 268.316 78.0109 268.342 77.5314L268.538 73.9499L269.405 73.9974L269.211 77.5202C269.189 77.9312 269.286 78.2653 269.502 78.5225C269.721 78.7799 270.011 78.9185 270.37 78.9382C270.585 78.95 270.807 78.907 271.036 78.8091C271.267 78.7114 271.465 78.5529 271.629 78.3337C271.796 78.1146 271.889 77.829 271.908 77.4767ZM276.517 80.1587C275.989 80.1297 275.54 79.98 275.172 79.7095C274.805 79.4391 274.53 79.0793 274.348 78.6301C274.167 78.1809 274.092 77.675 274.122 77.1123C274.154 76.5399 274.287 76.0405 274.521 75.6141C274.758 75.1854 275.073 74.858 275.466 74.6317C275.861 74.4031 276.313 74.3027 276.822 74.3306C277.218 74.3524 277.571 74.4454 277.881 74.6096C278.191 74.7738 278.441 74.9936 278.629 75.2689C278.818 75.5443 278.927 75.8594 278.956 76.2144L278.09 76.1669C278.038 75.9064 277.904 75.6708 277.688 75.4602C277.473 75.2473 277.176 75.1303 276.794 75.1094C276.456 75.0909 276.156 75.1627 275.891 75.3249C275.63 75.4848 275.42 75.7198 275.26 76.0301C275.103 76.338 275.013 76.7048 274.99 77.1305C274.966 77.5659 275.014 77.9489 275.133 78.2793C275.255 78.6099 275.437 78.8714 275.679 79.0638C275.924 79.2563 276.217 79.362 276.56 79.3808C276.785 79.3931 276.991 79.3652 277.179 79.2969C277.367 79.2287 277.528 79.1247 277.664 78.9849C277.799 78.8451 277.899 78.6739 277.964 78.4714L278.83 78.5189C278.763 78.8489 278.625 79.1419 278.417 79.398C278.212 79.6517 277.947 79.8482 277.623 79.9875C277.302 80.1245 276.933 80.1815 276.517 80.1587ZM282.766 74.7303L282.726 75.4642L279.805 75.304L279.845 74.5701L282.766 74.7303ZM280.771 73.2664L281.637 73.3139L281.342 78.6861C281.329 78.9308 281.354 79.1162 281.418 79.2424C281.485 79.3663 281.574 79.4521 281.684 79.4999C281.797 79.5453 281.917 79.5715 282.044 79.5785C282.139 79.5837 282.218 79.5832 282.28 79.5767C282.341 79.5678 282.391 79.5607 282.428 79.5554L282.562 80.343C282.502 80.3618 282.418 80.3793 282.312 80.3956C282.205 80.4143 282.071 80.4192 281.91 80.4103C281.665 80.3969 281.429 80.3312 281.199 80.2131C280.973 80.0952 280.788 79.9243 280.646 79.7006C280.506 79.477 280.445 79.2013 280.463 78.8735L280.771 73.2664Z" fill="#615E83"/>
<path d="M54.9901 56.9301L55.103 54.8715L64.8022 55.4035L64.6893 57.4621L61.0737 57.2638L60.5389 67.0149L58.0708 66.8795L58.6057 57.1284L54.9901 56.9301ZM68.4135 67.6203C67.5178 67.5712 66.7536 67.3384 66.121 66.922C65.4924 66.5019 65.02 65.94 64.7039 65.2364C64.3879 64.5288 64.2548 63.7214 64.3046 62.8142C64.3548 61.8992 64.5755 61.1093 64.9667 60.4444C65.3581 59.7757 65.8891 59.2689 66.5597 58.9239C67.2343 58.5753 68.0195 58.4256 68.9152 58.4747C69.8109 58.5239 70.5731 58.7585 71.2017 59.1785C71.8343 59.595 72.3086 60.1569 72.6246 60.8645C72.9407 61.5682 73.0737 62.3775 73.0235 63.2924C72.9737 64.1997 72.7531 64.9877 72.3617 65.6564C71.9705 66.3213 71.4376 66.828 70.763 67.1766C70.0924 67.5215 69.3093 67.6695 68.4135 67.6203ZM68.5295 65.718C68.937 65.7404 69.2835 65.6437 69.5691 65.428C69.8549 65.2085 70.0781 64.9007 70.2386 64.5046C70.403 64.1088 70.4993 63.6533 70.5276 63.1382C70.5558 62.623 70.5099 62.1597 70.3898 61.7483C70.2735 61.337 70.0854 61.0067 69.8253 60.7572C69.5652 60.5077 69.2314 60.3718 68.8239 60.3495C68.4126 60.3269 68.0602 60.4252 67.7667 60.6443C67.477 60.8636 67.25 61.1712 67.0856 61.567C66.9251 61.9631 66.8307 62.4187 66.8024 62.9338C66.7742 63.449 66.8182 63.9122 66.9344 64.3234C67.0545 64.7349 67.2465 65.0654 67.5105 65.3151C67.7785 65.5612 68.1181 65.6955 68.5295 65.718ZM79.5768 59.1752L79.4756 61.0205L74.1416 60.7279L74.2428 58.8826L79.5768 59.1752ZM75.5702 56.827L78.0267 56.9617L77.5738 65.2193C77.5613 65.4461 77.5862 65.6248 77.6485 65.7555C77.7109 65.8823 77.8023 65.9741 77.9226 66.0308C78.0467 66.0877 78.1914 66.1207 78.3567 66.1298C78.472 66.1361 78.5879 66.1329 78.7043 66.12C78.8209 66.1032 78.9102 66.0908 78.9724 66.0826L79.2584 67.9318C79.1333 67.9635 78.9579 67.9982 78.7322 68.0359C78.5063 68.0775 78.2335 68.0953 77.9137 68.0894C77.3205 68.08 76.8058 67.9727 76.3698 67.7675C75.9376 67.5626 75.6089 67.2631 75.3838 66.869C75.1586 66.4749 75.0639 65.9878 75.0995 65.4075L75.5702 56.827ZM83.2077 68.426C82.6426 68.395 82.1444 68.2694 81.713 68.049C81.2819 67.8249 80.9482 67.5116 80.7119 67.1092C80.4797 66.7032 80.3796 66.208 80.4117 65.6237C80.4387 65.1316 80.5517 64.7233 80.7507 64.3987C80.9497 64.0742 81.2105 63.8186 81.5331 63.6319C81.8557 63.4453 82.2178 63.3109 82.6194 63.2288C83.0249 63.1469 83.448 63.0969 83.8885 63.0786C84.4066 63.0531 84.8245 63.0259 85.1423 62.997C85.4603 62.9643 85.693 62.9038 85.8405 62.8155C85.988 62.7272 86.067 62.5889 86.0773 62.4005L86.0792 62.3659C86.0992 62.0007 85.9994 61.7118 85.7797 61.4993C85.5638 61.2869 85.2464 61.1693 84.8274 61.1463C84.3853 61.122 84.0282 61.2008 83.756 61.3825C83.484 61.5604 83.2978 61.7931 83.1972 62.0806L80.9353 61.7714C81.0801 61.2396 81.3325 60.7869 81.6923 60.4133C82.0523 60.0359 82.5053 59.7561 83.0512 59.574C83.6012 59.3882 84.2299 59.3147 84.9373 59.3535C85.4294 59.3805 85.8971 59.464 86.3406 59.604C86.7879 59.7442 87.1798 59.945 87.5163 60.2064C87.8567 60.468 88.1184 60.7947 88.3012 61.1864C88.4843 61.5744 88.5614 62.0317 88.5325 62.5583L88.2049 68.5324L85.8752 68.4046L85.9426 67.1763L85.8734 67.1725C85.716 67.4415 85.5123 67.6752 85.2623 67.8736C85.0126 68.0681 84.7172 68.2158 84.3763 68.3166C84.0355 68.4136 83.646 68.45 83.2077 68.426ZM84.0042 66.7693C84.3656 66.7891 84.6885 66.7355 84.9731 66.6084C85.2579 66.4775 85.4859 66.2934 85.657 66.056C85.8281 65.8186 85.9222 65.5442 85.9393 65.2328L85.9908 64.2929C85.9112 64.3386 85.803 64.379 85.6661 64.4139C85.5333 64.4451 85.3833 64.4735 85.2161 64.4991C85.0491 64.5208 84.8822 64.5405 84.7154 64.5584C84.5488 64.5724 84.3978 64.5853 84.2622 64.5971C83.9715 64.6236 83.716 64.6771 83.4957 64.7575C83.2753 64.838 83.1013 64.9537 82.9734 65.1048C82.8458 65.2521 82.7757 65.441 82.763 65.6717C82.7447 66.0061 82.8518 66.2684 83.0843 66.4585C83.3208 66.645 83.6275 66.7486 84.0042 66.7693ZM93.2149 56.9619L92.5672 68.7716L90.1107 68.6369L90.7584 56.8272L93.2149 56.9619ZM98.2933 69.0857L98.7791 60.2284L101.236 60.3632L100.75 69.2205L98.2933 69.0857ZM100.076 59.1544C99.7105 59.1343 99.4039 58.9961 99.1557 58.7395C98.9117 58.4794 98.799 58.1782 98.8178 57.8361C98.8363 57.4978 98.981 57.2146 99.2519 56.9865C99.5268 56.7548 99.8469 56.649 100.212 56.669C100.577 56.6891 100.882 56.8292 101.126 57.0893C101.374 57.3459 101.489 57.6433 101.47 57.9816C101.452 58.3237 101.305 58.6106 101.03 58.8423C100.759 59.0704 100.441 59.1744 100.076 59.1544ZM105.455 64.3425L105.174 69.4631L102.718 69.3284L103.203 60.4711L105.545 60.5995L105.459 62.1622L105.563 62.1679C105.787 61.6636 106.138 61.2741 106.616 60.9995C107.094 60.7211 107.661 60.6 108.319 60.636C108.934 60.6698 109.463 60.8337 109.906 61.1279C110.348 61.4221 110.683 61.826 110.909 62.3397C111.136 62.8496 111.23 63.4485 111.192 64.1367L110.883 69.7763L108.426 69.6415L108.712 64.4402C108.745 63.8983 108.63 63.4679 108.366 63.1488C108.102 62.8259 107.724 62.6509 107.232 62.6239C106.902 62.6058 106.606 62.6609 106.344 62.7892C106.086 62.9177 105.879 63.1146 105.722 63.3797C105.569 63.6412 105.48 63.9621 105.455 64.3425ZM116.811 70.275C115.904 70.2252 115.134 69.9902 114.502 69.5699C113.873 69.146 113.403 68.5804 113.091 67.8731C112.783 67.1659 112.653 66.3645 112.702 65.4688C112.752 64.5616 112.971 63.7754 113.358 63.1103C113.75 62.4415 114.281 61.9328 114.951 61.584C115.622 61.2314 116.406 61.0796 117.302 61.1287C118.074 61.1711 118.743 61.3485 119.308 61.661C119.873 61.9735 120.311 62.3927 120.622 62.9187C120.932 63.4447 121.086 64.0508 121.083 64.737L118.765 64.6099C118.724 64.1642 118.57 63.7991 118.304 63.5146C118.042 63.2265 117.687 63.0701 117.237 63.0454C116.856 63.0245 116.518 63.1101 116.222 63.3021C115.93 63.4904 115.695 63.7763 115.516 64.1598C115.337 64.5433 115.232 65.0137 115.201 65.5712C115.17 66.1363 115.221 66.621 115.353 67.0254C115.489 67.43 115.693 67.7439 115.966 67.9671C116.239 68.1903 116.566 68.3124 116.947 68.3332C117.227 68.3486 117.482 68.3048 117.712 68.2017C117.945 68.0988 118.14 67.9418 118.299 67.7307C118.461 67.5159 118.573 67.2541 118.637 66.9453L120.955 67.0724C120.879 67.7469 120.662 68.3327 120.303 68.8297C119.948 69.323 119.475 69.6981 118.882 69.9548C118.29 70.2114 117.599 70.3182 116.811 70.275ZM126.342 70.7977C125.446 70.7486 124.682 70.5158 124.049 70.0994C123.421 69.6793 122.948 69.1174 122.632 68.4137C122.316 67.7062 122.183 66.8988 122.233 65.9916C122.283 65.0766 122.504 64.2867 122.895 63.6218C123.286 62.9531 123.817 62.4462 124.488 62.1013C125.163 61.7527 125.948 61.603 126.844 61.6521C127.739 61.7012 128.501 61.9358 129.13 62.3559C129.763 62.7723 130.237 63.3343 130.553 64.0418C130.869 64.7455 131.002 65.5548 130.952 66.4698C130.902 67.377 130.681 68.165 130.29 68.8338C129.899 69.4987 129.366 70.0054 128.691 70.354C128.021 70.6989 127.238 70.8468 126.342 70.7977ZM126.458 68.8954C126.865 68.9178 127.212 68.8211 127.497 68.6054C127.783 68.3859 128.006 68.0781 128.167 67.682C128.331 67.2862 128.428 66.8307 128.456 66.3155C128.484 65.8004 128.438 65.3371 128.318 64.9257C128.202 64.5144 128.014 64.184 127.754 63.9346C127.494 63.6851 127.16 63.5492 126.752 63.5268C126.341 63.5043 125.989 63.6026 125.695 63.8217C125.405 64.041 125.178 64.3486 125.014 64.7444C124.853 65.1405 124.759 65.5961 124.731 66.1112C124.703 66.6263 124.747 67.0895 124.863 67.5008C124.983 67.9122 125.175 68.2428 125.439 68.4925C125.707 68.7385 126.046 68.8728 126.458 68.8954ZM132.308 70.9514L132.794 62.0942L135.135 62.2226L135.049 63.7853L135.153 63.791C135.366 63.2821 135.696 62.8896 136.143 62.6133C136.59 62.3371 137.114 62.2154 137.713 62.2483C138.321 62.2816 138.829 62.4618 139.24 62.7889C139.65 63.1122 139.912 63.5353 140.026 64.0582L140.118 64.0633C140.327 63.5658 140.676 63.1781 141.165 62.9004C141.659 62.619 142.23 62.4961 142.88 62.5317C143.707 62.577 144.363 62.8772 144.849 63.4321C145.34 63.9834 145.558 64.7396 145.506 65.7007L145.179 71.6574L142.728 71.523L143.028 66.0506C143.055 65.5585 142.945 65.1823 142.697 64.9219C142.449 64.6616 142.129 64.5206 141.737 64.4991C141.291 64.4747 140.935 64.5978 140.67 64.8686C140.404 65.1355 140.259 65.4996 140.234 65.961L139.937 71.3699L137.556 71.2393L137.859 65.715C137.882 65.2806 137.776 64.9278 137.541 64.6565C137.309 64.3854 136.991 64.2388 136.587 64.2167C136.314 64.2017 136.065 64.2574 135.838 64.3838C135.615 64.5065 135.434 64.6874 135.293 64.9265C135.153 65.1617 135.074 65.4427 135.056 65.7695L134.765 71.0862L132.308 70.9514ZM151.146 72.1582C150.235 72.1083 149.461 71.8807 148.824 71.4756C148.191 71.0669 147.716 70.5126 147.4 69.8127C147.084 69.109 146.951 68.2901 147.002 67.356C147.052 66.4449 147.273 65.6549 147.665 64.9862C148.056 64.3175 148.583 63.8085 149.246 63.4593C149.913 63.1103 150.681 62.9596 151.55 63.0073C152.134 63.0393 152.673 63.1633 153.166 63.3793C153.664 63.5917 154.09 63.8946 154.447 64.2882C154.807 64.682 155.077 65.1672 155.258 65.7439C155.438 66.3168 155.508 66.98 155.467 67.7335L155.43 68.4081L147.95 67.9979L148.034 66.4756L153.201 66.759C153.22 66.4053 153.16 66.0877 153.022 65.8064C152.883 65.525 152.681 65.2999 152.417 65.1312C152.156 64.9588 151.847 64.8628 151.49 64.8432C151.117 64.8227 150.781 64.8911 150.484 65.0483C150.19 65.2018 149.954 65.4183 149.777 65.6978C149.6 65.9734 149.5 66.2861 149.477 66.6357L149.398 68.0831C149.374 68.5213 149.433 68.9044 149.577 69.2323C149.725 69.5605 149.944 69.8193 150.235 70.0087C150.525 70.1981 150.876 70.3041 151.287 70.3267C151.56 70.3417 151.812 70.3169 152.043 70.2525C152.274 70.1881 152.475 70.0834 152.645 69.9385C152.815 69.7935 152.948 69.6119 153.045 69.3936L155.308 69.6681C155.163 70.2077 154.901 70.6714 154.521 71.0593C154.145 71.4436 153.67 71.7337 153.096 71.9297C152.527 72.1221 151.877 72.1983 151.146 72.1582Z" fill="#1E1B39"/>
<path d="M61.9211 38.0483C61.8907 37.5671 61.6814 37.1833 61.2933 36.897C60.9052 36.6107 60.4186 36.4515 59.8336 36.4194C59.4058 36.396 59.0277 36.4447 58.6993 36.5654C58.3741 36.6864 58.1151 36.8631 57.9226 37.0954C57.7331 37.328 57.63 37.5984 57.6131 37.9066C57.5989 38.1645 57.6481 38.3896 57.7606 38.5819C57.8764 38.7713 58.0284 38.9326 58.2167 39.066C58.4052 39.1962 58.6042 39.3065 58.8138 39.3969C59.0235 39.4841 59.2167 39.5562 59.3934 39.6132L60.3603 39.9312C60.6083 40.0111 60.8832 40.1177 61.1851 40.2509C61.4901 40.3844 61.7786 40.5595 62.0506 40.7764C62.326 40.9902 62.5479 41.2579 62.7164 41.5795C62.8849 41.9011 62.9567 42.2883 62.9319 42.7413C62.9033 43.2634 62.7406 43.7277 62.4438 44.1341C62.1502 44.5408 61.7355 44.854 61.1997 45.0739C60.6671 45.2939 60.0297 45.3835 59.2874 45.3428C58.5954 45.3049 58.0023 45.1603 57.5082 44.9092C57.0172 44.6583 56.6379 44.3252 56.3705 43.9099C56.1062 43.4947 55.9696 43.0219 55.9609 42.4914L57.1687 42.5576C57.1801 42.9242 57.2862 43.2329 57.487 43.4837C57.6911 43.7315 57.9551 43.9226 58.2789 44.0571C58.6061 44.1886 58.9616 44.2649 59.3453 44.286C59.792 44.3105 60.197 44.2601 60.5603 44.1349C60.9239 44.0066 61.2166 43.8176 61.4385 43.5679C61.6606 43.3151 61.7813 43.0126 61.8006 42.6603C61.8182 42.3394 61.7429 42.0735 61.5746 41.8623C61.4064 41.6512 61.1795 41.4747 60.8939 41.3328C60.6082 41.191 60.2982 41.0636 59.9636 40.9506L58.7933 40.5457C58.0504 40.2872 57.4697 39.9446 57.0515 39.5179C56.6332 39.0911 56.4419 38.5522 56.4776 37.9011C56.5073 37.3601 56.6795 36.8963 56.9941 36.5098C57.312 36.1202 57.7255 35.8274 58.2348 35.6314C58.7473 35.4324 59.3118 35.3497 59.9283 35.3836C60.5511 35.4177 61.0985 35.5597 61.5706 35.8096C62.043 36.0564 62.4101 36.3794 62.6722 36.7786C62.9373 37.1781 63.0644 37.622 63.0534 38.1104L61.9211 38.0483ZM68.1099 38.3877L68.0582 39.3313L64.3026 39.1253L64.3544 38.1817L68.1099 38.3877ZM65.5442 36.5055L66.6576 36.5666L66.2788 43.4738C66.2615 43.7883 66.2942 44.0267 66.3768 44.189C66.4627 44.3483 66.5765 44.4586 66.7183 44.52C66.8634 44.5785 67.0177 44.6122 67.1812 44.6211C67.3039 44.6279 67.4049 44.6271 67.4842 44.6188C67.5637 44.6074 67.6273 44.5983 67.675 44.5914L67.8466 45.6041C67.7696 45.6282 67.6626 45.6508 67.5258 45.6717C67.3889 45.6957 67.2166 45.702 67.009 45.6906C66.6945 45.6734 66.3899 45.5888 66.0954 45.437C65.804 45.2854 65.5668 45.0657 65.3838 44.7781C65.204 44.4906 65.1257 44.1361 65.1488 43.7146L65.5442 36.5055ZM71.5105 46.0133C71.0513 45.9881 70.6393 45.8787 70.2745 45.6852C69.9099 45.4885 69.6265 45.219 69.4245 44.8767C69.2226 44.5312 69.1346 44.1226 69.1605 43.6508C69.1832 43.2356 69.2835 42.9035 69.4612 42.6546C69.6391 42.4025 69.8689 42.21 70.1506 42.0772C70.4324 41.9444 70.7404 41.8508 71.0746 41.7966C71.4121 41.7394 71.7504 41.698 72.0894 41.6724C72.5328 41.64 72.8921 41.6171 73.1673 41.6038C73.4459 41.5875 73.65 41.5467 73.7798 41.4812C73.9127 41.416 73.9841 41.2937 73.9939 41.1144L73.996 41.0767C74.0215 40.6112 73.914 40.2425 73.6734 39.9706C73.4359 39.6988 73.0608 39.5489 72.5481 39.5208C72.0165 39.4916 71.5934 39.5852 71.2787 39.8014C70.964 40.0175 70.738 40.2544 70.6009 40.5119L69.5647 40.0765C69.7776 39.6465 70.048 39.3174 70.376 39.0893C70.7073 38.8583 71.0628 38.7043 71.4424 38.6273C71.8254 38.5473 72.1993 38.5174 72.5642 38.5374C72.7969 38.5501 73.0627 38.5931 73.3616 38.6663C73.6637 38.7365 73.9517 38.8643 74.2255 39.0497C74.5024 39.2352 74.7258 39.5046 74.8957 39.8578C75.0656 40.211 75.1348 40.6754 75.1032 41.251L74.8413 46.0256L73.7279 45.9645L73.7817 44.9832L73.7251 44.9801C73.641 45.1332 73.5059 45.2946 73.32 45.4642C73.134 45.6338 72.8913 45.7735 72.5919 45.8833C72.2925 45.993 71.932 46.0364 71.5105 46.0133ZM71.7353 45.0224C72.1756 45.0465 72.5515 44.9804 72.8629 44.8239C73.1775 44.6677 73.4194 44.457 73.5885 44.1918C73.7608 43.9267 73.8552 43.6433 73.8718 43.3413L73.9277 42.3222C73.8774 42.3762 73.7707 42.4224 73.6077 42.4608C73.4481 42.4962 73.2635 42.5256 73.054 42.5488C72.8478 42.569 72.6465 42.5864 72.4501 42.6008C72.2571 42.6123 72.1003 42.6226 71.98 42.6318C71.6885 42.6537 71.4146 42.7002 71.1584 42.7713C70.9054 42.8395 70.6973 42.9527 70.534 43.1109C70.3741 43.2662 70.2863 43.4854 70.2708 43.7684C70.2496 44.1553 70.3767 44.4557 70.652 44.6695C70.9307 44.8804 71.2918 44.998 71.7353 45.0224ZM80.4227 39.0631L80.371 40.0067L76.6155 39.8007L76.6672 38.8571L80.4227 39.0631ZM77.857 37.1809L78.9705 37.242L78.5916 44.1491C78.5744 44.4637 78.607 44.7021 78.6896 44.8643C78.7755 45.0236 78.8894 45.134 79.0311 45.1954C79.1762 45.2538 79.3305 45.2875 79.494 45.2965C79.6167 45.3032 79.7177 45.3025 79.797 45.2942C79.8765 45.2828 79.9401 45.2736 79.9878 45.2668L80.1594 46.2794C80.0824 46.3036 79.9755 46.3261 79.8387 46.347C79.7017 46.3711 79.5294 46.3774 79.3218 46.366C79.0073 46.3487 78.7027 46.2642 78.4082 46.1124C78.1168 45.9608 77.8796 45.7411 77.6967 45.4534C77.5168 45.166 77.4385 44.8115 77.4616 44.39L77.857 37.1809ZM81.7001 46.4018L82.0976 39.1549L83.2111 39.216L82.8136 46.4629L81.7001 46.4018ZM82.73 37.9782C82.513 37.9663 82.3299 37.8821 82.1808 37.7256C82.0348 37.5694 81.9674 37.3874 81.9788 37.1798C81.9902 36.9722 82.077 36.7987 82.2393 36.6594C82.4046 36.5202 82.5958 36.4565 82.8129 36.4684C83.0299 36.4803 83.2114 36.5644 83.3574 36.7207C83.5066 36.8772 83.5755 37.0592 83.5641 37.2668C83.5527 37.4744 83.4643 37.6478 83.2989 37.787C83.1367 37.9263 82.9471 37.9901 82.73 37.9782ZM90.2946 41.2324L89.2789 41.4606C89.2251 41.2905 89.1412 41.1234 89.0272 40.9594C88.9164 40.7924 88.7601 40.6514 88.5582 40.5362C88.3563 40.421 88.0934 40.3545 87.7694 40.3368C87.3259 40.3124 86.9508 40.3944 86.6439 40.5826C86.3403 40.7679 86.18 41.0162 86.1629 41.3276C86.1477 41.6044 86.2364 41.8285 86.4289 42C86.6214 42.1714 86.9286 42.3223 87.3505 42.4527L88.4117 42.7759C89.051 42.9688 89.5206 43.2359 89.8206 43.5773C90.1206 43.9155 90.2568 44.3378 90.229 44.8442C90.2062 45.2594 90.0664 45.624 89.8094 45.938C89.5555 46.2522 89.2111 46.492 88.7761 46.6574C88.3412 46.8228 87.8422 46.8901 87.2792 46.8592C86.54 46.8187 85.937 46.6247 85.4703 46.2773C85.0035 45.9299 84.7225 45.4445 84.6274 44.8209L85.6987 44.6147C85.7779 45.0102 85.9522 45.3132 86.2214 45.5235C86.4938 45.7341 86.858 45.8518 87.3141 45.8769C87.8331 45.9053 88.2512 45.8178 88.5684 45.6144C88.8888 45.408 89.0576 45.1491 89.0747 44.8377C89.0885 44.5861 89.012 44.3705 88.8452 44.191C88.6785 44.0083 88.4151 43.8645 88.0549 43.7596L86.8626 43.4103C86.2076 43.2166 85.7334 42.9461 85.4401 42.5988C85.1502 42.2484 85.0189 41.8232 85.0464 41.3231C85.0688 40.9142 85.2034 40.5588 85.4503 40.2569C85.7003 39.9551 86.03 39.7255 86.4392 39.5682C86.8517 39.411 87.3127 39.3463 87.8222 39.3743C88.5394 39.4136 89.0937 39.6018 89.4854 39.9387C89.8802 40.2759 90.1499 40.7071 90.2946 41.2324ZM95.3434 39.8815L95.2917 40.8251L91.5362 40.6191L91.5879 39.6755L95.3434 39.8815ZM92.7777 37.9993L93.8912 38.0604L93.5123 44.9675C93.4951 45.2821 93.5277 45.5205 93.6103 45.6827C93.6962 45.842 93.8101 45.9524 93.9518 46.0138C94.0969 46.0722 94.2512 46.1059 94.4148 46.1149C94.5374 46.1216 94.6384 46.1209 94.7177 46.1126C94.7972 46.1012 94.8608 46.092 94.9085 46.0852L95.0801 47.0978C95.0031 47.122 94.8962 47.1445 94.7594 47.1654C94.6224 47.1895 94.4501 47.1958 94.2425 47.1844C93.928 47.1671 93.6234 47.0826 93.3289 46.9308C93.0375 46.7792 92.8003 46.5595 92.6174 46.2719C92.4375 45.9844 92.3592 45.6299 92.3823 45.2084L92.7777 37.9993ZM96.6208 47.2202L97.0183 39.9733L98.1318 40.0344L97.7343 47.2813L96.6208 47.2202ZM97.6507 38.7966C97.4337 38.7847 97.2506 38.7005 97.1015 38.544C96.9555 38.3878 96.8881 38.2058 96.8995 37.9982C96.9109 37.7906 96.9977 37.6171 97.16 37.4778C97.3253 37.3386 97.5165 37.2749 97.7336 37.2868C97.9506 37.2987 98.1321 37.3828 98.2781 37.5391C98.4273 37.6956 98.4962 37.8776 98.4848 38.0852C98.4734 38.2928 98.385 38.4662 98.2196 38.6054C98.0574 38.7448 97.8678 38.8085 97.6507 38.7966ZM102.709 47.7056C102.03 47.6683 101.454 47.4758 100.981 47.1281C100.508 46.7803 100.154 46.3177 99.9211 45.7402C99.6878 45.1627 99.591 44.5122 99.6306 43.7888C99.671 43.0528 99.8419 42.4107 100.143 41.8625C100.448 41.3114 100.853 40.8903 101.358 40.5994C101.866 40.3055 102.447 40.1765 103.101 40.2124C103.611 40.2403 104.065 40.3599 104.464 40.571C104.862 40.7822 105.183 41.0647 105.425 41.4187C105.668 41.7728 105.808 42.178 105.846 42.6343L104.732 42.5733C104.666 42.2384 104.493 41.9355 104.214 41.6647C103.939 41.3909 103.556 41.2405 103.066 41.2136C102.631 41.1898 102.245 41.2822 101.905 41.4907C101.569 41.6962 101.298 41.9984 101.093 42.3973C100.892 42.7933 100.776 43.2649 100.746 43.8121C100.715 44.372 100.777 44.8644 100.93 45.2892C101.087 45.7142 101.321 46.0504 101.632 46.2978C101.946 46.5454 102.324 46.6812 102.764 46.7054C103.054 46.7212 103.319 46.6853 103.56 46.5976C103.802 46.5099 104.01 46.3762 104.183 46.1964C104.357 46.0167 104.486 45.7966 104.57 45.5362L105.683 45.5973C105.597 46.0216 105.42 46.3983 105.153 46.7275C104.889 47.0538 104.548 47.3064 104.132 47.4855C103.718 47.6615 103.244 47.7349 102.709 47.7056ZM112.637 42.4579L111.621 42.6861C111.567 42.516 111.483 42.3489 111.369 42.1849C111.259 42.0179 111.102 41.8768 110.9 41.7617C110.698 41.6465 110.436 41.58 110.112 41.5622C109.668 41.5379 109.293 41.6199 108.986 41.8081C108.682 41.9933 108.522 42.2417 108.505 42.5531C108.49 42.8298 108.579 43.054 108.771 43.2254C108.964 43.3969 109.271 43.5478 109.693 43.6782L110.754 44.0014C111.393 44.1942 111.863 44.4613 112.163 44.8027C112.463 45.141 112.599 45.5633 112.571 46.0697C112.548 46.4849 112.408 46.8495 112.152 47.1635C111.898 47.4777 111.553 47.7175 111.118 47.8829C110.683 48.0483 110.184 48.1156 109.621 48.0847C108.882 48.0442 108.279 47.8502 107.812 47.5028C107.346 47.1554 107.065 46.6699 106.969 46.0464L108.041 45.8401C108.12 46.2357 108.294 46.5386 108.564 46.749C108.836 46.9595 109.2 47.0773 109.656 47.1023C110.175 47.1308 110.593 47.0433 110.91 46.8399C111.231 46.6335 111.4 46.3746 111.417 46.0632C111.431 45.8115 111.354 45.596 111.187 45.4165C111.021 45.2338 110.757 45.09 110.397 44.9851L109.205 44.6357C108.55 44.4421 108.076 44.1716 107.782 43.8242C107.492 43.4739 107.361 43.0487 107.388 42.5486C107.411 42.1397 107.546 41.7843 107.792 41.4823C108.042 41.1806 108.372 40.951 108.781 40.7936C109.194 40.6364 109.655 40.5718 110.164 40.5998C110.881 40.6391 111.436 40.8272 111.828 41.1642C112.222 41.5013 112.492 41.9326 112.637 42.4579Z" fill="#9291A5"/>
</g>
<defs>
<filter id="filter0_dd_129_1062" x="0.787109" y="0.787109" width="423.459" height="353.697" filterUnits="userSpaceOnUse" color-interpolation-filters="sRGB">
<feFlood flood-opacity="0" result="BackgroundImageFix"/>
<feColorMatrix in="SourceAlpha" type="matrix" values="0 0 0 0 0 0 0 0 0 0 0 0 0 0 0 0 0 0 127 0" result="hardAlpha"/>
<feOffset dy="8"/>
<feGaussianBlur stdDeviation="8"/>
<feColorMatrix type="matrix" values="0 0 0 0 0 0 0 0 0 0 0 0 0 0 0 0 0 0 0.08 0"/>
<feBlend mode="normal" in2="BackgroundImageFix" result="effect1_dropShadow_129_1062"/>
<feColorMatrix in="SourceAlpha" type="matrix" values="0 0 0 0 0 0 0 0 0 0 0 0 0 0 0 0 0 0 127 0" result="hardAlpha"/>
<feOffset/>
<feGaussianBlur stdDeviation="2"/>
<feColorMatrix type="matrix" values="0 0 0 0 0 0 0 0 0 0 0 0 0 0 0 0 0 0 0.04 0"/>
<feBlend mode="normal" in2="effect1_dropShadow_129_1062" result="effect2_dropShadow_129_1062"/>
<feBlend mode="normal" in="SourceGraphic" in2="effect2_dropShadow_129_1062" result="shape"/>
</filter>
<filter id="filter1_d_129_1062" x="12.3518" y="5.83025" width="400.33" height="330.567" filterUnits="userSpaceOnUse" color-interpolation-filters="sRGB">
<feFlood flood-opacity="0" result="BackgroundImageFix"/>
<feColorMatrix in="SourceAlpha" type="matrix" values="0 0 0 0 0 0 0 0 0 0 0 0 0 0 0 0 0 0 127 0" result="hardAlpha"/>
<feOffset dy="1.47843"/>
<feGaussianBlur stdDeviation="2.21765"/>
<feComposite in2="hardAlpha" operator="out"/>
<feColorMatrix type="matrix" values="0 0 0 0 0.0509804 0 0 0 0 0.0392157 0 0 0 0 0.172549 0 0 0 0.08 0"/>
<feBlend mode="normal" in2="BackgroundImageFix" result="effect1_dropShadow_129_1062"/>
<feBlend mode="normal" in="SourceGraphic" in2="effect1_dropShadow_129_1062" result="shape"/>
</filter>
<filter id="filter2_d_129_1062" x="245.22" y="148.591" width="25.7952" height="25.7946" filterUnits="userSpaceOnUse" color-interpolation-filters="sRGB">
<feFlood flood-opacity="0" result="BackgroundImageFix"/>
<feColorMatrix in="SourceAlpha" type="matrix" values="0 0 0 0 0 0 0 0 0 0 0 0 0 0 0 0 0 0 127 0" result="hardAlpha"/>
<feOffset dy="5.91373"/>
<feGaussianBlur stdDeviation="2.95686"/>
<feComposite in2="hardAlpha" operator="out"/>
<feColorMatrix type="matrix" values="0 0 0 0 0.0509804 0 0 0 0 0.0392157 0 0 0 0 0.172549 0 0 0 0.08 0"/>
<feBlend mode="normal" in2="BackgroundImageFix" result="effect1_dropShadow_129_1062"/>
<feBlend mode="normal" in="SourceGraphic" in2="effect1_dropShadow_129_1062" result="shape"/>
</filter>
</defs>
</svg>
