<svg width="512" height="242" viewBox="0 0 512 242" fill="none" xmlns="http://www.w3.org/2000/svg">
<g filter="url(#filter0_dd_124_929)">
<g filter="url(#filter1_dd_124_929)">
<g filter="url(#filter2_d_124_929)">
<rect x="21" y="99.8518" width="242" height="164.166" rx="14.5783" transform="rotate(-6.60882 21 99.8518)" fill="white"/>
</g>
<path d="M149.525 226.744L162.902 217.016L165.953 203.393L173.205 208.725L184.48 136.902L201.458 187.552L209.248 162.887L228.074 196.196L234.147 184.691L240.41 188.131L248.433 162.822" stroke="#04CE00" stroke-width="2.18675" stroke-linecap="round" stroke-linejoin="round"/>
<path d="M61.4927 194.575L59.3761 176.307L60.5464 176.171L62.663 194.439L61.4927 194.575ZM63.1789 181.977C63.0551 181.408 62.7583 180.989 62.2885 180.72C61.8186 180.452 61.2126 180.361 60.4704 180.447C59.9662 180.505 59.5486 180.626 59.2179 180.809C58.8866 180.987 58.6425 181.21 58.4856 181.479C58.3335 181.748 58.2756 182.039 58.312 182.353C58.3328 182.616 58.4139 182.838 58.5555 183.019C58.7018 183.2 58.8902 183.349 59.1209 183.467C59.3509 183.58 59.6124 183.673 59.9052 183.745C60.1974 183.812 60.5071 183.863 60.8341 183.897L62.1835 184.059C62.8376 184.128 63.4448 184.251 64.0052 184.427C64.5656 184.603 65.0609 184.842 65.4913 185.144C65.9216 185.446 66.2711 185.82 66.5398 186.267C66.8132 186.712 66.9876 187.239 67.0629 187.848C67.1617 188.743 67.0232 189.545 66.6473 190.253C66.2756 190.957 65.6873 191.539 64.8824 191.998C64.0817 192.453 63.0866 192.749 61.8973 192.887C60.7174 193.023 59.6689 192.962 58.7516 192.701C57.8391 192.441 57.0968 191.984 56.5246 191.332C55.9567 190.675 55.5999 189.822 55.4543 188.773L58.4444 188.427C58.5345 188.913 58.7222 189.306 59.0076 189.605C59.2973 189.9 59.661 190.106 60.099 190.224C60.5411 190.337 61.0286 190.362 61.5615 190.3C62.0848 190.24 62.5303 190.111 62.898 189.914C63.2705 189.717 63.5481 189.47 63.7307 189.174C63.9134 188.878 63.9843 188.554 63.9435 188.202C63.9055 187.874 63.776 187.609 63.555 187.408C63.3388 187.206 63.0361 187.049 62.6468 186.935C62.2623 186.82 61.7962 186.729 61.2485 186.663L59.6108 186.447C58.3439 186.29 57.3167 185.935 56.5293 185.38C55.7418 184.825 55.2879 184.007 55.1675 182.927C55.0602 182.042 55.2061 181.242 55.6053 180.526C56.0092 179.809 56.6083 179.216 57.4026 178.748C58.1969 178.28 59.1269 177.984 60.1925 177.861C61.2772 177.735 62.2455 177.811 63.0972 178.088C63.9537 178.365 64.6463 178.808 65.1749 179.417C65.7034 180.026 66.0253 180.765 66.1404 181.634L63.1789 181.977ZM69.5393 191.791L69.2814 189.565L73.9255 184.145C74.3184 183.666 74.6448 183.238 74.9048 182.86C75.1696 182.482 75.3615 182.12 75.4805 181.774C75.5989 181.423 75.6358 181.054 75.5911 180.669C75.5415 180.241 75.4013 179.883 75.1704 179.597C74.9389 179.305 74.6447 179.096 74.2876 178.969C73.93 178.837 73.5371 178.795 73.1089 178.845C72.6617 178.897 72.2821 179.032 71.97 179.252C71.6579 179.471 71.4311 179.76 71.2894 180.119C71.1478 180.477 71.104 180.89 71.158 181.356L68.225 181.696C68.1142 180.74 68.2345 179.885 68.5859 179.13C68.9372 178.376 69.4807 177.761 70.2162 177.285C70.9518 176.809 71.8287 176.513 72.8467 176.395C73.8934 176.273 74.8259 176.353 75.6444 176.635C76.467 176.911 77.1326 177.349 77.641 177.951C78.1495 178.553 78.4525 179.274 78.55 180.116C78.614 180.668 78.5677 181.226 78.4111 181.789C78.2593 182.351 77.9455 182.993 77.4697 183.713C76.9934 184.429 76.3062 185.301 75.4082 186.331L73.5168 188.669L73.5283 188.769L79.6654 188.058L79.9581 190.584L69.5393 191.791ZM81.3642 187.818L81.0823 185.384L86.07 175.065L88.168 174.822L88.5583 178.19L87.3166 178.334L84.1755 184.867L84.1887 184.981L92.8591 183.977L93.146 186.453L81.3642 187.818ZM88.6767 189.574L88.2931 186.263L88.2253 185.179L87.0405 174.953L89.9378 174.617L91.6311 189.232L88.6767 189.574ZM98.3288 186.431L98.3412 187.225C98.3522 187.86 98.3057 188.5 98.2019 189.143C98.1034 189.791 97.9885 190.38 97.8571 190.912C97.7306 191.442 97.627 191.859 97.5465 192.162L95.5769 192.391C95.6157 192.102 95.6678 191.698 95.733 191.179C95.7989 190.665 95.8504 190.091 95.8876 189.455C95.9248 188.819 95.9202 188.176 95.8738 187.525L95.8169 186.722L98.3288 186.431ZM104.608 172.715C105.36 172.628 106.097 172.67 106.821 172.842C107.55 173.013 108.22 173.343 108.831 173.831C109.446 174.319 109.967 175.001 110.391 175.878C110.82 176.749 111.113 177.846 111.271 179.168C111.415 180.409 111.403 181.534 111.236 182.542C111.072 183.544 110.771 184.416 110.331 185.156C109.891 185.896 109.326 186.488 108.634 186.929C107.942 187.366 107.144 187.637 106.241 187.742C105.265 187.855 104.382 187.767 103.592 187.477C102.801 187.183 102.139 186.737 101.607 186.138C101.079 185.534 100.72 184.828 100.53 184.021L103.577 183.668C103.758 184.187 104.056 184.572 104.47 184.823C104.885 185.069 105.372 185.159 105.934 185.094C106.885 184.984 107.56 184.486 107.959 183.601C108.358 182.711 108.475 181.543 108.313 180.096L108.213 180.108C108.043 180.561 107.791 180.964 107.456 181.316C107.12 181.664 106.722 181.949 106.26 182.171C105.804 182.392 105.307 182.534 104.769 182.597C103.908 182.696 103.117 182.583 102.394 182.257C101.672 181.931 101.074 181.436 100.602 180.772C100.13 180.109 99.8412 179.323 99.7359 178.414C99.6176 177.435 99.7424 176.535 100.11 175.716C100.478 174.898 101.046 174.224 101.815 173.697C102.587 173.164 103.518 172.836 104.608 172.715ZM104.911 175.139C104.43 175.194 104.015 175.358 103.666 175.63C103.321 175.901 103.062 176.242 102.887 176.653C102.718 177.063 102.663 177.506 102.723 177.981C102.779 178.462 102.934 178.882 103.188 179.244C103.446 179.599 103.771 179.87 104.164 180.056C104.561 180.237 104.997 180.299 105.473 180.244C105.83 180.203 106.153 180.098 106.442 179.93C106.731 179.761 106.974 179.547 107.17 179.288C107.371 179.024 107.518 178.73 107.611 178.406C107.703 178.082 107.729 177.746 107.689 177.399C107.631 176.938 107.472 176.527 107.214 176.166C106.955 175.806 106.624 175.531 106.221 175.341C105.818 175.152 105.382 175.084 104.911 175.139ZM119.728 186.179C118.662 186.303 117.692 186.229 116.817 185.959C115.946 185.684 115.233 185.251 114.678 184.66C114.126 184.063 113.794 183.34 113.681 182.49L116.793 182.129C116.853 182.484 117.006 182.784 117.251 183.031C117.501 183.272 117.815 183.445 118.194 183.551C118.573 183.656 118.988 183.683 119.44 183.631C119.911 183.576 120.317 183.445 120.66 183.236C121.002 183.028 121.258 182.764 121.429 182.446C121.599 182.127 121.662 181.775 121.617 181.39C121.572 180.999 121.423 180.667 121.169 180.393C120.92 180.113 120.583 179.911 120.159 179.787C119.739 179.662 119.254 179.631 118.702 179.695L117.339 179.853L117.076 177.584L118.439 177.426C118.905 177.372 119.307 177.243 119.645 177.04C119.988 176.837 120.243 176.58 120.41 176.272C120.576 175.958 120.637 175.609 120.592 175.224C120.55 174.857 120.424 174.547 120.216 174.291C120.013 174.03 119.745 173.839 119.412 173.719C119.085 173.598 118.714 173.561 118.3 173.609C117.882 173.657 117.508 173.778 117.178 173.97C116.848 174.158 116.594 174.402 116.417 174.702C116.239 175.002 116.165 175.339 116.194 175.712L113.232 176.055C113.149 175.211 113.303 174.441 113.695 173.745C114.087 173.049 114.657 172.474 115.404 172.021C116.157 171.562 117.032 171.275 118.031 171.16C119.04 171.043 119.943 171.124 120.742 171.402C121.541 171.681 122.186 172.108 122.677 172.682C123.172 173.252 123.462 173.922 123.546 174.693C123.646 175.511 123.47 176.223 123.02 176.83C122.574 177.436 121.951 177.86 121.15 178.103L121.163 178.217C122.254 178.23 123.116 178.509 123.748 179.053C124.384 179.591 124.752 180.315 124.853 181.224C124.954 182.056 124.799 182.824 124.389 183.527C123.983 184.23 123.379 184.816 122.575 185.285C121.771 185.754 120.822 186.052 119.728 186.179ZM132.974 184.644C131.909 184.768 130.938 184.695 130.063 184.425C129.193 184.15 128.479 183.716 127.924 183.125C127.373 182.528 127.041 181.805 126.928 180.955L130.039 180.595C130.099 180.949 130.252 181.25 130.498 181.496C130.748 181.737 131.062 181.91 131.44 182.016C131.819 182.122 132.234 182.148 132.686 182.096C133.157 182.041 133.564 181.91 133.906 181.701C134.249 181.493 134.505 181.23 134.675 180.911C134.846 180.592 134.909 180.24 134.864 179.855C134.819 179.465 134.669 179.132 134.416 178.858C134.166 178.578 133.83 178.376 133.405 178.252C132.986 178.127 132.5 178.096 131.948 178.16L130.585 178.318L130.322 176.049L131.685 175.891C132.152 175.837 132.554 175.709 132.892 175.505C133.235 175.302 133.489 175.046 133.656 174.737C133.822 174.424 133.883 174.074 133.839 173.689C133.796 173.323 133.671 173.012 133.463 172.756C133.259 172.495 132.991 172.305 132.659 172.184C132.332 172.063 131.961 172.026 131.547 172.074C131.128 172.123 130.754 172.243 130.424 172.436C130.094 172.623 129.84 172.867 129.663 173.168C129.486 173.468 129.411 173.804 129.44 174.177L126.479 174.52C126.395 173.676 126.55 172.906 126.941 172.21C127.333 171.514 127.903 170.939 128.651 170.486C129.403 170.028 130.279 169.741 131.278 169.625C132.286 169.508 133.19 169.589 133.989 169.868C134.788 170.146 135.433 170.573 135.923 171.148C136.418 171.717 136.708 172.387 136.793 173.159C136.892 173.976 136.717 174.689 136.267 175.295C135.821 175.901 135.197 176.326 134.396 176.568L134.409 176.682C135.501 176.695 136.362 176.974 136.994 177.518C137.63 178.057 137.999 178.78 138.099 179.69C138.2 180.522 138.046 181.289 137.636 181.993C137.23 182.695 136.625 183.281 135.821 183.75C135.018 184.22 134.069 184.518 132.974 184.644ZM143.485 181.199L143.497 181.993C143.508 182.628 143.462 183.268 143.358 183.911C143.259 184.559 143.144 185.149 143.013 185.68C142.886 186.21 142.783 186.627 142.702 186.931L140.733 187.159C140.772 186.87 140.824 186.466 140.889 185.948C140.955 185.434 141.006 184.859 141.043 184.223C141.081 183.587 141.076 182.944 141.03 182.294L140.973 181.49L143.485 181.199ZM151.646 182.604C150.418 182.741 149.327 182.562 148.372 182.065C147.423 181.567 146.644 180.778 146.037 179.696C145.434 178.613 145.043 177.273 144.862 175.673C144.677 174.08 144.756 172.694 145.097 171.517C145.442 170.339 146.021 169.406 146.834 168.719C147.65 168.027 148.67 167.61 149.892 167.468C151.115 167.327 152.201 167.5 153.149 167.988C154.102 168.475 154.882 169.253 155.488 170.32C156.093 171.383 156.485 172.712 156.665 174.306C156.851 175.909 156.772 177.307 156.428 178.499C156.089 179.691 155.514 180.637 154.703 181.339C153.892 182.04 152.873 182.462 151.646 182.604ZM151.349 180.042C152.186 179.945 152.806 179.447 153.208 178.547C153.61 177.647 153.711 176.355 153.511 174.671C153.383 173.563 153.162 172.653 152.848 171.942C152.539 171.231 152.156 170.713 151.699 170.39C151.247 170.067 150.742 169.937 150.186 170.002C149.353 170.098 148.735 170.591 148.332 171.482C147.929 172.372 147.822 173.648 148.009 175.309C148.139 176.432 148.36 177.356 148.67 178.082C148.985 178.802 149.371 179.326 149.829 179.654C150.286 179.977 150.793 180.107 151.349 180.042ZM159.195 178.8L158.913 176.367L163.901 166.048L165.999 165.805L166.389 169.173L165.147 169.317L162.006 175.85L162.019 175.964L170.69 174.959L170.977 177.435L159.195 178.8ZM166.507 180.557L166.124 177.246L166.056 176.161L164.871 165.935L167.768 165.6L169.462 180.214L166.507 180.557Z" fill="#1E1B39"/>
<path d="M107.632 202.922C107.125 203.563 106.64 204.178 106.154 204.793C105.738 205.318 105.321 205.842 104.905 206.366C104.769 206.536 104.589 206.605 104.372 206.568C104.156 206.53 104.014 206.396 103.944 206.192C103.875 205.993 103.934 205.816 104.06 205.656C104.637 204.928 105.214 204.2 105.79 203.472C106.217 202.933 106.644 202.394 107.072 201.856C107.307 201.562 107.614 201.525 107.908 201.755C108.317 202.074 108.724 202.397 109.129 202.722C109.174 202.759 109.207 202.812 109.241 202.852L111.937 199.445C111.894 199.448 111.851 199.448 111.809 199.452C111.456 199.493 111.104 199.538 110.75 199.573C110.517 199.596 110.328 199.504 110.207 199.303C110.092 199.111 110.1 198.911 110.223 198.722C110.266 198.652 110.325 198.593 110.396 198.549C110.466 198.506 110.545 198.479 110.627 198.471C111.471 198.371 112.318 198.272 113.165 198.178C113.484 198.142 113.749 198.358 113.787 198.677C113.887 199.518 113.985 200.36 114.08 201.201C114.117 201.521 113.895 201.801 113.591 201.833C113.287 201.865 113.026 201.654 112.983 201.334C112.938 200.991 112.902 200.646 112.862 200.302L112.846 200.16L112.793 200.133C112.768 200.185 112.739 200.235 112.706 200.283C111.751 201.49 110.796 202.697 109.839 203.903C109.59 204.216 109.286 204.252 108.973 204.005C108.562 203.681 108.152 203.356 107.742 203.03C107.707 203.001 107.677 202.965 107.632 202.922Z" fill="#04CE00"/>
<path d="M61.8981 210.788L61.3342 205.921L62.3025 205.809L62.8664 210.676L61.8981 210.788ZM59.7245 209.063L59.6127 208.098L64.4797 207.534L64.5914 208.499L59.7245 209.063ZM68.5543 203.801L69.4085 211.173L68.2926 211.302L67.5677 205.046L67.5245 205.051L65.8941 206.407L65.7706 205.342L67.4708 203.926L68.5543 203.801ZM73.9055 210.754C73.3895 210.814 72.9233 210.778 72.5067 210.646C72.0926 210.514 71.7558 210.305 71.4965 210.019C71.2372 209.733 71.0856 209.391 71.0419 208.992C71.0033 208.68 71.0337 208.386 71.133 208.109C71.2344 207.83 71.3877 207.59 71.593 207.388C71.798 207.185 72.037 207.043 72.3098 206.963L72.3048 206.919C71.9273 206.873 71.6105 206.71 71.3544 206.431C71.0983 206.152 70.9485 205.814 70.9051 205.418C70.859 205.041 70.9197 204.694 71.0871 204.375C71.2566 204.054 71.509 203.788 71.8445 203.576C72.1799 203.365 72.5744 203.233 73.028 203.18C73.4768 203.128 73.8876 203.168 74.2604 203.3C74.6353 203.429 74.942 203.631 75.1804 203.905C75.4186 204.176 75.5606 204.499 75.6064 204.873C75.6499 205.27 75.5777 205.633 75.3898 205.964C75.2019 206.294 74.9343 206.525 74.587 206.655L74.592 206.698C74.8736 206.714 75.135 206.798 75.3764 206.95C75.6199 207.099 75.8229 207.298 75.9855 207.547C76.1502 207.793 76.2518 208.072 76.2904 208.384C76.3341 208.782 76.2625 209.151 76.0754 209.489C75.8884 209.826 75.6072 210.107 75.2318 210.33C74.8588 210.554 74.4167 210.695 73.9055 210.754ZM73.8 209.843C74.1048 209.808 74.3629 209.727 74.5744 209.6C74.7857 209.471 74.9419 209.309 75.0432 209.112C75.1442 208.913 75.1815 208.69 75.1553 208.442C75.1231 208.186 75.0297 207.967 74.8749 207.785C74.7225 207.604 74.5282 207.469 74.2919 207.382C74.0557 207.295 73.7935 207.269 73.5055 207.302C73.2152 207.336 72.9637 207.422 72.7512 207.561C72.5387 207.7 72.379 207.875 72.2722 208.087C72.1654 208.299 72.1281 208.533 72.1603 208.789C72.1865 209.037 72.2703 209.246 72.4117 209.417C72.5553 209.585 72.7458 209.708 72.9833 209.785C73.2206 209.859 73.4928 209.879 73.8 209.843ZM73.4025 206.413C73.6473 206.384 73.8588 206.31 74.037 206.19C74.2152 206.069 74.3481 205.915 74.4358 205.728C74.5259 205.54 74.5585 205.328 74.5337 205.092C74.5046 204.862 74.426 204.667 74.298 204.507C74.1724 204.346 74.0094 204.23 73.809 204.159C73.6083 204.085 73.3831 204.062 73.1335 204.091C72.8791 204.12 72.6615 204.194 72.4806 204.312C72.3019 204.428 72.1697 204.578 72.0842 204.763C71.9986 204.948 71.9703 205.156 71.9994 205.386C72.0243 205.621 72.1009 205.821 72.2291 205.983C72.3574 206.146 72.5221 206.265 72.7231 206.342C72.9265 206.418 73.1529 206.442 73.4025 206.413ZM78.3214 210.21C78.1246 210.232 77.9474 210.182 77.7896 210.06C77.6317 209.934 77.5411 209.772 77.518 209.573C77.4952 209.376 77.5466 209.2 77.672 209.045C77.7972 208.887 77.9582 208.796 78.155 208.773C78.3518 208.751 78.5292 208.802 78.6872 208.927C78.8449 209.05 78.9352 209.209 78.958 209.406C78.9732 209.538 78.9537 209.663 78.8993 209.782C78.847 209.897 78.7706 209.993 78.6701 210.071C78.5696 210.148 78.4534 210.194 78.3214 210.21ZM82.7718 209.727C82.2774 209.784 81.826 209.75 81.4175 209.625C81.0113 209.499 80.678 209.298 80.4174 209.022C80.1589 208.743 79.998 208.404 79.9348 208.005L81.0651 207.874C81.1048 208.091 81.2 208.272 81.3506 208.418C81.5033 208.56 81.6927 208.663 81.9187 208.724C82.1447 208.785 82.3897 208.801 82.6537 208.77C82.944 208.736 83.195 208.656 83.4065 208.53C83.6204 208.403 83.7805 208.242 83.8869 208.047C83.9929 207.85 84.0322 207.633 84.0047 207.395C83.976 207.148 83.8873 206.938 83.7384 206.766C83.5916 206.591 83.3908 206.463 83.1359 206.383C82.8834 206.303 82.5868 206.283 82.246 206.322L81.6232 206.394L81.5181 205.487L82.1409 205.415C82.4145 205.383 82.6488 205.306 82.8437 205.184C83.0411 205.061 83.1885 204.906 83.2858 204.717C83.3828 204.526 83.4175 204.311 83.39 204.074C83.3636 203.846 83.2891 203.654 83.1664 203.498C83.0459 203.339 82.8864 203.222 82.6881 203.148C82.4922 203.073 82.2683 203.051 82.0163 203.08C81.7763 203.108 81.5571 203.178 81.3586 203.291C81.1622 203.401 81.0086 203.546 80.898 203.724C80.787 203.9 80.7398 204.101 80.7563 204.328L79.68 204.452C79.6458 204.053 79.7228 203.689 79.911 203.36C80.1015 203.032 80.3717 202.761 80.7216 202.548C81.0714 202.335 81.4719 202.202 81.9231 202.15C82.3959 202.095 82.8145 202.14 83.1791 202.285C83.5458 202.427 83.8404 202.64 84.0629 202.923C84.2878 203.206 84.4201 203.529 84.4597 203.891C84.5099 204.304 84.4353 204.668 84.2359 204.982C84.0389 205.297 83.7541 205.526 83.3815 205.669L83.3882 205.726C83.8863 205.744 84.288 205.895 84.5933 206.178C84.9009 206.461 85.0804 206.835 85.132 207.301C85.1814 207.706 85.1107 208.083 84.92 208.431C84.7316 208.779 84.4526 209.068 84.0828 209.298C83.7128 209.525 83.2758 209.668 82.7718 209.727ZM86.4055 207.744L86.3012 206.845L88.904 201.443L89.6131 201.361L89.7666 202.685L89.3166 202.738L87.4559 206.609L87.4625 206.666L91.8291 206.16L91.9384 207.103L86.4055 207.744ZM90.0677 208.779L89.8692 207.066L89.8288 206.655L89.2207 201.406L90.2755 201.284L91.1296 208.656L90.0677 208.779ZM97.0477 206.57L97.0027 206.181C96.9704 205.903 96.9986 205.642 97.0871 205.398C97.1777 205.151 97.3265 204.946 97.5336 204.781C97.7428 204.613 98.0069 204.511 98.3261 204.474C98.6525 204.436 98.9342 204.474 99.1711 204.587C99.408 204.701 99.5963 204.868 99.7361 205.087C99.8782 205.307 99.9655 205.556 99.9977 205.834L100.043 206.223C100.075 206.501 100.047 206.763 99.9588 207.01C99.8703 207.253 99.7227 207.459 99.5159 207.626C99.3112 207.791 99.0481 207.892 98.7265 207.929C98.4025 207.967 98.1209 207.929 97.8816 207.816C97.642 207.7 97.4512 207.534 97.3094 207.317C97.1672 207.097 97.08 206.848 97.0477 206.57ZM97.8414 206.084L97.8865 206.473C97.9104 206.679 97.9813 206.861 98.0991 207.017C98.217 207.174 98.3983 207.238 98.6431 207.209C98.8855 207.181 99.0449 207.078 99.1215 206.899C99.198 206.72 99.2243 206.527 99.2004 206.32L99.1554 205.932C99.1314 205.725 99.063 205.543 98.9499 205.386C98.8392 205.229 98.6591 205.165 98.4095 205.194C98.1696 205.221 98.0089 205.325 97.9276 205.505C97.8462 205.684 97.8175 205.877 97.8414 206.084ZM92.8511 202.78L92.8061 202.392C92.7738 202.113 92.8018 201.851 92.89 201.605C92.9807 201.358 93.1295 201.153 93.3366 200.988C93.546 200.822 93.8103 200.721 94.1295 200.684C94.4559 200.646 94.7376 200.684 94.9745 200.798C95.2114 200.912 95.3997 201.078 95.5395 201.298C95.6793 201.518 95.7653 201.767 95.7975 202.045L95.8426 202.434C95.8748 202.712 95.8468 202.974 95.7586 203.221C95.6725 203.464 95.5261 203.67 95.3193 203.837C95.1146 204.002 94.8515 204.103 94.5299 204.14C94.2035 204.178 93.9207 204.14 93.6814 204.027C93.4442 203.911 93.2546 203.744 93.1128 203.527C92.9706 203.308 92.8834 203.059 92.8511 202.78ZM93.6484 202.294L93.6935 202.683C93.7174 202.889 93.7871 203.071 93.9025 203.228C94.0204 203.384 94.2017 203.448 94.4465 203.42C94.6865 203.392 94.8447 203.289 94.9213 203.11C95.0002 202.93 95.0277 202.737 95.0038 202.531L94.9588 202.142C94.9349 201.936 94.8664 201.754 94.7533 201.597C94.6403 201.44 94.4601 201.376 94.2129 201.404C93.973 201.432 93.8123 201.536 93.731 201.715C93.652 201.895 93.6245 202.088 93.6484 202.294ZM93.8421 208.342L98.0564 200.382L98.9168 200.283L94.7024 208.242L93.8421 208.342Z" fill="#04CE00"/>
<path d="M50.6849 140.732L50.4935 139.079L58.2783 138.177L58.4697 139.83L55.5678 140.166L56.4745 147.992L54.4936 148.222L53.5868 140.396L50.6849 140.732ZM62.8187 147.398C62.0997 147.481 61.4603 147.401 60.9004 147.156C60.3432 146.908 59.8908 146.526 59.5433 146.009C59.1954 145.49 58.9793 144.866 58.895 144.138C58.8099 143.404 58.8775 142.745 59.0977 142.163C59.3176 141.578 59.6705 141.102 60.1566 140.737C60.6454 140.367 61.2493 140.141 61.9682 140.058C62.6871 139.974 63.3252 140.057 63.8824 140.305C64.4423 140.55 64.8962 140.932 65.2441 141.451C65.5916 141.967 65.8079 142.593 65.893 143.327C65.9773 144.055 65.9096 144.712 65.6897 145.297C65.4695 145.879 65.1149 146.355 64.6261 146.724C64.1401 147.09 63.5376 147.315 62.8187 147.398ZM62.651 145.87C62.978 145.832 63.2404 145.708 63.438 145.497C63.6353 145.284 63.7707 145.008 63.8442 144.671C63.9208 144.334 63.9352 143.959 63.8873 143.545C63.8394 143.132 63.7396 142.77 63.5879 142.459C63.4393 142.148 63.2445 141.911 63.0036 141.748C62.7628 141.585 62.4788 141.523 62.1517 141.561C61.8216 141.599 61.5548 141.725 61.3513 141.94C61.151 142.154 61.0125 142.429 60.9359 142.766C60.8623 143.103 60.8495 143.478 60.8974 143.892C60.9453 144.305 61.0436 144.668 61.1922 144.979C61.3439 145.289 61.5417 145.526 61.7857 145.689C62.0324 145.848 62.3208 145.908 62.651 145.87ZM70.5413 139.158L70.7129 140.639L66.4317 141.135L66.2601 139.654L70.5413 139.158ZM67.0347 137.838L69.0064 137.61L69.7742 144.238C69.7953 144.42 69.8396 144.558 69.9069 144.654C69.9739 144.746 70.0591 144.807 70.1624 144.835C70.2689 144.864 70.3885 144.87 70.5212 144.855C70.6137 144.844 70.7054 144.826 70.7962 144.799C70.8866 144.77 70.956 144.748 71.0043 144.733L71.4843 146.164C71.3892 146.207 71.2544 146.258 71.0801 146.319C70.9062 146.383 70.6917 146.434 70.4366 146.473C69.9636 146.547 69.5397 146.532 69.165 146.428C68.7934 146.324 68.4911 146.131 68.2583 145.849C68.0254 145.566 67.8835 145.192 67.8326 144.725L67.0347 137.838ZM74.692 146.018C74.2385 146.07 73.8251 146.038 73.4521 145.922C73.0786 145.803 72.7705 145.599 72.5277 145.312C72.2876 145.021 72.1403 144.641 72.086 144.172C72.0402 143.777 72.0743 143.436 72.1882 143.151C72.3022 142.866 72.4746 142.627 72.7056 142.435C72.9366 142.242 73.2061 142.086 73.5143 141.966C73.8255 141.845 74.1551 141.748 74.5029 141.673C74.9113 141.582 75.2399 141.503 75.4887 141.437C75.737 141.367 75.9138 141.287 76.0191 141.197C76.1243 141.107 76.1681 140.986 76.1506 140.835L76.1474 140.807C76.1134 140.514 75.9946 140.298 75.7909 140.159C75.5902 140.019 75.3218 139.969 74.9854 140.008C74.6306 140.049 74.3574 140.161 74.1658 140.342C73.9739 140.521 73.8575 140.731 73.8168 140.974L71.9761 141.037C72.0186 140.594 72.1574 140.2 72.3925 139.854C72.6272 139.504 72.9492 139.22 73.3584 139.001C73.7703 138.778 74.2602 138.633 74.8279 138.568C75.2229 138.522 75.6062 138.524 75.9779 138.575C76.3528 138.626 76.6918 138.732 76.9951 138.894C77.3015 139.055 77.5542 139.279 77.7531 139.566C77.9517 139.849 78.0754 140.202 78.1244 140.625L78.68 145.42L76.8101 145.636L76.6959 144.651L76.6404 144.657C76.5519 144.892 76.4219 145.106 76.2503 145.298C76.0783 145.487 75.8636 145.644 75.6062 145.771C75.3485 145.895 75.0438 145.977 74.692 146.018ZM75.099 144.592C75.3891 144.558 75.6386 144.471 75.8475 144.331C76.0561 144.188 76.2122 144.011 76.3158 143.799C76.4194 143.587 76.4568 143.356 76.4278 143.106L76.3404 142.351C76.2833 142.398 76.2028 142.445 76.0987 142.492C75.9974 142.535 75.882 142.578 75.7525 142.621C75.6227 142.661 75.4927 142.7 75.3625 142.737C75.232 142.77 75.1136 142.801 75.0074 142.829C74.7799 142.89 74.5841 142.967 74.4199 143.062C74.2557 143.156 74.1331 143.271 74.0521 143.409C73.9707 143.544 73.9408 143.703 73.9622 143.888C73.9933 144.157 74.1143 144.351 74.3251 144.47C74.5387 144.586 74.7966 144.627 75.099 144.592ZM81.0831 135.535L82.1813 145.014L80.2096 145.243L79.1114 135.764L81.0831 135.535ZM90.0331 144.245C89.3018 144.33 88.6552 144.255 88.0932 144.02C87.534 143.781 87.0808 143.405 86.7337 142.892C86.3862 142.376 86.169 141.742 86.0821 140.993C85.9974 140.261 86.065 139.603 86.2849 139.018C86.5048 138.433 86.8545 137.956 87.334 137.588C87.8166 137.219 88.4066 136.994 89.1039 136.914C89.5729 136.859 90.0183 136.884 90.44 136.989C90.8645 137.09 91.2452 137.272 91.5823 137.537C91.9224 137.8 92.2036 138.149 92.4259 138.583C92.6478 139.014 92.7938 139.532 92.8638 140.137L92.9266 140.678L86.9237 141.374L86.7821 140.152L90.929 139.671C90.8962 139.387 90.8053 139.143 90.6565 138.938C90.5077 138.734 90.3166 138.582 90.0832 138.484C89.8526 138.383 89.5938 138.349 89.3068 138.382C89.0075 138.416 88.7502 138.517 88.5349 138.682C88.3223 138.844 88.1646 139.049 88.0618 139.295C87.9587 139.539 87.9219 139.801 87.9513 140.082L88.0859 141.244C88.1266 141.595 88.2267 141.892 88.3859 142.133C88.5483 142.374 88.7578 142.549 89.0146 142.66C89.2713 142.771 89.5648 142.808 89.8949 142.77C90.114 142.744 90.311 142.69 90.4859 142.607C90.6608 142.524 90.8059 142.414 90.9212 142.275C91.0365 142.137 91.1177 141.974 91.1648 141.787L93.0023 141.697C92.9605 142.145 92.8151 142.55 92.566 142.91C92.3197 143.267 91.9818 143.563 91.5525 143.797C91.1258 144.028 90.6193 144.177 90.0331 144.245ZM96.6094 143.478C96.1558 143.531 95.7425 143.499 95.3694 143.383C94.996 143.264 94.6878 143.06 94.445 142.772C94.2049 142.481 94.0577 142.101 94.0033 141.632C93.9576 141.237 93.9916 140.897 94.1056 140.612C94.2195 140.327 94.3919 140.088 94.6229 139.895C94.8539 139.703 95.1235 139.546 95.4316 139.426C95.7429 139.306 96.0724 139.208 96.4202 139.134C96.8287 139.042 97.1573 138.964 97.406 138.897C97.6544 138.828 97.8312 138.748 97.9364 138.658C98.0416 138.567 98.0855 138.447 98.0679 138.295L98.0647 138.268C98.0308 137.975 97.9119 137.758 97.7082 137.619C97.5076 137.48 97.2391 137.43 96.9028 137.469C96.5479 137.51 96.2747 137.621 96.0831 137.803C95.8912 137.982 95.7749 138.192 95.7342 138.434L93.8934 138.498C93.936 138.055 94.0747 137.66 94.3098 137.314C94.5445 136.965 94.8665 136.681 95.2757 136.461C95.6877 136.238 96.1775 136.094 96.7453 136.028C97.1402 135.983 97.5235 135.985 97.8953 136.036C98.2701 136.086 98.6092 136.192 98.9125 136.354C99.2188 136.516 99.4715 136.74 99.6704 137.026C99.869 137.31 99.9928 137.663 100.042 138.085L100.597 142.88L98.7275 143.097L98.6132 142.111L98.5577 142.118C98.4693 142.353 98.3392 142.567 98.1676 142.759C97.9956 142.947 97.7809 143.105 97.5236 143.232C97.2658 143.355 96.9611 143.438 96.6094 143.478ZM97.0164 142.052C97.3064 142.019 97.5559 141.932 97.7648 141.792C97.9734 141.649 98.1295 141.472 98.2331 141.259C98.3367 141.047 98.3741 140.816 98.3451 140.566L98.2577 139.812C98.2007 139.859 98.1201 139.906 98.016 139.952C97.9147 139.995 97.7993 140.039 97.6698 140.082C97.54 140.122 97.41 140.16 97.2798 140.197C97.1493 140.231 97.0309 140.262 96.9247 140.29C96.6973 140.351 96.5014 140.428 96.3372 140.522C96.173 140.616 96.0504 140.732 95.9694 140.87C95.888 141.004 95.8581 141.164 95.8795 141.349C95.9106 141.618 96.0316 141.812 96.2424 141.931C96.456 142.047 96.714 142.087 97.0164 142.052ZM102.127 142.703L101.303 135.594L103.215 135.373L103.358 136.613L103.433 136.604C103.511 136.148 103.69 135.79 103.969 135.529C104.248 135.265 104.587 135.11 104.985 135.064C105.084 135.053 105.191 135.047 105.306 135.046C105.422 135.045 105.524 135.05 105.613 135.062L105.816 136.811C105.72 136.794 105.589 136.785 105.423 136.782C105.257 136.779 105.106 136.786 104.97 136.801C104.68 136.835 104.428 136.928 104.215 137.081C104.004 137.231 103.845 137.424 103.738 137.662C103.634 137.899 103.599 138.163 103.633 138.453L104.099 142.475L102.127 142.703ZM108.955 137.747L109.432 141.857L107.46 142.085L106.636 134.976L108.515 134.759L108.661 136.013L108.744 136.003C108.853 135.571 109.079 135.214 109.422 134.93C109.764 134.644 110.199 134.47 110.726 134.409C111.22 134.351 111.663 134.409 112.055 134.583C112.447 134.756 112.768 135.032 113.019 135.409C113.268 135.784 113.425 136.247 113.489 136.8L114.014 141.326L112.042 141.554L111.558 137.38C111.511 136.944 111.361 136.618 111.107 136.4C110.853 136.179 110.529 136.092 110.134 136.138C109.868 136.168 109.641 136.253 109.45 136.39C109.263 136.528 109.125 136.713 109.036 136.945C108.95 137.174 108.923 137.441 108.955 137.747ZM118.823 140.909C118.092 140.994 117.446 140.919 116.884 140.684C116.324 140.445 115.871 140.069 115.524 139.556C115.177 139.04 114.959 138.407 114.872 137.657C114.788 136.926 114.855 136.268 115.075 135.682C115.295 135.097 115.645 134.62 116.124 134.252C116.607 133.884 117.197 133.659 117.894 133.578C118.363 133.524 118.809 133.549 119.23 133.653C119.655 133.754 120.036 133.937 120.373 134.201C120.713 134.465 120.994 134.814 121.216 135.248C121.438 135.678 121.584 136.196 121.654 136.801L121.717 137.342L115.714 138.038L115.572 136.816L119.719 136.336C119.687 136.052 119.596 135.807 119.447 135.603C119.298 135.398 119.107 135.246 118.874 135.148C118.643 135.047 118.384 135.013 118.097 135.046C117.798 135.081 117.541 135.181 117.325 135.347C117.113 135.509 116.955 135.713 116.852 135.96C116.749 136.203 116.712 136.465 116.742 136.746L116.876 137.908C116.917 138.26 117.017 138.556 117.176 138.797C117.339 139.038 117.548 139.214 117.805 139.325C118.062 139.436 118.355 139.472 118.685 139.434C118.904 139.408 119.101 139.354 119.276 139.272C119.451 139.189 119.596 139.078 119.712 138.94C119.827 138.801 119.908 138.639 119.955 138.452L121.793 138.361C121.751 138.81 121.605 139.214 121.356 139.575C121.11 139.932 120.772 140.227 120.343 140.461C119.916 140.692 119.41 140.842 118.823 140.909ZM125.99 140.056C125.45 140.118 124.945 140.036 124.475 139.809C124.007 139.579 123.614 139.207 123.295 138.693C122.978 138.177 122.774 137.522 122.682 136.729C122.588 135.914 122.641 135.222 122.84 134.651C123.04 134.078 123.341 133.632 123.745 133.313C124.152 132.991 124.616 132.799 125.138 132.739C125.536 132.693 125.875 132.722 126.156 132.827C126.44 132.929 126.675 133.07 126.862 133.252C127.052 133.43 127.201 133.61 127.309 133.791L127.369 133.784L126.956 130.22L128.924 129.993L130.022 139.471L128.078 139.697L127.946 138.558L127.863 138.568C127.793 138.776 127.684 138.987 127.537 139.201C127.393 139.412 127.194 139.596 126.94 139.753C126.689 139.911 126.373 140.011 125.99 140.056ZM126.433 138.414C126.751 138.377 127.009 138.26 127.208 138.062C127.41 137.86 127.551 137.595 127.632 137.267C127.716 136.938 127.733 136.563 127.685 136.14C127.636 135.717 127.534 135.357 127.381 135.059C127.228 134.761 127.03 134.54 126.788 134.396C126.546 134.252 126.267 134.198 125.949 134.235C125.625 134.272 125.362 134.392 125.16 134.594C124.958 134.795 124.818 135.058 124.74 135.383C124.662 135.708 124.647 136.076 124.695 136.486C124.743 136.9 124.842 137.259 124.993 137.563C125.147 137.864 125.343 138.092 125.583 138.245C125.826 138.396 126.109 138.452 126.433 138.414Z" fill="#1E1B39"/>
<path d="M53.2746 124.057C53.1892 123.697 52.9812 123.434 52.6506 123.268C52.3201 123.102 51.9316 123.045 51.4853 123.097C51.1589 123.135 50.8794 123.221 50.6469 123.355C50.4167 123.488 50.244 123.656 50.1286 123.856C50.0156 124.057 49.9727 124.274 50 124.509C50.0228 124.706 50.0892 124.87 50.1992 125.001C50.3113 125.129 50.4472 125.231 50.6068 125.307C50.7662 125.381 50.9309 125.439 51.101 125.48C51.2709 125.519 51.4263 125.548 51.5673 125.568L52.3394 125.683C52.5372 125.711 52.7589 125.756 53.0044 125.818C53.2522 125.879 53.4931 125.974 53.7268 126.102C53.9627 126.228 54.1653 126.402 54.3344 126.623C54.5035 126.844 54.6081 127.128 54.6481 127.473C54.6943 127.872 54.6316 128.244 54.46 128.589C54.2909 128.935 54.0181 129.225 53.6417 129.461C53.2677 129.697 52.7975 129.847 52.2312 129.913C51.7032 129.974 51.2362 129.942 50.83 129.816C50.4263 129.69 50.0964 129.488 49.8403 129.208C49.5866 128.929 49.422 128.589 49.3465 128.19L50.268 128.083C50.3243 128.358 50.4446 128.578 50.6289 128.741C50.8153 128.902 51.0397 129.012 51.302 129.072C51.5664 129.129 51.845 129.14 52.1377 129.106C52.4785 129.067 52.7781 128.976 53.0365 128.835C53.2946 128.69 53.4913 128.509 53.6267 128.292C53.7617 128.072 53.8136 127.828 53.7825 127.559C53.7541 127.314 53.6627 127.123 53.5081 126.985C53.3535 126.847 53.159 126.743 52.9247 126.673C52.6904 126.603 52.4395 126.547 52.172 126.505L51.2348 126.351C50.6396 126.252 50.1563 126.069 49.7847 125.8C49.4131 125.532 49.1986 125.15 49.141 124.653C49.0932 124.24 49.1631 123.867 49.3507 123.534C49.5404 123.198 49.815 122.923 50.1744 122.709C50.536 122.492 50.9519 122.356 51.4223 122.302C51.8975 122.247 52.3297 122.283 52.719 122.411C53.1081 122.536 53.4276 122.732 53.6775 123C53.9298 123.267 54.0835 123.586 54.1386 123.957L53.2746 124.057ZM57.9967 123.51L58.0801 124.23L55.2146 124.562L55.1312 123.842L57.9967 123.51ZM55.8129 122.421L56.6624 122.322L57.273 127.592C57.3008 127.832 57.3565 128.008 57.44 128.12C57.5256 128.229 57.626 128.298 57.7411 128.326C57.8583 128.351 57.9794 128.357 58.1042 128.342C58.1978 128.331 58.274 128.318 58.3329 128.301C58.3915 128.282 58.4384 128.267 58.4735 128.256L58.7347 128.999C58.6796 129.027 58.6018 129.058 58.5011 129.092C58.4006 129.128 58.2712 129.155 58.1129 129.173C57.8729 129.201 57.6317 129.176 57.3894 129.1C57.1494 129.023 56.9416 128.888 56.766 128.694C56.5927 128.5 56.4874 128.243 56.4502 127.921L55.8129 122.421ZM61.5573 128.832C61.2069 128.873 60.8813 128.844 60.5804 128.745C60.2793 128.644 60.0301 128.477 59.8329 128.244C59.6355 128.009 59.5159 127.712 59.4742 127.352C59.4375 127.035 59.4701 126.771 59.5721 126.56C59.6738 126.346 59.8225 126.171 60.0183 126.034C60.214 125.897 60.4346 125.786 60.6802 125.702C60.9279 125.615 61.1782 125.539 61.4311 125.476C61.7621 125.394 62.0307 125.33 62.237 125.284C62.4454 125.236 62.5944 125.178 62.684 125.112C62.776 125.045 62.8141 124.944 62.7983 124.807L62.7949 124.778C62.7538 124.423 62.6246 124.158 62.4074 123.984C62.1926 123.809 61.8896 123.745 61.4985 123.79C61.0929 123.837 60.7852 123.963 60.5754 124.167C60.3656 124.371 60.2256 124.58 60.1553 124.792L59.3156 124.598C59.4207 124.245 59.5823 123.961 59.8006 123.746C60.0211 123.528 60.2698 123.366 60.5467 123.258C60.8258 123.148 61.1045 123.077 61.3829 123.045C61.5605 123.024 61.767 123.022 62.0024 123.039C62.2399 123.052 62.4742 123.112 62.7052 123.216C62.9386 123.32 63.1424 123.495 63.3167 123.74C63.491 123.985 63.6036 124.327 63.6545 124.766L64.0766 128.409L63.227 128.508L63.1403 127.759L63.0971 127.764C63.0534 127.89 62.9723 128.03 62.8537 128.182C62.7352 128.335 62.5699 128.472 62.3578 128.594C62.1457 128.715 61.8789 128.795 61.5573 128.832ZM61.5985 128.054C61.9345 128.015 62.21 127.916 62.4251 127.758C62.6426 127.599 62.7981 127.408 62.8915 127.186C62.9873 126.963 63.0218 126.736 62.9951 126.506L62.905 125.728C62.874 125.776 62.7994 125.825 62.6812 125.875C62.5651 125.922 62.4294 125.968 62.2741 126.013C62.1209 126.055 61.971 126.095 61.8244 126.131C61.68 126.165 61.5628 126.193 61.473 126.215C61.2556 126.27 61.0546 126.341 60.8701 126.428C60.6878 126.512 60.5452 126.625 60.4423 126.765C60.3416 126.903 60.3037 127.081 60.3287 127.297C60.3629 127.592 60.498 127.802 60.7339 127.928C60.9719 128.051 61.2601 128.093 61.5985 128.054ZM67.3912 122.422L67.4746 123.142L64.6092 123.474L64.5258 122.754L67.3912 122.422ZM65.2074 121.332L66.057 121.234L66.6676 126.504C66.6954 126.744 66.751 126.92 66.8345 127.032C66.9202 127.141 67.0205 127.209 67.1357 127.237C67.2529 127.263 67.3739 127.268 67.4987 127.254C67.5923 127.243 67.6685 127.229 67.7274 127.213C67.786 127.194 67.8329 127.179 67.8681 127.167L68.1293 127.91C68.0742 127.939 67.9963 127.97 67.8956 128.003C67.7952 128.039 67.6658 128.066 67.5074 128.085C67.2674 128.112 67.0263 128.088 66.7839 128.012C66.544 127.935 66.3362 127.8 66.1605 127.606C65.9873 127.412 65.882 127.154 65.8447 126.833L65.2074 121.332ZM69.3098 127.803L68.6691 122.274L69.5187 122.175L70.1593 127.704L69.3098 127.803ZM68.9943 121.302C68.8288 121.321 68.6794 121.281 68.5464 121.182C68.4157 121.083 68.3412 120.954 68.3228 120.796C68.3045 120.638 68.3476 120.495 68.4521 120.369C68.559 120.242 68.6953 120.169 68.8609 120.15C69.0265 120.131 69.1746 120.171 69.3053 120.27C69.4383 120.369 69.514 120.497 69.5324 120.656C69.5507 120.814 69.5064 120.957 69.3995 121.084C69.295 121.21 69.1599 121.283 68.9943 121.302ZM75.1347 122.779L74.3966 123.084C74.3339 122.962 74.2488 122.847 74.1413 122.738C74.0359 122.626 73.8994 122.539 73.7319 122.479C73.5643 122.418 73.3569 122.402 73.1097 122.43C72.7713 122.469 72.4984 122.58 72.2909 122.762C72.0855 122.942 71.9966 123.15 72.0241 123.388C72.0486 123.599 72.1447 123.757 72.3124 123.861C72.4802 123.966 72.732 124.04 73.0679 124.084L73.912 124.191C74.4202 124.253 74.8099 124.394 75.0809 124.613C75.3517 124.83 75.5094 125.132 75.5542 125.518C75.5909 125.835 75.5325 126.128 75.379 126.399C75.228 126.67 74.9988 126.896 74.6915 127.077C74.3842 127.259 74.0157 127.374 73.5862 127.424C73.0222 127.489 72.5412 127.421 72.1433 127.219C71.7454 127.017 71.4699 126.687 71.3171 126.228L72.1 125.933C72.2113 126.221 72.3824 126.428 72.6132 126.552C72.8464 126.676 73.137 126.717 73.485 126.677C73.881 126.631 74.1856 126.511 74.399 126.316C74.6144 126.118 74.7084 125.9 74.6808 125.663C74.6586 125.471 74.5728 125.318 74.4234 125.204C74.2737 125.087 74.0559 125.013 73.77 124.98L72.8234 124.871C72.3032 124.81 71.9096 124.667 71.6428 124.443C71.3782 124.215 71.2238 123.911 71.1795 123.529C71.1434 123.217 71.199 122.931 71.3464 122.671C71.4962 122.41 71.7155 122.194 72.0045 122.022C72.2958 121.85 72.6359 121.741 73.0246 121.696C73.5718 121.633 74.0153 121.703 74.3551 121.907C74.6973 122.11 74.9572 122.401 75.1347 122.779ZM78.7755 121.103L78.859 121.823L75.9935 122.155L75.9101 121.435L78.7755 121.103ZM76.5918 120.013L77.4413 119.915L78.0519 125.185C78.0797 125.425 78.1354 125.601 78.2189 125.713C78.3045 125.822 78.4049 125.89 78.52 125.919C78.6372 125.944 78.7583 125.949 78.883 125.935C78.9766 125.924 79.0529 125.91 79.1118 125.894C79.1704 125.875 79.2173 125.86 79.2524 125.848L79.5136 126.591C79.4585 126.62 79.3806 126.651 79.2799 126.684C79.1795 126.72 79.0501 126.747 78.8917 126.766C78.6518 126.793 78.4106 126.769 78.1683 126.693C77.9283 126.616 77.7205 126.481 77.5448 126.287C77.3716 126.093 77.2663 125.835 77.2291 125.514L76.5918 120.013ZM80.6941 126.484L80.0535 120.955L80.903 120.856L81.5436 126.385L80.6941 126.484ZM80.3787 119.983C80.2131 120.002 80.0638 119.962 79.9307 119.863C79.8 119.764 79.7255 119.635 79.7072 119.477C79.6888 119.319 79.7319 119.176 79.8364 119.05C79.9434 118.923 80.0796 118.85 80.2452 118.831C80.4108 118.812 80.5589 118.852 80.6896 118.951C80.8227 119.05 80.8984 119.178 80.9167 119.337C80.9351 119.495 80.8908 119.638 80.7839 119.765C80.6793 119.891 80.5443 119.964 80.3787 119.983ZM85.3593 126.06C84.8409 126.12 84.3803 126.049 83.9776 125.848C83.5749 125.647 83.2478 125.343 82.9965 124.937C82.7451 124.53 82.5874 124.051 82.5235 123.499C82.4584 122.938 82.5042 122.43 82.6608 121.977C82.8196 121.521 83.0709 121.15 83.4148 120.864C83.7608 120.576 84.1834 120.403 84.6826 120.345C85.0713 120.3 85.4301 120.332 85.7587 120.439C86.0874 120.547 86.3663 120.719 86.5955 120.955C86.8248 121.191 86.9834 121.48 87.0714 121.82L86.2219 121.918C86.1279 121.673 85.958 121.467 85.7123 121.298C85.4687 121.127 85.1598 121.063 84.7854 121.107C84.4542 121.145 84.1738 121.265 83.9443 121.467C83.7168 121.666 83.5516 121.929 83.4485 122.258C83.3476 122.583 83.3213 122.954 83.3697 123.372C83.4192 123.799 83.5295 124.163 83.7006 124.465C83.8741 124.766 84.0946 124.989 84.3621 125.136C84.6319 125.282 84.9349 125.336 85.2709 125.297C85.4916 125.271 85.6876 125.21 85.8587 125.112C86.0298 125.014 86.1694 124.886 86.2775 124.728C86.3856 124.569 86.4544 124.386 86.4838 124.179L87.3334 124.08C87.3232 124.412 87.2384 124.72 87.0792 125.003C86.922 125.284 86.6975 125.519 86.4057 125.709C86.1161 125.896 85.7672 126.013 85.3593 126.06Z" fill="#9291A5"/>
</g>
<g filter="url(#filter3_d_124_929)">
<rect x="260.729" y="30" width="283.535" height="227.94" rx="11.119" transform="rotate(7.49394 260.729 30)" fill="white"/>
</g>
<path d="M267.648 235.249L268.46 235.356L269.754 240.266L269.82 240.274L272.34 235.867L273.151 235.973L272.413 241.586L271.777 241.502L272.338 237.238L272.283 237.231L269.968 241.264L269.355 241.183L268.162 236.689L268.107 236.681L267.546 240.945L266.91 240.862L267.648 235.249ZM279.343 239.642C279.265 240.234 279.091 240.732 278.82 241.135C278.55 241.538 278.213 241.832 277.81 242.017C277.406 242.201 276.965 242.262 276.486 242.199C276.008 242.136 275.598 241.964 275.256 241.681C274.914 241.398 274.664 241.027 274.507 240.567C274.35 240.108 274.311 239.583 274.388 238.991C274.466 238.399 274.64 237.901 274.911 237.498C275.181 237.095 275.518 236.801 275.922 236.617C276.325 236.432 276.766 236.371 277.245 236.434C277.724 236.497 278.134 236.67 278.476 236.952C278.818 237.235 279.067 237.606 279.224 238.066C279.381 238.525 279.421 239.051 279.343 239.642ZM278.685 239.556C278.749 239.07 278.722 238.649 278.603 238.293C278.486 237.938 278.301 237.656 278.048 237.448C277.797 237.24 277.501 237.114 277.161 237.07C276.821 237.025 276.502 237.07 276.204 237.206C275.907 237.341 275.656 237.566 275.449 237.879C275.244 238.192 275.11 238.591 275.046 239.077C274.982 239.563 275.009 239.984 275.125 240.339C275.244 240.695 275.429 240.977 275.68 241.185C275.934 241.393 276.23 241.519 276.57 241.564C276.91 241.608 277.228 241.563 277.525 241.427C277.823 241.292 278.075 241.067 278.28 240.754C278.486 240.441 278.621 240.042 278.685 239.556ZM285.768 237.633L285.03 243.245L284.372 243.159L281.894 238.35L281.839 238.343L281.259 242.749L280.58 242.66L281.318 237.048L281.976 237.134L284.464 241.955L284.518 241.962L285.1 237.545L285.768 237.633Z" fill="#615E83"/>
<path d="M304.73 240.741L304.809 240.138L309.018 240.691L308.939 241.294L307.174 241.062L306.515 246.072L305.836 245.982L306.494 240.973L304.73 240.741ZM314.213 241.375L314.893 241.464L314.404 245.18C314.353 245.564 314.218 245.894 313.997 246.172C313.779 246.448 313.495 246.651 313.145 246.782C312.795 246.911 312.4 246.946 311.96 246.888C311.52 246.83 311.148 246.694 310.843 246.479C310.539 246.263 310.316 245.993 310.175 245.669C310.035 245.344 309.991 244.99 310.041 244.606L310.53 240.89L311.21 240.98L310.728 244.641C310.692 244.915 310.72 245.167 310.813 245.396C310.905 245.624 311.055 245.814 311.262 245.966C311.471 246.116 311.731 246.211 312.044 246.252C312.356 246.293 312.633 246.269 312.873 246.178C313.114 246.085 313.308 245.94 313.454 245.744C313.603 245.546 313.695 245.31 313.731 245.036L314.213 241.375ZM315.975 247.316L316.713 241.704L320.1 242.149L320.021 242.752L317.313 242.396L317.064 244.292L319.596 244.625L319.517 245.228L316.984 244.895L316.734 246.802L319.485 247.164L319.406 247.767L315.975 247.316Z" fill="#615E83"/>
<path d="M260.927 223.331C260.515 223.276 260.178 223.118 259.917 222.855C259.656 222.59 259.477 222.233 259.38 221.783C259.283 221.332 259.275 220.801 259.356 220.191C259.435 219.585 259.58 219.077 259.79 218.668C260.002 218.257 260.268 217.957 260.589 217.769C260.911 217.579 261.277 217.511 261.686 217.565C262.095 217.619 262.43 217.779 262.69 218.046C262.953 218.311 263.133 218.669 263.229 219.12C263.328 219.57 263.338 220.098 263.258 220.705C263.178 221.315 263.032 221.825 262.822 222.236C262.612 222.645 262.347 222.944 262.027 223.132C261.707 223.319 261.34 223.385 260.927 223.331ZM261.007 222.728C261.416 222.782 261.76 222.626 262.038 222.261C262.317 221.897 262.504 221.349 262.6 220.618C262.664 220.132 262.666 219.711 262.607 219.356C262.55 219.001 262.436 218.721 262.266 218.517C262.098 218.312 261.878 218.192 261.608 218.157C261.202 218.104 260.859 218.262 260.578 218.632C260.297 219 260.109 219.549 260.013 220.278C259.949 220.764 259.946 221.183 260.004 221.537C260.061 221.89 260.174 222.168 260.343 222.37C260.513 222.573 260.735 222.692 261.007 222.728Z" fill="#615E83"/>
<path d="M262.348 188.154L261.609 193.766L260.93 193.677L261.574 188.777L261.541 188.773L260.052 189.502L260.142 188.812L261.668 188.065L262.348 188.154ZM264.039 192.525L264.133 191.723L264.265 191.74L266.353 190.108L267.153 190.214L264.93 191.94L264.875 191.932L264.039 192.525ZM263.234 193.98L263.973 188.368L264.619 188.453L263.881 194.065L263.234 193.98ZM265.909 194.332L264.539 192.033L265.058 191.644L266.731 194.44L265.909 194.332Z" fill="#615E83"/>
<path d="M262.264 164.277L262.329 163.783L264.448 161.999C264.697 161.79 264.903 161.607 265.067 161.451C265.231 161.292 265.357 161.139 265.445 160.993C265.535 160.845 265.591 160.685 265.614 160.513C265.64 160.316 265.615 160.139 265.539 159.982C265.465 159.826 265.351 159.697 265.199 159.597C265.047 159.497 264.869 159.434 264.667 159.407C264.451 159.379 264.257 159.399 264.084 159.467C263.914 159.534 263.774 159.641 263.666 159.789C263.559 159.936 263.492 160.117 263.464 160.331L262.817 160.246C262.86 159.917 262.974 159.638 263.158 159.41C263.342 159.181 263.574 159.015 263.854 158.91C264.135 158.806 264.439 158.775 264.766 158.818C265.095 158.862 265.378 158.969 265.613 159.142C265.849 159.314 266.023 159.527 266.137 159.782C266.25 160.037 266.288 160.308 266.25 160.597C266.223 160.803 266.159 161 266.058 161.188C265.959 161.374 265.802 161.575 265.588 161.792C265.376 162.008 265.086 162.267 264.719 162.57L263.281 163.753L263.275 163.796L265.884 164.14L265.805 164.742L262.264 164.277ZM267.752 163.437L267.847 162.636L267.978 162.653L270.066 161.021L270.866 161.126L268.643 162.852L268.588 162.845L267.752 163.437ZM266.948 164.893L267.686 159.281L268.333 159.366L267.594 164.978L266.948 164.893ZM269.622 165.245L268.252 162.946L268.771 162.557L270.444 165.353L269.622 165.245Z" fill="#615E83"/>
<path d="M268.726 135.629C268.364 135.581 268.05 135.476 267.783 135.315C267.518 135.154 267.317 134.952 267.18 134.709C267.045 134.464 266.989 134.194 267.013 133.898L267.704 133.989C267.695 134.172 267.736 134.336 267.829 134.482C267.921 134.626 268.051 134.745 268.219 134.84C268.387 134.934 268.579 134.996 268.794 135.024C269.035 135.056 269.255 135.042 269.452 134.983C269.65 134.923 269.811 134.825 269.937 134.689C270.062 134.554 270.138 134.387 270.164 134.19C270.191 133.983 270.164 133.795 270.082 133.624C270.001 133.452 269.868 133.308 269.682 133.192C269.497 133.077 269.261 133 268.976 132.963L268.527 132.904L268.606 132.301L269.056 132.36C269.278 132.389 269.479 132.375 269.658 132.317C269.838 132.259 269.986 132.163 270.1 132.029C270.216 131.896 270.287 131.73 270.313 131.533C270.338 131.343 270.318 131.172 270.252 131.02C270.187 130.869 270.082 130.743 269.939 130.645C269.798 130.546 269.624 130.483 269.418 130.456C269.224 130.431 269.037 130.442 268.855 130.491C268.676 130.538 268.524 130.621 268.399 130.74C268.274 130.858 268.194 131.009 268.161 131.194L267.503 131.108C267.553 130.815 267.675 130.569 267.871 130.37C268.066 130.169 268.306 130.024 268.591 129.935C268.878 129.846 269.183 129.823 269.506 129.866C269.853 129.911 270.142 130.021 270.372 130.194C270.602 130.366 270.769 130.575 270.872 130.82C270.976 131.066 271.01 131.322 270.975 131.587C270.933 131.903 270.815 132.161 270.619 132.362C270.426 132.563 270.181 132.688 269.887 132.737L269.881 132.781C270.228 132.886 270.485 133.073 270.652 133.342C270.819 133.61 270.88 133.921 270.833 134.278C270.793 134.583 270.674 134.846 270.475 135.067C270.279 135.286 270.029 135.447 269.726 135.548C269.423 135.65 269.09 135.676 268.726 135.629ZM272.569 134.495L272.663 133.693L272.795 133.711L274.883 132.078L275.683 132.184L273.46 133.91L273.405 133.902L272.569 134.495ZM271.764 135.95L272.502 130.338L273.149 130.423L272.411 136.035L271.764 135.95ZM274.439 136.302L273.069 134.003L273.588 133.614L275.261 136.41L274.439 136.302Z" fill="#615E83"/>
<path d="M270.646 105.056L270.72 104.497L273.699 100.919L274.105 100.973L273.991 101.839L273.717 101.803L271.466 104.506L271.46 104.55L274.781 104.987L274.702 105.59L270.646 105.056ZM273.136 106.555L273.31 105.234L273.344 104.973L273.875 100.942L274.521 101.027L273.783 106.64L273.136 106.555ZM276.393 105.422L276.487 104.62L276.619 104.638L278.707 103.005L279.507 103.111L277.284 104.837L277.229 104.829L276.393 105.422ZM275.588 106.877L276.327 101.265L276.973 101.35L276.235 106.962L275.588 106.877ZM278.263 107.229L276.893 104.93L277.412 104.541L279.085 107.337L278.263 107.229Z" fill="#615E83"/>
<line x1="284.514" y1="105.687" x2="506.655" y2="134.909" stroke="#E5E5EF" stroke-width="0.833927" stroke-linecap="round" stroke-dasharray="2.22 3.89"/>
<line x1="280.688" y1="134.768" x2="502.83" y2="163.99" stroke="#E5E5EF" stroke-width="0.833927" stroke-linecap="round" stroke-dasharray="2.22 3.89"/>
<line x1="276.863" y1="163.849" x2="499.005" y2="193.07" stroke="#E5E5EF" stroke-width="0.833927" stroke-linecap="round" stroke-dasharray="2.22 3.89"/>
<line x1="273.038" y1="192.93" x2="495.18" y2="222.151" stroke="#E5E5EF" stroke-width="0.833927" stroke-linecap="round" stroke-dasharray="2.22 3.89"/>
<line x1="268.634" y1="225.757" x2="490.775" y2="254.979" stroke="#F2F1FF" stroke-width="0.833927" stroke-linecap="round"/>
<line x1="329.746" y1="111.258" x2="313.847" y2="232.125" stroke="#E5E5EF" stroke-width="0.555951"/>
<line x1="363.486" y1="115.696" x2="347.586" y2="236.564" stroke="#E5E5EF" stroke-width="0.555951"/>
<line x1="400.527" y1="120.568" x2="384.627" y2="241.436" stroke="#E5E5EF" stroke-width="0.555951"/>
<line x1="433.16" y1="124.861" x2="417.261" y2="245.729" stroke="#E5E5EF" stroke-width="0.555951"/>
<line x1="464.692" y1="129.009" x2="448.792" y2="249.877" stroke="#E5E5EF" stroke-width="0.555951"/>
<g style="mix-blend-mode:multiply" opacity="0.33">
<path d="M439.621 217.581L464.34 162.041L499.089 196.905L491.384 255.48L268.25 226.127L283.558 109.761L308.053 215.589L345.634 205.155L378.788 227.116L423.821 187.003L439.621 217.581Z" fill="url(#paint0_linear_124_929)"/>
</g>
<path d="M498.341 196.621L463.4 162.039L438.841 217.542L422.467 186.64L377.596 227.217L344.502 205.132L307.309 215.486L284.365 110.19" stroke="#2D5BFF" stroke-width="1.66785" stroke-linecap="round" stroke-linejoin="round"/>
<path d="M326.967 210.018L344.148 205.151L359.395 214.989L356.405 237.724L323.885 233.446L326.967 210.018Z" fill="#E5EAFC"/>
<line x1="349.783" y1="162.831" x2="344.662" y2="201.762" stroke="#1E1B39" stroke-width="0.833927" stroke-linecap="round" stroke-dasharray="2.22 3.89"/>
<circle cx="344.352" cy="203.607" r="3.61368" transform="rotate(7.49394 344.352 203.607)" fill="#2D5BFF" stroke="white" stroke-width="1.1119"/>
<path d="M330.931 144.594C331.452 140.637 335.082 137.851 339.04 138.371L366.329 141.961C370.287 142.482 373.073 146.112 372.552 150.069L371.512 157.979C370.991 161.936 367.361 164.722 363.403 164.202L336.114 160.612C332.157 160.091 329.37 156.461 329.891 152.504L330.931 144.594Z" fill="#1E1B39"/>
<path d="M344.329 146.877L343.486 153.291L342.709 153.189L343.446 147.589L343.408 147.585L341.705 148.418L341.809 147.629L343.553 146.775L344.329 146.877ZM346.182 152.754L346.087 153.086C346.02 153.319 345.932 153.566 345.824 153.828C345.717 154.09 345.609 154.336 345.5 154.566C345.391 154.796 345.303 154.979 345.234 155.114L344.67 155.04C344.715 154.91 344.774 154.738 344.846 154.525C344.919 154.311 344.995 154.072 345.075 153.806C345.156 153.543 345.23 153.272 345.296 152.994L345.38 152.648L346.182 152.754ZM349.755 147.591L348.912 154.005L348.135 153.903L348.871 148.303L348.834 148.298L347.131 149.132L347.235 148.343L348.979 147.489L349.755 147.591ZM352.749 154.599C352.382 154.551 352.06 154.434 351.785 154.249C351.51 154.064 351.3 153.833 351.156 153.555C351.012 153.277 350.953 152.974 350.98 152.646L351.731 152.745C351.722 153.039 351.822 153.296 352.031 153.517C352.242 153.736 352.512 153.867 352.84 153.91C353.103 153.945 353.345 153.914 353.565 153.818C353.788 153.722 353.972 153.574 354.118 153.374C354.265 153.173 354.357 152.935 354.393 152.662C354.43 152.382 354.401 152.124 354.307 151.889C354.215 151.652 354.071 151.455 353.874 151.3C353.678 151.144 353.443 151.048 353.17 151.01C352.974 150.982 352.769 150.986 352.554 151.021C352.339 151.054 352.159 151.11 352.012 151.189L351.297 151.005L352.101 147.9L355.433 148.338L355.343 149.027L352.662 148.674L352.187 150.536L352.225 150.541C352.37 150.454 352.547 150.389 352.754 150.346C352.961 150.304 353.173 150.296 353.388 150.325C353.78 150.376 354.118 150.516 354.4 150.745C354.684 150.971 354.893 151.258 355.026 151.604C355.161 151.951 355.201 152.332 355.146 152.748C355.092 153.157 354.953 153.51 354.726 153.808C354.503 154.103 354.219 154.323 353.875 154.467C353.532 154.609 353.156 154.653 352.749 154.599ZM358.202 155.316C357.73 155.254 357.345 155.073 357.047 154.773C356.749 154.47 356.545 154.062 356.434 153.548C356.324 153.032 356.314 152.426 356.406 151.728C356.497 151.035 356.663 150.455 356.903 149.987C357.145 149.518 357.449 149.176 357.815 148.96C358.183 148.743 358.601 148.666 359.069 148.727C359.537 148.789 359.919 148.972 360.217 149.276C360.517 149.579 360.722 149.989 360.833 150.504C360.946 151.018 360.957 151.622 360.866 152.315C360.774 153.012 360.608 153.596 360.368 154.066C360.128 154.533 359.825 154.875 359.459 155.09C359.093 155.303 358.674 155.379 358.202 155.316ZM358.293 154.627C358.761 154.689 359.154 154.511 359.472 154.094C359.79 153.677 360.004 153.051 360.114 152.216C360.187 151.661 360.19 151.18 360.122 150.774C360.056 150.368 359.927 150.048 359.732 149.815C359.54 149.581 359.289 149.444 358.98 149.404C358.517 149.343 358.124 149.524 357.803 149.946C357.482 150.367 357.267 150.994 357.157 151.827C357.084 152.383 357.081 152.862 357.147 153.266C357.213 153.67 357.342 153.987 357.534 154.219C357.729 154.45 357.982 154.587 358.293 154.627Z" fill="white"/>
<line x1="271.318" y1="90.5512" x2="515.804" y2="122.712" stroke="#E5E5EF" stroke-width="0.555951"/>
<path d="M458.828 93.8581L459.873 98.8016L459.939 98.8103L462.227 94.3051L462.939 94.3988L460.14 99.74L459.438 99.6477L458.116 93.7644L458.828 93.8581ZM467.161 96.3815C467.164 96.0995 467.059 95.8664 466.846 95.6821C466.632 95.4979 466.355 95.3835 466.016 95.3388C465.767 95.3061 465.544 95.3177 465.348 95.3736C465.152 95.4297 464.994 95.5212 464.871 95.6482C464.75 95.7754 464.678 95.9285 464.654 96.1076C464.635 96.2574 464.653 96.3908 464.71 96.508C464.77 96.6236 464.851 96.7244 464.955 96.8106C465.059 96.8949 465.17 96.9681 465.289 97.0301C465.407 97.0903 465.517 97.1409 465.617 97.182L466.167 97.4105C466.308 97.4681 466.464 97.5424 466.634 97.6336C466.806 97.725 466.966 97.8399 467.115 97.9785C467.266 98.1154 467.384 98.2814 467.468 98.4765C467.552 98.6715 467.577 98.9006 467.542 99.1637C467.502 99.4669 467.387 99.7305 467.195 99.9544C467.006 100.179 466.75 100.343 466.428 100.447C466.108 100.552 465.732 100.576 465.301 100.519C464.899 100.466 464.559 100.356 464.282 100.187C464.007 100.019 463.801 99.808 463.663 99.5539C463.527 99.3 463.469 99.0181 463.487 98.7083L464.189 98.8006C464.179 99.0149 464.227 99.1997 464.333 99.3549C464.441 99.5085 464.587 99.6317 464.77 99.7245C464.955 99.8158 465.159 99.876 465.381 99.9054C465.641 99.9395 465.879 99.9281 466.097 99.8712C466.315 99.8125 466.494 99.7153 466.634 99.5795C466.775 99.4419 466.859 99.2708 466.886 99.0662C466.91 98.8798 466.878 98.7214 466.789 98.5907C466.701 98.4601 466.576 98.3471 466.416 98.2517C466.256 98.1562 466.08 98.0681 465.89 97.9874L465.226 97.6992C464.804 97.5155 464.48 97.2899 464.255 97.0224C464.03 96.7549 463.943 96.4321 463.992 96.0539C464.034 95.7397 464.155 95.4768 464.355 95.2653C464.558 95.0523 464.812 94.8998 465.118 94.8081C465.426 94.7148 465.759 94.6917 466.117 94.7388C466.479 94.7864 466.792 94.8935 467.056 95.0602C467.32 95.2251 467.52 95.4298 467.655 95.6743C467.792 95.9191 467.847 96.1836 467.819 96.468L467.161 96.3815ZM471.555 101.242L472.294 95.6293L472.973 95.7187L472.314 100.728L474.923 101.071L474.844 101.674L471.555 101.242ZM476.943 101.95L476.231 101.857L479.03 96.5155L479.731 96.6078L481.054 102.491L480.341 102.397L479.286 97.4524L479.242 97.4466L476.943 101.95ZM477.495 99.7927L480.367 100.17L480.287 100.773L477.416 100.396L477.495 99.7927ZM486.014 98.8615C486.018 98.5795 485.913 98.3464 485.699 98.1622C485.485 97.978 485.209 97.8635 484.869 97.8188C484.62 97.7861 484.398 97.7977 484.201 97.8536C484.006 97.9097 483.847 98.0012 483.724 98.1282C483.603 98.2554 483.531 98.4086 483.508 98.5876C483.488 98.7374 483.507 98.8709 483.564 98.988C483.623 99.1036 483.704 99.2045 483.808 99.2906C483.912 99.3749 484.024 99.4481 484.142 99.5101C484.26 99.5703 484.37 99.621 484.47 99.6621L485.02 99.8905C485.161 99.9481 485.317 100.022 485.487 100.114C485.659 100.205 485.819 100.32 485.968 100.459C486.12 100.595 486.237 100.761 486.321 100.957C486.405 101.152 486.43 101.381 486.395 101.644C486.355 101.947 486.24 102.211 486.049 102.434C485.859 102.659 485.604 102.823 485.281 102.927C484.961 103.032 484.585 103.056 484.154 102.999C483.752 102.946 483.412 102.836 483.135 102.667C482.86 102.499 482.654 102.288 482.516 102.034C482.381 101.78 482.322 101.498 482.34 101.188L483.042 101.281C483.032 101.495 483.08 101.68 483.186 101.835C483.294 101.989 483.44 102.112 483.623 102.205C483.808 102.296 484.012 102.356 484.235 102.385C484.494 102.42 484.733 102.408 484.95 102.351C485.168 102.293 485.347 102.195 485.487 102.06C485.628 101.922 485.712 101.751 485.739 101.546C485.763 101.36 485.731 101.201 485.643 101.071C485.554 100.94 485.429 100.827 485.269 100.732C485.109 100.636 484.934 100.548 484.743 100.467L484.079 100.179C483.657 99.9955 483.333 99.7699 483.108 99.5024C482.883 99.235 482.796 98.9121 482.846 98.534C482.887 98.2197 483.008 97.9569 483.209 97.7454C483.411 97.5323 483.666 97.3799 483.971 97.2882C484.279 97.1948 484.612 97.1717 484.97 97.2188C485.332 97.2664 485.645 97.3736 485.909 97.5403C486.174 97.7052 486.373 97.9099 486.508 98.1544C486.645 98.3991 486.7 98.6637 486.672 98.9481L486.014 98.8615ZM488.127 98.3255L488.206 97.7226L492.416 98.2763L492.336 98.8792L490.572 98.647L489.913 103.656L489.233 103.567L489.892 98.5576L488.127 98.3255ZM496.842 104.568L496.046 98.7538L496.736 98.8447L497.308 103.57L497.363 103.577L499.159 99.1633L499.926 99.2643L500.52 103.992L500.574 104L502.349 99.5829L503.039 99.6738L500.766 105.084L500.065 104.992L499.414 100.357L499.371 100.351L497.544 104.66L496.842 104.568ZM503.611 105.458L504.349 99.8461L507.736 100.292L507.657 100.894L504.949 100.538L504.7 102.435L507.232 102.768L507.153 103.371L504.62 103.038L504.37 104.945L507.121 105.307L507.042 105.91L503.611 105.458ZM508.686 106.126L509.424 100.514L512.811 100.959L512.732 101.562L510.024 101.206L509.775 103.102L512.307 103.435L512.228 104.038L509.695 103.705L509.445 105.612L512.196 105.974L512.117 106.577L508.686 106.126ZM513.761 106.793L514.499 101.181L515.179 101.271L514.812 104.055L514.878 104.064L517.765 101.611L518.653 101.728L515.964 103.95L517.915 107.34L517.093 107.232L515.485 104.366L514.68 105.063L514.44 106.883L513.761 106.793Z" fill="#615E83"/>
<circle cx="513.823" cy="91.3988" r="6.04767" transform="rotate(7.49394 513.823 91.3988)" fill="#04CE00"/>
<path d="M515.254 90.9371L515.072 91.0768C514.098 91.8245 513.123 92.5723 512.149 93.3201C511.952 93.4714 511.741 93.4825 511.548 93.3603C511.362 93.2411 511.276 93.0564 511.332 92.8541C511.377 92.7086 511.466 92.5803 511.585 92.4858C512.529 91.7477 513.483 91.0218 514.433 90.2922L514.613 90.154C514.563 90.1385 514.512 90.1256 514.461 90.1155C514.124 90.0697 513.787 90.0286 513.451 89.9801C513.184 89.942 513.025 89.7343 513.055 89.4788C513.088 89.2003 513.279 89.0357 513.558 89.0706C514.334 89.1675 515.108 89.2688 515.881 89.3745C516.194 89.4174 516.348 89.6098 516.313 89.92C516.226 90.6901 516.134 91.4595 516.035 92.2283C515.999 92.51 515.794 92.6516 515.515 92.6125C515.251 92.5753 515.1 92.3828 515.128 92.1081C515.162 91.7822 515.204 91.457 515.242 91.1314C515.248 91.08 515.248 91.029 515.254 90.9371Z" fill="white"/>
<path d="M488.5 84.5649L487.657 90.9789L486.301 90.8006L486.975 85.6737L486.937 85.6688L485.347 86.3963L485.506 85.1937L487.226 84.3973L488.5 84.5649ZM489.618 91.3198C489.411 91.2926 489.244 91.1962 489.115 91.0306C488.988 90.8631 488.938 90.676 488.965 90.4693C488.992 90.2647 489.088 90.0989 489.254 89.972C489.421 89.8453 489.608 89.7956 489.815 89.8228C490.016 89.8492 490.181 89.9453 490.312 90.1112C490.444 90.2772 490.496 90.4624 490.469 90.667C490.451 90.8049 490.398 90.9265 490.312 91.032C490.229 91.1357 490.126 91.2146 490.004 91.2686C489.883 91.3206 489.754 91.3377 489.618 91.3198ZM493.616 91.8521C493.148 91.7905 492.742 91.6554 492.398 91.4465C492.056 91.2359 491.798 90.9747 491.625 90.663C491.454 90.3495 491.39 90.0055 491.433 89.6309L492.798 89.8106C492.786 89.9683 492.819 90.1128 492.897 90.2442C492.978 90.3737 493.093 90.4813 493.243 90.5669C493.394 90.6525 493.568 90.7083 493.766 90.7344C493.973 90.7616 494.16 90.7491 494.329 90.6969C494.497 90.6447 494.634 90.5598 494.741 90.4421C494.848 90.3245 494.913 90.1811 494.935 90.012C494.957 89.8408 494.929 89.6831 494.851 89.5389C494.774 89.3929 494.652 89.2707 494.485 89.1722C494.319 89.074 494.115 89.0089 493.873 88.9771L493.275 88.8984L493.406 87.9024L494.004 87.9811C494.209 88.008 494.394 87.9963 494.56 87.9459C494.728 87.8958 494.864 87.8139 494.968 87.7001C495.073 87.5843 495.136 87.4418 495.158 87.2727C495.179 87.112 495.159 86.9659 495.098 86.8347C495.039 86.7016 494.945 86.5916 494.816 86.5045C494.69 86.4178 494.536 86.3625 494.354 86.3386C494.17 86.3144 493.998 86.3257 493.837 86.3724C493.676 86.4171 493.541 86.494 493.433 86.603C493.326 86.712 493.258 86.8475 493.23 87.0095L491.931 86.8386C491.985 86.4698 492.134 86.158 492.375 85.9031C492.617 85.6481 492.922 85.4641 493.289 85.351C493.659 85.2361 494.063 85.2075 494.502 85.2652C494.944 85.3234 495.321 85.4547 495.632 85.6592C495.943 85.8636 496.172 86.1147 496.32 86.4123C496.47 86.7082 496.521 87.0251 496.475 87.3631C496.43 87.7225 496.279 88.0074 496.022 88.2178C495.767 88.4286 495.455 88.5427 495.088 88.5601L495.081 88.6103C495.545 88.7329 495.882 88.944 496.094 89.2437C496.307 89.5415 496.387 89.8897 496.332 90.2882C496.286 90.6539 496.138 90.9647 495.888 91.2206C495.64 91.4768 495.319 91.6619 494.926 91.7759C494.533 91.8898 494.096 91.9152 493.616 91.8521ZM500.739 91.4764L500.784 91.1382C500.817 90.8814 500.903 90.6526 501.04 90.4518C501.179 90.2493 501.361 90.097 501.587 89.995C501.815 89.8912 502.081 89.8592 502.384 89.899C502.69 89.9394 502.94 90.038 503.132 90.195C503.325 90.3521 503.461 90.5463 503.539 90.7775C503.619 91.0068 503.643 91.2509 503.609 91.5098L503.564 91.848C503.53 92.1049 503.445 92.3347 503.308 92.5376C503.171 92.7383 502.988 92.8896 502.761 92.9913C502.532 93.0951 502.267 93.1271 501.964 93.0872C501.657 93.0469 501.408 92.9472 501.217 92.7882C501.025 92.6313 500.889 92.4381 500.808 92.2088C500.728 91.9774 500.705 91.7333 500.739 91.4764ZM501.695 91.2581L501.65 91.5963C501.631 91.7446 501.648 91.8891 501.702 92.03C501.758 92.1712 501.88 92.2542 502.07 92.2792C502.26 92.3042 502.398 92.2565 502.484 92.1361C502.572 92.016 502.626 91.8798 502.646 91.7273L502.691 91.3891C502.711 91.2367 502.696 91.0903 502.647 90.95C502.597 90.8097 502.474 90.7266 502.278 90.7008C502.09 90.6761 501.951 90.7247 501.861 90.8466C501.77 90.9685 501.715 91.1057 501.695 91.2581ZM497.93 87.3729L497.975 87.0347C498.009 86.7758 498.095 86.5461 498.234 86.3456C498.374 86.143 498.556 85.9908 498.782 85.8888C499.01 85.7871 499.273 85.7558 499.572 85.7951C499.881 85.8358 500.131 85.9345 500.323 86.0915C500.515 86.2484 500.65 86.4425 500.73 86.674C500.811 86.9033 500.834 87.1474 500.8 87.4063L500.755 87.7446C500.721 88.0035 500.635 88.2331 500.496 88.4336C500.359 88.6344 500.177 88.7857 499.949 88.8874C499.723 88.9873 499.458 89.0172 499.153 88.9771C498.848 88.937 498.599 88.8383 498.405 88.6811C498.214 88.5221 498.078 88.329 497.997 88.1018C497.919 87.8727 497.897 87.6298 497.93 87.3729ZM498.893 87.1554L498.848 87.4937C498.828 87.6461 498.845 87.7917 498.899 87.9305C498.955 88.0695 499.075 88.1511 499.259 88.1753C499.451 88.2006 499.59 88.153 499.676 88.0326C499.764 87.9125 499.818 87.7763 499.838 87.6238L499.882 87.2856C499.902 87.1332 499.887 86.9868 499.838 86.8465C499.788 86.7062 499.665 86.623 499.466 86.5969C499.28 86.5724 499.143 86.6223 499.055 86.7466C498.966 86.8709 498.912 87.0072 498.893 87.1554ZM497.703 92.3005L502.956 86.4665L503.777 86.5745L498.523 92.4084L497.703 92.3005Z" fill="#1E1B39"/>
<path d="M277.426 75.824C276.973 75.7614 276.545 75.6278 276.142 75.423C275.743 75.2185 275.399 74.9265 275.11 74.5468C274.821 74.1671 274.616 73.6874 274.493 73.1076C274.374 72.5282 274.367 71.8352 274.473 71.0285C274.574 70.2882 274.745 69.6376 274.988 69.0767C275.235 68.5133 275.541 68.0484 275.908 67.6819C276.277 67.3158 276.696 67.0554 277.163 66.9007C277.63 66.7432 278.137 66.7003 278.682 66.7721C279.271 66.8495 279.775 67.0327 280.196 67.3216C280.617 67.6077 280.938 67.9639 281.159 68.3902C281.384 68.8169 281.492 69.2766 281.486 69.7693L279.647 69.5275C279.616 69.2108 279.497 68.9499 279.29 68.7445C279.084 68.5392 278.811 68.4142 278.472 68.3697C277.898 68.2942 277.429 68.4865 277.064 68.9468C276.703 69.4074 276.463 70.0665 276.344 70.9242L276.405 70.9321C276.571 70.6882 276.778 70.4891 277.026 70.3349C277.278 70.1781 277.553 70.0698 277.853 70.0099C278.157 69.9476 278.469 69.9376 278.79 69.9799C279.313 70.0486 279.762 70.2332 280.137 70.5338C280.513 70.8314 280.79 71.2096 280.969 71.6683C281.148 72.127 281.201 72.632 281.129 73.1832C281.05 73.7803 280.841 74.2931 280.502 74.7216C280.165 75.1504 279.731 75.4642 279.199 75.663C278.671 75.8593 278.08 75.9129 277.426 75.824ZM277.61 74.3587C277.897 74.3965 278.163 74.3614 278.408 74.2534C278.653 74.1454 278.855 73.9822 279.015 73.7638C279.176 73.5454 279.275 73.2898 279.314 72.997C279.352 72.7041 279.322 72.4329 279.223 72.1834C279.128 71.9343 278.977 71.7261 278.771 71.5588C278.565 71.3915 278.319 71.289 278.032 71.2513C277.816 71.2229 277.612 71.2369 277.417 71.2931C277.226 71.3497 277.052 71.4407 276.895 71.5661C276.741 71.6919 276.613 71.8444 276.511 72.0237C276.409 72.2001 276.344 72.3946 276.316 72.607C276.278 72.8912 276.309 73.1595 276.407 73.4119C276.508 73.6647 276.661 73.8762 276.867 74.0463C277.075 74.2168 277.323 74.3209 277.61 74.3587ZM283.865 75.3217L283.755 75.7892C283.668 76.1632 283.547 76.5313 283.391 76.8934C283.238 77.2587 283.084 77.5875 282.928 77.8795C282.776 78.172 282.654 78.4012 282.562 78.5673L281.373 78.4109C281.439 78.2472 281.529 78.0181 281.643 77.7236C281.758 77.432 281.872 77.1025 281.988 76.7351C282.103 76.3677 282.196 75.9899 282.264 75.6018L282.349 75.1223L283.865 75.3217ZM288.326 77.2578C287.683 77.1732 287.125 76.9874 286.652 76.7002C286.181 76.4106 285.827 76.0515 285.589 75.6229C285.353 75.1918 285.265 74.7188 285.324 74.2038L287.202 74.4508C287.185 74.6676 287.23 74.8663 287.338 75.0469C287.449 75.2251 287.607 75.373 287.814 75.4907C288.02 75.6084 288.26 75.6852 288.533 75.7211C288.817 75.7584 289.075 75.7412 289.306 75.6695C289.537 75.5977 289.727 75.4809 289.873 75.3192C290.02 75.1574 290.109 74.9603 290.14 74.7277C290.171 74.4923 290.132 74.2755 290.024 74.0773C289.919 73.8765 289.751 73.7084 289.521 73.573C289.293 73.4379 289.013 73.3485 288.68 73.3047L287.857 73.1965L288.037 71.8271L288.86 71.9353C289.141 71.9723 289.396 71.9562 289.624 71.8869C289.855 71.818 290.042 71.7053 290.185 71.5489C290.329 71.3897 290.416 71.1938 290.447 70.9612C290.476 70.7402 290.448 70.5394 290.364 70.3589C290.283 70.1759 290.154 70.0246 289.977 69.905C289.803 69.7857 289.591 69.7096 289.341 69.6768C289.088 69.6435 288.851 69.6591 288.629 69.7234C288.408 69.7848 288.223 69.8904 288.075 70.0403C287.927 70.1902 287.834 70.3766 287.796 70.5994L286.009 70.3643C286.084 69.8573 286.288 69.4285 286.62 69.0779C286.953 68.7274 287.371 68.4744 287.877 68.3189C288.385 68.1609 288.941 68.1215 289.544 68.2008C290.152 68.2809 290.67 68.4615 291.098 68.7426C291.525 69.0237 291.84 69.3689 292.044 69.7782C292.25 70.185 292.321 70.6208 292.257 71.0855C292.195 71.5796 291.987 71.9714 291.634 72.2608C291.283 72.5505 290.855 72.7074 290.35 72.7314L290.341 72.8003C290.978 72.9689 291.443 73.2593 291.733 73.6713C292.027 74.0808 292.136 74.5596 292.061 75.1075C291.998 75.6103 291.794 76.0376 291.45 76.3896C291.109 76.7419 290.668 76.9964 290.127 77.1531C289.587 77.3098 288.986 77.3447 288.326 77.2578ZM293.146 76.1921L293.339 74.7237L297.784 69.4075L299.05 69.574L298.783 71.6066L298.034 71.508L295.229 74.8759L295.22 74.9448L300.452 75.6331L300.256 77.1274L293.146 76.1921ZM297.175 78.2992L297.438 76.3011L297.558 75.6554L298.37 69.4845L300.118 69.7145L298.958 78.5337L297.175 78.2992ZM304.499 79.3853C303.891 79.3053 303.363 79.1219 302.916 78.8353C302.472 78.5491 302.136 78.191 301.909 77.7611C301.683 77.3311 301.597 76.8613 301.652 76.3517L303.461 76.5896C303.436 76.9339 303.543 77.2298 303.782 77.4774C304.021 77.7249 304.325 77.8729 304.692 77.9212C304.985 77.9597 305.252 77.9291 305.493 77.8294C305.737 77.7272 305.937 77.5681 306.094 77.3522C306.254 77.1338 306.354 76.8724 306.395 76.5681C306.435 76.258 306.405 75.9766 306.304 75.7238C306.206 75.4714 306.051 75.2641 305.838 75.1018C305.626 74.9396 305.372 74.8375 305.077 74.7958C304.818 74.7618 304.56 74.7818 304.302 74.856C304.047 74.9305 303.84 75.0507 303.681 75.2167L302.062 74.7015L303.092 70.1056L308.483 70.8149L308.283 72.3393L304.428 71.8323L303.91 74.0114L303.961 74.0182C304.145 73.8204 304.403 73.6703 304.735 73.5679C305.066 73.4655 305.426 73.4399 305.814 73.4908C306.345 73.5607 306.802 73.7479 307.185 74.0524C307.569 74.3569 307.852 74.7432 308.036 75.2113C308.22 75.6766 308.274 76.1918 308.196 76.7569C308.121 77.3516 307.914 77.8617 307.575 78.2873C307.239 78.7103 306.805 79.0213 306.273 79.2201C305.745 79.4164 305.154 79.4714 304.499 79.3853Z" fill="#1E1B39"/>
<path d="M276.8 52.5833L276.902 51.8081L282.314 52.52L282.212 53.2952L279.943 52.9967L279.096 59.4373L278.222 59.3224L279.069 52.8817L276.8 52.5833ZM283.999 60.1971C283.511 60.1328 283.097 59.9601 282.759 59.6791C282.423 59.3983 282.18 59.0353 282.028 58.59C281.879 58.1451 281.841 57.643 281.914 57.084C281.988 56.5203 282.155 56.0416 282.415 55.6481C282.677 55.2548 283.006 54.966 283.403 54.7817C283.803 54.5976 284.247 54.5378 284.735 54.602C285.224 54.6663 285.636 54.8388 285.972 55.1195C286.31 55.4006 286.554 55.7648 286.703 56.2121C286.854 56.6598 286.893 57.1654 286.819 57.7292C286.745 58.2882 286.577 58.7632 286.316 59.1541C286.056 59.5453 285.727 59.8329 285.328 60.017C284.931 60.2013 284.488 60.2613 283.999 60.1971ZM284.098 59.4501C284.469 59.4989 284.787 59.444 285.051 59.2852C285.316 59.1265 285.526 58.8997 285.682 58.6047C285.838 58.3098 285.94 57.9815 285.987 57.6198C286.035 57.2581 286.022 56.9134 285.948 56.5859C285.874 56.2583 285.729 55.9825 285.515 55.7584C285.301 55.5343 285.008 55.3978 284.637 55.349C284.266 55.3002 283.948 55.3563 283.683 55.5174C283.418 55.6785 283.208 55.9077 283.051 56.2049C282.895 56.5022 282.793 56.8317 282.746 57.1934C282.698 57.5551 282.711 57.8986 282.786 58.2238C282.86 58.549 283.005 58.8224 283.219 59.0442C283.434 59.266 283.726 59.4013 284.098 59.4501ZM290.801 55.4716L290.708 56.1763L287.904 55.8074L287.997 55.1027L290.801 55.4716ZM288.985 53.9137L289.816 54.023L289.138 59.1812C289.107 59.4161 289.118 59.5967 289.17 59.7231C289.226 59.8475 289.305 59.9367 289.407 59.9909C289.513 60.043 289.627 60.0771 289.749 60.0931C289.84 60.1052 289.916 60.1104 289.976 60.1087C290.036 60.1047 290.085 60.1015 290.121 60.0991L290.192 60.8682C290.132 60.882 290.051 60.8928 289.947 60.9006C289.843 60.9108 289.714 60.9057 289.559 60.8853C289.324 60.8544 289.1 60.7736 288.888 60.643C288.678 60.5126 288.513 60.3344 288.392 60.1082C288.273 59.8823 288.235 59.612 288.276 59.2973L288.985 53.9137ZM292.916 61.3843C292.573 61.3392 292.27 61.2337 292.008 61.0677C291.745 60.8994 291.548 60.6811 291.416 60.4129C291.285 60.1423 291.242 59.8308 291.288 59.4785C291.329 59.1684 291.423 58.9251 291.571 58.7486C291.719 58.5697 291.902 58.4385 292.121 58.355C292.34 58.2714 292.576 58.2189 292.83 58.1973C293.086 58.1737 293.342 58.162 293.598 58.1621C293.932 58.1631 294.203 58.1665 294.41 58.1722C294.62 58.1759 294.775 58.1569 294.876 58.1153C294.98 58.0739 295.04 57.9863 295.058 57.8524L295.062 57.8242C295.107 57.4766 295.048 57.194 294.883 56.9763C294.72 56.759 294.448 56.6252 294.065 56.5748C293.668 56.5226 293.345 56.5685 293.097 56.7127C292.848 56.8568 292.665 57.0216 292.548 57.2068L291.796 56.8211C291.98 56.5108 292.201 56.2795 292.46 56.1272C292.722 55.9728 292.997 55.8776 293.287 55.8416C293.578 55.8035 293.86 55.8024 294.133 55.8382C294.307 55.8611 294.504 55.9085 294.724 55.9804C294.946 56.0503 295.155 56.1626 295.349 56.3173C295.547 56.4722 295.699 56.687 295.806 56.9616C295.913 57.2361 295.939 57.5883 295.882 58.0182L295.413 61.5838L294.581 61.4744L294.678 60.7415L294.636 60.736C294.564 60.846 294.453 60.9593 294.304 61.0759C294.155 61.1925 293.965 61.2834 293.734 61.3486C293.503 61.4138 293.231 61.4257 292.916 61.3843ZM293.141 60.6541C293.47 60.6973 293.755 60.6692 293.998 60.5697C294.243 60.4704 294.436 60.3262 294.578 60.137C294.723 59.9481 294.81 59.7409 294.839 59.5154L294.939 58.7544C294.898 58.792 294.816 58.8206 294.691 58.8401C294.57 58.8575 294.43 58.8689 294.271 58.8744C294.115 58.8778 293.963 58.8793 293.815 58.8789C293.67 58.8765 293.552 58.8753 293.461 58.8753C293.241 58.8751 293.033 58.8943 292.837 58.933C292.643 58.9697 292.481 59.0427 292.349 59.152C292.22 59.2594 292.142 59.4187 292.114 59.6301C292.076 59.919 292.154 60.1515 292.349 60.3276C292.546 60.5017 292.81 60.6105 293.141 60.6541ZM298.711 54.677L297.762 61.8928L296.931 61.7834L297.88 54.5677L298.711 54.677ZM304.259 62.8621C303.752 62.7954 303.331 62.6181 302.996 62.3304C302.661 62.0426 302.423 61.6755 302.281 61.2291C302.139 60.7827 302.103 60.2893 302.174 59.7491C302.246 59.1995 302.411 58.7277 302.669 58.3338C302.929 57.9379 303.256 57.6453 303.651 57.4559C304.049 57.2646 304.493 57.201 304.981 57.2653C305.362 57.3153 305.695 57.4309 305.982 57.612C306.269 57.7931 306.493 58.0233 306.655 58.3026C306.816 58.582 306.898 58.8938 306.901 59.2383L306.069 59.1289C306.038 58.8739 305.926 58.6369 305.733 58.4179C305.542 58.1969 305.263 58.0623 304.897 58.0141C304.573 57.9714 304.278 58.0186 304.011 58.1556C303.747 58.2905 303.527 58.5017 303.351 58.7892C303.177 59.0745 303.063 59.4216 303.009 59.8303C302.954 60.2484 302.972 60.6211 303.063 60.9485C303.156 61.2761 303.312 61.5416 303.532 61.7449C303.753 61.9485 304.029 62.0719 304.358 62.1152C304.574 62.1436 304.775 62.1318 304.961 62.0799C305.147 62.0279 305.31 61.9394 305.451 61.8146C305.592 61.6897 305.701 61.532 305.778 61.3415L306.61 61.4509C306.521 61.7642 306.367 62.0366 306.147 62.2682C305.931 62.4978 305.661 62.6678 305.338 62.7783C305.018 62.8867 304.659 62.9147 304.259 62.8621ZM309.398 56.0829L308.449 63.2986L307.618 63.1892L308.567 55.9735L309.398 56.0829ZM309.972 63.499L310.684 58.0871L311.516 58.1965L310.804 63.6083L309.972 63.499ZM311.226 57.2408C311.063 57.2195 310.931 57.1459 310.828 57.02C310.727 56.8945 310.687 56.7542 310.708 56.5992C310.728 56.4442 310.803 56.319 310.933 56.2238C311.065 56.1288 311.212 56.092 311.374 56.1133C311.536 56.1347 311.667 56.2081 311.768 56.3336C311.871 56.4595 311.912 56.5999 311.892 56.7549C311.871 56.91 311.795 57.0349 311.663 57.1299C311.533 57.2251 311.388 57.2621 311.226 57.2408ZM314.581 64.2199C314.059 64.1513 313.625 63.977 313.277 63.6971C312.932 63.4151 312.684 63.0528 312.534 62.6102C312.387 62.1655 312.35 61.666 312.423 61.1117C312.496 60.5573 312.662 60.0821 312.919 59.6858C313.179 59.2876 313.507 58.9938 313.902 58.8044C314.3 58.613 314.744 58.5495 315.232 58.6137C315.514 58.6508 315.786 58.7344 316.049 58.8645C316.311 58.9946 316.541 59.1802 316.739 59.4213C316.937 59.66 317.08 59.9608 317.169 60.3237C317.257 60.6866 317.268 61.1205 317.202 61.6255L317.155 61.9779L312.984 61.4291L313.078 60.7104L316.404 61.1479C316.444 60.8425 316.419 60.562 316.329 60.3064C316.24 60.051 316.094 59.8394 315.889 59.6715C315.686 59.5038 315.435 59.4002 315.134 59.3607C314.803 59.3171 314.505 59.3616 314.242 59.4942C313.981 59.6248 313.769 59.8119 313.605 60.0557C313.442 60.2994 313.34 60.5704 313.301 60.8687L313.238 61.3479C313.184 61.7566 313.209 62.1123 313.313 62.4151C313.419 62.7158 313.589 62.9568 313.823 63.1382C314.058 63.3172 314.343 63.4288 314.679 63.4729C314.898 63.5017 315.099 63.4971 315.283 63.4592C315.47 63.4193 315.636 63.3456 315.782 63.2381C315.928 63.1282 316.048 62.984 316.143 62.8053L316.917 63.1365C316.797 63.3978 316.623 63.6187 316.396 63.7992C316.17 63.9773 315.902 64.1045 315.593 64.181C315.285 64.2551 314.947 64.2681 314.581 64.2199ZM319.361 61.4221L318.933 64.6777L318.101 64.5683L318.813 59.1565L319.617 59.2622L319.505 60.1078L319.576 60.117C319.739 59.8589 319.96 59.6634 320.241 59.5307C320.521 59.3955 320.866 59.3548 321.275 59.4086C321.641 59.4568 321.952 59.5741 322.207 59.7606C322.462 59.9448 322.646 60.1984 322.759 60.5215C322.872 60.8422 322.899 61.2328 322.838 61.6931L322.386 65.1319L321.554 65.0225L321.999 61.6401C322.055 61.215 321.988 60.8693 321.799 60.603C321.609 60.3344 321.322 60.1747 320.937 60.124C320.671 60.0891 320.427 60.1155 320.202 60.2031C319.981 60.291 319.795 60.4374 319.646 60.6425C319.498 60.8475 319.403 61.1074 319.361 61.4221ZM326.971 60.2296L326.878 60.9342L324.073 60.5653L324.166 59.8606L326.971 60.2296ZM325.154 58.6716L325.986 58.781L325.307 63.9391C325.276 64.174 325.287 64.3546 325.34 64.481C325.395 64.6054 325.474 64.6946 325.577 64.7488C325.682 64.8009 325.796 64.835 325.918 64.851C326.01 64.8631 326.086 64.8683 326.146 64.8666C326.206 64.8626 326.254 64.8594 326.29 64.857L326.361 65.6262C326.302 65.6399 326.22 65.6507 326.117 65.6585C326.013 65.6687 325.883 65.6636 325.728 65.6432C325.493 65.6123 325.27 65.5316 325.057 65.4009C324.847 65.2705 324.682 65.0923 324.561 64.8661C324.443 64.6402 324.404 64.3699 324.446 64.0552L325.154 58.6716ZM331.798 62.0976L331.024 62.2108C330.993 62.0801 330.94 61.95 330.864 61.8205C330.79 61.689 330.681 61.5743 330.536 61.4764C330.391 61.3784 330.198 61.3136 329.956 61.2818C329.625 61.2382 329.339 61.2782 329.098 61.4019C328.86 61.5234 328.725 61.7005 328.695 61.9331C328.667 62.1398 328.721 62.3129 328.856 62.4525C328.99 62.592 329.212 62.7227 329.521 62.8446L330.298 63.1476C330.767 63.3287 331.104 63.5558 331.309 63.829C331.515 64.0998 331.593 64.4242 331.543 64.8024C331.502 65.1125 331.376 65.3779 331.166 65.5987C330.958 65.8198 330.686 65.98 330.35 66.0792C330.014 66.1784 329.636 66.2004 329.216 66.145C328.664 66.0724 328.223 65.8925 327.892 65.6054C327.562 65.3182 327.379 64.9381 327.344 64.4651L328.159 64.3716C328.196 64.6727 328.309 64.9099 328.499 65.083C328.691 65.2564 328.958 65.3655 329.298 65.4103C329.686 65.4613 330.004 65.4196 330.254 65.2851C330.506 65.1487 330.647 64.9641 330.678 64.7316C330.702 64.5437 330.657 64.3777 330.543 64.2335C330.428 64.087 330.239 63.9642 329.975 63.8649L329.1 63.5348C328.62 63.3522 328.28 63.1223 328.08 62.8451C327.883 62.5658 327.808 62.2394 327.858 61.866C327.898 61.5606 328.019 61.3018 328.221 61.0894C328.426 60.8774 328.686 60.7241 329.002 60.6294C329.321 60.5351 329.67 60.5129 330.05 60.563C330.586 60.6335 330.991 60.8062 331.265 61.0813C331.542 61.3566 331.72 61.6954 331.798 62.0976Z" fill="#9291A5"/>
</g>
<defs>
<filter id="filter0_dd_124_929" x="6.5791" y="23.3539" width="549.909" height="292.264" filterUnits="userSpaceOnUse" color-interpolation-filters="sRGB">
<feFlood flood-opacity="0" result="BackgroundImageFix"/>
<feColorMatrix in="SourceAlpha" type="matrix" values="0 0 0 0 0 0 0 0 0 0 0 0 0 0 0 0 0 0 127 0" result="hardAlpha"/>
<feOffset dy="8"/>
<feGaussianBlur stdDeviation="8"/>
<feColorMatrix type="matrix" values="0 0 0 0 0 0 0 0 0 0 0 0 0 0 0 0 0 0 0.08 0"/>
<feBlend mode="normal" in2="BackgroundImageFix" result="effect1_dropShadow_124_929"/>
<feColorMatrix in="SourceAlpha" type="matrix" values="0 0 0 0 0 0 0 0 0 0 0 0 0 0 0 0 0 0 127 0" result="hardAlpha"/>
<feOffset/>
<feGaussianBlur stdDeviation="2"/>
<feColorMatrix type="matrix" values="0 0 0 0 0 0 0 0 0 0 0 0 0 0 0 0 0 0 0.04 0"/>
<feBlend mode="normal" in2="effect1_dropShadow_124_929" result="effect2_dropShadow_124_929"/>
<feBlend mode="normal" in="SourceGraphic" in2="effect2_dropShadow_124_929" result="shape"/>
</filter>
<filter id="filter1_dd_124_929" x="6.5791" y="65.5796" width="288.127" height="219.768" filterUnits="userSpaceOnUse" color-interpolation-filters="sRGB">
<feFlood flood-opacity="0" result="BackgroundImageFix"/>
<feColorMatrix in="SourceAlpha" type="matrix" values="0 0 0 0 0 0 0 0 0 0 0 0 0 0 0 0 0 0 127 0" result="hardAlpha"/>
<feOffset dy="8"/>
<feGaussianBlur stdDeviation="8"/>
<feColorMatrix type="matrix" values="0 0 0 0 0 0 0 0 0 0 0 0 0 0 0 0 0 0 0.08 0"/>
<feBlend mode="normal" in2="BackgroundImageFix" result="effect1_dropShadow_124_929"/>
<feColorMatrix in="SourceAlpha" type="matrix" values="0 0 0 0 0 0 0 0 0 0 0 0 0 0 0 0 0 0 127 0" result="hardAlpha"/>
<feOffset/>
<feGaussianBlur stdDeviation="2"/>
<feColorMatrix type="matrix" values="0 0 0 0 0 0 0 0 0 0 0 0 0 0 0 0 0 0 0.04 0"/>
<feBlend mode="normal" in2="effect1_dropShadow_124_929" result="effect2_dropShadow_124_929"/>
<feBlend mode="normal" in="SourceGraphic" in2="effect2_dropShadow_124_929" result="shape"/>
</filter>
<filter id="filter2_d_124_929" x="18.2056" y="70.6639" width="264.874" height="196.515" filterUnits="userSpaceOnUse" color-interpolation-filters="sRGB">
<feFlood flood-opacity="0" result="BackgroundImageFix"/>
<feColorMatrix in="SourceAlpha" type="matrix" values="0 0 0 0 0 0 0 0 0 0 0 0 0 0 0 0 0 0 127 0" result="hardAlpha"/>
<feOffset dy="1.45783"/>
<feGaussianBlur stdDeviation="2.18675"/>
<feComposite in2="hardAlpha" operator="out"/>
<feColorMatrix type="matrix" values="0 0 0 0 0.0509804 0 0 0 0 0.0392157 0 0 0 0 0.172549 0 0 0 0.08 0"/>
<feBlend mode="normal" in2="BackgroundImageFix" result="effect1_dropShadow_124_929"/>
<feBlend mode="normal" in="SourceGraphic" in2="effect1_dropShadow_124_929" result="shape"/>
</filter>
<filter id="filter3_d_124_929" x="229.019" y="29.1301" width="314.805" height="266.936" filterUnits="userSpaceOnUse" color-interpolation-filters="sRGB">
<feFlood flood-opacity="0" result="BackgroundImageFix"/>
<feColorMatrix in="SourceAlpha" type="matrix" values="0 0 0 0 0 0 0 0 0 0 0 0 0 0 0 0 0 0 127 0" result="hardAlpha"/>
<feOffset dy="1.1119"/>
<feGaussianBlur stdDeviation="1.66785"/>
<feComposite in2="hardAlpha" operator="out"/>
<feColorMatrix type="matrix" values="0 0 0 0 0.0509804 0 0 0 0 0.0392157 0 0 0 0 0.172549 0 0 0 0.08 0"/>
<feBlend mode="normal" in2="BackgroundImageFix" result="effect1_dropShadow_124_929"/>
<feBlend mode="normal" in="SourceGraphic" in2="effect1_dropShadow_124_929" result="shape"/>
</filter>
<linearGradient id="paint0_linear_124_929" x1="388.339" y1="176.023" x2="379.817" y2="240.804" gradientUnits="userSpaceOnUse">
<stop stop-color="#93AAFD"/>
<stop offset="0.46679" stop-color="#C6D2FD"/>
<stop offset="1" stop-color="#E5EAFC" stop-opacity="0.31"/>
</linearGradient>
</defs>
</svg>
