<svg width="314" height="188" viewBox="0 0 314 188" fill="none" xmlns="http://www.w3.org/2000/svg">
<g filter="url(#filter0_dd_124_1020)">
<g filter="url(#filter1_d_124_1020)">
<rect x="16" y="32.2875" width="299" height="240.373" rx="11.7255" transform="rotate(-4.65922 16 32.2875)" fill="white"/>
</g>
<path d="M44.708 188.396C44.3245 188.427 43.9773 188.389 43.6664 188.282C43.3574 188.174 43.1052 188.011 42.9099 187.791C42.7163 187.568 42.5991 187.302 42.5582 186.992L43.2903 186.932C43.3214 187.122 43.4007 187.283 43.5283 187.413C43.6557 187.541 43.8164 187.635 44.0104 187.695C44.2044 187.755 44.4157 187.776 44.6443 187.757C44.8999 187.737 45.1229 187.674 45.3132 187.568C45.5034 187.463 45.6483 187.327 45.7477 187.159C45.8471 186.991 45.8882 186.802 45.8712 186.593C45.8533 186.374 45.7834 186.186 45.6614 186.028C45.5392 185.868 45.3696 185.75 45.1527 185.672C44.9358 185.594 44.6763 185.567 44.3742 185.592L43.8978 185.631L43.8457 184.992L44.3221 184.953C44.5584 184.934 44.7621 184.874 44.9334 184.774C45.1066 184.674 45.2372 184.543 45.3253 184.38C45.4153 184.216 45.4518 184.03 45.4347 183.821C45.4183 183.62 45.3595 183.448 45.2582 183.306C45.157 183.164 45.0216 183.058 44.8522 182.988C44.6846 182.918 44.4914 182.892 44.2726 182.91C44.0673 182.927 43.8767 182.98 43.7008 183.07C43.5267 183.159 43.3882 183.278 43.2855 183.429C43.1826 183.578 43.1344 183.751 43.1408 183.95L42.4436 184.006C42.4298 183.694 42.5014 183.413 42.6586 183.164C42.8156 182.914 43.031 182.711 43.305 182.556C43.5809 182.401 43.8903 182.309 44.2331 182.281C44.601 182.251 44.9228 182.3 45.1984 182.428C45.4737 182.554 45.692 182.732 45.8531 182.962C46.0142 183.193 46.1062 183.449 46.1291 183.729C46.1564 184.064 46.0916 184.357 45.9346 184.608C45.7795 184.858 45.5556 185.041 45.2628 185.157L45.2666 185.203C45.6474 185.235 45.9538 185.371 46.1859 185.611C46.4179 185.849 46.5492 186.158 46.58 186.535C46.6064 186.859 46.5419 187.156 46.3867 187.428C46.2332 187.698 46.0114 187.919 45.7213 188.091C45.4311 188.263 45.0934 188.364 44.708 188.396ZM49.8471 187.977C49.4094 188.012 49.0268 187.924 48.6995 187.711C48.372 187.496 48.1083 187.167 47.9085 186.725C47.7086 186.281 47.5823 185.736 47.5296 185.089C47.4772 184.446 47.5138 183.89 47.6394 183.422C47.7667 182.952 47.9746 182.584 48.263 182.318C48.5531 182.051 48.9151 181.9 49.3489 181.864C49.7827 181.829 50.1635 181.92 50.4912 182.137C50.8206 182.352 51.0853 182.681 51.2852 183.125C51.4869 183.567 51.614 184.109 51.6664 184.752C51.7191 185.399 51.6828 185.957 51.5573 186.428C51.4317 186.896 51.2248 187.263 50.9364 187.528C50.6479 187.792 50.2848 187.941 49.8471 187.977ZM49.795 187.338C50.2288 187.302 50.5487 187.066 50.7548 186.628C50.9609 186.19 51.0323 185.584 50.9692 184.809C50.9272 184.294 50.8363 183.86 50.6963 183.506C50.5584 183.153 50.379 182.89 50.1582 182.717C49.9394 182.544 49.6867 182.469 49.4001 182.492C48.9701 182.527 48.6514 182.766 48.4438 183.21C48.2362 183.652 48.1638 184.26 48.2268 185.032C48.2688 185.548 48.3587 185.981 48.4965 186.332C48.6343 186.684 48.8125 186.945 49.0312 187.116C49.2518 187.287 49.5064 187.361 49.795 187.338ZM54.96 187.56C54.5223 187.596 54.1398 187.507 53.8124 187.294C53.4849 187.079 53.2213 186.75 53.0215 186.308C52.8216 185.865 52.6952 185.319 52.6425 184.672C52.5901 184.029 52.6267 183.474 52.7523 183.005C52.8797 182.535 53.0875 182.167 53.3759 181.902C53.6661 181.634 54.028 181.483 54.4619 181.448C54.8957 181.412 55.2764 181.503 55.6041 181.72C55.9336 181.935 56.1982 182.264 56.3982 182.708C56.5999 183.15 56.727 183.692 56.7794 184.335C56.8321 184.982 56.7957 185.541 56.6703 186.011C56.5447 186.479 56.3377 186.846 56.0493 187.112C55.7608 187.375 55.3977 187.524 54.96 187.56ZM54.9079 186.921C55.3417 186.886 55.6617 186.649 55.8678 186.211C56.0738 185.773 56.1453 185.167 56.0821 184.392C56.0402 183.877 55.9492 183.443 55.8093 183.09C55.6713 182.736 55.492 182.473 55.2712 182.3C55.0524 182.127 54.7996 182.052 54.513 182.075C54.0831 182.11 53.7643 182.35 53.5568 182.794C53.3491 183.236 53.2768 183.843 53.3397 184.616C53.3817 185.131 53.4716 185.564 53.6094 185.915C53.7473 186.267 53.9255 186.528 54.1442 186.7C54.3648 186.871 54.6194 186.944 54.9079 186.921ZM58.6439 185.54L58.5631 184.693L58.7026 184.682L60.4929 182.535L61.3411 182.466L59.4325 184.739L59.3744 184.744L58.6439 185.54ZM58.1374 187.219L57.6525 181.27L58.3381 181.214L58.823 187.163L58.1374 187.219ZM60.9727 186.988L59.0497 184.922L59.499 184.406L61.8442 186.917L60.9727 186.988Z" fill="#615E83"/>
<path d="M41.8594 153.896C41.4759 153.928 41.1287 153.89 40.8178 153.782C40.5088 153.675 40.2567 153.511 40.0613 153.291C39.8678 153.069 39.7505 152.803 39.7096 152.493L40.4417 152.433C40.4728 152.623 40.5522 152.784 40.6797 152.914C40.8071 153.042 40.9678 153.136 41.1619 153.196C41.3559 153.256 41.5672 153.277 41.7957 153.258C42.0513 153.237 42.2743 153.174 42.4646 153.069C42.6549 152.964 42.7997 152.827 42.8991 152.66C42.9985 152.492 43.0397 152.303 43.0226 152.094C43.0048 151.875 42.9348 151.687 42.8128 151.529C42.6906 151.369 42.5211 151.251 42.3042 151.173C42.0873 151.095 41.8278 151.068 41.5256 151.093L41.0492 151.132L40.9971 150.493L41.4735 150.454C41.7098 150.434 41.9136 150.375 42.0848 150.275C42.258 150.175 42.3886 150.044 42.4767 149.881C42.5667 149.717 42.6032 149.531 42.5862 149.322C42.5697 149.121 42.5109 148.949 42.4097 148.807C42.3084 148.665 42.1731 148.559 42.0036 148.489C41.8361 148.419 41.6429 148.393 41.424 148.411C41.2187 148.427 41.0281 148.481 40.8522 148.571C40.6781 148.66 40.5397 148.779 40.4369 148.93C40.334 149.079 40.2858 149.252 40.2922 149.45L39.595 149.507C39.5812 149.195 39.6529 148.914 39.81 148.665C39.967 148.414 40.1825 148.212 40.4564 148.057C40.7323 147.902 41.0417 147.81 41.3845 147.782C41.7525 147.752 42.0742 147.801 42.3498 147.929C42.6252 148.055 42.8434 148.233 43.0045 148.463C43.1657 148.694 43.2576 148.949 43.2805 149.23C43.3078 149.565 43.243 149.858 43.086 150.109C42.931 150.359 42.7071 150.542 42.4143 150.658L42.4181 150.704C42.7988 150.736 43.1053 150.872 43.3374 151.112C43.5693 151.35 43.7007 151.658 43.7315 152.036C43.7578 152.359 43.6934 152.657 43.5381 152.929C43.3846 153.199 43.1628 153.42 42.8727 153.592C42.5826 153.763 42.2448 153.865 41.8594 153.896ZM46.9172 153.484C46.5763 153.512 46.2638 153.469 45.9797 153.356C45.6955 153.243 45.4615 153.075 45.2777 152.852C45.0938 152.629 44.9818 152.367 44.9417 152.066L45.6389 152.009C45.6879 152.276 45.8281 152.489 46.0594 152.648C46.2924 152.804 46.561 152.87 46.8651 152.845C47.1091 152.825 47.3214 152.75 47.5018 152.621C47.6843 152.491 47.8216 152.322 47.9138 152.113C48.0077 151.903 48.0444 151.671 48.0237 151.417C48.0026 151.158 47.9266 150.931 47.7957 150.737C47.6667 150.541 47.4986 150.392 47.2914 150.29C47.0842 150.188 46.8537 150.146 46.5998 150.165C46.4176 150.178 46.233 150.221 46.046 150.295C45.8588 150.366 45.7069 150.452 45.5902 150.551L44.9096 150.525L45.0312 147.567L48.1222 147.315L48.1743 147.954L45.6875 148.157L45.6214 149.929L45.6562 149.926C45.7704 149.819 45.9168 149.726 46.0956 149.647C46.2744 149.568 46.4635 149.521 46.663 149.504C47.0271 149.475 47.3586 149.535 47.6575 149.687C47.9582 149.836 48.2021 150.054 48.3893 150.34C48.5783 150.627 48.6886 150.963 48.72 151.349C48.7509 151.728 48.6933 152.074 48.5472 152.386C48.4029 152.696 48.1896 152.95 47.9073 153.146C47.6249 153.341 47.2948 153.453 46.9172 153.484ZM51.9756 153.072C51.5379 153.108 51.1554 153.019 50.8281 152.806C50.5005 152.591 50.2369 152.262 50.0371 151.82C49.8372 151.377 49.7109 150.831 49.6581 150.184C49.6057 149.541 49.6423 148.986 49.7679 148.517C49.8953 148.047 50.1032 147.679 50.3915 147.414C50.6817 147.146 51.0437 146.995 51.4775 146.96C51.9113 146.924 52.2921 147.015 52.6197 147.232C52.9492 147.447 53.2139 147.776 53.4138 148.22C53.6155 148.662 53.7426 149.204 53.795 149.847C53.8477 150.494 53.8113 151.053 53.6859 151.523C53.5603 151.991 53.3533 152.358 53.065 152.624C52.7764 152.887 52.4133 153.036 51.9756 153.072ZM51.9235 152.433C52.3574 152.398 52.6773 152.161 52.8834 151.723C53.0894 151.285 53.1609 150.679 53.0978 149.904C53.0558 149.389 52.9648 148.955 52.8249 148.602C52.6869 148.248 52.5076 147.985 52.2868 147.812C52.068 147.639 51.8153 147.564 51.5286 147.587C51.0987 147.622 50.7799 147.862 50.5724 148.306C50.3647 148.748 50.2924 149.355 50.3554 150.128C50.3973 150.643 50.4872 151.076 50.6251 151.427C50.7629 151.779 50.9411 152.04 51.1598 152.211C51.3804 152.383 51.635 152.456 51.9235 152.433ZM55.6595 151.052L55.5788 150.205L55.7182 150.194L57.5085 148.047L58.3568 147.978L56.4481 150.251L56.39 150.256L55.6595 151.052ZM55.153 152.731L54.6681 146.782L55.3537 146.726L55.8386 152.675L55.153 152.731ZM57.9883 152.5L56.0654 150.434L56.5146 149.918L58.8599 152.429L57.9883 152.5Z" fill="#615E83"/>
<path d="M37.0977 118.243L37.0494 117.651L39.3269 113.301L39.7568 113.266L39.8316 114.184L39.5411 114.207L37.8204 117.494L37.8242 117.541L41.3452 117.254L41.3973 117.893L37.0977 118.243ZM39.9977 119.235L39.8836 117.835L39.8611 117.559L39.5128 113.286L40.1984 113.23L40.6833 119.179L39.9977 119.235ZM44.5326 118.947C44.0949 118.983 43.7124 118.894 43.385 118.681C43.0575 118.466 42.7939 118.138 42.5941 117.696C42.3942 117.252 42.2678 116.707 42.2151 116.06C42.1627 115.417 42.1993 114.861 42.3249 114.393C42.4523 113.922 42.6601 113.554 42.9485 113.289C43.2387 113.022 43.6006 112.871 44.0345 112.835C44.4683 112.8 44.849 112.891 45.1767 113.108C45.5062 113.323 45.7708 113.652 45.9708 114.096C46.1725 114.537 46.2996 115.08 46.352 115.723C46.4047 116.37 46.3683 116.928 46.2429 117.399C46.1173 117.867 45.9103 118.234 45.6219 118.499C45.3334 118.762 44.9703 118.912 44.5326 118.947ZM44.4805 118.308C44.9143 118.273 45.2343 118.036 45.4403 117.598C45.6464 117.161 45.7179 116.554 45.6547 115.78C45.6127 115.264 45.5218 114.83 45.3819 114.477C45.2439 114.124 45.0646 113.861 44.8438 113.687C44.625 113.514 44.3722 113.439 44.0856 113.463C43.6557 113.498 43.3369 113.737 43.1294 114.181C42.9217 114.623 42.8494 115.23 42.9123 116.003C42.9543 116.518 43.0442 116.951 43.182 117.303C43.3198 117.654 43.4981 117.916 43.7168 118.087C43.9374 118.258 44.1919 118.332 44.4805 118.308ZM49.6456 118.531C49.2079 118.566 48.8253 118.478 48.498 118.265C48.1705 118.05 47.9068 117.721 47.707 117.279C47.5071 116.835 47.3808 116.29 47.3281 115.643C47.2757 115 47.3123 114.444 47.4378 113.976C47.5652 113.506 47.7731 113.138 48.0615 112.873C48.3516 112.605 48.7136 112.454 49.1474 112.418C49.5812 112.383 49.962 112.474 50.2897 112.691C50.6191 112.906 50.8838 113.235 51.0837 113.679C51.2854 114.121 51.4125 114.663 51.4649 115.306C51.5176 115.953 51.4813 116.511 51.3558 116.982C51.2302 117.45 51.0233 117.817 50.7349 118.082C50.4464 118.346 50.0833 118.495 49.6456 118.531ZM49.5935 117.892C50.0273 117.856 50.3472 117.62 50.5533 117.182C50.7594 116.744 50.8308 116.138 50.7677 115.363C50.7257 114.848 50.6348 114.414 50.4948 114.06C50.3569 113.707 50.1775 113.444 49.9567 113.271C49.7379 113.098 49.4852 113.023 49.1986 113.046C48.7686 113.081 48.4499 113.32 48.2423 113.764C48.0347 114.206 47.9623 114.814 48.0253 115.586C48.0673 116.102 48.1572 116.535 48.295 116.886C48.4328 117.238 48.611 117.499 48.8297 117.67C49.0503 117.841 49.3049 117.915 49.5935 117.892ZM53.3294 116.511L53.2487 115.664L53.3881 115.652L55.1784 113.506L56.0267 113.437L54.1181 115.71L54.06 115.715L53.3294 116.511ZM52.8229 118.19L52.338 112.24L53.0236 112.184L53.5085 118.134L52.8229 118.19ZM55.6583 117.959L53.7353 115.893L54.1845 115.377L56.5298 117.888L55.6583 117.959Z" fill="#615E83"/>
<line x1="61.9982" y1="114.121" x2="71.6473" y2="232.517" stroke="#E5E5EF" stroke-width="0.586275"/>
<line x1="141.665" y1="107.629" x2="151.314" y2="226.025" stroke="#E5E5EF" stroke-width="0.586275"/>
<line x1="221.333" y1="101.136" x2="230.982" y2="219.532" stroke="#E5E5EF" stroke-width="0.586275"/>
<line x1="301" y1="94.6431" x2="310.649" y2="213.039" stroke="#E5E5EF" stroke-width="0.586275"/>
<line x1="67.7082" y1="182.372" x2="306.573" y2="162.905" stroke="#E5E5EF" stroke-width="0.879412" stroke-linecap="round" stroke-dasharray="2.35 4.1"/>
<line x1="64.8977" y1="147.896" x2="303.763" y2="128.429" stroke="#E5E5EF" stroke-width="0.879412" stroke-linecap="round" stroke-dasharray="2.35 4.1"/>
<line x1="62.1086" y1="113.671" x2="300.974" y2="94.2041" stroke="#E5E5EF" stroke-width="0.879412" stroke-linecap="round" stroke-dasharray="2.35 4.1"/>
<path d="M65.5942 151.399L73.9156 141.906L103.599 146.369L116.65 187.567L125.718 184.292L131.73 139.126L141.538 147.866L159.401 127.694L169.416 136.055L183.917 192.106L192.604 192.968L198.959 143.186L206.744 125.647L225.137 119.318L233.735 110.286L249.135 177.373L259.154 182.835L262.704 116.257L272.815 118.451L290.643 103.716L300.758 111.827" stroke="#FCB5C3" stroke-width="1.75882" stroke-linecap="round" stroke-linejoin="round"/>
<path d="M65.6241 151.762L73.0685 139.593L90.4778 147.822L98.772 148.545L110.524 192.292L118.274 185.019L121.835 131.722L138.678 140.371L146.776 131.983L155.98 143.883L168.376 193.615L177.397 201.935L180.446 136.967L187.384 121.067L204.249 127.3L211.376 119.112L224.693 176.105L233.217 186.398L236.454 121.052L244.898 131.714L254.56 134.429L269.709 124.983L283.238 186.239L291.709 185.549L295.683 132.497L303.07 126.974" stroke="#962DFF" stroke-width="1.75882" stroke-linecap="round" stroke-linejoin="round"/>
<line x1="40.5231" y1="92.4108" x2="299.548" y2="71.3008" stroke="#E5E5EF" stroke-width="0.586275"/>
<rect x="240.748" y="37.7823" width="5.86274" height="5.86274" rx="2.93137" transform="rotate(-4.65922 240.748 37.7823)" fill="#962DFF"/>
<path d="M252.469 42.7783L251.984 36.8286L252.705 36.7699L253.137 42.0804L255.903 41.855L255.955 42.4941L252.469 42.7783ZM258.299 42.4084C258.016 42.4314 257.756 42.3991 257.516 42.3113C257.277 42.2217 257.081 42.0807 256.929 41.8884C256.777 41.6941 256.689 41.4517 256.665 41.1612C256.644 40.9056 256.678 40.6942 256.766 40.5272C256.853 40.3583 256.978 40.2214 257.139 40.1167C257.3 40.0119 257.48 39.929 257.68 39.8678C257.881 39.8046 258.085 39.751 258.29 39.707C258.558 39.6501 258.776 39.606 258.943 39.5748C259.112 39.5416 259.233 39.4995 259.307 39.4487C259.383 39.3977 259.416 39.3169 259.407 39.2066L259.405 39.1833C259.382 38.8967 259.285 38.6803 259.115 38.5343C258.947 38.3881 258.706 38.3279 258.39 38.3536C258.063 38.3803 257.812 38.4729 257.638 38.6314C257.463 38.7898 257.345 38.9535 257.283 39.1223L256.613 38.9429C256.707 38.6623 256.845 38.4386 257.026 38.2718C257.209 38.1028 257.414 37.9789 257.639 37.9001C257.867 37.8192 258.093 37.7696 258.317 37.7513C258.461 37.7396 258.627 37.7436 258.816 37.7633C259.006 37.7809 259.193 37.8349 259.376 37.9253C259.56 38.0155 259.719 38.1614 259.853 38.3631C259.986 38.5647 260.067 38.8427 260.096 39.1972L260.336 42.1371L259.65 42.193L259.601 41.5887L259.566 41.5916C259.528 41.6922 259.459 41.8021 259.359 41.9213C259.26 42.0406 259.123 42.1463 258.949 42.2384C258.775 42.3306 258.559 42.3872 258.299 42.4084ZM258.354 41.784C258.625 41.7619 258.849 41.69 259.026 41.5683C259.205 41.4465 259.336 41.2975 259.417 41.1212C259.5 40.9448 259.534 40.7637 259.519 40.5778L259.468 39.9503C259.441 39.9875 259.38 40.0246 259.284 40.0617C259.189 40.0968 259.079 40.1301 258.953 40.1618C258.828 40.1915 258.707 40.2189 258.588 40.2442C258.471 40.2674 258.376 40.2868 258.303 40.3025C258.127 40.3403 257.963 40.3916 257.813 40.4565C257.664 40.5193 257.546 40.6059 257.459 40.7163C257.375 40.8246 257.339 40.9659 257.354 41.1402C257.373 41.3784 257.476 41.5514 257.662 41.659C257.85 41.7646 258.081 41.8062 258.354 41.784ZM264.466 38.3147L263.864 38.5392C263.817 38.4397 263.752 38.3446 263.668 38.2539C263.587 38.1611 263.479 38.088 263.346 38.0345C263.213 37.981 263.047 37.9624 262.848 37.9786C262.574 38.0009 262.352 38.0824 262.18 38.2231C262.01 38.3617 261.933 38.5269 261.949 38.7187C261.963 38.8891 262.035 39.0186 262.167 39.1073C262.299 39.196 262.5 39.2625 262.769 39.3069L263.444 39.4156C263.851 39.4799 264.16 39.6039 264.372 39.7874C264.584 39.969 264.703 40.2157 264.728 40.5275C264.749 40.7832 264.694 41.0177 264.563 41.2311C264.434 41.4444 264.244 41.6198 263.992 41.7573C263.74 41.8948 263.441 41.9777 263.094 42.0059C262.639 42.043 262.254 41.9749 261.94 41.8017C261.625 41.6285 261.413 41.3553 261.303 40.9821L261.94 40.7664C262.022 41.0015 262.153 41.1721 262.336 41.2781C262.52 41.384 262.752 41.4255 263.033 41.4026C263.353 41.3766 263.601 41.2881 263.778 41.1372C263.956 40.9842 264.038 40.8119 264.022 40.6202C264.009 40.4652 263.945 40.3399 263.828 40.2441C263.71 40.1464 263.537 40.0806 263.309 40.0466L262.551 39.9329C262.134 39.8694 261.822 39.7438 261.613 39.556C261.407 39.3662 261.291 39.1173 261.266 38.8094C261.245 38.5576 261.298 38.3291 261.424 38.1239C261.551 37.9186 261.733 37.7507 261.97 37.6203C262.209 37.4897 262.485 37.4116 262.799 37.386C263.241 37.35 263.595 37.4186 263.863 37.5918C264.132 37.7648 264.333 38.0057 264.466 38.3147ZM267.438 37.0664L267.486 37.6474L265.173 37.8359L265.126 37.2549L267.438 37.0664ZM265.713 36.1309L266.398 36.075L266.745 40.3281C266.761 40.5217 266.801 40.6647 266.865 40.7569C266.931 40.8471 267.009 40.905 267.101 40.9307C267.195 40.9543 267.292 40.9619 267.392 40.9537C267.468 40.9476 267.53 40.9387 267.577 40.927C267.625 40.9133 267.663 40.9024 267.692 40.8942L267.881 41.4988C267.836 41.52 267.773 41.5427 267.691 41.5669C267.609 41.5931 267.505 41.6114 267.377 41.6218C267.183 41.6376 266.99 41.6114 266.797 41.5433C266.606 41.475 266.443 41.3606 266.307 41.2001C266.173 41.0395 266.096 40.8294 266.074 40.5699L265.713 36.1309ZM270.742 35.2999L271.602 35.2298L274.027 40.0037L274.096 39.998L275.716 34.8945L276.576 34.8245L277.06 40.7741L276.386 40.829L276.018 36.3087L275.96 36.3134L274.469 40.9853L273.818 41.0383L271.591 36.6695L271.533 36.6743L271.901 41.1946L271.227 41.2495L270.742 35.2999ZM280.232 40.6092C279.83 40.642 279.468 40.5749 279.149 40.408C278.831 40.2409 278.573 39.9919 278.374 39.661C278.178 39.33 278.061 38.934 278.023 38.4731C277.985 38.0083 278.036 37.5957 278.176 37.2353C278.319 36.8747 278.533 36.5863 278.82 36.3699C279.108 36.1534 279.454 36.0287 279.856 35.9959C280.259 35.963 280.62 36.0302 280.937 36.1973C281.257 36.3643 281.515 36.6142 281.712 36.9471C281.911 37.2799 282.029 37.6787 282.067 38.1435C282.104 38.6045 282.052 39.0143 281.91 39.3729C281.769 39.7314 281.555 40.0189 281.266 40.2354C280.98 40.4517 280.635 40.5763 280.232 40.6092ZM280.182 39.9933C280.488 39.9683 280.734 39.8694 280.918 39.6964C281.103 39.5234 281.233 39.3053 281.307 39.0419C281.381 38.7785 281.406 38.4977 281.381 38.1994C281.357 37.9012 281.287 37.6271 281.171 37.3773C281.055 37.1274 280.892 36.9311 280.681 36.7884C280.471 36.6457 280.213 36.5868 279.907 36.6118C279.601 36.6367 279.355 36.7366 279.171 36.9115C278.986 37.0864 278.857 37.3066 278.783 37.5719C278.709 37.8372 278.684 38.119 278.709 38.4172C278.733 38.7155 278.803 38.9886 278.919 39.2365C279.034 39.4844 279.197 39.6787 279.408 39.8195C279.618 39.9603 279.876 40.0182 280.182 39.9933ZM283.76 37.5259L283.979 40.2102L283.293 40.2661L282.93 35.8039L283.592 35.7499L283.649 36.4471L283.707 36.4424C283.793 36.2073 283.937 36.0123 284.139 35.8574C284.341 35.7006 284.61 35.6085 284.947 35.581C285.249 35.5564 285.518 35.5968 285.755 35.7023C285.992 35.8059 286.183 35.9774 286.329 36.217C286.475 36.4546 286.564 36.7633 286.595 37.1428L286.826 39.9782L286.14 40.0341L285.913 37.2452C285.884 36.8947 285.771 36.629 285.573 36.4482C285.375 36.2655 285.117 36.1871 284.8 36.213C284.581 36.2308 284.389 36.2942 284.224 36.4032C284.062 36.512 283.938 36.6614 283.854 36.8515C283.77 37.0416 283.739 37.2664 283.76 37.5259ZM289.656 35.2557L289.703 35.8368L287.391 36.0252L287.343 35.4442L289.656 35.2557ZM287.93 34.3202L288.616 34.2643L288.962 38.5174C288.978 38.711 289.018 38.854 289.082 38.9463C289.148 39.0364 289.227 39.0943 289.318 39.12C289.412 39.1436 289.509 39.1513 289.61 39.1431C289.685 39.1369 289.747 39.128 289.795 39.1163C289.842 39.1027 289.881 39.0917 289.909 39.0836L290.099 39.6881C290.054 39.7093 289.99 39.732 289.908 39.7562C289.827 39.7824 289.722 39.8007 289.594 39.8111C289.4 39.8269 289.207 39.8007 289.015 39.7326C288.824 39.6643 288.66 39.5499 288.525 39.3894C288.391 39.2288 288.313 39.0187 288.292 38.7592L287.93 34.3202ZM291.613 36.8859L291.832 39.5702L291.147 39.6261L290.662 33.6765L291.347 33.6206L291.525 35.8052L291.583 35.8005C291.669 35.5615 291.811 35.3657 292.009 35.2131C292.209 35.0584 292.484 34.9667 292.835 34.9382C293.139 34.9134 293.41 34.9527 293.649 35.0561C293.887 35.1575 294.079 35.328 294.226 35.5676C294.374 35.8051 294.463 36.1156 294.494 36.499L294.726 39.3344L294.04 39.3903L293.813 36.6014C293.784 36.247 293.669 35.9804 293.47 35.8017C293.272 35.621 293.011 35.5438 292.688 35.5701C292.463 35.5884 292.265 35.6523 292.095 35.7617C291.926 35.871 291.798 36.0208 291.71 36.2112C291.625 36.4015 291.592 36.6264 291.613 36.8859Z" fill="#615E83"/>
<rect x="241.919" y="52.1448" width="5.86274" height="5.86274" rx="2.93137" transform="rotate(-4.65922 241.919 52.1448)" fill="#FCB5C3"/>
<path d="M253.466 51.8091L253.414 51.17L257.876 50.8063L257.928 51.4454L256.057 51.5979L256.49 56.9084L255.769 56.9671L255.337 51.6566L253.466 51.8091ZM259.846 53.9327L260.065 56.617L259.38 56.6729L258.895 50.7233L259.58 50.6674L259.758 52.852L259.816 52.8473C259.902 52.6083 260.044 52.4125 260.242 52.2599C260.442 52.1052 260.717 52.0135 261.068 51.9849C261.372 51.9602 261.643 51.9995 261.882 52.1029C262.12 52.2043 262.312 52.3748 262.459 52.6144C262.607 52.8519 262.696 53.1624 262.728 53.5458L262.959 56.3812L262.273 56.4371L262.046 53.6482C262.017 53.2938 261.903 53.0272 261.703 52.8485C261.505 52.6678 261.244 52.5906 260.921 52.6169C260.696 52.6352 260.498 52.6991 260.328 52.8085C260.159 52.9178 260.031 53.0676 259.944 53.258C259.858 53.4483 259.825 53.6732 259.846 53.9327ZM264.213 56.279L263.849 51.8168L264.535 51.7609L264.899 56.2231L264.213 56.279ZM264.137 51.0446C264.004 51.0555 263.885 51.0194 263.78 50.9363C263.678 50.853 263.622 50.7474 263.611 50.6196C263.601 50.4918 263.639 50.3785 263.727 50.2797C263.816 50.1808 263.928 50.1259 264.062 50.115C264.195 50.1041 264.313 50.1403 264.415 50.2236C264.52 50.3068 264.577 50.4122 264.587 50.5401C264.598 50.6679 264.558 50.7813 264.469 50.8802C264.381 50.9789 264.271 51.0338 264.137 51.0446ZM269.033 52.4003L268.431 52.6248C268.384 52.5253 268.319 52.4302 268.235 52.3395C268.154 52.2468 268.046 52.1736 267.913 52.1201C267.78 52.0666 267.614 52.048 267.415 52.0643C267.141 52.0865 266.919 52.168 266.747 52.3088C266.577 52.4474 266.5 52.6126 266.516 52.8043C266.53 52.9747 266.602 53.1043 266.734 53.193C266.866 53.2816 267.067 53.3482 267.336 53.3925L268.011 53.5012C268.418 53.5656 268.727 53.6895 268.939 53.873C269.151 54.0546 269.27 54.3013 269.295 54.6132C269.316 54.8688 269.261 55.1033 269.13 55.3168C269.001 55.53 268.811 55.7054 268.559 55.8429C268.307 55.9804 268.008 56.0633 267.661 56.0916C267.206 56.1286 266.821 56.0606 266.507 55.8873C266.192 55.7141 265.98 55.4409 265.87 55.0678L266.507 54.8521C266.589 55.0872 266.72 55.2577 266.903 55.3638C267.087 55.4696 267.319 55.5111 267.6 55.4882C267.92 55.4622 268.168 55.3737 268.345 55.2229C268.523 55.0699 268.605 54.8975 268.589 54.7058C268.576 54.5508 268.512 54.4255 268.395 54.3298C268.277 54.2321 268.104 54.1663 267.876 54.1323L267.118 54.0186C266.701 53.955 266.389 53.8294 266.18 53.6417C265.974 53.4519 265.858 53.203 265.833 52.895C265.812 52.6433 265.865 52.4148 265.991 52.2096C266.118 52.0042 266.3 51.8363 266.537 51.7059C266.776 51.5753 267.052 51.4972 267.366 51.4716C267.808 51.4357 268.162 51.5042 268.43 51.6774C268.699 51.8504 268.9 52.0914 269.033 52.4003ZM272.337 49.6277L273.197 49.5576L275.622 54.3315L275.691 54.3258L277.311 49.2224L278.171 49.1523L278.656 55.1019L277.982 55.1568L277.613 50.6365L277.555 50.6413L276.064 55.3131L275.413 55.3661L273.186 50.9974L273.128 51.0021L273.496 55.5224L272.822 55.5773L272.337 49.6277ZM281.828 54.937C281.425 54.9698 281.063 54.9028 280.744 54.7358C280.426 54.5687 280.168 54.3197 279.969 53.9889C279.773 53.6579 279.656 53.2619 279.618 52.801C279.58 52.3361 279.631 51.9235 279.772 51.5631C279.914 51.2026 280.128 50.9141 280.415 50.6977C280.703 50.4812 281.049 50.3565 281.452 50.3237C281.854 50.2909 282.215 50.358 282.532 50.5251C282.852 50.6921 283.11 50.942 283.307 51.275C283.506 51.6078 283.624 52.0066 283.662 52.4714C283.7 52.9323 283.647 53.3421 283.505 53.7007C283.364 54.0592 283.15 54.3467 282.862 54.5632C282.575 54.7796 282.23 54.9042 281.828 54.937ZM281.777 54.3211C282.083 54.2962 282.329 54.1972 282.513 54.0242C282.698 53.8513 282.828 53.6331 282.902 53.3697C282.976 53.1063 283.001 52.8255 282.976 52.5273C282.952 52.229 282.882 51.9549 282.766 51.7051C282.65 51.4552 282.487 51.259 282.276 51.1163C282.066 50.9735 281.808 50.9147 281.502 50.9396C281.196 50.9645 280.95 51.0645 280.766 51.2394C280.581 51.4143 280.452 51.6344 280.378 51.8997C280.304 52.165 280.279 52.4468 280.304 52.7451C280.328 53.0433 280.398 53.3164 280.514 53.5643C280.629 53.8122 280.792 54.0066 281.003 54.1474C281.213 54.2881 281.471 54.3461 281.777 54.3211ZM285.355 51.8538L285.574 54.5381L284.888 54.594L284.525 50.1317L285.187 50.0778L285.244 50.775L285.302 50.7702C285.388 50.5351 285.532 50.3401 285.734 50.1853C285.936 50.0285 286.205 49.9363 286.542 49.9089C286.844 49.8842 287.114 49.9247 287.35 50.0301C287.587 50.1337 287.778 50.3053 287.924 50.5448C288.07 50.7825 288.159 51.0911 288.19 51.4707L288.421 54.3061L287.735 54.3619L287.508 51.573C287.48 51.2225 287.366 50.9568 287.168 50.7761C286.97 50.5934 286.712 50.5149 286.395 50.5408C286.176 50.5587 285.984 50.6221 285.819 50.731C285.657 50.8398 285.533 50.9892 285.449 51.1793C285.366 51.3694 285.334 51.5943 285.355 51.8538ZM291.251 49.5836L291.298 50.1646L288.986 50.3531L288.938 49.772L291.251 49.5836ZM289.525 48.648L290.211 48.5922L290.557 52.8452C290.573 53.0389 290.613 53.1819 290.677 53.2741C290.743 53.3643 290.822 53.4222 290.914 53.4479C291.007 53.4714 291.104 53.4791 291.205 53.4709C291.28 53.4647 291.342 53.4558 291.39 53.4441C291.438 53.4305 291.476 53.4196 291.504 53.4114L291.694 54.0159C291.649 54.0371 291.585 54.0599 291.504 54.0841C291.422 54.1102 291.317 54.1285 291.189 54.1389C290.996 54.1547 290.802 54.1286 290.61 54.0604C290.419 53.9921 290.256 53.8778 290.12 53.7173C289.986 53.5566 289.908 53.3465 289.887 53.087L289.525 48.648ZM293.208 51.2138L293.427 53.8981L292.742 53.9539L292.257 48.0043L292.942 47.9484L293.12 50.1331L293.178 50.1283C293.264 49.8893 293.406 49.6935 293.604 49.5409C293.804 49.3862 294.079 49.2946 294.43 49.266C294.734 49.2412 295.005 49.2805 295.244 49.3839C295.482 49.4854 295.674 49.6559 295.821 49.8954C295.969 50.1329 296.058 50.4434 296.09 50.8269L296.321 53.6622L295.635 53.7181L295.408 50.9292C295.379 50.5748 295.265 50.3083 295.065 50.1296C294.867 49.9488 294.606 49.8716 294.283 49.898C294.058 49.9163 293.86 49.9801 293.69 50.0896C293.521 50.1988 293.393 50.3487 293.306 50.5391C293.22 50.7293 293.187 50.9542 293.208 51.2138Z" fill="#615E83"/>
<path d="M96.4137 71.7385L95.9137 65.6029L96.576 65.5489L96.6338 66.2578L96.7151 66.2511C96.7592 66.1696 96.8209 66.0651 96.9002 65.9378C96.9812 65.8083 97.1022 65.6893 97.2629 65.5807C97.4255 65.47 97.652 65.4028 97.9425 65.3791C98.3182 65.3485 98.6571 65.4154 98.959 65.5799C99.2609 65.7444 99.5063 65.9925 99.6952 66.3241C99.884 66.6557 99.9975 67.0559 100.036 67.5246C100.074 67.9972 100.027 68.4133 99.8948 68.7731C99.7621 69.1309 99.5612 69.4164 99.2919 69.6294C99.0226 69.8404 98.7019 69.9611 98.3301 69.9914C98.0435 70.0148 97.8101 69.986 97.63 69.9052C97.4497 69.8224 97.3081 69.7238 97.2052 69.6093C97.1022 69.493 97.0221 69.3962 96.9652 69.3189L96.9071 69.3236L97.0993 71.6826L96.4137 71.7385ZM96.7695 67.7791C96.7969 68.1161 96.8706 68.4093 96.9903 68.6589C97.1099 68.9065 97.2706 69.0952 97.4722 69.225C97.6737 69.3528 97.9119 69.4055 98.1869 69.3831C98.4736 69.3597 98.7066 69.2647 98.886 69.098C99.0672 68.9292 99.1957 68.7121 99.2716 68.4466C99.3492 68.1791 99.3751 67.8865 99.3492 67.5688C99.3236 67.2551 99.2522 66.9763 99.1348 66.7324C99.0192 66.4864 98.8586 66.2977 98.6529 66.1663C98.4491 66.0328 98.2019 65.9779 97.9113 66.0016C97.6325 66.0243 97.4039 66.1141 97.2256 66.271C97.0472 66.4259 96.9198 66.6332 96.8435 66.8928C96.767 67.1506 96.7423 67.446 96.7695 67.7791ZM102.584 69.6564C102.301 69.6795 102.04 69.6471 101.801 69.5594C101.562 69.4697 101.366 69.3287 101.214 69.1364C101.062 68.9422 100.974 68.6998 100.95 68.4093C100.929 68.1536 100.963 67.9423 101.05 67.7753C101.138 67.6063 101.262 67.4695 101.423 67.3647C101.585 67.2599 101.765 67.177 101.965 67.1159C102.166 67.0527 102.369 66.9991 102.574 66.9551C102.843 66.8981 103.06 66.854 103.228 66.8229C103.396 66.7896 103.518 66.7476 103.592 66.6967C103.667 66.6457 103.701 66.565 103.692 66.4546L103.69 66.4314C103.666 66.1447 103.57 65.9284 103.4 65.7824C103.232 65.6362 102.99 65.576 102.675 65.6017C102.347 65.6284 102.097 65.7209 101.922 65.8794C101.748 66.0379 101.63 66.2015 101.568 66.3704L100.898 66.191C100.992 65.9104 101.13 65.6866 101.311 65.5198C101.494 65.3509 101.699 65.227 101.924 65.1482C102.152 65.0672 102.378 65.0176 102.602 64.9993C102.746 64.9876 102.912 64.9917 103.1 65.0114C103.291 65.029 103.478 65.083 103.66 65.1733C103.845 65.2636 104.004 65.4095 104.138 65.6111C104.271 65.8128 104.352 66.0908 104.381 66.4452L104.621 69.3851L103.935 69.441L103.886 68.8368L103.851 68.8396C103.812 68.9402 103.743 69.0502 103.644 69.1694C103.544 69.2886 103.408 69.3943 103.234 69.4865C103.06 69.5786 102.844 69.6353 102.584 69.6564ZM102.638 69.032C102.91 69.0099 103.134 68.938 103.311 68.8164C103.49 68.6945 103.62 68.5455 103.702 68.3693C103.785 68.1929 103.819 68.0117 103.803 67.8258L103.752 67.1983C103.726 67.2355 103.665 67.2727 103.568 67.3098C103.474 67.3448 103.363 67.3782 103.237 67.4099C103.113 67.4395 102.991 67.467 102.873 67.4922C102.756 67.5154 102.661 67.5349 102.588 67.5505C102.412 67.5883 102.248 67.6396 102.097 67.7046C101.949 67.7674 101.831 67.854 101.744 67.9644C101.66 68.0727 101.624 68.214 101.639 68.3883C101.658 68.6265 101.761 68.7994 101.947 68.9071C102.135 69.0126 102.365 69.0543 102.638 69.032ZM108.751 65.5627L108.149 65.7872C108.102 65.6877 108.037 65.5926 107.953 65.502C107.872 65.4092 107.764 65.336 107.631 65.2825C107.498 65.2291 107.332 65.2104 107.132 65.2267C106.859 65.2489 106.637 65.3304 106.465 65.4712C106.295 65.6098 106.218 65.775 106.233 65.9667C106.247 66.1371 106.32 66.2667 106.452 66.3554C106.584 66.444 106.785 66.5106 107.053 66.5549L107.729 66.6636C108.136 66.728 108.445 66.8519 108.657 67.0354C108.869 67.217 108.987 67.4638 109.013 67.7756C109.034 68.0312 108.979 68.2657 108.848 68.4792C108.719 68.6924 108.529 68.8678 108.277 69.0053C108.025 69.1428 107.725 69.2257 107.379 69.254C106.924 69.2911 106.539 69.223 106.224 69.0497C105.91 68.8765 105.698 68.6033 105.587 68.2302L106.225 68.0145C106.306 68.2496 106.438 68.4201 106.62 68.5262C106.805 68.632 107.037 68.6735 107.318 68.6506C107.637 68.6246 107.886 68.5361 108.062 68.3853C108.241 68.2323 108.322 68.0599 108.307 67.8682C108.294 67.7133 108.229 67.5879 108.112 67.4922C107.995 67.3945 107.822 67.3287 107.593 67.2947L106.835 67.181C106.419 67.1175 106.106 66.9918 105.898 66.8041C105.692 66.6143 105.576 66.3654 105.551 66.0574C105.53 65.8057 105.583 65.5772 105.708 65.372C105.836 65.1666 106.018 64.9987 106.255 64.8683C106.494 64.7377 106.77 64.6596 107.084 64.6341C107.526 64.5981 107.88 64.6667 108.148 64.8398C108.417 65.0128 108.618 65.2538 108.751 65.5627ZM111.723 64.3145L111.77 64.8955L109.458 65.0839L109.411 64.5029L111.723 64.3145ZM109.998 63.3789L110.683 63.3231L111.03 67.5761C111.046 67.7698 111.085 67.9127 111.15 68.005C111.215 68.0952 111.294 68.1531 111.386 68.1787C111.479 68.2023 111.577 68.21 111.677 68.2018C111.753 68.1956 111.815 68.1867 111.862 68.175C111.91 68.1614 111.948 68.1505 111.977 68.1423L112.166 68.7468C112.121 68.768 112.058 68.7907 111.976 68.815C111.894 68.8411 111.789 68.8594 111.662 68.8698C111.468 68.8856 111.275 68.8594 111.082 68.7913C110.891 68.723 110.728 68.6086 110.592 68.4481C110.458 68.2875 110.38 68.0774 110.359 67.8179L109.998 63.3789ZM117.424 68.4236C117.041 68.4548 116.694 68.4168 116.383 68.3096C116.074 68.2022 115.822 68.0385 115.626 67.8185C115.433 67.5965 115.315 67.3302 115.274 67.0196L116.007 66.9599C116.038 67.1504 116.117 67.3106 116.245 67.4406C116.372 67.5686 116.533 67.6628 116.727 67.723C116.921 67.7832 117.132 67.804 117.361 67.7854C117.616 67.7646 117.839 67.7015 118.029 67.5964C118.22 67.4912 118.365 67.3546 118.464 67.1866C118.563 67.0187 118.605 66.8301 118.587 66.6209C118.57 66.4021 118.5 66.2138 118.378 66.0561C118.255 65.8964 118.086 65.7777 117.869 65.6998C117.652 65.622 117.393 65.5953 117.09 65.62L116.614 65.6588L116.562 65.0197L117.038 64.9808C117.275 64.9616 117.478 64.9021 117.65 64.8024C117.823 64.7025 117.953 64.5709 118.042 64.4078C118.132 64.2445 118.168 64.0583 118.151 63.8491C118.135 63.6477 118.076 63.476 117.975 63.3342C117.873 63.1923 117.738 63.0864 117.568 63.0163C117.401 62.9462 117.208 62.92 116.989 62.9378C116.784 62.9545 116.593 63.0081 116.417 63.0985C116.243 63.1867 116.105 63.3062 116.002 63.4569C115.899 63.6057 115.851 63.7792 115.857 63.9776L115.16 64.0344C115.146 63.7216 115.218 63.4409 115.375 63.1922C115.532 62.9415 115.747 62.7388 116.021 62.5839C116.297 62.4288 116.607 62.3373 116.949 62.3094C117.317 62.2794 117.639 62.3282 117.915 62.4559C118.19 62.5816 118.408 62.7598 118.569 62.9903C118.731 63.2209 118.823 63.4766 118.845 63.7574C118.873 64.0925 118.808 64.3853 118.651 64.636C118.496 64.8864 118.272 65.0694 117.979 65.1849L117.983 65.2314C118.364 65.2628 118.67 65.3986 118.902 65.639C119.134 65.8774 119.266 66.1855 119.296 66.5632C119.323 66.8866 119.258 67.1843 119.103 67.4562C118.95 67.7261 118.728 67.9469 118.438 68.1187C118.147 68.2905 117.81 68.3922 117.424 68.4236ZM122.563 68.0047C122.126 68.0404 121.743 67.9517 121.416 67.7386C121.088 67.5235 120.825 67.195 120.625 66.7532C120.425 66.3094 120.299 65.764 120.246 65.1172C120.193 64.4742 120.23 63.9185 120.356 63.4501C120.483 62.9796 120.691 62.6117 120.979 62.3465C121.269 62.0791 121.631 61.9278 122.065 61.8924C122.499 61.8571 122.88 61.9479 123.207 62.1649C123.537 62.3798 123.802 62.7091 124.002 63.153C124.203 63.5947 124.33 64.137 124.383 64.78C124.435 65.4269 124.399 65.9855 124.274 66.4558C124.148 66.9242 123.941 67.291 123.653 67.5563C123.364 67.8196 123.001 67.9691 122.563 68.0047ZM122.511 67.3656C122.945 67.3303 123.265 67.0936 123.471 66.6557C123.677 66.2178 123.749 65.6115 123.685 64.8368C123.644 64.3217 123.553 63.8875 123.413 63.5343C123.275 63.181 123.095 62.9178 122.875 62.7447C122.656 62.5715 122.403 62.4966 122.116 62.5199C121.686 62.555 121.368 62.7944 121.16 63.2383C120.952 63.6802 120.88 64.2876 120.943 65.0603C120.985 65.5755 121.075 66.0088 121.213 66.3602C121.351 66.7116 121.529 66.9729 121.748 67.1442C121.968 67.3153 122.223 67.3891 122.511 67.3656ZM129.734 67.432C129.362 67.4623 129.026 67.3952 128.726 67.2305C128.426 67.0639 128.182 66.8148 127.993 66.4832C127.804 66.1496 127.69 65.7465 127.651 65.274C127.613 64.8053 127.661 64.392 127.793 64.0342C127.926 63.6763 128.128 63.3918 128.399 63.1806C128.67 62.9694 128.994 62.8484 129.37 62.8178C129.66 62.7941 129.894 62.8239 130.07 62.907C130.248 62.988 130.387 63.0858 130.486 63.2006C130.587 63.3133 130.665 63.4063 130.722 63.4796L130.78 63.4749L130.601 61.2787L131.287 61.2228L131.772 67.1724L131.109 67.2264L131.053 66.5408L130.972 66.5474C130.928 66.6329 130.865 66.7413 130.782 66.8729C130.699 67.0025 130.575 67.1227 130.411 67.2336C130.246 67.3425 130.021 67.4087 129.734 67.432ZM129.777 66.8086C130.052 66.7862 130.278 66.6956 130.457 66.5368C130.634 66.3761 130.762 66.1638 130.84 65.9002C130.918 65.6345 130.943 65.3332 130.916 64.9962C130.889 64.6631 130.817 64.3756 130.699 64.1336C130.582 63.8897 130.423 63.7058 130.222 63.5818C130.02 63.4559 129.78 63.4043 129.501 63.4271C129.211 63.4507 128.975 63.545 128.793 63.7099C128.613 63.8728 128.486 64.085 128.409 64.3466C128.335 64.6061 128.311 64.8927 128.336 65.2065C128.362 65.5241 128.434 65.8087 128.552 66.0603C128.672 66.3099 128.834 66.5033 129.038 66.6407C129.244 66.776 129.49 66.8319 129.777 66.8086ZM134.444 67.0599C134.161 67.0829 133.9 67.0506 133.661 66.9628C133.422 66.8732 133.226 66.7322 133.074 66.5399C132.922 66.3456 132.834 66.1032 132.81 65.8127C132.789 65.5571 132.823 65.3457 132.911 65.1787C132.998 65.0098 133.122 64.8729 133.284 64.7682C133.445 64.6634 133.625 64.5805 133.825 64.5193C134.026 64.4561 134.23 64.4025 134.435 64.3585C134.703 64.3016 134.921 64.2575 135.088 64.2263C135.256 64.1931 135.378 64.151 135.452 64.1002C135.527 64.0492 135.561 63.9684 135.552 63.8581L135.55 63.8348C135.527 63.5482 135.43 63.3318 135.26 63.1858C135.092 63.0396 134.85 62.9794 134.535 63.0051C134.207 63.0318 133.957 63.1244 133.782 63.2829C133.608 63.4413 133.49 63.605 133.428 63.7738L132.758 63.5944C132.852 63.3138 132.99 63.0901 133.171 62.9233C133.354 62.7543 133.559 62.6304 133.784 62.5516C134.012 62.4707 134.238 62.4211 134.462 62.4028C134.606 62.3911 134.772 62.3951 134.96 62.4148C135.151 62.4324 135.338 62.4864 135.521 62.5768C135.705 62.667 135.864 62.8129 135.998 63.0146C136.131 63.2162 136.212 63.4942 136.241 63.8487L136.481 66.7886L135.795 66.8445L135.746 66.2402L135.711 66.2431C135.673 66.3437 135.603 66.4536 135.504 66.5728C135.405 66.6921 135.268 66.7978 135.094 66.8899C134.92 66.9821 134.704 67.0387 134.444 67.0599ZM134.499 66.4355C134.77 66.4134 134.994 66.3415 135.171 66.2198C135.35 66.098 135.48 65.949 135.562 65.7727C135.645 65.5963 135.679 65.4152 135.664 65.2293L135.612 64.6018C135.586 64.639 135.525 64.6761 135.429 64.7132C135.334 64.7483 135.224 64.7816 135.097 64.8133C134.973 64.843 134.852 64.8704 134.733 64.8957C134.616 64.9189 134.521 64.9383 134.448 64.954C134.272 64.9918 134.108 65.0431 133.958 65.108C133.809 65.1708 133.691 65.2574 133.604 65.3678C133.52 65.4761 133.484 65.6174 133.499 65.7917C133.518 66.0299 133.621 66.2029 133.807 66.3105C133.995 66.4161 134.225 66.4577 134.499 66.4355ZM138.15 68.337C138.034 68.3465 137.93 68.3452 137.837 68.3333C137.745 68.3233 137.68 68.311 137.644 68.2964L137.769 67.6779C137.939 67.7069 138.088 67.7104 138.214 67.6884C138.341 67.6664 138.45 67.6 138.54 67.4893C138.633 67.3804 138.712 67.2092 138.776 66.9758L138.876 66.6168L136.86 62.2658L137.604 62.2052L139.125 65.6607L139.172 65.6569L140.114 62.0007L140.858 61.9401L139.38 67.2074C139.314 67.4448 139.224 67.6442 139.11 67.8055C138.997 67.9687 138.86 68.094 138.699 68.1811C138.54 68.2681 138.358 68.3201 138.15 68.337ZM145.005 62.6081L144.403 62.8326C144.356 62.7331 144.291 62.638 144.207 62.5473C144.126 62.4545 144.018 62.3814 143.885 62.3279C143.752 62.2744 143.586 62.2558 143.386 62.2721C143.113 62.2943 142.891 62.3758 142.719 62.5165C142.549 62.6551 142.472 62.8203 142.487 63.0121C142.501 63.1825 142.574 63.3121 142.706 63.4007C142.838 63.4894 143.039 63.5559 143.307 63.6003L143.983 63.709C144.39 63.7733 144.699 63.8973 144.911 64.0808C145.123 64.2624 145.241 64.5091 145.267 64.8209C145.288 65.0766 145.233 65.3111 145.102 65.5245C144.973 65.7378 144.783 65.9132 144.531 66.0507C144.279 66.1882 143.979 66.2711 143.633 66.2993C143.178 66.3364 142.793 66.2683 142.478 66.0951C142.164 65.9219 141.952 65.6487 141.841 65.2756L142.479 65.0598C142.56 65.2949 142.692 65.4655 142.874 65.5715C143.059 65.6774 143.291 65.7189 143.572 65.696C143.891 65.67 144.14 65.5815 144.316 65.4306C144.495 65.2776 144.576 65.1053 144.561 64.9136C144.548 64.7586 144.483 64.6333 144.366 64.5375C144.249 64.4398 144.076 64.374 143.847 64.34L143.089 64.2263C142.673 64.1628 142.36 64.0372 142.152 63.8494C141.946 63.6596 141.83 63.4107 141.805 63.1028C141.784 62.851 141.837 62.6225 141.962 62.4174C142.09 62.212 142.272 62.0441 142.509 61.9137C142.748 61.7831 143.024 61.705 143.338 61.6794C143.78 61.6434 144.134 61.712 144.402 61.8852C144.671 62.0582 144.872 62.2991 145.005 62.6081Z" fill="#9291A5"/>
<path d="M43.446 76.2275C42.7643 76.2831 42.1476 76.2154 41.5959 76.0245C41.047 75.8302 40.602 75.5387 40.2609 75.1499C39.9225 74.7577 39.7266 74.2896 39.6731 73.7456L41.6635 73.5834C41.6943 73.8106 41.7852 74.0054 41.9363 74.1677C42.0902 74.3268 42.2866 74.444 42.5256 74.5195C42.7646 74.595 43.0286 74.621 43.3178 74.5974C43.6191 74.5729 43.881 74.4979 44.1036 74.3725C44.3263 74.2472 44.4953 74.0848 44.6108 73.8854C44.7263 73.6861 44.774 73.4631 44.7539 73.2166C44.7336 72.9671 44.6456 72.7521 44.49 72.5718C44.3371 72.3882 44.1269 72.2521 43.8593 72.1637C43.5947 72.0749 43.2859 72.0449 42.9329 72.0737L42.0609 72.1448L41.9426 70.6931L42.8146 70.622C43.1128 70.5977 43.3719 70.5245 43.5917 70.4024C43.8145 70.2801 43.9824 70.1224 44.0954 69.9294C44.2081 69.7333 44.2544 69.512 44.2343 69.2655C44.2152 69.0312 44.1422 68.8303 44.0152 68.663C43.891 68.4924 43.7243 68.365 43.5153 68.281C43.3093 68.1966 43.0739 68.1653 42.8091 68.1869C42.5413 68.2087 42.3003 68.2773 42.086 68.3928C41.8715 68.5053 41.7045 68.6552 41.585 68.8427C41.4655 69.0301 41.4108 69.2429 41.4211 69.481L39.5265 69.6354C39.4918 69.096 39.6068 68.6087 39.8715 68.1735C40.1363 67.7383 40.5119 67.3845 40.9982 67.1121C41.4874 66.8363 42.0515 66.6724 42.6906 66.6203C43.3358 66.5677 43.9099 66.6388 44.4129 66.8338C44.9159 67.0287 45.3176 67.3145 45.6179 67.6914C45.921 68.065 46.0911 68.4984 46.1283 68.9917C46.174 69.5149 46.0468 69.9649 45.7466 70.3417C45.4495 70.7182 45.043 70.975 44.5272 71.112L44.5332 71.185C45.2282 71.2172 45.7711 71.4135 46.162 71.7738C46.5557 72.1308 46.7747 72.6001 46.819 73.1816C46.8655 73.7139 46.7503 74.1997 46.4736 74.6389C46.2 75.0779 45.802 75.4381 45.2796 75.7197C44.7572 76.0012 44.146 76.1705 43.446 76.2275ZM51.879 75.5403C51.2338 75.5929 50.6489 75.521 50.1243 75.3248C49.6028 75.1284 49.1775 74.8337 48.8483 74.4408C48.5191 74.0479 48.3264 73.5826 48.2704 73.0449L50.1877 72.8887C50.2385 73.2491 50.4147 73.5304 50.716 73.7325C51.0174 73.9347 51.3629 74.0199 51.7525 73.9881C52.0629 73.9628 52.3312 73.872 52.5575 73.7157C52.7865 73.5561 52.9579 73.3476 53.0717 73.0902C53.1883 72.8295 53.2335 72.5378 53.2072 72.2152C53.1804 71.8865 53.0869 71.6031 52.9265 71.3649C52.7692 71.1265 52.5631 70.9473 52.3083 70.8271C52.0534 70.707 51.7691 70.6581 51.4553 70.6806C51.1814 70.703 50.9197 70.781 50.6702 70.9147C50.4237 71.0481 50.2369 71.218 50.1098 71.4245L48.3265 71.2527L48.3675 66.2863L54.0831 65.8205L54.2148 67.4365L50.129 67.7695L50.0779 70.1312L50.1327 70.1267C50.2782 69.882 50.5106 69.67 50.8299 69.4908C51.1492 69.3116 51.5143 69.2053 51.9252 69.1718C52.4882 69.1259 53.0012 69.2174 53.4641 69.4462C53.9269 69.675 54.305 70.0103 54.5984 70.4521C54.8915 70.8908 55.061 71.41 55.1068 72.0098C55.1612 72.6396 55.0607 73.2115 54.8054 73.7255C54.553 74.2363 54.1749 74.6531 53.6712 74.976C53.1703 75.2956 52.5729 75.4837 51.879 75.5403ZM60.1647 74.865C59.5195 74.9176 58.9346 74.8458 58.4101 74.6496C57.8885 74.4531 57.4632 74.1584 57.134 73.7655C56.8048 73.3726 56.6122 72.9073 56.5561 72.3697L58.4734 72.2134C58.5243 72.5738 58.7004 72.8551 59.0018 73.0573C59.3032 73.2594 59.6486 73.3446 60.0382 73.3129C60.3486 73.2876 60.617 73.1968 60.8432 73.0405C61.0722 72.8809 61.2436 72.6724 61.3574 72.4149C61.4741 72.1542 61.5192 71.8625 61.4929 71.5399C61.4661 71.2112 61.3726 70.9278 61.2122 70.6897C61.0549 70.4513 60.8489 70.272 60.594 70.1518C60.3391 70.0317 60.0548 69.9829 59.7411 70.0054C59.4672 70.0277 59.2054 70.1057 58.9559 70.2394C58.7095 70.3728 58.5226 70.5428 58.3955 70.7492L56.6122 70.5774L56.6532 65.611L62.3688 65.1452L62.5005 66.7613L58.4147 67.0942L58.3636 69.4559L58.4184 69.4514C58.5639 69.2067 58.7963 68.9948 59.1156 68.8156C59.435 68.6364 59.8001 68.53 60.2109 68.4965C60.7739 68.4506 61.2869 68.5421 61.7498 68.7709C62.2127 68.9997 62.5908 69.335 62.8841 69.7768C63.1772 70.2155 63.3467 70.7348 63.3925 71.3346C63.4469 71.9643 63.3464 72.5362 63.0912 73.0503C62.8387 73.561 62.4606 73.9778 61.9569 74.3008C61.456 74.6204 60.8586 74.8085 60.1647 74.865ZM66.7517 72.9128L66.7424 73.419C66.7356 73.824 66.6921 74.2304 66.612 74.6383C66.5352 75.0489 66.4492 75.422 66.354 75.7576C66.2618 76.0929 66.1868 76.3564 66.1289 76.548L64.8689 76.6507C64.8999 76.4674 64.9419 76.2112 64.9947 75.8822C65.0478 75.5562 65.0931 75.191 65.1306 74.7866C65.1681 74.3822 65.1791 73.9723 65.1636 73.5569L65.1448 73.0437L66.7517 72.9128ZM71.7373 73.9219C71.0343 73.9791 70.3995 73.916 69.8331 73.7324C69.2695 73.5455 68.8162 73.2653 68.4733 72.8919C68.1304 72.5186 67.9383 72.0793 67.8972 71.574C67.8654 71.1845 67.9245 70.8197 68.0745 70.4797C68.2273 70.1363 68.4486 69.8441 68.7383 69.603C69.0279 69.3588 69.3604 69.1908 69.7358 69.0989L69.7306 69.035C69.2233 68.9752 68.7988 68.7663 68.4571 68.4081C68.1152 68.0469 67.9234 67.6106 67.8817 67.0993C67.8423 66.6154 67.9487 66.1733 68.201 65.7728C68.453 65.3693 68.8168 65.0394 69.2922 64.7832C69.7704 64.5236 70.3245 64.3682 70.9545 64.3168C71.5845 64.2655 72.1549 64.3293 72.6658 64.5082C73.1798 64.6869 73.5938 64.9549 73.9078 65.3123C74.2216 65.6666 74.3996 66.0841 74.4418 66.5647C74.4807 67.0793 74.359 67.5411 74.0768 67.9501C73.7946 68.3591 73.4126 68.6338 72.9308 68.7742L72.936 68.8381C73.3153 68.8685 73.666 68.9808 73.9882 69.1751C74.3132 69.3661 74.5789 69.6187 74.7853 69.9327C74.9944 70.2435 75.1164 70.5935 75.1512 70.9829C75.1893 71.4883 75.0694 71.953 74.7915 72.377C74.5135 72.801 74.1101 73.151 73.5811 73.4269C73.0549 73.6996 72.4403 73.8646 71.7373 73.9219ZM71.619 72.4701C71.9325 72.4446 72.2018 72.366 72.4269 72.2343C72.6519 72.0995 72.8216 71.9264 72.9361 71.7148C73.0534 71.5 73.1012 71.2602 73.0796 70.9954C73.0576 70.7246 72.9696 70.4912 72.8158 70.2955C72.6617 70.0966 72.4627 69.9474 72.2187 69.8478C71.9744 69.7452 71.7001 69.7063 71.3958 69.7311C71.0945 69.7556 70.8301 69.8384 70.6026 69.9795C70.3749 70.1176 70.2011 70.2972 70.0813 70.5183C69.9642 70.7362 69.9168 70.9805 69.9388 71.2514C69.9604 71.5162 70.0449 71.7452 70.1924 71.9384C70.3397 72.1286 70.5367 72.2719 70.7835 72.3682C71.0301 72.4615 71.3086 72.4954 71.619 72.4701ZM71.2786 68.293C71.5403 68.2717 71.7688 68.1995 71.964 68.0763C72.1592 67.9532 72.307 67.7926 72.4073 67.5945C72.5075 67.3963 72.5476 67.174 72.5275 66.9275C72.5077 66.684 72.4325 66.4757 72.302 66.3025C72.1712 66.1263 72.0011 65.9946 71.7918 65.9075C71.5823 65.8174 71.3436 65.7832 71.0758 65.805C70.811 65.8266 70.581 65.899 70.3858 66.0221C70.1903 66.1422 70.0423 66.2998 69.9418 66.4949C69.8441 66.6867 69.8051 66.9043 69.825 67.1478C69.8451 67.3943 69.9206 67.6072 70.0516 67.7864C70.1827 67.9657 70.3545 68.1003 70.5671 68.1902C70.7797 68.2801 71.0168 68.3144 71.2786 68.293ZM76.4628 71.7537L76.3359 70.197L79.738 63.7296L81.0801 63.6203L81.2557 65.775L80.4614 65.8397L78.3181 69.9343L78.3241 70.0074L83.8707 69.5553L83.9998 71.1394L76.4628 71.7537ZM81.0843 73.0314L80.9116 70.9132L80.892 70.2209L80.3588 63.679L82.2123 63.528L82.9742 72.8774L81.0843 73.0314ZM88.876 72.5251C88.2308 72.5777 87.6459 72.5058 87.1213 72.3096C86.5998 72.1132 86.1745 71.8185 85.8453 71.4256C85.5161 71.0327 85.3234 70.5674 85.2674 70.0297L87.1847 69.8735C87.2355 70.2339 87.4116 70.5152 87.713 70.7173C88.0144 70.9195 88.3599 71.0047 88.7495 70.9729C89.0599 70.9476 89.3282 70.8568 89.5544 70.7005C89.7835 70.5409 89.9549 70.3324 90.0687 70.075C90.1853 69.8143 90.2305 69.5226 90.2042 69.2C90.1774 68.8713 90.0838 68.5879 89.9235 68.3498C89.7662 68.1114 89.5601 67.9321 89.3052 67.8119C89.0504 67.6918 88.7661 67.6429 88.4523 67.6654C88.1784 67.6878 87.9167 67.7658 87.6672 67.8995C87.4207 68.0329 87.2339 68.2028 87.1067 68.4093L85.3235 68.2375L85.3645 63.2711L91.08 62.8053L91.2118 64.4213L87.126 64.7543L87.0749 67.116L87.1296 67.1115C87.2751 66.8668 87.5076 66.6549 87.8269 66.4756C88.1462 66.2964 88.5113 66.1901 88.9222 66.1566C89.4852 66.1107 89.9982 66.2022 90.461 66.431C90.9239 66.6598 91.302 66.9951 91.5954 67.4369C91.8885 67.8756 92.0579 68.3948 92.1038 68.9947C92.1581 69.6244 92.0577 70.1963 91.8024 70.7103C91.5499 71.2211 91.1718 71.6379 90.6682 71.9608C90.1673 72.2804 89.5699 72.4685 88.876 72.5251Z" fill="#1E1B39"/>
<path d="M38.4514 51.6785L41.2471 57.9328L41.3368 57.9255L43.0829 51.3011L44.054 51.2219L41.8687 59.1004L40.9125 59.1783L37.4803 51.7577L38.4514 51.6785ZM45.7494 58.7841L45.2819 53.0469L46.1634 52.9751L46.6309 58.7122L45.7494 58.7841ZM45.6522 52.0542C45.4804 52.0682 45.3274 52.0218 45.1934 51.9149C45.0618 51.8078 44.9894 51.6721 44.976 51.5078C44.9626 51.3434 45.0121 51.1978 45.1246 51.0708C45.2396 50.9436 45.3829 50.873 45.5548 50.859C45.7266 50.845 45.8783 50.8915 46.0098 50.9986C46.1438 51.1055 46.2176 51.2411 46.231 51.4055C46.2444 51.5698 46.1936 51.7156 46.0786 51.8428C45.9661 51.9697 45.824 52.0402 45.6522 52.0542ZM50.6606 58.5041C50.1078 58.5492 49.621 58.466 49.2002 58.2547C48.7817 58.0406 48.4462 57.7221 48.1936 57.299C47.9434 56.8732 47.7943 56.3665 47.7464 55.7788C47.6985 55.1912 47.7633 54.6645 47.941 54.1988C48.1209 53.7305 48.3936 53.3548 48.759 53.0719C49.1268 52.7862 49.5696 52.6223 50.0875 52.5801C50.3864 52.5557 50.6855 52.5815 50.9849 52.6574C51.2844 52.7332 51.5628 52.8735 51.8201 53.0781C52.0772 53.2802 52.2916 53.5585 52.4634 53.913C52.6352 54.2675 52.7429 54.7124 52.7865 55.2478L52.8169 55.6213L48.3946 55.9817L48.3325 55.2197L51.8584 54.9324C51.832 54.6087 51.7438 54.3251 51.5936 54.0816C51.4459 53.838 51.2478 53.6524 50.9992 53.5247C50.7532 53.3969 50.4708 53.346 50.1521 53.3719C49.801 53.4006 49.5043 53.5125 49.262 53.7077C49.022 53.9002 48.8448 54.1402 48.7304 54.4278C48.616 54.7153 48.5716 55.0172 48.5974 55.3335L48.6388 55.8415C48.6741 56.2747 48.7788 56.6359 48.9527 56.9251C49.129 57.2115 49.358 57.4222 49.6397 57.5571C49.9212 57.6896 50.24 57.7413 50.5961 57.7123C50.8276 57.6934 51.0342 57.644 51.2156 57.564C51.3994 57.4814 51.5544 57.3685 51.6806 57.2254C51.8066 57.0797 51.8988 56.9043 51.9573 56.699L52.8284 56.8686C52.7623 57.1648 52.6323 57.431 52.4385 57.6674C52.2445 57.9013 51.9969 58.0919 51.6955 58.2393C51.394 58.3842 51.049 58.4725 50.6606 58.5041ZM55.6671 57.9758L53.4515 52.3811L54.3778 52.3056L55.9758 56.5971L56.0356 56.5922L56.9027 52.0999L57.844 52.0232L59.4109 56.3021L59.4707 56.2972L60.354 51.8186L61.2803 51.7431L59.9998 57.6227L59.1333 57.6933L57.5191 53.3882L57.4294 53.3955L56.5336 57.9052L55.6671 57.9758ZM66.6142 52.6018L65.8406 52.8905C65.78 52.7625 65.6961 52.6403 65.5889 52.5237C65.4839 52.4044 65.3459 52.3104 65.1748 52.2416C65.0038 52.1728 64.79 52.1489 64.5336 52.1698C64.1825 52.1984 63.8965 52.3032 63.6756 52.4841C63.457 52.6624 63.3577 52.8747 63.3778 53.1212C63.3957 53.3404 63.4895 53.5069 63.6592 53.6209C63.8289 53.7349 64.0865 53.8205 64.4321 53.8775L65.3007 54.0173C65.8238 54.1 66.2216 54.2593 66.494 54.4953C66.7662 54.7288 66.9186 55.046 66.9513 55.4469C66.9781 55.7756 66.9074 56.0771 66.7393 56.3515C66.5736 56.6257 66.3288 56.8512 66.0048 57.028C65.6808 57.2048 65.296 57.3114 64.8503 57.3477C64.2651 57.3954 63.7704 57.3079 63.3663 57.0851C62.9621 56.8624 62.6891 56.5112 62.5472 56.0314L63.3668 55.7541C63.4717 56.0564 63.6412 56.2757 63.8754 56.412C64.1121 56.5481 64.4109 56.6015 64.772 56.572C65.1829 56.5385 65.502 56.4248 65.7293 56.2308C65.9589 56.0341 66.0637 55.8125 66.0436 55.566C66.0274 55.3668 65.944 55.2057 65.7936 55.0826C65.643 54.957 65.4206 54.8723 65.1262 54.8286L64.1518 54.6825C63.6162 54.6008 63.2145 54.4392 62.9467 54.1979C62.6812 53.9538 62.5323 53.6338 62.5 53.2379C62.4736 52.9142 62.5412 52.6204 62.7027 52.3566C62.8666 52.0926 63.101 51.8767 63.4056 51.709C63.7128 51.5411 64.0681 51.4407 64.4715 51.4078C65.0392 51.3616 65.4951 51.4497 65.8391 51.6724C66.1856 51.8948 66.4439 52.2046 66.6142 52.6018Z" fill="#9291A5"/>
</g>
<defs>
<filter id="filter0_dd_124_1020" x="0.913086" y="0.913086" width="347.711" height="294.04" filterUnits="userSpaceOnUse" color-interpolation-filters="sRGB">
<feFlood flood-opacity="0" result="BackgroundImageFix"/>
<feColorMatrix in="SourceAlpha" type="matrix" values="0 0 0 0 0 0 0 0 0 0 0 0 0 0 0 0 0 0 127 0" result="hardAlpha"/>
<feOffset dy="8"/>
<feGaussianBlur stdDeviation="8"/>
<feColorMatrix type="matrix" values="0 0 0 0 0 0 0 0 0 0 0 0 0 0 0 0 0 0 0.08 0"/>
<feBlend mode="normal" in2="BackgroundImageFix" result="effect1_dropShadow_124_1020"/>
<feColorMatrix in="SourceAlpha" type="matrix" values="0 0 0 0 0 0 0 0 0 0 0 0 0 0 0 0 0 0 127 0" result="hardAlpha"/>
<feOffset/>
<feGaussianBlur stdDeviation="2"/>
<feColorMatrix type="matrix" values="0 0 0 0 0 0 0 0 0 0 0 0 0 0 0 0 0 0 0.04 0"/>
<feBlend mode="normal" in2="effect1_dropShadow_124_1020" result="effect2_dropShadow_124_1020"/>
<feBlend mode="normal" in="SourceGraphic" in2="effect2_dropShadow_124_1020" result="shape"/>
</filter>
<filter id="filter1_d_124_1020" x="13.3954" y="6.56799" width="322.746" height="269.075" filterUnits="userSpaceOnUse" color-interpolation-filters="sRGB">
<feFlood flood-opacity="0" result="BackgroundImageFix"/>
<feColorMatrix in="SourceAlpha" type="matrix" values="0 0 0 0 0 0 0 0 0 0 0 0 0 0 0 0 0 0 127 0" result="hardAlpha"/>
<feOffset dy="1.17255"/>
<feGaussianBlur stdDeviation="1.75882"/>
<feComposite in2="hardAlpha" operator="out"/>
<feColorMatrix type="matrix" values="0 0 0 0 0.0509804 0 0 0 0 0.0392157 0 0 0 0 0.172549 0 0 0 0.08 0"/>
<feBlend mode="normal" in2="BackgroundImageFix" result="effect1_dropShadow_124_1020"/>
<feBlend mode="normal" in="SourceGraphic" in2="effect1_dropShadow_124_1020" result="shape"/>
</filter>
</defs>
</svg>
