<svg width="383" height="176" viewBox="0 0 383 176" fill="none" xmlns="http://www.w3.org/2000/svg">
<path d="M0 140L52.2534 126.845L68.9285 105.5L92.8313 115.428L163.428 2L203.451 86.6367L241.807 48.4137L295.727 105.5L322.409 88.1259L343.533 94.8273L383 55.6115" stroke="#F8FAFF" stroke-width="4" stroke-linecap="round" stroke-linejoin="round"/>
<line x1="243.135" y1="3" x2="243.135" y2="209" stroke="#93AAFD" stroke-width="2" stroke-linecap="round" stroke-dasharray="5 5"/>
<circle cx="243.111" cy="47.9734" r="7.85132" fill="white" stroke="#4A3AFF"/>
<circle cx="243.109" cy="47.9735" r="4.87806" fill="#4A3AFF"/>
<g filter="url(#filter0_d_147_2368)">
<path d="M229.565 46.4961C230.433 47.2892 230.433 48.6571 229.565 49.4502L222.424 55.9717C222.33 56.0574 222.231 56.1314 222.13 56.1953L222.13 60.9463C222.13 65.3646 218.548 68.9463 214.13 68.9463L140.999 68.9463C136.581 68.946 132.999 65.3644 132.999 60.9463L132.999 35C132.999 30.5819 136.581 27.0003 140.999 27L214.13 27C218.548 27 222.13 30.5817 222.13 35L222.13 39.751C222.231 39.8149 222.33 39.8889 222.424 39.9746L229.565 46.4961Z" fill="white"/>
</g>
<path d="M150.096 55.4008V40.8554H151.028V55.4008H150.096ZM153.011 45.3667C152.95 44.8289 152.7 44.4122 152.261 44.1167C151.821 43.8175 151.268 43.6679 150.602 43.6679C150.124 43.6679 149.711 43.7436 149.363 43.8952C149.015 44.0429 148.744 44.2474 148.551 44.5088C148.361 44.7664 148.266 45.0599 148.266 45.3895C148.266 45.666 148.331 45.9046 148.46 46.1054C148.592 46.3061 148.765 46.4747 148.977 46.6111C149.193 46.7436 149.424 46.8554 149.67 46.9463C149.916 47.0334 150.153 47.1054 150.38 47.1622L151.516 47.4577C151.888 47.5486 152.268 47.6717 152.658 47.827C153.049 47.9823 153.41 48.1868 153.744 48.4406C154.077 48.6944 154.346 49.0088 154.551 49.3838C154.759 49.7588 154.863 50.2077 154.863 50.7304C154.863 51.3895 154.693 51.9747 154.352 52.4861C154.015 52.9974 153.524 53.4008 152.88 53.6963C152.24 53.9917 151.465 54.1395 150.556 54.1395C149.685 54.1395 148.931 54.0012 148.295 53.7247C147.658 53.4482 147.16 53.0561 146.801 52.5486C146.441 52.0372 146.242 51.4311 146.204 50.7304H147.965C147.999 51.1508 148.136 51.5012 148.374 51.7815C148.617 52.058 148.926 52.2645 149.301 52.4008C149.679 52.5334 150.094 52.5997 150.545 52.5997C151.041 52.5997 151.482 52.522 151.869 52.3667C152.259 52.2077 152.566 51.988 152.789 51.7077C153.013 51.4236 153.124 51.0921 153.124 50.7133C153.124 50.3686 153.026 50.0864 152.829 49.8667C152.636 49.647 152.372 49.4652 152.039 49.3213C151.71 49.1773 151.336 49.0505 150.92 48.9406L149.545 48.5656C148.613 48.3118 147.874 47.9387 147.329 47.4463C146.787 46.9539 146.516 46.3023 146.516 45.4917C146.516 44.8213 146.698 44.2361 147.062 43.7361C147.426 43.2361 147.918 42.8478 148.539 42.5713C149.16 42.291 149.861 42.1508 150.641 42.1508C151.429 42.1508 152.124 42.2891 152.727 42.5656C153.333 42.8421 153.81 43.2228 154.158 43.7077C154.507 44.1887 154.689 44.7417 154.704 45.3667H153.011ZM160.853 54.1054C160.073 54.1054 159.376 53.9709 158.762 53.702C158.152 53.433 157.669 53.0599 157.313 52.5827C156.961 52.1016 156.772 51.5448 156.745 50.9122H158.529C158.552 51.2569 158.667 51.5561 158.876 51.8099C159.088 52.0599 159.364 52.2531 159.705 52.3895C160.046 52.5258 160.425 52.594 160.842 52.594C161.3 52.594 161.705 52.5145 162.058 52.3554C162.414 52.1963 162.692 51.9747 162.893 51.6906C163.094 51.4027 163.194 51.0713 163.194 50.6963C163.194 50.3061 163.094 49.9633 162.893 49.6679C162.696 49.3686 162.406 49.1338 162.024 48.9633C161.645 48.7929 161.186 48.7077 160.649 48.7077H159.666V47.2758H160.649C161.08 47.2758 161.459 47.1982 161.785 47.0429C162.114 46.8876 162.372 46.6717 162.558 46.3952C162.743 46.1148 162.836 45.7872 162.836 45.4122C162.836 45.0523 162.755 44.7398 162.592 44.4747C162.433 44.2058 162.205 43.9955 161.91 43.844C161.618 43.6925 161.274 43.6167 160.876 43.6167C160.497 43.6167 160.143 43.6868 159.813 43.827C159.488 43.9633 159.222 44.1603 159.018 44.4179C158.813 44.6717 158.703 44.9766 158.688 45.3327H156.989C157.008 44.7039 157.194 44.1508 157.546 43.6736C157.902 43.1963 158.372 42.8232 158.955 42.5542C159.539 42.2853 160.186 42.1508 160.899 42.1508C161.645 42.1508 162.289 42.2967 162.83 42.5883C163.376 42.8762 163.796 43.2607 164.092 43.7417C164.391 44.2228 164.539 44.7493 164.535 45.3213C164.539 45.9728 164.357 46.5258 163.989 46.9804C163.626 47.4349 163.141 47.7398 162.535 47.8952V47.9861C163.308 48.1035 163.906 48.4103 164.33 48.9065C164.758 49.4027 164.97 50.0183 164.967 50.7531C164.97 51.3933 164.792 51.9671 164.433 52.4747C164.077 52.9823 163.59 53.3819 162.972 53.6736C162.355 53.9614 161.649 54.1054 160.853 54.1054ZM171.166 54.1054C170.385 54.1054 169.688 53.9709 169.075 53.702C168.465 53.433 167.982 53.0599 167.626 52.5827C167.274 52.1016 167.084 51.5448 167.058 50.9122H168.842C168.864 51.2569 168.98 51.5561 169.188 51.8099C169.4 52.0599 169.677 52.2531 170.018 52.3895C170.359 52.5258 170.738 52.594 171.154 52.594C171.613 52.594 172.018 52.5145 172.37 52.3554C172.726 52.1963 173.005 51.9747 173.205 51.6906C173.406 51.4027 173.506 51.0713 173.506 50.6963C173.506 50.3061 173.406 49.9633 173.205 49.6679C173.008 49.3686 172.719 49.1338 172.336 48.9633C171.957 48.7929 171.499 48.7077 170.961 48.7077H169.978V47.2758H170.961C171.393 47.2758 171.772 47.1982 172.097 47.0429C172.427 46.8876 172.685 46.6717 172.87 46.3952C173.056 46.1148 173.149 45.7872 173.149 45.4122C173.149 45.0523 173.067 44.7398 172.904 44.4747C172.745 44.2058 172.518 43.9955 172.222 43.844C171.931 43.6925 171.586 43.6167 171.188 43.6167C170.81 43.6167 170.455 43.6868 170.126 43.827C169.8 43.9633 169.535 44.1603 169.33 44.4179C169.126 44.6717 169.016 44.9766 169.001 45.3327H167.302C167.321 44.7039 167.506 44.1508 167.859 43.6736C168.215 43.1963 168.685 42.8232 169.268 42.5542C169.851 42.2853 170.499 42.1508 171.211 42.1508C171.957 42.1508 172.601 42.2967 173.143 42.5883C173.688 42.8762 174.109 43.2607 174.404 43.7417C174.703 44.2228 174.851 44.7493 174.847 45.3213C174.851 45.9728 174.669 46.5258 174.302 46.9804C173.938 47.4349 173.453 47.7398 172.847 47.8952V47.9861C173.62 48.1035 174.219 48.4103 174.643 48.9065C175.071 49.4027 175.283 50.0183 175.279 50.7531C175.283 51.3933 175.105 51.9671 174.745 52.4747C174.389 52.9823 173.902 53.3819 173.285 53.6736C172.667 53.9614 171.961 54.1054 171.166 54.1054ZM179.316 52.3554L179.231 52.9747C179.174 53.4292 179.078 53.9027 178.941 54.3952C178.809 54.8914 178.67 55.3516 178.526 55.7758C178.386 56.2001 178.271 56.5372 178.18 56.7872H176.975C177.024 56.5523 177.093 56.2342 177.18 55.8327C177.267 55.4349 177.352 54.9898 177.435 54.4974C177.519 54.005 177.581 53.5031 177.623 52.9917L177.68 52.3554H179.316ZM185.346 54.1054C184.634 54.1054 183.994 53.969 183.426 53.6963C182.861 53.4198 182.41 53.041 182.073 52.5599C181.736 52.0789 181.556 51.5296 181.533 50.9122H183.238C183.28 51.4122 183.501 51.8232 183.903 52.1452C184.304 52.4671 184.785 52.6281 185.346 52.6281C185.793 52.6281 186.189 52.5258 186.533 52.3213C186.882 52.113 187.155 51.827 187.352 51.4633C187.552 51.0997 187.653 50.6849 187.653 50.219C187.653 49.7455 187.551 49.3232 187.346 48.952C187.141 48.5808 186.859 48.2891 186.499 48.077C186.143 47.8648 185.734 47.7569 185.272 47.7531C184.92 47.7531 184.566 47.8137 184.21 47.9349C183.854 48.0561 183.566 48.2152 183.346 48.4122L181.738 48.1736L182.391 42.3099H188.789V43.8156H183.852L183.482 47.0713H183.551C183.778 46.8516 184.079 46.6679 184.454 46.5202C184.833 46.3724 185.238 46.2986 185.67 46.2986C186.378 46.2986 187.009 46.4671 187.562 46.8042C188.119 47.1414 188.556 47.6016 188.874 48.1849C189.196 48.7645 189.355 49.4311 189.352 50.1849C189.355 50.9387 189.185 51.6111 188.84 52.202C188.499 52.7929 188.026 53.2588 187.42 53.5997C186.818 53.9368 186.126 54.1054 185.346 54.1054ZM195.489 54.1054C194.97 54.0978 194.459 54.0031 193.955 53.8213C193.455 53.6395 193.001 53.3364 192.592 52.9122C192.183 52.488 191.855 51.9179 191.609 51.202C191.366 50.4861 191.245 49.5921 191.245 48.5202C191.245 47.505 191.345 46.6035 191.546 45.8156C191.751 45.0277 192.044 44.363 192.427 43.8213C192.81 43.2758 193.272 42.8611 193.813 42.577C194.355 42.2929 194.963 42.1508 195.637 42.1508C196.33 42.1508 196.946 42.2872 197.484 42.5599C198.022 42.8327 198.457 43.2095 198.791 43.6906C199.128 44.1717 199.342 44.719 199.433 45.3327H197.7C197.582 44.8478 197.349 44.452 197.001 44.1452C196.652 43.8383 196.198 43.6849 195.637 43.6849C194.785 43.6849 194.12 44.0561 193.643 44.7986C193.169 45.541 192.931 46.5732 192.927 47.8952H193.012C193.213 47.5656 193.459 47.2853 193.751 47.0542C194.046 46.8194 194.376 46.6395 194.739 46.5145C195.107 46.3857 195.493 46.3213 195.899 46.3213C196.573 46.3213 197.183 46.4861 197.728 46.8156C198.277 47.1414 198.715 47.5921 199.041 48.1679C199.366 48.7436 199.529 49.4027 199.529 50.1452C199.529 50.8876 199.361 51.5599 199.024 52.1622C198.69 52.7645 198.22 53.2417 197.614 53.594C197.008 53.9425 196.3 54.113 195.489 54.1054ZM195.484 52.6281C195.931 52.6281 196.33 52.5183 196.683 52.2986C197.035 52.0789 197.313 51.7834 197.518 51.4122C197.722 51.041 197.825 50.6262 197.825 50.1679C197.825 49.7209 197.724 49.3137 197.524 48.9463C197.327 48.5789 197.054 48.2872 196.705 48.0713C196.361 47.8554 195.967 47.7474 195.524 47.7474C195.186 47.7474 194.874 47.8118 194.586 47.9406C194.302 48.0694 194.052 48.2474 193.836 48.4747C193.62 48.702 193.45 48.9633 193.325 49.2588C193.203 49.5505 193.143 49.8592 193.143 50.1849C193.143 50.6205 193.243 51.0239 193.444 51.3952C193.649 51.7664 193.927 52.0656 194.279 52.2929C194.635 52.5164 195.037 52.6281 195.484 52.6281ZM201.991 53.9463L207.07 43.9008V43.8156H201.195V42.3099H208.889V43.8667L203.826 53.9463H201.991Z" fill="#1E1B39"/>
<defs>
<filter id="filter0_d_147_2368" x="116.999" y="13" width="129.217" height="73.9463" filterUnits="userSpaceOnUse" color-interpolation-filters="sRGB">
<feFlood flood-opacity="0" result="BackgroundImageFix"/>
<feColorMatrix in="SourceAlpha" type="matrix" values="0 0 0 0 0 0 0 0 0 0 0 0 0 0 0 0 0 0 127 0" result="hardAlpha"/>
<feOffset dy="2"/>
<feGaussianBlur stdDeviation="8"/>
<feComposite in2="hardAlpha" operator="out"/>
<feColorMatrix type="matrix" values="0 0 0 0 0.0509804 0 0 0 0 0.0392157 0 0 0 0 0.172549 0 0 0 0.12 0"/>
<feBlend mode="normal" in2="BackgroundImageFix" result="effect1_dropShadow_147_2368"/>
<feBlend mode="normal" in="SourceGraphic" in2="effect1_dropShadow_147_2368" result="shape"/>
</filter>
</defs>
</svg>
