<svg width="812" height="480" viewBox="0 0 812 480" fill="none" xmlns="http://www.w3.org/2000/svg">
<g filter="url(#filter0_f_2027_4062)">
<circle cx="556" cy="319" r="256" fill="#6C78FF" fill-opacity="0.2"/>
</g>
<g style="mix-blend-mode:multiply" opacity="0.33">
<path d="M261.277 249.177L201 324.773V480H811.55V337.029C799.172 322.323 772.176 289.736 763.213 277.042C752.009 261.175 731.202 268.528 716.796 268.141C702.391 267.754 695.989 253.048 696.629 229.827C697.27 206.607 693.748 207.38 683.505 198.092C675.31 190.661 661.097 204.8 655.015 212.798C633.994 238.341 589.071 292.987 577.547 307.229C566.023 321.471 554.393 313.163 550.018 307.229C532.091 286.201 492.461 239.579 477.352 221.312C462.243 203.045 448.222 213.701 443.1 221.312C437.551 227.763 424.726 242.366 417.811 249.177C409.168 257.691 388.041 251.886 376.196 249.177C364.352 246.468 358.91 244.146 345.786 259.239C332.661 274.333 323.858 275.687 301.93 249.177C284.388 227.969 267.519 240.34 261.277 249.177Z" fill="url(#paint0_linear_2027_4062)"/>
</g>
<path d="M203.667 324.773L263.417 249.177C269.605 240.34 286.327 227.969 303.716 249.177C325.453 275.687 334.179 274.333 347.189 259.239C360.199 244.146 365.593 246.468 377.334 249.177C389.075 251.886 410.018 257.691 418.585 249.177C425.44 242.366 438.153 227.763 443.654 221.312C448.731 213.701 462.629 203.045 477.607 221.312C492.584 239.579 531.868 286.201 549.638 307.229C553.975 313.163 565.504 321.471 576.927 307.229C588.351 292.987 632.881 238.341 653.718 212.798C659.747 204.8 673.836 190.661 681.96 198.092C692.114 207.38 695.604 206.607 694.97 229.827C694.335 253.048 700.681 267.754 714.961 268.141C729.24 268.528 749.866 261.175 760.972 277.042C769.857 289.736 796.617 322.323 808.887 337.029" stroke="#2D5BFF" stroke-width="4" stroke-linecap="round" stroke-linejoin="round"/>
<path d="M362.344 179V139H364.906V179H362.344ZM369.141 152.203C369.016 150.943 368.479 149.964 367.531 149.266C366.583 148.568 365.297 148.219 363.672 148.219C362.568 148.219 361.635 148.375 360.875 148.687C360.115 148.99 359.531 149.411 359.125 149.953C358.729 150.495 358.531 151.109 358.531 151.797C358.51 152.37 358.63 152.87 358.891 153.297C359.161 153.724 359.531 154.094 360 154.406C360.469 154.708 361.01 154.974 361.625 155.203C362.24 155.422 362.896 155.609 363.594 155.766L366.469 156.453C367.865 156.766 369.146 157.182 370.312 157.703C371.479 158.224 372.49 158.865 373.344 159.625C374.198 160.385 374.859 161.281 375.328 162.312C375.807 163.344 376.052 164.526 376.062 165.859C376.052 167.818 375.552 169.516 374.563 170.953C373.583 172.38 372.167 173.49 370.312 174.281C368.469 175.062 366.245 175.453 363.641 175.453C361.057 175.453 358.807 175.057 356.891 174.266C354.984 173.474 353.495 172.302 352.422 170.75C351.359 169.187 350.802 167.255 350.75 164.953H357.297C357.37 166.026 357.677 166.922 358.219 167.641C358.771 168.349 359.505 168.885 360.422 169.25C361.349 169.604 362.396 169.781 363.562 169.781C364.708 169.781 365.703 169.615 366.547 169.281C367.401 168.948 368.063 168.484 368.531 167.891C369 167.297 369.234 166.615 369.234 165.844C369.234 165.125 369.021 164.521 368.594 164.031C368.177 163.542 367.563 163.125 366.75 162.781C365.948 162.437 364.964 162.125 363.797 161.844L360.313 160.969C357.615 160.312 355.484 159.286 353.922 157.891C352.359 156.495 351.583 154.615 351.594 152.25C351.583 150.312 352.099 148.62 353.141 147.172C354.193 145.724 355.635 144.594 357.469 143.781C359.302 142.969 361.385 142.562 363.719 142.562C366.094 142.562 368.167 142.969 369.938 143.781C371.719 144.594 373.104 145.724 374.094 147.172C375.083 148.62 375.594 150.297 375.625 152.203H369.141ZM402.297 175.437C400.089 175.437 398.12 175.031 396.391 174.219C394.672 173.406 393.307 172.286 392.297 170.859C391.286 169.432 390.76 167.797 390.719 165.953H397.281C397.354 167.193 397.875 168.198 398.844 168.969C399.812 169.74 400.964 170.125 402.297 170.125C403.359 170.125 404.297 169.891 405.109 169.422C405.932 168.943 406.573 168.281 407.031 167.438C407.5 166.583 407.734 165.604 407.734 164.5C407.734 163.375 407.495 162.385 407.016 161.531C406.547 160.677 405.896 160.01 405.063 159.531C404.229 159.052 403.276 158.807 402.203 158.797C401.266 158.797 400.354 158.99 399.469 159.375C398.594 159.76 397.911 160.286 397.422 160.953L391.406 159.875L392.922 143H412.484V148.531H398.5L397.672 156.547H397.859C398.422 155.755 399.271 155.099 400.406 154.578C401.542 154.057 402.813 153.797 404.219 153.797C406.146 153.797 407.865 154.25 409.375 155.156C410.885 156.062 412.078 157.307 412.953 158.891C413.828 160.464 414.26 162.276 414.25 164.328C414.26 166.484 413.76 168.401 412.75 170.078C411.75 171.745 410.349 173.057 408.547 174.016C406.755 174.964 404.672 175.437 402.297 175.437ZM418.484 169.375V164.047L431.844 143H436.438V150.375H433.719L425.297 163.703V163.953H444.281V169.375H418.484ZM433.844 175V167.75L433.969 165.391V143H440.313V175H433.844ZM455.484 170.625L455.313 172.344C455.177 173.719 454.917 175.089 454.531 176.453C454.156 177.828 453.76 179.073 453.344 180.188C452.938 181.302 452.609 182.177 452.359 182.813H448.047C448.203 182.198 448.417 181.339 448.688 180.234C448.958 179.141 449.214 177.911 449.453 176.547C449.693 175.182 449.844 173.792 449.906 172.375L449.984 170.625H455.484ZM472.766 175.703C470.078 175.693 467.766 175.031 465.828 173.719C463.901 172.406 462.417 170.505 461.375 168.016C460.344 165.526 459.833 162.531 459.844 159.031C459.844 155.542 460.359 152.568 461.391 150.109C462.432 147.651 463.917 145.781 465.844 144.5C467.781 143.208 470.089 142.562 472.766 142.562C475.443 142.562 477.745 143.208 479.672 144.5C481.609 145.792 483.099 147.667 484.141 150.125C485.182 152.573 485.698 155.542 485.688 159.031C485.688 162.542 485.167 165.542 484.125 168.031C483.094 170.521 481.615 172.422 479.688 173.734C477.76 175.047 475.453 175.703 472.766 175.703ZM472.766 170.094C474.599 170.094 476.063 169.172 477.156 167.328C478.25 165.484 478.792 162.719 478.781 159.031C478.781 156.604 478.531 154.583 478.031 152.969C477.542 151.354 476.844 150.141 475.938 149.328C475.042 148.516 473.984 148.109 472.766 148.109C470.943 148.109 469.484 149.021 468.391 150.844C467.297 152.667 466.745 155.396 466.734 159.031C466.734 161.49 466.979 163.542 467.469 165.187C467.969 166.823 468.672 168.052 469.578 168.875C470.484 169.687 471.547 170.094 472.766 170.094ZM490.027 169.375V164.047L503.387 143H507.98V150.375H505.262L496.84 163.703V163.953H515.824V169.375H490.027ZM505.387 175V167.75L505.512 165.391V143H511.855V175H505.387ZM533.824 143V175H527.059V149.422H526.871L519.543 154.016V148.016L527.465 143H533.824ZM547.008 170.625L546.836 172.344C546.701 173.719 546.44 175.089 546.055 176.453C545.68 177.828 545.284 179.073 544.867 180.188C544.461 181.302 544.133 182.177 543.883 182.813H539.57C539.727 182.198 539.94 181.339 540.211 180.234C540.482 179.141 540.737 177.911 540.977 176.547C541.216 175.182 541.367 173.792 541.43 172.375L541.508 170.625H547.008ZM564.008 142.562C565.654 142.562 567.237 142.839 568.758 143.391C570.289 143.943 571.654 144.823 572.852 146.031C574.06 147.24 575.013 148.844 575.711 150.844C576.419 152.833 576.779 155.276 576.789 158.172C576.789 160.891 576.482 163.318 575.867 165.453C575.263 167.578 574.393 169.385 573.258 170.875C572.122 172.365 570.753 173.5 569.148 174.281C567.544 175.052 565.753 175.437 563.773 175.437C561.638 175.437 559.753 175.026 558.117 174.203C556.482 173.37 555.164 172.24 554.164 170.812C553.174 169.375 552.576 167.76 552.367 165.969H559.039C559.299 167.135 559.846 168.042 560.68 168.688C561.513 169.323 562.544 169.641 563.773 169.641C565.857 169.641 567.44 168.734 568.523 166.922C569.607 165.099 570.154 162.604 570.164 159.437H569.945C569.466 160.375 568.82 161.182 568.008 161.859C567.195 162.526 566.263 163.042 565.211 163.406C564.169 163.771 563.06 163.953 561.883 163.953C559.997 163.953 558.315 163.51 556.836 162.625C555.357 161.74 554.19 160.521 553.336 158.969C552.482 157.417 552.055 155.646 552.055 153.656C552.044 151.51 552.539 149.599 553.539 147.922C554.539 146.245 555.935 144.932 557.727 143.984C559.529 143.026 561.622 142.552 564.008 142.562ZM564.055 147.875C563.003 147.875 562.065 148.125 561.242 148.625C560.43 149.125 559.784 149.797 559.305 150.641C558.836 151.484 558.607 152.427 558.617 153.469C558.617 154.521 558.846 155.469 559.305 156.312C559.773 157.146 560.409 157.812 561.211 158.312C562.023 158.802 562.951 159.047 563.992 159.047C564.773 159.047 565.497 158.901 566.164 158.609C566.831 158.318 567.409 157.917 567.898 157.406C568.398 156.885 568.789 156.286 569.07 155.609C569.352 154.932 569.492 154.214 569.492 153.453C569.482 152.443 569.242 151.516 568.773 150.672C568.305 149.828 567.659 149.151 566.836 148.641C566.013 148.13 565.086 147.875 564.055 147.875ZM593.305 175.437C590.971 175.437 588.893 175.036 587.07 174.234C585.258 173.422 583.826 172.307 582.773 170.891C581.732 169.464 581.195 167.818 581.164 165.953H587.977C588.018 166.734 588.273 167.422 588.742 168.016C589.221 168.599 589.857 169.052 590.648 169.375C591.44 169.698 592.331 169.859 593.32 169.859C594.352 169.859 595.263 169.677 596.055 169.312C596.846 168.948 597.466 168.443 597.914 167.797C598.362 167.151 598.586 166.406 598.586 165.562C598.586 164.708 598.346 163.953 597.867 163.297C597.398 162.63 596.721 162.109 595.836 161.734C594.961 161.359 593.919 161.172 592.711 161.172H589.727V156.203H592.711C593.732 156.203 594.633 156.026 595.414 155.672C596.206 155.318 596.82 154.828 597.258 154.203C597.695 153.568 597.914 152.828 597.914 151.984C597.914 151.182 597.721 150.479 597.336 149.875C596.961 149.26 596.43 148.781 595.742 148.437C595.065 148.094 594.273 147.922 593.367 147.922C592.451 147.922 591.612 148.089 590.852 148.422C590.091 148.745 589.482 149.208 589.023 149.812C588.565 150.417 588.32 151.125 588.289 151.937H581.805C581.836 150.094 582.362 148.469 583.383 147.062C584.404 145.656 585.779 144.557 587.508 143.766C589.247 142.964 591.211 142.562 593.398 142.562C595.607 142.562 597.539 142.964 599.195 143.766C600.852 144.568 602.138 145.651 603.055 147.016C603.982 148.37 604.44 149.891 604.43 151.578C604.44 153.37 603.883 154.865 602.758 156.062C601.643 157.26 600.19 158.021 598.398 158.344V158.594C600.753 158.896 602.544 159.714 603.773 161.047C605.013 162.37 605.628 164.026 605.617 166.016C605.628 167.839 605.102 169.458 604.039 170.875C602.987 172.292 601.534 173.406 599.68 174.219C597.826 175.031 595.701 175.437 593.305 175.437Z" fill="#1E1B39"/>
<path d="M633.42 174.581V173.467L636.865 169.897C637.233 169.51 637.536 169.17 637.775 168.878C638.017 168.583 638.198 168.303 638.317 168.038C638.436 167.773 638.496 167.491 638.496 167.193C638.496 166.855 638.416 166.563 638.257 166.318C638.098 166.069 637.881 165.879 637.606 165.746C637.331 165.61 637.021 165.542 636.676 165.542C636.312 165.542 635.993 165.617 635.722 165.766C635.45 165.915 635.241 166.126 635.095 166.397C634.949 166.669 634.877 166.987 634.877 167.352H633.41C633.41 166.732 633.552 166.19 633.837 165.726C634.122 165.262 634.514 164.903 635.011 164.647C635.508 164.389 636.073 164.26 636.706 164.26C637.346 164.26 637.909 164.387 638.396 164.642C638.887 164.894 639.27 165.239 639.545 165.676C639.82 166.111 639.957 166.601 639.957 167.148C639.957 167.526 639.886 167.895 639.744 168.257C639.604 168.618 639.361 169.021 639.013 169.465C638.665 169.906 638.181 170.441 637.561 171.071L635.538 173.189V173.263H640.122V174.581H633.42ZM645.551 174.72C644.868 174.72 644.258 174.602 643.721 174.367C643.187 174.131 642.765 173.805 642.453 173.387C642.145 172.966 641.979 172.479 641.956 171.926H643.517C643.537 172.227 643.638 172.489 643.82 172.711C644.006 172.93 644.248 173.099 644.546 173.218C644.845 173.338 645.176 173.397 645.541 173.397C645.942 173.397 646.296 173.328 646.604 173.189C646.916 173.049 647.16 172.855 647.335 172.607C647.511 172.355 647.599 172.065 647.599 171.737C647.599 171.395 647.511 171.095 647.335 170.837C647.163 170.575 646.909 170.37 646.575 170.22C646.243 170.071 645.842 169.997 645.372 169.997H644.511V168.744H645.372C645.749 168.744 646.081 168.676 646.366 168.54C646.654 168.404 646.88 168.215 647.042 167.973C647.204 167.728 647.286 167.441 647.286 167.113C647.286 166.798 647.214 166.525 647.072 166.293C646.933 166.058 646.734 165.874 646.475 165.741C646.22 165.609 645.918 165.542 645.57 165.542C645.239 165.542 644.929 165.604 644.641 165.726C644.356 165.845 644.124 166.018 643.945 166.243C643.766 166.465 643.67 166.732 643.656 167.044H642.17C642.186 166.493 642.349 166.01 642.657 165.592C642.969 165.174 643.38 164.848 643.89 164.613C644.4 164.377 644.967 164.26 645.59 164.26C646.243 164.26 646.807 164.387 647.281 164.642C647.758 164.894 648.126 165.231 648.384 165.652C648.646 166.073 648.775 166.533 648.772 167.034C648.775 167.604 648.616 168.088 648.295 168.485C647.977 168.883 647.552 169.15 647.022 169.286V169.365C647.698 169.468 648.222 169.737 648.593 170.171C648.968 170.605 649.153 171.144 649.15 171.787C649.153 172.347 648.997 172.849 648.683 173.293C648.371 173.737 647.945 174.087 647.405 174.342C646.865 174.594 646.247 174.72 645.551 174.72ZM656.344 172.671V172.135C656.344 171.75 656.423 171.399 656.582 171.081C656.745 170.759 656.98 170.502 657.288 170.31C657.6 170.114 657.976 170.017 658.417 170.017C658.868 170.017 659.246 170.113 659.551 170.305C659.855 170.497 660.086 170.754 660.242 171.076C660.401 171.397 660.48 171.75 660.48 172.135V172.671C660.48 173.056 660.401 173.409 660.242 173.73C660.082 174.049 659.849 174.305 659.541 174.501C659.236 174.693 658.861 174.789 658.417 174.789C657.97 174.789 657.592 174.693 657.283 174.501C656.975 174.305 656.742 174.049 656.582 173.73C656.423 173.409 656.344 173.056 656.344 172.671ZM657.502 172.135V172.671C657.502 172.957 657.57 173.215 657.706 173.447C657.842 173.679 658.079 173.795 658.417 173.795C658.752 173.795 658.985 173.679 659.118 173.447C659.251 173.215 659.317 172.957 659.317 172.671V172.135C659.317 171.85 659.252 171.591 659.123 171.359C658.997 171.127 658.762 171.011 658.417 171.011C658.086 171.011 657.85 171.127 657.711 171.359C657.572 171.591 657.502 171.85 657.502 172.135ZM651.223 166.845V166.308C651.223 165.923 651.303 165.57 651.462 165.249C651.624 164.927 651.859 164.671 652.168 164.478C652.479 164.286 652.855 164.19 653.296 164.19C653.747 164.19 654.125 164.286 654.43 164.478C654.735 164.671 654.965 164.927 655.121 165.249C655.277 165.57 655.354 165.923 655.354 166.308V166.845C655.354 167.229 655.275 167.582 655.116 167.904C654.96 168.222 654.728 168.479 654.42 168.674C654.115 168.867 653.74 168.963 653.296 168.963C652.845 168.963 652.466 168.867 652.158 168.674C651.853 168.479 651.621 168.222 651.462 167.904C651.303 167.582 651.223 167.229 651.223 166.845ZM652.386 166.308V166.845C652.386 167.13 652.453 167.388 652.585 167.62C652.721 167.852 652.958 167.968 653.296 167.968C653.628 167.968 653.86 167.852 653.992 167.62C654.128 167.388 654.196 167.13 654.196 166.845V166.308C654.196 166.023 654.131 165.764 654.002 165.532C653.873 165.3 653.638 165.184 653.296 165.184C652.965 165.184 652.729 165.3 652.59 165.532C652.454 165.764 652.386 166.023 652.386 166.308ZM651.695 174.581L658.695 164.399H659.884L652.884 174.581H651.695Z" fill="#1E1B39"/>
<path d="M623.401 166.461C624.164 165.394 625.75 165.394 626.513 166.461L629.638 170.829C630.543 172.095 629.638 173.855 628.081 173.855H621.833C620.276 173.855 619.371 172.095 620.277 170.829L623.401 166.461Z" fill="#04CE00"/>
<defs>
<filter id="filter0_f_2027_4062" x="0" y="-237" width="1112" height="1112" filterUnits="userSpaceOnUse" color-interpolation-filters="sRGB">
<feFlood flood-opacity="0" result="BackgroundImageFix"/>
<feBlend mode="normal" in="SourceGraphic" in2="BackgroundImageFix" result="shape"/>
<feGaussianBlur stdDeviation="150" result="effect1_foregroundBlur_2027_4062"/>
</filter>
<linearGradient id="paint0_linear_2027_4062" x1="506.275" y1="321.9" x2="506.275" y2="480" gradientUnits="userSpaceOnUse">
<stop stop-color="#93AAFD"/>
<stop offset="0.46679" stop-color="#C6D2FD"/>
<stop offset="1" stop-color="#E5EAFC" stop-opacity="0.31"/>
</linearGradient>
</defs>
</svg>
