<svg width="24" height="24" viewBox="0 0 24 24" fill="none" xmlns="http://www.w3.org/2000/svg">
<path fill-rule="evenodd" clip-rule="evenodd" d="M3.887 7.07511C4.87216 6.08995 6.37615 5.81203 7.65322 6.40389C6.65144 8.20708 6.85733 10.5015 8.27183 12.1024C6.94136 13.1134 5.06792 12.9841 3.88705 11.8032C2.58152 10.4977 2.58147 8.38149 3.887 7.07511ZM9.47747 6.294C8.08423 7.68725 8.08423 9.94464 9.47747 11.338C10.8707 12.7314 13.1281 12.7312 14.5215 11.338C15.9148 9.94476 15.9147 7.68737 14.5215 6.294C13.1282 4.90064 10.8699 4.90076 9.47747 6.294ZM17.4694 18.752L17.4685 17.0245C17.4685 16.3487 17.2201 15.7568 16.7409 15.2841C13.6469 12.2336 10.3378 12.2457 7.25589 15.3081C6.78316 15.7781 6.53942 16.3634 6.53571 17.0328L6.52833 18.752L17.4694 18.752ZM18.8728 18.752L18.8719 17.0245C18.871 15.9738 18.4739 15.0228 17.7261 14.2851C17.4223 13.985 17.1139 13.7108 16.8037 13.4615C18.6124 13.094 20.4397 13.7736 22.1921 15.502C22.6426 15.9452 22.8753 16.4991 22.8753 17.1334V18.7529H18.8727L18.8728 18.752ZM1.12237 18.752H5.12496L5.13326 17.0255C5.13788 15.9868 5.52936 15.045 6.26708 14.3127C6.57823 14.0034 6.89306 13.7209 7.21069 13.4651C5.39641 13.0903 3.5636 13.768 1.80482 15.5019C1.35518 15.9451 1.12343 16.4991 1.12251 17.1334L1.12158 18.7528L1.12237 18.752ZM16.3466 6.40297C17.6235 5.81206 19.1276 6.08905 20.1128 7.07419C21.4192 8.37972 21.4192 10.4967 20.1128 11.8024C18.9319 12.9833 17.0585 13.1135 15.728 12.1016C17.1416 10.5006 17.3483 8.20618 16.3466 6.40297Z" fill="#6C78FF"/>
</svg>
