<svg width="106" height="106" viewBox="0 0 106 106" fill="none" xmlns="http://www.w3.org/2000/svg">
<rect x="8.5" y="8.5" width="89" height="89" rx="44.5" fill="#6C78FF"/>
<rect x="8.5" y="8.5" width="89" height="89" rx="44.5" stroke="white" stroke-width="17"/>
<g clip-path="url(#clip0_106_1024)">
<path d="M39.875 45.125C39.875 42.2255 42.2255 39.875 45.125 39.875H59.125C62.0245 39.875 64.375 42.2255 64.375 45.125V54.6491C63.2532 53.8845 61.8975 53.4375 60.4375 53.4375C60.1952 53.4375 59.9557 53.4498 59.7197 53.4739C59.7034 53.3975 59.6765 53.322 59.6384 53.2494C58.8546 51.7569 57.5465 50.581 55.958 49.9676C56.0263 49.677 56.0625 49.374 56.0625 49.0625C56.0625 46.8879 54.2996 45.125 52.125 45.125C49.9504 45.125 48.1875 46.8879 48.1875 49.0625C48.1875 49.374 48.2236 49.6769 48.292 49.9675C45.6714 50.9793 43.8125 53.5225 43.8125 56.5C43.8125 56.9833 44.2042 57.375 44.6875 57.375C45.1708 57.375 45.5625 56.9833 45.5625 56.5C45.5625 54.2115 47.0268 52.265 49.0695 51.5463C49.7915 52.4334 50.8921 53 52.125 53C53.3579 53 54.4585 52.4333 55.1805 51.5462C56.3703 51.9647 57.3644 52.8 57.9872 53.8783C55.3297 54.8715 53.4375 57.4335 53.4375 60.4375C53.4375 61.8975 53.8845 63.2532 54.6491 64.375H45.125C42.2255 64.375 39.875 62.0245 39.875 59.125V45.125Z" fill="white"/>
<path fill-rule="evenodd" clip-rule="evenodd" d="M54.75 60.4375C54.75 57.2964 57.2964 54.75 60.4375 54.75C63.5786 54.75 66.125 57.2964 66.125 60.4375C66.125 63.5786 63.5786 66.125 60.4375 66.125C57.2964 66.125 54.75 63.5786 54.75 60.4375ZM62.8835 59.6553C63.1764 59.2709 63.1022 58.7219 62.7178 58.429C62.3334 58.1361 61.7844 58.2103 61.4915 58.5947L59.8267 60.7797L59.3623 60.217C59.0547 59.8443 58.5032 59.7916 58.1305 60.0992C57.7578 60.4068 57.705 60.9583 58.0127 61.331L59.1793 62.7445C59.3493 62.9505 59.6042 63.0675 59.8712 63.0623C60.1383 63.0571 60.3883 62.9302 60.5502 62.7178L62.8835 59.6553Z" fill="white"/>
</g>
<defs>
<clipPath id="clip0_106_1024">
<rect width="28" height="28" fill="white" transform="translate(39 39)"/>
</clipPath>
</defs>
</svg>
