<svg width="358" height="358" viewBox="0 0 358 358" fill="none" xmlns="http://www.w3.org/2000/svg">
<rect width="358" height="358" rx="24" fill="white"/>
<rect width="358" height="358" rx="24" fill="url(#paint0_linear_257_1759)"/>
<rect x="13" y="14" width="332" height="331" rx="18.9174" fill="white" fill-opacity="0.27"/>
<rect x="13.3378" y="14.3378" width="331.324" height="330.324" rx="18.5795" stroke="white" stroke-opacity="0.6" stroke-width="0.67562"/>
<g filter="url(#filter0_d_257_1759)">
<rect x="25" y="24" width="309" height="310" rx="13.5124" fill="white"/>
</g>
<path d="M71.7245 87.8028L73.7667 93.5936H73.8474L75.8896 87.8028H76.7629L74.237 94.6819H73.3771L70.8512 87.8028H71.7245ZM82.1639 89.5226C82.1236 89.1822 81.9601 88.918 81.6735 88.7299C81.3868 88.5418 81.0353 88.4478 80.6188 88.4478C80.3142 88.4478 80.0478 88.497 79.8194 88.5955C79.5932 88.6941 79.4163 88.8296 79.2887 89.002C79.1633 89.1744 79.1006 89.3703 79.1006 89.5898C79.1006 89.7734 79.1442 89.9313 79.2316 90.0634C79.3211 90.1933 79.4353 90.3019 79.5742 90.3892C79.713 90.4743 79.8585 90.5448 80.0108 90.6008C80.1631 90.6546 80.303 90.6982 80.4307 90.7318L81.1293 90.9199C81.3085 90.9669 81.5078 91.0319 81.7272 91.1147C81.9489 91.1976 82.1605 91.3107 82.3621 91.454C82.5658 91.5951 82.7338 91.7764 82.8659 91.9981C82.998 92.2198 83.0641 92.4919 83.0641 92.8143C83.0641 93.1861 82.9667 93.5219 82.7718 93.822C82.5793 94.1221 82.2971 94.3605 81.9254 94.5375C81.5559 94.7144 81.1069 94.8028 80.5785 94.8028C80.0858 94.8028 79.6593 94.7233 79.2987 94.5643C78.9404 94.4053 78.6583 94.1836 78.4523 93.8993C78.2485 93.6149 78.1332 93.2846 78.1063 92.9084H78.9662C78.9886 93.1681 79.0759 93.3831 79.2282 93.5533C79.3827 93.7212 79.5775 93.8466 79.8126 93.9295C80.05 94.0101 80.3053 94.0504 80.5785 94.0504C80.8964 94.0504 81.182 93.9989 81.435 93.8959C81.688 93.7907 81.8884 93.6451 82.0362 93.4592C82.184 93.2711 82.2579 93.0517 82.2579 92.8009C82.2579 92.5725 82.1941 92.3866 82.0665 92.2433C81.9388 92.1 81.7709 91.9836 81.5626 91.894C81.3544 91.8044 81.1293 91.726 80.8875 91.6589L80.041 91.417C79.5036 91.2625 79.0782 91.042 78.7647 90.7553C78.4512 90.4687 78.2944 90.0936 78.2944 89.6301C78.2944 89.2449 78.3985 88.909 78.6068 88.6224C78.8173 88.3336 79.0994 88.1096 79.4532 87.9506C79.8093 87.7894 80.2068 87.7088 80.6456 87.7088C81.089 87.7088 81.4831 87.7883 81.828 87.9473C82.1728 88.104 82.446 88.319 82.6476 88.5922C82.8513 88.8654 82.9588 89.1755 82.97 89.5226H82.1639ZM88.2289 94.6819V87.8028H89.062V93.9429H92.2596V94.6819H88.2289ZM94.8333 94.6819H93.9599L96.4858 87.8028H97.3457L99.8716 94.6819H98.9983L96.9427 88.8911H96.8889L94.8333 94.6819ZM95.1557 91.9948H98.6758V92.7337H95.1557V91.9948ZM105.273 89.5226C105.232 89.1822 105.069 88.918 104.782 88.7299C104.496 88.5418 104.144 88.4478 103.728 88.4478C103.423 88.4478 103.156 88.497 102.928 88.5955C102.702 88.6941 102.525 88.8296 102.397 89.002C102.272 89.1744 102.209 89.3703 102.209 89.5898C102.209 89.7734 102.253 89.9313 102.34 90.0634C102.43 90.1933 102.544 90.3019 102.683 90.3892C102.822 90.4743 102.967 90.5448 103.12 90.6008C103.272 90.6546 103.412 90.6982 103.539 90.7318L104.238 90.9199C104.417 90.9669 104.617 91.0319 104.836 91.1147C105.058 91.1976 105.269 91.3107 105.471 91.454C105.675 91.5951 105.843 91.7764 105.975 91.9981C106.107 92.2198 106.173 92.4919 106.173 92.8143C106.173 93.1861 106.075 93.5219 105.881 93.822C105.688 94.1221 105.406 94.3605 105.034 94.5375C104.665 94.7144 104.216 94.8028 103.687 94.8028C103.195 94.8028 102.768 94.7233 102.407 94.5643C102.049 94.4053 101.767 94.1836 101.561 93.8993C101.357 93.6149 101.242 93.2846 101.215 92.9084H102.075C102.097 93.1681 102.185 93.3831 102.337 93.5533C102.491 93.7212 102.686 93.8466 102.921 93.9295C103.159 94.0101 103.414 94.0504 103.687 94.0504C104.005 94.0504 104.291 93.9989 104.544 93.8959C104.797 93.7907 104.997 93.6451 105.145 93.4592C105.293 93.2711 105.367 93.0517 105.367 92.8009C105.367 92.5725 105.303 92.3866 105.175 92.2433C105.048 92.1 104.88 91.9836 104.671 91.894C104.463 91.8044 104.238 91.726 103.996 91.6589L103.15 91.417C102.612 91.2625 102.187 91.042 101.873 90.7553C101.56 90.4687 101.403 90.0936 101.403 89.6301C101.403 89.2449 101.507 88.909 101.716 88.6224C101.926 88.3336 102.208 88.1096 102.562 87.9506C102.918 87.7894 103.315 87.7088 103.754 87.7088C104.198 87.7088 104.592 87.7883 104.937 87.9473C105.282 88.104 105.555 88.319 105.756 88.5922C105.96 88.8654 106.068 89.1755 106.079 89.5226H105.273ZM107.734 88.5418V87.8028H112.893V88.5418H110.73V94.6819H109.897V88.5418H107.734ZM117.974 87.8028H118.968L121.306 93.513H121.387L123.724 87.8028H124.719V94.6819H123.939V89.4554H123.872L121.722 94.6819H120.97L118.82 89.4554H118.753V94.6819H117.974V87.8028ZM132.761 91.2424C132.761 91.9679 132.63 92.5949 132.368 93.1234C132.106 93.6518 131.746 94.0594 131.289 94.346C130.832 94.6326 130.311 94.7759 129.724 94.7759C129.137 94.7759 128.616 94.6326 128.159 94.346C127.702 94.0594 127.343 93.6518 127.081 93.1234C126.819 92.5949 126.688 91.9679 126.688 91.2424C126.688 90.5168 126.819 89.8898 127.081 89.3614C127.343 88.8329 127.702 88.4254 128.159 88.1387C128.616 87.8521 129.137 87.7088 129.724 87.7088C130.311 87.7088 130.832 87.8521 131.289 88.1387C131.746 88.4254 132.106 88.8329 132.368 89.3614C132.63 89.8898 132.761 90.5168 132.761 91.2424ZM131.954 91.2424C131.954 90.6467 131.855 90.144 131.655 89.7342C131.458 89.3244 131.191 89.0143 130.853 88.8038C130.517 88.5933 130.141 88.4881 129.724 88.4881C129.308 88.4881 128.93 88.5933 128.592 88.8038C128.256 89.0143 127.989 89.3244 127.789 89.7342C127.592 90.144 127.494 90.6467 127.494 91.2424C127.494 91.838 127.592 92.3407 127.789 92.7505C127.989 93.1603 128.256 93.4704 128.592 93.6809C128.93 93.8914 129.308 93.9967 129.724 93.9967C130.141 93.9967 130.517 93.8914 130.853 93.6809C131.191 93.4704 131.458 93.1603 131.655 92.7505C131.855 92.3407 131.954 91.838 131.954 91.2424ZM140.184 87.8028V94.6819H139.377L135.629 89.2808H135.562V94.6819H134.729V87.8028H135.535L139.297 93.2174H139.364V87.8028H140.184ZM142.042 88.5418V87.8028H147.201V88.5418H145.038V94.6819H144.205V88.5418H142.042ZM149.054 94.6819V87.8028H149.887V90.8662H153.555V87.8028H154.388V94.6819H153.555V91.6051H149.887V94.6819H149.054Z" fill="#9291A5"/>
<path d="M48.9669 87.8028V94.6819H47.5125V89.1834H47.4722L45.8968 90.1709V88.8811L47.5998 87.8028H48.9669ZM51.0821 94.7692C50.8604 94.7692 50.6701 94.6908 50.5111 94.5341C50.3544 94.3751 50.276 94.1848 50.276 93.9631C50.276 93.7436 50.3544 93.5555 50.5111 93.3988C50.6701 93.242 50.8604 93.1637 51.0821 93.1637C51.2971 93.1637 51.4852 93.242 51.6464 93.3988C51.8077 93.5555 51.8883 93.7436 51.8883 93.9631C51.8883 94.1109 51.8502 94.2463 51.7741 94.3695C51.7002 94.4904 51.6028 94.5878 51.4818 94.6617C51.3609 94.7334 51.2277 94.7692 51.0821 94.7692ZM55.3706 94.7759C54.869 94.7759 54.4223 94.6897 54.0304 94.5173C53.6408 94.3426 53.3329 94.103 53.1067 93.7985C52.8828 93.4917 52.7675 93.1379 52.7608 92.7371H54.2252C54.2342 92.905 54.2891 93.0528 54.3898 93.1805C54.4928 93.3059 54.6294 93.4033 54.7996 93.4727C54.9698 93.5421 55.1612 93.5768 55.374 93.5768C55.5957 93.5768 55.7916 93.5376 55.9618 93.4592C56.132 93.3809 56.2652 93.2723 56.3615 93.1334C56.4578 92.9946 56.5059 92.8345 56.5059 92.6531C56.5059 92.4695 56.4544 92.3071 56.3514 92.1661C56.2507 92.0228 56.1051 91.9108 55.9148 91.8302C55.7267 91.7496 55.5027 91.7093 55.243 91.7093H54.6014V90.6411H55.243C55.4624 90.6411 55.6561 90.6031 55.8241 90.5269C55.9943 90.4508 56.1264 90.3455 56.2204 90.2112C56.3145 90.0746 56.3615 89.9156 56.3615 89.7342C56.3615 89.5618 56.3201 89.4106 56.2372 89.2808C56.1566 89.1486 56.0424 89.0456 55.8946 88.9717C55.7491 88.8978 55.5789 88.8609 55.3841 88.8609C55.187 88.8609 55.0067 88.8967 54.8433 88.9684C54.6798 89.0378 54.5488 89.1375 54.4503 89.2673C54.3518 89.3972 54.2991 89.5495 54.2924 89.7241H52.8985C52.9052 89.3278 53.0183 88.9785 53.2377 88.6762C53.4572 88.3739 53.7527 88.1376 54.1245 87.9674C54.4984 87.795 54.9205 87.7088 55.3908 87.7088C55.8655 87.7088 56.2809 87.795 56.6369 87.9674C56.993 88.1399 57.2695 88.3727 57.4666 88.6661C57.6659 88.9572 57.7644 89.2841 57.7622 89.6469C57.7644 90.032 57.6446 90.3534 57.4028 90.6109C57.1632 90.8684 56.8508 91.0319 56.4656 91.1013V91.155C56.9717 91.22 57.3569 91.3958 57.6211 91.6824C57.8876 91.9668 58.0197 92.3228 58.0174 92.7505C58.0197 93.1424 57.9066 93.4906 57.6782 93.7951C57.452 94.0997 57.1396 94.3393 56.7411 94.5139C56.3425 94.6886 55.8857 94.7759 55.3706 94.7759ZM62.8282 93.3921V93.0293C62.8282 92.7539 62.8864 92.5008 63.0029 92.2702C63.1216 92.0373 63.2929 91.8514 63.5168 91.7126C63.743 91.5715 64.0184 91.501 64.3431 91.501C64.6723 91.501 64.9488 91.5704 65.1727 91.7093C65.3989 91.8481 65.5691 92.0339 65.6833 92.2668C65.7997 92.4975 65.858 92.7516 65.858 93.0293V93.3921C65.858 93.6675 65.7997 93.9217 65.6833 94.1545C65.5669 94.3852 65.3956 94.5699 65.1694 94.7088C64.9432 94.8498 64.6678 94.9204 64.3431 94.9204C64.0139 94.9204 63.7374 94.8498 63.5134 94.7088C63.2895 94.5699 63.1193 94.3852 63.0029 94.1545C62.8864 93.9217 62.8282 93.6675 62.8282 93.3921ZM63.8057 93.0293V93.3921C63.8057 93.5511 63.8437 93.7011 63.9199 93.8422C63.9982 93.9832 64.1393 94.0538 64.3431 94.0538C64.5469 94.0538 64.6857 93.9844 64.7596 93.8455C64.8357 93.7067 64.8738 93.5555 64.8738 93.3921V93.0293C64.8738 92.8658 64.838 92.7136 64.7663 92.5725C64.6947 92.4314 64.5536 92.3609 64.3431 92.3609C64.1416 92.3609 64.0016 92.4314 63.9232 92.5725C63.8449 92.7136 63.8057 92.8658 63.8057 93.0293ZM59.298 89.4554V89.0927C59.298 88.815 59.3574 88.5608 59.476 88.3302C59.5947 88.0973 59.766 87.9115 59.99 87.7726C60.2161 87.6338 60.4893 87.5644 60.8095 87.5644C61.1409 87.5644 61.4186 87.6338 61.6425 87.7726C61.8665 87.9115 62.0366 88.0973 62.1531 88.3302C62.2695 88.5608 62.3278 88.815 62.3278 89.0927V89.4554C62.3278 89.7331 62.2684 89.9873 62.1497 90.2179C62.0333 90.4485 61.862 90.6333 61.6358 90.7721C61.4119 90.9087 61.1365 90.977 60.8095 90.977C60.4826 90.977 60.206 90.9076 59.9799 90.7688C59.756 90.6277 59.5858 90.4429 59.4693 90.2145C59.3551 89.9839 59.298 89.7309 59.298 89.4554ZM60.2822 89.0927V89.4554C60.2822 89.6189 60.3202 89.77 60.3964 89.9089C60.4748 90.0477 60.6125 90.1171 60.8095 90.1171C61.0155 90.1171 61.1555 90.0477 61.2294 89.9089C61.3055 89.77 61.3436 89.6189 61.3436 89.4554V89.0927C61.3436 88.9292 61.3078 88.7769 61.2361 88.6359C61.1645 88.4948 61.0223 88.4242 60.8095 88.4242C60.6102 88.4242 60.4725 88.4959 60.3964 88.6392C60.3202 88.7825 60.2822 88.9337 60.2822 89.0927ZM59.7414 94.6819L64.4707 87.8028H65.3508L60.6214 94.6819H59.7414Z" fill="#04CE00"/>
<circle cx="39.6949" cy="90.9845" r="3.69492" fill="#04CE00"/>
<path d="M40.5248 82.3673L40.4257 82.4565C39.8951 82.9338 39.3646 83.4111 38.8339 83.8885C38.7266 83.9851 38.5997 84.0062 38.4731 83.9535C38.351 83.9019 38.2841 83.8074 38.3018 83.6932C38.3178 83.6106 38.3611 83.5343 38.426 83.4743C38.9391 83.0044 39.4588 82.5404 39.9765 82.0747L40.0746 81.9865C40.0429 81.9816 40.011 81.9783 39.979 81.9765C39.7714 81.9756 39.5637 81.9774 39.3563 81.9751C39.192 81.9734 39.0786 81.8717 39.0765 81.7303C39.0743 81.5761 39.1771 81.4727 39.349 81.4718C39.8264 81.469 40.3036 81.4687 40.7805 81.4708C40.9734 81.4718 41.082 81.5656 41.0855 81.7371C41.0943 82.163 41.0995 82.589 41.1011 83.0149C41.1018 83.1711 40.9889 83.2629 40.8164 83.2617C40.6537 83.2603 40.5466 83.1662 40.5417 83.0145C40.5364 82.8345 40.536 82.6543 40.533 82.4741C40.5324 82.4457 40.5284 82.4178 40.5248 82.3673Z" fill="white"/>
<path d="M43.3107 71.7005C42.2256 71.7005 41.2582 71.5009 40.4086 71.1017C39.5641 70.7024 38.8936 70.1522 38.3971 69.451C37.9006 68.7498 37.6421 67.9462 37.6217 67.0403H40.8462C40.882 67.6493 41.138 68.1433 41.614 68.522C42.09 68.9008 42.6555 69.0902 43.3107 69.0902C43.8328 69.0902 44.2934 68.975 44.6926 68.7447C45.097 68.5092 45.4118 68.1842 45.637 67.7696C45.8673 67.3499 45.9825 66.8688 45.9825 66.3263C45.9825 65.7735 45.8647 65.2872 45.6293 64.8675C45.399 64.4478 45.0791 64.1203 44.6696 63.8848C44.2601 63.6494 43.7918 63.5291 43.2646 63.524C42.804 63.524 42.3561 63.6187 41.9211 63.808C41.4911 63.9974 41.1559 64.2559 40.9153 64.5835L37.9595 64.0537L38.7042 55.762H48.3164V58.4799H41.4451L41.0382 62.4184H41.1303C41.4067 62.0294 41.8238 61.707 42.3817 61.451C42.9396 61.1951 43.564 61.0672 44.255 61.0672C45.2019 61.0672 46.0464 61.2898 46.7886 61.7351C47.5308 62.1804 48.1168 62.792 48.5467 63.57C48.9767 64.3429 49.1891 65.2335 49.184 66.2418C49.1891 67.3013 48.9434 68.2431 48.4469 69.0671C47.9556 69.8861 47.2672 70.531 46.3817 71.0019C45.5013 71.4676 44.4777 71.7005 43.3107 71.7005ZM52.9383 71.6851C52.4316 71.6851 51.9965 71.506 51.6331 71.1477C51.2748 70.7843 51.0957 70.3493 51.0957 69.8426C51.0957 69.341 51.2748 68.911 51.6331 68.5527C51.9965 68.1944 52.4316 68.0153 52.9383 68.0153C53.4296 68.0153 53.8596 68.1944 54.2281 68.5527C54.5966 68.911 54.7809 69.341 54.7809 69.8426C54.7809 70.1804 54.6939 70.49 54.5198 70.7715C54.3509 71.0479 54.1283 71.2706 53.8519 71.4395C53.5755 71.6033 53.271 71.6851 52.9383 71.6851ZM57.4661 71.4855L63.9843 58.5873V58.4799H56.3912V55.762H67.4238V58.5182L60.8979 71.4855H57.4661ZM75.5293 71.831C74.2088 71.8259 73.0725 71.5009 72.1205 70.856C71.1736 70.2111 70.4442 69.277 69.9324 68.0537C69.4257 66.8304 69.1749 65.3589 69.18 63.6391C69.18 61.9245 69.4334 60.4632 69.9401 59.2553C70.4519 58.0474 71.1813 57.1286 72.1282 56.4991C73.0802 55.8644 74.2139 55.547 75.5293 55.547C76.8447 55.547 77.9759 55.8644 78.9228 56.4991C79.8748 57.1337 80.6067 58.055 81.1185 59.263C81.6304 60.4658 81.8837 61.9245 81.8786 63.6391C81.8786 65.364 81.6227 66.8381 81.1109 68.0614C80.6041 69.2847 79.8773 70.2187 78.9304 70.8637C77.9836 71.5086 76.8498 71.831 75.5293 71.831ZM75.5293 69.0748C76.4301 69.0748 77.1493 68.6218 77.6867 67.7159C78.2241 66.8099 78.4903 65.451 78.4851 63.6391C78.4851 62.4466 78.3623 61.4536 78.1166 60.6603C77.8761 59.8669 77.5331 59.2706 77.0878 58.8714C76.6477 58.4722 76.1282 58.2726 75.5293 58.2726C74.6336 58.2726 73.917 58.7204 73.3796 59.6161C72.8422 60.5118 72.5709 61.8528 72.5658 63.6391C72.5658 64.8471 72.6861 65.8554 72.9266 66.6641C73.1723 67.4676 73.5178 68.0716 73.9631 68.476C74.4084 68.8752 74.9305 69.0748 75.5293 69.0748ZM90.4141 71.831C89.0935 71.8259 87.9573 71.5009 87.0053 70.856C86.0584 70.2111 85.329 69.277 84.8172 68.0537C84.3104 66.8304 84.0597 65.3589 84.0648 63.6391C84.0648 61.9245 84.3181 60.4632 84.8248 59.2553C85.3367 58.0474 86.066 57.1286 87.0129 56.4991C87.9649 55.8644 89.0986 55.547 90.4141 55.547C91.7295 55.547 92.8606 55.8644 93.8075 56.4991C94.7595 57.1337 95.4914 58.055 96.0033 59.263C96.5151 60.4658 96.7685 61.9245 96.7634 63.6391C96.7634 65.364 96.5074 66.8381 95.9956 68.0614C95.4889 69.2847 94.7621 70.2187 93.8152 70.8637C92.8683 71.5086 91.7346 71.831 90.4141 71.831ZM90.4141 69.0748C91.3149 69.0748 92.034 68.6218 92.5714 67.7159C93.1089 66.8099 93.375 65.451 93.3699 63.6391C93.3699 62.4466 93.2471 61.4536 93.0014 60.6603C92.7608 59.8669 92.4179 59.2706 91.9726 58.8714C91.5324 58.4722 91.0129 58.2726 90.4141 58.2726C89.5184 58.2726 88.8018 58.7204 88.2644 59.6161C87.7269 60.5118 87.4557 61.8528 87.4505 63.6391C87.4505 64.8471 87.5708 65.8554 87.8114 66.6641C88.0571 67.4676 88.4026 68.0716 88.8478 68.476C89.2931 68.8752 89.8152 69.0748 90.4141 69.0748Z" fill="#1E1B39"/>
<path d="M37.8443 39.1382L40.0324 45.5413H40.1207L42.3088 39.1382H43.5909L40.7618 47H39.3913L36.5622 39.1382H37.8443ZM44.6341 47V41.1037H45.7819V47H44.6341ZM45.2138 40.1939C45.0141 40.1939 44.8427 40.1274 44.6994 39.9943C44.5586 39.8586 44.4882 39.6974 44.4882 39.5106C44.4882 39.3212 44.5586 39.16 44.6994 39.0269C44.8427 38.8913 45.0141 38.8235 45.2138 38.8235C45.4134 38.8235 45.5835 38.8913 45.7243 39.0269C45.8676 39.16 45.9393 39.3212 45.9393 39.5106C45.9393 39.6974 45.8676 39.8586 45.7243 39.9943C45.5835 40.1274 45.4134 40.1939 45.2138 40.1939ZM49.8673 47.119C49.2863 47.119 48.786 46.9949 48.3663 46.7466C47.9492 46.4958 47.6267 46.144 47.399 45.691C47.1738 45.2355 47.0611 44.7019 47.0611 44.0902C47.0611 43.4863 47.1738 42.954 47.399 42.4933C47.6267 42.0327 47.9441 41.6731 48.351 41.4146C48.7604 41.1561 49.239 41.0269 49.7867 41.0269C50.1194 41.0269 50.4418 41.0819 50.754 41.192C51.0662 41.302 51.3465 41.4748 51.5947 41.7102C51.843 41.9456 52.0387 42.2515 52.182 42.6277C52.3254 43.0013 52.397 43.4556 52.397 43.9904V44.3973H47.7099V43.5374H51.2723C51.2723 43.2355 51.2108 42.968 51.088 42.7351C50.9652 42.4997 50.7924 42.3142 50.5698 42.1785C50.3497 42.0429 50.0912 41.9751 49.7943 41.9751C49.4719 41.9751 49.1904 42.0544 48.9498 42.2131C48.7118 42.3692 48.5276 42.5739 48.397 42.8273C48.2691 43.0781 48.2051 43.3506 48.2051 43.6449V44.3167C48.2051 44.7108 48.2742 45.0461 48.4124 45.3225C48.5531 45.5989 48.7489 45.81 48.9997 45.9559C49.2505 46.0992 49.5435 46.1708 49.8788 46.1708C50.0963 46.1708 50.2947 46.1401 50.4738 46.0787C50.6529 46.0147 50.8078 45.92 50.9383 45.7946C51.0688 45.6692 51.1686 45.5144 51.2377 45.3301L52.3241 45.5259C52.2371 45.8458 52.081 46.126 51.8557 46.3666C51.6331 46.6046 51.3529 46.7901 51.0151 46.9232C50.6798 47.0537 50.2972 47.119 49.8673 47.119ZM54.9383 47L53.2031 41.1037H54.3893L55.5448 45.4338H55.6024L56.7617 41.1037H57.9478L59.0995 45.4146H59.157L60.3048 41.1037H61.491L59.7597 47H58.5889L57.3912 42.7428H57.3029L56.1052 47H54.9383ZM66.9987 42.5432L65.9584 42.7275C65.9148 42.5944 65.8457 42.4677 65.7511 42.3474C65.6589 42.2272 65.5335 42.1286 65.3749 42.0519C65.2162 41.9751 65.0179 41.9367 64.7799 41.9367C64.4548 41.9367 64.1836 42.0096 63.966 42.1555C63.7485 42.2988 63.6397 42.4844 63.6397 42.7121C63.6397 42.9092 63.7127 43.0678 63.8586 43.1881C64.0044 43.3084 64.2399 43.4069 64.5649 43.4837L65.5015 43.6987C66.0441 43.8241 66.4484 44.0173 66.7146 44.2783C66.9807 44.5394 67.1138 44.8785 67.1138 45.2956C67.1138 45.6488 67.0114 45.9635 66.8067 46.2399C66.6045 46.5138 66.3218 46.7287 65.9584 46.8848C65.5975 47.0409 65.1791 47.119 64.7031 47.119C64.0428 47.119 63.5041 46.9782 63.087 46.6967C62.6698 46.4127 62.4139 46.0096 62.3192 45.4875L63.4286 45.3186C63.4977 45.6078 63.6397 45.8266 63.8547 45.9751C64.0697 46.1209 64.3499 46.1939 64.6954 46.1939C65.0716 46.1939 65.3723 46.1158 65.5975 45.9597C65.8227 45.801 65.9353 45.6078 65.9353 45.38C65.9353 45.1958 65.8662 45.041 65.728 44.9156C65.5924 44.7902 65.3838 44.6955 65.1023 44.6315L64.1042 44.4127C63.554 44.2873 63.1471 44.0877 62.8835 43.8138C62.6225 43.54 62.492 43.1932 62.492 42.7735C62.492 42.4255 62.5892 42.1209 62.7837 41.8599C62.9782 41.5989 63.2469 41.3954 63.5898 41.2496C63.9328 41.1011 64.3256 41.0269 64.7683 41.0269C65.4056 41.0269 65.9072 41.1651 66.2731 41.4415C66.6391 41.7153 66.8809 42.0826 66.9987 42.5432ZM71.3288 39.1382H72.7683L75.2712 45.2495H75.3633L77.8662 39.1382H79.3057V47H78.1771V41.311H78.1042L75.7855 46.9885H74.8489L72.5303 41.3071H72.4574V47H71.3288V39.1382ZM82.654 47.1305C82.2804 47.1305 81.9426 47.0614 81.6406 46.9232C81.3386 46.7825 81.0993 46.579 80.9228 46.3129C80.7487 46.0467 80.6617 45.7204 80.6617 45.334C80.6617 45.0013 80.7257 44.7275 80.8537 44.5125C80.9816 44.2975 81.1544 44.1273 81.3719 44.0019C81.5894 43.8765 81.8325 43.7818 82.1012 43.7179C82.37 43.6539 82.6438 43.6053 82.9227 43.572C83.2759 43.5311 83.5625 43.4978 83.7826 43.4722C84.0027 43.444 84.1627 43.3993 84.2625 43.3378C84.3623 43.2764 84.4122 43.1766 84.4122 43.0384V43.0115C84.4122 42.6763 84.3175 42.4165 84.1281 42.2323C83.9413 42.048 83.6623 41.9559 83.2913 41.9559C82.9048 41.9559 82.6003 42.0416 82.3776 42.2131C82.1576 42.382 82.0053 42.5701 81.9208 42.7774L80.8421 42.5317C80.9701 42.1734 81.1569 41.8842 81.4026 41.6641C81.6508 41.4415 81.9362 41.2803 82.2586 41.1805C82.5811 41.0781 82.9202 41.0269 83.2759 41.0269C83.5113 41.0269 83.7609 41.0551 84.0245 41.1114C84.2906 41.1651 84.5389 41.2649 84.7692 41.4108C85.0021 41.5567 85.1927 41.7652 85.3412 42.0365C85.4896 42.3052 85.5638 42.6545 85.5638 43.0845V47H84.4429V46.1939H84.3968C84.3226 46.3423 84.2113 46.4882 84.0628 46.6315C83.9144 46.7748 83.7238 46.8938 83.4909 46.9885C83.258 47.0832 82.979 47.1305 82.654 47.1305ZM82.9035 46.2092C83.2209 46.2092 83.4922 46.1465 83.7174 46.0211C83.9451 45.8957 84.1179 45.7319 84.2356 45.5298C84.3559 45.325 84.416 45.1062 84.416 44.8733V44.1133C84.3751 44.1542 84.2957 44.1926 84.178 44.2284C84.0628 44.2617 83.9311 44.2911 83.7826 44.3167C83.6342 44.3397 83.4896 44.3615 83.3488 44.382C83.2081 44.3999 83.0904 44.4152 82.9957 44.428C82.773 44.4562 82.5696 44.5035 82.3853 44.5701C82.2036 44.6366 82.0577 44.7326 81.9477 44.858C81.8402 44.9808 81.7865 45.1446 81.7865 45.3493C81.7865 45.6334 81.8914 45.8484 82.1012 45.9942C82.3111 46.1376 82.5785 46.2092 82.9035 46.2092ZM87.0926 47V41.1037H88.202V42.0403H88.2634C88.3709 41.723 88.5603 41.4735 88.8315 41.2918C89.1054 41.1075 89.415 41.0154 89.7605 41.0154C89.8322 41.0154 89.9166 41.0179 90.0139 41.0231C90.1137 41.0282 90.1917 41.0346 90.248 41.0423V42.1401C90.202 42.1273 90.1201 42.1133 90.0024 42.0979C89.8846 42.08 89.7669 42.071 89.6492 42.071C89.3779 42.071 89.1361 42.1286 88.9237 42.2438C88.7138 42.3564 88.5475 42.5138 88.4246 42.716C88.3018 42.9156 88.2404 43.1433 88.2404 43.3993V47H87.0926ZM93.5139 47.119C92.9432 47.119 92.4518 46.9898 92.0398 46.7313C91.6303 46.4703 91.3155 46.1107 91.0954 45.6526C90.8753 45.1945 90.7653 44.6699 90.7653 44.0787C90.7653 43.4799 90.8779 42.9514 91.1031 42.4933C91.3283 42.0327 91.6457 41.6731 92.0551 41.4146C92.4646 41.1561 92.947 41.0269 93.5023 41.0269C93.9502 41.0269 94.3494 41.1101 94.7 41.2764C95.0506 41.4402 95.3334 41.6705 95.5484 41.9674C95.7659 42.2643 95.8952 42.611 95.9361 43.0077H94.819C94.7576 42.7313 94.6169 42.4933 94.3968 42.2937C94.1792 42.0941 93.8875 41.9943 93.5215 41.9943C93.2016 41.9943 92.9214 42.0787 92.6808 42.2476C92.4428 42.414 92.2573 42.652 92.1242 42.9616C91.9911 43.2687 91.9246 43.6321 91.9246 44.0518C91.9246 44.4818 91.9899 44.8529 92.1204 45.1651C92.2509 45.4773 92.4352 45.7191 92.6732 45.8906C92.9137 46.0621 93.1965 46.1478 93.5215 46.1478C93.7391 46.1478 93.9361 46.1081 94.1127 46.0288C94.2918 45.9469 94.4415 45.8305 94.5618 45.6795C94.6847 45.5285 94.7704 45.3468 94.819 45.1344H95.9361C95.8952 45.5157 95.771 45.8561 95.5637 46.1555C95.3564 46.4549 95.0788 46.6903 94.7307 46.8618C94.3852 47.0333 93.9796 47.119 93.5139 47.119ZM98.3113 43.4991V47H97.1635V39.1382H98.296V42.0634H98.3689C98.5071 41.746 98.7182 41.494 99.0023 41.3071C99.2864 41.1203 99.6574 41.0269 100.116 41.0269C100.52 41.0269 100.873 41.1101 101.175 41.2764C101.48 41.4428 101.715 41.691 101.881 42.0211C102.05 42.3487 102.135 42.7582 102.135 43.2495V47H100.987V43.3877C100.987 42.9552 100.876 42.62 100.653 42.382C100.43 42.1414 100.121 42.0211 99.724 42.0211C99.4527 42.0211 99.2096 42.0787 98.9946 42.1939C98.7822 42.309 98.6146 42.478 98.4917 42.7006C98.3715 42.9207 98.3113 43.1868 98.3113 43.4991Z" fill="#9291A5"/>
<rect x="156" y="33" width="167.554" height="33.1054" rx="9.97802" fill="#F8F8FF"/>
<rect x="260.045" y="37.0538" width="60.2686" height="25.188" rx="8.78306" fill="#1E1B39"/>
<path d="M272.013 52.8099H270.911L273.386 45.9309H274.586L277.061 52.8099H275.959L274.015 47.1804H273.961L272.013 52.8099ZM272.197 50.1161H275.771V50.9894H272.197V50.1161ZM278.978 49.7466V52.8099H277.974V47.6507H278.938V48.4904H279.002C279.12 48.2172 279.306 47.9977 279.559 47.832C279.815 47.6663 280.136 47.5835 280.523 47.5835C280.875 47.5835 281.183 47.6574 281.447 47.8052C281.711 47.9507 281.916 48.1679 282.062 48.4568C282.207 48.7457 282.28 49.1028 282.28 49.5283V52.8099H281.276V49.6492C281.276 49.2752 281.178 48.983 280.983 48.7725C280.789 48.5598 280.521 48.4534 280.181 48.4534C279.948 48.4534 279.741 48.5038 279.559 48.6046C279.38 48.7054 279.238 48.8531 279.133 49.048C279.03 49.2405 278.978 49.4734 278.978 49.7466ZM284.631 49.7466V52.8099H283.627V47.6507H284.591V48.4904H284.655C284.773 48.2172 284.959 47.9977 285.212 47.832C285.468 47.6663 285.789 47.5835 286.176 47.5835C286.528 47.5835 286.836 47.6574 287.1 47.8052C287.364 47.9507 287.569 48.1679 287.715 48.4568C287.86 48.7457 287.933 49.1028 287.933 49.5283V52.8099H286.929V49.6492C286.929 49.2752 286.831 48.983 286.636 48.7725C286.442 48.5598 286.174 48.4534 285.834 48.4534C285.601 48.4534 285.394 48.5038 285.212 48.6046C285.033 48.7054 284.891 48.8531 284.786 49.048C284.683 49.2405 284.631 49.4734 284.631 49.7466ZM292.548 50.6703V47.6507H293.556V52.8099H292.568V51.9165H292.515C292.396 52.1919 292.206 52.4214 291.944 52.605C291.684 52.7864 291.36 52.8771 290.973 52.8771C290.641 52.8771 290.348 52.8043 290.093 52.6588C289.84 52.511 289.64 52.2927 289.495 52.0038C289.352 51.7149 289.28 51.3578 289.28 50.9323V47.6507H290.284V50.8114C290.284 51.163 290.382 51.4429 290.576 51.6511C290.771 51.8594 291.024 51.9635 291.336 51.9635C291.524 51.9635 291.711 51.9165 291.897 51.8224C292.085 51.7284 292.24 51.5862 292.363 51.3958C292.489 51.2055 292.55 50.9637 292.548 50.6703ZM296.407 52.9241C296.08 52.9241 295.784 52.8637 295.52 52.7428C295.256 52.6196 295.046 52.4416 294.892 52.2087C294.74 51.9758 294.663 51.6903 294.663 51.3522C294.663 51.0611 294.719 50.8215 294.831 50.6334C294.943 50.4453 295.094 50.2964 295.285 50.1866C295.475 50.0769 295.688 49.9941 295.923 49.9381C296.158 49.8821 296.398 49.8395 296.642 49.8104C296.951 49.7746 297.202 49.7455 297.394 49.7231C297.587 49.6985 297.727 49.6593 297.814 49.6055C297.901 49.5518 297.945 49.4645 297.945 49.3435V49.32C297.945 49.0267 297.862 48.7994 297.696 48.6382C297.533 48.4769 297.289 48.3963 296.964 48.3963C296.626 48.3963 296.36 48.4714 296.165 48.6214C295.972 48.7692 295.839 48.9338 295.765 49.1151L294.821 48.9002C294.933 48.5867 295.097 48.3336 295.312 48.1411C295.529 47.9462 295.779 47.8052 296.061 47.7178C296.343 47.6283 296.64 47.5835 296.951 47.5835C297.157 47.5835 297.375 47.6081 297.606 47.6574C297.839 47.7044 298.056 47.7917 298.257 47.9194C298.461 48.047 298.628 48.2295 298.758 48.4669C298.888 48.702 298.953 49.0077 298.953 49.3839V52.8099H297.972V52.1046H297.932C297.867 52.2344 297.769 52.3621 297.639 52.4875C297.51 52.6129 297.343 52.717 297.139 52.7999C296.935 52.8827 296.691 52.9241 296.407 52.9241ZM296.625 52.118C296.903 52.118 297.14 52.0631 297.337 51.9534C297.536 51.8437 297.688 51.7004 297.791 51.5235C297.896 51.3443 297.948 51.1529 297.948 50.9491V50.284C297.913 50.3199 297.843 50.3535 297.74 50.3848C297.639 50.4139 297.524 50.4397 297.394 50.4621C297.264 50.4822 297.138 50.5012 297.015 50.5192C296.891 50.5348 296.788 50.5483 296.706 50.5595C296.511 50.5841 296.333 50.6255 296.172 50.6837C296.013 50.742 295.885 50.8259 295.789 50.9357C295.695 51.0432 295.648 51.1865 295.648 51.3656C295.648 51.6142 295.739 51.8023 295.923 51.9299C296.107 52.0553 296.341 52.118 296.625 52.118ZM301.295 45.9309V52.8099H300.29V45.9309H301.295ZM303.65 45.9309V52.8099H302.646V45.9309H303.65ZM305.636 54.7447C305.486 54.7447 305.349 54.7324 305.226 54.7077C305.103 54.6853 305.011 54.6607 304.951 54.6338L305.193 53.8109C305.376 53.8602 305.54 53.8814 305.683 53.8747C305.826 53.868 305.953 53.8142 306.063 53.7135C306.175 53.6127 306.273 53.4481 306.358 53.2197L306.483 52.8771L304.595 47.6507H305.67L306.976 51.6545H307.03L308.337 47.6507H309.415L307.289 53.4985C307.19 53.7672 307.065 53.9945 306.912 54.1804C306.76 54.3685 306.579 54.5095 306.368 54.6036C306.158 54.6976 305.914 54.7447 305.636 54.7447Z" fill="white"/>
<path d="M218.631 52.8099L216.75 45.9308H217.596L219.034 51.5335H219.101L220.566 45.9308H221.506L222.971 51.5335H223.038L224.475 45.9308H225.322L223.441 52.8099H222.581L221.063 47.3281H221.009L219.491 52.8099H218.631ZM227.935 52.9174C227.438 52.9174 227.009 52.8076 226.649 52.5882C226.29 52.3665 226.014 52.0575 225.819 51.6611C225.626 51.2625 225.53 50.799 225.53 50.2705C225.53 49.7421 225.626 49.2763 225.819 48.8732C226.014 48.4679 226.285 48.1522 226.632 47.926C226.981 47.6976 227.389 47.5834 227.854 47.5834C228.123 47.5834 228.388 47.6282 228.65 47.7178C228.912 47.8073 229.151 47.9529 229.366 48.1544C229.581 48.3537 229.752 48.618 229.88 48.9471C230.007 49.2763 230.071 49.6816 230.071 50.1631V50.4989H226.094V49.8137H229.265C229.265 49.5226 229.207 49.2629 229.09 49.0345C228.976 48.8061 228.813 48.6258 228.6 48.4937C228.39 48.3616 228.141 48.2955 227.854 48.2955C227.539 48.2955 227.265 48.3739 227.035 48.5306C226.806 48.6851 226.631 48.8867 226.507 49.1352C226.384 49.3838 226.323 49.6503 226.323 49.9347V50.3915C226.323 50.7811 226.39 51.1114 226.524 51.3823C226.661 51.6511 226.85 51.8559 227.092 51.997C227.334 52.1359 227.615 52.2053 227.935 52.2053C228.143 52.2053 228.331 52.1762 228.499 52.1179C228.669 52.0575 228.816 51.9679 228.939 51.8492C229.062 51.7283 229.158 51.5783 229.225 51.3991L229.991 51.6141C229.91 51.8739 229.775 52.1023 229.584 52.2993C229.394 52.4941 229.159 52.6464 228.879 52.7561C228.599 52.8636 228.284 52.9174 227.935 52.9174ZM233.44 52.9174C232.943 52.9174 232.514 52.8076 232.154 52.5882C231.795 52.3665 231.519 52.0575 231.324 51.6611C231.132 51.2625 231.035 50.799 231.035 50.2705C231.035 49.7421 231.132 49.2763 231.324 48.8732C231.519 48.4679 231.79 48.1522 232.137 47.926C232.486 47.6976 232.894 47.5834 233.36 47.5834C233.628 47.5834 233.894 47.6282 234.156 47.7178C234.418 47.8073 234.656 47.9529 234.871 48.1544C235.086 48.3537 235.257 48.618 235.385 48.9471C235.513 49.2763 235.576 49.6816 235.576 50.1631V50.4989H231.6V49.8137H234.77C234.77 49.5226 234.712 49.2629 234.596 49.0345C234.481 48.8061 234.318 48.6258 234.105 48.4937C233.895 48.3616 233.646 48.2955 233.36 48.2955C233.044 48.2955 232.771 48.3739 232.54 48.5306C232.312 48.6851 232.136 48.8867 232.013 49.1352C231.89 49.3838 231.828 49.6503 231.828 49.9347V50.3915C231.828 50.7811 231.895 51.1114 232.029 51.3823C232.166 51.6511 232.355 51.8559 232.597 51.997C232.839 52.1359 233.12 52.2053 233.44 52.2053C233.648 52.2053 233.837 52.1762 234.005 52.1179C234.175 52.0575 234.321 51.9679 234.445 51.8492C234.568 51.7283 234.663 51.5783 234.73 51.3991L235.496 51.6141C235.415 51.8739 235.28 52.1023 235.089 52.2993C234.899 52.4941 234.664 52.6464 234.384 52.7561C234.104 52.8636 233.79 52.9174 233.44 52.9174ZM237.521 50.9289L237.508 49.9481H237.669L239.926 47.6506H240.907L238.502 50.0824H238.435L237.521 50.9289ZM236.782 52.8099V45.9308H237.575V52.8099H236.782ZM240.061 52.8099L238.045 50.2571L238.61 49.7062L241.068 52.8099H240.061ZM242.72 45.9308V52.8099H241.927V45.9308H242.72ZM244.682 54.7446C244.548 54.7446 244.428 54.7334 244.323 54.711C244.218 54.6909 244.145 54.6707 244.105 54.6506L244.306 53.9519C244.499 54.0012 244.669 54.0191 244.817 54.0056C244.965 53.9922 245.096 53.9262 245.21 53.8075C245.326 53.691 245.433 53.5018 245.529 53.2398L245.677 52.8367L243.769 47.6506H244.629L246.053 51.7619H246.107L247.531 47.6506H248.391L246.201 53.5623C246.102 53.8287 245.98 54.0493 245.835 54.224C245.689 54.4009 245.52 54.5319 245.327 54.617C245.137 54.7021 244.922 54.7446 244.682 54.7446Z" fill="#9291A5"/>
<path d="M175.229 52.7457H173.107V45.8667H175.324C175.991 45.8667 176.562 46.0044 177.037 46.2798C177.511 46.553 177.875 46.946 178.128 47.4588C178.381 47.9694 178.508 48.5807 178.508 49.2928C178.508 50.0093 178.38 50.6263 178.125 51.1435C177.87 51.6586 177.498 52.0549 177.01 52.3326C176.522 52.608 175.928 52.7457 175.229 52.7457ZM173.94 52.0068H175.176C175.744 52.0068 176.216 51.897 176.59 51.6776C176.964 51.4581 177.243 51.1458 177.426 50.7405C177.61 50.3352 177.702 49.8526 177.702 49.2928C177.702 48.7374 177.611 48.2593 177.43 47.8585C177.248 47.4555 176.977 47.1464 176.617 46.9315C176.256 46.7143 175.807 46.6056 175.27 46.6056H173.94V52.0068ZM181.316 52.8666C180.989 52.8666 180.692 52.8051 180.426 52.6819C180.159 52.5565 179.948 52.3762 179.791 52.1411C179.634 51.9038 179.556 51.6171 179.556 51.2812C179.556 50.9857 179.614 50.7461 179.73 50.5624C179.847 50.3766 180.002 50.231 180.197 50.1258C180.392 50.0205 180.607 49.9422 180.842 49.8907C181.08 49.8369 181.318 49.7944 181.558 49.763C181.871 49.7227 182.125 49.6925 182.32 49.6723C182.517 49.6499 182.66 49.613 182.75 49.5615C182.842 49.51 182.888 49.4204 182.888 49.2928V49.2659C182.888 48.9345 182.797 48.677 182.616 48.4934C182.437 48.3097 182.164 48.2179 181.799 48.2179C181.421 48.2179 181.124 48.3008 180.909 48.4665C180.694 48.6322 180.543 48.8091 180.456 48.9972L179.704 48.7285C179.838 48.415 180.017 48.1709 180.241 47.9962C180.467 47.8193 180.713 47.6962 180.98 47.6268C181.249 47.5551 181.513 47.5193 181.773 47.5193C181.938 47.5193 182.129 47.5394 182.344 47.5797C182.561 47.6178 182.77 47.6973 182.972 47.8182C183.176 47.9391 183.345 48.1216 183.479 48.3657C183.613 48.6098 183.68 48.9367 183.68 49.3465V52.7457H182.888V52.0471H182.847C182.794 52.159 182.704 52.2788 182.579 52.4065C182.453 52.5341 182.287 52.6427 182.078 52.7323C181.87 52.8219 181.616 52.8666 181.316 52.8666ZM181.437 52.1546C181.75 52.1546 182.014 52.093 182.229 51.9698C182.447 51.8467 182.61 51.6877 182.72 51.4929C182.832 51.298 182.888 51.0931 182.888 50.8782V50.1527C182.854 50.193 182.78 50.2299 182.666 50.2635C182.554 50.2948 182.424 50.3228 182.276 50.3475C182.131 50.3699 181.989 50.39 181.85 50.4079C181.713 50.4236 181.602 50.437 181.517 50.4482C181.311 50.4751 181.119 50.5188 180.94 50.5792C180.763 50.6375 180.619 50.7259 180.51 50.8446C180.402 50.961 180.348 51.12 180.348 51.3216C180.348 51.597 180.45 51.8052 180.654 51.9463C180.86 52.0851 181.121 52.1546 181.437 52.1546ZM185.127 52.7457V47.5864H185.92V52.7457H185.127ZM185.53 46.7266C185.376 46.7266 185.243 46.6739 185.131 46.5687C185.021 46.4635 184.966 46.3369 184.966 46.1891C184.966 46.0414 185.021 45.9148 185.131 45.8096C185.243 45.7043 185.376 45.6517 185.53 45.6517C185.685 45.6517 185.817 45.7043 185.927 45.8096C186.039 45.9148 186.095 46.0414 186.095 46.1891C186.095 46.3369 186.039 46.4635 185.927 46.5687C185.817 46.6739 185.685 46.7266 185.53 46.7266ZM188.165 45.8667V52.7457H187.372V45.8667H188.165ZM190.127 54.6805C189.993 54.6805 189.873 54.6693 189.768 54.6469C189.662 54.6267 189.59 54.6066 189.549 54.5864L189.751 53.8878C189.943 53.937 190.114 53.9549 190.261 53.9415C190.409 53.9281 190.54 53.862 190.654 53.7433C190.771 53.6269 190.877 53.4377 190.973 53.1757L191.121 52.7726L189.213 47.5864H190.073L191.497 51.6977H191.551L192.975 47.5864H193.835L191.645 53.4981C191.547 53.7646 191.425 53.9852 191.279 54.1598C191.134 54.3367 190.965 54.4677 190.772 54.5528C190.582 54.6379 190.367 54.6805 190.127 54.6805Z" fill="#9291A5"/>
<g style="mix-blend-mode:multiply" opacity="0.33">
<path d="M42.3658 179.918C37.2216 196.16 28.6452 200.895 25 201.231V303H334V147.998C329.622 150.978 319.291 164.39 312.993 194.197C305.122 231.455 293.259 207.806 288.492 200.667C283.724 193.528 275.299 191.297 270.088 192.412C264.877 193.528 256.673 195.982 252.792 182.149C248.912 168.317 244.995 159.322 234.388 162.739C224.965 163.409 220.863 163.186 216.428 156.492C211.993 149.799 198.8 134.182 189.376 153.369C179.952 172.556 170.196 181.257 159.996 155.377C149.796 129.497 138.931 132.62 134.718 141.098C130.505 149.576 127.731 175.419 117.579 183.015C108.951 186.466 103.911 192.14 94.8061 211.153C83.0541 235.694 75.9586 214.053 70.5261 187.727C65.0936 161.401 48.796 159.616 42.3658 179.918Z" fill="url(#paint1_linear_257_1759)"/>
</g>
<path d="M25 201.274C28.6452 200.937 37.2216 196.189 42.3658 179.901C48.796 159.541 65.0936 161.331 70.5261 187.732C75.9586 214.133 83.0541 235.835 94.8061 211.224C106.558 186.613 107.629 189.743 117.756 183.481C127.98 177.158 128.215 155.887 135.492 141.202C139.705 132.7 149.796 129.337 159.996 155.29C170.196 181.243 179.952 172.518 189.376 153.276C198.8 134.035 211.993 149.697 216.428 156.409C220.863 163.121 226.165 165.204 234.388 162.673C244.634 159.52 248.912 168.267 252.792 182.138C256.673 196.01 264.877 193.549 270.088 192.43C275.299 191.311 283.724 193.549 288.492 200.708C293.259 207.868 305.122 231.584 312.994 194.22C319.291 164.329 329.622 150.879 334 147.89" stroke="#4A3AFF" stroke-width="2.02686" stroke-linecap="round" stroke-linejoin="round"/>
<line x1="199.197" y1="147.058" x2="199.197" y2="288.189" stroke="#4A3AFF" stroke-width="1.35124" stroke-linecap="round"/>
<g filter="url(#filter1_d_257_1759)">
<circle cx="198.932" cy="146.383" r="6.3826" fill="#4A3AFF"/>
<circle cx="198.932" cy="146.383" r="5.70697" stroke="white" stroke-width="1.35124"/>
</g>
<path d="M193.178 145.158C193.764 145.694 193.764 146.618 193.178 147.153L188.353 151.56C188.312 151.597 188.268 151.632 188.225 151.663L188.225 160.906C188.225 163.891 185.804 166.312 182.819 166.312L127.405 166.312C124.42 166.311 122 163.891 122 160.906L122 131.405C122 128.42 124.42 126 127.405 126L182.819 126C185.804 126 188.225 128.42 188.225 131.405L188.225 140.648C188.268 140.68 188.312 140.714 188.353 140.752L193.178 145.158Z" fill="#1E1B39"/>
<path d="M145.344 157.026V147.198H145.973V157.026H145.344ZM147.313 150.246C147.272 149.883 147.103 149.602 146.806 149.402C146.51 149.2 146.136 149.099 145.685 149.099C145.363 149.099 145.084 149.15 144.849 149.252C144.613 149.352 144.43 149.49 144.3 149.667C144.172 149.841 144.108 150.039 144.108 150.262C144.108 150.449 144.151 150.61 144.238 150.745C144.328 150.881 144.444 150.995 144.588 151.087C144.733 151.177 144.89 151.252 145.056 151.314C145.222 151.372 145.382 151.421 145.536 151.46L146.304 151.659C146.554 151.721 146.811 151.804 147.075 151.909C147.339 152.014 147.583 152.152 147.808 152.323C148.033 152.495 148.215 152.707 148.353 152.96C148.494 153.214 148.565 153.517 148.565 153.87C148.565 154.316 148.449 154.711 148.219 155.056C147.991 155.402 147.66 155.674 147.225 155.874C146.792 156.074 146.269 156.173 145.655 156.173C145.066 156.173 144.557 156.08 144.127 155.893C143.697 155.706 143.36 155.442 143.117 155.099C142.874 154.753 142.74 154.344 142.714 153.87H143.904C143.927 154.154 144.019 154.391 144.181 154.58C144.344 154.767 144.553 154.907 144.806 154.999C145.062 155.088 145.343 155.133 145.647 155.133C145.982 155.133 146.28 155.081 146.542 154.976C146.805 154.868 147.012 154.72 147.163 154.531C147.314 154.339 147.39 154.115 147.39 153.859C147.39 153.626 147.323 153.435 147.19 153.287C147.06 153.138 146.882 153.015 146.657 152.918C146.434 152.821 146.182 152.735 145.9 152.661L144.971 152.408C144.342 152.236 143.843 151.984 143.474 151.651C143.108 151.319 142.925 150.879 142.925 150.331C142.925 149.878 143.048 149.483 143.294 149.145C143.54 148.807 143.872 148.545 144.292 148.358C144.712 148.168 145.185 148.074 145.712 148.074C146.245 148.074 146.714 148.167 147.121 148.354C147.531 148.541 147.853 148.798 148.089 149.126C148.324 149.451 148.447 149.824 148.457 150.246H147.313ZM152.612 156.15C152.084 156.15 151.613 156.06 151.199 155.878C150.787 155.696 150.461 155.444 150.22 155.122C149.982 154.797 149.854 154.42 149.836 153.993H151.041C151.057 154.226 151.135 154.428 151.276 154.6C151.419 154.769 151.606 154.899 151.836 154.991C152.066 155.083 152.322 155.129 152.604 155.129C152.914 155.129 153.187 155.076 153.425 154.968C153.666 154.861 153.854 154.711 153.99 154.519C154.125 154.324 154.193 154.101 154.193 153.847C154.193 153.584 154.125 153.352 153.99 153.152C153.857 152.95 153.661 152.792 153.402 152.676C153.146 152.561 152.837 152.504 152.473 152.504H151.809V151.536H152.473C152.765 151.536 153.021 151.484 153.241 151.379C153.464 151.274 153.638 151.128 153.763 150.941C153.889 150.752 153.951 150.531 153.951 150.277C153.951 150.034 153.896 149.823 153.786 149.644C153.679 149.462 153.525 149.32 153.326 149.218C153.128 149.115 152.896 149.064 152.627 149.064C152.371 149.064 152.132 149.111 151.909 149.206C151.689 149.298 151.51 149.431 151.372 149.605C151.233 149.777 151.159 149.983 151.149 150.223H150.001C150.014 149.799 150.139 149.425 150.377 149.103C150.618 148.78 150.935 148.528 151.329 148.346C151.723 148.165 152.161 148.074 152.642 148.074C153.146 148.074 153.581 148.172 153.947 148.369C154.316 148.564 154.6 148.824 154.8 149.149C155.002 149.474 155.102 149.829 155.099 150.216C155.102 150.656 154.979 151.03 154.731 151.337C154.485 151.644 154.157 151.85 153.748 151.955V152.016C154.27 152.095 154.674 152.303 154.961 152.638C155.25 152.973 155.393 153.389 155.391 153.886C155.393 154.318 155.273 154.706 155.03 155.049C154.789 155.392 154.461 155.662 154.043 155.859C153.626 156.053 153.149 156.15 152.612 156.15ZM156.842 156.043V155.183L159.502 152.427C159.786 152.127 160.02 151.865 160.205 151.64C160.391 151.412 160.531 151.196 160.623 150.991C160.715 150.786 160.761 150.569 160.761 150.339C160.761 150.078 160.7 149.852 160.577 149.663C160.454 149.471 160.286 149.324 160.074 149.222C159.862 149.117 159.622 149.064 159.356 149.064C159.075 149.064 158.829 149.122 158.619 149.237C158.409 149.352 158.248 149.515 158.135 149.724C158.023 149.934 157.967 150.18 157.967 150.461H156.834C156.834 149.983 156.944 149.564 157.164 149.206C157.384 148.848 157.686 148.57 158.07 148.373C158.454 148.174 158.89 148.074 159.379 148.074C159.873 148.074 160.308 148.172 160.684 148.369C161.063 148.564 161.359 148.83 161.571 149.168C161.784 149.503 161.89 149.882 161.89 150.304C161.89 150.596 161.835 150.881 161.725 151.16C161.617 151.439 161.429 151.75 161.16 152.093C160.892 152.433 160.518 152.847 160.04 153.333L158.477 154.968V155.026H162.016V156.043H156.842ZM166.208 156.173C165.602 156.171 165.084 156.011 164.654 155.694C164.224 155.376 163.895 154.914 163.667 154.308C163.439 153.701 163.325 152.971 163.325 152.116C163.325 151.264 163.439 150.536 163.667 149.932C163.897 149.328 164.228 148.867 164.658 148.55C165.09 148.232 165.607 148.074 166.208 148.074C166.81 148.074 167.325 148.234 167.755 148.554C168.185 148.871 168.514 149.332 168.742 149.936C168.972 150.537 169.087 151.264 169.087 152.116C169.087 152.973 168.974 153.705 168.746 154.312C168.518 154.916 168.189 155.378 167.759 155.697C167.329 156.015 166.812 156.173 166.208 156.173ZM166.208 155.149C166.741 155.149 167.157 154.889 167.456 154.369C167.758 153.85 167.909 153.099 167.909 152.116C167.909 151.463 167.84 150.912 167.702 150.461C167.566 150.008 167.37 149.666 167.114 149.433C166.861 149.197 166.559 149.079 166.208 149.079C165.679 149.079 165.263 149.341 164.961 149.863C164.659 150.385 164.507 151.136 164.504 152.116C164.504 152.771 164.572 153.325 164.707 153.778C164.846 154.229 165.041 154.57 165.295 154.803C165.548 155.033 165.853 155.149 166.208 155.149Z" fill="white"/>
<path d="M132.964 141.701V141.096L135.235 138.611C135.501 138.32 135.721 138.067 135.893 137.852C136.065 137.634 136.193 137.431 136.276 137.24C136.361 137.048 136.404 136.846 136.404 136.636C136.404 136.394 136.345 136.184 136.229 136.008C136.115 135.831 135.958 135.694 135.759 135.598C135.559 135.502 135.335 135.453 135.087 135.453C134.823 135.453 134.592 135.508 134.395 135.618C134.2 135.725 134.049 135.877 133.942 136.071C133.836 136.266 133.784 136.495 133.784 136.757H132.991C132.991 136.354 133.084 136 133.27 135.695C133.456 135.391 133.709 135.153 134.029 134.983C134.351 134.813 134.713 134.728 135.114 134.728C135.517 134.728 135.874 134.813 136.185 134.983C136.497 135.153 136.741 135.383 136.918 135.672C137.094 135.961 137.183 136.282 137.183 136.636C137.183 136.889 137.137 137.136 137.045 137.378C136.956 137.618 136.799 137.885 136.575 138.181C136.353 138.474 136.045 138.832 135.651 139.256L134.106 140.908V140.962H137.304V141.701H132.964ZM140.841 141.795C140.447 141.795 140.092 141.717 139.776 141.56C139.46 141.403 139.207 141.188 139.017 140.915C138.827 140.642 138.722 140.33 138.704 139.981H139.511C139.542 140.292 139.683 140.55 139.934 140.754C140.187 140.955 140.489 141.056 140.841 141.056C141.123 141.056 141.374 140.99 141.593 140.858C141.815 140.726 141.988 140.544 142.114 140.314C142.241 140.081 142.305 139.818 142.305 139.524C142.305 139.224 142.239 138.957 142.107 138.722C141.977 138.484 141.798 138.297 141.57 138.161C141.341 138.024 141.08 137.955 140.787 137.952C140.576 137.95 140.36 137.983 140.139 138.05C139.917 138.115 139.735 138.199 139.591 138.302L138.812 138.208L139.228 134.822H142.802V135.561H139.927L139.685 137.59H139.726C139.867 137.478 140.044 137.385 140.256 137.311C140.469 137.237 140.691 137.2 140.921 137.2C141.342 137.2 141.717 137.301 142.047 137.502C142.378 137.702 142.638 137.975 142.826 138.322C143.016 138.669 143.111 139.065 143.111 139.511C143.111 139.95 143.013 140.342 142.816 140.687C142.621 141.029 142.352 141.3 142.01 141.499C141.667 141.696 141.277 141.795 140.841 141.795ZM144.567 141.701V134.822H145.4V138.235H145.48L148.57 134.822H149.659L146.77 137.926L149.659 141.701H148.651L146.259 138.503L145.4 139.471V141.701H144.567ZM153.679 134.822L155.722 140.613H155.802L157.844 134.822H158.718L156.192 141.701H155.332L152.806 134.822H153.679ZM159.682 141.701V136.542H160.474V141.701H159.682ZM160.085 135.682C159.93 135.682 159.797 135.629 159.685 135.524C159.575 135.419 159.52 135.292 159.52 135.144C159.52 134.997 159.575 134.87 159.685 134.765C159.797 134.66 159.93 134.607 160.085 134.607C160.239 134.607 160.371 134.66 160.481 134.765C160.593 134.87 160.649 134.997 160.649 135.144C160.649 135.292 160.593 135.419 160.481 135.524C160.371 135.629 160.239 135.682 160.085 135.682ZM164.089 141.808C163.592 141.808 163.163 141.699 162.803 141.479C162.445 141.258 162.168 140.949 161.973 140.552C161.781 140.154 161.684 139.69 161.684 139.162C161.684 138.633 161.781 138.167 161.973 137.764C162.168 137.359 162.439 137.043 162.786 136.817C163.135 136.589 163.543 136.474 164.009 136.474C164.277 136.474 164.543 136.519 164.805 136.609C165.067 136.698 165.305 136.844 165.52 137.045C165.735 137.245 165.907 137.509 166.034 137.838C166.162 138.167 166.226 138.573 166.226 139.054V139.39H162.249V138.705H165.42C165.42 138.414 165.361 138.154 165.245 137.926C165.131 137.697 164.967 137.517 164.754 137.385C164.544 137.253 164.295 137.187 164.009 137.187C163.693 137.187 163.42 137.265 163.189 137.422C162.961 137.576 162.785 137.778 162.662 138.026C162.539 138.275 162.477 138.541 162.477 138.826V139.283C162.477 139.672 162.544 140.002 162.679 140.273C162.815 140.542 163.004 140.747 163.246 140.888C163.488 141.027 163.769 141.096 164.089 141.096C164.298 141.096 164.486 141.067 164.654 141.009C164.824 140.949 164.971 140.859 165.094 140.74C165.217 140.619 165.312 140.469 165.379 140.29L166.145 140.505C166.064 140.765 165.929 140.993 165.739 141.19C165.548 141.385 165.313 141.537 165.033 141.647C164.753 141.755 164.439 141.808 164.089 141.808ZM168.6 141.701L167.028 136.542H167.861L168.977 140.492H169.03L170.132 136.542H170.979L172.067 140.478H172.121L173.236 136.542H174.069L172.497 141.701H171.717L170.589 137.737H170.508L169.38 141.701H168.6ZM178.771 137.697L178.059 137.899C178.014 137.78 177.948 137.665 177.861 137.553C177.776 137.438 177.659 137.344 177.512 137.271C177.364 137.197 177.175 137.16 176.944 137.16C176.628 137.16 176.365 137.232 176.155 137.378C175.946 137.521 175.842 137.704 175.842 137.926C175.842 138.123 175.914 138.278 176.057 138.392C176.2 138.507 176.424 138.602 176.729 138.678L177.495 138.866C177.956 138.978 178.3 139.149 178.526 139.38C178.752 139.608 178.865 139.903 178.865 140.263C178.865 140.559 178.78 140.823 178.61 141.056C178.442 141.289 178.207 141.473 177.905 141.607C177.602 141.741 177.251 141.808 176.85 141.808C176.324 141.808 175.888 141.694 175.543 141.466C175.198 141.237 174.98 140.904 174.888 140.465L175.641 140.277C175.712 140.554 175.848 140.763 176.047 140.902C176.249 141.04 176.512 141.11 176.836 141.11C177.206 141.11 177.499 141.031 177.716 140.875C177.936 140.716 178.046 140.525 178.046 140.304C178.046 140.124 177.983 139.974 177.858 139.854C177.732 139.73 177.54 139.639 177.28 139.578L176.42 139.377C175.947 139.265 175.6 139.091 175.379 138.856C175.159 138.619 175.05 138.322 175.05 137.966C175.05 137.675 175.131 137.417 175.295 137.193C175.46 136.969 175.685 136.794 175.97 136.666C176.256 136.538 176.581 136.474 176.944 136.474C177.454 136.474 177.855 136.586 178.146 136.81C178.44 137.034 178.648 137.33 178.771 137.697Z" fill="#E5E5EF"/>
<defs>
<filter id="filter0_d_257_1759" x="20.9463" y="21.2975" width="317.107" height="318.107" filterUnits="userSpaceOnUse" color-interpolation-filters="sRGB">
<feFlood flood-opacity="0" result="BackgroundImageFix"/>
<feColorMatrix in="SourceAlpha" type="matrix" values="0 0 0 0 0 0 0 0 0 0 0 0 0 0 0 0 0 0 127 0" result="hardAlpha"/>
<feOffset dy="1.35124"/>
<feGaussianBlur stdDeviation="2.02686"/>
<feComposite in2="hardAlpha" operator="out"/>
<feColorMatrix type="matrix" values="0 0 0 0 0.0509804 0 0 0 0 0.0392157 0 0 0 0 0.172549 0 0 0 0.08 0"/>
<feBlend mode="normal" in2="BackgroundImageFix" result="effect1_dropShadow_257_1759"/>
<feBlend mode="normal" in="SourceGraphic" in2="effect1_dropShadow_257_1759" result="shape"/>
</filter>
<filter id="filter1_d_257_1759" x="187.145" y="140" width="23.5751" height="23.5751" filterUnits="userSpaceOnUse" color-interpolation-filters="sRGB">
<feFlood flood-opacity="0" result="BackgroundImageFix"/>
<feColorMatrix in="SourceAlpha" type="matrix" values="0 0 0 0 0 0 0 0 0 0 0 0 0 0 0 0 0 0 127 0" result="hardAlpha"/>
<feOffset dy="5.40496"/>
<feGaussianBlur stdDeviation="2.70248"/>
<feComposite in2="hardAlpha" operator="out"/>
<feColorMatrix type="matrix" values="0 0 0 0 0.0509804 0 0 0 0 0.0392157 0 0 0 0 0.172549 0 0 0 0.08 0"/>
<feBlend mode="normal" in2="BackgroundImageFix" result="effect1_dropShadow_257_1759"/>
<feBlend mode="normal" in="SourceGraphic" in2="effect1_dropShadow_257_1759" result="shape"/>
</filter>
<linearGradient id="paint0_linear_257_1759" x1="179" y1="0" x2="179" y2="358" gradientUnits="userSpaceOnUse">
<stop stop-color="#6698FF"/>
<stop offset="0.401847" stop-color="#4E81FF"/>
<stop offset="0.760207" stop-color="#82CFFD"/>
<stop offset="1" stop-color="#789DFF"/>
</linearGradient>
<linearGradient id="paint1_linear_257_1759" x1="179.5" y1="135" x2="179.5" y2="308.668" gradientUnits="userSpaceOnUse">
<stop stop-color="#765DFF"/>
<stop offset="0.46679" stop-color="#CFCAFF"/>
<stop offset="1" stop-color="white"/>
</linearGradient>
</defs>
</svg>
