<svg width="28" height="28" viewBox="0 0 28 28" fill="none" xmlns="http://www.w3.org/2000/svg">
<g clip-path="url(#clip0_106_1055)">
<path d="M0.875 6.125C0.875 3.2255 3.2255 0.875 6.125 0.875H20.125C23.0245 0.875 25.375 3.2255 25.375 6.125V15.6491C24.2532 14.8845 22.8975 14.4375 21.4375 14.4375C21.1952 14.4375 20.9557 14.4498 20.7197 14.4739C20.7034 14.3975 20.6765 14.322 20.6384 14.2494C19.8546 12.7569 18.5465 11.581 16.958 10.9676C17.0263 10.677 17.0625 10.374 17.0625 10.0625C17.0625 7.88786 15.2996 6.125 13.125 6.125C10.9504 6.125 9.1875 7.88786 9.1875 10.0625C9.1875 10.374 9.22364 10.6769 9.29202 10.9675C6.67144 11.9793 4.8125 14.5225 4.8125 17.5C4.8125 17.9833 5.20424 18.375 5.6875 18.375C6.17076 18.375 6.5625 17.9833 6.5625 17.5C6.5625 15.2115 8.02677 13.265 10.0695 12.5463C10.7915 13.4334 11.8921 14 13.125 14C14.3579 14 15.4585 13.4333 16.1805 12.5462C17.3703 12.9647 18.3644 13.8 18.9872 14.8783C16.3297 15.8715 14.4375 18.4335 14.4375 21.4375C14.4375 22.8975 14.8845 24.2532 15.6491 25.375H6.125C3.2255 25.375 0.875 23.0245 0.875 20.125V6.125Z" fill="white"/>
<path fill-rule="evenodd" clip-rule="evenodd" d="M15.75 21.4375C15.75 18.2964 18.2964 15.75 21.4375 15.75C24.5786 15.75 27.125 18.2964 27.125 21.4375C27.125 24.5786 24.5786 27.125 21.4375 27.125C18.2964 27.125 15.75 24.5786 15.75 21.4375ZM23.8835 20.6553C24.1764 20.2709 24.1022 19.7219 23.7178 19.429C23.3334 19.1361 22.7844 19.2103 22.4915 19.5947L20.8267 21.7797L20.3623 21.217C20.0547 20.8443 19.5032 20.7916 19.1305 21.0992C18.7578 21.4068 18.705 21.9583 19.0127 22.331L20.1793 23.7445C20.3493 23.9505 20.6042 24.0675 20.8712 24.0623C21.1383 24.0571 21.3883 23.9302 21.5502 23.7178L23.8835 20.6553Z" fill="white"/>
</g>
<defs>
<clipPath id="clip0_106_1055">
<rect width="28" height="28" fill="white"/>
</clipPath>
</defs>
</svg>
