<svg width="28" height="28" viewBox="0 0 28 28" fill="none" xmlns="http://www.w3.org/2000/svg">
<path d="M24.9375 22.75H3.0625C2.71472 22.751 2.38146 22.8896 2.13554 23.1355C1.88962 23.3815 1.75101 23.7147 1.75 24.0625V25.8125C1.75035 25.9284 1.79655 26.0395 1.87852 26.1215C1.9605 26.2034 2.07157 26.2497 2.1875 26.25H25.8125C25.9284 26.2497 26.0395 26.2034 26.1215 26.1215C26.2034 26.0395 26.2497 25.9284 26.25 25.8125V24.0625C26.249 23.7147 26.1104 23.3815 25.8645 23.1355C25.6185 22.8896 25.2853 22.751 24.9375 22.75Z" fill="#659AFC"/>
<path d="M24.5 20.125C24.499 19.7772 24.3604 19.444 24.1145 19.198C23.8685 18.9521 23.5353 18.8135 23.1875 18.8125H4.8125C4.46472 18.8135 4.13147 18.9521 3.88554 19.198C3.63962 19.444 3.50101 19.7772 3.5 20.125V21.875H24.5V20.125Z" fill="#659AFC"/>
<path d="M22.75 16.1875C22.749 15.8397 22.6104 15.5065 22.3645 15.2605C22.1185 15.0146 21.7853 14.876 21.4375 14.875H6.5625C6.21472 14.876 5.88147 15.0146 5.63554 15.2605C5.38962 15.5065 5.25101 15.8397 5.25 16.1875V17.9375H22.75V16.1875Z" fill="#659AFC"/>
<path d="M10.6399 9.23999L9.91361 12.4469C9.8862 12.571 9.88689 12.6997 9.91562 12.8235C9.94435 12.9474 10.0004 13.0632 10.0796 13.1626C10.1589 13.262 10.2594 13.3424 10.3737 13.398C10.4881 13.4535 10.6134 13.4828 10.7405 13.4837C10.8934 13.4839 11.0434 13.4415 11.1736 13.3612L13.9999 11.6769L16.8261 13.3612C16.9687 13.4435 17.1321 13.4827 17.2966 13.4742C17.461 13.4656 17.6195 13.4095 17.7527 13.3128C17.886 13.2161 17.9884 13.0828 18.0476 12.9292C18.1067 12.7755 18.1201 12.608 18.0861 12.4469L17.3599 9.23999L19.8361 7.06999C19.9602 6.96031 20.0496 6.81676 20.0932 6.65699C20.1368 6.49722 20.1328 6.32818 20.0817 6.17065C20.0306 6.01311 19.9346 5.87394 19.8054 5.77023C19.6763 5.66652 19.5197 5.60279 19.3549 5.58686L16.078 5.28936L14.7786 2.26186C14.7129 2.10985 14.6042 1.98038 14.4658 1.88942C14.3274 1.79847 14.1654 1.75 13.9998 1.75C13.8342 1.75 13.6723 1.79847 13.5339 1.88942C13.3955 1.98038 13.2868 2.10985 13.2211 2.26186L11.9217 5.28936L8.64483 5.58686C8.47998 5.60279 8.32337 5.66652 8.19424 5.77023C8.06511 5.87394 7.96909 6.01311 7.91797 6.17065C7.86685 6.32818 7.86286 6.49722 7.9065 6.65699C7.95013 6.81676 8.03949 6.96031 8.16358 7.06999L10.6399 9.23999Z" fill="#659AFC"/>
</svg>
