<svg width="414" height="191" viewBox="0 0 414 191" fill="none" xmlns="http://www.w3.org/2000/svg">
<path d="M27.7708 188.613C27.102 188.613 26.5324 188.431 26.0619 188.067C25.5914 187.701 25.2319 187.169 24.9833 186.474C24.7347 185.776 24.6104 184.932 24.6104 183.944C24.6104 182.962 24.7347 182.123 24.9833 181.427C25.2348 180.729 25.5958 180.196 26.0663 179.829C26.5398 179.459 27.1079 179.275 27.7708 179.275C28.4336 179.275 29.0003 179.459 29.4708 179.829C29.9442 180.196 30.3052 180.729 30.5538 181.427C30.8053 182.123 30.9311 182.962 30.9311 183.944C30.9311 184.932 30.8068 185.776 30.5582 186.474C30.3097 187.169 29.9501 187.701 29.4796 188.067C29.0091 188.431 28.4395 188.613 27.7708 188.613ZM27.7708 187.637C28.4336 187.637 28.9485 187.317 29.3154 186.678C29.6823 186.039 29.8658 185.128 29.8658 183.944C29.8658 183.157 29.7815 182.487 29.6128 181.933C29.4471 181.38 29.2074 180.958 28.8937 180.668C28.583 180.378 28.2087 180.233 27.7708 180.233C27.1138 180.233 26.6004 180.557 26.2305 181.205C25.8607 181.85 25.6757 182.763 25.6757 183.944C25.6757 184.731 25.7586 185.4 25.9243 185.95C26.09 186.501 26.3282 186.919 26.6389 187.206C26.9526 187.493 27.3299 187.637 27.7708 187.637Z" fill="#615E83"/>
<path d="M13.7431 147.741C13.2223 147.741 12.7533 147.638 12.336 147.43C11.9188 147.223 11.5844 146.939 11.3329 146.578C11.0814 146.217 10.9438 145.806 10.9201 145.344H11.9854C12.0268 145.756 12.2132 146.096 12.5447 146.365C12.879 146.631 13.2785 146.765 13.7431 146.765C14.1159 146.765 14.4474 146.677 14.7373 146.503C15.0303 146.328 15.2596 146.088 15.4253 145.784C15.594 145.476 15.6783 145.128 15.6783 144.741C15.6783 144.344 15.591 143.99 15.4165 143.68C15.2448 143.366 15.0081 143.119 14.7063 142.938C14.4044 142.758 14.0597 142.666 13.6721 142.663C13.3939 142.66 13.1084 142.703 12.8154 142.792C12.5225 142.878 12.2813 142.989 12.0919 143.125L11.0622 143.001L11.6125 138.526H16.3353V139.503H12.5358L12.2162 142.184H12.2695C12.4559 142.036 12.6897 141.913 12.9708 141.816C13.2519 141.718 13.5448 141.669 13.8496 141.669C14.4059 141.669 14.9016 141.802 15.3366 142.069C15.7745 142.332 16.1178 142.693 16.3663 143.152C16.6178 143.61 16.7436 144.134 16.7436 144.723C16.7436 145.303 16.6134 145.821 16.353 146.276C16.0956 146.729 15.7405 147.087 15.2877 147.351C14.835 147.611 14.3201 147.741 13.7431 147.741ZM21.4719 147.741C20.8031 147.741 20.2335 147.559 19.763 147.195C19.2925 146.828 18.933 146.297 18.6844 145.602C18.4358 144.903 18.3116 144.06 18.3116 143.072C18.3116 142.089 18.4358 141.25 18.6844 140.555C18.9359 139.857 19.2969 139.324 19.7674 138.957C20.2409 138.587 20.809 138.402 21.4719 138.402C22.1347 138.402 22.7014 138.587 23.1719 138.957C23.6453 139.324 24.0063 139.857 24.2549 140.555C24.5064 141.25 24.6322 142.089 24.6322 143.072C24.6322 144.06 24.5079 144.903 24.2593 145.602C24.0108 146.297 23.6512 146.828 23.1807 147.195C22.7103 147.559 22.1406 147.741 21.4719 147.741ZM21.4719 146.765C22.1347 146.765 22.6496 146.445 23.0165 145.806C23.3834 145.167 23.5669 144.255 23.5669 143.072C23.5669 142.285 23.4826 141.614 23.3139 141.061C23.1482 140.508 22.9085 140.086 22.5948 139.796C22.2841 139.506 21.9098 139.361 21.4719 139.361C20.815 139.361 20.3015 139.685 19.9317 140.333C19.5618 140.978 19.3768 141.891 19.3768 143.072C19.3768 143.859 19.4597 144.528 19.6254 145.078C19.7911 145.628 20.0293 146.047 20.34 146.334C20.6537 146.621 21.031 146.765 21.4719 146.765ZM27.3131 145.131L27.2954 143.835H27.5084L30.4912 140.799H31.7873L28.6092 144.013H28.5204L27.3131 145.131ZM26.3366 147.617V138.526H27.3841V147.617H26.3366ZM30.6687 147.617L28.0055 144.243L28.7512 143.516L32.0003 147.617H30.6687Z" fill="#615E83"/>
<path d="M8.50285 97.6542V106.745H7.40206V98.8082H7.3488L5.12948 100.282V99.1633L7.40206 97.6542H8.50285ZM13.9579 106.869C13.4371 106.869 12.9681 106.765 12.5509 106.558C12.1337 106.351 11.7993 106.067 11.5478 105.706C11.2962 105.345 11.1586 104.934 11.135 104.472H12.2002C12.2417 104.883 12.4281 105.224 12.7595 105.493C13.0939 105.759 13.4934 105.892 13.9579 105.892C14.3308 105.892 14.6622 105.805 14.9522 105.63C15.2451 105.456 15.4745 105.216 15.6402 104.911C15.8088 104.604 15.8932 104.256 15.8932 103.868C15.8932 103.472 15.8059 103.118 15.6313 102.807C15.4597 102.494 15.2229 102.247 14.9211 102.066C14.6193 101.886 14.2746 101.794 13.8869 101.791C13.6088 101.788 13.3232 101.831 13.0303 101.92C12.7373 102.006 12.4961 102.116 12.3068 102.253L11.277 102.128L11.8274 97.6542H16.5501V98.6307H12.7506L12.431 101.312H12.4843C12.6707 101.164 12.9045 101.041 13.1856 100.943C13.4667 100.846 13.7597 100.797 14.0645 100.797C14.6208 100.797 15.1164 100.93 15.5514 101.196C15.9894 101.46 16.3326 101.821 16.5812 102.279C16.8327 102.738 16.9585 103.262 16.9585 103.851C16.9585 104.43 16.8283 104.948 16.5679 105.404C16.3104 105.857 15.9553 106.215 15.5026 106.478C15.0498 106.739 14.535 106.869 13.9579 106.869ZM21.6867 106.869C21.018 106.869 20.4483 106.687 19.9778 106.323C19.5073 105.956 19.1478 105.425 18.8992 104.729C18.6507 104.031 18.5264 103.188 18.5264 102.199C18.5264 101.217 18.6507 100.378 18.8992 99.6826C19.1508 98.9843 19.5118 98.4516 19.9823 98.0847C20.4557 97.7148 21.0239 97.5299 21.6867 97.5299C22.3496 97.5299 22.9162 97.7148 23.3867 98.0847C23.8602 98.4516 24.2212 98.9843 24.4697 99.6826C24.7213 100.378 24.847 101.217 24.847 102.199C24.847 103.188 24.7227 104.031 24.4742 104.729C24.2256 105.425 23.8661 105.956 23.3956 106.323C22.9251 106.687 22.3555 106.869 21.6867 106.869ZM21.6867 105.892C22.3496 105.892 22.8644 105.573 23.2314 104.934C23.5983 104.294 23.7818 103.383 23.7818 102.199C23.7818 101.412 23.6974 100.742 23.5287 100.189C23.363 99.6353 23.1234 99.2136 22.8097 98.9236C22.499 98.6336 22.1247 98.4886 21.6867 98.4886C21.0298 98.4886 20.5164 98.8127 20.1465 99.4607C19.7766 100.106 19.5917 101.019 19.5917 102.199C19.5917 102.986 19.6745 103.655 19.8402 104.206C20.0059 104.756 20.2442 105.175 20.5549 105.462C20.8685 105.749 21.2458 105.892 21.6867 105.892ZM27.528 104.259L27.5102 102.963H27.7233L30.706 99.9268H32.0021L28.824 103.14H28.7353L27.528 104.259ZM26.5515 106.745V97.6542H27.599V106.745H26.5515ZM30.8836 106.745L28.2204 103.371L28.9661 102.643L32.2152 106.745H30.8836Z" fill="#615E83"/>
<path d="M5.13018 65.9966C4.54428 65.9966 4.022 65.896 3.56334 65.6948C3.10764 65.4936 2.74515 65.2139 2.47587 64.8559C2.20955 64.4949 2.06456 64.0761 2.04088 63.5997H3.15942C3.18309 63.8927 3.2837 64.1457 3.46125 64.3587C3.63879 64.5688 3.87108 64.7316 4.15812 64.847C4.44515 64.9624 4.76325 65.0201 5.11242 65.0201C5.50302 65.0201 5.84924 64.952 6.15106 64.8159C6.45289 64.6798 6.68962 64.4904 6.86125 64.2478C7.03287 64.0051 7.11869 63.724 7.11869 63.4044C7.11869 63.0701 7.03583 62.7756 6.87012 62.5211C6.70441 62.2637 6.46177 62.0625 6.14219 61.9175C5.82261 61.7725 5.432 61.7 4.97039 61.7H4.24245V60.7235H4.97039C5.3314 60.7235 5.64802 60.6584 5.92026 60.5282C6.19545 60.398 6.40998 60.2145 6.56386 59.9778C6.72069 59.7411 6.79911 59.4629 6.79911 59.1433C6.79911 58.8356 6.73105 58.5678 6.59493 58.3399C6.45881 58.1121 6.26647 57.9345 6.01791 57.8073C5.7723 57.6801 5.48231 57.6164 5.14793 57.6164C4.83427 57.6164 4.53836 57.6741 4.2602 57.7896C3.98501 57.902 3.76012 58.0662 3.58553 58.2822C3.41094 58.4953 3.31625 58.7527 3.30146 59.0546H2.23618C2.25394 58.5782 2.39745 58.1609 2.66673 57.8029C2.93601 57.4419 3.28814 57.1607 3.72313 56.9595C4.16107 56.7583 4.64193 56.6577 5.16569 56.6577C5.72791 56.6577 6.21025 56.7716 6.61268 56.9995C7.01512 57.2244 7.32434 57.5218 7.54036 57.8916C7.75637 58.2615 7.86438 58.661 7.86438 59.0901C7.86438 59.602 7.72974 60.0385 7.46046 60.3995C7.19414 60.7605 6.83166 61.0105 6.373 61.1496V61.2206C6.94706 61.3153 7.39536 61.5594 7.7179 61.953C8.04045 62.3436 8.20172 62.8274 8.20172 63.4044C8.20172 63.8986 8.06708 64.3425 7.7978 64.736C7.53148 65.1266 7.16751 65.4344 6.70589 65.6593C6.24428 65.8842 5.71904 65.9966 5.13018 65.9966ZM12.9821 65.9966C12.3134 65.9966 11.7438 65.8146 11.2733 65.4506C10.8028 65.0837 10.4432 64.5526 10.1947 63.8572C9.9461 63.1588 9.82182 62.3155 9.82182 61.3271C9.82182 60.3447 9.9461 59.5058 10.1947 58.8104C10.4462 58.1121 10.8072 57.5795 11.2777 57.2125C11.7511 56.8426 12.3193 56.6577 12.9821 56.6577C13.645 56.6577 14.2116 56.8426 14.6821 57.2125C15.1556 57.5795 15.5166 58.1121 15.7652 58.8104C16.0167 59.5058 16.1424 60.3447 16.1424 61.3271C16.1424 62.3155 16.0182 63.1588 15.7696 63.8572C15.521 64.5526 15.1615 65.0837 14.691 65.4506C14.2205 65.8146 13.6509 65.9966 12.9821 65.9966ZM12.9821 65.0201C13.645 65.0201 14.1598 64.7005 14.5268 64.0613C14.8937 63.4222 15.0772 62.5108 15.0772 61.3271C15.0772 60.54 14.9928 59.8698 14.8242 59.3164C14.6585 58.7631 14.4188 58.3414 14.1051 58.0514C13.7944 57.7614 13.4201 57.6164 12.9821 57.6164C12.3252 57.6164 11.8118 57.9405 11.4419 58.5885C11.072 59.2336 10.8871 60.1465 10.8871 61.3271C10.8871 62.1143 10.9699 62.783 11.1357 63.3334C11.3014 63.8838 11.5396 64.3025 11.8503 64.5895C12.1639 64.8766 12.5412 65.0201 12.9821 65.0201ZM20.7941 65.9966C20.1254 65.9966 19.5558 65.8146 19.0853 65.4506C18.6148 65.0837 18.2552 64.5526 18.0067 63.8572C17.7581 63.1588 17.6338 62.3155 17.6338 61.3271C17.6338 60.3447 17.7581 59.5058 18.0067 58.8104C18.2582 58.1121 18.6192 57.5795 19.0897 57.2125C19.5632 56.8426 20.1313 56.6577 20.7941 56.6577C21.457 56.6577 22.0236 56.8426 22.4941 57.2125C22.9676 57.5795 23.3286 58.1121 23.5772 58.8104C23.8287 59.5058 23.9544 60.3447 23.9544 61.3271C23.9544 62.3155 23.8302 63.1588 23.5816 63.8572C23.333 64.5526 22.9735 65.0837 22.503 65.4506C22.0325 65.8146 21.4629 65.9966 20.7941 65.9966ZM20.7941 65.0201C21.457 65.0201 21.9719 64.7005 22.3388 64.0613C22.7057 63.4222 22.8892 62.5108 22.8892 61.3271C22.8892 60.54 22.8048 59.8698 22.6362 59.3164C22.4705 58.7631 22.2308 58.3414 21.9171 58.0514C21.6064 57.7614 21.2321 57.6164 20.7941 57.6164C20.1372 57.6164 19.6238 57.9405 19.2539 58.5885C18.884 59.2336 18.6991 60.1465 18.6991 61.3271C18.6991 62.1143 18.782 62.783 18.9477 63.3334C19.1134 63.8838 19.3516 64.3025 19.6623 64.5895C19.9759 64.8766 20.3532 65.0201 20.7941 65.0201ZM26.6354 63.3867L26.6176 62.0906H26.8307L29.8135 59.0546H31.1095L27.9315 62.2681H27.8427L26.6354 63.3867ZM25.6589 65.8723V56.782H26.7064V65.8723H25.6589ZM29.991 65.8723L27.3278 62.4989L28.0735 61.771L31.3226 65.8723H29.991Z" fill="#615E83"/>
<path d="M5.25335 25.1243C4.73255 25.1243 4.26353 25.0207 3.8463 24.8136C3.42907 24.6064 3.09469 24.3224 2.84317 23.9614C2.59164 23.6003 2.45405 23.189 2.43037 22.7274H3.49565C3.53708 23.1387 3.7235 23.479 4.05492 23.7483C4.38929 24.0146 4.78877 24.1478 5.25335 24.1478C5.62619 24.1478 5.95761 24.0605 6.2476 23.8859C6.54055 23.7113 6.76988 23.4716 6.93559 23.1668C7.10426 22.8591 7.1886 22.5114 7.1886 22.1238C7.1886 21.7272 7.1013 21.3736 6.92672 21.0629C6.75509 20.7493 6.51836 20.5022 6.21653 20.3217C5.91471 20.1412 5.56997 20.0494 5.18233 20.0465C4.90418 20.0435 4.61862 20.0864 4.32567 20.1752C4.03272 20.261 3.79156 20.372 3.60218 20.5081L2.57241 20.3838L3.1228 15.9097H7.84551V16.8862H4.04604L3.72646 19.5671H3.77972C3.96614 19.4192 4.19991 19.2963 4.48103 19.1987C4.76214 19.101 5.05509 19.0522 5.35988 19.0522C5.91619 19.0522 6.41183 19.1854 6.84682 19.4517C7.28477 19.7151 7.62802 20.0761 7.87659 20.5347C8.12811 20.9934 8.25387 21.5171 8.25387 22.106C8.25387 22.686 8.12367 23.2038 7.86327 23.6595C7.60583 24.1123 7.25074 24.4703 6.798 24.7337C6.34525 24.9941 5.83037 25.1243 5.25335 25.1243ZM12.9821 25.1243C12.3134 25.1243 11.7437 24.9423 11.2733 24.5783C10.8028 24.2114 10.4432 23.6802 10.1947 22.9849C9.9461 22.2865 9.82182 21.4432 9.82182 20.4548C9.82182 19.4724 9.9461 18.6335 10.1947 17.9381C10.4462 17.2398 10.8072 16.7071 11.2777 16.3402C11.7511 15.9703 12.3193 15.7854 12.9821 15.7854C13.645 15.7854 14.2116 15.9703 14.6821 16.3402C15.1556 16.7071 15.5166 17.2398 15.7652 17.9381C16.0167 18.6335 16.1424 19.4724 16.1424 20.4548C16.1424 21.4432 16.0182 22.2865 15.7696 22.9849C15.521 23.6802 15.1615 24.2114 14.691 24.5783C14.2205 24.9423 13.6509 25.1243 12.9821 25.1243ZM12.9821 24.1478C13.645 24.1478 14.1598 23.8282 14.5268 23.189C14.8937 22.5499 15.0772 21.6385 15.0772 20.4548C15.0772 19.6677 14.9928 18.9975 14.8242 18.4441C14.6585 17.8908 14.4188 17.4691 14.1051 17.1791C13.7944 16.8891 13.4201 16.7441 12.9821 16.7441C12.3252 16.7441 11.8118 17.0682 11.4419 17.7162C11.072 18.3613 10.8871 19.2742 10.8871 20.4548C10.8871 21.242 10.9699 21.9107 11.1357 22.4611C11.3014 23.0115 11.5396 23.4302 11.8503 23.7172C12.1639 24.0043 12.5412 24.1478 12.9821 24.1478ZM20.7941 25.1243C20.1254 25.1243 19.5558 24.9423 19.0853 24.5783C18.6148 24.2114 18.2552 23.6802 18.0067 22.9849C17.7581 22.2865 17.6338 21.4432 17.6338 20.4548C17.6338 19.4724 17.7581 18.6335 18.0067 17.9381C18.2582 17.2398 18.6192 16.7071 19.0897 16.3402C19.5632 15.9703 20.1313 15.7854 20.7941 15.7854C21.457 15.7854 22.0236 15.9703 22.4941 16.3402C22.9676 16.7071 23.3286 17.2398 23.5772 17.9381C23.8287 18.6335 23.9544 19.4724 23.9544 20.4548C23.9544 21.4432 23.8302 22.2865 23.5816 22.9849C23.333 23.6802 22.9735 24.2114 22.503 24.5783C22.0325 24.9423 21.4629 25.1243 20.7941 25.1243ZM20.7941 24.1478C21.457 24.1478 21.9719 23.8282 22.3388 23.189C22.7057 22.5499 22.8892 21.6385 22.8892 20.4548C22.8892 19.6677 22.8048 18.9975 22.6362 18.4441C22.4705 17.8908 22.2308 17.4691 21.9171 17.1791C21.6064 16.8891 21.2321 16.7441 20.7941 16.7441C20.1372 16.7441 19.6238 17.0682 19.2539 17.7162C18.884 18.3613 18.6991 19.2742 18.6991 20.4548C18.6991 21.242 18.782 21.9107 18.9477 22.4611C19.1134 23.0115 19.3516 23.4302 19.6623 23.7172C19.9759 24.0043 20.3532 24.1478 20.7941 24.1478ZM26.6354 22.5144L26.6176 21.2183H26.8307L29.8134 18.1822H31.1095L27.9315 21.3958H27.8427L26.6354 22.5144ZM25.6589 25V15.9097H26.7064V25H25.6589ZM29.991 25L27.3278 21.6266L28.0735 20.8987L31.3226 25H29.991Z" fill="#615E83"/>
<rect x="50.0171" y="13.0801" width="45" height="177" rx="9.82081" fill="white"/>
<rect x="128.017" y="13.0801" width="46" height="177" rx="9.82081" fill="white"/>
<rect x="206.017" y="13.0801" width="46" height="177" rx="9.82081" fill="white"/>
<rect x="285.017" y="13.0801" width="46" height="177" rx="9.82081" fill="white"/>
<rect x="364.017" y="13.0801" width="45" height="177" rx="9.82081" fill="white"/>
<path d="M49.9995 128.868H95.4151V180.259C95.4151 185.683 91.0182 190.08 85.5943 190.08H59.8203C54.3964 190.08 49.9995 185.683 49.9995 180.259V128.868Z" fill="#6C78FF"/>
<line x1="48.0084" y1="126.637" x2="97.4054" y2="126.637" stroke="#6C78FF" stroke-width="4.464" stroke-linecap="round"/>
<path d="M363.864 140.974H409.279V180.259C409.279 185.683 404.882 190.08 399.459 190.08H373.685C368.261 190.08 363.864 185.683 363.864 180.259V140.974Z" fill="#6C78FF"/>
<line x1="361.873" y1="138.742" x2="411.27" y2="138.742" stroke="#6C78FF" stroke-width="4.464" stroke-linecap="round"/>
<path d="M285.217 98.309H330.632V180.259C330.632 185.683 326.235 190.08 320.812 190.08H295.038C289.614 190.08 285.217 185.683 285.217 180.259V98.309Z" fill="#6C78FF"/>
<line x1="283.225" y1="96.0773" x2="332.622" y2="96.0773" stroke="#6C78FF" stroke-width="4.464" stroke-linecap="round"/>
<path d="M128.405 47.3253H173.821V180.259C173.821 185.683 169.424 190.08 164 190.08H138.226C132.802 190.08 128.405 185.683 128.405 180.259V47.3253Z" fill="#6C78FF"/>
<line x1="126.414" y1="45.0936" x2="175.811" y2="45.0936" stroke="#6C78FF" stroke-width="4.464" stroke-linecap="round"/>
<path d="M206.811 35.9468H252.227V180.259C252.227 185.683 247.83 190.08 242.406 190.08H216.632C211.208 190.08 206.811 185.683 206.811 180.259V35.9468Z" fill="#6C78FF"/>
<line x1="204.82" y1="33.7148" x2="254.217" y2="33.7148" stroke="#6C78FF" stroke-width="4.464" stroke-linecap="round"/>
<line x1="229.13" y1="4.8928" x2="229.13" y2="188.81" stroke="#93AAFD" stroke-width="1.7856" stroke-linecap="round" stroke-dasharray="4.46 4.46"/>
<circle cx="229.11" cy="31.9844" r="7.00966" fill="white" stroke="#6C78FF" stroke-width="0.892801"/>
<circle cx="229.109" cy="31.9845" r="4.35513" fill="#6C78FF"/>
<g filter="url(#filter0_d_106_909)">
<path d="M216.712 30.4062C217.487 31.1142 217.487 32.3349 216.712 33.043L210.336 38.8662C210.252 38.9426 210.164 39.0084 210.074 39.0654L210.074 43.3076C210.074 47.252 206.877 50.449 202.932 50.4492L137.641 50.4492C133.697 50.4492 130.499 47.2521 130.499 43.3076L130.499 20.1426C130.499 16.1979 133.697 13 137.641 13L202.932 13C206.877 13.0002 210.074 16.1981 210.074 20.1426L210.074 24.3848C210.164 24.4418 210.252 24.5076 210.336 24.584L216.712 30.4062Z" fill="white"/>
</g>
<path d="M155.891 38.2986V25.3124H156.723V38.2986H155.891ZM158.494 29.3402C158.439 28.86 158.216 28.488 157.824 28.2242C157.432 27.957 156.938 27.8234 156.343 27.8234C155.917 27.8234 155.548 27.8911 155.237 28.0263C154.926 28.1582 154.684 28.3408 154.511 28.5742C154.342 28.8042 154.258 29.0662 154.258 29.3605C154.258 29.6073 154.315 29.8204 154.43 29.9996C154.549 30.1789 154.703 30.3294 154.892 30.4511C155.085 30.5695 155.291 30.6692 155.511 30.7504C155.731 30.8282 155.942 30.8924 156.145 30.9432L157.159 31.2069C157.491 31.2881 157.831 31.398 158.179 31.5367C158.527 31.6753 158.85 31.8579 159.148 32.0845C159.446 32.3111 159.686 32.5918 159.868 32.9266C160.054 33.2614 160.147 33.6621 160.147 34.1288C160.147 34.7173 159.995 35.2398 159.691 35.6963C159.39 36.1529 158.952 36.513 158.377 36.7768C157.805 37.0406 157.114 37.1725 156.302 37.1725C155.524 37.1725 154.851 37.049 154.283 36.8022C153.715 36.5553 153.27 36.2053 152.949 35.7521C152.628 35.2956 152.45 34.7545 152.416 34.1288H153.989C154.019 34.5042 154.141 34.817 154.354 35.0673C154.571 35.3142 154.846 35.4985 155.181 35.6202C155.519 35.7386 155.89 35.7978 156.292 35.7978C156.735 35.7978 157.129 35.7284 157.474 35.5898C157.822 35.4477 158.096 35.2516 158.296 35.0013C158.495 34.7477 158.595 34.4518 158.595 34.1136C158.595 33.8059 158.507 33.5539 158.331 33.3578C158.159 33.1616 157.924 32.9993 157.626 32.8708C157.332 32.7423 156.999 32.629 156.627 32.5309L155.399 32.1961C154.567 31.9695 153.908 31.6364 153.421 31.1968C152.937 30.7572 152.695 30.1755 152.695 29.4518C152.695 28.8532 152.858 28.3307 153.182 27.8843C153.507 27.4379 153.947 27.0913 154.501 26.8444C155.056 26.5941 155.682 26.469 156.378 26.469C157.082 26.469 157.702 26.5924 158.24 26.8393C158.781 27.0862 159.207 27.4261 159.518 27.8589C159.829 28.2884 159.992 28.7822 160.005 29.3402H158.494ZM165.495 37.142C164.799 37.142 164.176 37.022 163.628 36.7819C163.084 36.5418 162.653 36.2087 162.335 35.7825C162.02 35.3531 161.851 34.8559 161.828 34.2912H163.42C163.441 34.5989 163.544 34.8661 163.73 35.0927C163.919 35.3159 164.166 35.4883 164.471 35.6101C164.775 35.7318 165.113 35.7927 165.485 35.7927C165.894 35.7927 166.256 35.7217 166.571 35.5796C166.889 35.4376 167.137 35.2398 167.316 34.9861C167.496 34.7291 167.585 34.4332 167.585 34.0984C167.585 33.7501 167.496 33.444 167.316 33.1802C167.14 32.9131 166.882 32.7034 166.54 32.5512C166.202 32.399 165.793 32.3229 165.313 32.3229H164.435V31.0446H165.313C165.698 31.0446 166.036 30.9753 166.327 30.8366C166.621 30.698 166.851 30.5052 167.017 30.2583C167.183 30.0081 167.266 29.7156 167.266 29.3808C167.266 29.0595 167.193 28.7805 167.047 28.5438C166.905 28.3036 166.703 28.116 166.439 27.9807C166.178 27.8454 165.871 27.7778 165.516 27.7778C165.177 27.7778 164.861 27.8403 164.567 27.9655C164.276 28.0872 164.039 28.2631 163.857 28.493C163.674 28.7196 163.576 28.9918 163.563 29.3097H162.046C162.063 28.7484 162.228 28.2546 162.543 27.8285C162.861 27.4024 163.28 27.0693 163.801 26.8292C164.322 26.5891 164.9 26.469 165.536 26.469C166.202 26.469 166.777 26.5992 167.261 26.8596C167.748 27.1166 168.123 27.4599 168.387 27.8894C168.654 28.3189 168.786 28.7889 168.782 29.2996C168.786 29.8813 168.623 30.375 168.295 30.7808C167.971 31.1867 167.538 31.4589 166.997 31.5975V31.6787C167.687 31.7835 168.221 32.0575 168.6 32.5005C168.982 32.9435 169.171 33.4931 169.168 34.1491C169.171 34.7207 169.012 35.233 168.691 35.6862C168.373 36.1393 167.939 36.4961 167.387 36.7565C166.836 37.0135 166.205 37.142 165.495 37.142ZM171.798 37.0964C171.521 37.0964 171.282 36.9983 171.083 36.8022C170.883 36.6026 170.784 36.3625 170.784 36.0818C170.784 35.8045 170.883 35.5678 171.083 35.3717C171.282 35.1721 171.521 35.0724 171.798 35.0724C172.075 35.0724 172.314 35.1721 172.513 35.3717C172.713 35.5678 172.813 35.8045 172.813 36.0818C172.813 36.2678 172.765 36.4386 172.671 36.5942C172.579 36.7464 172.458 36.8681 172.305 36.9594C172.153 37.0507 171.984 37.0964 171.798 37.0964ZM177.51 26.611V37H175.937V28.1836H175.877L173.391 29.8069V28.3053L175.983 26.611H177.51ZM180.67 37L185.205 28.0314V27.9553H179.96V26.611H186.829V28.001L182.309 37H180.67ZM191.882 37.142C191.247 37.142 190.675 37.0203 190.168 36.7768C189.664 36.5299 189.261 36.1917 188.96 35.7623C188.659 35.3328 188.499 34.8424 188.479 34.2912H190C190.038 34.7376 190.235 35.1045 190.594 35.3919C190.952 35.6794 191.382 35.8231 191.882 35.8231C192.281 35.8231 192.635 35.7318 192.943 35.5492C193.254 35.3632 193.497 35.1079 193.673 34.7832C193.852 34.4586 193.942 34.0883 193.942 33.6723C193.942 33.2496 193.851 32.8725 193.668 32.5411C193.485 32.2097 193.233 31.9493 192.912 31.7599C192.594 31.5705 192.229 31.4741 191.816 31.4707C191.502 31.4707 191.186 31.5248 190.868 31.6331C190.55 31.7413 190.293 31.8833 190.097 32.0592L188.661 31.8461L189.244 26.611H194.956V27.9553H190.548L190.218 30.862H190.279C190.482 30.6659 190.751 30.5018 191.086 30.3699C191.424 30.238 191.786 30.1721 192.171 30.1721C192.804 30.1721 193.367 30.3226 193.861 30.6236C194.358 30.9246 194.748 31.3355 195.032 31.8563C195.32 32.3737 195.462 32.9689 195.459 33.6419C195.462 34.3148 195.31 34.9151 195.002 35.4427C194.698 35.9702 194.275 36.3862 193.734 36.6906C193.196 36.9915 192.579 37.142 191.882 37.142Z" fill="#1E1B39"/>
<defs>
<filter id="filter0_d_106_909" x="116.214" y="0.500791" width="115.364" height="66.0188" filterUnits="userSpaceOnUse" color-interpolation-filters="sRGB">
<feFlood flood-opacity="0" result="BackgroundImageFix"/>
<feColorMatrix in="SourceAlpha" type="matrix" values="0 0 0 0 0 0 0 0 0 0 0 0 0 0 0 0 0 0 127 0" result="hardAlpha"/>
<feOffset dy="1.7856"/>
<feGaussianBlur stdDeviation="7.14241"/>
<feComposite in2="hardAlpha" operator="out"/>
<feColorMatrix type="matrix" values="0 0 0 0 0.0509804 0 0 0 0 0.0392157 0 0 0 0 0.172549 0 0 0 0.12 0"/>
<feBlend mode="normal" in2="BackgroundImageFix" result="effect1_dropShadow_106_909"/>
<feBlend mode="normal" in="SourceGraphic" in2="effect1_dropShadow_106_909" result="shape"/>
</filter>
</defs>
</svg>
