<svg width="52" height="52" viewBox="0 0 52 52" fill="none" xmlns="http://www.w3.org/2000/svg">
<rect width="52" height="52" rx="18" fill="white"/>
<path fill-rule="evenodd" clip-rule="evenodd" d="M19.3084 28.3584C19.5171 28.8206 19.557 29.3414 19.4212 29.83C19.2855 30.3185 18.9826 30.744 18.5655 31.0323C18.1483 31.3206 17.6432 31.4535 17.1382 31.4077C16.6332 31.362 16.1602 31.1405 15.8016 30.782C15.443 30.4234 15.2216 29.9504 15.1758 29.4454C15.1301 28.9403 15.2629 28.4353 15.5512 28.0181C15.8395 27.6009 16.265 27.2981 16.7536 27.1623C17.2422 27.0266 17.7629 27.0665 18.2251 27.2751L20.7753 24.7249C20.6264 24.395 20.5625 24.0329 20.5896 23.6719C20.6166 23.3109 20.7337 22.9624 20.9301 22.6583C21.1265 22.3542 21.396 22.1041 21.714 21.931C22.0319 21.7578 22.3882 21.6671 22.7502 21.6671C23.1122 21.6671 23.4685 21.7578 23.7864 21.931C24.1044 22.1041 24.3738 22.3542 24.5703 22.6583C24.7667 22.9624 24.8838 23.3109 24.9108 23.6719C24.9379 24.0329 24.874 24.395 24.7251 24.7249L27.2753 27.2751C27.5555 27.1486 27.8594 27.0832 28.1669 27.0832C28.4743 27.0832 28.7782 27.1486 29.0584 27.2751L32.6919 23.6416C32.4833 23.1794 32.4434 22.6587 32.5791 22.1701C32.7149 21.6815 33.0177 21.256 33.4349 20.9677C33.8521 20.6794 34.3572 20.5466 34.8622 20.5923C35.3672 20.6381 35.8402 20.8595 36.1988 21.2181C36.5574 21.5767 36.7788 22.0497 36.8246 22.5547C36.8703 23.0597 36.7375 23.5648 36.4492 23.982C36.1609 24.3991 35.7354 24.702 35.2468 24.8377C34.7582 24.9735 34.2375 24.9336 33.7753 24.7249L30.1418 28.3584C30.2907 28.6884 30.3545 29.0505 30.3275 29.4115C30.3004 29.7725 30.1833 30.121 29.9869 30.4251C29.7905 30.7292 29.521 30.9793 29.2031 31.1524C28.8851 31.3256 28.5289 31.4163 28.1669 31.4163C27.8048 31.4163 27.4486 31.3256 27.1306 31.1524C26.8127 30.9793 26.5432 30.7292 26.3468 30.4251C26.1504 30.121 26.0333 29.7725 26.0063 29.4115C25.9792 29.0505 26.043 28.6884 26.1919 28.3584L23.6418 25.8083C23.3616 25.9348 23.0576 26.0002 22.7502 26.0002C22.4427 26.0002 22.1388 25.9348 21.8586 25.8083L19.3084 28.3584Z" fill="#6C78FF"/>
</svg>
