<svg width="32" height="32" viewBox="0 0 32 32" fill="none" xmlns="http://www.w3.org/2000/svg">
<rect width="32" height="32" rx="10" fill="#659AFC"/>
<path fill-rule="evenodd" clip-rule="evenodd" d="M9.23909 11.8958C10.0601 11.0748 11.3134 10.8432 12.3776 11.3364C11.5428 12.8391 11.7144 14.7511 12.8931 16.0852C11.7844 16.9277 10.2232 16.8199 9.23913 15.8359C8.15118 14.7479 8.15114 12.9844 9.23909 11.8958ZM13.8978 11.2448C12.7368 12.4059 12.7368 14.287 13.8978 15.4482C15.0588 16.6093 16.94 16.6092 18.1011 15.4482C19.2623 14.2871 19.2622 12.406 18.1011 11.2448C16.9401 10.0837 15.0582 10.0838 13.8978 11.2448ZM20.5577 21.6265L20.557 20.1869C20.557 19.6237 20.35 19.1305 19.9507 18.7366C17.3724 16.1945 14.6148 16.2046 12.0465 18.7566C11.6526 19.1482 11.4494 19.636 11.4463 20.1939L11.4402 21.6265L20.5577 21.6265ZM21.7273 21.6265L21.7265 20.1869C21.7257 19.3114 21.3949 18.5189 20.7716 17.9041C20.5185 17.654 20.2615 17.4255 20.003 17.2177C21.5103 16.9115 23.033 17.4778 24.4933 18.9181C24.8688 19.2875 25.0627 19.7491 25.0627 20.2777V21.6272H21.7272L21.7273 21.6265ZM6.93523 21.6265H10.2707L10.2776 20.1877C10.2815 19.3221 10.6077 18.5373 11.2225 17.9271C11.4818 17.6693 11.7441 17.4339 12.0088 17.2208C10.4969 16.9084 8.96958 17.4731 7.50393 18.9181C7.12924 19.2874 6.93611 19.7491 6.93534 20.2777L6.93457 21.6272L6.93523 21.6265ZM19.622 11.3356C20.6861 10.8432 21.9396 11.074 22.7606 11.895C23.8493 12.9829 23.8493 14.7471 22.7606 15.8352C21.7765 16.8193 20.2153 16.9277 19.1066 16.0845C20.2846 14.7503 20.4569 12.8383 19.622 11.3356Z" fill="white"/>
</svg>
