<svg width="24" height="24" viewBox="0 0 24 24" fill="none" xmlns="http://www.w3.org/2000/svg">
<path d="M6.16634 19.9167C6.16634 20.3769 5.79326 20.75 5.333 20.75C4.87275 20.75 4.49967 20.3769 4.49967 19.9167C4.49967 19.4564 4.87275 19.0833 5.333 19.0833C5.79326 19.0833 6.16634 19.4564 6.16634 19.9167ZM11.9997 16.5833C11.5394 16.5833 11.1663 16.9564 11.1663 17.4167C11.1663 17.8769 11.5394 18.25 11.9997 18.25C12.4599 18.25 12.833 17.8769 12.833 17.4167C12.833 16.9564 12.4599 16.5833 11.9997 16.5833ZM18.6663 19.0833C18.2061 19.0833 17.833 19.4564 17.833 19.9167C17.833 20.3769 18.2061 20.75 18.6663 20.75C19.1266 20.75 19.4997 20.3769 19.4997 19.9167C19.4997 19.4564 19.1266 19.0833 18.6663 19.0833ZM15.9222 8.00585C16.2477 7.68034 16.2477 7.15299 15.9222 6.82747L12.5889 3.49414C12.2633 3.16862 11.736 3.16862 11.4105 3.49414L8.07715 6.82747C7.75163 7.15299 7.75163 7.68034 8.07715 8.00585C8.40266 8.33137 8.93001 8.33137 9.25553 8.00585L11.1663 6.09505V14.9167C11.1663 15.3769 11.5395 15.75 11.9997 15.75C12.4599 15.75 12.833 15.3769 12.833 14.9167V6.09505L14.7438 8.00585C14.9066 8.16861 15.1198 8.25 15.333 8.25C15.5462 8.25 15.7594 8.16861 15.9222 8.00585ZM20.9222 8.49414L19.2555 6.82747C18.93 6.50195 18.4027 6.50195 18.0771 6.82747L16.4105 8.49414C16.085 8.81965 16.085 9.347 16.4105 9.67252C16.736 9.99804 17.2633 9.99804 17.5889 9.67252L17.833 9.42838V17.4167C17.833 17.8769 18.2061 18.25 18.6663 18.25C19.1265 18.25 19.4997 17.8769 19.4997 17.4167V9.42838L19.7438 9.67252C19.9066 9.83528 20.1198 9.91666 20.333 9.91666C20.5462 9.91666 20.7594 9.83528 20.9222 9.67252C21.2477 9.347 21.2477 8.81965 20.9222 8.49414ZM7.58886 8.49414L5.9222 6.82747C5.59668 6.50195 5.06933 6.50195 4.74381 6.82747L3.07715 8.49414C2.75163 8.81965 2.75163 9.347 3.07715 9.67252C3.40266 9.99804 3.93001 9.99804 4.25553 9.67252L4.49967 9.42838V17.4167C4.49967 17.8769 4.8728 18.25 5.333 18.25C5.79321 18.25 6.16634 17.8769 6.16634 17.4167V9.42838L6.41048 9.67252C6.57324 9.83528 6.78645 9.91666 6.99967 9.91666C7.21289 9.91666 7.4261 9.83528 7.58886 9.67252C7.91438 9.347 7.91438 8.81965 7.58886 8.49414ZM15.7497 9.91666C15.2895 9.91666 14.9163 10.2898 14.9163 10.75V16.1667C14.9163 16.6269 15.2895 17 15.7497 17C16.2099 17 16.583 16.6269 16.583 16.1667V10.75C16.583 10.2898 16.2099 9.91666 15.7497 9.91666ZM8.24967 9.91666C7.78946 9.91666 7.41634 10.2898 7.41634 10.75V16.1667C7.41634 16.6269 7.78946 17 8.24967 17C8.70988 17 9.083 16.6269 9.083 16.1667V10.75C9.083 10.2898 8.70988 9.91666 8.24967 9.91666Z" fill="#6C78FF"/>
</svg>
