<svg width="24" height="24" viewBox="0 0 24 24" fill="none" xmlns="http://www.w3.org/2000/svg">
<path d="M22.2786 2.50482C22.304 2.32671 22.2876 2.14513 22.2307 1.97445C22.1738 1.80376 22.078 1.64866 21.9508 1.52142C21.835 1.41037 21.696 1.32649 21.5438 1.27588C21.3916 1.22527 21.23 1.20919 21.0708 1.22882C14.4444 2.03402 10.6494 5.00182 8.4802 7.92342L7.466 7.87062C7.10106 7.85177 6.73624 7.90979 6.39515 8.04092C6.05406 8.17205 5.74433 8.37336 5.486 8.63182L3.902 10.2158C3.88295 10.235 3.86889 10.2585 3.86105 10.2843C3.85322 10.3102 3.85185 10.3376 3.85706 10.3641C3.86227 10.3906 3.87391 10.4154 3.89095 10.4363C3.90799 10.4573 3.92992 10.4737 3.9548 10.4842L6.4804 11.5314C6.19547 12.25 5.96815 12.99 5.8006 13.7446C5.77138 13.8784 5.77622 14.0174 5.81465 14.1489C5.85309 14.2803 5.9239 14.4 6.0206 14.497L9.017 17.4846C9.11399 17.5813 9.23369 17.6521 9.36514 17.6906C9.4966 17.729 9.63559 17.7338 9.7694 17.7046C10.524 17.537 11.264 17.3097 11.9826 17.0248L13.0298 19.5504C13.0403 19.5753 13.0567 19.5972 13.0777 19.6143C13.0987 19.6313 13.1235 19.6429 13.15 19.6482C13.1765 19.6534 13.2038 19.652 13.2297 19.6442C13.2555 19.6363 13.2791 19.6223 13.2982 19.6032L14.8822 18.0192C15.1405 17.7608 15.3418 17.4511 15.4729 17.11C15.604 16.7689 15.6621 16.4041 15.6434 16.0392L15.5906 15.025C18.5056 12.88 21.4602 9.09162 22.2786 2.50482ZM13.9186 11.6018C13.7202 11.8003 13.4673 11.9355 13.1921 11.9903C12.9168 12.0451 12.6314 12.017 12.3721 11.9097C12.1128 11.8023 11.8912 11.6204 11.7352 11.387C11.5793 11.1537 11.496 10.8793 11.496 10.5986C11.496 10.3179 11.5793 10.0436 11.7352 9.81021C11.8912 9.57685 12.1128 9.39497 12.3721 9.28759C12.6314 9.1802 12.9168 9.15213 13.1921 9.20692C13.4673 9.26172 13.7202 9.39692 13.9186 9.59542C14.1842 9.86114 14.3336 10.2214 14.334 10.5971C14.3344 10.9728 14.1858 11.3333 13.9208 11.5996L13.9186 11.6018ZM14.7986 8.72422C14.5372 8.46309 14.3591 8.13028 14.2868 7.76791C14.2146 7.40553 14.2515 7.02987 14.3928 6.68846C14.5341 6.34704 14.7735 6.05521 15.0807 5.84988C15.3879 5.64455 15.7491 5.53495 16.1186 5.53495C16.4881 5.53495 16.8493 5.64455 17.1565 5.84988C17.4637 6.05521 17.7031 6.34704 17.8444 6.68846C17.9857 7.02987 18.0226 7.40553 17.9504 7.76791C17.8781 8.13028 17.7 8.46309 17.4386 8.72422C17.2649 8.89829 17.0586 9.03635 16.8314 9.13048C16.6042 9.22461 16.3607 9.27296 16.1148 9.27276C15.8689 9.27255 15.6255 9.2238 15.3985 9.12929C15.1715 9.03478 14.9654 8.89638 14.792 8.72202L14.7986 8.72422ZM3.3982 18.0258C2.95471 17.8713 2.47895 17.8334 2.0166 17.9158C1.97715 17.9229 1.93658 17.9203 1.89831 17.9085C1.86003 17.8966 1.82515 17.8757 1.7966 17.8476C1.75945 17.8112 1.73444 17.7641 1.725 17.713C1.71555 17.6618 1.72211 17.6089 1.7438 17.5616C2.2234 16.499 3.5434 14.3628 5.9084 16.0876C5.92068 16.0988 5.93049 16.1123 5.9372 16.1275C5.94392 16.1426 5.94739 16.159 5.94739 16.1756C5.94739 16.1922 5.94392 16.2086 5.9372 16.2237C5.93049 16.2389 5.92068 16.2525 5.9084 16.2636C5.58907 16.5139 5.33337 16.836 5.16209 17.2038C4.99082 17.5715 4.90883 17.9746 4.9228 18.38C4.92444 18.4273 4.94397 18.4723 4.97746 18.5058C5.01094 18.5392 5.05588 18.5588 5.1032 18.5604C5.5059 18.5765 5.90677 18.498 6.27357 18.331C6.64038 18.164 6.9629 17.9133 7.2152 17.599C7.22635 17.5856 7.2403 17.5749 7.25608 17.5675C7.27186 17.5601 7.28907 17.5562 7.3065 17.5562C7.32392 17.5562 7.34113 17.5601 7.35691 17.5675C7.37269 17.5749 7.38665 17.5856 7.3978 17.599C7.7278 17.9928 8.6342 19.271 7.631 20.5074C7.18923 21.0356 6.5566 21.3677 5.871 21.4314C4.892 21.5392 3.0924 21.8472 2.351 22.6942C2.32167 22.7302 2.28301 22.7574 2.23924 22.7729C2.19548 22.7884 2.14829 22.7916 2.10286 22.782C2.05742 22.7725 2.01549 22.7506 1.98165 22.7188C1.94781 22.687 1.92337 22.6466 1.911 22.6018C1.6602 21.713 1.2664 19.733 3.3982 18.0258Z" fill="#6C78FF"/>
</svg>
